o 
v 29.04 0 -0.55
v 34.48 0 0
v 29.41 0 0
v 28.08 0 -1.92
v 28.42 0 -1.438
v 28.244 0 -1.687
v 28.09 0 -3.38
v 27.49 0 -2.73
v 29.52 0 -3.23
v 28.69 0 -4.03
v 32.106 0 -4.233
v 30.36 0 -2.4
v 31.71 0 -3.83
v 38.82 0 -28.77
v 37.64 0 -18.19
v 37.64 0 -25.54
v 39.442 0 -30.47
v 39.14 0 -29.648
v 39.935 0 -31.8
v 39.711 0 -31.199
v 40.19 0 -32.48
v 40.099 0 -32.239
v 39.478 0 -34.076
v 39.78 0 -33.68
v 39.621 0 -33.883
v 39.262 0 -34.401
v 39.356 0 -34.251
v 39.18 0 -34.59
v 39.202 0 -34.516
v 39.51 0 -35.898
v 39.266 0 -34.954
v 40.383 0 -39.166
v 39.89 0 -37.331
v 41.62 0 -43.68
v 40.967 0 -41.312
v 45.05 0 -54.26
v 44.06 0 -52.61
v 45.558 0 -57.857
v 45.795 0 -57.147
v 45.7 0 -57.43
v 45.429 0 -58.635
v 45.469 0 -58.233
v 45.483 0 -59.839
v 45.435 0 -59.144
v 41.44 0 -62.36
v 42.48 0 -63.53
v 41.946 0 -62.928
v 40.6 0 -61.423
v 40.984 0 -61.85
v 40.14 0 -60.92
v 40.311 0 -61.105
v 38.957 0 -59.601
v 39.713 0 -60.449
v 39.366 0 -60.06
v 38.03 0 -58.57
v 38.505 0 -59.097
v 34.84 0 -53.31
v 36.16 0 -55.44
v 36.06 0 -54.26
v 34.022 0 -52.697
v 34.383 0 -52.954
v 33.464 0 -52.417
v 33.726 0 -52.522
v 32.92 0 -52.35
v 33.206 0 -52.364
v 32.45 0 -52.397
v 32.702 0 -52.362
v 31.9 0 -52.523
v 32.178 0 -52.451
v 31.39 0 -52.71
v 31.632 0 -52.61
v 20.83 0 -43.264
v 21.67 0 -44.3
v 21.235 0 -43.755
v 20.183 0 -42.523
v 20.474 0 -42.846
v 19.87 0 -42.24
v 19.976 0 -42.314
v 19.35 0 -42.551
v 19.652 0 -42.323
v 18.727 0 -43.196
v 19.021 0 -42.862
v 18.48 0 -43.68
v 18.527 0 -43.489
v 18.76 0 -44.119
v 18.565 0 -43.829
v 19.407 0 -45.028
v 19.046 0 -44.526
v 20.28 0 -46.22
v 19.824 0 -45.601
v 22.134 0 -49.676
v 22.02 0 -49.14
v 22.047 0 -49.4
v 22.576 0 -50.424
v 22.302 0 -50.005
v 23.53 0 -51.68
v 22.978 0 -50.97
v 24.54 0 -56.27
v 25.04 0 -53.6
v 24.78 0 -54.94
v 26.68 0 -58.274
v 25.9 0 -57.54
v 26.283 0 -57.902
v 27.43 0 -58.97
v 27.069 0 -58.636
v 27.99 0 -59.47
v 27.744 0 -59.254
v 30 0 -59.73
v 28.73 0 -60.13
v 34.264 0 -63.989
v 34.13 0 -63.03
v 34.182 0 -63.565
v 34.68 0 -64.851
v 34.416 0 -64.389
v 35.7 0 -66.31
v 35.094 0 -65.462
v 36.9 0 -72.02
v 36.21 0 -69.57
v 35.54 0 -70.37
v 38.278 0 -75.706
v 38.652 0 -75.013
v 38.41 0 -75.44
v 38.097 0 -76.162
v 38.173 0 -75.949
v 38.044 0 -76.479
v 38.054 0 -76.341
v 38.148 0 -76.702
v 38.07 0 -76.57
v 38.524 0 -77.28
v 38.304 0 -76.945
v 40.64 0 -80.48
v 39.096 0 -78.151
v 39.42 0 -78.65
v 45.19 0 -82.42
v 42.92 0 -81.46
v 45.194 0 -83.845
v 45.19 0 -83.49
v 45.224 0 -84.798
v 45.206 0 -84.29
v 45.277 0 -85.89
v 45.248 0 -85.34
v 47.8 0 -89.39
v 45.31 0 -86.42
v 45.41 0 -88.28
v 49.1 0 -93.63
v 49.774 0 -91.888
v 49.63 0 -92.26
v 49.91 0 -98.2
v 49.5 0 -95.91
v 53.26 0 -100
v 51.57 0 -99.11
v 58.77 0 -98.21
v 55.38 0 -99.71
v 57.53 0 -99.42
v 60.22 0 -95.57
v 60 0 -97
v 60.345 0 -94.499
v 60.305 0 -94.974
v 60.265 0 -93.578
v 60.334 0 -94.061
v 59.93 0 -92.14
v 60.133 0 -92.966
v 64.04 0 -88.91
v 60.86 0 -89.84
v 62.27 0 -89.96
v 65.79 0 -82.94
v 65.79 0 -87.85
v 70.99 0 -81.22
v 68.27 0 -82.54
v 69.82 0 -82.35
v 71.676 0 -80.528
v 71.327 0 -80.884
v 72.334 0 -79.832
v 72.018 0 -80.171
v 72.82 0 -79.28
v 72.608 0 -79.529
v 73.17 0 -77.6
v 73.49 0 -78.49
v 75.101 0 -72.902
v 74.274 0 -74.266
v 74.69 0 -73.58
v 75.79 0 -71.751
v 75.473 0 -72.284
v 76.199 0 -71.044
v 76.037 0 -71.33
v 76.251 0 -70.872
v 76.26 0 -70.92
v 76.164 0 -70.709
v 76.218 0 -70.8
v 76.006 0 -70.489
v 76.092 0 -70.604
v 78.181 0 -64.54
v 76.92 0 -66.911
v 77.41 0 -66
v 79.334 0 -62.15
v 78.802 0 -63.3
v 80.363 0 -59.587
v 79.834 0 -60.956
v 81.53 0 -56.35
v 80.98 0 -57.91
v 78.81 0 -51.72
v 80.72 0 -54.31
v 79.91 0 -52.27
v 78.236 0 -51.434
v 78.515 0 -51.57
v 77.78 0 -51.229
v 77.988 0 -51.319
v 77.54 0 -51.15
v 77.627 0 -51.171
v 77.34 0 -51.353
v 77.466 0 -51.208
v 76.976 0 -51.857
v 77.174 0 -51.574
v 76.53 0 -52.56
v 76.758 0 -52.19
v 75.667 0 -54.269
v 76.024 0 -53.459
v 75.34 0 -55.927
v 75.444 0 -55.066
v 75.43 0 -58.15
v 75.34 0 -56.93
v 74.534 0 -61.634
v 75.12 0 -60.9
v 74.896 0 -61.175
v 73.506 0 -62.956
v 74.061 0 -62.24
v 72.26 0 -64.57
v 72.896 0 -63.745
v 67.23 0 -68.19
v 69 0 -67.22
v 68.1 0 -66.82
v 65.578 0 -65.286
v 65.768 0 -66.465
v 65.68 0 -65.91
v 65.389 0 -64.365
v 65.481 0 -64.772
v 65.209 0 -63.857
v 65.299 0 -64.061
v 65.034 0 -63.682
v 65.12 0 -63.75
v 64.04 0 -62.89
v 64.566 0 -63.317
v 64.45 0 -63.22
v 66.85 0 -58.557
v 66.32 0 -58.38
v 66.597 0 -58.477
v 67.247 0 -58.659
v 67.07 0 -58.619
v 67.43 0 -58.67
v 67.37 0 -58.677
v 67.681 0 -57.981
v 67.503 0 -58.478
v 68.289 0 -56.262
v 67.949 0 -57.228
v 69.12 0 -53.88
v 68.684 0 -55.131
v 69.953 0 -51.473
v 69.556 0 -52.623
v 70.871 0 -48.776
v 70.76 0 -49.133
v 70.85 0 -48.88
v 70.751 0 -48.559
v 70.84 0 -48.671
v 70.382 0 -48.284
v 70.6 0 -48.432
v 69.858 0 -47.977
v 70.09 0 -48.11
v 71.867 0 -39.96
v 70.747 0 -43.04
v 71.3 0 -41.52
v 72.879 0 -37.156
v 72.401 0 -38.484
v 73.567 0 -35.209
v 73.276 0 -36.043
v 73.68 0 -33.21
v 73.73 0 -34.72
v 74.09 0 -33.64
v 73.83 0 -31.14
v 73.25 0 -32.77
v 73.66 0 -31.62
v 77.65 0 -20.85
v 75.365 0 -26.977
v 75.86 0 -25.66
v 81.486 0 -3.988
v 81.101 0 -5.02
v 81.41 0 -4.21
v 81.515 0 -3.449
v 81.521 0 -3.747
v 81.371 0 -2.533
v 81.466 0 -3.057
v 80.84 0 0
v 81.23 0 -1.84
v 79.346 0 -0.025
v 80.05 0 0
v 76.946 0 -0.176
v 78.233 0 -0.09
v 74.803 0 -0.344
v 75.724 0 -0.267
v 74.416 0 -0.496
v 74.42 0 -0.39
v 74.439 0 -1.18
v 74.422 0 -0.767
v 74.498 0 -2.331
v 74.464 0 -1.709
v 64.48 0 -21.88
v 70.16 0 -17.42
v 67.31 0 -19.65
v 54.11 0 -31.5
v 58.89 0 -31.62
v 56.41 0 -31.08
v 47.867 0 -19.73
v 48.21 0 -20.722
v 47.93 0 -19.79
v 47.415 0 -19.351
v 47.69 0 -19.579
v 46.643 0 -18.723
v 47.06 0 -19.061
v 45.702 0 -17.972
v 46.18 0 -18.35
v 39.339 0 -0.087
v 39.551 0 -0.284
v 39.52 0 -0.12
v 38.039 0 -0.034
v 38.829 0 -0.058
v 35.815 0 -0.004
v 37.018 0 -0.016
v 32.518 0 -4.657
v 45.315 0 -54.708
v 45.57 0 -60.8
v 39.977 0 -60.743
v 36.28 0 -56.61
v 20.915 0 -47.073
v 21.989 0 -48.874
v 34.077 0 -62.516
v 36.397 0 -69.341
v 38.792 0 -77.689
v 48.427 0 -89.695
v 59.799 0 -91.603
v 60.394 0 -89.805
v 67.852 0 -82.597
v 75.62 0 -60.25
v 69.89 0 -67.61
v 66.036 0 -58.281
v 70.57 0 -49.681
v 77.18 0 -19.58
v 63.04 0 -26.83
v 59.676 0 -31.783
v 48.912 0 -22.961
v 39.631 0 -0.701
v 28.917 0 -0.729
v 28.597 0 -1.186
v 32.926 0 -5.079
v 39.998 0 -33.393
v 45.554 0 -55.128
v 45.88 0 -56.876
v 45.77 0 -63.15
v 31.25 0 -59.34
v 36.573 0 -69.121
v 48.992 0 -89.981
v 49.903 0 -91.543
v 60.03 0 -89.79
v 67.44 0 -82.656
v 73.889 0 -74.905
v 76.48 0 -67.749
v 66.34 0 -69.57
v 65.858 0 -67.023
v 64.929 0 -63.601
v 70.296 0 -50.476
v 74.894 0 -28.241
v 80.581 0 -6.5
v 62.647 0 -28.144
v 60.31 0 -31.904
v 49.826 0 -25.851
v 39.752 0 -1.33
v 28.767 0 -0.945
v 33.309 0 -5.477
v 40.247 0 -32.659
v 45.756 0 -55.502
v 45.95 0 -56.63
v 42.994 0 -64.105
v 22.815 0 -45.613
v 21.889 0 -48.579
v 34.014 0 -62.141
v 36.731 0 -68.92
v 38.772 0 -74.698
v 50.013 0 -91.238
v 59.76 0 -89.794
v 67.056 0 -82.713
v 73.066 0 -77.318
v 65.946 0 -67.556
v 64.811 0 -63.511
v 65.771 0 -58.196
v 70.25 0 -44.424
v 74.467 0 -29.394
v 79.923 0 -8.436
v 62.287 0 -29.342
v 60.8 0 -31.981
v 50.745 0 -28.735
v 45.26 0 -17.617
v 39.909 0 -2.133
v 40.146 0 -33.167
v 45.913 0 -55.812
v 24.494 0 -47.396
v 21.378 0 -47.721
v 21.694 0 -48.209
v 33.917 0 -61.855
v 36.863 0 -68.749
v 49.472 0 -90.238
v 50.097 0 -90.987
v 59.681 0 -91.104
v 59.577 0 -89.817
v 66.72 0 -82.764
v 72.992 0 -77.072
v 73.55 0 -75.469
v 76.107 0 -68.48
v 66.029 0 -68.037
v 64.688 0 -63.415
v 65.536 0 -58.125
v 74.106 0 -30.379
v 79.195 0 -10.617
v 74.54 0 -3.02
v 61.975 0 -30.374
v 61.153 0 -32.016
v 40.094 0 -3.069
v 40.232 0 -32.982
v 46.014 0 -56.037
v 46.004 0 -56.42
v 26.397 0 -49.336
v 36.101 0 -66.882
v 36.962 0 -68.619
v 38.713 0 -74.368
v 49.844 0 -90.452
v 50.151 0 -90.807
v 59.58 0 -90.666
v 66.451 0 -82.808
v 72.948 0 -76.86
v 73.274 0 -75.928
v 75.82 0 -69.067
v 69.829 0 -45.612
v 78.471 0 -12.829
v 74.69 0 -5.6
v 61.727 0 -31.188
v 53.496 0 -31.605
v 51.459 0 -30.957
v 40.3 0 -4.1
v 40.264 0 -32.82
v 46.038 0 -56.26
v 28.216 0 -51.124
v 36.44 0 -67.39
v 37.02 0 -68.54
v 38.418 0 -73.896
v 50.085 0 -90.614
v 50.17 0 -90.71
v 59.503 0 -90.309
v 59.473 0 -89.859
v 66.27 0 -82.84
v 72.931 0 -76.681
v 73.079 0 -76.255
v 75.635 0 -69.476
v 66.102 0 -68.437
v 65.342 0 -58.071
v 69.504 0 -46.55
v 61.557 0 -31.733
v 52.941 0 -31.698
v 51.76 0 -31.86
v 40.61 0 -5.566
v 33.644 0 -5.828
v 46.05 0 -56.16
v 43.464 0 -64.624
v 36.709 0 -67.822
v 37.833 0 -73.155
v 72.943 0 -76.535
v 72.98 0 -76.42
v 75.57 0 -69.67
v 66.16 0 -68.73
v 65.2 0 -58.036
v 69.294 0 -47.178
v 76.72 0 -18.31
v 77.82 0 -14.86
v 61.48 0 -31.96
v 52.466 0 -31.774
v 44.873 0 -17.302
v 43.869 0 -65.068
v 29.64 0 -52.449
v 36.9 0 -68.166
v 37.006 0 -68.41
v 75.91 0 -70.37
v 65.12 0 -58.02
v 69.22 0 -47.44
v 52.096 0 -31.829
v 44.556 0 -17.043
v 40.91 0 -6.854
v 44.19 0 -65.412
v 30.36 0 -53
v 59.454 0 -90.053
v 75.815 0 -70.245
v 65.061 0 -58.103
v 72.43 0 -11.5
v 51.853 0 -31.859
v 44.33 0 -16.853
v 41.226 0 -8.065
v 44.407 0 -65.637
v 30.447 0 -53.006
v 59.44 0 -89.92
v 69.649 0 -47.843
v 44.21 0 -16.75
v 41.587 0 -9.303
v 31.166 0 -52.8
v 30.58 0 -52.985
v 75.581 0 -69.757
v 69.471 0 -47.715
v 44.101 0 -16.543
v 42.019 0 -10.67
v 30.95 0 -52.879
v 30.751 0 -52.941
v 75.733 0 -70.115
v 75.614 0 -69.865
v 69.334 0 -47.6
v 42.55 0 -12.27
v 31.83 0 -59.82
v 33.766 0 -61.609
v 75.665 0 -69.986
v 69.248 0 -47.506
v 42.942 0 -13.41
v 33.538 0 -61.354
v 43.309 0 -14.451
v 44.5 0 -65.72
v 64.977 0 -58.348
v 43.635 0 -15.35
v 32.009 0 -59.972
v 64.874 0 -58.729
v 43.904 0 -16.062
v 32.226 0 -60.161
v 64.756 0 -59.222
v 32.467 0 -60.374
v 64.63 0 -59.804
v 33.91 0 -6.11
v 32.721 0 -60.599
v 64.5 0 -60.45
v 34.72 0 -6.97
v 32.973 0 -60.825
v 33.21 0 -61.04
v 36.18 0 -12.58
v 61.377 0 -32.009
v 44.544 0 -65.677
v 44.623 0 -65.548
v 44.73 0 -65.346
v 45.17 0 -64.44
v 44.861 0 -65.085
v 45.009 0 -64.779
v 34.48 10 0
v 29.04 10 -0.55
v 29.41 10 0
v 28.42 10 -1.438
v 28.08 10 -1.92
v 28.244 10 -1.687
v 28.09 10 -3.38
v 27.49 10 -2.73
v 29.52 10 -3.23
v 28.69 10 -4.03
v 30.36 10 -2.4
v 32.106 10 -4.233
v 31.71 10 -3.83
v 37.64 10 -18.19
v 38.82 10 -28.77
v 37.64 10 -25.54
v 39.442 10 -30.47
v 39.14 10 -29.648
v 39.935 10 -31.8
v 39.711 10 -31.199
v 40.19 10 -32.48
v 40.099 10 -32.239
v 39.78 10 -33.68
v 39.478 10 -34.076
v 39.621 10 -33.883
v 39.262 10 -34.401
v 39.356 10 -34.251
v 39.18 10 -34.59
v 39.202 10 -34.516
v 39.51 10 -35.898
v 39.266 10 -34.954
v 40.383 10 -39.166
v 39.89 10 -37.331
v 41.62 10 -43.68
v 40.967 10 -41.312
v 45.05 10 -54.26
v 44.06 10 -52.61
v 45.795 10 -57.147
v 45.558 10 -57.857
v 45.7 10 -57.43
v 45.429 10 -58.635
v 45.469 10 -58.233
v 45.483 10 -59.839
v 45.435 10 -59.144
v 42.48 10 -63.53
v 41.44 10 -62.36
v 41.946 10 -62.928
v 40.6 10 -61.423
v 40.984 10 -61.85
v 40.14 10 -60.92
v 40.311 10 -61.105
v 39.713 10 -60.449
v 38.957 10 -59.601
v 39.366 10 -60.06
v 38.03 10 -58.57
v 38.505 10 -59.097
v 36.16 10 -55.44
v 34.84 10 -53.31
v 36.06 10 -54.26
v 34.022 10 -52.697
v 34.383 10 -52.954
v 33.464 10 -52.417
v 33.726 10 -52.522
v 32.92 10 -52.35
v 33.206 10 -52.364
v 32.45 10 -52.397
v 32.702 10 -52.362
v 31.9 10 -52.523
v 32.178 10 -52.451
v 31.39 10 -52.71
v 31.632 10 -52.61
v 21.67 10 -44.3
v 20.83 10 -43.264
v 21.235 10 -43.755
v 20.183 10 -42.523
v 20.474 10 -42.846
v 19.87 10 -42.24
v 19.976 10 -42.314
v 19.35 10 -42.551
v 19.652 10 -42.323
v 18.727 10 -43.196
v 19.021 10 -42.862
v 18.48 10 -43.68
v 18.527 10 -43.489
v 18.76 10 -44.119
v 18.565 10 -43.829
v 19.407 10 -45.028
v 19.046 10 -44.526
v 20.28 10 -46.22
v 19.824 10 -45.601
v 22.02 10 -49.14
v 22.134 10 -49.676
v 22.047 10 -49.4
v 22.576 10 -50.424
v 22.302 10 -50.005
v 23.53 10 -51.68
v 22.978 10 -50.97
v 25.04 10 -53.6
v 24.54 10 -56.27
v 24.78 10 -54.94
v 25.9 10 -57.54
v 26.68 10 -58.274
v 26.283 10 -57.902
v 27.43 10 -58.97
v 27.069 10 -58.636
v 27.99 10 -59.47
v 27.744 10 -59.254
v 30 10 -59.73
v 28.73 10 -60.13
v 34.13 10 -63.03
v 34.264 10 -63.989
v 34.182 10 -63.565
v 34.68 10 -64.851
v 34.416 10 -64.389
v 35.7 10 -66.31
v 35.094 10 -65.462
v 36.21 10 -69.57
v 36.9 10 -72.02
v 35.54 10 -70.37
v 38.652 10 -75.013
v 38.278 10 -75.706
v 38.41 10 -75.44
v 38.097 10 -76.162
v 38.173 10 -75.949
v 38.044 10 -76.479
v 38.054 10 -76.341
v 38.148 10 -76.702
v 38.07 10 -76.57
v 38.524 10 -77.28
v 38.304 10 -76.945
v 39.096 10 -78.151
v 40.64 10 -80.48
v 39.42 10 -78.65
v 45.19 10 -82.42
v 42.92 10 -81.46
v 45.194 10 -83.845
v 45.19 10 -83.49
v 45.224 10 -84.798
v 45.206 10 -84.29
v 45.277 10 -85.89
v 45.248 10 -85.34
v 45.31 10 -86.42
v 47.8 10 -89.39
v 45.41 10 -88.28
v 49.774 10 -91.888
v 49.1 10 -93.63
v 49.63 10 -92.26
v 49.91 10 -98.2
v 49.5 10 -95.91
v 53.26 10 -100
v 51.57 10 -99.11
v 55.38 10 -99.71
v 58.77 10 -98.21
v 57.53 10 -99.42
v 60.22 10 -95.57
v 60 10 -97
v 60.345 10 -94.499
v 60.305 10 -94.974
v 60.265 10 -93.578
v 60.334 10 -94.061
v 59.93 10 -92.14
v 60.133 10 -92.966
v 60.86 10 -89.84
v 64.04 10 -88.91
v 62.27 10 -89.96
v 65.79 10 -82.94
v 65.79 10 -87.85
v 68.27 10 -82.54
v 70.99 10 -81.22
v 69.82 10 -82.35
v 71.676 10 -80.528
v 71.327 10 -80.884
v 72.334 10 -79.832
v 72.018 10 -80.171
v 72.82 10 -79.28
v 72.608 10 -79.529
v 73.17 10 -77.6
v 73.49 10 -78.49
v 74.274 10 -74.266
v 75.101 10 -72.902
v 74.69 10 -73.58
v 75.79 10 -71.751
v 75.473 10 -72.284
v 76.199 10 -71.044
v 76.037 10 -71.33
v 76.251 10 -70.872
v 76.26 10 -70.92
v 76.164 10 -70.709
v 76.218 10 -70.8
v 76.006 10 -70.489
v 76.092 10 -70.604
v 76.92 10 -66.911
v 78.181 10 -64.54
v 77.41 10 -66
v 79.334 10 -62.15
v 78.802 10 -63.3
v 80.363 10 -59.587
v 79.834 10 -60.956
v 81.53 10 -56.35
v 80.98 10 -57.91
v 80.72 10 -54.31
v 78.81 10 -51.72
v 79.91 10 -52.27
v 78.236 10 -51.434
v 78.515 10 -51.57
v 77.78 10 -51.229
v 77.988 10 -51.319
v 77.54 10 -51.15
v 77.627 10 -51.171
v 77.34 10 -51.353
v 77.466 10 -51.208
v 76.976 10 -51.857
v 77.174 10 -51.574
v 76.53 10 -52.56
v 76.758 10 -52.19
v 75.667 10 -54.269
v 76.024 10 -53.459
v 75.34 10 -55.927
v 75.444 10 -55.066
v 75.43 10 -58.15
v 75.34 10 -56.93
v 75.12 10 -60.9
v 74.534 10 -61.634
v 74.896 10 -61.175
v 73.506 10 -62.956
v 74.061 10 -62.24
v 72.26 10 -64.57
v 72.896 10 -63.745
v 69 10 -67.22
v 67.23 10 -68.19
v 68.1 10 -66.82
v 65.768 10 -66.465
v 65.578 10 -65.286
v 65.68 10 -65.91
v 65.389 10 -64.365
v 65.481 10 -64.772
v 65.209 10 -63.857
v 65.299 10 -64.061
v 65.034 10 -63.682
v 65.12 10 -63.75
v 64.566 10 -63.317
v 64.04 10 -62.89
v 64.45 10 -63.22
v 66.32 10 -58.38
v 66.85 10 -58.557
v 66.597 10 -58.477
v 67.247 10 -58.659
v 67.07 10 -58.619
v 67.43 10 -58.67
v 67.37 10 -58.677
v 67.681 10 -57.981
v 67.503 10 -58.478
v 68.289 10 -56.262
v 67.949 10 -57.228
v 69.12 10 -53.88
v 68.684 10 -55.131
v 69.953 10 -51.473
v 69.556 10 -52.623
v 70.76 10 -49.133
v 70.871 10 -48.776
v 70.85 10 -48.88
v 70.751 10 -48.559
v 70.84 10 -48.671
v 70.382 10 -48.284
v 70.6 10 -48.432
v 69.858 10 -47.977
v 70.09 10 -48.11
v 70.747 10 -43.04
v 71.867 10 -39.96
v 71.3 10 -41.52
v 72.879 10 -37.156
v 72.401 10 -38.484
v 73.567 10 -35.209
v 73.276 10 -36.043
v 73.73 10 -34.72
v 73.68 10 -33.21
v 74.09 10 -33.64
v 73.25 10 -32.77
v 73.83 10 -31.14
v 73.66 10 -31.62
v 75.365 10 -26.977
v 77.65 10 -20.85
v 75.86 10 -25.66
v 81.101 10 -5.02
v 81.486 10 -3.988
v 81.41 10 -4.21
v 81.515 10 -3.449
v 81.521 10 -3.747
v 81.371 10 -2.533
v 81.466 10 -3.057
v 80.84 10 0
v 81.23 10 -1.84
v 79.346 10 -0.025
v 80.05 10 0
v 76.946 10 -0.176
v 78.233 10 -0.09
v 74.803 10 -0.344
v 75.724 10 -0.267
v 74.416 10 -0.496
v 74.42 10 -0.39
v 74.439 10 -1.18
v 74.422 10 -0.767
v 74.498 10 -2.331
v 74.464 10 -1.709
v 70.16 10 -17.42
v 64.48 10 -21.88
v 67.31 10 -19.65
v 58.89 10 -31.62
v 54.11 10 -31.5
v 56.41 10 -31.08
v 48.21 10 -20.722
v 47.867 10 -19.73
v 47.93 10 -19.79
v 47.415 10 -19.351
v 47.69 10 -19.579
v 46.643 10 -18.723
v 47.06 10 -19.061
v 45.702 10 -17.972
v 46.18 10 -18.35
v 39.551 10 -0.284
v 39.339 10 -0.087
v 39.52 10 -0.12
v 38.039 10 -0.034
v 38.829 10 -0.058
v 35.815 10 -0.004
v 37.018 10 -0.016
v 32.518 10 -4.657
v 45.315 10 -54.708
v 45.57 10 -60.8
v 39.977 10 -60.743
v 36.28 10 -56.61
v 20.915 10 -47.073
v 21.989 10 -48.874
v 34.077 10 -62.516
v 36.397 10 -69.341
v 38.792 10 -77.689
v 48.427 10 -89.695
v 59.799 10 -91.603
v 60.394 10 -89.805
v 67.852 10 -82.597
v 75.62 10 -60.25
v 69.89 10 -67.61
v 66.036 10 -58.281
v 70.57 10 -49.681
v 77.18 10 -19.58
v 63.04 10 -26.83
v 59.676 10 -31.783
v 48.912 10 -22.961
v 39.631 10 -0.701
v 28.917 10 -0.729
v 28.597 10 -1.186
v 32.926 10 -5.079
v 39.998 10 -33.393
v 45.554 10 -55.128
v 45.88 10 -56.876
v 45.77 10 -63.15
v 31.25 10 -59.34
v 36.573 10 -69.121
v 48.992 10 -89.981
v 49.903 10 -91.543
v 60.03 10 -89.79
v 67.44 10 -82.656
v 73.889 10 -74.905
v 76.48 10 -67.749
v 66.34 10 -69.57
v 65.858 10 -67.023
v 64.929 10 -63.601
v 70.296 10 -50.476
v 74.894 10 -28.241
v 80.581 10 -6.5
v 62.647 10 -28.144
v 60.31 10 -31.904
v 49.826 10 -25.851
v 39.752 10 -1.33
v 28.767 10 -0.945
v 33.309 10 -5.477
v 40.247 10 -32.659
v 45.756 10 -55.502
v 45.95 10 -56.63
v 42.994 10 -64.105
v 22.815 10 -45.613
v 21.889 10 -48.579
v 34.014 10 -62.141
v 36.731 10 -68.92
v 38.772 10 -74.698
v 50.013 10 -91.238
v 59.76 10 -89.794
v 67.056 10 -82.713
v 73.066 10 -77.318
v 65.946 10 -67.556
v 64.811 10 -63.511
v 65.771 10 -58.196
v 70.25 10 -44.424
v 74.467 10 -29.394
v 79.923 10 -8.436
v 62.287 10 -29.342
v 60.8 10 -31.981
v 50.745 10 -28.735
v 45.26 10 -17.617
v 39.909 10 -2.133
v 40.146 10 -33.167
v 45.913 10 -55.812
v 24.494 10 -47.396
v 21.378 10 -47.721
v 21.694 10 -48.209
v 33.917 10 -61.855
v 36.863 10 -68.749
v 49.472 10 -90.238
v 50.097 10 -90.987
v 59.681 10 -91.104
v 59.577 10 -89.817
v 66.72 10 -82.764
v 72.992 10 -77.072
v 73.55 10 -75.469
v 76.107 10 -68.48
v 66.029 10 -68.037
v 64.688 10 -63.415
v 65.536 10 -58.125
v 74.106 10 -30.379
v 79.195 10 -10.617
v 74.54 10 -3.02
v 61.975 10 -30.374
v 61.153 10 -32.016
v 40.094 10 -3.069
v 40.232 10 -32.982
v 46.014 10 -56.037
v 46.004 10 -56.42
v 26.397 10 -49.336
v 36.101 10 -66.882
v 36.962 10 -68.619
v 38.713 10 -74.368
v 49.844 10 -90.452
v 50.151 10 -90.807
v 59.58 10 -90.666
v 66.451 10 -82.808
v 72.948 10 -76.86
v 73.274 10 -75.928
v 75.82 10 -69.067
v 69.829 10 -45.612
v 78.471 10 -12.829
v 74.69 10 -5.6
v 61.727 10 -31.188
v 53.496 10 -31.605
v 51.459 10 -30.957
v 40.3 10 -4.1
v 40.264 10 -32.82
v 46.038 10 -56.26
v 28.216 10 -51.124
v 36.44 10 -67.39
v 37.02 10 -68.54
v 38.418 10 -73.896
v 50.085 10 -90.614
v 50.17 10 -90.71
v 59.503 10 -90.309
v 59.473 10 -89.859
v 66.27 10 -82.84
v 72.931 10 -76.681
v 73.079 10 -76.255
v 75.635 10 -69.476
v 66.102 10 -68.437
v 65.342 10 -58.071
v 69.504 10 -46.55
v 61.557 10 -31.733
v 52.941 10 -31.698
v 51.76 10 -31.86
v 40.61 10 -5.566
v 33.644 10 -5.828
v 46.05 10 -56.16
v 43.464 10 -64.624
v 36.709 10 -67.822
v 37.833 10 -73.155
v 72.943 10 -76.535
v 72.98 10 -76.42
v 75.57 10 -69.67
v 66.16 10 -68.73
v 65.2 10 -58.036
v 69.294 10 -47.178
v 76.72 10 -18.31
v 77.82 10 -14.86
v 61.48 10 -31.96
v 52.466 10 -31.774
v 44.873 10 -17.302
v 43.869 10 -65.068
v 29.64 10 -52.449
v 36.9 10 -68.166
v 37.006 10 -68.41
v 75.91 10 -70.37
v 65.12 10 -58.02
v 69.22 10 -47.44
v 52.096 10 -31.829
v 44.556 10 -17.043
v 40.91 10 -6.854
v 44.19 10 -65.412
v 30.36 10 -53
v 59.454 10 -90.053
v 75.815 10 -70.245
v 65.061 10 -58.103
v 72.43 10 -11.5
v 51.853 10 -31.859
v 44.33 10 -16.853
v 41.226 10 -8.065
v 44.407 10 -65.637
v 30.447 10 -53.006
v 59.44 10 -89.92
v 69.649 10 -47.843
v 44.21 10 -16.75
v 41.587 10 -9.303
v 31.166 10 -52.8
v 30.58 10 -52.985
v 75.581 10 -69.757
v 69.471 10 -47.715
v 44.101 10 -16.543
v 42.019 10 -10.67
v 30.95 10 -52.879
v 30.751 10 -52.941
v 75.733 10 -70.115
v 75.614 10 -69.865
v 69.334 10 -47.6
v 42.55 10 -12.27
v 31.83 10 -59.82
v 33.766 10 -61.609
v 75.665 10 -69.986
v 69.248 10 -47.506
v 42.942 10 -13.41
v 33.538 10 -61.354
v 43.309 10 -14.451
v 44.5 10 -65.72
v 64.977 10 -58.348
v 43.635 10 -15.35
v 32.009 10 -59.972
v 64.874 10 -58.729
v 43.904 10 -16.062
v 32.226 10 -60.161
v 64.756 10 -59.222
v 32.467 10 -60.374
v 64.63 10 -59.804
v 33.91 10 -6.11
v 32.721 10 -60.599
v 64.5 10 -60.45
v 34.72 10 -6.97
v 32.973 10 -60.825
v 33.21 10 -61.04
v 36.18 10 -12.58
v 61.377 10 -32.009
v 44.544 10 -65.677
v 44.623 10 -65.548
v 44.73 10 -65.346
v 45.17 10 -64.44
v 44.861 10 -65.085
v 45.009 10 -64.779
f 1 2 3
f 4 5 6
f 7 4 8
f 9 7 10
f 11 12 13
f 14 15 16
f 17 14 18
f 19 17 20
f 21 19 22
f 23 24 25
f 26 23 27
f 28 26 29
f 30 28 31
f 32 30 33
f 34 32 35
f 36 34 37
f 38 39 40
f 41 38 42
f 43 41 44
f 45 46 47
f 48 45 49
f 50 48 51
f 52 53 54
f 55 52 56
f 57 58 59
f 60 57 61
f 62 60 63
f 64 62 65
f 66 64 67
f 68 66 69
f 70 68 71
f 72 73 74
f 75 72 76
f 77 75 78
f 79 77 80
f 81 79 82
f 83 81 84
f 85 83 86
f 87 85 88
f 89 87 90
f 91 92 93
f 94 91 95
f 96 94 97
f 98 99 100
f 101 102 103
f 104 101 105
f 106 104 107
f 108 106 109
f 110 111 112
f 113 110 114
f 115 113 116
f 117 118 119
f 120 121 122
f 123 120 124
f 125 123 126
f 127 125 128
f 129 127 130
f 131 132 133
f 134 131 135
f 136 134 137
f 138 136 139
f 140 138 141
f 142 143 144
f 145 146 147
f 148 145 149
f 150 148 151
f 152 153 154
f 155 152 156
f 157 155 158
f 159 157 160
f 161 159 162
f 163 164 165
f 166 163 167
f 168 169 170
f 171 168 172
f 173 171 174
f 175 173 176
f 177 175 178
f 179 180 181
f 182 179 183
f 184 182 185
f 186 184 187
f 188 186 189
f 190 188 191
f 192 193 194
f 195 192 196
f 197 195 198
f 199 197 200
f 201 202 203
f 204 201 205
f 206 204 207
f 208 206 209
f 210 208 211
f 212 210 213
f 214 212 215
f 216 214 217
f 218 216 219
f 220 218 221
f 222 223 224
f 225 222 226
f 227 225 228
f 229 230 231
f 232 233 234
f 235 232 236
f 237 235 238
f 239 237 240
f 241 242 243
f 244 245 246
f 247 244 248
f 249 247 250
f 251 249 252
f 253 251 254
f 255 253 256
f 257 255 258
f 259 260 261
f 262 259 263
f 264 262 265
f 266 264 267
f 268 269 270
f 271 268 272
f 273 271 274
f 275 276 277
f 278 279 280
f 281 282 283
f 284 285 286
f 287 284 288
f 289 287 290
f 291 289 292
f 293 291 294
f 295 293 296
f 297 295 298
f 299 297 300
f 301 299 302
f 303 301 304
f 305 306 307
f 308 309 310
f 311 312 313
f 314 311 315
f 316 314 317
f 318 316 319
f 320 321 322
f 323 320 324
f 325 323 326
f 1 325 2
f 7 5 4
f 12 7 9
f 327 12 11
f 17 15 14
f 21 17 19
f 26 24 23
f 30 26 28
f 34 30 32
f 328 34 36
f 41 39 38
f 329 41 43
f 48 46 45
f 330 48 50
f 55 53 52
f 57 331 58
f 62 57 60
f 66 62 64
f 70 66 68
f 75 73 72
f 79 75 77
f 83 79 81
f 87 83 85
f 332 87 89
f 91 333 92
f 96 91 94
f 102 99 98
f 104 102 101
f 108 104 106
f 110 334 111
f 115 110 113
f 117 335 118
f 123 121 120
f 127 123 125
f 336 127 129
f 131 336 132
f 138 134 136
f 143 138 140
f 337 143 142
f 148 146 145
f 153 148 150
f 155 153 152
f 159 155 157
f 338 159 161
f 163 339 164
f 168 340 169
f 173 168 171
f 177 173 175
f 182 180 179
f 186 182 184
f 190 186 188
f 195 193 192
f 199 195 197
f 201 199 202
f 206 201 204
f 210 206 208
f 214 210 212
f 218 214 216
f 341 218 220
f 225 223 222
f 229 342 230
f 235 233 232
f 239 235 237
f 244 343 245
f 249 244 247
f 253 249 251
f 257 253 255
f 259 344 260
f 264 259 262
f 271 269 268
f 276 271 273
f 279 276 275
f 345 282 281
f 287 285 284
f 291 287 289
f 295 291 293
f 299 295 297
f 303 299 301
f 346 306 305
f 308 347 309
f 311 348 312
f 316 311 314
f 320 349 321
f 325 320 323
f 350 325 1
f 7 351 5
f 352 12 327
f 21 15 17
f 26 353 24
f 34 26 30
f 354 34 328
f 41 355 39
f 356 41 329
f 330 46 48
f 62 331 57
f 70 62 66
f 79 73 75
f 87 79 83
f 96 333 91
f 104 99 102
f 357 104 108
f 115 334 110
f 117 358 335
f 127 121 123
f 131 127 336
f 143 134 138
f 359 143 337
f 148 360 146
f 155 148 153
f 338 155 159
f 163 361 339
f 168 362 340
f 177 168 173
f 182 363 180
f 190 182 186
f 195 364 193
f 201 195 199
f 210 201 206
f 218 210 214
f 227 223 225
f 365 342 229
f 235 366 233
f 367 235 239
f 249 343 244
f 257 249 253
f 259 368 344
f 266 259 264
f 276 269 271
f 345 369 282
f 287 370 285
f 295 287 291
f 303 295 299
f 371 306 346
f 308 372 347
f 311 373 348
f 318 311 316
f 320 374 349
f 350 320 325
f 7 375 351
f 376 12 352
f 377 15 21
f 34 353 26
f 378 34 354
f 41 379 355
f 330 380 46
f 70 331 62
f 79 381 73
f 332 79 87
f 96 382 333
f 357 99 104
f 115 383 334
f 117 384 358
f 127 385 121
f 134 127 131
f 359 134 143
f 148 386 360
f 338 148 155
f 163 387 361
f 168 388 362
f 389 168 177
f 190 363 182
f 201 364 195
f 218 201 210
f 235 390 366
f 391 235 367
f 249 392 343
f 368 249 257
f 266 368 259
f 276 393 269
f 345 394 369
f 287 395 370
f 303 287 295
f 396 306 371
f 308 397 372
f 311 398 373
f 399 311 318
f 320 400 374
f 375 320 350
f 12 375 7
f 34 401 353
f 402 34 378
f 356 379 41
f 53 380 330
f 70 55 331
f 79 403 381
f 404 79 332
f 96 405 382
f 357 96 99
f 115 406 383
f 117 407 384
f 134 385 127
f 408 134 359
f 148 409 386
f 410 148 338
f 163 411 387
f 168 412 388
f 413 168 389
f 190 414 363
f 201 415 364
f 341 201 218
f 235 416 390
f 417 235 391
f 249 418 392
f 266 249 368
f 279 393 276
f 345 419 394
f 287 420 395
f 421 287 303
f 422 306 396
f 308 423 397
f 399 398 311
f 320 424 400
f 12 320 375
f 34 425 401
f 426 34 402
f 356 427 379
f 70 53 55
f 79 428 403
f 405 79 404
f 357 405 96
f 429 406 115
f 117 430 407
f 134 431 385
f 432 134 408
f 148 433 409
f 434 148 410
f 166 411 163
f 168 435 412
f 436 168 413
f 190 437 414
f 201 438 415
f 417 416 235
f 266 418 249
f 279 439 393
f 345 278 419
f 287 440 420
f 441 287 421
f 442 306 422
f 443 423 308
f 399 444 398
f 320 445 424
f 376 320 12
f 34 446 425
f 356 447 427
f 70 380 53
f 79 448 428
f 357 79 405
f 449 406 429
f 117 450 430
f 134 451 431
f 452 134 432
f 148 453 433
f 454 148 434
f 166 455 411
f 168 456 435
f 457 168 436
f 190 458 437
f 201 459 438
f 417 460 416
f 266 461 418
f 279 462 439
f 345 279 278
f 441 440 287
f 463 306 442
f 464 423 443
f 399 465 444
f 320 466 445
f 467 320 376
f 34 377 446
f 356 468 447
f 70 469 380
f 357 448 79
f 470 406 449
f 471 450 117
f 134 471 451
f 453 134 452
f 454 453 148
f 168 166 456
f 472 168 457
f 190 473 458
f 201 474 459
f 417 475 460
f 266 476 461
f 279 477 462
f 478 279 345
f 441 479 440
f 480 306 463
f 481 423 464
f 482 465 399
f 467 466 320
f 426 377 34
f 70 483 469
f 357 484 448
f 485 406 470
f 471 486 450
f 454 134 453
f 472 166 168
f 487 473 190
f 341 474 201
f 417 365 475
f 266 488 476
f 279 489 477
f 441 478 479
f 490 423 481
f 491 465 482
f 467 492 466
f 426 15 377
f 70 493 483
f 357 494 484
f 134 486 471
f 495 134 454
f 473 166 472
f 496 473 487
f 223 474 341
f 242 365 417
f 266 497 488
f 478 489 279
f 498 478 441
f 499 423 490
f 500 465 491
f 467 501 492
f 468 15 426
f 70 502 493
f 357 503 494
f 134 485 486
f 504 134 495
f 496 166 473
f 227 474 223
f 241 365 242
f 505 497 266
f 498 489 478
f 465 423 499
f 506 465 500
f 467 507 501
f 508 502 70
f 357 509 503
f 134 406 485
f 455 134 504
f 496 455 166
f 227 510 474
f 511 497 505
f 306 489 498
f 512 465 506
f 467 513 507
f 514 502 508
f 357 515 509
f 455 406 134
f 516 455 496
f 227 517 510
f 518 497 511
f 480 489 306
f 467 519 513
f 515 502 514
f 520 515 357
f 455 521 406
f 522 455 516
f 227 522 517
f 523 497 518
f 480 523 489
f 467 524 519
f 520 502 515
f 455 525 521
f 227 455 522
f 480 497 523
f 467 526 524
f 520 527 502
f 342 455 227
f 480 528 497
f 467 529 526
f 530 527 520
f 365 455 342
f 480 531 528
f 467 532 529
f 533 527 530
f 241 455 365
f 480 534 531
f 467 512 532
f 535 527 533
f 480 536 534
f 537 512 467
f 538 527 535
f 480 539 536
f 540 512 537
f 541 527 538
f 480 241 539
f 540 465 512
f 542 527 541
f 480 455 241
f 543 465 540
f 525 527 542
f 544 455 480
f 15 465 543
f 455 527 525
f 423 455 544
f 468 465 15
f 455 545 527
f 465 455 423
f 356 465 468
f 455 546 545
f 356 455 465
f 455 547 546
f 548 455 356
f 455 549 547
f 550 455 548
f 455 550 549
f 551 552 553
f 554 555 556
f 555 557 558
f 557 559 560
f 561 562 563
f 564 565 566
f 565 567 568
f 567 569 570
f 569 571 572
f 573 574 575
f 574 576 577
f 576 578 579
f 578 580 581
f 580 582 583
f 582 584 585
f 584 586 587
f 588 589 590
f 589 591 592
f 591 593 594
f 595 596 597
f 596 598 599
f 598 600 601
f 602 603 604
f 603 605 606
f 607 608 609
f 608 610 611
f 610 612 613
f 612 614 615
f 614 616 617
f 616 618 619
f 618 620 621
f 622 623 624
f 623 625 626
f 625 627 628
f 627 629 630
f 629 631 632
f 631 633 634
f 633 635 636
f 635 637 638
f 637 639 640
f 641 642 643
f 642 644 645
f 644 646 647
f 648 649 650
f 651 652 653
f 652 654 655
f 654 656 657
f 656 658 659
f 660 661 662
f 661 663 664
f 663 665 666
f 667 668 669
f 670 671 672
f 671 673 674
f 673 675 676
f 675 677 678
f 677 679 680
f 681 682 683
f 682 684 685
f 684 686 687
f 686 688 689
f 688 690 691
f 692 693 694
f 695 696 697
f 696 698 699
f 698 700 701
f 702 703 704
f 703 705 706
f 705 707 708
f 707 709 710
f 709 711 712
f 713 714 715
f 714 716 717
f 718 719 720
f 719 721 722
f 721 723 724
f 723 725 726
f 725 727 728
f 729 730 731
f 730 732 733
f 732 734 735
f 734 736 737
f 736 738 739
f 738 740 741
f 742 743 744
f 743 745 746
f 745 747 748
f 747 749 750
f 751 752 753
f 752 754 755
f 754 756 757
f 756 758 759
f 758 760 761
f 760 762 763
f 762 764 765
f 764 766 767
f 766 768 769
f 768 770 771
f 772 773 774
f 773 775 776
f 775 777 778
f 779 780 781
f 782 783 784
f 783 785 786
f 785 787 788
f 787 789 790
f 791 792 793
f 794 795 796
f 795 797 798
f 797 799 800
f 799 801 802
f 801 803 804
f 803 805 806
f 805 807 808
f 809 810 811
f 810 812 813
f 812 814 815
f 814 816 817
f 818 819 820
f 819 821 822
f 821 823 824
f 825 826 827
f 828 829 830
f 831 832 833
f 834 835 836
f 835 837 838
f 837 839 840
f 839 841 842
f 841 843 844
f 843 845 846
f 845 847 848
f 847 849 850
f 849 851 852
f 851 853 854
f 855 856 857
f 858 859 860
f 861 862 863
f 862 864 865
f 864 866 867
f 866 868 869
f 870 871 872
f 871 873 874
f 873 875 876
f 875 552 551
f 554 557 555
f 557 561 559
f 561 877 562
f 564 567 565
f 567 571 569
f 573 576 574
f 576 580 578
f 580 584 582
f 584 878 586
f 588 591 589
f 591 879 593
f 595 598 596
f 598 880 600
f 602 605 603
f 881 608 607
f 608 612 610
f 612 616 614
f 616 620 618
f 622 625 623
f 625 629 627
f 629 633 631
f 633 637 635
f 637 882 639
f 883 642 641
f 642 646 644
f 648 651 649
f 651 654 652
f 654 658 656
f 884 661 660
f 661 665 663
f 885 668 667
f 670 673 671
f 673 677 675
f 677 886 679
f 886 682 681
f 684 688 686
f 688 692 690
f 692 887 693
f 695 698 696
f 698 702 700
f 702 705 703
f 705 709 707
f 709 888 711
f 889 714 713
f 890 719 718
f 719 723 721
f 723 727 725
f 729 732 730
f 732 736 734
f 736 740 738
f 742 745 743
f 745 749 747
f 749 752 751
f 752 756 754
f 756 760 758
f 760 764 762
f 764 768 766
f 768 891 770
f 772 775 773
f 892 780 779
f 782 785 783
f 785 789 787
f 893 795 794
f 795 799 797
f 799 803 801
f 803 807 805
f 894 810 809
f 810 814 812
f 818 821 819
f 821 825 823
f 825 828 826
f 831 895 832
f 834 837 835
f 837 841 839
f 841 845 843
f 845 849 847
f 849 853 851
f 855 896 856
f 897 859 858
f 898 862 861
f 862 866 864
f 899 871 870
f 871 875 873
f 875 900 552
f 901 557 554
f 561 902 877
f 564 571 567
f 903 576 573
f 576 584 580
f 584 904 878
f 905 591 588
f 591 906 879
f 595 880 598
f 881 612 608
f 612 620 616
f 622 629 625
f 629 637 633
f 883 646 642
f 648 654 651
f 654 907 658
f 884 665 661
f 908 668 885
f 670 677 673
f 677 682 886
f 684 692 688
f 692 909 887
f 910 698 695
f 698 705 702
f 705 888 709
f 911 714 889
f 912 719 890
f 719 727 723
f 913 732 729
f 732 740 736
f 914 745 742
f 745 752 749
f 752 760 756
f 760 768 764
f 772 777 775
f 892 915 780
f 916 785 782
f 785 917 789
f 893 799 795
f 799 807 803
f 918 810 894
f 810 816 814
f 818 825 821
f 919 895 831
f 920 837 834
f 837 845 841
f 845 853 849
f 855 921 896
f 922 859 897
f 923 862 898
f 862 868 866
f 924 871 899
f 871 900 875
f 925 557 901
f 561 926 902
f 564 927 571
f 903 584 576
f 584 928 904
f 929 591 905
f 930 880 595
f 881 620 612
f 931 629 622
f 629 882 637
f 932 646 883
f 648 907 654
f 933 665 884
f 934 668 908
f 935 677 670
f 677 684 682
f 684 909 692
f 936 698 910
f 698 888 705
f 937 714 911
f 938 719 912
f 719 939 727
f 913 740 732
f 914 752 745
f 752 768 760
f 940 785 916
f 785 941 917
f 942 799 893
f 799 918 807
f 918 816 810
f 943 825 818
f 944 895 919
f 945 837 920
f 837 853 845
f 855 946 921
f 947 859 922
f 948 862 923
f 862 949 868
f 950 871 924
f 871 925 900
f 925 561 557
f 951 584 903
f 584 952 928
f 929 906 591
f 930 602 880
f 605 620 881
f 953 629 931
f 629 954 882
f 955 646 932
f 646 907 648
f 956 665 933
f 957 668 934
f 935 684 677
f 684 958 909
f 959 698 936
f 698 960 888
f 961 714 937
f 962 719 938
f 719 963 939
f 964 740 913
f 965 752 914
f 752 891 768
f 966 785 940
f 785 967 941
f 968 799 942
f 799 816 918
f 943 828 825
f 969 895 944
f 970 837 945
f 837 971 853
f 855 972 946
f 973 859 947
f 948 949 862
f 974 871 950
f 871 561 925
f 975 584 951
f 584 976 952
f 977 906 929
f 602 620 605
f 978 629 953
f 629 955 954
f 955 907 646
f 956 979 665
f 980 668 957
f 981 684 935
f 684 982 958
f 983 698 959
f 698 984 960
f 961 716 714
f 985 719 962
f 719 986 963
f 987 740 964
f 988 752 965
f 966 967 785
f 968 816 799
f 989 828 943
f 829 895 969
f 990 837 970
f 837 991 971
f 855 992 972
f 973 993 859
f 994 949 948
f 995 871 974
f 871 926 561
f 996 584 975
f 997 906 977
f 930 620 602
f 998 629 978
f 629 907 955
f 956 999 979
f 1000 668 980
f 1001 684 981
f 684 1002 982
f 1003 698 983
f 698 1004 984
f 1005 716 961
f 1006 719 985
f 719 1007 986
f 1008 740 987
f 1009 752 988
f 1010 967 966
f 1011 816 968
f 1012 828 989
f 828 895 829
f 990 991 837
f 855 1013 992
f 973 1014 993
f 1015 949 994
f 1016 871 995
f 871 1017 926
f 927 584 996
f 1018 906 997
f 1019 620 930
f 998 907 629
f 956 1020 999
f 1000 1021 668
f 1021 684 1001
f 684 1003 1002
f 1003 1004 698
f 716 719 1006
f 719 1022 1007
f 1023 740 1008
f 1024 752 1009
f 1025 967 1010
f 1026 816 1011
f 1027 828 1012
f 828 1028 895
f 1029 991 990
f 855 1030 1013
f 973 1031 1014
f 1015 1032 949
f 1016 1017 871
f 927 976 584
f 1033 620 1019
f 1034 907 998
f 956 1035 1020
f 1036 1021 1000
f 684 1004 1003
f 716 1022 719
f 1023 1037 740
f 1024 891 752
f 915 967 1025
f 1038 816 1026
f 1039 828 1027
f 1028 991 1029
f 973 1040 1031
f 1015 1041 1032
f 1042 1017 1016
f 564 976 927
f 1043 620 1033
f 1044 907 1034
f 1036 684 1021
f 684 1045 1004
f 716 1023 1022
f 1023 1046 1037
f 1024 772 891
f 915 791 967
f 1047 816 1038
f 1039 1028 828
f 1028 1048 991
f 973 1049 1040
f 1015 1050 1041
f 1051 1017 1042
f 564 1018 976
f 1052 620 1043
f 1053 907 1044
f 1035 684 1036
f 684 1054 1045
f 716 1046 1023
f 1024 777 772
f 915 792 791
f 1047 1055 816
f 1039 1048 1028
f 973 1015 1049
f 1015 1056 1050
f 1057 1017 1051
f 1052 1058 620
f 1059 907 1053
f 956 684 1035
f 684 1005 1054
f 1005 1046 716
f 1060 777 1024
f 1047 1061 1055
f 1039 855 1048
f 1015 1062 1056
f 1063 1017 1057
f 1052 1064 1058
f 1065 907 1059
f 956 1005 684
f 1005 1066 1046
f 1067 777 1060
f 1047 1068 1061
f 1039 1030 855
f 1069 1017 1063
f 1052 1065 1064
f 1065 1070 907
f 1071 1005 956
f 1005 1072 1066
f 1072 777 1067
f 1047 1073 1068
f 1073 1030 1039
f 1074 1017 1069
f 1052 1070 1065
f 1075 1005 1071
f 1005 777 1072
f 1047 1030 1073
f 1076 1017 1074
f 1077 1070 1052
f 1005 892 777
f 1078 1030 1047
f 1079 1017 1076
f 1077 1080 1070
f 1005 915 892
f 1081 1030 1078
f 1082 1017 1079
f 1077 1083 1080
f 1005 792 915
f 1084 1030 1081
f 1062 1017 1082
f 1077 1085 1083
f 1086 1030 1084
f 1062 1087 1017
f 1077 1088 1085
f 1089 1030 1086
f 1062 1090 1087
f 1077 1091 1088
f 792 1030 1089
f 1015 1090 1062
f 1077 1092 1091
f 1005 1030 792
f 1015 1093 1090
f 1077 1075 1092
f 1005 1094 1030
f 1015 564 1093
f 1077 1005 1075
f 1005 973 1094
f 1015 1018 564
f 1095 1005 1077
f 1005 1015 973
f 1015 906 1018
f 1096 1005 1095
f 1005 906 1015
f 1097 1005 1096
f 1005 1098 906
f 1099 1005 1097
f 1005 1100 1098
f 1100 1005 1099
f 1 552 350
f 350 552 900
f 350 900 375
f 375 900 925
f 375 925 351
f 351 925 901
f 351 901 5
f 5 901 554
f 5 554 6
f 6 554 556
f 6 556 4
f 4 556 555
f 4 555 8
f 8 555 558
f 8 558 7
f 7 558 557
f 7 557 10
f 10 557 560
f 10 560 9
f 9 560 559
f 9 559 12
f 12 559 561
f 12 561 13
f 13 561 563
f 13 563 11
f 11 563 562
f 11 562 327
f 327 562 877
f 327 877 352
f 352 877 902
f 352 902 376
f 376 902 926
f 376 926 467
f 467 926 1017
f 467 1017 537
f 537 1017 1087
f 537 1087 540
f 540 1087 1090
f 540 1090 543
f 543 1090 1093
f 543 1093 15
f 15 1093 564
f 15 564 16
f 16 564 566
f 16 566 14
f 14 566 565
f 14 565 18
f 18 565 568
f 18 568 17
f 17 568 567
f 17 567 20
f 20 567 570
f 20 570 19
f 19 570 569
f 19 569 22
f 22 569 572
f 22 572 21
f 21 572 571
f 21 571 377
f 377 571 927
f 377 927 446
f 446 927 996
f 446 996 425
f 425 996 975
f 425 975 401
f 401 975 951
f 401 951 353
f 353 951 903
f 353 903 24
f 24 903 573
f 24 573 25
f 25 573 575
f 25 575 23
f 23 575 574
f 23 574 27
f 27 574 577
f 27 577 26
f 26 577 576
f 26 576 29
f 29 576 579
f 29 579 28
f 28 579 578
f 28 578 31
f 31 578 581
f 31 581 30
f 30 581 580
f 30 580 33
f 33 580 583
f 33 583 32
f 32 583 582
f 32 582 35
f 35 582 585
f 35 585 34
f 34 585 584
f 34 584 37
f 37 584 587
f 37 587 36
f 36 587 586
f 36 586 328
f 328 586 878
f 328 878 354
f 354 878 904
f 354 904 378
f 378 904 928
f 378 928 402
f 402 928 952
f 402 952 426
f 426 952 976
f 426 976 468
f 468 976 1018
f 468 1018 447
f 447 1018 997
f 447 997 427
f 427 997 977
f 427 977 379
f 379 977 929
f 379 929 355
f 355 929 905
f 355 905 39
f 39 905 588
f 39 588 40
f 40 588 590
f 40 590 38
f 38 590 589
f 38 589 42
f 42 589 592
f 42 592 41
f 41 592 591
f 41 591 44
f 44 591 594
f 44 594 43
f 43 594 593
f 43 593 329
f 329 593 879
f 329 879 356
f 356 879 906
f 356 906 548
f 548 906 1098
f 548 1098 550
f 550 1098 1100
f 550 1100 549
f 549 1100 1099
f 549 1099 547
f 547 1099 1097
f 547 1097 546
f 546 1097 1096
f 546 1096 545
f 545 1096 1095
f 545 1095 527
f 527 1095 1077
f 527 1077 502
f 502 1077 1052
f 502 1052 493
f 493 1052 1043
f 493 1043 483
f 483 1043 1033
f 483 1033 469
f 469 1033 1019
f 469 1019 380
f 380 1019 930
f 380 930 46
f 46 930 595
f 46 595 47
f 47 595 597
f 47 597 45
f 45 597 596
f 45 596 49
f 49 596 599
f 49 599 48
f 48 599 598
f 48 598 51
f 51 598 601
f 51 601 50
f 50 601 600
f 50 600 330
f 330 600 880
f 330 880 53
f 53 880 602
f 53 602 54
f 54 602 604
f 54 604 52
f 52 604 603
f 52 603 56
f 56 603 606
f 56 606 55
f 55 606 605
f 55 605 331
f 331 605 881
f 331 881 58
f 58 881 607
f 58 607 59
f 59 607 609
f 59 609 57
f 57 609 608
f 57 608 61
f 61 608 611
f 61 611 60
f 60 611 610
f 60 610 63
f 63 610 613
f 63 613 62
f 62 613 612
f 62 612 65
f 65 612 615
f 65 615 64
f 64 615 614
f 64 614 67
f 67 614 617
f 67 617 66
f 66 617 616
f 66 616 69
f 69 616 619
f 69 619 68
f 68 619 618
f 68 618 71
f 71 618 621
f 71 621 70
f 70 621 620
f 70 620 508
f 508 620 1058
f 508 1058 514
f 514 1058 1064
f 514 1064 515
f 515 1064 1065
f 515 1065 509
f 509 1065 1059
f 509 1059 503
f 503 1059 1053
f 503 1053 494
f 494 1053 1044
f 494 1044 484
f 484 1044 1034
f 484 1034 448
f 448 1034 998
f 448 998 428
f 428 998 978
f 428 978 403
f 403 978 953
f 403 953 381
f 381 953 931
f 381 931 73
f 73 931 622
f 73 622 74
f 74 622 624
f 74 624 72
f 72 624 623
f 72 623 76
f 76 623 626
f 76 626 75
f 75 626 625
f 75 625 78
f 78 625 628
f 78 628 77
f 77 628 627
f 77 627 80
f 80 627 630
f 80 630 79
f 79 630 629
f 79 629 82
f 82 629 632
f 82 632 81
f 81 632 631
f 81 631 84
f 84 631 634
f 84 634 83
f 83 634 633
f 83 633 86
f 86 633 636
f 86 636 85
f 85 636 635
f 85 635 88
f 88 635 638
f 88 638 87
f 87 638 637
f 87 637 90
f 90 637 640
f 90 640 89
f 89 640 639
f 89 639 332
f 332 639 882
f 332 882 404
f 404 882 954
f 404 954 405
f 405 954 955
f 405 955 382
f 382 955 932
f 382 932 333
f 333 932 883
f 333 883 92
f 92 883 641
f 92 641 93
f 93 641 643
f 93 643 91
f 91 643 642
f 91 642 95
f 95 642 645
f 95 645 94
f 94 645 644
f 94 644 97
f 97 644 647
f 97 647 96
f 96 647 646
f 96 646 99
f 99 646 648
f 99 648 100
f 100 648 650
f 100 650 98
f 98 650 649
f 98 649 102
f 102 649 651
f 102 651 103
f 103 651 653
f 103 653 101
f 101 653 652
f 101 652 105
f 105 652 655
f 105 655 104
f 104 655 654
f 104 654 107
f 107 654 657
f 107 657 106
f 106 657 656
f 106 656 109
f 109 656 659
f 109 659 108
f 108 659 658
f 108 658 357
f 357 658 907
f 357 907 520
f 520 907 1070
f 520 1070 530
f 530 1070 1080
f 530 1080 533
f 533 1080 1083
f 533 1083 535
f 535 1083 1085
f 535 1085 538
f 538 1085 1088
f 538 1088 541
f 541 1088 1091
f 541 1091 542
f 542 1091 1092
f 542 1092 525
f 525 1092 1075
f 525 1075 521
f 521 1075 1071
f 521 1071 406
f 406 1071 956
f 406 956 383
f 383 956 933
f 383 933 334
f 334 933 884
f 334 884 111
f 111 884 660
f 111 660 112
f 112 660 662
f 112 662 110
f 110 662 661
f 110 661 114
f 114 661 664
f 114 664 113
f 113 664 663
f 113 663 116
f 116 663 666
f 116 666 115
f 115 666 665
f 115 665 429
f 429 665 979
f 429 979 449
f 449 979 999
f 449 999 470
f 470 999 1020
f 470 1020 485
f 485 1020 1035
f 485 1035 486
f 486 1035 1036
f 486 1036 450
f 450 1036 1000
f 450 1000 430
f 430 1000 980
f 430 980 407
f 407 980 957
f 407 957 384
f 384 957 934
f 384 934 358
f 358 934 908
f 358 908 335
f 335 908 885
f 335 885 118
f 118 885 667
f 118 667 119
f 119 667 669
f 119 669 117
f 117 669 668
f 117 668 471
f 471 668 1021
f 471 1021 451
f 451 1021 1001
f 451 1001 431
f 431 1001 981
f 431 981 385
f 385 981 935
f 385 935 121
f 121 935 670
f 121 670 122
f 122 670 672
f 122 672 120
f 120 672 671
f 120 671 124
f 124 671 674
f 124 674 123
f 123 674 673
f 123 673 126
f 126 673 676
f 126 676 125
f 125 676 675
f 125 675 128
f 128 675 678
f 128 678 127
f 127 678 677
f 127 677 130
f 130 677 680
f 130 680 129
f 129 680 679
f 129 679 336
f 336 679 886
f 336 886 132
f 132 886 681
f 132 681 133
f 133 681 683
f 133 683 131
f 131 683 682
f 131 682 135
f 135 682 685
f 135 685 134
f 134 685 684
f 134 684 137
f 137 684 687
f 137 687 136
f 136 687 686
f 136 686 139
f 139 686 689
f 139 689 138
f 138 689 688
f 138 688 141
f 141 688 691
f 141 691 140
f 140 691 690
f 140 690 143
f 143 690 692
f 143 692 144
f 144 692 694
f 144 694 142
f 142 694 693
f 142 693 337
f 337 693 887
f 337 887 359
f 359 887 909
f 359 909 408
f 408 909 958
f 408 958 432
f 432 958 982
f 432 982 452
f 452 982 1002
f 452 1002 453
f 453 1002 1003
f 453 1003 433
f 433 1003 983
f 433 983 409
f 409 983 959
f 409 959 386
f 386 959 936
f 386 936 360
f 360 936 910
f 360 910 146
f 146 910 695
f 146 695 147
f 147 695 697
f 147 697 145
f 145 697 696
f 145 696 149
f 149 696 699
f 149 699 148
f 148 699 698
f 148 698 151
f 151 698 701
f 151 701 150
f 150 701 700
f 150 700 153
f 153 700 702
f 153 702 154
f 154 702 704
f 154 704 152
f 152 704 703
f 152 703 156
f 156 703 706
f 156 706 155
f 155 706 705
f 155 705 158
f 158 705 708
f 158 708 157
f 157 708 707
f 157 707 160
f 160 707 710
f 160 710 159
f 159 710 709
f 159 709 162
f 162 709 712
f 162 712 161
f 161 712 711
f 161 711 338
f 338 711 888
f 338 888 410
f 410 888 960
f 410 960 434
f 434 960 984
f 434 984 454
f 454 984 1004
f 454 1004 495
f 495 1004 1045
f 495 1045 504
f 504 1045 1054
f 504 1054 455
f 455 1054 1005
f 455 1005 411
f 411 1005 961
f 411 961 387
f 387 961 937
f 387 937 361
f 361 937 911
f 361 911 339
f 339 911 889
f 339 889 164
f 164 889 713
f 164 713 165
f 165 713 715
f 165 715 163
f 163 715 714
f 163 714 167
f 167 714 717
f 167 717 166
f 166 717 716
f 166 716 456
f 456 716 1006
f 456 1006 435
f 435 1006 985
f 435 985 412
f 412 985 962
f 412 962 388
f 388 962 938
f 388 938 362
f 362 938 912
f 362 912 340
f 340 912 890
f 340 890 169
f 169 890 718
f 169 718 170
f 170 718 720
f 170 720 168
f 168 720 719
f 168 719 172
f 172 719 722
f 172 722 171
f 171 722 721
f 171 721 174
f 174 721 724
f 174 724 173
f 173 724 723
f 173 723 176
f 176 723 726
f 176 726 175
f 175 726 725
f 175 725 178
f 178 725 728
f 178 728 177
f 177 728 727
f 177 727 389
f 389 727 939
f 389 939 413
f 413 939 963
f 413 963 436
f 436 963 986
f 436 986 457
f 457 986 1007
f 457 1007 472
f 472 1007 1022
f 472 1022 473
f 473 1022 1023
f 473 1023 458
f 458 1023 1008
f 458 1008 437
f 437 1008 987
f 437 987 414
f 414 987 964
f 414 964 363
f 363 964 913
f 363 913 180
f 180 913 729
f 180 729 181
f 181 729 731
f 181 731 179
f 179 731 730
f 179 730 183
f 183 730 733
f 183 733 182
f 182 733 732
f 182 732 185
f 185 732 735
f 185 735 184
f 184 735 734
f 184 734 187
f 187 734 737
f 187 737 186
f 186 737 736
f 186 736 189
f 189 736 739
f 189 739 188
f 188 739 738
f 188 738 191
f 191 738 741
f 191 741 190
f 190 741 740
f 190 740 487
f 487 740 1037
f 487 1037 496
f 496 1037 1046
f 496 1046 516
f 516 1046 1066
f 516 1066 522
f 522 1066 1072
f 522 1072 517
f 517 1072 1067
f 517 1067 510
f 510 1067 1060
f 510 1060 474
f 474 1060 1024
f 474 1024 459
f 459 1024 1009
f 459 1009 438
f 438 1009 988
f 438 988 415
f 415 988 965
f 415 965 364
f 364 965 914
f 364 914 193
f 193 914 742
f 193 742 194
f 194 742 744
f 194 744 192
f 192 744 743
f 192 743 196
f 196 743 746
f 196 746 195
f 195 746 745
f 195 745 198
f 198 745 748
f 198 748 197
f 197 748 747
f 197 747 200
f 200 747 750
f 200 750 199
f 199 750 749
f 199 749 202
f 202 749 751
f 202 751 203
f 203 751 753
f 203 753 201
f 201 753 752
f 201 752 205
f 205 752 755
f 205 755 204
f 204 755 754
f 204 754 207
f 207 754 757
f 207 757 206
f 206 757 756
f 206 756 209
f 209 756 759
f 209 759 208
f 208 759 758
f 208 758 211
f 211 758 761
f 211 761 210
f 210 761 760
f 210 760 213
f 213 760 763
f 213 763 212
f 212 763 762
f 212 762 215
f 215 762 765
f 215 765 214
f 214 765 764
f 214 764 217
f 217 764 767
f 217 767 216
f 216 767 766
f 216 766 219
f 219 766 769
f 219 769 218
f 218 769 768
f 218 768 221
f 221 768 771
f 221 771 220
f 220 771 770
f 220 770 341
f 341 770 891
f 341 891 223
f 223 891 772
f 223 772 224
f 224 772 774
f 224 774 222
f 222 774 773
f 222 773 226
f 226 773 776
f 226 776 225
f 225 776 775
f 225 775 228
f 228 775 778
f 228 778 227
f 227 778 777
f 227 777 342
f 342 777 892
f 342 892 230
f 230 892 779
f 230 779 231
f 231 779 781
f 231 781 229
f 229 781 780
f 229 780 365
f 365 780 915
f 365 915 475
f 475 915 1025
f 475 1025 460
f 460 1025 1010
f 460 1010 416
f 416 1010 966
f 416 966 390
f 390 966 940
f 390 940 366
f 366 940 916
f 366 916 233
f 233 916 782
f 233 782 234
f 234 782 784
f 234 784 232
f 232 784 783
f 232 783 236
f 236 783 786
f 236 786 235
f 235 786 785
f 235 785 238
f 238 785 788
f 238 788 237
f 237 788 787
f 237 787 240
f 240 787 790
f 240 790 239
f 239 790 789
f 239 789 367
f 367 789 917
f 367 917 391
f 391 917 941
f 391 941 417
f 417 941 967
f 417 967 242
f 242 967 791
f 242 791 243
f 243 791 793
f 243 793 241
f 241 793 792
f 241 792 539
f 539 792 1089
f 539 1089 536
f 536 1089 1086
f 536 1086 534
f 534 1086 1084
f 534 1084 531
f 531 1084 1081
f 531 1081 528
f 528 1081 1078
f 528 1078 497
f 497 1078 1047
f 497 1047 488
f 488 1047 1038
f 488 1038 476
f 476 1038 1026
f 476 1026 461
f 461 1026 1011
f 461 1011 418
f 418 1011 968
f 418 968 392
f 392 968 942
f 392 942 343
f 343 942 893
f 343 893 245
f 245 893 794
f 245 794 246
f 246 794 796
f 246 796 244
f 244 796 795
f 244 795 248
f 248 795 798
f 248 798 247
f 247 798 797
f 247 797 250
f 250 797 800
f 250 800 249
f 249 800 799
f 249 799 252
f 252 799 802
f 252 802 251
f 251 802 801
f 251 801 254
f 254 801 804
f 254 804 253
f 253 804 803
f 253 803 256
f 256 803 806
f 256 806 255
f 255 806 805
f 255 805 258
f 258 805 808
f 258 808 257
f 257 808 807
f 257 807 368
f 368 807 918
f 368 918 344
f 344 918 894
f 344 894 260
f 260 894 809
f 260 809 261
f 261 809 811
f 261 811 259
f 259 811 810
f 259 810 263
f 263 810 813
f 263 813 262
f 262 813 812
f 262 812 265
f 265 812 815
f 265 815 264
f 264 815 814
f 264 814 267
f 267 814 817
f 267 817 266
f 266 817 816
f 266 816 505
f 505 816 1055
f 505 1055 511
f 511 1055 1061
f 511 1061 518
f 518 1061 1068
f 518 1068 523
f 523 1068 1073
f 523 1073 489
f 489 1073 1039
f 489 1039 477
f 477 1039 1027
f 477 1027 462
f 462 1027 1012
f 462 1012 439
f 439 1012 989
f 439 989 393
f 393 989 943
f 393 943 269
f 269 943 818
f 269 818 270
f 270 818 820
f 270 820 268
f 268 820 819
f 268 819 272
f 272 819 822
f 272 822 271
f 271 822 821
f 271 821 274
f 274 821 824
f 274 824 273
f 273 824 823
f 273 823 276
f 276 823 825
f 276 825 277
f 277 825 827
f 277 827 275
f 275 827 826
f 275 826 279
f 279 826 828
f 279 828 280
f 280 828 830
f 280 830 278
f 278 830 829
f 278 829 419
f 419 829 969
f 419 969 394
f 394 969 944
f 394 944 369
f 369 944 919
f 369 919 282
f 282 919 831
f 282 831 283
f 283 831 833
f 283 833 281
f 281 833 832
f 281 832 345
f 345 832 895
f 345 895 478
f 478 895 1028
f 478 1028 479
f 479 1028 1029
f 479 1029 440
f 440 1029 990
f 440 990 420
f 420 990 970
f 420 970 395
f 395 970 945
f 395 945 370
f 370 945 920
f 370 920 285
f 285 920 834
f 285 834 286
f 286 834 836
f 286 836 284
f 284 836 835
f 284 835 288
f 288 835 838
f 288 838 287
f 287 838 837
f 287 837 290
f 290 837 840
f 290 840 289
f 289 840 839
f 289 839 292
f 292 839 842
f 292 842 291
f 291 842 841
f 291 841 294
f 294 841 844
f 294 844 293
f 293 844 843
f 293 843 296
f 296 843 846
f 296 846 295
f 295 846 845
f 295 845 298
f 298 845 848
f 298 848 297
f 297 848 847
f 297 847 300
f 300 847 850
f 300 850 299
f 299 850 849
f 299 849 302
f 302 849 852
f 302 852 301
f 301 852 851
f 301 851 304
f 304 851 854
f 304 854 303
f 303 854 853
f 303 853 421
f 421 853 971
f 421 971 441
f 441 971 991
f 441 991 498
f 498 991 1048
f 498 1048 306
f 306 1048 855
f 306 855 307
f 307 855 857
f 307 857 305
f 305 857 856
f 305 856 346
f 346 856 896
f 346 896 371
f 371 896 921
f 371 921 396
f 396 921 946
f 396 946 422
f 422 946 972
f 422 972 442
f 442 972 992
f 442 992 463
f 463 992 1013
f 463 1013 480
f 480 1013 1030
f 480 1030 544
f 544 1030 1094
f 544 1094 423
f 423 1094 973
f 423 973 397
f 397 973 947
f 397 947 372
f 372 947 922
f 372 922 347
f 347 922 897
f 347 897 309
f 309 897 858
f 309 858 310
f 310 858 860
f 310 860 308
f 308 860 859
f 308 859 443
f 443 859 993
f 443 993 464
f 464 993 1014
f 464 1014 481
f 481 1014 1031
f 481 1031 490
f 490 1031 1040
f 490 1040 499
f 499 1040 1049
f 499 1049 465
f 465 1049 1015
f 465 1015 444
f 444 1015 994
f 444 994 398
f 398 994 948
f 398 948 373
f 373 948 923
f 373 923 348
f 348 923 898
f 348 898 312
f 312 898 861
f 312 861 313
f 313 861 863
f 313 863 311
f 311 863 862
f 311 862 315
f 315 862 865
f 315 865 314
f 314 865 864
f 314 864 317
f 317 864 867
f 317 867 316
f 316 867 866
f 316 866 319
f 319 866 869
f 319 869 318
f 318 869 868
f 318 868 399
f 399 868 949
f 399 949 482
f 482 949 1032
f 482 1032 491
f 491 1032 1041
f 491 1041 500
f 500 1041 1050
f 500 1050 506
f 506 1050 1056
f 506 1056 512
f 512 1056 1062
f 512 1062 532
f 532 1062 1082
f 532 1082 529
f 529 1082 1079
f 529 1079 526
f 526 1079 1076
f 526 1076 524
f 524 1076 1074
f 524 1074 519
f 519 1074 1069
f 519 1069 513
f 513 1069 1063
f 513 1063 507
f 507 1063 1057
f 507 1057 501
f 501 1057 1051
f 501 1051 492
f 492 1051 1042
f 492 1042 466
f 466 1042 1016
f 466 1016 445
f 445 1016 995
f 445 995 424
f 424 995 974
f 424 974 400
f 400 974 950
f 400 950 374
f 374 950 924
f 374 924 349
f 349 924 899
f 349 899 321
f 321 899 870
f 321 870 322
f 322 870 872
f 322 872 320
f 320 872 871
f 320 871 324
f 324 871 874
f 324 874 323
f 323 874 873
f 323 873 326
f 326 873 876
f 326 876 325
f 325 876 875
f 325 875 2
f 2 875 551
f 2 551 3
f 3 551 553
f 3 553 1
f 1 553 552
