o 
v 8.63 0 -0.13
v 9.929 0 -0.102
v 9.198 0 -0.118
v 7.757 0 -0.172
v 8.171 0 -0.151
v 7.13 0 -0.211
v 7.404 0 -0.192
v 6.89 0 -0.24
v 6.953 0 -0.228
v 7.098 0 -1.442
v 6.949 0 -0.664
v 7.502 0 -3.304
v 7.296 0 -2.385
v 7.77 0 -4.32
v 7.674 0 -4.012
v 8.394 0 -4.557
v 7.971 0 -4.409
v 9.713 0 -4.967
v 8.99 0 -4.747
v 11.35 0 -5.43
v 10.515 0 -5.199
v 19.15 0 -19.356
v 19.64 0 -17.18
v 19.25 0 -18.89
v 18.985 0 -20.204
v 19.06 0 -19.8
v 18.887 0 -20.808
v 18.926 0 -20.546
v 19.111 0 -21.665
v 18.87 0 -20.97
v 20.522 0 -25.094
v 19.72 0 -23.176
v 22.02 0 -28.506
v 21.347 0 -27.007
v 22.442 0 -29.185
v 22.37 0 -29.18
v 22.849 0 -29.069
v 22.606 0 -29.146
v 23.506 0 -28.829
v 23.154 0 -28.961
v 24.281 0 -28.518
v 23.89 0 -28.68
v 27.33 0 -35.29
v 25.61 0 -29.95
v 25.61 0 -31.82
v 28.42 0 -39.84
v 29.07 0 -38.75
v 28.74 0 -39.29
v 33.871 0 -51.076
v 31.66 0 -46.54
v 32.948 0 -49.205
v 34.976 0 -53.071
v 34.518 0 -52.311
v 35.68 0 -53.8
v 35.334 0 -53.514
v 35.053 0 -57.02
v 36.47 0 -56.65
v 35.53 0 -56.89
v 34.371 0 -57.541
v 34.692 0 -57.201
v 33.546 0 -59.133
v 34.014 0 -58.149
v 29.358 0 -58.534
v 30.268 0 -60.522
v 29.82 0 -59.53
v 28.54 0 -56.86
v 28.925 0 -57.632
v 27.989 0 -55.852
v 28.221 0 -56.254
v 27.739 0 -55.66
v 27.86 0 -55.69
v 27.27 0 -55.553
v 27.537 0 -55.613
v 26.601 0 -55.412
v 26.953 0 -55.484
v 22.97 0 -55.88
v 26.23 0 -55.34
v 24.9 0 -55.05
v 19.21 0 -53.54
v 20.319 0 -55.553
v 20.09 0 -55.13
v 18.116 0 -54.396
v 18.44 0 -54.14
v 16.933 0 -55.333
v 17.6 0 -54.804
v 9.787 0 -59.914
v 10.614 0 -59.888
v 10.19 0 -59.9
v 9.057 0 -60.08
v 9.426 0 -59.968
v 8.108 0 -60.553
v 8.634 0 -60.269
v 6.867 0 -61.306
v 7.43 0 -60.95
v 5.405 0 -62.325
v 6.178 0 -61.775
v 3.783 0 -63.544
v 4.592 0 -62.925
v 2.005 0 -64.978
v 3.02 0 -64.15
v 0.821 0 -66.018
v 1.289 0 -65.583
v 0.441 0 -66.571
v 0.555 0 -66.33
v 0.449 0 -66.986
v 0.43 0 -66.79
v 1.99 0 -70.83
v 0.51 0 -69
v 0.53 0 -70.7
v 5.17 0 -69.9
v 3.45 0 -70.97
v 9.42 0 -69.41
v 6.89 0 -68.85
v 8.15 0 -69.13
v 12.274 0 -68.453
v 11.67 0 -68.66
v 13.319 0 -68.06
v 12.832 0 -68.25
v 13.986 0 -67.76
v 13.711 0 -67.893
v 14.174 0 -67.556
v 14.12 0 -67.67
v 14.32 0 -67.129
v 14.243 0 -67.371
v 14.479 0 -66.525
v 14.401 0 -66.843
v 15.555 0 -64.909
v 15.02 0 -64.96
v 15.187 0 -64.947
v 16.761 0 -64.778
v 16.091 0 -64.851
v 18.37 0 -64.6
v 17.532 0 -64.693
v 20.244 0 -64.353
v 19.398 0 -64.474
v 21.449 0 -64.117
v 20.923 0 -64.235
v 22.11 0 -63.87
v 21.84 0 -63.996
v 22.508 0 -63.638
v 22.296 0 -63.763
v 22.962 0 -63.366
v 22.734 0 -63.502
v 24.06 0 -62.71
v 23.181 0 -63.235
v 23.38 0 -63.12
v 24.871 0 -67.672
v 24.64 0 -66.32
v 25.259 0 -69.584
v 25.07 0 -68.733
v 25.696 0 -70.986
v 25.46 0 -70.307
v 26.29 0 -72.36
v 25.99 0 -71.7
v 26.849 0 -73.374
v 26.568 0 -72.905
v 27.524 0 -74.238
v 27.159 0 -73.805
v 28.482 0 -75.214
v 27.97 0 -74.71
v 29.235 0 -75.817
v 28.881 0 -75.57
v 30.068 0 -76.135
v 29.609 0 -75.993
v 31 0 -79.26
v 31.734 0 -77.635
v 31.58 0 -77.97
v 31.976 0 -80.071
v 31.77 0 -79.9
v 31.673 0 -82.105
v 32.054 0 -81.527
v 31.88 0 -81.77
v 31.147 0 -83.156
v 31.424 0 -82.577
v 30.575 0 -84.504
v 30.859 0 -83.809
v 29.921 0 -86.273
v 30.31 0 -85.21
v 29.51 0 -87.624
v 29.662 0 -87.042
v 29.445 0 -88.651
v 29.445 0 -88.125
v 28.59 0 -97.87
v 28.743 0 -96.784
v 28.7 0 -97.08
v 36.47 0 -99.68
v 31.26 0 -98.93
v 33.94 0 -100
v 37.824 0 -99.509
v 37.161 0 -99.594
v 38.946 0 -99.361
v 38.429 0 -99.43
v 39.6 0 -99.27
v 39.347 0 -99.306
v 40.113 0 -99.043
v 39.837 0 -99.199
v 40.857 0 -98.41
v 40.446 0 -98.786
v 41.99 0 -97.23
v 41.365 0 -97.897
v 44.09 0 -93.39
v 43.79 0 -95.28
v 43.13 0 -90.25
v 44.39 0 -91.5
v 45.792 0 -86.111
v 43.53 0 -86.77
v 44.906 0 -86.382
v 46.631 0 -85.586
v 46.322 0 -85.874
v 47.12 0 -84.52
v 46.853 0 -85.162
v 54.66 0 -81.79
v 47.74 0 -83.11
v 51.59 0 -83.11
v 56.317 0 -81.069
v 55.5 0 -81.424
v 58.938 0 -79.919
v 58.251 0 -80.229
v 58.6 0 -80.08
v 59.411 0 -79.56
v 59.199 0 -79.756
v 59.795 0 -78.948
v 59.601 0 -79.301
v 60.58 0 -77.22
v 60.02 0 -78.47
v 66.2 0 -81.95
v 64.77 0 -77.63
v 64.83 0 -79.46
v 66.273 0 -86.753
v 66.7 0 -86.15
v 66.475 0 -86.463
v 65.973 0 -87.211
v 66.104 0 -87.006
v 65.86 0 -87.42
v 65.89 0 -87.353
v 66.093 0 -87.744
v 65.921 0 -87.517
v 66.7 0 -88.502
v 66.359 0 -88.08
v 67.54 0 -89.52
v 67.1 0 -88.989
v 68.725 0 -90.881
v 68.224 0 -90.325
v 69.399 0 -91.439
v 69.098 0 -91.236
v 70.01 0 -91.58
v 69.684 0 -91.538
v 71.508 0 -93.654
v 70.78 0 -91.63
v 71.34 0 -93.22
v 71.861 0 -94.43
v 71.684 0 -94.063
v 72.178 0 -94.966
v 72.029 0 -94.737
v 72.806 0 -95.443
v 72.3 0 -95.1
v 74.244 0 -96.342
v 73.494 0 -95.881
v 75.452 0 -97.036
v 74.936 0 -96.752
v 75.723 0 -97.043
v 75.67 0 -97.12
v 75.993 0 -96.546
v 75.833 0 -96.846
v 76.416 0 -95.719
v 76.19 0 -96.164
v 76.6 0 -90.17
v 76.66 0 -95.23
v 77.6 0 -93.39
v 75.289 0 -85.806
v 75.479 0 -86.45
v 75.39 0 -86.11
v 74.969 0 -85.202
v 75.152 0 -85.508
v 74.431 0 -84.525
v 74.731 0 -84.879
v 72.95 0 -82.98
v 74.06 0 -84.13
v 73.634 0 -76.954
v 73.01 0 -76.79
v 73.21 0 -76.848
v 75.006 0 -77.273
v 74.245 0 -77.099
v 76.83 0 -77.67
v 75.88 0 -77.467
v 88.75 0 -79.95
v 84.48 0 -79.54
v 88.6 0 -80.63
v 88.803 0 -79.433
v 88.805 0 -79.663
v 88.527 0 -78.96
v 88.719 0 -79.214
v 87.72 0 -78.17
v 88.203 0 -78.628
v 83.96 0 -74.52
v 85.419 0 -75.942
v 84.686 0 -75.226
v 81.044 0 -70.217
v 81.38 0 -71.98
v 81.12 0 -70.59
v 80.896 0 -69.584
v 80.968 0 -69.877
v 80.779 0 -69.187
v 80.832 0 -69.349
v 80.586 0 -69.081
v 80.74 0 -69.11
v 79.636 0 -69.033
v 80.206 0 -69.055
v 78.063 0 -69.004
v 78.91 0 -69.015
v 71.7 0 -69.82
v 77.13 0 -69
v 73.63 0 -68.98
v 73.742 0 -67.711
v 71.868 0 -68.63
v 72.75 0 -68.2
v 76.025 0 -66.542
v 74.855 0 -67.148
v 78.281 0 -65.34
v 77.189 0 -65.929
v 81.103 0 -63.779
v 79.24 0 -64.81
v 80.154 0 -64.305
v 82.917 0 -62.771
v 82.04 0 -63.259
v 84.3 0 -62
v 83.686 0 -62.342
v 86.803 0 -60.532
v 85.331 0 -61.41
v 91.13 0 -57.871
v 88.731 0 -59.356
v 97.4 0 -53.93
v 94.015 0 -56.066
v 99.52 0 -51.61
v 99.46 0 -52.64
v 95.49 0 -48.48
v 99.57 0 -50.56
v 88.1 0 -46.63
v 91.41 0 -46.41
v 72.759 0 -36.289
v 72.982 0 -37.408
v 72.88 0 -36.88
v 72.339 0 -34.624
v 72.574 0 -35.52
v 71.769 0 -32.648
v 72.066 0 -33.65
v 71.156 0 -30.757
v 71.46 0 -31.67
v 72.46 0 -27.498
v 71.623 0 -27.749
v 72.04 0 -27.63
v 73.186 0 -27.234
v 72.847 0 -27.364
v 73.649 0 -27.007
v 73.459 0 -27.113
v 73.803 0 -26.808
v 73.74 0 -26.92
v 74.019 0 -26.35
v 73.898 0 -26.612
v 74.311 0 -25.692
v 74.159 0 -26.038
v 74.678 0 -24.806
v 74.47 0 -25.33
v 74.957 0 -23.834
v 74.838 0 -24.322
v 75.11 0 -22.658
v 75.046 0 -23.294
v 75.27 0 -19.81
v 75.16 0 -21.88
v 85.42 0 -3.16
v 83.83 0 -5.05
v 85.27 0 -5.05
v 85.473 0 -2.201
v 85.451 0 -2.659
v 85.487 0 -1.493
v 85.485 0 -1.805
v 85.46 0 -1.2
v 85.479 0 -1.284
v 84.913 0 -1.132
v 85.302 0 -1.168
v 83.577 0 -1.058
v 84.326 0 -1.095
v 81.73 0 -0.99
v 82.7 0 -1.022
v 79.296 0 -0.945
v 80.372 0 -0.956
v 77.694 0 -1.011
v 78.429 0 -0.963
v 76.32 0 -1.22
v 77.016 0 -1.096
v 75.411 0 -1.408
v 75.847 0 -1.315
v 74.725 0 -1.572
v 75.031 0 -1.495
v 74.41 0 -1.68
v 74.512 0 -1.635
v 74.313 0 -2.053
v 74.365 0 -1.794
v 74.197 0 -2.907
v 74.256 0 -2.431
v 74.08 0 -4.06
v 74.137 0 -3.458
v 73.989 0 -5.533
v 74.019 0 -4.894
v 74.021 0 -6.4
v 73.989 0 -6.021
v 74.19 0 -7
v 74.088 0 -6.712
v 65.41 0 -18.27
v 67.79 0 -16.38
v 66.63 0 -16.51
v 64.4 0 -21.62
v 64.19 0 -20.03
v 49.165 0 -17.127
v 53.265 0 -19.019
v 51 0 -17.97
v 46.085 0 -15.751
v 47.504 0 -16.377
v 44.245 0 -14.992
v 44.976 0 -15.28
v 43.813 0 -15.291
v 43.96 0 -14.92
v 42.94 0 -17.772
v 43.462 0 -16.273
v 41.507 0 -21.954
v 42.278 0 -19.697
v 37.5 0 -33.83
v 40.66 0 -24.45
v 36.455 0 -32.664
v 36.73 0 -32.97
v 31.3 0 -19.51
v 32.67 0 -23.29
v 33.16 0 -22.35
v 28.23 0 -16.77
v 29.45 0 -16.66
v 26.424 0 -15.29
v 26.75 0 -16.17
v 26.633 0 -15.84
v 25.803 0 -13.694
v 26.141 0 -14.56
v 23.55 0 -7.99
v 25.426 0 -12.733
v 25.03 0 -11.72
v 24.9 0 -5.6
v 24.23 0 -6.8
v 24.166 0 -2.778
v 24.32 0 -3.37
v 23.707 0 -1.019
v 23.761 0 -1.154
v 23.74 0 -1.05
v 23.469 0 -0.904
v 23.614 0 -0.969
v 23.054 0 -0.745
v 23.279 0 -0.828
v 21.89 0 -0.36
v 22.8 0 -0.66
v 20.535 0 -1.787
v 20.82 0 -1.48
v 13.52 0 -0.04
v 18.07 0 -1.31
v 16.66 0 0
v 11.688 0 -0.068
v 12.619 0 -0.052
v 10.775 0 -0.085
v 25.605 0 -29.454
v 36.013 0 -54.041
v 32.89 0 -60.6
v 16.153 0 -55.949
v 0.503 0 -68.529
v 14.55 0 -66.19
v 30.68 0 -76.28
v 31.873 0 -77.328
v 32.211 0 -81.295
v 29.49 0 -89.31
v 28.807 0 -96.329
v 57.73 0 -80.454
v 64.747 0 -77.147
v 76.324 0 -89.284
v 75.628 0 -86.976
v 83.264 0 -79.223
v 87.311 0 -77.78
v 86.125 0 -76.63
v 84.77 0 -46.86
v 71.243 0 -27.863
v 74.49 0 -7.71
v 68.95 0 -16.25
v 64.451 0 -22.047
v 32.476 0 -23.675
v 27.02 0 -16.89
v 23.819 0 -1.403
v 18.442 0 -1.654
v 24.642 0 -28.373
v 25.592 0 -29.007
v 36.236 0 -54.236
v 30.679 0 -61.413
v 22.462 0 -56.105
v 20.531 0 -55.933
v 0.466 0 -67.279
v 0.494 0 -68.071
v 31.067 0 -76.373
v 28.889 0 -95.749
v 42.806 0 -89.914
v 43.159 0 -86.885
v 57.072 0 -80.74
v 64.719 0 -76.711
v 66.925 0 -85.832
v 81.926 0 -78.884
v 71.073 0 -69.027
v 73.113 0 -37.999
v 70.891 0 -29.931
v 81.17 0 -9.02
v 32.338 0 -24.022
v 24.027 0 -2.237
v 23.91 0 -1.771
v 18.79 0 -1.965
v 25.571 0 -28.629
v 32.569 0 -61.312
v 22.002 0 -56.307
v 20.715 0 -56.255
v 10.993 0 -59.804
v 0.481 0 -67.647
v 31.419 0 -76.459
v 31.99 0 -77.064
v 32.345 0 -81.085
v 29.512 0 -89.877
v 64.689 0 -76.341
v 76.062 0 -88.431
v 75.826 0 -87.649
v 77.917 0 -77.916
v 80.539 0 -78.541
v 86.767 0 -77.255
v 70.915 0 -27.965
v 80.231 0 -10.456
v 64.491 0 -22.436
v 55.267 0 -19.921
v 32.246 0 -24.378
v 19.096 0 -2.231
v 25.545 0 -28.336
v 36.371 0 -54.432
v 32.273 0 -61.952
v 31.036 0 -62.169
v 21.608 0 -56.476
v 20.863 0 -56.503
v 14.621 0 -65.862
v 32.081 0 -76.855
v 32.449 0 -80.909
v 29.506 0 -90.487
v 28.983 0 -95.078
v 42.511 0 -89.586
v 42.875 0 -86.999
v 64.657 0 -76.055
v 67.124 0 -85.528
v 79.178 0 -78.213
v 70.399 0 -69.376
v 81.26 0 -45.98
v 73.264 0 -38.621
v 70.653 0 -28.051
v 64.519 0 -22.772
v 57.033 0 -20.69
v 32.192 0 -24.788
v 19.347 0 -2.438
v 11.664 0 -5.534
v 24.959 0 -28.253
v 25.514 0 -28.147
v 32.016 0 -62.494
v 31.321 0 -62.754
v 21.298 0 -56.607
v 20.964 0 -56.663
v 11.446 0 -59.577
v 14.701 0 -65.567
v 31.72 0 -76.534
v 32.139 0 -76.716
v 29.085 0 -94.35
v 42.26 0 -89.283
v 42.658 0 -87.125
v 64.627 0 -75.872
v 67.293 0 -85.251
v 70.988 0 -70.117
v 73.427 0 -39.241
v 79.432 0 -11.725
v 64.533 0 -23.041
v 58.586 0 -21.335
v 32.167 0 -25.3
v 19.527 0 -2.572
v 11.968 0 -5.697
v 25.214 0 -28.16
v 31.81 0 -62.911
v 31.515 0 -63.133
v 21.093 0 -56.69
v 21.01 0 -56.72
v 12.09 0 -59.136
v 31.954 0 -76.595
v 32.16 0 -76.66
v 32.516 0 -80.776
v 29.19 0 -93.6
v 42.066 0 -89.021
v 66.553 0 -82.62
v 67.422 0 -85.015
v 69.877 0 -69.659
v 70.674 0 -29.224
v 70.473 0 -28.114
v 78.735 0 -12.893
v 64.53 0 -23.225
v 32.16 0 -25.96
v 20.269 0 -2.06
v 19.62 0 -2.62
v 12.3 0 -5.949
v 25.393 0 -28.101
v 31.667 0 -63.178
v 31.6 0 -63.27
v 32.106 0 -76.638
v 32.161 0 -80.239
v 32.54 0 -80.7
v 29.314 0 -92.695
v 41.941 0 -88.818
v 66.874 0 -83.244
v 67.507 0 -84.834
v 72.84 0 -79.84
v 69.54 0 -69.859
v 70.512 0 -28.669
v 70.39 0 -28.15
v 78.105 0 -14.021
v 71.72 0 -11.98
v 59.953 0 -21.868
v 32.16 0 -27.7
v 20.032 0 -2.29
v 25.48 0 -28.08
v 15.302 0 -56.622
v 13.042 0 -58.407
v 32.316 0 -80.394
v 29.471 0 -91.151
v 29.408 0 -91.883
v 41.9 0 -88.69
v 67.147 0 -83.792
v 67.54 0 -84.72
v 72.805 0 -78.66
v 72.908 0 -76.795
v 69.42 0 -69.96
v 76.9 0 -16.42
v 77.505 0 -15.176
v 61.16 0 -22.3
v 19.838 0 -2.467
v 12.695 0 -6.32
v 17.58 0 -13.31
v 14.42 0 -57.32
v 32.436 0 -80.528
v 67.359 0 -84.24
v 72.839 0 -76.934
v 77.75 0 -45.1
v 64.51 0 -23.31
v 62.03 0 -22.587
v 19.696 0 -2.58
v 14.785 0 -65.316
v 32.513 0 -80.633
v 67.495 0 -84.558
v 72.801 0 -77.257
v 76.04 0 -43.56
v 62.82 0 -22.842
v 13.19 0 -6.84
v 14.869 0 -65.123
v 41.912 0 -88.576
v 72.791 0 -77.816
v 75.338 0 -42.915
v 63.495 0 -23.052
v 14.949 0 -65
v 64.6 0 -75.81
v 74.844 0 -42.425
v 70.414 0 -28.3
v 64.024 0 -23.208
v 34.05 0 -29.9
v 74.499 0 -42.006
v 64.373 0 -23.298
v 34.583 0 -30.518
v 41.945 0 -88.432
v 64.505 0 -75.84
v 74.242 0 -41.575
v 35.116 0 -31.134
v 41.996 0 -88.265
v 64.284 0 -75.914
v 74.016 0 -41.047
v 73.596 0 -39.825
v 35.623 0 -31.716
v 63.958 0 -76.025
v 73.76 0 -40.34
v 36.077 0 -32.236
v 63.546 0 -76.166
v 36.47 0 -55.5
v 63.07 0 -76.33
v 69.422 0 -70.006
v 36.466 0 -55.017
v 62.55 0 -76.51
v 13.82 0 -7.54
v 36.441 0 -54.677
v 69.438 0 -70.069
v 14.494 0 -8.31
v 42.061 0 -88.085
v 69.465 0 -70.145
v 15.059 0 -9.02
v 42.137 0 -87.9
v 70.46 0 -70.323
v 69.502 0 -70.227
v 15.584 0 -9.772
v 42.22 0 -87.72
v 70.088 0 -70.446
v 69.548 0 -70.311
v 16.134 0 -10.67
v 42.349 0 -87.472
v 69.84 0 -70.493
v 69.6 0 -70.39
v 16.777 0 -11.815
v 42.489 0 -87.278
v 69.688 0 -70.472
v 9.929 10 -0.102
v 8.63 10 -0.13
v 9.198 10 -0.118
v 7.757 10 -0.172
v 8.171 10 -0.151
v 7.13 10 -0.211
v 7.404 10 -0.192
v 6.89 10 -0.24
v 6.953 10 -0.228
v 7.098 10 -1.442
v 6.949 10 -0.664
v 7.502 10 -3.304
v 7.296 10 -2.385
v 7.77 10 -4.32
v 7.674 10 -4.012
v 8.394 10 -4.557
v 7.971 10 -4.409
v 9.713 10 -4.967
v 8.99 10 -4.747
v 11.35 10 -5.43
v 10.515 10 -5.199
v 19.64 10 -17.18
v 19.15 10 -19.356
v 19.25 10 -18.89
v 18.985 10 -20.204
v 19.06 10 -19.8
v 18.887 10 -20.808
v 18.926 10 -20.546
v 19.111 10 -21.665
v 18.87 10 -20.97
v 20.522 10 -25.094
v 19.72 10 -23.176
v 22.02 10 -28.506
v 21.347 10 -27.007
v 22.442 10 -29.185
v 22.37 10 -29.18
v 22.849 10 -29.069
v 22.606 10 -29.146
v 23.506 10 -28.829
v 23.154 10 -28.961
v 24.281 10 -28.518
v 23.89 10 -28.68
v 25.61 10 -29.95
v 27.33 10 -35.29
v 25.61 10 -31.82
v 29.07 10 -38.75
v 28.42 10 -39.84
v 28.74 10 -39.29
v 31.66 10 -46.54
v 33.871 10 -51.076
v 32.948 10 -49.205
v 34.976 10 -53.071
v 34.518 10 -52.311
v 35.68 10 -53.8
v 35.334 10 -53.514
v 36.47 10 -56.65
v 35.053 10 -57.02
v 35.53 10 -56.89
v 34.371 10 -57.541
v 34.692 10 -57.201
v 33.546 10 -59.133
v 34.014 10 -58.149
v 30.268 10 -60.522
v 29.358 10 -58.534
v 29.82 10 -59.53
v 28.54 10 -56.86
v 28.925 10 -57.632
v 27.989 10 -55.852
v 28.221 10 -56.254
v 27.739 10 -55.66
v 27.86 10 -55.69
v 27.27 10 -55.553
v 27.537 10 -55.613
v 26.601 10 -55.412
v 26.953 10 -55.484
v 26.23 10 -55.34
v 22.97 10 -55.88
v 24.9 10 -55.05
v 20.319 10 -55.553
v 19.21 10 -53.54
v 20.09 10 -55.13
v 18.116 10 -54.396
v 18.44 10 -54.14
v 16.933 10 -55.333
v 17.6 10 -54.804
v 10.614 10 -59.888
v 9.787 10 -59.914
v 10.19 10 -59.9
v 9.057 10 -60.08
v 9.426 10 -59.968
v 8.108 10 -60.553
v 8.634 10 -60.269
v 6.867 10 -61.306
v 7.43 10 -60.95
v 5.405 10 -62.325
v 6.178 10 -61.775
v 3.783 10 -63.544
v 4.592 10 -62.925
v 2.005 10 -64.978
v 3.02 10 -64.15
v 0.821 10 -66.018
v 1.289 10 -65.583
v 0.441 10 -66.571
v 0.555 10 -66.33
v 0.449 10 -66.986
v 0.43 10 -66.79
v 0.51 10 -69
v 1.99 10 -70.83
v 0.53 10 -70.7
v 5.17 10 -69.9
v 3.45 10 -70.97
v 6.89 10 -68.85
v 9.42 10 -69.41
v 8.15 10 -69.13
v 12.274 10 -68.453
v 11.67 10 -68.66
v 13.319 10 -68.06
v 12.832 10 -68.25
v 13.986 10 -67.76
v 13.711 10 -67.893
v 14.174 10 -67.556
v 14.12 10 -67.67
v 14.32 10 -67.129
v 14.243 10 -67.371
v 14.479 10 -66.525
v 14.401 10 -66.843
v 15.02 10 -64.96
v 15.555 10 -64.909
v 15.187 10 -64.947
v 16.761 10 -64.778
v 16.091 10 -64.851
v 18.37 10 -64.6
v 17.532 10 -64.693
v 20.244 10 -64.353
v 19.398 10 -64.474
v 21.449 10 -64.117
v 20.923 10 -64.235
v 22.11 10 -63.87
v 21.84 10 -63.996
v 22.508 10 -63.638
v 22.296 10 -63.763
v 22.962 10 -63.366
v 22.734 10 -63.502
v 23.181 10 -63.235
v 24.06 10 -62.71
v 23.38 10 -63.12
v 24.871 10 -67.672
v 24.64 10 -66.32
v 25.259 10 -69.584
v 25.07 10 -68.733
v 25.696 10 -70.986
v 25.46 10 -70.307
v 26.29 10 -72.36
v 25.99 10 -71.7
v 26.849 10 -73.374
v 26.568 10 -72.905
v 27.524 10 -74.238
v 27.159 10 -73.805
v 28.482 10 -75.214
v 27.97 10 -74.71
v 29.235 10 -75.817
v 28.881 10 -75.57
v 30.068 10 -76.135
v 29.609 10 -75.993
v 31.734 10 -77.635
v 31 10 -79.26
v 31.58 10 -77.97
v 31.976 10 -80.071
v 31.77 10 -79.9
v 32.054 10 -81.527
v 31.673 10 -82.105
v 31.88 10 -81.77
v 31.147 10 -83.156
v 31.424 10 -82.577
v 30.575 10 -84.504
v 30.859 10 -83.809
v 29.921 10 -86.273
v 30.31 10 -85.21
v 29.51 10 -87.624
v 29.662 10 -87.042
v 29.445 10 -88.651
v 29.445 10 -88.125
v 28.743 10 -96.784
v 28.59 10 -97.87
v 28.7 10 -97.08
v 31.26 10 -98.93
v 36.47 10 -99.68
v 33.94 10 -100
v 37.824 10 -99.509
v 37.161 10 -99.594
v 38.946 10 -99.361
v 38.429 10 -99.43
v 39.6 10 -99.27
v 39.347 10 -99.306
v 40.113 10 -99.043
v 39.837 10 -99.199
v 40.857 10 -98.41
v 40.446 10 -98.786
v 41.99 10 -97.23
v 41.365 10 -97.897
v 44.09 10 -93.39
v 43.79 10 -95.28
v 43.13 10 -90.25
v 44.39 10 -91.5
v 43.53 10 -86.77
v 45.792 10 -86.111
v 44.906 10 -86.382
v 46.631 10 -85.586
v 46.322 10 -85.874
v 47.12 10 -84.52
v 46.853 10 -85.162
v 47.74 10 -83.11
v 54.66 10 -81.79
v 51.59 10 -83.11
v 56.317 10 -81.069
v 55.5 10 -81.424
v 58.251 10 -80.229
v 58.938 10 -79.919
v 58.6 10 -80.08
v 59.411 10 -79.56
v 59.199 10 -79.756
v 59.795 10 -78.948
v 59.601 10 -79.301
v 60.58 10 -77.22
v 60.02 10 -78.47
v 64.77 10 -77.63
v 66.2 10 -81.95
v 64.83 10 -79.46
v 66.7 10 -86.15
v 66.273 10 -86.753
v 66.475 10 -86.463
v 65.973 10 -87.211
v 66.104 10 -87.006
v 65.86 10 -87.42
v 65.89 10 -87.353
v 66.093 10 -87.744
v 65.921 10 -87.517
v 66.7 10 -88.502
v 66.359 10 -88.08
v 67.54 10 -89.52
v 67.1 10 -88.989
v 68.725 10 -90.881
v 68.224 10 -90.325
v 69.399 10 -91.439
v 69.098 10 -91.236
v 70.01 10 -91.58
v 69.684 10 -91.538
v 70.78 10 -91.63
v 71.508 10 -93.654
v 71.34 10 -93.22
v 71.861 10 -94.43
v 71.684 10 -94.063
v 72.178 10 -94.966
v 72.029 10 -94.737
v 72.806 10 -95.443
v 72.3 10 -95.1
v 74.244 10 -96.342
v 73.494 10 -95.881
v 75.452 10 -97.036
v 74.936 10 -96.752
v 75.723 10 -97.043
v 75.67 10 -97.12
v 75.993 10 -96.546
v 75.833 10 -96.846
v 76.416 10 -95.719
v 76.19 10 -96.164
v 76.66 10 -95.23
v 76.6 10 -90.17
v 77.6 10 -93.39
v 75.479 10 -86.45
v 75.289 10 -85.806
v 75.39 10 -86.11
v 74.969 10 -85.202
v 75.152 10 -85.508
v 74.431 10 -84.525
v 74.731 10 -84.879
v 72.95 10 -82.98
v 74.06 10 -84.13
v 73.01 10 -76.79
v 73.634 10 -76.954
v 73.21 10 -76.848
v 75.006 10 -77.273
v 74.245 10 -77.099
v 76.83 10 -77.67
v 75.88 10 -77.467
v 84.48 10 -79.54
v 88.75 10 -79.95
v 88.6 10 -80.63
v 88.803 10 -79.433
v 88.805 10 -79.663
v 88.527 10 -78.96
v 88.719 10 -79.214
v 87.72 10 -78.17
v 88.203 10 -78.628
v 85.419 10 -75.942
v 83.96 10 -74.52
v 84.686 10 -75.226
v 81.38 10 -71.98
v 81.044 10 -70.217
v 81.12 10 -70.59
v 80.896 10 -69.584
v 80.968 10 -69.877
v 80.779 10 -69.187
v 80.832 10 -69.349
v 80.586 10 -69.081
v 80.74 10 -69.11
v 79.636 10 -69.033
v 80.206 10 -69.055
v 78.063 10 -69.004
v 78.91 10 -69.015
v 77.13 10 -69
v 71.7 10 -69.82
v 73.63 10 -68.98
v 71.868 10 -68.63
v 73.742 10 -67.711
v 72.75 10 -68.2
v 76.025 10 -66.542
v 74.855 10 -67.148
v 78.281 10 -65.34
v 77.189 10 -65.929
v 79.24 10 -64.81
v 81.103 10 -63.779
v 80.154 10 -64.305
v 82.917 10 -62.771
v 82.04 10 -63.259
v 84.3 10 -62
v 83.686 10 -62.342
v 86.803 10 -60.532
v 85.331 10 -61.41
v 91.13 10 -57.871
v 88.731 10 -59.356
v 97.4 10 -53.93
v 94.015 10 -56.066
v 99.52 10 -51.61
v 99.46 10 -52.64
v 95.49 10 -48.48
v 99.57 10 -50.56
v 88.1 10 -46.63
v 91.41 10 -46.41
v 72.982 10 -37.408
v 72.759 10 -36.289
v 72.88 10 -36.88
v 72.339 10 -34.624
v 72.574 10 -35.52
v 71.769 10 -32.648
v 72.066 10 -33.65
v 71.156 10 -30.757
v 71.46 10 -31.67
v 71.623 10 -27.749
v 72.46 10 -27.498
v 72.04 10 -27.63
v 73.186 10 -27.234
v 72.847 10 -27.364
v 73.649 10 -27.007
v 73.459 10 -27.113
v 73.803 10 -26.808
v 73.74 10 -26.92
v 74.019 10 -26.35
v 73.898 10 -26.612
v 74.311 10 -25.692
v 74.159 10 -26.038
v 74.678 10 -24.806
v 74.47 10 -25.33
v 74.957 10 -23.834
v 74.838 10 -24.322
v 75.11 10 -22.658
v 75.046 10 -23.294
v 75.27 10 -19.81
v 75.16 10 -21.88
v 83.83 10 -5.05
v 85.42 10 -3.16
v 85.27 10 -5.05
v 85.473 10 -2.201
v 85.451 10 -2.659
v 85.487 10 -1.493
v 85.485 10 -1.805
v 85.46 10 -1.2
v 85.479 10 -1.284
v 84.913 10 -1.132
v 85.302 10 -1.168
v 83.577 10 -1.058
v 84.326 10 -1.095
v 81.73 10 -0.99
v 82.7 10 -1.022
v 79.296 10 -0.945
v 80.372 10 -0.956
v 77.694 10 -1.011
v 78.429 10 -0.963
v 76.32 10 -1.22
v 77.016 10 -1.096
v 75.411 10 -1.408
v 75.847 10 -1.315
v 74.725 10 -1.572
v 75.031 10 -1.495
v 74.41 10 -1.68
v 74.512 10 -1.635
v 74.313 10 -2.053
v 74.365 10 -1.794
v 74.197 10 -2.907
v 74.256 10 -2.431
v 74.08 10 -4.06
v 74.137 10 -3.458
v 73.989 10 -5.533
v 74.019 10 -4.894
v 74.021 10 -6.4
v 73.989 10 -6.021
v 74.19 10 -7
v 74.088 10 -6.712
v 67.79 10 -16.38
v 65.41 10 -18.27
v 66.63 10 -16.51
v 64.4 10 -21.62
v 64.19 10 -20.03
v 53.265 10 -19.019
v 49.165 10 -17.127
v 51 10 -17.97
v 46.085 10 -15.751
v 47.504 10 -16.377
v 44.245 10 -14.992
v 44.976 10 -15.28
v 43.813 10 -15.291
v 43.96 10 -14.92
v 42.94 10 -17.772
v 43.462 10 -16.273
v 41.507 10 -21.954
v 42.278 10 -19.697
v 37.5 10 -33.83
v 40.66 10 -24.45
v 36.455 10 -32.664
v 36.73 10 -32.97
v 32.67 10 -23.29
v 31.3 10 -19.51
v 33.16 10 -22.35
v 28.23 10 -16.77
v 29.45 10 -16.66
v 26.75 10 -16.17
v 26.424 10 -15.29
v 26.633 10 -15.84
v 25.803 10 -13.694
v 26.141 10 -14.56
v 25.426 10 -12.733
v 23.55 10 -7.99
v 25.03 10 -11.72
v 24.9 10 -5.6
v 24.23 10 -6.8
v 24.166 10 -2.778
v 24.32 10 -3.37
v 23.761 10 -1.154
v 23.707 10 -1.019
v 23.74 10 -1.05
v 23.469 10 -0.904
v 23.614 10 -0.969
v 23.054 10 -0.745
v 23.279 10 -0.828
v 21.89 10 -0.36
v 22.8 10 -0.66
v 20.535 10 -1.787
v 20.82 10 -1.48
v 18.07 10 -1.31
v 13.52 10 -0.04
v 16.66 10 0
v 11.688 10 -0.068
v 12.619 10 -0.052
v 10.775 10 -0.085
v 25.605 10 -29.454
v 36.013 10 -54.041
v 32.89 10 -60.6
v 16.153 10 -55.949
v 0.503 10 -68.529
v 14.55 10 -66.19
v 30.68 10 -76.28
v 31.873 10 -77.328
v 32.211 10 -81.295
v 29.49 10 -89.31
v 28.807 10 -96.329
v 57.73 10 -80.454
v 64.747 10 -77.147
v 76.324 10 -89.284
v 75.628 10 -86.976
v 83.264 10 -79.223
v 87.311 10 -77.78
v 86.125 10 -76.63
v 84.77 10 -46.86
v 71.243 10 -27.863
v 74.49 10 -7.71
v 68.95 10 -16.25
v 64.451 10 -22.047
v 32.476 10 -23.675
v 27.02 10 -16.89
v 23.819 10 -1.403
v 18.442 10 -1.654
v 24.642 10 -28.373
v 25.592 10 -29.007
v 36.236 10 -54.236
v 30.679 10 -61.413
v 22.462 10 -56.105
v 20.531 10 -55.933
v 0.466 10 -67.279
v 0.494 10 -68.071
v 31.067 10 -76.373
v 28.889 10 -95.749
v 42.806 10 -89.914
v 43.159 10 -86.885
v 57.072 10 -80.74
v 64.719 10 -76.711
v 66.925 10 -85.832
v 81.926 10 -78.884
v 71.073 10 -69.027
v 73.113 10 -37.999
v 70.891 10 -29.931
v 81.17 10 -9.02
v 32.338 10 -24.022
v 24.027 10 -2.237
v 23.91 10 -1.771
v 18.79 10 -1.965
v 25.571 10 -28.629
v 32.569 10 -61.312
v 22.002 10 -56.307
v 20.715 10 -56.255
v 10.993 10 -59.804
v 0.481 10 -67.647
v 31.419 10 -76.459
v 31.99 10 -77.064
v 32.345 10 -81.085
v 29.512 10 -89.877
v 64.689 10 -76.341
v 76.062 10 -88.431
v 75.826 10 -87.649
v 77.917 10 -77.916
v 80.539 10 -78.541
v 86.767 10 -77.255
v 70.915 10 -27.965
v 80.231 10 -10.456
v 64.491 10 -22.436
v 55.267 10 -19.921
v 32.246 10 -24.378
v 19.096 10 -2.231
v 25.545 10 -28.336
v 36.371 10 -54.432
v 32.273 10 -61.952
v 31.036 10 -62.169
v 21.608 10 -56.476
v 20.863 10 -56.503
v 14.621 10 -65.862
v 32.081 10 -76.855
v 32.449 10 -80.909
v 29.506 10 -90.487
v 28.983 10 -95.078
v 42.511 10 -89.586
v 42.875 10 -86.999
v 64.657 10 -76.055
v 67.124 10 -85.528
v 79.178 10 -78.213
v 70.399 10 -69.376
v 81.26 10 -45.98
v 73.264 10 -38.621
v 70.653 10 -28.051
v 64.519 10 -22.772
v 57.033 10 -20.69
v 32.192 10 -24.788
v 19.347 10 -2.438
v 11.664 10 -5.534
v 24.959 10 -28.253
v 25.514 10 -28.147
v 32.016 10 -62.494
v 31.321 10 -62.754
v 21.298 10 -56.607
v 20.964 10 -56.663
v 11.446 10 -59.577
v 14.701 10 -65.567
v 31.72 10 -76.534
v 32.139 10 -76.716
v 29.085 10 -94.35
v 42.26 10 -89.283
v 42.658 10 -87.125
v 64.627 10 -75.872
v 67.293 10 -85.251
v 70.988 10 -70.117
v 73.427 10 -39.241
v 79.432 10 -11.725
v 64.533 10 -23.041
v 58.586 10 -21.335
v 32.167 10 -25.3
v 19.527 10 -2.572
v 11.968 10 -5.697
v 25.214 10 -28.16
v 31.81 10 -62.911
v 31.515 10 -63.133
v 21.093 10 -56.69
v 21.01 10 -56.72
v 12.09 10 -59.136
v 31.954 10 -76.595
v 32.16 10 -76.66
v 32.516 10 -80.776
v 29.19 10 -93.6
v 42.066 10 -89.021
v 66.553 10 -82.62
v 67.422 10 -85.015
v 69.877 10 -69.659
v 70.674 10 -29.224
v 70.473 10 -28.114
v 78.735 10 -12.893
v 64.53 10 -23.225
v 32.16 10 -25.96
v 20.269 10 -2.06
v 19.62 10 -2.62
v 12.3 10 -5.949
v 25.393 10 -28.101
v 31.667 10 -63.178
v 31.6 10 -63.27
v 32.106 10 -76.638
v 32.161 10 -80.239
v 32.54 10 -80.7
v 29.314 10 -92.695
v 41.941 10 -88.818
v 66.874 10 -83.244
v 67.507 10 -84.834
v 72.84 10 -79.84
v 69.54 10 -69.859
v 70.512 10 -28.669
v 70.39 10 -28.15
v 78.105 10 -14.021
v 71.72 10 -11.98
v 59.953 10 -21.868
v 32.16 10 -27.7
v 20.032 10 -2.29
v 25.48 10 -28.08
v 15.302 10 -56.622
v 13.042 10 -58.407
v 32.316 10 -80.394
v 29.471 10 -91.151
v 29.408 10 -91.883
v 41.9 10 -88.69
v 67.147 10 -83.792
v 67.54 10 -84.72
v 72.805 10 -78.66
v 72.908 10 -76.795
v 69.42 10 -69.96
v 76.9 10 -16.42
v 77.505 10 -15.176
v 61.16 10 -22.3
v 19.838 10 -2.467
v 12.695 10 -6.32
v 17.58 10 -13.31
v 14.42 10 -57.32
v 32.436 10 -80.528
v 67.359 10 -84.24
v 72.839 10 -76.934
v 77.75 10 -45.1
v 64.51 10 -23.31
v 62.03 10 -22.587
v 19.696 10 -2.58
v 14.785 10 -65.316
v 32.513 10 -80.633
v 67.495 10 -84.558
v 72.801 10 -77.257
v 76.04 10 -43.56
v 62.82 10 -22.842
v 13.19 10 -6.84
v 14.869 10 -65.123
v 41.912 10 -88.576
v 72.791 10 -77.816
v 75.338 10 -42.915
v 63.495 10 -23.052
v 14.949 10 -65
v 64.6 10 -75.81
v 74.844 10 -42.425
v 70.414 10 -28.3
v 64.024 10 -23.208
v 34.05 10 -29.9
v 74.499 10 -42.006
v 64.373 10 -23.298
v 34.583 10 -30.518
v 41.945 10 -88.432
v 64.505 10 -75.84
v 74.242 10 -41.575
v 35.116 10 -31.134
v 41.996 10 -88.265
v 64.284 10 -75.914
v 74.016 10 -41.047
v 73.596 10 -39.825
v 35.623 10 -31.716
v 63.958 10 -76.025
v 73.76 10 -40.34
v 36.077 10 -32.236
v 63.546 10 -76.166
v 36.47 10 -55.5
v 63.07 10 -76.33
v 69.422 10 -70.006
v 36.466 10 -55.017
v 62.55 10 -76.51
v 13.82 10 -7.54
v 36.441 10 -54.677
v 69.438 10 -70.069
v 14.494 10 -8.31
v 42.061 10 -88.085
v 69.465 10 -70.145
v 15.059 10 -9.02
v 42.137 10 -87.9
v 70.46 10 -70.323
v 69.502 10 -70.227
v 15.584 10 -9.772
v 42.22 10 -87.72
v 70.088 10 -70.446
v 69.548 10 -70.311
v 16.134 10 -10.67
v 42.349 10 -87.472
v 69.84 10 -70.493
v 69.6 10 -70.39
v 16.777 10 -11.815
v 42.489 10 -87.278
v 69.688 10 -70.472
f 1 2 3
f 4 1 5
f 6 4 7
f 8 6 9
f 10 8 11
f 12 10 13
f 14 12 15
f 16 14 17
f 18 16 19
f 20 18 21
f 22 23 24
f 25 22 26
f 27 25 28
f 29 27 30
f 31 29 32
f 33 31 34
f 35 33 36
f 37 35 38
f 39 37 40
f 41 39 42
f 43 44 45
f 46 47 48
f 49 50 51
f 52 49 53
f 54 52 55
f 56 57 58
f 59 56 60
f 61 59 62
f 63 64 65
f 66 63 67
f 68 66 69
f 70 68 71
f 72 70 73
f 74 72 75
f 76 77 78
f 79 80 81
f 82 79 83
f 84 82 85
f 86 87 88
f 89 86 90
f 91 89 92
f 93 91 94
f 95 93 96
f 97 95 98
f 99 97 100
f 101 99 102
f 103 101 104
f 105 103 106
f 107 108 109
f 110 107 111
f 112 113 114
f 115 112 116
f 117 115 118
f 119 117 120
f 121 119 122
f 123 121 124
f 125 123 126
f 127 128 129
f 130 127 131
f 132 130 133
f 134 132 135
f 136 134 137
f 138 136 139
f 140 138 141
f 142 140 143
f 144 145 146
f 147 144 148
f 149 147 150
f 151 149 152
f 153 151 154
f 155 153 156
f 157 155 158
f 159 157 160
f 161 159 162
f 163 161 164
f 165 166 167
f 168 165 169
f 170 171 172
f 173 170 174
f 175 173 176
f 177 175 178
f 179 177 180
f 181 179 182
f 183 184 185
f 186 187 188
f 189 186 190
f 191 189 192
f 193 191 194
f 195 193 196
f 197 195 198
f 199 197 200
f 201 199 202
f 203 201 204
f 205 206 207
f 208 205 209
f 210 208 211
f 212 213 214
f 215 212 216
f 217 218 219
f 220 217 221
f 222 220 223
f 224 222 225
f 226 227 228
f 229 230 231
f 232 229 233
f 234 232 235
f 236 234 237
f 238 236 239
f 240 238 241
f 242 240 243
f 244 242 245
f 246 244 247
f 248 249 250
f 251 248 252
f 253 251 254
f 255 253 256
f 257 255 258
f 259 257 260
f 261 259 262
f 263 261 264
f 265 263 266
f 267 268 269
f 270 271 272
f 273 270 274
f 275 273 276
f 277 275 278
f 279 280 281
f 282 279 283
f 284 282 285
f 286 287 288
f 289 286 290
f 291 289 292
f 293 291 294
f 295 296 297
f 298 299 300
f 301 298 302
f 303 301 304
f 305 303 306
f 307 305 308
f 309 307 310
f 311 312 313
f 314 315 316
f 317 314 318
f 319 317 320
f 321 322 323
f 324 321 325
f 326 324 327
f 328 326 329
f 330 328 331
f 332 330 333
f 334 332 335
f 336 334 337
f 338 336 339
f 340 341 342
f 343 340 344
f 345 343 346
f 347 345 348
f 349 350 351
f 352 349 353
f 354 352 355
f 356 354 357
f 358 356 359
f 360 358 361
f 362 360 363
f 364 362 365
f 366 364 367
f 368 366 369
f 370 371 372
f 373 370 374
f 375 373 376
f 377 375 378
f 379 377 380
f 381 379 382
f 383 381 384
f 385 383 386
f 387 385 388
f 389 387 390
f 391 389 392
f 393 391 394
f 395 393 396
f 397 395 398
f 399 397 400
f 401 399 402
f 403 401 404
f 405 403 406
f 407 405 408
f 409 410 411
f 412 409 413
f 414 415 416
f 417 414 418
f 419 417 420
f 421 419 422
f 423 421 424
f 425 423 426
f 427 425 428
f 429 427 430
f 431 432 433
f 434 431 435
f 436 437 438
f 439 436 440
f 441 442 443
f 444 441 445
f 446 444 447
f 448 449 450
f 451 448 452
f 453 451 454
f 455 453 456
f 457 455 458
f 459 460 461
f 462 459 463
f 2 462 464
f 4 2 1
f 8 4 6
f 12 8 10
f 16 12 14
f 20 16 18
f 25 23 22
f 29 25 27
f 33 29 31
f 37 33 35
f 41 37 39
f 43 465 44
f 50 47 46
f 52 50 49
f 466 52 54
f 59 57 56
f 467 59 61
f 66 64 63
f 70 66 68
f 74 70 72
f 76 74 77
f 82 80 79
f 468 82 84
f 89 87 86
f 93 89 91
f 97 93 95
f 101 97 99
f 105 101 103
f 107 469 108
f 113 107 110
f 115 113 112
f 119 115 117
f 123 119 121
f 470 123 125
f 130 128 127
f 134 130 132
f 138 134 136
f 142 138 140
f 144 142 145
f 149 144 147
f 153 149 151
f 157 153 155
f 161 157 159
f 471 161 163
f 165 472 166
f 170 473 171
f 175 170 173
f 179 175 177
f 474 179 181
f 183 475 184
f 186 183 187
f 191 186 189
f 195 191 193
f 199 195 197
f 203 199 201
f 208 206 205
f 213 208 210
f 215 213 212
f 217 476 218
f 222 217 220
f 226 477 227
f 232 230 229
f 236 232 234
f 240 236 238
f 244 240 242
f 249 244 246
f 251 249 248
f 255 251 253
f 259 255 257
f 263 259 261
f 268 263 265
f 478 268 267
f 270 479 271
f 275 270 273
f 282 280 279
f 286 480 287
f 291 286 289
f 481 291 293
f 295 482 296
f 301 299 298
f 305 301 303
f 309 305 307
f 311 309 312
f 317 315 314
f 322 317 319
f 324 322 321
f 328 324 326
f 332 328 330
f 336 332 334
f 483 336 338
f 343 341 340
f 347 343 345
f 349 484 350
f 354 349 352
f 358 354 356
f 362 358 360
f 366 362 364
f 373 371 370
f 377 373 375
f 381 377 379
f 385 381 383
f 389 385 387
f 393 389 391
f 397 393 395
f 401 397 399
f 405 401 403
f 485 405 407
f 409 486 410
f 487 409 412
f 417 415 414
f 421 417 419
f 425 421 423
f 431 488 432
f 489 431 434
f 439 437 436
f 441 439 442
f 446 441 444
f 448 490 449
f 453 448 451
f 457 453 455
f 459 491 460
f 2 459 462
f 8 2 4
f 16 8 12
f 29 23 25
f 37 29 33
f 492 37 41
f 43 493 465
f 52 47 50
f 494 52 466
f 467 57 59
f 66 495 64
f 74 66 70
f 496 74 76
f 82 497 80
f 93 87 89
f 101 93 97
f 498 101 105
f 107 499 469
f 119 113 115
f 470 119 123
f 134 128 130
f 142 134 138
f 153 144 149
f 161 153 157
f 500 161 471
f 168 472 165
f 175 473 170
f 474 175 179
f 183 501 475
f 191 183 186
f 199 191 195
f 502 199 203
f 208 503 206
f 504 213 215
f 217 504 476
f 224 217 222
f 226 505 477
f 232 506 230
f 240 232 236
f 249 240 244
f 255 249 251
f 263 255 259
f 478 263 268
f 275 479 270
f 284 280 282
f 286 507 480
f 481 286 291
f 305 299 301
f 311 305 309
f 317 508 315
f 324 317 322
f 332 324 328
f 483 332 336
f 343 509 341
f 510 343 347
f 354 484 349
f 362 354 358
f 368 362 366
f 373 511 371
f 381 373 377
f 389 381 385
f 397 389 393
f 405 397 401
f 487 486 409
f 421 415 417
f 427 421 425
f 431 512 488
f 439 489 437
f 513 441 446
f 448 514 490
f 457 448 453
f 459 515 491
f 8 459 2
f 20 8 16
f 37 23 29
f 43 516 493
f 494 47 52
f 517 57 467
f 74 495 66
f 518 74 496
f 82 519 497
f 93 520 87
f 498 93 101
f 107 521 499
f 470 113 119
f 142 128 134
f 161 144 153
f 522 161 500
f 168 523 472
f 175 524 473
f 525 175 474
f 191 501 183
f 502 191 199
f 213 503 208
f 217 213 504
f 226 526 505
f 240 506 232
f 263 249 255
f 527 263 478
f 275 528 479
f 529 280 284
f 286 530 507
f 531 286 481
f 311 299 305
f 324 508 317
f 483 324 332
f 510 509 343
f 354 532 484
f 368 354 362
f 373 533 511
f 389 373 381
f 405 389 397
f 534 486 487
f 421 535 415
f 431 536 512
f 441 489 439
f 514 441 513
f 457 514 448
f 459 537 515
f 20 459 8
f 492 23 37
f 43 538 516
f 539 47 494
f 540 57 517
f 74 541 495
f 542 74 518
f 82 543 519
f 498 520 93
f 107 498 521
f 544 113 470
f 144 128 142
f 522 144 161
f 168 545 523
f 175 546 524
f 547 175 525
f 191 548 501
f 549 191 502
f 213 550 503
f 224 213 217
f 226 551 526
f 240 552 506
f 527 249 263
f 275 527 528
f 286 553 530
f 482 286 531
f 311 295 299
f 324 554 508
f 555 324 483
f 510 556 509
f 354 557 532
f 389 533 373
f 485 389 405
f 558 486 534
f 421 559 535
f 431 560 536
f 457 441 514
f 459 561 537
f 562 459 20
f 563 23 492
f 43 564 538
f 565 57 540
f 74 566 541
f 567 74 542
f 82 568 543
f 498 569 520
f 113 498 107
f 570 113 544
f 571 144 522
f 168 572 545
f 547 546 175
f 191 573 548
f 574 191 549
f 213 575 550
f 226 576 551
f 240 577 552
f 527 240 249
f 277 527 275
f 286 529 553
f 295 286 482
f 578 295 311
f 555 554 324
f 510 579 556
f 368 557 354
f 389 580 533
f 581 486 558
f 421 582 559
f 431 583 560
f 457 489 441
f 459 584 561
f 585 459 562
f 586 23 563
f 47 564 43
f 587 57 565
f 74 588 566
f 589 74 567
f 82 590 568
f 498 591 569
f 570 498 113
f 592 144 571
f 168 593 572
f 547 594 546
f 191 595 573
f 596 191 574
f 597 576 226
f 240 598 577
f 277 240 527
f 286 280 529
f 578 286 295
f 555 599 554
f 600 579 510
f 368 601 557
f 389 602 580
f 603 486 581
f 427 582 421
f 431 604 583
f 605 489 457
f 459 606 584
f 607 459 585
f 608 23 586
f 539 564 47
f 609 57 587
f 74 610 588
f 590 74 589
f 468 590 82
f 570 591 498
f 611 144 592
f 612 593 168
f 547 613 594
f 191 614 595
f 615 191 596
f 616 576 597
f 240 617 598
f 618 240 277
f 578 280 286
f 555 619 599
f 620 579 600
f 368 621 601
f 389 622 602
f 603 623 486
f 427 624 582
f 431 625 604
f 626 489 605
f 607 606 459
f 627 23 608
f 610 57 609
f 590 610 74
f 628 590 468
f 570 629 591
f 593 144 611
f 630 593 612
f 631 613 547
f 191 632 614
f 633 191 615
f 634 576 616
f 240 635 617
f 636 240 618
f 578 637 280
f 555 638 619
f 639 621 368
f 389 640 622
f 603 485 623
f 427 641 624
f 489 625 431
f 642 489 626
f 643 606 607
f 627 644 23
f 628 610 590
f 570 645 629
f 646 593 630
f 632 613 631
f 633 632 191
f 647 576 634
f 636 635 240
f 578 648 637
f 649 638 555
f 640 621 639
f 485 640 389
f 650 485 603
f 427 651 641
f 642 625 489
f 643 652 606
f 645 610 628
f 653 645 570
f 654 593 646
f 633 613 632
f 655 576 647
f 636 655 635
f 578 656 648
f 657 638 649
f 485 621 640
f 427 658 651
f 652 625 642
f 659 652 643
f 660 645 653
f 613 593 654
f 661 613 633
f 636 576 655
f 578 662 656
f 663 638 657
f 650 621 485
f 427 664 658
f 659 625 652
f 665 645 660
f 661 593 613
f 636 666 576
f 578 636 662
f 667 638 663
f 650 668 621
f 427 669 664
f 659 670 625
f 128 645 665
f 661 144 593
f 578 666 636
f 671 638 667
f 650 620 668
f 427 672 669
f 659 673 670
f 144 645 128
f 674 144 661
f 578 675 666
f 676 638 671
f 650 579 620
f 427 650 672
f 659 677 673
f 144 610 645
f 678 144 674
f 578 679 675
f 680 638 676
f 650 681 579
f 659 682 677
f 678 610 144
f 578 683 679
f 684 638 680
f 650 684 681
f 659 685 682
f 678 57 610
f 578 686 683
f 650 638 684
f 659 429 685
f 678 687 57
f 578 688 686
f 650 689 638
f 659 427 429
f 678 690 687
f 578 691 688
f 427 689 650
f 692 427 659
f 678 693 690
f 578 224 691
f 427 694 689
f 695 427 692
f 696 693 678
f 578 213 224
f 427 697 694
f 698 427 695
f 699 693 696
f 700 213 578
f 427 701 697
f 702 427 698
f 703 693 699
f 704 213 700
f 427 705 701
f 706 427 702
f 707 693 703
f 708 213 704
f 427 709 705
f 710 427 706
f 711 693 707
f 712 213 708
f 710 709 427
f 575 693 711
f 709 213 712
f 644 709 710
f 213 693 575
f 627 709 644
f 213 539 693
f 564 709 627
f 709 539 213
f 539 709 564
f 713 714 715
f 714 716 717
f 716 718 719
f 718 720 721
f 720 722 723
f 722 724 725
f 724 726 727
f 726 728 729
f 728 730 731
f 730 732 733
f 734 735 736
f 735 737 738
f 737 739 740
f 739 741 742
f 741 743 744
f 743 745 746
f 745 747 748
f 747 749 750
f 749 751 752
f 751 753 754
f 755 756 757
f 758 759 760
f 761 762 763
f 762 764 765
f 764 766 767
f 768 769 770
f 769 771 772
f 771 773 774
f 775 776 777
f 776 778 779
f 778 780 781
f 780 782 783
f 782 784 785
f 784 786 787
f 788 789 790
f 791 792 793
f 792 794 795
f 794 796 797
f 798 799 800
f 799 801 802
f 801 803 804
f 803 805 806
f 805 807 808
f 807 809 810
f 809 811 812
f 811 813 814
f 813 815 816
f 815 817 818
f 819 820 821
f 820 822 823
f 824 825 826
f 825 827 828
f 827 829 830
f 829 831 832
f 831 833 834
f 833 835 836
f 835 837 838
f 839 840 841
f 840 842 843
f 842 844 845
f 844 846 847
f 846 848 849
f 848 850 851
f 850 852 853
f 852 854 855
f 856 857 858
f 857 859 860
f 859 861 862
f 861 863 864
f 863 865 866
f 865 867 868
f 867 869 870
f 869 871 872
f 871 873 874
f 873 875 876
f 877 878 879
f 878 880 881
f 882 883 884
f 883 885 886
f 885 887 888
f 887 889 890
f 889 891 892
f 891 893 894
f 895 896 897
f 898 899 900
f 899 901 902
f 901 903 904
f 903 905 906
f 905 907 908
f 907 909 910
f 909 911 912
f 911 913 914
f 913 915 916
f 917 918 919
f 918 920 921
f 920 922 923
f 924 925 926
f 925 927 928
f 929 930 931
f 930 932 933
f 932 934 935
f 934 936 937
f 938 939 940
f 941 942 943
f 942 944 945
f 944 946 947
f 946 948 949
f 948 950 951
f 950 952 953
f 952 954 955
f 954 956 957
f 956 958 959
f 960 961 962
f 961 963 964
f 963 965 966
f 965 967 968
f 967 969 970
f 969 971 972
f 971 973 974
f 973 975 976
f 975 977 978
f 979 980 981
f 982 983 984
f 983 985 986
f 985 987 988
f 987 989 990
f 991 992 993
f 992 994 995
f 994 996 997
f 998 999 1000
f 999 1001 1002
f 1001 1003 1004
f 1003 1005 1006
f 1007 1008 1009
f 1010 1011 1012
f 1011 1013 1014
f 1013 1015 1016
f 1015 1017 1018
f 1017 1019 1020
f 1019 1021 1022
f 1023 1024 1025
f 1026 1027 1028
f 1027 1029 1030
f 1029 1031 1032
f 1033 1034 1035
f 1034 1036 1037
f 1036 1038 1039
f 1038 1040 1041
f 1040 1042 1043
f 1042 1044 1045
f 1044 1046 1047
f 1046 1048 1049
f 1048 1050 1051
f 1052 1053 1054
f 1053 1055 1056
f 1055 1057 1058
f 1057 1059 1060
f 1061 1062 1063
f 1062 1064 1065
f 1064 1066 1067
f 1066 1068 1069
f 1068 1070 1071
f 1070 1072 1073
f 1072 1074 1075
f 1074 1076 1077
f 1076 1078 1079
f 1078 1080 1081
f 1082 1083 1084
f 1083 1085 1086
f 1085 1087 1088
f 1087 1089 1090
f 1089 1091 1092
f 1091 1093 1094
f 1093 1095 1096
f 1095 1097 1098
f 1097 1099 1100
f 1099 1101 1102
f 1101 1103 1104
f 1103 1105 1106
f 1105 1107 1108
f 1107 1109 1110
f 1109 1111 1112
f 1111 1113 1114
f 1113 1115 1116
f 1115 1117 1118
f 1117 1119 1120
f 1121 1122 1123
f 1122 1124 1125
f 1126 1127 1128
f 1127 1129 1130
f 1129 1131 1132
f 1131 1133 1134
f 1133 1135 1136
f 1135 1137 1138
f 1137 1139 1140
f 1139 1141 1142
f 1143 1144 1145
f 1144 1146 1147
f 1148 1149 1150
f 1149 1151 1152
f 1153 1154 1155
f 1154 1156 1157
f 1156 1158 1159
f 1160 1161 1162
f 1161 1163 1164
f 1163 1165 1166
f 1165 1167 1168
f 1167 1169 1170
f 1171 1172 1173
f 1172 1174 1175
f 1174 713 1176
f 713 716 714
f 716 720 718
f 720 724 722
f 724 728 726
f 728 732 730
f 734 737 735
f 737 741 739
f 741 745 743
f 745 749 747
f 749 753 751
f 1177 756 755
f 758 761 759
f 761 764 762
f 764 1178 766
f 768 771 769
f 771 1179 773
f 775 778 776
f 778 782 780
f 782 786 784
f 786 789 788
f 791 794 792
f 794 1180 796
f 798 801 799
f 801 805 803
f 805 809 807
f 809 813 811
f 813 817 815
f 1181 820 819
f 820 824 822
f 824 827 825
f 827 831 829
f 831 835 833
f 835 1182 837
f 839 842 840
f 842 846 844
f 846 850 848
f 850 854 852
f 854 857 856
f 857 861 859
f 861 865 863
f 865 869 867
f 869 873 871
f 873 1183 875
f 1184 878 877
f 1185 883 882
f 883 887 885
f 887 891 889
f 891 1186 893
f 1187 896 895
f 896 899 898
f 899 903 901
f 903 907 905
f 907 911 909
f 911 915 913
f 917 920 918
f 920 924 922
f 924 927 925
f 1188 930 929
f 930 934 932
f 1189 939 938
f 941 944 942
f 944 948 946
f 948 952 950
f 952 956 954
f 956 960 958
f 960 963 961
f 963 967 965
f 967 971 969
f 971 975 973
f 975 979 977
f 979 1190 980
f 1191 983 982
f 983 987 985
f 991 994 992
f 1192 999 998
f 999 1003 1001
f 1003 1193 1005
f 1194 1008 1007
f 1010 1013 1011
f 1013 1017 1015
f 1017 1021 1019
f 1021 1024 1023
f 1026 1029 1027
f 1029 1033 1031
f 1033 1036 1034
f 1036 1040 1038
f 1040 1044 1042
f 1044 1048 1046
f 1048 1195 1050
f 1052 1055 1053
f 1055 1059 1057
f 1196 1062 1061
f 1062 1066 1064
f 1066 1070 1068
f 1070 1074 1072
f 1074 1078 1076
f 1082 1085 1083
f 1085 1089 1087
f 1089 1093 1091
f 1093 1097 1095
f 1097 1101 1099
f 1101 1105 1103
f 1105 1109 1107
f 1109 1113 1111
f 1113 1117 1115
f 1117 1197 1119
f 1198 1122 1121
f 1122 1199 1124
f 1126 1129 1127
f 1129 1133 1131
f 1133 1137 1135
f 1200 1144 1143
f 1144 1201 1146
f 1148 1151 1149
f 1151 1154 1153
f 1154 1158 1156
f 1202 1161 1160
f 1161 1165 1163
f 1165 1169 1167
f 1203 1172 1171
f 1172 713 1174
f 713 720 716
f 720 728 724
f 734 741 737
f 741 749 745
f 749 1204 753
f 1205 756 1177
f 758 764 761
f 764 1206 1178
f 768 1179 771
f 1207 778 775
f 778 786 782
f 786 1208 789
f 1209 794 791
f 798 805 801
f 805 813 809
f 813 1210 817
f 1211 820 1181
f 824 831 827
f 831 1182 835
f 839 846 842
f 846 854 850
f 857 865 861
f 865 873 869
f 873 1212 1183
f 1184 880 878
f 1185 887 883
f 887 1186 891
f 1213 896 1187
f 896 903 899
f 903 911 907
f 911 1214 915
f 1215 920 917
f 924 1216 927
f 1216 930 1188
f 930 936 934
f 1217 939 1189
f 1218 944 941
f 944 952 948
f 952 960 956
f 960 967 963
f 967 975 971
f 975 1190 979
f 1191 987 983
f 991 996 994
f 1219 999 1192
f 999 1193 1003
f 1010 1017 1013
f 1017 1024 1021
f 1220 1029 1026
f 1029 1036 1033
f 1036 1044 1040
f 1044 1195 1048
f 1221 1055 1052
f 1055 1222 1059
f 1196 1066 1062
f 1066 1074 1070
f 1074 1080 1078
f 1223 1085 1082
f 1085 1093 1089
f 1093 1101 1097
f 1101 1109 1105
f 1109 1117 1113
f 1198 1199 1122
f 1126 1133 1129
f 1133 1139 1137
f 1224 1144 1200
f 1201 1151 1148
f 1154 1225 1158
f 1226 1161 1202
f 1161 1169 1165
f 1227 1172 1203
f 1172 720 713
f 720 732 728
f 734 749 741
f 1228 756 1205
f 758 1206 764
f 768 1229 1179
f 1207 786 778
f 786 1230 1208
f 1231 794 1209
f 1232 805 798
f 805 1210 813
f 1233 820 1211
f 824 1182 831
f 839 854 846
f 857 873 865
f 873 1234 1212
f 1235 880 1184
f 1236 887 1185
f 887 1237 1186
f 1213 903 896
f 903 1214 911
f 1215 924 920
f 924 930 1216
f 1238 939 1217
f 1218 952 944
f 960 975 967
f 975 1239 1190
f 1240 987 1191
f 991 1241 996
f 1242 999 1219
f 999 1243 1193
f 1010 1024 1017
f 1220 1036 1029
f 1036 1195 1044
f 1221 1222 1055
f 1244 1066 1196
f 1066 1080 1074
f 1245 1085 1223
f 1085 1101 1093
f 1101 1117 1109
f 1198 1246 1199
f 1247 1133 1126
f 1248 1144 1224
f 1201 1154 1151
f 1154 1226 1225
f 1226 1169 1161
f 1249 1172 1227
f 1172 732 720
f 734 1204 749
f 1250 756 1228
f 758 1251 1206
f 768 1252 1229
f 1253 786 1207
f 786 1254 1230
f 1255 794 1231
f 1232 1210 805
f 1210 820 1233
f 824 1256 1182
f 839 857 854
f 857 1234 873
f 1257 880 1235
f 1258 887 1236
f 887 1259 1237
f 1260 903 1213
f 903 1261 1214
f 1262 924 1215
f 924 936 930
f 1263 939 1238
f 1264 952 1218
f 960 1239 975
f 1239 987 1240
f 1265 999 1242
f 999 1194 1243
f 1008 1024 1010
f 1266 1036 1220
f 1036 1267 1195
f 1268 1222 1221
f 1269 1066 1244
f 1245 1101 1085
f 1101 1197 1117
f 1198 1270 1246
f 1271 1133 1247
f 1272 1144 1248
f 1154 1169 1226
f 1273 1172 1249
f 1172 1274 732
f 734 1275 1204
f 1276 756 1250
f 768 1277 1252
f 1278 786 1253
f 786 1279 1254
f 1280 794 1255
f 1281 1210 1232
f 1210 824 820
f 824 1282 1256
f 857 1283 1234
f 1284 880 1257
f 1258 1259 887
f 1285 903 1260
f 903 1286 1261
f 1287 924 1262
f 1288 939 1263
f 1289 952 1264
f 952 1239 960
f 1239 989 987
f 1241 999 1265
f 999 1008 1194
f 1008 1290 1024
f 1266 1267 1036
f 1291 1222 1268
f 1269 1080 1066
f 1292 1101 1245
f 1198 1293 1270
f 1294 1133 1271
f 1295 1144 1272
f 1201 1169 1154
f 1296 1172 1273
f 1172 1297 1274
f 734 1298 1275
f 1276 758 756
f 768 1299 1277
f 1300 786 1278
f 786 1301 1279
f 1302 794 1280
f 1303 1210 1281
f 1210 1282 824
f 857 1304 1283
f 1305 880 1284
f 1306 1259 1258
f 1307 903 1285
f 903 1308 1286
f 1288 1309 939
f 1310 952 1289
f 952 989 1239
f 991 999 1241
f 999 1290 1008
f 1311 1267 1266
f 1291 1312 1222
f 1313 1080 1269
f 1314 1101 1292
f 1198 1315 1293
f 1294 1139 1133
f 1316 1144 1295
f 1201 1317 1169
f 1318 1172 1296
f 1172 1319 1297
f 734 1320 1298
f 1276 1251 758
f 768 1321 1299
f 1322 786 1300
f 786 1302 1301
f 1302 1180 794
f 1303 1282 1210
f 857 1323 1304
f 1305 1324 880
f 1325 1259 1306
f 1326 903 1307
f 903 1327 1308
f 1288 1328 1309
f 1329 952 1310
f 952 1330 989
f 991 1290 999
f 1331 1267 1311
f 1291 1332 1312
f 1333 1080 1313
f 1334 1101 1314
f 1335 1315 1198
f 1336 1139 1294
f 1337 1144 1316
f 1201 1338 1317
f 1318 1319 1172
f 734 1339 1320
f 768 1322 1321
f 1322 1302 786
f 1302 1340 1180
f 1341 1282 1303
f 857 1305 1323
f 1305 1342 1324
f 1325 1343 1259
f 1344 903 1326
f 903 1345 1327
f 1288 1346 1328
f 1347 952 1329
f 952 1348 1330
f 1349 1290 991
f 1350 1267 1331
f 1333 1351 1080
f 1352 1101 1334
f 1197 1315 1335
f 1353 1139 1336
f 1337 1201 1144
f 1201 1354 1338
f 1318 1355 1319
f 1356 1339 734
f 1322 1340 1302
f 1357 1282 1341
f 1305 1358 1342
f 1325 1344 1343
f 1344 1345 903
f 1288 1359 1346
f 1347 1348 952
f 1360 1290 1349
f 1350 1361 1267
f 1333 1352 1351
f 1352 1197 1101
f 1197 1362 1315
f 1363 1139 1353
f 1337 1354 1201
f 1364 1355 1318
f 1322 1357 1340
f 1357 1365 1282
f 1305 1366 1358
f 1325 1345 1344
f 1288 1367 1359
f 1367 1348 1347
f 1368 1290 1360
f 1350 1369 1361
f 1333 1197 1352
f 1370 1139 1363
f 1337 1364 1354
f 1364 1371 1355
f 1357 1372 1365
f 1305 1325 1366
f 1325 1373 1345
f 1288 1348 1367
f 1374 1290 1368
f 1350 1375 1369
f 1333 1362 1197
f 1376 1139 1370
f 1337 1371 1364
f 1357 1377 1372
f 1305 1373 1325
f 1378 1348 1288
f 1348 1290 1374
f 1350 1379 1375
f 1380 1362 1333
f 1381 1139 1376
f 1382 1371 1337
f 1357 839 1377
f 857 1373 1305
f 1378 1290 1348
f 1350 1383 1379
f 1332 1362 1380
f 1384 1139 1381
f 1385 1371 1382
f 1357 857 839
f 857 1386 1373
f 1387 1290 1378
f 1350 1388 1383
f 1291 1362 1332
f 1362 1139 1384
f 1389 1371 1385
f 1322 857 1357
f 857 1390 1386
f 1391 1290 1387
f 1350 1392 1388
f 1393 1362 1291
f 1394 1371 1389
f 1322 1390 857
f 1395 1290 1391
f 1350 1396 1392
f 1396 1362 1393
f 1397 1371 1394
f 768 1390 1322
f 1398 1290 1395
f 1350 1362 1396
f 1141 1371 1397
f 1399 1390 768
f 1400 1290 1398
f 1401 1362 1350
f 1139 1371 1141
f 1402 1390 1399
f 1403 1290 1400
f 1401 1139 1362
f 1139 1404 1371
f 1405 1390 1402
f 936 1290 1403
f 1406 1139 1401
f 1139 1407 1404
f 1405 1408 1390
f 924 1290 936
f 1409 1139 1406
f 1139 1410 1407
f 1405 1411 1408
f 924 1412 1290
f 1413 1139 1409
f 1139 1414 1410
f 1405 1415 1411
f 924 1416 1412
f 1417 1139 1413
f 1139 1418 1414
f 1405 1419 1415
f 924 1420 1416
f 1421 1139 1417
f 1139 1422 1418
f 1405 1423 1419
f 924 1424 1420
f 1421 1422 1139
f 1405 1287 1423
f 924 1421 1424
f 1421 1356 1422
f 1405 924 1287
f 1421 1339 1356
f 1251 924 1405
f 1421 1276 1339
f 1251 1421 924
f 1421 1251 1276
f 1 714 5
f 5 714 717
f 5 717 4
f 4 717 716
f 4 716 7
f 7 716 719
f 7 719 6
f 6 719 718
f 6 718 9
f 9 718 721
f 9 721 8
f 8 721 720
f 8 720 11
f 11 720 723
f 11 723 10
f 10 723 722
f 10 722 13
f 13 722 725
f 13 725 12
f 12 725 724
f 12 724 15
f 15 724 727
f 15 727 14
f 14 727 726
f 14 726 17
f 17 726 729
f 17 729 16
f 16 729 728
f 16 728 19
f 19 728 731
f 19 731 18
f 18 731 730
f 18 730 21
f 21 730 733
f 21 733 20
f 20 733 732
f 20 732 562
f 562 732 1274
f 562 1274 585
f 585 1274 1297
f 585 1297 607
f 607 1297 1319
f 607 1319 643
f 643 1319 1355
f 643 1355 659
f 659 1355 1371
f 659 1371 692
f 692 1371 1404
f 692 1404 695
f 695 1404 1407
f 695 1407 698
f 698 1407 1410
f 698 1410 702
f 702 1410 1414
f 702 1414 706
f 706 1414 1418
f 706 1418 710
f 710 1418 1422
f 710 1422 644
f 644 1422 1356
f 644 1356 23
f 23 1356 734
f 23 734 24
f 24 734 736
f 24 736 22
f 22 736 735
f 22 735 26
f 26 735 738
f 26 738 25
f 25 738 737
f 25 737 28
f 28 737 740
f 28 740 27
f 27 740 739
f 27 739 30
f 30 739 742
f 30 742 29
f 29 742 741
f 29 741 32
f 32 741 744
f 32 744 31
f 31 744 743
f 31 743 34
f 34 743 746
f 34 746 33
f 33 746 745
f 33 745 36
f 36 745 748
f 36 748 35
f 35 748 747
f 35 747 38
f 38 747 750
f 38 750 37
f 37 750 749
f 37 749 40
f 40 749 752
f 40 752 39
f 39 752 751
f 39 751 42
f 42 751 754
f 42 754 41
f 41 754 753
f 41 753 492
f 492 753 1204
f 492 1204 563
f 563 1204 1275
f 563 1275 586
f 586 1275 1298
f 586 1298 608
f 608 1298 1320
f 608 1320 627
f 627 1320 1339
f 627 1339 564
f 564 1339 1276
f 564 1276 538
f 538 1276 1250
f 538 1250 516
f 516 1250 1228
f 516 1228 493
f 493 1228 1205
f 493 1205 465
f 465 1205 1177
f 465 1177 44
f 44 1177 755
f 44 755 45
f 45 755 757
f 45 757 43
f 43 757 756
f 43 756 47
f 47 756 758
f 47 758 48
f 48 758 760
f 48 760 46
f 46 760 759
f 46 759 50
f 50 759 761
f 50 761 51
f 51 761 763
f 51 763 49
f 49 763 762
f 49 762 53
f 53 762 765
f 53 765 52
f 52 765 764
f 52 764 55
f 55 764 767
f 55 767 54
f 54 767 766
f 54 766 466
f 466 766 1178
f 466 1178 494
f 494 1178 1206
f 494 1206 539
f 539 1206 1251
f 539 1251 693
f 693 1251 1405
f 693 1405 690
f 690 1405 1402
f 690 1402 687
f 687 1402 1399
f 687 1399 57
f 57 1399 768
f 57 768 58
f 58 768 770
f 58 770 56
f 56 770 769
f 56 769 60
f 60 769 772
f 60 772 59
f 59 772 771
f 59 771 62
f 62 771 774
f 62 774 61
f 61 774 773
f 61 773 467
f 467 773 1179
f 467 1179 517
f 517 1179 1229
f 517 1229 540
f 540 1229 1252
f 540 1252 565
f 565 1252 1277
f 565 1277 587
f 587 1277 1299
f 587 1299 609
f 609 1299 1321
f 609 1321 610
f 610 1321 1322
f 610 1322 588
f 588 1322 1300
f 588 1300 566
f 566 1300 1278
f 566 1278 541
f 541 1278 1253
f 541 1253 495
f 495 1253 1207
f 495 1207 64
f 64 1207 775
f 64 775 65
f 65 775 777
f 65 777 63
f 63 777 776
f 63 776 67
f 67 776 779
f 67 779 66
f 66 779 778
f 66 778 69
f 69 778 781
f 69 781 68
f 68 781 780
f 68 780 71
f 71 780 783
f 71 783 70
f 70 783 782
f 70 782 73
f 73 782 785
f 73 785 72
f 72 785 784
f 72 784 75
f 75 784 787
f 75 787 74
f 74 787 786
f 74 786 77
f 77 786 788
f 77 788 78
f 78 788 790
f 78 790 76
f 76 790 789
f 76 789 496
f 496 789 1208
f 496 1208 518
f 518 1208 1230
f 518 1230 542
f 542 1230 1254
f 542 1254 567
f 567 1254 1279
f 567 1279 589
f 589 1279 1301
f 589 1301 590
f 590 1301 1302
f 590 1302 568
f 568 1302 1280
f 568 1280 543
f 543 1280 1255
f 543 1255 519
f 519 1255 1231
f 519 1231 497
f 497 1231 1209
f 497 1209 80
f 80 1209 791
f 80 791 81
f 81 791 793
f 81 793 79
f 79 793 792
f 79 792 83
f 83 792 795
f 83 795 82
f 82 795 794
f 82 794 85
f 85 794 797
f 85 797 84
f 84 797 796
f 84 796 468
f 468 796 1180
f 468 1180 628
f 628 1180 1340
f 628 1340 645
f 645 1340 1357
f 645 1357 629
f 629 1357 1341
f 629 1341 591
f 591 1341 1303
f 591 1303 569
f 569 1303 1281
f 569 1281 520
f 520 1281 1232
f 520 1232 87
f 87 1232 798
f 87 798 88
f 88 798 800
f 88 800 86
f 86 800 799
f 86 799 90
f 90 799 802
f 90 802 89
f 89 802 801
f 89 801 92
f 92 801 804
f 92 804 91
f 91 804 803
f 91 803 94
f 94 803 806
f 94 806 93
f 93 806 805
f 93 805 96
f 96 805 808
f 96 808 95
f 95 808 807
f 95 807 98
f 98 807 810
f 98 810 97
f 97 810 809
f 97 809 100
f 100 809 812
f 100 812 99
f 99 812 811
f 99 811 102
f 102 811 814
f 102 814 101
f 101 814 813
f 101 813 104
f 104 813 816
f 104 816 103
f 103 816 815
f 103 815 106
f 106 815 818
f 106 818 105
f 105 818 817
f 105 817 498
f 498 817 1210
f 498 1210 521
f 521 1210 1233
f 521 1233 499
f 499 1233 1211
f 499 1211 469
f 469 1211 1181
f 469 1181 108
f 108 1181 819
f 108 819 109
f 109 819 821
f 109 821 107
f 107 821 820
f 107 820 111
f 111 820 823
f 111 823 110
f 110 823 822
f 110 822 113
f 113 822 824
f 113 824 114
f 114 824 826
f 114 826 112
f 112 826 825
f 112 825 116
f 116 825 828
f 116 828 115
f 115 828 827
f 115 827 118
f 118 827 830
f 118 830 117
f 117 830 829
f 117 829 120
f 120 829 832
f 120 832 119
f 119 832 831
f 119 831 122
f 122 831 834
f 122 834 121
f 121 834 833
f 121 833 124
f 124 833 836
f 124 836 123
f 123 836 835
f 123 835 126
f 126 835 838
f 126 838 125
f 125 838 837
f 125 837 470
f 470 837 1182
f 470 1182 544
f 544 1182 1256
f 544 1256 570
f 570 1256 1282
f 570 1282 653
f 653 1282 1365
f 653 1365 660
f 660 1365 1372
f 660 1372 665
f 665 1372 1377
f 665 1377 128
f 128 1377 839
f 128 839 129
f 129 839 841
f 129 841 127
f 127 841 840
f 127 840 131
f 131 840 843
f 131 843 130
f 130 843 842
f 130 842 133
f 133 842 845
f 133 845 132
f 132 845 844
f 132 844 135
f 135 844 847
f 135 847 134
f 134 847 846
f 134 846 137
f 137 846 849
f 137 849 136
f 136 849 848
f 136 848 139
f 139 848 851
f 139 851 138
f 138 851 850
f 138 850 141
f 141 850 853
f 141 853 140
f 140 853 852
f 140 852 143
f 143 852 855
f 143 855 142
f 142 855 854
f 142 854 145
f 145 854 856
f 145 856 146
f 146 856 858
f 146 858 144
f 144 858 857
f 144 857 148
f 148 857 860
f 148 860 147
f 147 860 859
f 147 859 150
f 150 859 862
f 150 862 149
f 149 862 861
f 149 861 152
f 152 861 864
f 152 864 151
f 151 864 863
f 151 863 154
f 154 863 866
f 154 866 153
f 153 866 865
f 153 865 156
f 156 865 868
f 156 868 155
f 155 868 867
f 155 867 158
f 158 867 870
f 158 870 157
f 157 870 869
f 157 869 160
f 160 869 872
f 160 872 159
f 159 872 871
f 159 871 162
f 162 871 874
f 162 874 161
f 161 874 873
f 161 873 164
f 164 873 876
f 164 876 163
f 163 876 875
f 163 875 471
f 471 875 1183
f 471 1183 500
f 500 1183 1212
f 500 1212 522
f 522 1212 1234
f 522 1234 571
f 571 1234 1283
f 571 1283 592
f 592 1283 1304
f 592 1304 611
f 611 1304 1323
f 611 1323 593
f 593 1323 1305
f 593 1305 572
f 572 1305 1284
f 572 1284 545
f 545 1284 1257
f 545 1257 523
f 523 1257 1235
f 523 1235 472
f 472 1235 1184
f 472 1184 166
f 166 1184 877
f 166 877 167
f 167 877 879
f 167 879 165
f 165 879 878
f 165 878 169
f 169 878 881
f 169 881 168
f 168 881 880
f 168 880 612
f 612 880 1324
f 612 1324 630
f 630 1324 1342
f 630 1342 646
f 646 1342 1358
f 646 1358 654
f 654 1358 1366
f 654 1366 613
f 613 1366 1325
f 613 1325 594
f 594 1325 1306
f 594 1306 546
f 546 1306 1258
f 546 1258 524
f 524 1258 1236
f 524 1236 473
f 473 1236 1185
f 473 1185 171
f 171 1185 882
f 171 882 172
f 172 882 884
f 172 884 170
f 170 884 883
f 170 883 174
f 174 883 886
f 174 886 173
f 173 886 885
f 173 885 176
f 176 885 888
f 176 888 175
f 175 888 887
f 175 887 178
f 178 887 890
f 178 890 177
f 177 890 889
f 177 889 180
f 180 889 892
f 180 892 179
f 179 892 891
f 179 891 182
f 182 891 894
f 182 894 181
f 181 894 893
f 181 893 474
f 474 893 1186
f 474 1186 525
f 525 1186 1237
f 525 1237 547
f 547 1237 1259
f 547 1259 631
f 631 1259 1343
f 631 1343 632
f 632 1343 1344
f 632 1344 614
f 614 1344 1326
f 614 1326 595
f 595 1326 1307
f 595 1307 573
f 573 1307 1285
f 573 1285 548
f 548 1285 1260
f 548 1260 501
f 501 1260 1213
f 501 1213 475
f 475 1213 1187
f 475 1187 184
f 184 1187 895
f 184 895 185
f 185 895 897
f 185 897 183
f 183 897 896
f 183 896 187
f 187 896 898
f 187 898 188
f 188 898 900
f 188 900 186
f 186 900 899
f 186 899 190
f 190 899 902
f 190 902 189
f 189 902 901
f 189 901 192
f 192 901 904
f 192 904 191
f 191 904 903
f 191 903 194
f 194 903 906
f 194 906 193
f 193 906 905
f 193 905 196
f 196 905 908
f 196 908 195
f 195 908 907
f 195 907 198
f 198 907 910
f 198 910 197
f 197 910 909
f 197 909 200
f 200 909 912
f 200 912 199
f 199 912 911
f 199 911 202
f 202 911 914
f 202 914 201
f 201 914 913
f 201 913 204
f 204 913 916
f 204 916 203
f 203 916 915
f 203 915 502
f 502 915 1214
f 502 1214 549
f 549 1214 1261
f 549 1261 574
f 574 1261 1286
f 574 1286 596
f 596 1286 1308
f 596 1308 615
f 615 1308 1327
f 615 1327 633
f 633 1327 1345
f 633 1345 661
f 661 1345 1373
f 661 1373 674
f 674 1373 1386
f 674 1386 678
f 678 1386 1390
f 678 1390 696
f 696 1390 1408
f 696 1408 699
f 699 1408 1411
f 699 1411 703
f 703 1411 1415
f 703 1415 707
f 707 1415 1419
f 707 1419 711
f 711 1419 1423
f 711 1423 575
f 575 1423 1287
f 575 1287 550
f 550 1287 1262
f 550 1262 503
f 503 1262 1215
f 503 1215 206
f 206 1215 917
f 206 917 207
f 207 917 919
f 207 919 205
f 205 919 918
f 205 918 209
f 209 918 921
f 209 921 208
f 208 921 920
f 208 920 211
f 211 920 923
f 211 923 210
f 210 923 922
f 210 922 213
f 213 922 924
f 213 924 214
f 214 924 926
f 214 926 212
f 212 926 925
f 212 925 216
f 216 925 928
f 216 928 215
f 215 928 927
f 215 927 504
f 504 927 1216
f 504 1216 476
f 476 1216 1188
f 476 1188 218
f 218 1188 929
f 218 929 219
f 219 929 931
f 219 931 217
f 217 931 930
f 217 930 221
f 221 930 933
f 221 933 220
f 220 933 932
f 220 932 223
f 223 932 935
f 223 935 222
f 222 935 934
f 222 934 225
f 225 934 937
f 225 937 224
f 224 937 936
f 224 936 691
f 691 936 1403
f 691 1403 688
f 688 1403 1400
f 688 1400 686
f 686 1400 1398
f 686 1398 683
f 683 1398 1395
f 683 1395 679
f 679 1395 1391
f 679 1391 675
f 675 1391 1387
f 675 1387 666
f 666 1387 1378
f 666 1378 576
f 576 1378 1288
f 576 1288 551
f 551 1288 1263
f 551 1263 526
f 526 1263 1238
f 526 1238 505
f 505 1238 1217
f 505 1217 477
f 477 1217 1189
f 477 1189 227
f 227 1189 938
f 227 938 228
f 228 938 940
f 228 940 226
f 226 940 939
f 226 939 597
f 597 939 1309
f 597 1309 616
f 616 1309 1328
f 616 1328 634
f 634 1328 1346
f 634 1346 647
f 647 1346 1359
f 647 1359 655
f 655 1359 1367
f 655 1367 635
f 635 1367 1347
f 635 1347 617
f 617 1347 1329
f 617 1329 598
f 598 1329 1310
f 598 1310 577
f 577 1310 1289
f 577 1289 552
f 552 1289 1264
f 552 1264 506
f 506 1264 1218
f 506 1218 230
f 230 1218 941
f 230 941 231
f 231 941 943
f 231 943 229
f 229 943 942
f 229 942 233
f 233 942 945
f 233 945 232
f 232 945 944
f 232 944 235
f 235 944 947
f 235 947 234
f 234 947 946
f 234 946 237
f 237 946 949
f 237 949 236
f 236 949 948
f 236 948 239
f 239 948 951
f 239 951 238
f 238 951 950
f 238 950 241
f 241 950 953
f 241 953 240
f 240 953 952
f 240 952 243
f 243 952 955
f 243 955 242
f 242 955 954
f 242 954 245
f 245 954 957
f 245 957 244
f 244 957 956
f 244 956 247
f 247 956 959
f 247 959 246
f 246 959 958
f 246 958 249
f 249 958 960
f 249 960 250
f 250 960 962
f 250 962 248
f 248 962 961
f 248 961 252
f 252 961 964
f 252 964 251
f 251 964 963
f 251 963 254
f 254 963 966
f 254 966 253
f 253 966 965
f 253 965 256
f 256 965 968
f 256 968 255
f 255 968 967
f 255 967 258
f 258 967 970
f 258 970 257
f 257 970 969
f 257 969 260
f 260 969 972
f 260 972 259
f 259 972 971
f 259 971 262
f 262 971 974
f 262 974 261
f 261 974 973
f 261 973 264
f 264 973 976
f 264 976 263
f 263 976 975
f 263 975 266
f 266 975 978
f 266 978 265
f 265 978 977
f 265 977 268
f 268 977 979
f 268 979 269
f 269 979 981
f 269 981 267
f 267 981 980
f 267 980 478
f 478 980 1190
f 478 1190 527
f 527 1190 1239
f 527 1239 528
f 528 1239 1240
f 528 1240 479
f 479 1240 1191
f 479 1191 271
f 271 1191 982
f 271 982 272
f 272 982 984
f 272 984 270
f 270 984 983
f 270 983 274
f 274 983 986
f 274 986 273
f 273 986 985
f 273 985 276
f 276 985 988
f 276 988 275
f 275 988 987
f 275 987 278
f 278 987 990
f 278 990 277
f 277 990 989
f 277 989 618
f 618 989 1330
f 618 1330 636
f 636 1330 1348
f 636 1348 662
f 662 1348 1374
f 662 1374 656
f 656 1374 1368
f 656 1368 648
f 648 1368 1360
f 648 1360 637
f 637 1360 1349
f 637 1349 280
f 280 1349 991
f 280 991 281
f 281 991 993
f 281 993 279
f 279 993 992
f 279 992 283
f 283 992 995
f 283 995 282
f 282 995 994
f 282 994 285
f 285 994 997
f 285 997 284
f 284 997 996
f 284 996 529
f 529 996 1241
f 529 1241 553
f 553 1241 1265
f 553 1265 530
f 530 1265 1242
f 530 1242 507
f 507 1242 1219
f 507 1219 480
f 480 1219 1192
f 480 1192 287
f 287 1192 998
f 287 998 288
f 288 998 1000
f 288 1000 286
f 286 1000 999
f 286 999 290
f 290 999 1002
f 290 1002 289
f 289 1002 1001
f 289 1001 292
f 292 1001 1004
f 292 1004 291
f 291 1004 1003
f 291 1003 294
f 294 1003 1006
f 294 1006 293
f 293 1006 1005
f 293 1005 481
f 481 1005 1193
f 481 1193 531
f 531 1193 1243
f 531 1243 482
f 482 1243 1194
f 482 1194 296
f 296 1194 1007
f 296 1007 297
f 297 1007 1009
f 297 1009 295
f 295 1009 1008
f 295 1008 299
f 299 1008 1010
f 299 1010 300
f 300 1010 1012
f 300 1012 298
f 298 1012 1011
f 298 1011 302
f 302 1011 1014
f 302 1014 301
f 301 1014 1013
f 301 1013 304
f 304 1013 1016
f 304 1016 303
f 303 1016 1015
f 303 1015 306
f 306 1015 1018
f 306 1018 305
f 305 1018 1017
f 305 1017 308
f 308 1017 1020
f 308 1020 307
f 307 1020 1019
f 307 1019 310
f 310 1019 1022
f 310 1022 309
f 309 1022 1021
f 309 1021 312
f 312 1021 1023
f 312 1023 313
f 313 1023 1025
f 313 1025 311
f 311 1025 1024
f 311 1024 578
f 578 1024 1290
f 578 1290 700
f 700 1290 1412
f 700 1412 704
f 704 1412 1416
f 704 1416 708
f 708 1416 1420
f 708 1420 712
f 712 1420 1424
f 712 1424 709
f 709 1424 1421
f 709 1421 705
f 705 1421 1417
f 705 1417 701
f 701 1417 1413
f 701 1413 697
f 697 1413 1409
f 697 1409 694
f 694 1409 1406
f 694 1406 689
f 689 1406 1401
f 689 1401 638
f 638 1401 1350
f 638 1350 619
f 619 1350 1331
f 619 1331 599
f 599 1331 1311
f 599 1311 554
f 554 1311 1266
f 554 1266 508
f 508 1266 1220
f 508 1220 315
f 315 1220 1026
f 315 1026 316
f 316 1026 1028
f 316 1028 314
f 314 1028 1027
f 314 1027 318
f 318 1027 1030
f 318 1030 317
f 317 1030 1029
f 317 1029 320
f 320 1029 1032
f 320 1032 319
f 319 1032 1031
f 319 1031 322
f 322 1031 1033
f 322 1033 323
f 323 1033 1035
f 323 1035 321
f 321 1035 1034
f 321 1034 325
f 325 1034 1037
f 325 1037 324
f 324 1037 1036
f 324 1036 327
f 327 1036 1039
f 327 1039 326
f 326 1039 1038
f 326 1038 329
f 329 1038 1041
f 329 1041 328
f 328 1041 1040
f 328 1040 331
f 331 1040 1043
f 331 1043 330
f 330 1043 1042
f 330 1042 333
f 333 1042 1045
f 333 1045 332
f 332 1045 1044
f 332 1044 335
f 335 1044 1047
f 335 1047 334
f 334 1047 1046
f 334 1046 337
f 337 1046 1049
f 337 1049 336
f 336 1049 1048
f 336 1048 339
f 339 1048 1051
f 339 1051 338
f 338 1051 1050
f 338 1050 483
f 483 1050 1195
f 483 1195 555
f 555 1195 1267
f 555 1267 649
f 649 1267 1361
f 649 1361 657
f 657 1361 1369
f 657 1369 663
f 663 1369 1375
f 663 1375 667
f 667 1375 1379
f 667 1379 671
f 671 1379 1383
f 671 1383 676
f 676 1383 1388
f 676 1388 680
f 680 1388 1392
f 680 1392 684
f 684 1392 1396
f 684 1396 681
f 681 1396 1393
f 681 1393 579
f 579 1393 1291
f 579 1291 556
f 556 1291 1268
f 556 1268 509
f 509 1268 1221
f 509 1221 341
f 341 1221 1052
f 341 1052 342
f 342 1052 1054
f 342 1054 340
f 340 1054 1053
f 340 1053 344
f 344 1053 1056
f 344 1056 343
f 343 1056 1055
f 343 1055 346
f 346 1055 1058
f 346 1058 345
f 345 1058 1057
f 345 1057 348
f 348 1057 1060
f 348 1060 347
f 347 1060 1059
f 347 1059 510
f 510 1059 1222
f 510 1222 600
f 600 1222 1312
f 600 1312 620
f 620 1312 1332
f 620 1332 668
f 668 1332 1380
f 668 1380 621
f 621 1380 1333
f 621 1333 601
f 601 1333 1313
f 601 1313 557
f 557 1313 1269
f 557 1269 532
f 532 1269 1244
f 532 1244 484
f 484 1244 1196
f 484 1196 350
f 350 1196 1061
f 350 1061 351
f 351 1061 1063
f 351 1063 349
f 349 1063 1062
f 349 1062 353
f 353 1062 1065
f 353 1065 352
f 352 1065 1064
f 352 1064 355
f 355 1064 1067
f 355 1067 354
f 354 1067 1066
f 354 1066 357
f 357 1066 1069
f 357 1069 356
f 356 1069 1068
f 356 1068 359
f 359 1068 1071
f 359 1071 358
f 358 1071 1070
f 358 1070 361
f 361 1070 1073
f 361 1073 360
f 360 1073 1072
f 360 1072 363
f 363 1072 1075
f 363 1075 362
f 362 1075 1074
f 362 1074 365
f 365 1074 1077
f 365 1077 364
f 364 1077 1076
f 364 1076 367
f 367 1076 1079
f 367 1079 366
f 366 1079 1078
f 366 1078 369
f 369 1078 1081
f 369 1081 368
f 368 1081 1080
f 368 1080 639
f 639 1080 1351
f 639 1351 640
f 640 1351 1352
f 640 1352 622
f 622 1352 1334
f 622 1334 602
f 602 1334 1314
f 602 1314 580
f 580 1314 1292
f 580 1292 533
f 533 1292 1245
f 533 1245 511
f 511 1245 1223
f 511 1223 371
f 371 1223 1082
f 371 1082 372
f 372 1082 1084
f 372 1084 370
f 370 1084 1083
f 370 1083 374
f 374 1083 1086
f 374 1086 373
f 373 1086 1085
f 373 1085 376
f 376 1085 1088
f 376 1088 375
f 375 1088 1087
f 375 1087 378
f 378 1087 1090
f 378 1090 377
f 377 1090 1089
f 377 1089 380
f 380 1089 1092
f 380 1092 379
f 379 1092 1091
f 379 1091 382
f 382 1091 1094
f 382 1094 381
f 381 1094 1093
f 381 1093 384
f 384 1093 1096
f 384 1096 383
f 383 1096 1095
f 383 1095 386
f 386 1095 1098
f 386 1098 385
f 385 1098 1097
f 385 1097 388
f 388 1097 1100
f 388 1100 387
f 387 1100 1099
f 387 1099 390
f 390 1099 1102
f 390 1102 389
f 389 1102 1101
f 389 1101 392
f 392 1101 1104
f 392 1104 391
f 391 1104 1103
f 391 1103 394
f 394 1103 1106
f 394 1106 393
f 393 1106 1105
f 393 1105 396
f 396 1105 1108
f 396 1108 395
f 395 1108 1107
f 395 1107 398
f 398 1107 1110
f 398 1110 397
f 397 1110 1109
f 397 1109 400
f 400 1109 1112
f 400 1112 399
f 399 1112 1111
f 399 1111 402
f 402 1111 1114
f 402 1114 401
f 401 1114 1113
f 401 1113 404
f 404 1113 1116
f 404 1116 403
f 403 1116 1115
f 403 1115 406
f 406 1115 1118
f 406 1118 405
f 405 1118 1117
f 405 1117 408
f 408 1117 1120
f 408 1120 407
f 407 1120 1119
f 407 1119 485
f 485 1119 1197
f 485 1197 623
f 623 1197 1335
f 623 1335 486
f 486 1335 1198
f 486 1198 410
f 410 1198 1121
f 410 1121 411
f 411 1121 1123
f 411 1123 409
f 409 1123 1122
f 409 1122 413
f 413 1122 1125
f 413 1125 412
f 412 1125 1124
f 412 1124 487
f 487 1124 1199
f 487 1199 534
f 534 1199 1246
f 534 1246 558
f 558 1246 1270
f 558 1270 581
f 581 1270 1293
f 581 1293 603
f 603 1293 1315
f 603 1315 650
f 650 1315 1362
f 650 1362 672
f 672 1362 1384
f 672 1384 669
f 669 1384 1381
f 669 1381 664
f 664 1381 1376
f 664 1376 658
f 658 1376 1370
f 658 1370 651
f 651 1370 1363
f 651 1363 641
f 641 1363 1353
f 641 1353 624
f 624 1353 1336
f 624 1336 582
f 582 1336 1294
f 582 1294 559
f 559 1294 1271
f 559 1271 535
f 535 1271 1247
f 535 1247 415
f 415 1247 1126
f 415 1126 416
f 416 1126 1128
f 416 1128 414
f 414 1128 1127
f 414 1127 418
f 418 1127 1130
f 418 1130 417
f 417 1130 1129
f 417 1129 420
f 420 1129 1132
f 420 1132 419
f 419 1132 1131
f 419 1131 422
f 422 1131 1134
f 422 1134 421
f 421 1134 1133
f 421 1133 424
f 424 1133 1136
f 424 1136 423
f 423 1136 1135
f 423 1135 426
f 426 1135 1138
f 426 1138 425
f 425 1138 1137
f 425 1137 428
f 428 1137 1140
f 428 1140 427
f 427 1140 1139
f 427 1139 430
f 430 1139 1142
f 430 1142 429
f 429 1142 1141
f 429 1141 685
f 685 1141 1397
f 685 1397 682
f 682 1397 1394
f 682 1394 677
f 677 1394 1389
f 677 1389 673
f 673 1389 1385
f 673 1385 670
f 670 1385 1382
f 670 1382 625
f 625 1382 1337
f 625 1337 604
f 604 1337 1316
f 604 1316 583
f 583 1316 1295
f 583 1295 560
f 560 1295 1272
f 560 1272 536
f 536 1272 1248
f 536 1248 512
f 512 1248 1224
f 512 1224 488
f 488 1224 1200
f 488 1200 432
f 432 1200 1143
f 432 1143 433
f 433 1143 1145
f 433 1145 431
f 431 1145 1144
f 431 1144 435
f 435 1144 1147
f 435 1147 434
f 434 1147 1146
f 434 1146 489
f 489 1146 1201
f 489 1201 437
f 437 1201 1148
f 437 1148 438
f 438 1148 1150
f 438 1150 436
f 436 1150 1149
f 436 1149 440
f 440 1149 1152
f 440 1152 439
f 439 1152 1151
f 439 1151 442
f 442 1151 1153
f 442 1153 443
f 443 1153 1155
f 443 1155 441
f 441 1155 1154
f 441 1154 445
f 445 1154 1157
f 445 1157 444
f 444 1157 1156
f 444 1156 447
f 447 1156 1159
f 447 1159 446
f 446 1159 1158
f 446 1158 513
f 513 1158 1225
f 513 1225 514
f 514 1225 1226
f 514 1226 490
f 490 1226 1202
f 490 1202 449
f 449 1202 1160
f 449 1160 450
f 450 1160 1162
f 450 1162 448
f 448 1162 1161
f 448 1161 452
f 452 1161 1164
f 452 1164 451
f 451 1164 1163
f 451 1163 454
f 454 1163 1166
f 454 1166 453
f 453 1166 1165
f 453 1165 456
f 456 1165 1168
f 456 1168 455
f 455 1168 1167
f 455 1167 458
f 458 1167 1170
f 458 1170 457
f 457 1170 1169
f 457 1169 605
f 605 1169 1317
f 605 1317 626
f 626 1317 1338
f 626 1338 642
f 642 1338 1354
f 642 1354 652
f 652 1354 1364
f 652 1364 606
f 606 1364 1318
f 606 1318 584
f 584 1318 1296
f 584 1296 561
f 561 1296 1273
f 561 1273 537
f 537 1273 1249
f 537 1249 515
f 515 1249 1227
f 515 1227 491
f 491 1227 1203
f 491 1203 460
f 460 1203 1171
f 460 1171 461
f 461 1171 1173
f 461 1173 459
f 459 1173 1172
f 459 1172 463
f 463 1172 1175
f 463 1175 462
f 462 1175 1174
f 462 1174 464
f 464 1174 1176
f 464 1176 2
f 2 1176 713
f 2 713 3
f 3 713 715
f 3 715 1
f 1 715 714
