o 
v 18 0 -0.16
v 18.791 0 -0.01
v 18.41 0 -0.065
v 17.358 0 -0.535
v 17.676 0 -0.301
v 16.836 0 -1.168
v 17.07 0 -0.834
v 16.62 0 -1.83
v 16.678 0 -1.51
v 16.846 0 -2.197
v 16.679 0 -1.963
v 17.438 0 -2.89
v 17.104 0 -2.512
v 18.27 0 -3.75
v 17.832 0 -3.309
v 21.951 0 -24.469
v 22.06 0 -24.21
v 22.007 0 -24.307
v 21.845 0 -24.934
v 21.896 0 -24.683
v 21.77 0 -25.5
v 21.802 0 -25.211
v 21.789 0 -26.97
v 21.74 0 -26.194
v 22.045 0 -28.377
v 21.896 0 -27.73
v 22.39 0 -28.94
v 22.216 0 -28.813
v 21.664 0 -33.091
v 22.47 0 -32.83
v 22.061 0 -32.9
v 21.016 0 -33.729
v 21.306 0 -33.376
v 20.75 0 -34.53
v 20.821 0 -34.123
v 20.975 0 -35.449
v 20.809 0 -34.807
v 21.565 0 -37.594
v 21.233 0 -36.397
v 22.39 0 -40.5
v 21.956 0 -38.981
v 21.377 0 -58.1
v 22.452 0 -58.002
v 21.9 0 -58.05
v 20.688 0 -58.234
v 20.984 0 -58.157
v 20.245 0 -58.498
v 20.453 0 -58.343
v 19.862 0 -58.886
v 20.03 0 -58.71
v 19.478 0 -59.375
v 19.675 0 -59.113
v 19.086 0 -59.944
v 19.278 0 -59.657
v 18.593 0 -60.843
v 18.91 0 -60.22
v 18.333 0 -61.939
v 18.4 0 -61.41
v 18.573 0 -62.938
v 18.39 0 -62.443
v 19.099 0 -63.748
v 18.88 0 -63.44
v 20.3 0 -67.81
v 19.31 0 -65.36
v 19.19 0 -66.55
v 24.47 0 -77.48
v 21.44 0 -69.05
v 21.44 0 -74.55
v 26.82 0 -81.477
v 27.51 0 -80.4
v 26.96 0 -81.24
v 26.586 0 -81.906
v 26.694 0 -81.703
v 26.449 0 -82.205
v 26.503 0 -82.077
v 26.503 0 -82.37
v 26.43 0 -82.28
v 27.025 0 -82.754
v 26.707 0 -82.533
v 27.921 0 -83.321
v 27.436 0 -83.021
v 29.019 0 -83.966
v 28.46 0 -83.64
v 32.93 0 -89.85
v 31.97 0 -87.56
v 31.9 0 -89.35
v 33.882 0 -92.336
v 33.97 0 -90.35
v 33.88 0 -91.57
v 34.182 0 -93.894
v 33.984 0 -93.115
v 34.85 0 -95.395
v 34.473 0 -94.658
v 35.575 0 -96.43
v 35.31 0 -96.09
v 36.084 0 -96.911
v 35.821 0 -96.696
v 36.789 0 -97.289
v 36.395 0 -97.101
v 38.64 0 -98.02
v 37.3 0 -97.5
v 42.24 0 -97.62
v 40.43 0 -97.83
v 44.016 0 -98.945
v 43.31 0 -98.45
v 45.51 0 -99.669
v 44.757 0 -99.353
v 46.951 0 -99.99
v 46.249 0 -99.883
v 48.153 0 -99.859
v 47.59 0 -99.98
v 48.925 0 -99.214
v 48.59 0 -99.617
v 49.39 0 -97.752
v 49.183 0 -98.606
v 49.67 0 -95.799
v 49.57 0 -96.61
v 49.75 0 -94.506
v 49.73 0 -95.128
v 49.67 0 -93.057
v 49.73 0 -93.846
v 49.468 0 -91.151
v 49.57 0 -92.05
v 49.289 0 -89.956
v 49.377 0 -90.464
v 49.093 0 -89.351
v 49.197 0 -89.596
v 48.836 0 -89.046
v 48.97 0 -89.19
v 51.251 0 -87.299
v 50.501 0 -87.232
v 50.81 0 -87.27
v 51.97 0 -87.151
v 51.633 0 -87.261
v 52.569 0 -86.687
v 52.277 0 -86.962
v 53.08 0 -86.031
v 52.86 0 -86.32
v 54.882 0 -86.39
v 54.82 0 -86.18
v 54.834 0 -86.302
v 55.131 0 -86.487
v 54.978 0 -86.45
v 55.66 0 -86.51
v 55.355 0 -86.505
v 57.216 0 -86.63
v 56.839 0 -86.585
v 57 0 -86.61
v 57.724 0 -86.435
v 57.443 0 -86.58
v 58.615 0 -85.747
v 58.1 0 -86.166
v 59.79 0 -84.735
v 59.31 0 -85.15
v 65.07 0 -85.46
v 62.823 0 -84.279
v 63.3 0 -84.53
v 67.428 0 -84.823
v 66.93 0 -84.96
v 68.268 0 -84.584
v 67.88 0 -84.696
v 68.78 0 -84.421
v 68.574 0 -84.49
v 68.772 0 -84.288
v 68.87 0 -84.38
v 67.84 0 -83.795
v 68.421 0 -84.09
v 66.068 0 -82.955
v 67.049 0 -83.413
v 68.376 0 -83.279
v 66.72 0 -82.53
v 67.69 0 -82.98
v 69.284 0 -83.531
v 68.875 0 -83.454
v 70.22 0 -83.5
v 69.7 0 -83.537
v 78.363 0 -86.245
v 71.42 0 -83.38
v 76.91 0 -85.65
v 80.795 0 -87.223
v 79.677 0 -86.776
v 82.227 0 -87.78
v 81.663 0 -87.564
v 82.532 0 -87.528
v 82.43 0 -87.85
v 82.939 0 -85.886
v 82.716 0 -86.809
v 83.316 0 -84.195
v 83.154 0 -84.951
v 83.157 0 -83.51
v 83.38 0 -83.81
v 81.836 0 -82.289
v 82.591 0 -82.959
v 80.372 0 -81.117
v 81.045 0 -81.631
v 79.922 0 -80.89
v 79.97 0 -80.88
v 79.761 0 -81.011
v 79.85 0 -80.936
v 79.551 0 -81.229
v 79.66 0 -81.111
v 79.04 0 -81.88
v 79.44 0 -81.36
v 70.7 0 -78.145
v 67.15 0 -76.48
v 69.96 0 -77.8
v 71.95 0 -78.711
v 71.373 0 -78.453
v 72.706 0 -79.027
v 72.404 0 -78.907
v 72.906 0 -78.875
v 72.83 0 -79.06
v 73.145 0 -77.973
v 73.018 0 -78.481
v 73.358 0 -76.984
v 73.266 0 -77.442
v 73.313 0 -76.574
v 73.4 0 -76.69
v 72.594 0 -76.144
v 73.047 0 -76.393
v 71.098 0 -75.431
v 71.947 0 -75.824
v 66.67 0 -73.52
v 70.04 0 -74.96
v 62.9 0 -71.02
v 65.98 0 -72.28
v 65.3 0 -71.02
v 62.886 0 -67.161
v 62.9 0 -68.51
v 62.594 0 -65.519
v 62.804 0 -66.204
v 61.552 0 -64.487
v 62.196 0 -64.986
v 59.946 0 -63.513
v 60.6 0 -63.9
v 59.057 0 -63.079
v 59.452 0 -63.247
v 58.323 0 -62.948
v 58.701 0 -62.987
v 57.498 0 -62.946
v 57.86 0 -62.94
v 56.96 0 -62.999
v 57.2 0 -62.965
v 56.635 0 -63.115
v 56.773 0 -63.048
v 56.312 0 -63.442
v 56.54 0 -63.2
v 54.408 0 -62.491
v 54.13 0 -62.59
v 54.239 0 -62.564
v 54.869 0 -62.236
v 54.623 0 -62.379
v 55.4 0 -61.89
v 55.132 0 -62.07
v 56.06 0 -61.386
v 55.79 0 -61.606
v 56.313 0 -61.04
v 56.229 0 -61.206
v 56.3 0 -60.65
v 56.331 0 -60.863
v 56.174 0 -59.961
v 56.198 0 -60.056
v 56.19 0 -60
v 56.085 0 -59.894
v 56.139 0 -59.925
v 55.929 0 -59.85
v 56.014 0 -59.868
v 55.686 0 -59.827
v 55.83 0 -59.84
v 57.448 0 -41.872
v 57.29 0 -43.24
v 57.396 0 -42.434
v 57.366 0 -41.275
v 57.44 0 -41.502
v 56.99 0 -41.04
v 57.218 0 -41.138
v 57.14 0 -36.724
v 56.969 0 -39.331
v 57.02 0 -38.66
v 57.23 0 -32.135
v 57.21 0 -34.451
v 57.12 0 -28.546
v 57.2 0 -30.069
v 56.91 0 -27.653
v 56.99 0 -27.86
v 60.2 0 -6.432
v 59.219 0 -8.045
v 59.55 0 -7.54
v 60.879 0 -4.22
v 60.645 0 -5.31
v 60.688 0 -2.328
v 60.895 0 -3.21
v 59.72 0 -1.04
v 60.25 0 -1.62
v 57.889 0 -1.469
v 58.69 0 -1.26
v 56.196 0 -2.07
v 57.037 0 -1.748
v 54.8 0 -2.738
v 55.43 0 -2.409
v 54.137 0 -3.286
v 54.37 0 -3.03
v 53.571 0 -4.449
v 53.886 0 -3.72
v 52.569 0 -7.248
v 53.148 0 -5.586
v 50.931 0 -12.089
v 51.79 0 -9.55
v 48.872 0 -15.782
v 49.24 0 -15.66
v 49.032 0 -15.695
v 48.591 0 -16.311
v 48.734 0 -15.971
v 48.19 0 -17.64
v 48.418 0 -16.851
v 47.854 0 -18.976
v 48.004 0 -18.332
v 47.643 0 -20.244
v 47.735 0 -19.604
v 47.52 0 -21.68
v 47.572 0 -20.926
v 45.794 0 -26.734
v 47.4 0 -23.8
v 46.21 0 -25.95
v 45.149 0 -28.119
v 45.446 0 -27.444
v 44.647 0 -29.527
v 44.888 0 -28.8
v 42.416 0 -35.174
v 43.16 0 -33.699
v 42.86 0 -34.29
v 41.774 0 -36.87
v 42.057 0 -36.024
v 41.395 0 -38.659
v 41.556 0 -37.739
v 41.235 0 -40.167
v 41.28 0 -39.66
v 39.889 0 -39.859
v 40.142 0 -40.404
v 40.02 0 -40.13
v 39.454 0 -39.057
v 39.696 0 -39.493
v 38.882 0 -38.076
v 39.178 0 -38.577
v 37.768 0 -36.252
v 38.58 0 -37.58
v 33.771 0 -27.606
v 35.068 0 -30.756
v 34.26 0 -28.79
v 32.729 0 -25.134
v 33.252 0 -26.366
v 31.776 0 -22.952
v 32.228 0 -23.974
v 29.78 0 -17.38
v 30.126 0 -18.9
v 30.04 0 -18.52
v 28.796 0 -13.747
v 29.337 0 -15.689
v 27.762 0 -10.308
v 28.243 0 -11.854
v 27.308 0 -9.101
v 27.44 0 -9.41
v 27.226 0 -7.237
v 27.162 0 -7.958
v 27.2 0 -7.57
v 27.228 0 -6.475
v 27.235 0 -6.867
v 27.169 0 -5.687
v 27.205 0 -6.077
v 27.034 0 -4.821
v 27.12 0 -5.32
v 26.839 0 -4.209
v 26.949 0 -4.465
v 26.44 0 -3.82
v 26.678 0 -4.008
v 25.87 0 -3.46
v 26.1 0 -3.6
v 25.416 0 -3.226
v 25.639 0 -3.334
v 25.046 0 -3.089
v 25.215 0 -3.143
v 24.799 0 -3.058
v 24.92 0 -3.07
v 24.371 0 -2.494
v 24.476 0 -2.773
v 24.43 0 -2.64
v 24.08 0 -2.086
v 24.251 0 -2.306
v 23.629 0 -1.601
v 23.869 0 -1.847
v 22.979 0 -1.019
v 23.37 0 -1.36
v 22.335 0 -0.594
v 22.651 0 -0.772
v 21.531 0 -0.351
v 21.979 0 -0.461
v 20.217 0 -0.11
v 20.94 0 -0.24
v 19.189 0 0.003
v 19.649 0 -0.03
v 22.641 0 -32.791
v 24 0 -46.16
v 19.349 0 -64.864
v 29.577 0 -84.292
v 32.02 0 -85.77
v 54.807 0 -86.087
v 64.92 0 -82.43
v 65.84 0 -82.124
v 79.7 0 -82.47
v 56.212 0 -60.142
v 56.855 0 -46.578
v 49.462 0 -15.608
v 44.41 0 -30.34
v 31.4 0 -22.13
v 22.457 0 -28.944
v 19.245 0 -63.996
v 19.359 0 -64.504
v 50.269 0 -87.233
v 56.635 0 -86.562
v 60.237 0 -84.361
v 62.375 0 -84.053
v 64.541 0 -82.255
v 79.874 0 -82.628
v 56.044 0 -63.663
v 53.942 0 -62.657
v 56.23 0 -60.25
v 56.937 0 -39.906
v 56.837 0 -27.213
v 58.941 0 -8.558
v 43.442 0 -33.086
v 41.19 0 -40.516
v 24.535 0 -2.88
v 18.743 0 -4.227
v 22.118 0 -23.932
v 22.517 0 -29.028
v 22.849 0 -57.944
v 19.327 0 -64.231
v 54.77 0 -86
v 56.401 0 -86.541
v 61.978 0 -83.86
v 65.208 0 -81.847
v 80.011 0 -82.768
v 56.251 0 -60.375
v 56.467 0 -49.68
v 49.672 0 -15.391
v 44.189 0 -31.076
v 40.254 0 -40.61
v 31.06 0 -21.375
v 27.218 0 -8.826
v 27.149 0 -8.28
v 22.754 0 -32.647
v 23.141 0 -57.859
v 30.106 0 -84.604
v 50.076 0 -87.291
v 54.713 0 -85.92
v 56.152 0 -86.525
v 61.652 0 -83.711
v 64.284 0 -82.12
v 64.775 0 -81.684
v 80.11 0 -82.886
v 56.275 0 -60.51
v 56.136 0 -52.449
v 56.923 0 -40.375
v 58.676 0 -9.184
v 50.338 0 -13.799
v 43.955 0 -31.777
v 43.706 0 -32.446
v 24.608 0 -2.964
v 19.234 0 -4.747
v 22.153 0 -23.251
v 22.814 0 -32.356
v 30.58 0 -84.884
v 53.292 0 -85.83
v 54.636 0 -85.85
v 55.9 0 -86.514
v 61.419 0 -83.614
v 64.134 0 -82.012
v 80.165 0 -82.979
v 66.84 0 -76.89
v 55.749 0 -63.857
v 55.873 0 -54.79
v 56.771 0 -26.493
v 58.386 0 -10.025
v 49.941 0 -14.844
v 41.132 0 -40.736
v 27.166 0 -8.561
v 22.165 0 -22.141
v 22.823 0 -31.876
v 23.378 0 -57.726
v 31.25 0 -85.29
v 53.515 0 -85.709
v 61.3 0 -83.58
v 66.746 0 -77.028
v 55.436 0 -64.021
v 55.687 0 -56.609
v 56.709 0 -25.447
v 58.03 0 -11.186
v 24.695 0 -3.023
v 22.153 0 -20.575
v 22.784 0 -31.164
v 23.608 0 -57.526
v 30.97 0 -85.118
v 54.545 0 -85.793
v 60.631 0 -84.042
v 80.173 0 -83.042
v 66.683 0 -77.143
v 55.116 0 -64.147
v 53.809 0 -62.829
v 56.949 0 -40.953
v 56.927 0 -40.727
v 57.57 0 -12.77
v 22.118 0 -18.527
v 23.88 0 -57.24
v 61.182 0 -83.637
v 80.13 0 -83.07
v 66.651 0 -77.236
v 54.8 0 -64.23
v 55.59 0 -59.754
v 55.59 0 -57.81
v 56.649 0 -24.032
v 56.42 0 -16.83
v 30.279 0 -19.396
v 19.719 0 -5.283
v 22.06 0 -15.97
v 24.205 0 -56.874
v 48.769 0 -88.924
v 54.44 0 -85.75
v 64.076 0 -81.92
v 66.65 0 -77.311
v 54.57 0 -64.267
v 55.537 0 -59.568
v 56.59 0 -22.2
v 20.173 0 -5.803
v 21.87 0 -7.97
v 54.07 0 -85.676
v 64.097 0 -81.83
v 54.392 0 -64.275
v 55.523 0 -59.216
v 20.572 0 -6.278
v 22.571 0 -29.192
v 24.41 0 -56.492
v 53.768 0 -85.66
v 64.18 0 -81.73
v 64.492 0 -81.62
v 66.68 0 -77.368
v 54.251 0 -64.25
v 55.542 0 -58.648
v 41.05 0 -40.858
v 20.89 0 -6.68
v 22.62 0 -29.439
v 24.507 0 -55.882
v 64.31 0 -81.64
v 79.12 0 -82.677
v 22.662 0 -29.767
v 24.51 0 -54.831
v 60.953 0 -83.796
v 76.727 0 -81.687
v 54.135 0 -64.189
v 53.736 0 -63.074
v 22.7 0 -30.18
v 24.43 0 -53.125
v 73.622 0 -80.382
v 54.029 0 -64.086
v 30.491 0 -19.988
v 24.28 0 -50.55
v 53.728 0 -63.361
v 30.754 0 -20.654
v 70.476 0 -79.046
v 53.788 0 -63.66
v 53.92 0 -63.94
v 48.778 0 -88.791
v 67.958 0 -77.961
v 40.93 0 -40.909
v 35.769 0 -32.376
v 48.871 0 -88.616
v 40.76 0 -40.92
v 36.416 0 -33.759
v 49.059 0 -88.366
v 66.74 0 -77.41
v 40.609 0 -40.905
v 37.064 0 -35.014
v 49.35 0 -88.01
v 40.479 0 -40.853
v 40.364 0 -40.757
v 49.884 0 -87.427
v 49.655 0 -87.66
v 18.791 10 -0.01
v 18 10 -0.16
v 18.41 10 -0.065
v 17.358 10 -0.535
v 17.676 10 -0.301
v 16.836 10 -1.168
v 17.07 10 -0.834
v 16.62 10 -1.83
v 16.678 10 -1.51
v 16.846 10 -2.197
v 16.679 10 -1.963
v 17.438 10 -2.89
v 17.104 10 -2.512
v 18.27 10 -3.75
v 17.832 10 -3.309
v 22.06 10 -24.21
v 21.951 10 -24.469
v 22.007 10 -24.307
v 21.845 10 -24.934
v 21.896 10 -24.683
v 21.77 10 -25.5
v 21.802 10 -25.211
v 21.789 10 -26.97
v 21.74 10 -26.194
v 22.045 10 -28.377
v 21.896 10 -27.73
v 22.39 10 -28.94
v 22.216 10 -28.813
v 22.47 10 -32.83
v 21.664 10 -33.091
v 22.061 10 -32.9
v 21.016 10 -33.729
v 21.306 10 -33.376
v 20.75 10 -34.53
v 20.821 10 -34.123
v 20.975 10 -35.449
v 20.809 10 -34.807
v 21.565 10 -37.594
v 21.233 10 -36.397
v 22.39 10 -40.5
v 21.956 10 -38.981
v 22.452 10 -58.002
v 21.377 10 -58.1
v 21.9 10 -58.05
v 20.688 10 -58.234
v 20.984 10 -58.157
v 20.245 10 -58.498
v 20.453 10 -58.343
v 19.862 10 -58.886
v 20.03 10 -58.71
v 19.478 10 -59.375
v 19.675 10 -59.113
v 19.086 10 -59.944
v 19.278 10 -59.657
v 18.593 10 -60.843
v 18.91 10 -60.22
v 18.333 10 -61.939
v 18.4 10 -61.41
v 18.573 10 -62.938
v 18.39 10 -62.443
v 19.099 10 -63.748
v 18.88 10 -63.44
v 19.31 10 -65.36
v 20.3 10 -67.81
v 19.19 10 -66.55
v 21.44 10 -69.05
v 24.47 10 -77.48
v 21.44 10 -74.55
v 27.51 10 -80.4
v 26.82 10 -81.477
v 26.96 10 -81.24
v 26.586 10 -81.906
v 26.694 10 -81.703
v 26.449 10 -82.205
v 26.503 10 -82.077
v 26.503 10 -82.37
v 26.43 10 -82.28
v 27.025 10 -82.754
v 26.707 10 -82.533
v 27.921 10 -83.321
v 27.436 10 -83.021
v 29.019 10 -83.966
v 28.46 10 -83.64
v 31.97 10 -87.56
v 32.93 10 -89.85
v 31.9 10 -89.35
v 33.97 10 -90.35
v 33.882 10 -92.336
v 33.88 10 -91.57
v 34.182 10 -93.894
v 33.984 10 -93.115
v 34.85 10 -95.395
v 34.473 10 -94.658
v 35.575 10 -96.43
v 35.31 10 -96.09
v 36.084 10 -96.911
v 35.821 10 -96.696
v 36.789 10 -97.289
v 36.395 10 -97.101
v 38.64 10 -98.02
v 37.3 10 -97.5
v 42.24 10 -97.62
v 40.43 10 -97.83
v 44.016 10 -98.945
v 43.31 10 -98.45
v 45.51 10 -99.669
v 44.757 10 -99.353
v 46.951 10 -99.99
v 46.249 10 -99.883
v 48.153 10 -99.859
v 47.59 10 -99.98
v 48.925 10 -99.214
v 48.59 10 -99.617
v 49.39 10 -97.752
v 49.183 10 -98.606
v 49.67 10 -95.799
v 49.57 10 -96.61
v 49.75 10 -94.506
v 49.73 10 -95.128
v 49.67 10 -93.057
v 49.73 10 -93.846
v 49.468 10 -91.151
v 49.57 10 -92.05
v 49.289 10 -89.956
v 49.377 10 -90.464
v 49.093 10 -89.351
v 49.197 10 -89.596
v 48.836 10 -89.046
v 48.97 10 -89.19
v 50.501 10 -87.232
v 51.251 10 -87.299
v 50.81 10 -87.27
v 51.97 10 -87.151
v 51.633 10 -87.261
v 52.569 10 -86.687
v 52.277 10 -86.962
v 53.08 10 -86.031
v 52.86 10 -86.32
v 54.82 10 -86.18
v 54.882 10 -86.39
v 54.834 10 -86.302
v 55.131 10 -86.487
v 54.978 10 -86.45
v 55.66 10 -86.51
v 55.355 10 -86.505
v 56.839 10 -86.585
v 57.216 10 -86.63
v 57 10 -86.61
v 57.724 10 -86.435
v 57.443 10 -86.58
v 58.615 10 -85.747
v 58.1 10 -86.166
v 59.79 10 -84.735
v 59.31 10 -85.15
v 62.823 10 -84.279
v 65.07 10 -85.46
v 63.3 10 -84.53
v 67.428 10 -84.823
v 66.93 10 -84.96
v 68.268 10 -84.584
v 67.88 10 -84.696
v 68.78 10 -84.421
v 68.574 10 -84.49
v 68.772 10 -84.288
v 68.87 10 -84.38
v 67.84 10 -83.795
v 68.421 10 -84.09
v 66.068 10 -82.955
v 67.049 10 -83.413
v 66.72 10 -82.53
v 68.376 10 -83.279
v 67.69 10 -82.98
v 69.284 10 -83.531
v 68.875 10 -83.454
v 70.22 10 -83.5
v 69.7 10 -83.537
v 71.42 10 -83.38
v 78.363 10 -86.245
v 76.91 10 -85.65
v 80.795 10 -87.223
v 79.677 10 -86.776
v 82.227 10 -87.78
v 81.663 10 -87.564
v 82.532 10 -87.528
v 82.43 10 -87.85
v 82.939 10 -85.886
v 82.716 10 -86.809
v 83.316 10 -84.195
v 83.154 10 -84.951
v 83.157 10 -83.51
v 83.38 10 -83.81
v 81.836 10 -82.289
v 82.591 10 -82.959
v 80.372 10 -81.117
v 81.045 10 -81.631
v 79.922 10 -80.89
v 79.97 10 -80.88
v 79.761 10 -81.011
v 79.85 10 -80.936
v 79.551 10 -81.229
v 79.66 10 -81.111
v 79.04 10 -81.88
v 79.44 10 -81.36
v 67.15 10 -76.48
v 70.7 10 -78.145
v 69.96 10 -77.8
v 71.95 10 -78.711
v 71.373 10 -78.453
v 72.706 10 -79.027
v 72.404 10 -78.907
v 72.906 10 -78.875
v 72.83 10 -79.06
v 73.145 10 -77.973
v 73.018 10 -78.481
v 73.358 10 -76.984
v 73.266 10 -77.442
v 73.313 10 -76.574
v 73.4 10 -76.69
v 72.594 10 -76.144
v 73.047 10 -76.393
v 71.098 10 -75.431
v 71.947 10 -75.824
v 66.67 10 -73.52
v 70.04 10 -74.96
v 65.98 10 -72.28
v 62.9 10 -71.02
v 65.3 10 -71.02
v 62.886 10 -67.161
v 62.9 10 -68.51
v 62.594 10 -65.519
v 62.804 10 -66.204
v 61.552 10 -64.487
v 62.196 10 -64.986
v 59.946 10 -63.513
v 60.6 10 -63.9
v 59.057 10 -63.079
v 59.452 10 -63.247
v 58.323 10 -62.948
v 58.701 10 -62.987
v 57.498 10 -62.946
v 57.86 10 -62.94
v 56.96 10 -62.999
v 57.2 10 -62.965
v 56.635 10 -63.115
v 56.773 10 -63.048
v 56.312 10 -63.442
v 56.54 10 -63.2
v 54.13 10 -62.59
v 54.408 10 -62.491
v 54.239 10 -62.564
v 54.869 10 -62.236
v 54.623 10 -62.379
v 55.4 10 -61.89
v 55.132 10 -62.07
v 56.06 10 -61.386
v 55.79 10 -61.606
v 56.313 10 -61.04
v 56.229 10 -61.206
v 56.3 10 -60.65
v 56.331 10 -60.863
v 56.198 10 -60.056
v 56.174 10 -59.961
v 56.19 10 -60
v 56.085 10 -59.894
v 56.139 10 -59.925
v 55.929 10 -59.85
v 56.014 10 -59.868
v 55.686 10 -59.827
v 55.83 10 -59.84
v 57.29 10 -43.24
v 57.448 10 -41.872
v 57.396 10 -42.434
v 57.366 10 -41.275
v 57.44 10 -41.502
v 56.99 10 -41.04
v 57.218 10 -41.138
v 56.969 10 -39.331
v 57.14 10 -36.724
v 57.02 10 -38.66
v 57.23 10 -32.135
v 57.21 10 -34.451
v 57.12 10 -28.546
v 57.2 10 -30.069
v 56.91 10 -27.653
v 56.99 10 -27.86
v 59.219 10 -8.045
v 60.2 10 -6.432
v 59.55 10 -7.54
v 60.879 10 -4.22
v 60.645 10 -5.31
v 60.688 10 -2.328
v 60.895 10 -3.21
v 59.72 10 -1.04
v 60.25 10 -1.62
v 57.889 10 -1.469
v 58.69 10 -1.26
v 56.196 10 -2.07
v 57.037 10 -1.748
v 54.8 10 -2.738
v 55.43 10 -2.409
v 54.137 10 -3.286
v 54.37 10 -3.03
v 53.571 10 -4.449
v 53.886 10 -3.72
v 52.569 10 -7.248
v 53.148 10 -5.586
v 50.931 10 -12.089
v 51.79 10 -9.55
v 49.24 10 -15.66
v 48.872 10 -15.782
v 49.032 10 -15.695
v 48.591 10 -16.311
v 48.734 10 -15.971
v 48.19 10 -17.64
v 48.418 10 -16.851
v 47.854 10 -18.976
v 48.004 10 -18.332
v 47.643 10 -20.244
v 47.735 10 -19.604
v 47.52 10 -21.68
v 47.572 10 -20.926
v 47.4 10 -23.8
v 45.794 10 -26.734
v 46.21 10 -25.95
v 45.149 10 -28.119
v 45.446 10 -27.444
v 44.647 10 -29.527
v 44.888 10 -28.8
v 43.16 10 -33.699
v 42.416 10 -35.174
v 42.86 10 -34.29
v 41.774 10 -36.87
v 42.057 10 -36.024
v 41.395 10 -38.659
v 41.556 10 -37.739
v 41.235 10 -40.167
v 41.28 10 -39.66
v 40.142 10 -40.404
v 39.889 10 -39.859
v 40.02 10 -40.13
v 39.454 10 -39.057
v 39.696 10 -39.493
v 38.882 10 -38.076
v 39.178 10 -38.577
v 37.768 10 -36.252
v 38.58 10 -37.58
v 35.068 10 -30.756
v 33.771 10 -27.606
v 34.26 10 -28.79
v 32.729 10 -25.134
v 33.252 10 -26.366
v 31.776 10 -22.952
v 32.228 10 -23.974
v 30.126 10 -18.9
v 29.78 10 -17.38
v 30.04 10 -18.52
v 28.796 10 -13.747
v 29.337 10 -15.689
v 27.762 10 -10.308
v 28.243 10 -11.854
v 27.308 10 -9.101
v 27.44 10 -9.41
v 27.162 10 -7.958
v 27.226 10 -7.237
v 27.2 10 -7.57
v 27.228 10 -6.475
v 27.235 10 -6.867
v 27.169 10 -5.687
v 27.205 10 -6.077
v 27.034 10 -4.821
v 27.12 10 -5.32
v 26.839 10 -4.209
v 26.949 10 -4.465
v 26.44 10 -3.82
v 26.678 10 -4.008
v 25.87 10 -3.46
v 26.1 10 -3.6
v 25.416 10 -3.226
v 25.639 10 -3.334
v 25.046 10 -3.089
v 25.215 10 -3.143
v 24.799 10 -3.058
v 24.92 10 -3.07
v 24.476 10 -2.773
v 24.371 10 -2.494
v 24.43 10 -2.64
v 24.08 10 -2.086
v 24.251 10 -2.306
v 23.629 10 -1.601
v 23.869 10 -1.847
v 22.979 10 -1.019
v 23.37 10 -1.36
v 22.335 10 -0.594
v 22.651 10 -0.772
v 21.531 10 -0.351
v 21.979 10 -0.461
v 20.217 10 -0.11
v 20.94 10 -0.24
v 19.189 10 0.003
v 19.649 10 -0.03
v 22.641 10 -32.791
v 24 10 -46.16
v 19.349 10 -64.864
v 29.577 10 -84.292
v 32.02 10 -85.77
v 54.807 10 -86.087
v 64.92 10 -82.43
v 65.84 10 -82.124
v 79.7 10 -82.47
v 56.212 10 -60.142
v 56.855 10 -46.578
v 49.462 10 -15.608
v 44.41 10 -30.34
v 31.4 10 -22.13
v 22.457 10 -28.944
v 19.245 10 -63.996
v 19.359 10 -64.504
v 50.269 10 -87.233
v 56.635 10 -86.562
v 60.237 10 -84.361
v 62.375 10 -84.053
v 64.541 10 -82.255
v 79.874 10 -82.628
v 56.044 10 -63.663
v 53.942 10 -62.657
v 56.23 10 -60.25
v 56.937 10 -39.906
v 56.837 10 -27.213
v 58.941 10 -8.558
v 43.442 10 -33.086
v 41.19 10 -40.516
v 24.535 10 -2.88
v 18.743 10 -4.227
v 22.118 10 -23.932
v 22.517 10 -29.028
v 22.849 10 -57.944
v 19.327 10 -64.231
v 54.77 10 -86
v 56.401 10 -86.541
v 61.978 10 -83.86
v 65.208 10 -81.847
v 80.011 10 -82.768
v 56.251 10 -60.375
v 56.467 10 -49.68
v 49.672 10 -15.391
v 44.189 10 -31.076
v 40.254 10 -40.61
v 31.06 10 -21.375
v 27.218 10 -8.826
v 27.149 10 -8.28
v 22.754 10 -32.647
v 23.141 10 -57.859
v 30.106 10 -84.604
v 50.076 10 -87.291
v 54.713 10 -85.92
v 56.152 10 -86.525
v 61.652 10 -83.711
v 64.284 10 -82.12
v 64.775 10 -81.684
v 80.11 10 -82.886
v 56.275 10 -60.51
v 56.136 10 -52.449
v 56.923 10 -40.375
v 58.676 10 -9.184
v 50.338 10 -13.799
v 43.955 10 -31.777
v 43.706 10 -32.446
v 24.608 10 -2.964
v 19.234 10 -4.747
v 22.153 10 -23.251
v 22.814 10 -32.356
v 30.58 10 -84.884
v 53.292 10 -85.83
v 54.636 10 -85.85
v 55.9 10 -86.514
v 61.419 10 -83.614
v 64.134 10 -82.012
v 80.165 10 -82.979
v 66.84 10 -76.89
v 55.749 10 -63.857
v 55.873 10 -54.79
v 56.771 10 -26.493
v 58.386 10 -10.025
v 49.941 10 -14.844
v 41.132 10 -40.736
v 27.166 10 -8.561
v 22.165 10 -22.141
v 22.823 10 -31.876
v 23.378 10 -57.726
v 31.25 10 -85.29
v 53.515 10 -85.709
v 61.3 10 -83.58
v 66.746 10 -77.028
v 55.436 10 -64.021
v 55.687 10 -56.609
v 56.709 10 -25.447
v 58.03 10 -11.186
v 24.695 10 -3.023
v 22.153 10 -20.575
v 22.784 10 -31.164
v 23.608 10 -57.526
v 30.97 10 -85.118
v 54.545 10 -85.793
v 60.631 10 -84.042
v 80.173 10 -83.042
v 66.683 10 -77.143
v 55.116 10 -64.147
v 53.809 10 -62.829
v 56.949 10 -40.953
v 56.927 10 -40.727
v 57.57 10 -12.77
v 22.118 10 -18.527
v 23.88 10 -57.24
v 61.182 10 -83.637
v 80.13 10 -83.07
v 66.651 10 -77.236
v 54.8 10 -64.23
v 55.59 10 -59.754
v 55.59 10 -57.81
v 56.649 10 -24.032
v 56.42 10 -16.83
v 30.279 10 -19.396
v 19.719 10 -5.283
v 22.06 10 -15.97
v 24.205 10 -56.874
v 48.769 10 -88.924
v 54.44 10 -85.75
v 64.076 10 -81.92
v 66.65 10 -77.311
v 54.57 10 -64.267
v 55.537 10 -59.568
v 56.59 10 -22.2
v 20.173 10 -5.803
v 21.87 10 -7.97
v 54.07 10 -85.676
v 64.097 10 -81.83
v 54.392 10 -64.275
v 55.523 10 -59.216
v 20.572 10 -6.278
v 22.571 10 -29.192
v 24.41 10 -56.492
v 53.768 10 -85.66
v 64.18 10 -81.73
v 64.492 10 -81.62
v 66.68 10 -77.368
v 54.251 10 -64.25
v 55.542 10 -58.648
v 41.05 10 -40.858
v 20.89 10 -6.68
v 22.62 10 -29.439
v 24.507 10 -55.882
v 64.31 10 -81.64
v 79.12 10 -82.677
v 22.662 10 -29.767
v 24.51 10 -54.831
v 60.953 10 -83.796
v 76.727 10 -81.687
v 54.135 10 -64.189
v 53.736 10 -63.074
v 22.7 10 -30.18
v 24.43 10 -53.125
v 73.622 10 -80.382
v 54.029 10 -64.086
v 30.491 10 -19.988
v 24.28 10 -50.55
v 53.728 10 -63.361
v 30.754 10 -20.654
v 70.476 10 -79.046
v 53.788 10 -63.66
v 53.92 10 -63.94
v 48.778 10 -88.791
v 67.958 10 -77.961
v 40.93 10 -40.909
v 35.769 10 -32.376
v 48.871 10 -88.616
v 40.76 10 -40.92
v 36.416 10 -33.759
v 49.059 10 -88.366
v 66.74 10 -77.41
v 40.609 10 -40.905
v 37.064 10 -35.014
v 49.35 10 -88.01
v 40.479 10 -40.853
v 40.364 10 -40.757
v 49.884 10 -87.427
v 49.655 10 -87.66
f 1 2 3
f 4 1 5
f 6 4 7
f 8 6 9
f 10 8 11
f 12 10 13
f 14 12 15
f 16 17 18
f 19 16 20
f 21 19 22
f 23 21 24
f 25 23 26
f 27 25 28
f 29 30 31
f 32 29 33
f 34 32 35
f 36 34 37
f 38 36 39
f 40 38 41
f 42 43 44
f 45 42 46
f 47 45 48
f 49 47 50
f 51 49 52
f 53 51 54
f 55 53 56
f 57 55 58
f 59 57 60
f 61 59 62
f 63 64 65
f 66 67 68
f 69 70 71
f 72 69 73
f 74 72 75
f 76 74 77
f 78 76 79
f 80 78 81
f 82 80 83
f 84 85 86
f 87 88 89
f 90 87 91
f 92 90 93
f 94 92 95
f 96 94 97
f 98 96 99
f 100 98 101
f 102 100 103
f 104 102 105
f 106 104 107
f 108 106 109
f 110 108 111
f 112 110 113
f 114 112 115
f 116 114 117
f 118 116 119
f 120 118 121
f 122 120 123
f 124 122 125
f 126 124 127
f 128 126 129
f 130 131 132
f 133 130 134
f 135 133 136
f 137 135 138
f 139 140 141
f 142 139 143
f 144 142 145
f 146 147 148
f 149 146 150
f 151 149 152
f 153 151 154
f 155 156 157
f 158 155 159
f 160 158 161
f 162 160 163
f 164 162 165
f 166 164 167
f 168 166 169
f 170 171 172
f 173 170 174
f 175 173 176
f 177 178 179
f 180 177 181
f 182 180 183
f 184 182 185
f 186 184 187
f 188 186 189
f 190 188 191
f 192 190 193
f 194 192 195
f 196 194 197
f 198 196 199
f 200 198 201
f 202 200 203
f 204 205 206
f 207 204 208
f 209 207 210
f 211 209 212
f 213 211 214
f 215 213 216
f 217 215 218
f 219 217 220
f 221 219 222
f 223 221 224
f 225 226 227
f 228 225 229
f 230 228 231
f 232 230 233
f 234 232 235
f 236 234 237
f 238 236 239
f 240 238 241
f 242 240 243
f 244 242 245
f 246 244 247
f 248 249 250
f 251 248 252
f 253 251 254
f 255 253 256
f 257 255 258
f 259 257 260
f 261 262 263
f 264 261 265
f 266 264 267
f 268 266 269
f 270 271 272
f 273 270 274
f 275 273 276
f 277 278 279
f 280 277 281
f 282 280 283
f 284 282 285
f 286 287 288
f 289 286 290
f 291 289 292
f 293 291 294
f 295 293 296
f 297 295 298
f 299 297 300
f 301 299 302
f 303 301 304
f 305 303 306
f 307 305 308
f 309 310 311
f 312 309 313
f 314 312 315
f 316 314 317
f 318 316 319
f 320 318 321
f 322 323 324
f 325 322 326
f 327 325 328
f 329 330 331
f 332 329 333
f 334 332 335
f 336 334 337
f 338 339 340
f 341 338 342
f 343 341 344
f 345 343 346
f 347 348 349
f 350 347 351
f 352 350 353
f 354 355 356
f 357 354 358
f 359 357 360
f 361 359 362
f 363 364 365
f 366 363 367
f 368 366 369
f 370 368 371
f 372 370 373
f 374 372 375
f 376 374 377
f 378 376 379
f 380 378 381
f 382 380 383
f 384 385 386
f 387 384 388
f 389 387 390
f 391 389 392
f 393 391 394
f 395 393 396
f 397 395 398
f 399 397 400
f 1 399 2
f 6 1 4
f 10 6 8
f 14 10 12
f 19 17 16
f 23 19 21
f 27 23 25
f 29 401 30
f 34 29 32
f 38 34 36
f 402 38 40
f 45 43 42
f 49 45 47
f 53 49 51
f 57 53 55
f 61 57 59
f 63 403 64
f 70 67 66
f 72 70 69
f 76 72 74
f 80 76 78
f 404 80 82
f 84 405 85
f 90 88 87
f 94 90 92
f 98 94 96
f 102 98 100
f 106 102 104
f 110 106 108
f 114 110 112
f 118 114 116
f 122 118 120
f 126 122 124
f 133 131 130
f 137 133 135
f 139 406 140
f 144 139 142
f 149 147 146
f 153 149 151
f 158 156 155
f 162 158 160
f 166 162 164
f 407 166 168
f 170 408 171
f 175 170 173
f 180 178 177
f 184 180 182
f 188 184 186
f 192 188 190
f 196 192 194
f 200 196 198
f 409 200 202
f 207 205 204
f 211 207 209
f 215 211 213
f 219 215 217
f 223 219 221
f 225 223 226
f 230 225 228
f 234 230 232
f 238 234 236
f 242 238 240
f 246 242 244
f 251 249 248
f 255 251 253
f 259 255 257
f 261 410 262
f 266 261 264
f 270 411 271
f 275 270 273
f 280 278 277
f 284 280 282
f 289 287 286
f 293 289 291
f 297 293 295
f 301 297 299
f 305 301 303
f 309 412 310
f 314 309 312
f 318 314 316
f 323 318 320
f 325 323 322
f 413 325 327
f 332 330 329
f 336 332 334
f 341 339 338
f 345 341 343
f 350 348 347
f 414 350 352
f 357 355 354
f 361 357 359
f 366 364 363
f 370 366 368
f 374 370 372
f 378 374 376
f 382 378 380
f 387 385 384
f 391 387 389
f 395 391 393
f 399 395 397
f 6 399 1
f 14 6 10
f 23 17 19
f 415 23 27
f 34 401 29
f 402 34 38
f 49 43 45
f 57 49 53
f 416 57 61
f 63 417 403
f 76 70 72
f 404 76 80
f 88 405 84
f 94 88 90
f 102 94 98
f 110 102 106
f 118 110 114
f 126 118 122
f 133 418 131
f 144 406 139
f 149 419 147
f 420 149 153
f 158 421 156
f 166 158 162
f 422 166 407
f 175 408 170
f 184 178 180
f 192 184 188
f 200 192 196
f 423 200 409
f 211 205 207
f 219 211 215
f 234 225 230
f 242 234 238
f 424 242 246
f 251 425 249
f 259 251 255
f 261 426 410
f 268 261 266
f 275 411 270
f 280 427 278
f 428 280 284
f 289 429 287
f 297 289 293
f 305 297 301
f 314 412 309
f 323 314 318
f 413 323 325
f 332 430 330
f 431 332 336
f 345 339 341
f 414 348 350
f 361 355 357
f 370 364 366
f 378 370 374
f 387 432 385
f 395 387 391
f 6 395 399
f 433 6 14
f 23 434 17
f 435 23 415
f 402 401 34
f 49 436 43
f 416 49 57
f 63 437 417
f 404 70 76
f 102 88 94
f 118 102 110
f 128 118 126
f 137 418 133
f 144 438 406
f 149 439 419
f 158 440 421
f 422 158 166
f 175 441 408
f 200 184 192
f 442 200 423
f 219 205 211
f 242 225 234
f 259 425 251
f 261 443 426
f 275 444 411
f 428 427 280
f 297 429 289
f 307 297 305
f 314 445 412
f 446 323 413
f 431 430 332
f 345 447 339
f 448 348 414
f 449 355 361
f 370 450 364
f 382 370 378
f 395 432 387
f 433 395 6
f 435 434 23
f 402 451 401
f 49 452 436
f 437 49 416
f 67 437 63
f 453 70 404
f 102 405 88
f 128 102 118
f 137 454 418
f 144 455 438
f 149 456 439
f 158 457 440
f 458 158 422
f 175 459 441
f 460 200 442
f 223 205 219
f 424 225 242
f 461 425 259
f 261 461 443
f 275 462 444
f 428 463 427
f 297 464 429
f 465 297 307
f 323 445 314
f 466 323 446
f 431 467 430
f 382 450 370
f 395 468 432
f 469 395 433
f 435 470 434
f 402 471 451
f 437 452 49
f 70 437 67
f 472 70 453
f 128 405 102
f 473 454 137
f 144 474 455
f 149 475 456
f 158 476 457
f 477 158 458
f 178 459 175
f 478 200 460
f 223 479 205
f 480 225 424
f 261 425 461
f 275 481 462
f 482 463 428
f 297 483 464
f 484 297 465
f 323 484 445
f 467 323 466
f 485 467 431
f 382 486 450
f 469 468 395
f 435 487 470
f 402 488 471
f 437 489 452
f 472 437 70
f 128 490 405
f 491 454 473
f 475 474 144
f 420 475 149
f 158 492 476
f 478 184 200
f 223 493 479
f 494 225 480
f 268 425 261
f 275 495 481
f 496 463 482
f 297 497 483
f 323 297 484
f 485 323 467
f 382 449 486
f 469 498 468
f 435 499 487
f 402 500 488
f 437 501 489
f 502 437 472
f 128 502 490
f 475 503 474
f 504 475 420
f 477 492 158
f 505 184 478
f 223 506 493
f 507 225 494
f 268 508 425
f 509 495 275
f 496 510 463
f 297 511 497
f 485 297 323
f 382 355 449
f 469 382 498
f 435 512 499
f 437 513 501
f 128 437 502
f 504 503 475
f 477 514 492
f 515 184 505
f 223 516 506
f 517 225 507
f 518 508 268
f 509 519 495
f 520 510 496
f 297 521 511
f 382 522 355
f 523 382 469
f 435 524 512
f 437 525 513
f 526 437 128
f 504 527 503
f 528 514 477
f 515 178 184
f 223 529 516
f 530 225 517
f 531 508 518
f 510 519 509
f 532 510 520
f 485 521 297
f 533 382 523
f 435 534 524
f 526 525 437
f 504 535 527
f 536 514 528
f 515 459 178
f 225 529 223
f 537 225 530
f 538 508 531
f 532 519 510
f 485 532 521
f 539 382 533
f 540 534 435
f 526 541 525
f 504 542 535
f 543 514 536
f 515 544 459
f 225 545 529
f 546 225 537
f 547 508 538
f 532 547 519
f 548 532 485
f 549 382 539
f 550 534 540
f 526 551 541
f 504 491 542
f 552 514 543
f 553 544 515
f 546 545 225
f 532 508 547
f 534 382 549
f 554 534 550
f 526 555 551
f 556 491 504
f 557 544 553
f 558 545 546
f 532 559 508
f 534 522 382
f 560 534 554
f 526 561 555
f 514 491 556
f 562 544 557
f 563 545 558
f 548 559 532
f 534 564 522
f 500 534 560
f 526 565 561
f 552 491 514
f 562 552 544
f 548 566 559
f 534 567 564
f 402 534 500
f 526 402 565
f 568 552 562
f 548 569 566
f 534 448 567
f 526 534 402
f 568 491 552
f 548 570 569
f 534 348 448
f 571 534 526
f 572 491 568
f 573 570 548
f 534 574 348
f 575 534 571
f 572 454 491
f 576 570 573
f 534 577 574
f 578 534 575
f 579 454 572
f 580 570 576
f 534 581 577
f 582 534 578
f 545 454 579
f 583 570 580
f 582 581 534
f 563 454 545
f 584 570 583
f 582 345 581
f 563 585 454
f 447 570 584
f 582 447 345
f 563 586 585
f 582 570 447
f 563 582 586
f 582 563 570
f 587 588 589
f 588 590 591
f 590 592 593
f 592 594 595
f 594 596 597
f 596 598 599
f 598 600 601
f 602 603 604
f 603 605 606
f 605 607 608
f 607 609 610
f 609 611 612
f 611 613 614
f 615 616 617
f 616 618 619
f 618 620 621
f 620 622 623
f 622 624 625
f 624 626 627
f 628 629 630
f 629 631 632
f 631 633 634
f 633 635 636
f 635 637 638
f 637 639 640
f 639 641 642
f 641 643 644
f 643 645 646
f 645 647 648
f 649 650 651
f 652 653 654
f 655 656 657
f 656 658 659
f 658 660 661
f 660 662 663
f 662 664 665
f 664 666 667
f 666 668 669
f 670 671 672
f 673 674 675
f 674 676 677
f 676 678 679
f 678 680 681
f 680 682 683
f 682 684 685
f 684 686 687
f 686 688 689
f 688 690 691
f 690 692 693
f 692 694 695
f 694 696 697
f 696 698 699
f 698 700 701
f 700 702 703
f 702 704 705
f 704 706 707
f 706 708 709
f 708 710 711
f 710 712 713
f 712 714 715
f 716 717 718
f 717 719 720
f 719 721 722
f 721 723 724
f 725 726 727
f 726 728 729
f 728 730 731
f 732 733 734
f 733 735 736
f 735 737 738
f 737 739 740
f 741 742 743
f 742 744 745
f 744 746 747
f 746 748 749
f 748 750 751
f 750 752 753
f 752 754 755
f 756 757 758
f 757 759 760
f 759 761 762
f 763 764 765
f 764 766 767
f 766 768 769
f 768 770 771
f 770 772 773
f 772 774 775
f 774 776 777
f 776 778 779
f 778 780 781
f 780 782 783
f 782 784 785
f 784 786 787
f 786 788 789
f 790 791 792
f 791 793 794
f 793 795 796
f 795 797 798
f 797 799 800
f 799 801 802
f 801 803 804
f 803 805 806
f 805 807 808
f 807 809 810
f 811 812 813
f 812 814 815
f 814 816 817
f 816 818 819
f 818 820 821
f 820 822 823
f 822 824 825
f 824 826 827
f 826 828 829
f 828 830 831
f 830 832 833
f 834 835 836
f 835 837 838
f 837 839 840
f 839 841 842
f 841 843 844
f 843 845 846
f 847 848 849
f 848 850 851
f 850 852 853
f 852 854 855
f 856 857 858
f 857 859 860
f 859 861 862
f 863 864 865
f 864 866 867
f 866 868 869
f 868 870 871
f 872 873 874
f 873 875 876
f 875 877 878
f 877 879 880
f 879 881 882
f 881 883 884
f 883 885 886
f 885 887 888
f 887 889 890
f 889 891 892
f 891 893 894
f 895 896 897
f 896 898 899
f 898 900 901
f 900 902 903
f 902 904 905
f 904 906 907
f 908 909 910
f 909 911 912
f 911 913 914
f 915 916 917
f 916 918 919
f 918 920 921
f 920 922 923
f 924 925 926
f 925 927 928
f 927 929 930
f 929 931 932
f 933 934 935
f 934 936 937
f 936 938 939
f 940 941 942
f 941 943 944
f 943 945 946
f 945 947 948
f 949 950 951
f 950 952 953
f 952 954 955
f 954 956 957
f 956 958 959
f 958 960 961
f 960 962 963
f 962 964 965
f 964 966 967
f 966 968 969
f 970 971 972
f 971 973 974
f 973 975 976
f 975 977 978
f 977 979 980
f 979 981 982
f 981 983 984
f 983 985 986
f 985 588 587
f 588 592 590
f 592 596 594
f 596 600 598
f 602 605 603
f 605 609 607
f 609 613 611
f 987 616 615
f 616 620 618
f 620 624 622
f 624 988 626
f 628 631 629
f 631 635 633
f 635 639 637
f 639 643 641
f 643 647 645
f 989 650 649
f 652 655 653
f 655 658 656
f 658 662 660
f 662 666 664
f 666 990 668
f 991 671 670
f 673 676 674
f 676 680 678
f 680 684 682
f 684 688 686
f 688 692 690
f 692 696 694
f 696 700 698
f 700 704 702
f 704 708 706
f 708 712 710
f 716 719 717
f 719 723 721
f 992 726 725
f 726 730 728
f 732 735 733
f 735 739 737
f 741 744 742
f 744 748 746
f 748 752 750
f 752 993 754
f 994 757 756
f 757 761 759
f 763 766 764
f 766 770 768
f 770 774 772
f 774 778 776
f 778 782 780
f 782 786 784
f 786 995 788
f 790 793 791
f 793 797 795
f 797 801 799
f 801 805 803
f 805 809 807
f 809 812 811
f 812 816 814
f 816 820 818
f 820 824 822
f 824 828 826
f 828 832 830
f 834 837 835
f 837 841 839
f 841 845 843
f 996 848 847
f 848 852 850
f 997 857 856
f 857 861 859
f 863 866 864
f 866 870 868
f 872 875 873
f 875 879 877
f 879 883 881
f 883 887 885
f 887 891 889
f 998 896 895
f 896 900 898
f 900 904 902
f 904 908 906
f 908 911 909
f 911 999 913
f 915 918 916
f 918 922 920
f 924 927 925
f 927 931 929
f 933 936 934
f 936 1000 938
f 940 943 941
f 943 947 945
f 949 952 950
f 952 956 954
f 956 960 958
f 960 964 962
f 964 968 966
f 970 973 971
f 973 977 975
f 977 981 979
f 981 985 983
f 985 592 588
f 592 600 596
f 602 609 605
f 609 1001 613
f 987 620 616
f 620 988 624
f 628 635 631
f 635 643 639
f 643 1002 647
f 1003 650 989
f 655 662 658
f 662 990 666
f 991 673 671
f 673 680 676
f 680 688 684
f 688 696 692
f 696 704 700
f 704 712 708
f 1004 719 716
f 992 730 726
f 1005 735 732
f 735 1006 739
f 1007 744 741
f 744 752 748
f 752 1008 993
f 994 761 757
f 763 770 766
f 770 778 774
f 778 786 782
f 786 1009 995
f 790 797 793
f 797 805 801
f 812 820 816
f 820 828 824
f 828 1010 832
f 1011 837 834
f 837 845 841
f 1012 848 996
f 848 854 852
f 997 861 857
f 1013 866 863
f 866 1014 870
f 1015 875 872
f 875 883 879
f 883 891 887
f 998 900 896
f 900 908 904
f 908 999 911
f 1016 918 915
f 918 1017 922
f 924 931 927
f 933 1000 936
f 940 947 943
f 949 956 952
f 956 964 960
f 1018 973 970
f 973 981 977
f 981 592 985
f 592 1019 600
f 1020 609 602
f 609 1021 1001
f 987 988 620
f 1022 635 628
f 635 1002 643
f 1023 650 1003
f 655 990 662
f 673 688 680
f 688 704 696
f 704 714 712
f 1004 723 719
f 1024 730 992
f 1025 735 1005
f 1026 744 1007
f 744 1008 752
f 1027 761 994
f 770 786 778
f 786 1028 1009
f 790 805 797
f 812 828 820
f 1011 845 837
f 1029 848 1012
f 1030 861 997
f 1013 1014 866
f 1015 883 875
f 883 893 891
f 1031 900 998
f 908 1032 999
f 1016 1017 918
f 1033 931 924
f 933 1034 1000
f 940 1035 947
f 1036 956 949
f 956 968 964
f 1018 981 973
f 981 1019 592
f 1020 1021 609
f 1037 988 987
f 1038 635 1022
f 635 1023 1002
f 1023 652 650
f 655 1039 990
f 991 688 673
f 688 714 704
f 1040 723 1004
f 1041 730 1024
f 1042 735 1025
f 1043 744 1026
f 744 1044 1008
f 1045 761 1027
f 786 1046 1028
f 790 809 805
f 812 1010 828
f 1011 1047 845
f 1047 848 1029
f 1048 861 1030
f 1049 1014 1013
f 1050 883 1015
f 883 1051 893
f 1031 908 900
f 908 1052 1032
f 1053 1017 1016
f 1036 968 956
f 1054 981 1018
f 981 1055 1019
f 1056 1021 1020
f 1057 988 1037
f 1038 1023 635
f 1023 655 652
f 655 1058 1039
f 991 714 688
f 1040 1059 723
f 1060 730 1041
f 1061 735 1042
f 1062 744 1043
f 744 1063 1044
f 1045 763 761
f 786 1064 1046
f 1065 809 790
f 812 1066 1010
f 1011 848 1047
f 1067 861 1048
f 1049 1068 1014
f 1069 883 1050
f 883 1070 1051
f 1070 908 1031
f 908 1053 1052
f 1053 1071 1017
f 1072 968 1036
f 1054 1055 981
f 1073 1021 1056
f 1074 988 1057
f 1075 1023 1038
f 1023 1058 655
f 1076 714 991
f 1040 1077 1059
f 1060 1061 730
f 1061 1006 735
f 1078 744 1062
f 770 1064 786
f 1079 809 1065
f 812 1080 1066
f 1011 854 848
f 1081 861 1067
f 1049 1082 1068
f 1083 883 1069
f 883 908 1070
f 908 1071 1053
f 1035 968 1072
f 1084 1055 1054
f 1085 1021 1073
f 1086 988 1074
f 1087 1023 1075
f 1023 1088 1058
f 1088 714 1076
f 1089 1061 1060
f 1061 1090 1006
f 1078 1063 744
f 770 1091 1064
f 1092 809 1079
f 812 1093 1080
f 1094 854 1011
f 1081 1095 861
f 1096 1082 1049
f 1097 883 1083
f 883 1071 908
f 940 968 1035
f 968 1055 1084
f 1098 1021 1085
f 1099 1023 1087
f 1023 714 1088
f 1089 1090 1061
f 1100 1063 1078
f 770 1101 1091
f 1102 809 1092
f 812 1103 1093
f 1094 1104 854
f 1105 1095 1081
f 1096 1106 1082
f 1107 883 1097
f 1108 968 940
f 968 1109 1055
f 1110 1021 1098
f 1111 1023 1099
f 1023 1112 714
f 1113 1090 1089
f 1100 1114 1063
f 763 1101 770
f 1115 809 1102
f 812 1116 1103
f 1094 1117 1104
f 1105 1096 1095
f 1096 1118 1106
f 1107 1071 883
f 968 1119 1109
f 1120 1021 1110
f 1111 1112 1023
f 1121 1090 1113
f 1100 1122 1114
f 1045 1101 763
f 1115 812 809
f 812 1123 1116
f 1094 1124 1117
f 1105 1118 1096
f 1118 1071 1107
f 968 1125 1119
f 1120 1126 1021
f 1127 1112 1111
f 1128 1090 1121
f 1100 1129 1122
f 1130 1101 1045
f 1131 812 1115
f 812 1132 1123
f 1094 1133 1124
f 1133 1118 1105
f 1118 1134 1071
f 968 1135 1125
f 1120 1136 1126
f 1137 1112 1127
f 1077 1090 1128
f 1100 1138 1129
f 1130 1139 1101
f 1131 1132 812
f 1094 1118 1133
f 968 1120 1135
f 1120 1140 1136
f 1141 1112 1137
f 1077 1142 1090
f 1130 1143 1139
f 1131 1144 1132
f 1145 1118 1094
f 1108 1120 968
f 1120 1146 1140
f 1147 1112 1141
f 1077 1100 1142
f 1130 1148 1143
f 1131 1149 1144
f 1145 1134 1118
f 1150 1120 1108
f 1120 1086 1146
f 1151 1112 1147
f 1077 1138 1100
f 1138 1148 1130
f 1152 1134 1145
f 1153 1120 1150
f 1120 988 1086
f 988 1112 1151
f 1138 1154 1148
f 1155 1134 1152
f 1034 1120 1153
f 1120 1112 988
f 1077 1154 1138
f 1156 1134 1155
f 933 1120 1034
f 1120 1157 1112
f 1077 1158 1154
f 1156 1159 1134
f 1160 1120 933
f 1120 1161 1157
f 1040 1158 1077
f 1156 1162 1159
f 1163 1120 1160
f 1120 1164 1161
f 1040 1165 1158
f 1156 1166 1162
f 1167 1120 1163
f 1120 1168 1164
f 1040 1131 1165
f 1156 1169 1166
f 1167 1168 1120
f 1040 1149 1131
f 1156 1170 1169
f 931 1168 1167
f 1171 1149 1040
f 1156 1033 1170
f 1033 1168 931
f 1172 1149 1171
f 1156 1168 1033
f 1168 1149 1172
f 1149 1168 1156
f 1 588 5
f 5 588 591
f 5 591 4
f 4 591 590
f 4 590 7
f 7 590 593
f 7 593 6
f 6 593 592
f 6 592 9
f 9 592 595
f 9 595 8
f 8 595 594
f 8 594 11
f 11 594 597
f 11 597 10
f 10 597 596
f 10 596 13
f 13 596 599
f 13 599 12
f 12 599 598
f 12 598 15
f 15 598 601
f 15 601 14
f 14 601 600
f 14 600 433
f 433 600 1019
f 433 1019 469
f 469 1019 1055
f 469 1055 523
f 523 1055 1109
f 523 1109 533
f 533 1109 1119
f 533 1119 539
f 539 1119 1125
f 539 1125 549
f 549 1125 1135
f 549 1135 534
f 534 1135 1120
f 534 1120 524
f 524 1120 1110
f 524 1110 512
f 512 1110 1098
f 512 1098 499
f 499 1098 1085
f 499 1085 487
f 487 1085 1073
f 487 1073 470
f 470 1073 1056
f 470 1056 434
f 434 1056 1020
f 434 1020 17
f 17 1020 602
f 17 602 18
f 18 602 604
f 18 604 16
f 16 604 603
f 16 603 20
f 20 603 606
f 20 606 19
f 19 606 605
f 19 605 22
f 22 605 608
f 22 608 21
f 21 608 607
f 21 607 24
f 24 607 610
f 24 610 23
f 23 610 609
f 23 609 26
f 26 609 612
f 26 612 25
f 25 612 611
f 25 611 28
f 28 611 614
f 28 614 27
f 27 614 613
f 27 613 415
f 415 613 1001
f 415 1001 435
f 435 1001 1021
f 435 1021 540
f 540 1021 1126
f 540 1126 550
f 550 1126 1136
f 550 1136 554
f 554 1136 1140
f 554 1140 560
f 560 1140 1146
f 560 1146 500
f 500 1146 1086
f 500 1086 488
f 488 1086 1074
f 488 1074 471
f 471 1074 1057
f 471 1057 451
f 451 1057 1037
f 451 1037 401
f 401 1037 987
f 401 987 30
f 30 987 615
f 30 615 31
f 31 615 617
f 31 617 29
f 29 617 616
f 29 616 33
f 33 616 619
f 33 619 32
f 32 619 618
f 32 618 35
f 35 618 621
f 35 621 34
f 34 621 620
f 34 620 37
f 37 620 623
f 37 623 36
f 36 623 622
f 36 622 39
f 39 622 625
f 39 625 38
f 38 625 624
f 38 624 41
f 41 624 627
f 41 627 40
f 40 627 626
f 40 626 402
f 402 626 988
f 402 988 565
f 565 988 1151
f 565 1151 561
f 561 1151 1147
f 561 1147 555
f 555 1147 1141
f 555 1141 551
f 551 1141 1137
f 551 1137 541
f 541 1137 1127
f 541 1127 525
f 525 1127 1111
f 525 1111 513
f 513 1111 1099
f 513 1099 501
f 501 1099 1087
f 501 1087 489
f 489 1087 1075
f 489 1075 452
f 452 1075 1038
f 452 1038 436
f 436 1038 1022
f 436 1022 43
f 43 1022 628
f 43 628 44
f 44 628 630
f 44 630 42
f 42 630 629
f 42 629 46
f 46 629 632
f 46 632 45
f 45 632 631
f 45 631 48
f 48 631 634
f 48 634 47
f 47 634 633
f 47 633 50
f 50 633 636
f 50 636 49
f 49 636 635
f 49 635 52
f 52 635 638
f 52 638 51
f 51 638 637
f 51 637 54
f 54 637 640
f 54 640 53
f 53 640 639
f 53 639 56
f 56 639 642
f 56 642 55
f 55 642 641
f 55 641 58
f 58 641 644
f 58 644 57
f 57 644 643
f 57 643 60
f 60 643 646
f 60 646 59
f 59 646 645
f 59 645 62
f 62 645 648
f 62 648 61
f 61 648 647
f 61 647 416
f 416 647 1002
f 416 1002 437
f 437 1002 1023
f 437 1023 417
f 417 1023 1003
f 417 1003 403
f 403 1003 989
f 403 989 64
f 64 989 649
f 64 649 65
f 65 649 651
f 65 651 63
f 63 651 650
f 63 650 67
f 67 650 652
f 67 652 68
f 68 652 654
f 68 654 66
f 66 654 653
f 66 653 70
f 70 653 655
f 70 655 71
f 71 655 657
f 71 657 69
f 69 657 656
f 69 656 73
f 73 656 659
f 73 659 72
f 72 659 658
f 72 658 75
f 75 658 661
f 75 661 74
f 74 661 660
f 74 660 77
f 77 660 663
f 77 663 76
f 76 663 662
f 76 662 79
f 79 662 665
f 79 665 78
f 78 665 664
f 78 664 81
f 81 664 667
f 81 667 80
f 80 667 666
f 80 666 83
f 83 666 669
f 83 669 82
f 82 669 668
f 82 668 404
f 404 668 990
f 404 990 453
f 453 990 1039
f 453 1039 472
f 472 1039 1058
f 472 1058 502
f 502 1058 1088
f 502 1088 490
f 490 1088 1076
f 490 1076 405
f 405 1076 991
f 405 991 85
f 85 991 670
f 85 670 86
f 86 670 672
f 86 672 84
f 84 672 671
f 84 671 88
f 88 671 673
f 88 673 89
f 89 673 675
f 89 675 87
f 87 675 674
f 87 674 91
f 91 674 677
f 91 677 90
f 90 677 676
f 90 676 93
f 93 676 679
f 93 679 92
f 92 679 678
f 92 678 95
f 95 678 681
f 95 681 94
f 94 681 680
f 94 680 97
f 97 680 683
f 97 683 96
f 96 683 682
f 96 682 99
f 99 682 685
f 99 685 98
f 98 685 684
f 98 684 101
f 101 684 687
f 101 687 100
f 100 687 686
f 100 686 103
f 103 686 689
f 103 689 102
f 102 689 688
f 102 688 105
f 105 688 691
f 105 691 104
f 104 691 690
f 104 690 107
f 107 690 693
f 107 693 106
f 106 693 692
f 106 692 109
f 109 692 695
f 109 695 108
f 108 695 694
f 108 694 111
f 111 694 697
f 111 697 110
f 110 697 696
f 110 696 113
f 113 696 699
f 113 699 112
f 112 699 698
f 112 698 115
f 115 698 701
f 115 701 114
f 114 701 700
f 114 700 117
f 117 700 703
f 117 703 116
f 116 703 702
f 116 702 119
f 119 702 705
f 119 705 118
f 118 705 704
f 118 704 121
f 121 704 707
f 121 707 120
f 120 707 706
f 120 706 123
f 123 706 709
f 123 709 122
f 122 709 708
f 122 708 125
f 125 708 711
f 125 711 124
f 124 711 710
f 124 710 127
f 127 710 713
f 127 713 126
f 126 713 712
f 126 712 129
f 129 712 715
f 129 715 128
f 128 715 714
f 128 714 526
f 526 714 1112
f 526 1112 571
f 571 1112 1157
f 571 1157 575
f 575 1157 1161
f 575 1161 578
f 578 1161 1164
f 578 1164 582
f 582 1164 1168
f 582 1168 586
f 586 1168 1172
f 586 1172 585
f 585 1172 1171
f 585 1171 454
f 454 1171 1040
f 454 1040 418
f 418 1040 1004
f 418 1004 131
f 131 1004 716
f 131 716 132
f 132 716 718
f 132 718 130
f 130 718 717
f 130 717 134
f 134 717 720
f 134 720 133
f 133 720 719
f 133 719 136
f 136 719 722
f 136 722 135
f 135 722 721
f 135 721 138
f 138 721 724
f 138 724 137
f 137 724 723
f 137 723 473
f 473 723 1059
f 473 1059 491
f 491 1059 1077
f 491 1077 542
f 542 1077 1128
f 542 1128 535
f 535 1128 1121
f 535 1121 527
f 527 1121 1113
f 527 1113 503
f 503 1113 1089
f 503 1089 474
f 474 1089 1060
f 474 1060 455
f 455 1060 1041
f 455 1041 438
f 438 1041 1024
f 438 1024 406
f 406 1024 992
f 406 992 140
f 140 992 725
f 140 725 141
f 141 725 727
f 141 727 139
f 139 727 726
f 139 726 143
f 143 726 729
f 143 729 142
f 142 729 728
f 142 728 145
f 145 728 731
f 145 731 144
f 144 731 730
f 144 730 475
f 475 730 1061
f 475 1061 456
f 456 1061 1042
f 456 1042 439
f 439 1042 1025
f 439 1025 419
f 419 1025 1005
f 419 1005 147
f 147 1005 732
f 147 732 148
f 148 732 734
f 148 734 146
f 146 734 733
f 146 733 150
f 150 733 736
f 150 736 149
f 149 736 735
f 149 735 152
f 152 735 738
f 152 738 151
f 151 738 737
f 151 737 154
f 154 737 740
f 154 740 153
f 153 740 739
f 153 739 420
f 420 739 1006
f 420 1006 504
f 504 1006 1090
f 504 1090 556
f 556 1090 1142
f 556 1142 514
f 514 1142 1100
f 514 1100 492
f 492 1100 1078
f 492 1078 476
f 476 1078 1062
f 476 1062 457
f 457 1062 1043
f 457 1043 440
f 440 1043 1026
f 440 1026 421
f 421 1026 1007
f 421 1007 156
f 156 1007 741
f 156 741 157
f 157 741 743
f 157 743 155
f 155 743 742
f 155 742 159
f 159 742 745
f 159 745 158
f 158 745 744
f 158 744 161
f 161 744 747
f 161 747 160
f 160 747 746
f 160 746 163
f 163 746 749
f 163 749 162
f 162 749 748
f 162 748 165
f 165 748 751
f 165 751 164
f 164 751 750
f 164 750 167
f 167 750 753
f 167 753 166
f 166 753 752
f 166 752 169
f 169 752 755
f 169 755 168
f 168 755 754
f 168 754 407
f 407 754 993
f 407 993 422
f 422 993 1008
f 422 1008 458
f 458 1008 1044
f 458 1044 477
f 477 1044 1063
f 477 1063 528
f 528 1063 1114
f 528 1114 536
f 536 1114 1122
f 536 1122 543
f 543 1122 1129
f 543 1129 552
f 552 1129 1138
f 552 1138 544
f 544 1138 1130
f 544 1130 459
f 459 1130 1045
f 459 1045 441
f 441 1045 1027
f 441 1027 408
f 408 1027 994
f 408 994 171
f 171 994 756
f 171 756 172
f 172 756 758
f 172 758 170
f 170 758 757
f 170 757 174
f 174 757 760
f 174 760 173
f 173 760 759
f 173 759 176
f 176 759 762
f 176 762 175
f 175 762 761
f 175 761 178
f 178 761 763
f 178 763 179
f 179 763 765
f 179 765 177
f 177 765 764
f 177 764 181
f 181 764 767
f 181 767 180
f 180 767 766
f 180 766 183
f 183 766 769
f 183 769 182
f 182 769 768
f 182 768 185
f 185 768 771
f 185 771 184
f 184 771 770
f 184 770 187
f 187 770 773
f 187 773 186
f 186 773 772
f 186 772 189
f 189 772 775
f 189 775 188
f 188 775 774
f 188 774 191
f 191 774 777
f 191 777 190
f 190 777 776
f 190 776 193
f 193 776 779
f 193 779 192
f 192 779 778
f 192 778 195
f 195 778 781
f 195 781 194
f 194 781 780
f 194 780 197
f 197 780 783
f 197 783 196
f 196 783 782
f 196 782 199
f 199 782 785
f 199 785 198
f 198 785 784
f 198 784 201
f 201 784 787
f 201 787 200
f 200 787 786
f 200 786 203
f 203 786 789
f 203 789 202
f 202 789 788
f 202 788 409
f 409 788 995
f 409 995 423
f 423 995 1009
f 423 1009 442
f 442 1009 1028
f 442 1028 460
f 460 1028 1046
f 460 1046 478
f 478 1046 1064
f 478 1064 505
f 505 1064 1091
f 505 1091 515
f 515 1091 1101
f 515 1101 553
f 553 1101 1139
f 553 1139 557
f 557 1139 1143
f 557 1143 562
f 562 1143 1148
f 562 1148 568
f 568 1148 1154
f 568 1154 572
f 572 1154 1158
f 572 1158 579
f 579 1158 1165
f 579 1165 545
f 545 1165 1131
f 545 1131 529
f 529 1131 1115
f 529 1115 516
f 516 1115 1102
f 516 1102 506
f 506 1102 1092
f 506 1092 493
f 493 1092 1079
f 493 1079 479
f 479 1079 1065
f 479 1065 205
f 205 1065 790
f 205 790 206
f 206 790 792
f 206 792 204
f 204 792 791
f 204 791 208
f 208 791 794
f 208 794 207
f 207 794 793
f 207 793 210
f 210 793 796
f 210 796 209
f 209 796 795
f 209 795 212
f 212 795 798
f 212 798 211
f 211 798 797
f 211 797 214
f 214 797 800
f 214 800 213
f 213 800 799
f 213 799 216
f 216 799 802
f 216 802 215
f 215 802 801
f 215 801 218
f 218 801 804
f 218 804 217
f 217 804 803
f 217 803 220
f 220 803 806
f 220 806 219
f 219 806 805
f 219 805 222
f 222 805 808
f 222 808 221
f 221 808 807
f 221 807 224
f 224 807 810
f 224 810 223
f 223 810 809
f 223 809 226
f 226 809 811
f 226 811 227
f 227 811 813
f 227 813 225
f 225 813 812
f 225 812 229
f 229 812 815
f 229 815 228
f 228 815 814
f 228 814 231
f 231 814 817
f 231 817 230
f 230 817 816
f 230 816 233
f 233 816 819
f 233 819 232
f 232 819 818
f 232 818 235
f 235 818 821
f 235 821 234
f 234 821 820
f 234 820 237
f 237 820 823
f 237 823 236
f 236 823 822
f 236 822 239
f 239 822 825
f 239 825 238
f 238 825 824
f 238 824 241
f 241 824 827
f 241 827 240
f 240 827 826
f 240 826 243
f 243 826 829
f 243 829 242
f 242 829 828
f 242 828 245
f 245 828 831
f 245 831 244
f 244 831 830
f 244 830 247
f 247 830 833
f 247 833 246
f 246 833 832
f 246 832 424
f 424 832 1010
f 424 1010 480
f 480 1010 1066
f 480 1066 494
f 494 1066 1080
f 494 1080 507
f 507 1080 1093
f 507 1093 517
f 517 1093 1103
f 517 1103 530
f 530 1103 1116
f 530 1116 537
f 537 1116 1123
f 537 1123 546
f 546 1123 1132
f 546 1132 558
f 558 1132 1144
f 558 1144 563
f 563 1144 1149
f 563 1149 570
f 570 1149 1156
f 570 1156 569
f 569 1156 1155
f 569 1155 566
f 566 1155 1152
f 566 1152 559
f 559 1152 1145
f 559 1145 508
f 508 1145 1094
f 508 1094 425
f 425 1094 1011
f 425 1011 249
f 249 1011 834
f 249 834 250
f 250 834 836
f 250 836 248
f 248 836 835
f 248 835 252
f 252 835 838
f 252 838 251
f 251 838 837
f 251 837 254
f 254 837 840
f 254 840 253
f 253 840 839
f 253 839 256
f 256 839 842
f 256 842 255
f 255 842 841
f 255 841 258
f 258 841 844
f 258 844 257
f 257 844 843
f 257 843 260
f 260 843 846
f 260 846 259
f 259 846 845
f 259 845 461
f 461 845 1047
f 461 1047 443
f 443 1047 1029
f 443 1029 426
f 426 1029 1012
f 426 1012 410
f 410 1012 996
f 410 996 262
f 262 996 847
f 262 847 263
f 263 847 849
f 263 849 261
f 261 849 848
f 261 848 265
f 265 848 851
f 265 851 264
f 264 851 850
f 264 850 267
f 267 850 853
f 267 853 266
f 266 853 852
f 266 852 269
f 269 852 855
f 269 855 268
f 268 855 854
f 268 854 518
f 518 854 1104
f 518 1104 531
f 531 1104 1117
f 531 1117 538
f 538 1117 1124
f 538 1124 547
f 547 1124 1133
f 547 1133 519
f 519 1133 1105
f 519 1105 495
f 495 1105 1081
f 495 1081 481
f 481 1081 1067
f 481 1067 462
f 462 1067 1048
f 462 1048 444
f 444 1048 1030
f 444 1030 411
f 411 1030 997
f 411 997 271
f 271 997 856
f 271 856 272
f 272 856 858
f 272 858 270
f 270 858 857
f 270 857 274
f 274 857 860
f 274 860 273
f 273 860 859
f 273 859 276
f 276 859 862
f 276 862 275
f 275 862 861
f 275 861 509
f 509 861 1095
f 509 1095 510
f 510 1095 1096
f 510 1096 463
f 463 1096 1049
f 463 1049 427
f 427 1049 1013
f 427 1013 278
f 278 1013 863
f 278 863 279
f 279 863 865
f 279 865 277
f 277 865 864
f 277 864 281
f 281 864 867
f 281 867 280
f 280 867 866
f 280 866 283
f 283 866 869
f 283 869 282
f 282 869 868
f 282 868 285
f 285 868 871
f 285 871 284
f 284 871 870
f 284 870 428
f 428 870 1014
f 428 1014 482
f 482 1014 1068
f 482 1068 496
f 496 1068 1082
f 496 1082 520
f 520 1082 1106
f 520 1106 532
f 532 1106 1118
f 532 1118 521
f 521 1118 1107
f 521 1107 511
f 511 1107 1097
f 511 1097 497
f 497 1097 1083
f 497 1083 483
f 483 1083 1069
f 483 1069 464
f 464 1069 1050
f 464 1050 429
f 429 1050 1015
f 429 1015 287
f 287 1015 872
f 287 872 288
f 288 872 874
f 288 874 286
f 286 874 873
f 286 873 290
f 290 873 876
f 290 876 289
f 289 876 875
f 289 875 292
f 292 875 878
f 292 878 291
f 291 878 877
f 291 877 294
f 294 877 880
f 294 880 293
f 293 880 879
f 293 879 296
f 296 879 882
f 296 882 295
f 295 882 881
f 295 881 298
f 298 881 884
f 298 884 297
f 297 884 883
f 297 883 300
f 300 883 886
f 300 886 299
f 299 886 885
f 299 885 302
f 302 885 888
f 302 888 301
f 301 888 887
f 301 887 304
f 304 887 890
f 304 890 303
f 303 890 889
f 303 889 306
f 306 889 892
f 306 892 305
f 305 892 891
f 305 891 308
f 308 891 894
f 308 894 307
f 307 894 893
f 307 893 465
f 465 893 1051
f 465 1051 484
f 484 1051 1070
f 484 1070 445
f 445 1070 1031
f 445 1031 412
f 412 1031 998
f 412 998 310
f 310 998 895
f 310 895 311
f 311 895 897
f 311 897 309
f 309 897 896
f 309 896 313
f 313 896 899
f 313 899 312
f 312 899 898
f 312 898 315
f 315 898 901
f 315 901 314
f 314 901 900
f 314 900 317
f 317 900 903
f 317 903 316
f 316 903 902
f 316 902 319
f 319 902 905
f 319 905 318
f 318 905 904
f 318 904 321
f 321 904 907
f 321 907 320
f 320 907 906
f 320 906 323
f 323 906 908
f 323 908 324
f 324 908 910
f 324 910 322
f 322 910 909
f 322 909 326
f 326 909 912
f 326 912 325
f 325 912 911
f 325 911 328
f 328 911 914
f 328 914 327
f 327 914 913
f 327 913 413
f 413 913 999
f 413 999 446
f 446 999 1032
f 446 1032 466
f 466 1032 1052
f 466 1052 467
f 467 1052 1053
f 467 1053 430
f 430 1053 1016
f 430 1016 330
f 330 1016 915
f 330 915 331
f 331 915 917
f 331 917 329
f 329 917 916
f 329 916 333
f 333 916 919
f 333 919 332
f 332 919 918
f 332 918 335
f 335 918 921
f 335 921 334
f 334 921 920
f 334 920 337
f 337 920 923
f 337 923 336
f 336 923 922
f 336 922 431
f 431 922 1017
f 431 1017 485
f 485 1017 1071
f 485 1071 548
f 548 1071 1134
f 548 1134 573
f 573 1134 1159
f 573 1159 576
f 576 1159 1162
f 576 1162 580
f 580 1162 1166
f 580 1166 583
f 583 1166 1169
f 583 1169 584
f 584 1169 1170
f 584 1170 447
f 447 1170 1033
f 447 1033 339
f 339 1033 924
f 339 924 340
f 340 924 926
f 340 926 338
f 338 926 925
f 338 925 342
f 342 925 928
f 342 928 341
f 341 928 927
f 341 927 344
f 344 927 930
f 344 930 343
f 343 930 929
f 343 929 346
f 346 929 932
f 346 932 345
f 345 932 931
f 345 931 581
f 581 931 1167
f 581 1167 577
f 577 1167 1163
f 577 1163 574
f 574 1163 1160
f 574 1160 348
f 348 1160 933
f 348 933 349
f 349 933 935
f 349 935 347
f 347 935 934
f 347 934 351
f 351 934 937
f 351 937 350
f 350 937 936
f 350 936 353
f 353 936 939
f 353 939 352
f 352 939 938
f 352 938 414
f 414 938 1000
f 414 1000 448
f 448 1000 1034
f 448 1034 567
f 567 1034 1153
f 567 1153 564
f 564 1153 1150
f 564 1150 522
f 522 1150 1108
f 522 1108 355
f 355 1108 940
f 355 940 356
f 356 940 942
f 356 942 354
f 354 942 941
f 354 941 358
f 358 941 944
f 358 944 357
f 357 944 943
f 357 943 360
f 360 943 946
f 360 946 359
f 359 946 945
f 359 945 362
f 362 945 948
f 362 948 361
f 361 948 947
f 361 947 449
f 449 947 1035
f 449 1035 486
f 486 1035 1072
f 486 1072 450
f 450 1072 1036
f 450 1036 364
f 364 1036 949
f 364 949 365
f 365 949 951
f 365 951 363
f 363 951 950
f 363 950 367
f 367 950 953
f 367 953 366
f 366 953 952
f 366 952 369
f 369 952 955
f 369 955 368
f 368 955 954
f 368 954 371
f 371 954 957
f 371 957 370
f 370 957 956
f 370 956 373
f 373 956 959
f 373 959 372
f 372 959 958
f 372 958 375
f 375 958 961
f 375 961 374
f 374 961 960
f 374 960 377
f 377 960 963
f 377 963 376
f 376 963 962
f 376 962 379
f 379 962 965
f 379 965 378
f 378 965 964
f 378 964 381
f 381 964 967
f 381 967 380
f 380 967 966
f 380 966 383
f 383 966 969
f 383 969 382
f 382 969 968
f 382 968 498
f 498 968 1084
f 498 1084 468
f 468 1084 1054
f 468 1054 432
f 432 1054 1018
f 432 1018 385
f 385 1018 970
f 385 970 386
f 386 970 972
f 386 972 384
f 384 972 971
f 384 971 388
f 388 971 974
f 388 974 387
f 387 974 973
f 387 973 390
f 390 973 976
f 390 976 389
f 389 976 975
f 389 975 392
f 392 975 978
f 392 978 391
f 391 978 977
f 391 977 394
f 394 977 980
f 394 980 393
f 393 980 979
f 393 979 396
f 396 979 982
f 396 982 395
f 395 982 981
f 395 981 398
f 398 981 984
f 398 984 397
f 397 984 983
f 397 983 400
f 400 983 986
f 400 986 399
f 399 986 985
f 399 985 2
f 2 985 587
f 2 587 3
f 3 587 589
f 3 589 1
f 1 589 588
