o 
v 34.7 0 -0.4
v 35.314 0 -0.154
v 34.996 0 -0.259
v 34.226 0 -0.689
v 34.426 0 -0.552
v 34.01 0 -0.984
v 34.091 0 -0.827
v 33.97 0 -1.42
v 33.973 0 -1.176
v 34.179 0 -2.463
v 34.027 0 -1.951
v 34.758 0 -3.427
v 34.423 0 -2.955
v 35.7 0 -4.31
v 35.184 0 -3.879
v 36.298 0 -4.706
v 35.999 0 -4.518
v 36.836 0 -4.991
v 36.581 0 -4.866
v 37.2 0 -5.1
v 37.047 0 -5.071
v 42.535 0 -20.395
v 42.32 0 -18.28
v 42.41 0 -19.46
v 42.988 0 -21.852
v 42.72 0 -21.165
v 43.87 0 -23.3
v 43.364 0 -22.536
v 40.642 0 -25.195
v 41.96 0 -25.07
v 41.214 0 -25.13
v 39.864 0 -25.375
v 40.205 0 -25.274
v 39.32 0 -25.68
v 39.582 0 -25.508
v 38.961 0 -26.003
v 39.123 0 -25.839
v 38.746 0 -26.337
v 38.835 0 -26.17
v 38.68 0 -26.66
v 38.694 0 -26.501
v 37.537 0 -26.212
v 37.91 0 -26.57
v 37.713 0 -26.359
v 37.176 0 -26.074
v 37.365 0 -26.12
v 36.67 0 -26.09
v 36.951 0 -26.067
v 36.246 0 -26.194
v 36.437 0 -26.135
v 35.977 0 -26.36
v 36.094 0 -26.268
v 35.84 0 -26.61
v 35.894 0 -26.473
v 35.925 0 -27.271
v 35.848 0 -26.836
v 36.252 0 -28.619
v 36.063 0 -27.878
v 36.75 0 -30.36
v 36.484 0 -29.459
v 37.269 0 -32.15
v 37.014 0 -31.277
v 37.697 0 -33.61
v 37.501 0 -32.941
v 38.277 0 -35.636
v 37.93 0 -34.42
v 38.045 0 -34.83
v 39.01 0 -38.164
v 38.605 0 -36.77
v 39.97 0 -41.46
v 39.472 0 -39.75
v 34.46 0 -45.14
v 38.4 0 -47.23
v 36.45 0 -45.28
v 25.661 0 -39.15
v 25.59 0 -40.2
v 25.65 0 -39.44
v 25.609 0 -38.744
v 25.649 0 -38.923
v 25.42 0 -38.481
v 25.534 0 -38.601
v 24.998 0 -38.194
v 25.26 0 -38.37
v 19.006 0 -33.874
v 20.97 0 -35.3
v 19.945 0 -34.554
v 17.541 0 -32.829
v 18.191 0 -33.29
v 16.89 0 -32.39
v 17.094 0 -32.519
v 16.654 0 -32.459
v 16.795 0 -32.383
v 16.253 0 -32.834
v 16.471 0 -32.611
v 15.73 0 -33.47
v 16.004 0 -33.123
v 14.5 0 -34.901
v 14.702 0 -34.708
v 14.63 0 -34.77
v 14.834 0 -35.436
v 14.558 0 -35.113
v 16.151 0 -36.535
v 15.355 0 -35.9
v 18.328 0 -38.185
v 17.25 0 -37.37
v 20.025 0 -40.335
v 19.956 0 -39.785
v 19.98 0 -40.05
v 20.757 0 -41.162
v 20.244 0 -40.671
v 23.163 0 -43.037
v 21.69 0 -41.916
v 30.843 0 -49.697
v 30.61 0 -49.14
v 30.656 0 -49.398
v 31.927 0 -50.676
v 31.243 0 -50.101
v 34.44 0 -52.6
v 32.969 0 -51.487
v 36.914 0 -56.329
v 37.743 0 -55.915
v 37.55 0 -56
v 35.304 0 -57.469
v 36.146 0 -56.834
v 33.637 0 -58.939
v 34.448 0 -58.186
v 32.561 0 -60.073
v 32.93 0 -59.68
v 30.794 0 -61.203
v 31.18 0 -61.08
v 30.953 0 -61.139
v 30.649 0 -61.394
v 30.696 0 -61.284
v 30.67 0 -61.75
v 30.643 0 -61.546
v 33.21 0 -71.11
v 31.32 0 -65.84
v 31.87 0 -69.42
v 34.59 0 -73.243
v 34.496 0 -72.962
v 34.54 0 -73.1
v 34.975 0 -73.849
v 34.74 0 -73.5
v 35.64 0 -74.744
v 35.28 0 -74.27
v 37.7 0 -78.114
v 37.563 0 -77.554
v 37.63 0 -77.84
v 38.056 0 -78.919
v 37.844 0 -78.479
v 38.656 0 -79.973
v 38.329 0 -79.421
v 40.31 0 -82.55
v 39.03 0 -80.56
v 46.901 0 -87.602
v 47.14 0 -87.45
v 47.003 0 -87.511
v 46.779 0 -87.931
v 46.827 0 -87.738
v 46.74 0 -88.55
v 46.752 0 -88.198
v 46.793 0 -89.227
v 46.752 0 -88.912
v 47.004 0 -89.81
v 46.874 0 -89.518
v 47.45 0 -90.5
v 47.193 0 -90.129
v 47.935 0 -91.105
v 47.711 0 -90.847
v 48.325 0 -91.401
v 48.135 0 -91.286
v 48.73 0 -91.48
v 48.519 0 -91.462
v 49.465 0 -93.283
v 49.293 0 -91.854
v 49.3 0 -92.09
v 50.597 0 -96.012
v 49.919 0 -94.628
v 52.376 0 -98.455
v 51.438 0 -97.326
v 54.42 0 -100
v 53.35 0 -99.29
v 58.96 0 -99.76
v 56.7 0 -99.88
v 65.69 0 -94.9
v 62.82 0 -96.2
v 64.96 0 -96.2
v 66.253 0 -93.663
v 66.023 0 -94.244
v 66.397 0 -92.78
v 66.378 0 -93.171
v 66.12 0 -92.35
v 66.312 0 -92.502
v 66.654 0 -91.839
v 66.237 0 -91.898
v 66.48 0 -91.87
v 66.993 0 -91.489
v 66.819 0 -91.723
v 67.444 0 -90.536
v 67.195 0 -91.104
v 68.08 0 -88.922
v 67.76 0 -89.75
v 68.426 0 -87.842
v 68.297 0 -88.306
v 68.469 0 -87.13
v 68.479 0 -87.471
v 68.362 0 -86.522
v 68.41 0 -86.76
v 71.57 0 -86.44
v 69.492 0 -86.045
v 69.92 0 -86.13
v 74.193 0 -85.549
v 73.56 0 -85.77
v 75.814 0 -84.891
v 74.96 0 -85.249
v 77.591 0 -84.091
v 76.707 0 -84.498
v 81.28 0 -82.27
v 78.42 0 -83.69
v 85.51 0 -77.75
v 83.4 0 -80.01
v 84.15 0 -71.74
v 85.51 0 -72.83
v 79.217 0 -67.53
v 80.872 0 -68.964
v 80.11 0 -68.3
v 77.815 0 -66.405
v 78.457 0 -66.902
v 76.827 0 -65.76
v 77.277 0 -66.028
v 76.186 0 -65.49
v 76.45 0 -65.59
v 77.16 0 -54.25
v 76.313 0 -59.654
v 76.715 0 -57.088
v 78.39 0 -46.416
v 77.609 0 -51.388
v 78.026 0 -48.738
v 78.891 0 -43.222
v 78.684 0 -44.539
v 79.085 0 -41.965
v 78.99 0 -42.58
v 79.886 0 -36.868
v 79.277 0 -40.739
v 79.55 0 -39.005
v 80.68 0 -31.8
v 80.269 0 -34.432
v 81.584 0 -25.967
v 81.195 0 -28.518
v 82.016 0 -22.776
v 81.855 0 -24.076
v 82.04 0 -21.67
v 82.075 0 -21.997
v 81.5 0 -21.272
v 81.795 0 -21.392
v 80.687 0 -21.534
v 81.136 0 -21.317
v 79.46 0 -22.51
v 80.134 0 -21.93
v 76.203 0 -20.252
v 76.06 0 -21.51
v 76.131 0 -20.948
v 76.334 0 -18.631
v 76.271 0 -19.465
v 76.43 0 -17
v 76.388 0 -17.795
v 78.7 0 -8.27
v 77.187 0 -12.515
v 77.64 0 -11.26
v 81.934 0 -6.968
v 81.501 0 -7.092
v 81.63 0 -7.07
v 82.798 0 -6.301
v 82.34 0 -6.696
v 83.655 0 -5.344
v 83.253 0 -5.834
v 84.194 0 -4.31
v 83.95 0 -4.88
v 84.306 0 -3.348
v 84.313 0 -3.807
v 83.902 0 -2.471
v 84.17 0 -2.91
v 82.67 0 -1.16
v 83.5 0 -2.01
v 78.904 0 -1.22
v 80.49 0 -1.18
v 79.598 0 -1.187
v 77.7 0 -1.444
v 78.305 0 -1.299
v 76.06 0 -2.01
v 76.985 0 -1.674
v 73.17 0 -4.02
v 73.8 0 -2.84
v 72.784 0 -4.817
v 72.952 0 -4.439
v 72.58 0 -5.51
v 72.661 0 -5.169
v 72.52 0 -6.22
v 72.534 0 -5.855
v 70.932 0 -9.503
v 71.814 0 -8.234
v 71.36 0 -8.88
v 70.324 0 -10.544
v 70.593 0 -10.043
v 69.913 0 -11.608
v 70.104 0 -11.05
v 69.536 0 -12.984
v 69.73 0 -12.26
v 67.951 0 -14.708
v 68.755 0 -14.258
v 68.37 0 -14.47
v 67.43 0 -15.314
v 67.643 0 -14.978
v 67.229 0 -16.329
v 67.297 0 -15.752
v 64.669 0 -21.048
v 64.775 0 -21.221
v 64.73 0 -21.14
v 64.412 0 -20.915
v 64.564 0 -20.973
v 63.963 0 -20.848
v 64.213 0 -20.873
v 63.263 0 -20.848
v 63.66 0 -20.84
v 62.673 0 -21.033
v 62.954 0 -20.899
v 61.955 0 -21.703
v 62.359 0 -21.287
v 57.4 0 -23.011
v 58.09 0 -23.439
v 57.86 0 -23.28
v 56.458 0 -22.808
v 56.918 0 -22.853
v 55.775 0 -23.051
v 56.062 0 -22.873
v 55.531 0 -23.738
v 55.64 0 -23.34
v 54.95 0 -20.617
v 55.044 0 -21.919
v 55.01 0 -20.98
v 54.271 0 -19.274
v 54.726 0 -20.086
v 52.409 0 -16.367
v 53.521 0 -18.071
v 46.74 0 -7.85
v 50.87 0 -14.05
v 46.736 0 -4.834
v 46.74 0 -5.71
v 46.666 0 -3.776
v 46.716 0 -4.211
v 46.426 0 -3.202
v 46.574 0 -3.462
v 45.89 0 -2.598
v 46.21 0 -2.93
v 44.919 0 -1.986
v 45.48 0 -2.294
v 43.104 0 -1.244
v 44.147 0 -1.646
v 40.858 0 -0.447
v 41.73 0 -0.75
v 39.584 0 -0.101
v 40.173 0 -0.236
v 38.333 0 0.001
v 39 0 -0.028
v 36.744 0 -0.007
v 37.49 0 0
v 35.69 0 -0.08
v 36.156 0 -0.033
v 42.152 0 -16.521
v 43.093 0 -24.964
v 38.665 0 -26.912
v 38.179 0 -26.855
v 37.845 0 -34.116
v 38.918 0 -47.743
v 22.002 0 -36.051
v 15.47 0 -33.803
v 25.3 0 -44.63
v 30.55 0 -48.874
v 37.917 0 -55.831
v 30.718 0 -62.014
v 31.172 0 -64.876
v 36.04 0 -75.25
v 48.949 0 -91.487
v 60.89 0 -97.97
v 68.32 0 -86.306
v 83.7 0 -71.364
v 75.97 0 -61.841
v 75.973 0 -22.213
v 72.508 0 -6.641
v 67.21 0 -17.08
v 39.399 0 -48.207
v 14.833 0 -34.569
v 19.837 0 -39.522
v 27.36 0 -46.171
v 31.399 0 -61.008
v 30.799 0 -62.499
v 31.031 0 -63.971
v 47.349 0 -87.303
v 49.266 0 -91.687
v 66.056 0 -91.963
v 68.285 0 -86.121
v 69.1 0 -85.973
v 83.107 0 -70.866
v 81.653 0 -69.634
v 75.951 0 -65.391
v 81.295 0 -7.154
v 69.027 0 -14.064
v 67.191 0 -17.326
v 64.858 0 -21.291
v 58.32 0 -23.568
v 55.133 0 -22.739
v 41.853 0 -14.546
v 43.855 0 -24.824
v 38.616 0 -27.059
v 38.381 0 -27.031
v 41.84 0 -47.8
v 39.822 0 -48.603
v 24.501 0 -37.845
v 22.962 0 -36.745
v 15.227 0 -34.105
v 15.011 0 -34.364
v 30.3 0 -48.535
v 38.065 0 -55.754
v 30.905 0 -63.165
v 34.362 0 -72.722
v 37.427 0 -77.226
v 49.104 0 -91.516
v 68.762 0 -85.915
v 82.411 0 -70.279
v 75.754 0 -65.299
v 78.922 0 -22.994
v 75.924 0 -22.712
v 81.027 0 -7.249
v 72.132 0 -7.741
v 58.554 0 -23.666
v 55.257 0 -23.364
v 41.464 0 -12.537
v 40.167 0 -48.91
v 23.809 0 -37.353
v 19.564 0 -39.205
v 35.457 0 -53.369
v 38.18 0 -55.685
v 31.645 0 -60.87
v 34.153 0 -72.397
v 44.32 0 -84
v 47.601 0 -87.018
v 49.206 0 -91.579
v 65.967 0 -92.26
v 65.944 0 -92.054
v 68.496 0 -85.874
v 78.504 0 -23.34
v 76.487 0 -15.841
v 80.715 0 -7.369
v 72.338 0 -7.348
v 69.223 0 -13.826
v 64.975 0 -21.349
v 44.254 0 -23.889
v 38.524 0 -27.099
v 40.413 0 -49.109
v 28.81 0 -47.275
v 36.373 0 -54.069
v 31.92 0 -60.669
v 33.563 0 -71.573
v 36.528 0 -75.87
v 37.214 0 -76.845
v 47.861 0 -86.651
v 65.911 0 -92.157
v 68.32 0 -85.851
v 75.704 0 -63.546
v 78.17 0 -23.57
v 80.374 0 -7.509
v 72.455 0 -6.999
v 69.38 0 -13.486
v 67.137 0 -17.676
v 65.122 0 -21.393
v 58.793 0 -23.736
v 55.397 0 -23.721
v 41.024 0 -10.677
v 32.48 0 -45
v 19.08 0 -38.778
v 29.755 0 -48.033
v 38.254 0 -55.629
v 32.225 0 -60.403
v 33.881 0 -72.008
v 36.917 0 -76.397
v 48.092 0 -86.259
v 68.26 0 -85.977
v 68.25 0 -85.85
v 75.602 0 -65.215
v 80.02 0 -7.66
v 67.054 0 -18.104
v 65.295 0 -21.42
v 59.041 0 -23.777
v 37.545 0 -5.236
v 44.401 0 -24.319
v 44.28 0 -24.62
v 40.54 0 -49.18
v 29.03 0 -42.6
v 37.151 0 -54.669
v 48.257 0 -85.897
v 68.248 0 -85.883
v 75.531 0 -64.664
v 66.946 0 -18.584
v 65.49 0 -21.43
v 59.3 0 -23.79
v 38.029 0 -5.601
v 37.753 0 -55.141
v 48.32 0 -85.62
v 75.504 0 -65.144
v 75.47 0 -65.09
v 66.14 0 -21.43
v 38.592 0 -6.135
v 38.142 0 -55.458
v 38.28 0 -55.59
v 45.373 0 -84.395
v 77.882 0 -23.707
v 66.82 0 -19.092
v 61.4 0 -22.32
v 48.172 0 -85.525
v 76.877 0 -13.45
v 66.68 0 -19.6
v 60.871 0 -22.902
v 39.174 0 -6.776
v 46.324 0 -84.76
v 47.763 0 -85.34
v 77.604 0 -23.773
v 76.679 0 -14.216
v 60.473 0 -23.308
v 39.713 0 -7.461
v 47.134 0 -85.08
v 77.3 0 -23.79
v 76.559 0 -14.963
v 60.162 0 -23.569
v 40.15 0 -8.13
v 40.609 0 -49.155
v 77.082 0 -23.781
v 59.893 0 -23.716
v 40.573 0 -9.147
v 40.712 0 -49.083
v 76.863 0 -23.754
v 40.84 0 -48.974
v 75.918 0 -23.05
v 40.984 0 -48.833
v 75.956 0 -23.271
v 41.137 0 -48.67
v 76.654 0 -23.714
v 41.29 0 -48.49
v 76.464 0 -23.663
v 76.042 0 -23.42
v 59.621 0 -23.779
v 76.303 0 -23.604
v 76.18 0 -23.54
v 35.314 10 -0.154
v 34.7 10 -0.4
v 34.996 10 -0.259
v 34.226 10 -0.689
v 34.426 10 -0.552
v 34.01 10 -0.984
v 34.091 10 -0.827
v 33.97 10 -1.42
v 33.973 10 -1.176
v 34.179 10 -2.463
v 34.027 10 -1.951
v 34.758 10 -3.427
v 34.423 10 -2.955
v 35.7 10 -4.31
v 35.184 10 -3.879
v 36.298 10 -4.706
v 35.999 10 -4.518
v 36.836 10 -4.991
v 36.581 10 -4.866
v 37.2 10 -5.1
v 37.047 10 -5.071
v 42.32 10 -18.28
v 42.535 10 -20.395
v 42.41 10 -19.46
v 42.988 10 -21.852
v 42.72 10 -21.165
v 43.87 10 -23.3
v 43.364 10 -22.536
v 41.96 10 -25.07
v 40.642 10 -25.195
v 41.214 10 -25.13
v 39.864 10 -25.375
v 40.205 10 -25.274
v 39.32 10 -25.68
v 39.582 10 -25.508
v 38.961 10 -26.003
v 39.123 10 -25.839
v 38.746 10 -26.337
v 38.835 10 -26.17
v 38.68 10 -26.66
v 38.694 10 -26.501
v 37.91 10 -26.57
v 37.537 10 -26.212
v 37.713 10 -26.359
v 37.176 10 -26.074
v 37.365 10 -26.12
v 36.67 10 -26.09
v 36.951 10 -26.067
v 36.246 10 -26.194
v 36.437 10 -26.135
v 35.977 10 -26.36
v 36.094 10 -26.268
v 35.84 10 -26.61
v 35.894 10 -26.473
v 35.925 10 -27.271
v 35.848 10 -26.836
v 36.252 10 -28.619
v 36.063 10 -27.878
v 36.75 10 -30.36
v 36.484 10 -29.459
v 37.269 10 -32.15
v 37.014 10 -31.277
v 37.697 10 -33.61
v 37.501 10 -32.941
v 37.93 10 -34.42
v 38.277 10 -35.636
v 38.045 10 -34.83
v 39.01 10 -38.164
v 38.605 10 -36.77
v 39.97 10 -41.46
v 39.472 10 -39.75
v 38.4 10 -47.23
v 34.46 10 -45.14
v 36.45 10 -45.28
v 25.59 10 -40.2
v 25.661 10 -39.15
v 25.65 10 -39.44
v 25.609 10 -38.744
v 25.649 10 -38.923
v 25.42 10 -38.481
v 25.534 10 -38.601
v 24.998 10 -38.194
v 25.26 10 -38.37
v 20.97 10 -35.3
v 19.006 10 -33.874
v 19.945 10 -34.554
v 17.541 10 -32.829
v 18.191 10 -33.29
v 16.89 10 -32.39
v 17.094 10 -32.519
v 16.654 10 -32.459
v 16.795 10 -32.383
v 16.253 10 -32.834
v 16.471 10 -32.611
v 15.73 10 -33.47
v 16.004 10 -33.123
v 14.702 10 -34.708
v 14.5 10 -34.901
v 14.63 10 -34.77
v 14.834 10 -35.436
v 14.558 10 -35.113
v 16.151 10 -36.535
v 15.355 10 -35.9
v 18.328 10 -38.185
v 17.25 10 -37.37
v 19.956 10 -39.785
v 20.025 10 -40.335
v 19.98 10 -40.05
v 20.757 10 -41.162
v 20.244 10 -40.671
v 23.163 10 -43.037
v 21.69 10 -41.916
v 30.61 10 -49.14
v 30.843 10 -49.697
v 30.656 10 -49.398
v 31.927 10 -50.676
v 31.243 10 -50.101
v 34.44 10 -52.6
v 32.969 10 -51.487
v 37.743 10 -55.915
v 36.914 10 -56.329
v 37.55 10 -56
v 35.304 10 -57.469
v 36.146 10 -56.834
v 33.637 10 -58.939
v 34.448 10 -58.186
v 32.561 10 -60.073
v 32.93 10 -59.68
v 31.18 10 -61.08
v 30.794 10 -61.203
v 30.953 10 -61.139
v 30.649 10 -61.394
v 30.696 10 -61.284
v 30.67 10 -61.75
v 30.643 10 -61.546
v 31.32 10 -65.84
v 33.21 10 -71.11
v 31.87 10 -69.42
v 34.496 10 -72.962
v 34.59 10 -73.243
v 34.54 10 -73.1
v 34.975 10 -73.849
v 34.74 10 -73.5
v 35.64 10 -74.744
v 35.28 10 -74.27
v 37.563 10 -77.554
v 37.7 10 -78.114
v 37.63 10 -77.84
v 38.056 10 -78.919
v 37.844 10 -78.479
v 38.656 10 -79.973
v 38.329 10 -79.421
v 40.31 10 -82.55
v 39.03 10 -80.56
v 47.14 10 -87.45
v 46.901 10 -87.602
v 47.003 10 -87.511
v 46.779 10 -87.931
v 46.827 10 -87.738
v 46.74 10 -88.55
v 46.752 10 -88.198
v 46.793 10 -89.227
v 46.752 10 -88.912
v 47.004 10 -89.81
v 46.874 10 -89.518
v 47.45 10 -90.5
v 47.193 10 -90.129
v 47.935 10 -91.105
v 47.711 10 -90.847
v 48.325 10 -91.401
v 48.135 10 -91.286
v 48.73 10 -91.48
v 48.519 10 -91.462
v 49.293 10 -91.854
v 49.465 10 -93.283
v 49.3 10 -92.09
v 50.597 10 -96.012
v 49.919 10 -94.628
v 52.376 10 -98.455
v 51.438 10 -97.326
v 54.42 10 -100
v 53.35 10 -99.29
v 58.96 10 -99.76
v 56.7 10 -99.88
v 62.82 10 -96.2
v 65.69 10 -94.9
v 64.96 10 -96.2
v 66.253 10 -93.663
v 66.023 10 -94.244
v 66.397 10 -92.78
v 66.378 10 -93.171
v 66.12 10 -92.35
v 66.312 10 -92.502
v 66.237 10 -91.898
v 66.654 10 -91.839
v 66.48 10 -91.87
v 66.993 10 -91.489
v 66.819 10 -91.723
v 67.444 10 -90.536
v 67.195 10 -91.104
v 68.08 10 -88.922
v 67.76 10 -89.75
v 68.426 10 -87.842
v 68.297 10 -88.306
v 68.469 10 -87.13
v 68.479 10 -87.471
v 68.362 10 -86.522
v 68.41 10 -86.76
v 69.492 10 -86.045
v 71.57 10 -86.44
v 69.92 10 -86.13
v 74.193 10 -85.549
v 73.56 10 -85.77
v 75.814 10 -84.891
v 74.96 10 -85.249
v 77.591 10 -84.091
v 76.707 10 -84.498
v 81.28 10 -82.27
v 78.42 10 -83.69
v 85.51 10 -77.75
v 83.4 10 -80.01
v 84.15 10 -71.74
v 85.51 10 -72.83
v 80.872 10 -68.964
v 79.217 10 -67.53
v 80.11 10 -68.3
v 77.815 10 -66.405
v 78.457 10 -66.902
v 76.827 10 -65.76
v 77.277 10 -66.028
v 76.186 10 -65.49
v 76.45 10 -65.59
v 76.313 10 -59.654
v 77.16 10 -54.25
v 76.715 10 -57.088
v 77.609 10 -51.388
v 78.39 10 -46.416
v 78.026 10 -48.738
v 78.891 10 -43.222
v 78.684 10 -44.539
v 79.085 10 -41.965
v 78.99 10 -42.58
v 79.277 10 -40.739
v 79.886 10 -36.868
v 79.55 10 -39.005
v 80.68 10 -31.8
v 80.269 10 -34.432
v 81.584 10 -25.967
v 81.195 10 -28.518
v 82.016 10 -22.776
v 81.855 10 -24.076
v 82.04 10 -21.67
v 82.075 10 -21.997
v 81.5 10 -21.272
v 81.795 10 -21.392
v 80.687 10 -21.534
v 81.136 10 -21.317
v 79.46 10 -22.51
v 80.134 10 -21.93
v 76.06 10 -21.51
v 76.203 10 -20.252
v 76.131 10 -20.948
v 76.334 10 -18.631
v 76.271 10 -19.465
v 76.43 10 -17
v 76.388 10 -17.795
v 77.187 10 -12.515
v 78.7 10 -8.27
v 77.64 10 -11.26
v 81.501 10 -7.092
v 81.934 10 -6.968
v 81.63 10 -7.07
v 82.798 10 -6.301
v 82.34 10 -6.696
v 83.655 10 -5.344
v 83.253 10 -5.834
v 84.194 10 -4.31
v 83.95 10 -4.88
v 84.306 10 -3.348
v 84.313 10 -3.807
v 83.902 10 -2.471
v 84.17 10 -2.91
v 82.67 10 -1.16
v 83.5 10 -2.01
v 80.49 10 -1.18
v 78.904 10 -1.22
v 79.598 10 -1.187
v 77.7 10 -1.444
v 78.305 10 -1.299
v 76.06 10 -2.01
v 76.985 10 -1.674
v 73.17 10 -4.02
v 73.8 10 -2.84
v 72.784 10 -4.817
v 72.952 10 -4.439
v 72.58 10 -5.51
v 72.661 10 -5.169
v 72.52 10 -6.22
v 72.534 10 -5.855
v 71.814 10 -8.234
v 70.932 10 -9.503
v 71.36 10 -8.88
v 70.324 10 -10.544
v 70.593 10 -10.043
v 69.913 10 -11.608
v 70.104 10 -11.05
v 69.536 10 -12.984
v 69.73 10 -12.26
v 68.755 10 -14.258
v 67.951 10 -14.708
v 68.37 10 -14.47
v 67.43 10 -15.314
v 67.643 10 -14.978
v 67.229 10 -16.329
v 67.297 10 -15.752
v 64.775 10 -21.221
v 64.669 10 -21.048
v 64.73 10 -21.14
v 64.412 10 -20.915
v 64.564 10 -20.973
v 63.963 10 -20.848
v 64.213 10 -20.873
v 63.263 10 -20.848
v 63.66 10 -20.84
v 62.673 10 -21.033
v 62.954 10 -20.899
v 61.955 10 -21.703
v 62.359 10 -21.287
v 58.09 10 -23.439
v 57.4 10 -23.011
v 57.86 10 -23.28
v 56.458 10 -22.808
v 56.918 10 -22.853
v 55.775 10 -23.051
v 56.062 10 -22.873
v 55.531 10 -23.738
v 55.64 10 -23.34
v 55.044 10 -21.919
v 54.95 10 -20.617
v 55.01 10 -20.98
v 54.271 10 -19.274
v 54.726 10 -20.086
v 52.409 10 -16.367
v 53.521 10 -18.071
v 46.74 10 -7.85
v 50.87 10 -14.05
v 46.736 10 -4.834
v 46.74 10 -5.71
v 46.666 10 -3.776
v 46.716 10 -4.211
v 46.426 10 -3.202
v 46.574 10 -3.462
v 45.89 10 -2.598
v 46.21 10 -2.93
v 44.919 10 -1.986
v 45.48 10 -2.294
v 43.104 10 -1.244
v 44.147 10 -1.646
v 40.858 10 -0.447
v 41.73 10 -0.75
v 39.584 10 -0.101
v 40.173 10 -0.236
v 38.333 10 0.001
v 39 10 -0.028
v 36.744 10 -0.007
v 37.49 10 0
v 35.69 10 -0.08
v 36.156 10 -0.033
v 42.152 10 -16.521
v 43.093 10 -24.964
v 38.665 10 -26.912
v 38.179 10 -26.855
v 37.845 10 -34.116
v 38.918 10 -47.743
v 22.002 10 -36.051
v 15.47 10 -33.803
v 25.3 10 -44.63
v 30.55 10 -48.874
v 37.917 10 -55.831
v 30.718 10 -62.014
v 31.172 10 -64.876
v 36.04 10 -75.25
v 48.949 10 -91.487
v 60.89 10 -97.97
v 68.32 10 -86.306
v 83.7 10 -71.364
v 75.97 10 -61.841
v 75.973 10 -22.213
v 72.508 10 -6.641
v 67.21 10 -17.08
v 39.399 10 -48.207
v 14.833 10 -34.569
v 19.837 10 -39.522
v 27.36 10 -46.171
v 31.399 10 -61.008
v 30.799 10 -62.499
v 31.031 10 -63.971
v 47.349 10 -87.303
v 49.266 10 -91.687
v 66.056 10 -91.963
v 68.285 10 -86.121
v 69.1 10 -85.973
v 83.107 10 -70.866
v 81.653 10 -69.634
v 75.951 10 -65.391
v 81.295 10 -7.154
v 69.027 10 -14.064
v 67.191 10 -17.326
v 64.858 10 -21.291
v 58.32 10 -23.568
v 55.133 10 -22.739
v 41.853 10 -14.546
v 43.855 10 -24.824
v 38.616 10 -27.059
v 38.381 10 -27.031
v 41.84 10 -47.8
v 39.822 10 -48.603
v 24.501 10 -37.845
v 22.962 10 -36.745
v 15.227 10 -34.105
v 15.011 10 -34.364
v 30.3 10 -48.535
v 38.065 10 -55.754
v 30.905 10 -63.165
v 34.362 10 -72.722
v 37.427 10 -77.226
v 49.104 10 -91.516
v 68.762 10 -85.915
v 82.411 10 -70.279
v 75.754 10 -65.299
v 78.922 10 -22.994
v 75.924 10 -22.712
v 81.027 10 -7.249
v 72.132 10 -7.741
v 58.554 10 -23.666
v 55.257 10 -23.364
v 41.464 10 -12.537
v 40.167 10 -48.91
v 23.809 10 -37.353
v 19.564 10 -39.205
v 35.457 10 -53.369
v 38.18 10 -55.685
v 31.645 10 -60.87
v 34.153 10 -72.397
v 44.32 10 -84
v 47.601 10 -87.018
v 49.206 10 -91.579
v 65.967 10 -92.26
v 65.944 10 -92.054
v 68.496 10 -85.874
v 78.504 10 -23.34
v 76.487 10 -15.841
v 80.715 10 -7.369
v 72.338 10 -7.348
v 69.223 10 -13.826
v 64.975 10 -21.349
v 44.254 10 -23.889
v 38.524 10 -27.099
v 40.413 10 -49.109
v 28.81 10 -47.275
v 36.373 10 -54.069
v 31.92 10 -60.669
v 33.563 10 -71.573
v 36.528 10 -75.87
v 37.214 10 -76.845
v 47.861 10 -86.651
v 65.911 10 -92.157
v 68.32 10 -85.851
v 75.704 10 -63.546
v 78.17 10 -23.57
v 80.374 10 -7.509
v 72.455 10 -6.999
v 69.38 10 -13.486
v 67.137 10 -17.676
v 65.122 10 -21.393
v 58.793 10 -23.736
v 55.397 10 -23.721
v 41.024 10 -10.677
v 32.48 10 -45
v 19.08 10 -38.778
v 29.755 10 -48.033
v 38.254 10 -55.629
v 32.225 10 -60.403
v 33.881 10 -72.008
v 36.917 10 -76.397
v 48.092 10 -86.259
v 68.26 10 -85.977
v 68.25 10 -85.85
v 75.602 10 -65.215
v 80.02 10 -7.66
v 67.054 10 -18.104
v 65.295 10 -21.42
v 59.041 10 -23.777
v 37.545 10 -5.236
v 44.401 10 -24.319
v 44.28 10 -24.62
v 40.54 10 -49.18
v 29.03 10 -42.6
v 37.151 10 -54.669
v 48.257 10 -85.897
v 68.248 10 -85.883
v 75.531 10 -64.664
v 66.946 10 -18.584
v 65.49 10 -21.43
v 59.3 10 -23.79
v 38.029 10 -5.601
v 37.753 10 -55.141
v 48.32 10 -85.62
v 75.504 10 -65.144
v 75.47 10 -65.09
v 66.14 10 -21.43
v 38.592 10 -6.135
v 38.142 10 -55.458
v 38.28 10 -55.59
v 45.373 10 -84.395
v 77.882 10 -23.707
v 66.82 10 -19.092
v 61.4 10 -22.32
v 48.172 10 -85.525
v 76.877 10 -13.45
v 66.68 10 -19.6
v 60.871 10 -22.902
v 39.174 10 -6.776
v 46.324 10 -84.76
v 47.763 10 -85.34
v 77.604 10 -23.773
v 76.679 10 -14.216
v 60.473 10 -23.308
v 39.713 10 -7.461
v 47.134 10 -85.08
v 77.3 10 -23.79
v 76.559 10 -14.963
v 60.162 10 -23.569
v 40.15 10 -8.13
v 40.609 10 -49.155
v 77.082 10 -23.781
v 59.893 10 -23.716
v 40.573 10 -9.147
v 40.712 10 -49.083
v 76.863 10 -23.754
v 40.84 10 -48.974
v 75.918 10 -23.05
v 40.984 10 -48.833
v 75.956 10 -23.271
v 41.137 10 -48.67
v 76.654 10 -23.714
v 41.29 10 -48.49
v 76.464 10 -23.663
v 76.042 10 -23.42
v 59.621 10 -23.779
v 76.303 10 -23.604
v 76.18 10 -23.54
f 1 2 3
f 4 1 5
f 6 4 7
f 8 6 9
f 10 8 11
f 12 10 13
f 14 12 15
f 16 14 17
f 18 16 19
f 20 18 21
f 22 23 24
f 25 22 26
f 27 25 28
f 29 30 31
f 32 29 33
f 34 32 35
f 36 34 37
f 38 36 39
f 40 38 41
f 42 43 44
f 45 42 46
f 47 45 48
f 49 47 50
f 51 49 52
f 53 51 54
f 55 53 56
f 57 55 58
f 59 57 60
f 61 59 62
f 63 61 64
f 65 66 67
f 68 65 69
f 70 68 71
f 72 73 74
f 75 76 77
f 78 75 79
f 80 78 81
f 82 80 83
f 84 85 86
f 87 84 88
f 89 87 90
f 91 89 92
f 93 91 94
f 95 93 96
f 97 98 99
f 100 97 101
f 102 100 103
f 104 102 105
f 106 107 108
f 109 106 110
f 111 109 112
f 113 114 115
f 116 113 117
f 118 116 119
f 120 121 122
f 123 120 124
f 125 123 126
f 127 125 128
f 129 130 131
f 132 129 133
f 134 132 135
f 136 137 138
f 139 140 141
f 142 139 143
f 144 142 145
f 146 147 148
f 149 146 150
f 151 149 152
f 153 151 154
f 155 156 157
f 158 155 159
f 160 158 161
f 162 160 163
f 164 162 165
f 166 164 167
f 168 166 169
f 170 168 171
f 172 170 173
f 174 175 176
f 177 174 178
f 179 177 180
f 181 179 182
f 183 181 184
f 185 186 187
f 188 185 189
f 190 188 191
f 192 190 193
f 194 195 196
f 197 194 198
f 199 197 200
f 201 199 202
f 203 201 204
f 205 203 206
f 207 205 208
f 209 210 211
f 212 209 213
f 214 212 215
f 216 214 217
f 218 216 219
f 220 218 221
f 222 220 223
f 224 225 226
f 227 224 228
f 229 227 230
f 231 229 232
f 233 234 235
f 236 237 238
f 239 236 240
f 241 239 242
f 243 244 245
f 246 243 247
f 248 246 249
f 250 248 251
f 252 250 253
f 254 252 255
f 256 254 257
f 258 256 259
f 260 261 262
f 263 260 264
f 265 263 266
f 267 268 269
f 270 271 272
f 273 270 274
f 275 273 276
f 277 275 278
f 279 277 280
f 281 279 282
f 283 281 284
f 285 286 287
f 288 285 289
f 290 288 291
f 292 290 293
f 294 292 295
f 296 294 297
f 298 296 299
f 300 301 302
f 303 300 304
f 305 303 306
f 307 305 308
f 309 310 311
f 312 309 313
f 314 312 315
f 316 317 318
f 319 316 320
f 321 319 322
f 323 321 324
f 325 323 326
f 327 325 328
f 329 330 331
f 332 329 333
f 334 332 335
f 336 334 337
f 338 339 340
f 341 338 342
f 343 341 344
f 345 343 346
f 347 345 348
f 349 347 350
f 351 349 352
f 353 351 354
f 355 353 356
f 357 355 358
f 359 357 360
f 361 359 362
f 363 361 364
f 365 363 366
f 367 365 368
f 1 367 2
f 6 1 4
f 10 6 8
f 14 10 12
f 18 14 16
f 22 369 23
f 27 22 25
f 29 370 30
f 34 29 32
f 38 34 36
f 371 38 40
f 42 372 43
f 47 42 45
f 51 47 49
f 55 51 53
f 59 55 57
f 63 59 61
f 65 373 66
f 70 65 68
f 72 374 73
f 78 76 75
f 82 78 80
f 84 375 85
f 89 84 87
f 93 89 91
f 376 93 95
f 100 98 97
f 104 100 102
f 109 107 106
f 377 109 111
f 113 378 114
f 118 113 116
f 120 379 121
f 125 120 123
f 132 130 129
f 380 132 134
f 136 381 137
f 142 140 139
f 382 142 144
f 149 147 146
f 153 149 151
f 158 156 155
f 162 158 160
f 166 162 164
f 170 166 168
f 383 170 172
f 177 175 174
f 181 177 179
f 384 181 183
f 188 186 185
f 192 188 190
f 197 195 194
f 201 197 199
f 205 201 203
f 385 205 207
f 212 210 209
f 216 212 214
f 220 216 218
f 386 220 222
f 227 225 224
f 231 227 229
f 233 387 234
f 236 233 237
f 241 236 239
f 246 244 243
f 250 246 248
f 254 250 252
f 258 254 256
f 260 388 261
f 265 260 263
f 273 271 270
f 277 273 275
f 281 277 279
f 286 281 283
f 288 286 285
f 292 288 290
f 296 292 294
f 389 296 298
f 303 301 300
f 307 303 305
f 312 310 309
f 390 312 314
f 319 317 316
f 323 319 321
f 327 323 325
f 332 330 329
f 336 332 334
f 341 339 338
f 345 341 343
f 349 345 347
f 353 349 351
f 357 353 355
f 361 357 359
f 365 361 363
f 1 365 367
f 10 1 6
f 18 10 14
f 27 369 22
f 34 370 29
f 371 34 38
f 47 372 42
f 55 47 51
f 63 55 59
f 70 373 65
f 72 391 374
f 82 76 78
f 89 375 84
f 376 89 93
f 100 392 98
f 109 393 107
f 394 109 377
f 118 378 113
f 125 379 120
f 132 395 130
f 396 132 380
f 136 397 381
f 382 140 142
f 153 147 149
f 158 398 156
f 166 158 162
f 383 166 170
f 177 399 175
f 384 177 181
f 192 186 188
f 197 400 195
f 205 197 201
f 401 205 385
f 212 402 210
f 220 212 216
f 403 220 386
f 227 404 225
f 405 227 231
f 241 233 236
f 250 244 246
f 258 250 254
f 265 388 260
f 273 406 271
f 281 273 277
f 288 281 286
f 296 288 292
f 307 301 303
f 312 407 310
f 408 312 390
f 319 409 317
f 327 319 323
f 332 410 330
f 341 411 339
f 353 345 349
f 361 353 357
f 1 361 365
f 18 1 10
f 27 412 369
f 34 413 370
f 414 34 371
f 47 415 372
f 63 47 55
f 416 373 70
f 72 417 391
f 418 76 82
f 89 419 375
f 420 89 376
f 100 421 392
f 394 393 109
f 118 422 378
f 125 423 379
f 396 395 132
f 136 424 397
f 382 425 140
f 153 426 147
f 166 398 158
f 427 166 383
f 384 399 177
f 192 384 186
f 205 400 197
f 212 428 402
f 403 212 220
f 227 429 404
f 430 227 405
f 241 387 233
f 250 241 244
f 431 250 258
f 265 432 388
f 273 433 406
f 288 273 281
f 389 288 296
f 307 434 301
f 408 407 312
f 327 409 319
f 332 435 410
f 341 436 411
f 361 345 353
f 18 361 1
f 27 437 412
f 414 413 34
f 63 415 47
f 416 63 373
f 72 438 417
f 439 76 418
f 89 439 419
f 421 89 420
f 104 421 100
f 394 440 393
f 441 422 118
f 125 442 423
f 396 443 395
f 136 396 424
f 382 444 425
f 445 426 153
f 166 446 398
f 384 447 399
f 448 384 192
f 205 449 400
f 212 450 428
f 429 212 403
f 430 429 227
f 250 387 241
f 451 250 431
f 452 432 265
f 273 453 433
f 389 273 288
f 307 454 434
f 408 455 407
f 327 456 409
f 336 435 332
f 345 436 341
f 18 345 361
f 457 437 27
f 458 413 414
f 63 458 415
f 72 459 438
f 89 76 439
f 104 89 421
f 460 440 394
f 461 422 441
f 127 442 125
f 396 462 443
f 463 396 136
f 464 444 382
f 445 465 426
f 166 466 446
f 384 427 447
f 467 384 448
f 401 449 205
f 212 468 450
f 430 212 429
f 250 469 387
f 470 250 451
f 273 471 453
f 472 273 389
f 473 454 307
f 474 455 408
f 327 475 456
f 336 476 435
f 345 477 436
f 20 345 18
f 457 478 437
f 63 413 458
f 479 459 72
f 104 76 89
f 460 480 440
f 461 481 422
f 127 482 442
f 396 483 462
f 484 396 463
f 485 444 464
f 445 485 465
f 166 486 466
f 384 166 427
f 449 384 467
f 487 449 401
f 212 488 468
f 489 212 430
f 470 469 250
f 273 490 471
f 454 273 472
f 455 454 473
f 491 455 474
f 327 492 475
f 336 493 476
f 494 345 20
f 495 478 457
f 63 496 413
f 479 497 459
f 104 498 76
f 481 480 460
f 499 481 461
f 483 482 127
f 484 483 396
f 445 444 485
f 166 500 486
f 449 166 384
f 501 449 487
f 489 488 212
f 470 502 469
f 273 267 490
f 503 455 491
f 327 504 492
f 336 505 493
f 506 345 494
f 416 496 63
f 104 479 498
f 507 481 499
f 484 482 483
f 445 484 444
f 166 508 500
f 501 166 449
f 509 488 489
f 470 510 502
f 454 267 273
f 503 454 455
f 327 511 504
f 512 345 506
f 416 495 496
f 104 497 479
f 513 481 507
f 484 514 482
f 515 484 445
f 501 508 166
f 510 488 509
f 516 510 470
f 454 268 267
f 517 454 503
f 518 511 327
f 512 477 345
f 480 497 104
f 515 514 484
f 501 519 508
f 516 488 510
f 454 520 268
f 521 454 517
f 522 511 518
f 523 477 512
f 481 497 480
f 524 514 515
f 501 525 519
f 526 488 516
f 454 527 520
f 511 454 521
f 528 511 522
f 529 477 523
f 513 497 481
f 530 514 524
f 501 530 525
f 531 488 526
f 454 532 527
f 533 511 528
f 534 477 529
f 513 535 497
f 501 514 530
f 536 488 531
f 454 452 532
f 537 511 533
f 538 477 534
f 513 539 535
f 488 514 501
f 540 488 536
f 454 432 452
f 478 477 538
f 513 541 539
f 540 514 488
f 454 542 432
f 495 477 478
f 513 543 541
f 540 513 514
f 454 544 542
f 495 336 477
f 513 545 543
f 546 513 540
f 511 544 454
f 495 505 336
f 513 547 545
f 548 513 546
f 511 549 544
f 495 550 505
f 513 416 547
f 551 513 548
f 511 552 549
f 416 550 495
f 551 416 513
f 511 551 552
f 416 537 550
f 511 416 551
f 416 511 537
f 553 554 555
f 554 556 557
f 556 558 559
f 558 560 561
f 560 562 563
f 562 564 565
f 564 566 567
f 566 568 569
f 568 570 571
f 570 572 573
f 574 575 576
f 575 577 578
f 577 579 580
f 581 582 583
f 582 584 585
f 584 586 587
f 586 588 589
f 588 590 591
f 590 592 593
f 594 595 596
f 595 597 598
f 597 599 600
f 599 601 602
f 601 603 604
f 603 605 606
f 605 607 608
f 607 609 610
f 609 611 612
f 611 613 614
f 613 615 616
f 617 618 619
f 618 620 621
f 620 622 623
f 624 625 626
f 627 628 629
f 628 630 631
f 630 632 633
f 632 634 635
f 636 637 638
f 637 639 640
f 639 641 642
f 641 643 644
f 643 645 646
f 645 647 648
f 649 650 651
f 650 652 653
f 652 654 655
f 654 656 657
f 658 659 660
f 659 661 662
f 661 663 664
f 665 666 667
f 666 668 669
f 668 670 671
f 672 673 674
f 673 675 676
f 675 677 678
f 677 679 680
f 681 682 683
f 682 684 685
f 684 686 687
f 688 689 690
f 691 692 693
f 692 694 695
f 694 696 697
f 698 699 700
f 699 701 702
f 701 703 704
f 703 705 706
f 707 708 709
f 708 710 711
f 710 712 713
f 712 714 715
f 714 716 717
f 716 718 719
f 718 720 721
f 720 722 723
f 722 724 725
f 726 727 728
f 727 729 730
f 729 731 732
f 731 733 734
f 733 735 736
f 737 738 739
f 738 740 741
f 740 742 743
f 742 744 745
f 746 747 748
f 747 749 750
f 749 751 752
f 751 753 754
f 753 755 756
f 755 757 758
f 757 759 760
f 761 762 763
f 762 764 765
f 764 766 767
f 766 768 769
f 768 770 771
f 770 772 773
f 772 774 775
f 776 777 778
f 777 779 780
f 779 781 782
f 781 783 784
f 785 786 787
f 788 789 790
f 789 791 792
f 791 793 794
f 795 796 797
f 796 798 799
f 798 800 801
f 800 802 803
f 802 804 805
f 804 806 807
f 806 808 809
f 808 810 811
f 812 813 814
f 813 815 816
f 815 817 818
f 819 820 821
f 822 823 824
f 823 825 826
f 825 827 828
f 827 829 830
f 829 831 832
f 831 833 834
f 833 835 836
f 837 838 839
f 838 840 841
f 840 842 843
f 842 844 845
f 844 846 847
f 846 848 849
f 848 850 851
f 852 853 854
f 853 855 856
f 855 857 858
f 857 859 860
f 861 862 863
f 862 864 865
f 864 866 867
f 868 869 870
f 869 871 872
f 871 873 874
f 873 875 876
f 875 877 878
f 877 879 880
f 881 882 883
f 882 884 885
f 884 886 887
f 886 888 889
f 890 891 892
f 891 893 894
f 893 895 896
f 895 897 898
f 897 899 900
f 899 901 902
f 901 903 904
f 903 905 906
f 905 907 908
f 907 909 910
f 909 911 912
f 911 913 914
f 913 915 916
f 915 917 918
f 917 919 920
f 919 554 553
f 554 558 556
f 558 562 560
f 562 566 564
f 566 570 568
f 921 575 574
f 575 579 577
f 922 582 581
f 582 586 584
f 586 590 588
f 590 923 592
f 924 595 594
f 595 599 597
f 599 603 601
f 603 607 605
f 607 611 609
f 611 615 613
f 925 618 617
f 618 622 620
f 926 625 624
f 627 630 628
f 630 634 632
f 927 637 636
f 637 641 639
f 641 645 643
f 645 928 647
f 649 652 650
f 652 656 654
f 658 661 659
f 661 929 663
f 930 666 665
f 666 670 668
f 931 673 672
f 673 677 675
f 681 684 682
f 684 932 686
f 933 689 688
f 691 694 692
f 694 934 696
f 698 701 699
f 701 705 703
f 707 710 708
f 710 714 712
f 714 718 716
f 718 722 720
f 722 935 724
f 726 729 727
f 729 733 731
f 733 936 735
f 737 740 738
f 740 744 742
f 746 749 747
f 749 753 751
f 753 757 755
f 757 937 759
f 761 764 762
f 764 768 766
f 768 772 770
f 772 938 774
f 776 779 777
f 779 783 781
f 939 786 785
f 786 789 788
f 789 793 791
f 795 798 796
f 798 802 800
f 802 806 804
f 806 810 808
f 940 813 812
f 813 817 815
f 822 825 823
f 825 829 827
f 829 833 831
f 833 837 835
f 837 840 838
f 840 844 842
f 844 848 846
f 848 941 850
f 852 855 853
f 855 859 857
f 861 864 862
f 864 942 866
f 868 871 869
f 871 875 873
f 875 879 877
f 881 884 882
f 884 888 886
f 890 893 891
f 893 897 895
f 897 901 899
f 901 905 903
f 905 909 907
f 909 913 911
f 913 917 915
f 917 554 919
f 554 562 558
f 562 570 566
f 921 579 575
f 922 586 582
f 586 923 590
f 924 599 595
f 599 607 603
f 607 615 611
f 925 622 618
f 943 625 926
f 627 634 630
f 927 641 637
f 641 928 645
f 944 652 649
f 945 661 658
f 661 946 929
f 930 670 666
f 931 677 673
f 947 684 681
f 684 948 932
f 949 689 933
f 691 934 694
f 698 705 701
f 950 710 707
f 710 718 714
f 718 935 722
f 951 729 726
f 729 936 733
f 737 744 740
f 952 749 746
f 749 757 753
f 757 953 937
f 954 764 761
f 764 772 768
f 772 955 938
f 956 779 776
f 779 957 783
f 786 793 789
f 795 802 798
f 802 810 806
f 940 817 813
f 958 825 822
f 825 833 829
f 833 840 837
f 840 848 844
f 852 859 855
f 959 864 861
f 864 960 942
f 961 871 868
f 871 879 875
f 962 884 881
f 963 893 890
f 897 905 901
f 905 913 909
f 913 554 917
f 554 570 562
f 964 579 921
f 965 586 922
f 586 966 923
f 967 599 924
f 599 615 607
f 925 968 622
f 969 625 943
f 627 970 634
f 971 641 927
f 641 972 928
f 973 652 944
f 945 946 661
f 974 670 930
f 975 677 931
f 947 948 684
f 976 689 949
f 977 934 691
f 978 705 698
f 950 718 710
f 718 979 935
f 951 936 729
f 936 744 737
f 952 757 749
f 980 764 954
f 764 955 772
f 981 779 956
f 779 982 957
f 939 793 786
f 793 802 795
f 802 983 810
f 984 817 940
f 985 825 958
f 825 840 833
f 840 941 848
f 986 859 852
f 959 960 864
f 961 879 871
f 987 884 962
f 988 893 963
f 897 913 905
f 913 570 554
f 989 579 964
f 965 966 586
f 967 615 599
f 615 968 925
f 990 625 969
f 627 991 970
f 991 641 971
f 641 973 972
f 973 656 652
f 992 946 945
f 974 993 670
f 994 677 975
f 995 948 947
f 948 689 976
f 996 934 977
f 978 997 705
f 998 718 950
f 999 936 951
f 936 1000 744
f 1001 757 952
f 1002 764 980
f 764 981 955
f 981 982 779
f 939 802 793
f 802 1003 983
f 984 1004 817
f 1005 825 985
f 825 941 840
f 1006 859 986
f 1007 960 959
f 1008 879 961
f 987 888 884
f 988 897 893
f 897 570 913
f 989 1009 579
f 965 1010 966
f 1010 615 967
f 1011 625 990
f 627 641 991
f 641 656 973
f 992 1012 946
f 974 1013 993
f 994 679 677
f 1014 948 995
f 948 1015 689
f 996 1016 934
f 1017 997 978
f 1018 718 998
f 979 936 999
f 936 1019 1000
f 1001 953 757
f 1020 764 1002
f 764 982 981
f 1021 802 939
f 802 1022 1003
f 1023 825 1005
f 825 1024 941
f 1006 1025 859
f 1007 1026 960
f 1027 879 1008
f 1028 888 987
f 1029 897 988
f 897 572 570
f 1030 1009 989
f 965 615 1010
f 1011 1031 625
f 627 656 641
f 1032 1012 992
f 1033 1013 974
f 1034 679 994
f 1035 948 1014
f 948 1036 1015
f 996 1037 1016
f 1037 997 1017
f 1038 718 1018
f 718 936 979
f 936 1001 1019
f 1001 1039 953
f 1040 764 1020
f 764 1041 982
f 1021 1022 802
f 1042 825 1023
f 825 1006 1024
f 1006 1007 1025
f 1007 1043 1026
f 1044 879 1027
f 1045 888 1028
f 897 1046 572
f 1030 1047 1009
f 1048 615 965
f 1049 1031 1011
f 1050 656 627
f 1032 1033 1012
f 1033 1051 1013
f 1034 1035 679
f 1035 1036 948
f 996 997 1037
f 1052 718 1038
f 718 1001 936
f 1001 1053 1039
f 1040 1041 764
f 1054 1022 1021
f 820 825 1042
f 1007 1055 1043
f 1056 879 1044
f 1057 888 1045
f 897 1058 1046
f 1048 968 615
f 1031 656 1050
f 1033 1059 1051
f 1034 1036 1035
f 1036 997 996
f 1060 718 1052
f 718 1053 1001
f 1040 1061 1041
f 1062 1022 1054
f 820 1006 825
f 1006 1055 1007
f 1063 879 1056
f 897 1064 1058
f 1047 968 1048
f 1049 656 1031
f 1033 1065 1059
f 1066 1036 1034
f 1036 1067 997
f 1060 1053 718
f 1040 1062 1061
f 1062 1068 1022
f 819 1006 820
f 1006 1069 1055
f 1063 1070 879
f 1029 1064 897
f 1049 1032 656
f 1066 1067 1036
f 1071 1053 1060
f 1040 1068 1062
f 1072 1006 819
f 1006 1073 1069
f 1063 1074 1070
f 1029 1075 1064
f 1049 1033 1032
f 1066 1076 1067
f 1077 1053 1071
f 1040 1078 1068
f 1079 1006 1072
f 1006 1063 1073
f 1063 1080 1074
f 1029 1081 1075
f 1049 1065 1033
f 1066 1082 1076
f 1082 1053 1077
f 1040 1083 1078
f 1084 1006 1079
f 1063 1085 1080
f 1029 1086 1081
f 1087 1065 1049
f 1066 1053 1082
f 1040 1088 1083
f 1004 1006 1084
f 1063 1089 1085
f 1029 1090 1086
f 1091 1065 1087
f 1066 1040 1053
f 1040 1092 1088
f 984 1006 1004
f 1029 1030 1090
f 1093 1065 1091
f 1066 1092 1040
f 1094 1006 984
f 1029 1047 1030
f 1095 1065 1093
f 1065 1092 1066
f 1096 1006 1094
f 888 1047 1029
f 1097 1065 1095
f 1065 1098 1092
f 1096 1063 1006
f 1057 1047 888
f 1099 1065 1097
f 1065 1100 1098
f 1101 1063 1096
f 1102 1047 1057
f 968 1065 1099
f 1065 1103 1100
f 1104 1063 1101
f 1102 968 1047
f 968 1103 1065
f 1103 1063 1104
f 1089 968 1102
f 968 1063 1103
f 1063 968 1089
f 1 554 5
f 5 554 557
f 5 557 4
f 4 557 556
f 4 556 7
f 7 556 559
f 7 559 6
f 6 559 558
f 6 558 9
f 9 558 561
f 9 561 8
f 8 561 560
f 8 560 11
f 11 560 563
f 11 563 10
f 10 563 562
f 10 562 13
f 13 562 565
f 13 565 12
f 12 565 564
f 12 564 15
f 15 564 567
f 15 567 14
f 14 567 566
f 14 566 17
f 17 566 569
f 17 569 16
f 16 569 568
f 16 568 19
f 19 568 571
f 19 571 18
f 18 571 570
f 18 570 21
f 21 570 573
f 21 573 20
f 20 573 572
f 20 572 494
f 494 572 1046
f 494 1046 506
f 506 1046 1058
f 506 1058 512
f 512 1058 1064
f 512 1064 523
f 523 1064 1075
f 523 1075 529
f 529 1075 1081
f 529 1081 534
f 534 1081 1086
f 534 1086 538
f 538 1086 1090
f 538 1090 478
f 478 1090 1030
f 478 1030 437
f 437 1030 989
f 437 989 412
f 412 989 964
f 412 964 369
f 369 964 921
f 369 921 23
f 23 921 574
f 23 574 24
f 24 574 576
f 24 576 22
f 22 576 575
f 22 575 26
f 26 575 578
f 26 578 25
f 25 578 577
f 25 577 28
f 28 577 580
f 28 580 27
f 27 580 579
f 27 579 457
f 457 579 1009
f 457 1009 495
f 495 1009 1047
f 495 1047 496
f 496 1047 1048
f 496 1048 413
f 413 1048 965
f 413 965 370
f 370 965 922
f 370 922 30
f 30 922 581
f 30 581 31
f 31 581 583
f 31 583 29
f 29 583 582
f 29 582 33
f 33 582 585
f 33 585 32
f 32 585 584
f 32 584 35
f 35 584 587
f 35 587 34
f 34 587 586
f 34 586 37
f 37 586 589
f 37 589 36
f 36 589 588
f 36 588 39
f 39 588 591
f 39 591 38
f 38 591 590
f 38 590 41
f 41 590 593
f 41 593 40
f 40 593 592
f 40 592 371
f 371 592 923
f 371 923 414
f 414 923 966
f 414 966 458
f 458 966 1010
f 458 1010 415
f 415 1010 967
f 415 967 372
f 372 967 924
f 372 924 43
f 43 924 594
f 43 594 44
f 44 594 596
f 44 596 42
f 42 596 595
f 42 595 46
f 46 595 598
f 46 598 45
f 45 598 597
f 45 597 48
f 48 597 600
f 48 600 47
f 47 600 599
f 47 599 50
f 50 599 602
f 50 602 49
f 49 602 601
f 49 601 52
f 52 601 604
f 52 604 51
f 51 604 603
f 51 603 54
f 54 603 606
f 54 606 53
f 53 606 605
f 53 605 56
f 56 605 608
f 56 608 55
f 55 608 607
f 55 607 58
f 58 607 610
f 58 610 57
f 57 610 609
f 57 609 60
f 60 609 612
f 60 612 59
f 59 612 611
f 59 611 62
f 62 611 614
f 62 614 61
f 61 614 613
f 61 613 64
f 64 613 616
f 64 616 63
f 63 616 615
f 63 615 373
f 373 615 925
f 373 925 66
f 66 925 617
f 66 617 67
f 67 617 619
f 67 619 65
f 65 619 618
f 65 618 69
f 69 618 621
f 69 621 68
f 68 621 620
f 68 620 71
f 71 620 623
f 71 623 70
f 70 623 622
f 70 622 416
f 416 622 968
f 416 968 547
f 547 968 1099
f 547 1099 545
f 545 1099 1097
f 545 1097 543
f 543 1097 1095
f 543 1095 541
f 541 1095 1093
f 541 1093 539
f 539 1093 1091
f 539 1091 535
f 535 1091 1087
f 535 1087 497
f 497 1087 1049
f 497 1049 459
f 459 1049 1011
f 459 1011 438
f 438 1011 990
f 438 990 417
f 417 990 969
f 417 969 391
f 391 969 943
f 391 943 374
f 374 943 926
f 374 926 73
f 73 926 624
f 73 624 74
f 74 624 626
f 74 626 72
f 72 626 625
f 72 625 479
f 479 625 1031
f 479 1031 498
f 498 1031 1050
f 498 1050 76
f 76 1050 627
f 76 627 77
f 77 627 629
f 77 629 75
f 75 629 628
f 75 628 79
f 79 628 631
f 79 631 78
f 78 631 630
f 78 630 81
f 81 630 633
f 81 633 80
f 80 633 632
f 80 632 83
f 83 632 635
f 83 635 82
f 82 635 634
f 82 634 418
f 418 634 970
f 418 970 439
f 439 970 991
f 439 991 419
f 419 991 971
f 419 971 375
f 375 971 927
f 375 927 85
f 85 927 636
f 85 636 86
f 86 636 638
f 86 638 84
f 84 638 637
f 84 637 88
f 88 637 640
f 88 640 87
f 87 640 639
f 87 639 90
f 90 639 642
f 90 642 89
f 89 642 641
f 89 641 92
f 92 641 644
f 92 644 91
f 91 644 643
f 91 643 94
f 94 643 646
f 94 646 93
f 93 646 645
f 93 645 96
f 96 645 648
f 96 648 95
f 95 648 647
f 95 647 376
f 376 647 928
f 376 928 420
f 420 928 972
f 420 972 421
f 421 972 973
f 421 973 392
f 392 973 944
f 392 944 98
f 98 944 649
f 98 649 99
f 99 649 651
f 99 651 97
f 97 651 650
f 97 650 101
f 101 650 653
f 101 653 100
f 100 653 652
f 100 652 103
f 103 652 655
f 103 655 102
f 102 655 654
f 102 654 105
f 105 654 657
f 105 657 104
f 104 657 656
f 104 656 480
f 480 656 1032
f 480 1032 440
f 440 1032 992
f 440 992 393
f 393 992 945
f 393 945 107
f 107 945 658
f 107 658 108
f 108 658 660
f 108 660 106
f 106 660 659
f 106 659 110
f 110 659 662
f 110 662 109
f 109 662 661
f 109 661 112
f 112 661 664
f 112 664 111
f 111 664 663
f 111 663 377
f 377 663 929
f 377 929 394
f 394 929 946
f 394 946 460
f 460 946 1012
f 460 1012 481
f 481 1012 1033
f 481 1033 422
f 422 1033 974
f 422 974 378
f 378 974 930
f 378 930 114
f 114 930 665
f 114 665 115
f 115 665 667
f 115 667 113
f 113 667 666
f 113 666 117
f 117 666 669
f 117 669 116
f 116 669 668
f 116 668 119
f 119 668 671
f 119 671 118
f 118 671 670
f 118 670 441
f 441 670 993
f 441 993 461
f 461 993 1013
f 461 1013 499
f 499 1013 1051
f 499 1051 507
f 507 1051 1059
f 507 1059 513
f 513 1059 1065
f 513 1065 514
f 514 1065 1066
f 514 1066 482
f 482 1066 1034
f 482 1034 442
f 442 1034 994
f 442 994 423
f 423 994 975
f 423 975 379
f 379 975 931
f 379 931 121
f 121 931 672
f 121 672 122
f 122 672 674
f 122 674 120
f 120 674 673
f 120 673 124
f 124 673 676
f 124 676 123
f 123 676 675
f 123 675 126
f 126 675 678
f 126 678 125
f 125 678 677
f 125 677 128
f 128 677 680
f 128 680 127
f 127 680 679
f 127 679 483
f 483 679 1035
f 483 1035 462
f 462 1035 1014
f 462 1014 443
f 443 1014 995
f 443 995 395
f 395 995 947
f 395 947 130
f 130 947 681
f 130 681 131
f 131 681 683
f 131 683 129
f 129 683 682
f 129 682 133
f 133 682 685
f 133 685 132
f 132 685 684
f 132 684 135
f 135 684 687
f 135 687 134
f 134 687 686
f 134 686 380
f 380 686 932
f 380 932 396
f 396 932 948
f 396 948 424
f 424 948 976
f 424 976 397
f 397 976 949
f 397 949 381
f 381 949 933
f 381 933 137
f 137 933 688
f 137 688 138
f 138 688 690
f 138 690 136
f 136 690 689
f 136 689 463
f 463 689 1015
f 463 1015 484
f 484 1015 1036
f 484 1036 444
f 444 1036 996
f 444 996 425
f 425 996 977
f 425 977 140
f 140 977 691
f 140 691 141
f 141 691 693
f 141 693 139
f 139 693 692
f 139 692 143
f 143 692 695
f 143 695 142
f 142 695 694
f 142 694 145
f 145 694 697
f 145 697 144
f 144 697 696
f 144 696 382
f 382 696 934
f 382 934 464
f 464 934 1016
f 464 1016 485
f 485 1016 1037
f 485 1037 465
f 465 1037 1017
f 465 1017 426
f 426 1017 978
f 426 978 147
f 147 978 698
f 147 698 148
f 148 698 700
f 148 700 146
f 146 700 699
f 146 699 150
f 150 699 702
f 150 702 149
f 149 702 701
f 149 701 152
f 152 701 704
f 152 704 151
f 151 704 703
f 151 703 154
f 154 703 706
f 154 706 153
f 153 706 705
f 153 705 445
f 445 705 997
f 445 997 515
f 515 997 1067
f 515 1067 524
f 524 1067 1076
f 524 1076 530
f 530 1076 1082
f 530 1082 525
f 525 1082 1077
f 525 1077 519
f 519 1077 1071
f 519 1071 508
f 508 1071 1060
f 508 1060 500
f 500 1060 1052
f 500 1052 486
f 486 1052 1038
f 486 1038 466
f 466 1038 1018
f 466 1018 446
f 446 1018 998
f 446 998 398
f 398 998 950
f 398 950 156
f 156 950 707
f 156 707 157
f 157 707 709
f 157 709 155
f 155 709 708
f 155 708 159
f 159 708 711
f 159 711 158
f 158 711 710
f 158 710 161
f 161 710 713
f 161 713 160
f 160 713 712
f 160 712 163
f 163 712 715
f 163 715 162
f 162 715 714
f 162 714 165
f 165 714 717
f 165 717 164
f 164 717 716
f 164 716 167
f 167 716 719
f 167 719 166
f 166 719 718
f 166 718 169
f 169 718 721
f 169 721 168
f 168 721 720
f 168 720 171
f 171 720 723
f 171 723 170
f 170 723 722
f 170 722 173
f 173 722 725
f 173 725 172
f 172 725 724
f 172 724 383
f 383 724 935
f 383 935 427
f 427 935 979
f 427 979 447
f 447 979 999
f 447 999 399
f 399 999 951
f 399 951 175
f 175 951 726
f 175 726 176
f 176 726 728
f 176 728 174
f 174 728 727
f 174 727 178
f 178 727 730
f 178 730 177
f 177 730 729
f 177 729 180
f 180 729 732
f 180 732 179
f 179 732 731
f 179 731 182
f 182 731 734
f 182 734 181
f 181 734 733
f 181 733 184
f 184 733 736
f 184 736 183
f 183 736 735
f 183 735 384
f 384 735 936
f 384 936 186
f 186 936 737
f 186 737 187
f 187 737 739
f 187 739 185
f 185 739 738
f 185 738 189
f 189 738 741
f 189 741 188
f 188 741 740
f 188 740 191
f 191 740 743
f 191 743 190
f 190 743 742
f 190 742 193
f 193 742 745
f 193 745 192
f 192 745 744
f 192 744 448
f 448 744 1000
f 448 1000 467
f 467 1000 1019
f 467 1019 449
f 449 1019 1001
f 449 1001 400
f 400 1001 952
f 400 952 195
f 195 952 746
f 195 746 196
f 196 746 748
f 196 748 194
f 194 748 747
f 194 747 198
f 198 747 750
f 198 750 197
f 197 750 749
f 197 749 200
f 200 749 752
f 200 752 199
f 199 752 751
f 199 751 202
f 202 751 754
f 202 754 201
f 201 754 753
f 201 753 204
f 204 753 756
f 204 756 203
f 203 756 755
f 203 755 206
f 206 755 758
f 206 758 205
f 205 758 757
f 205 757 208
f 208 757 760
f 208 760 207
f 207 760 759
f 207 759 385
f 385 759 937
f 385 937 401
f 401 937 953
f 401 953 487
f 487 953 1039
f 487 1039 501
f 501 1039 1053
f 501 1053 488
f 488 1053 1040
f 488 1040 468
f 468 1040 1020
f 468 1020 450
f 450 1020 1002
f 450 1002 428
f 428 1002 980
f 428 980 402
f 402 980 954
f 402 954 210
f 210 954 761
f 210 761 211
f 211 761 763
f 211 763 209
f 209 763 762
f 209 762 213
f 213 762 765
f 213 765 212
f 212 765 764
f 212 764 215
f 215 764 767
f 215 767 214
f 214 767 766
f 214 766 217
f 217 766 769
f 217 769 216
f 216 769 768
f 216 768 219
f 219 768 771
f 219 771 218
f 218 771 770
f 218 770 221
f 221 770 773
f 221 773 220
f 220 773 772
f 220 772 223
f 223 772 775
f 223 775 222
f 222 775 774
f 222 774 386
f 386 774 938
f 386 938 403
f 403 938 955
f 403 955 429
f 429 955 981
f 429 981 404
f 404 981 956
f 404 956 225
f 225 956 776
f 225 776 226
f 226 776 778
f 226 778 224
f 224 778 777
f 224 777 228
f 228 777 780
f 228 780 227
f 227 780 779
f 227 779 230
f 230 779 782
f 230 782 229
f 229 782 781
f 229 781 232
f 232 781 784
f 232 784 231
f 231 784 783
f 231 783 405
f 405 783 957
f 405 957 430
f 430 957 982
f 430 982 489
f 489 982 1041
f 489 1041 509
f 509 1041 1061
f 509 1061 510
f 510 1061 1062
f 510 1062 502
f 502 1062 1054
f 502 1054 469
f 469 1054 1021
f 469 1021 387
f 387 1021 939
f 387 939 234
f 234 939 785
f 234 785 235
f 235 785 787
f 235 787 233
f 233 787 786
f 233 786 237
f 237 786 788
f 237 788 238
f 238 788 790
f 238 790 236
f 236 790 789
f 236 789 240
f 240 789 792
f 240 792 239
f 239 792 791
f 239 791 242
f 242 791 794
f 242 794 241
f 241 794 793
f 241 793 244
f 244 793 795
f 244 795 245
f 245 795 797
f 245 797 243
f 243 797 796
f 243 796 247
f 247 796 799
f 247 799 246
f 246 799 798
f 246 798 249
f 249 798 801
f 249 801 248
f 248 801 800
f 248 800 251
f 251 800 803
f 251 803 250
f 250 803 802
f 250 802 253
f 253 802 805
f 253 805 252
f 252 805 804
f 252 804 255
f 255 804 807
f 255 807 254
f 254 807 806
f 254 806 257
f 257 806 809
f 257 809 256
f 256 809 808
f 256 808 259
f 259 808 811
f 259 811 258
f 258 811 810
f 258 810 431
f 431 810 983
f 431 983 451
f 451 983 1003
f 451 1003 470
f 470 1003 1022
f 470 1022 516
f 516 1022 1068
f 516 1068 526
f 526 1068 1078
f 526 1078 531
f 531 1078 1083
f 531 1083 536
f 536 1083 1088
f 536 1088 540
f 540 1088 1092
f 540 1092 546
f 546 1092 1098
f 546 1098 548
f 548 1098 1100
f 548 1100 551
f 551 1100 1103
f 551 1103 552
f 552 1103 1104
f 552 1104 549
f 549 1104 1101
f 549 1101 544
f 544 1101 1096
f 544 1096 542
f 542 1096 1094
f 542 1094 432
f 432 1094 984
f 432 984 388
f 388 984 940
f 388 940 261
f 261 940 812
f 261 812 262
f 262 812 814
f 262 814 260
f 260 814 813
f 260 813 264
f 264 813 816
f 264 816 263
f 263 816 815
f 263 815 266
f 266 815 818
f 266 818 265
f 265 818 817
f 265 817 452
f 452 817 1004
f 452 1004 532
f 532 1004 1084
f 532 1084 527
f 527 1084 1079
f 527 1079 520
f 520 1079 1072
f 520 1072 268
f 268 1072 819
f 268 819 269
f 269 819 821
f 269 821 267
f 267 821 820
f 267 820 490
f 490 820 1042
f 490 1042 471
f 471 1042 1023
f 471 1023 453
f 453 1023 1005
f 453 1005 433
f 433 1005 985
f 433 985 406
f 406 985 958
f 406 958 271
f 271 958 822
f 271 822 272
f 272 822 824
f 272 824 270
f 270 824 823
f 270 823 274
f 274 823 826
f 274 826 273
f 273 826 825
f 273 825 276
f 276 825 828
f 276 828 275
f 275 828 827
f 275 827 278
f 278 827 830
f 278 830 277
f 277 830 829
f 277 829 280
f 280 829 832
f 280 832 279
f 279 832 831
f 279 831 282
f 282 831 834
f 282 834 281
f 281 834 833
f 281 833 284
f 284 833 836
f 284 836 283
f 283 836 835
f 283 835 286
f 286 835 837
f 286 837 287
f 287 837 839
f 287 839 285
f 285 839 838
f 285 838 289
f 289 838 841
f 289 841 288
f 288 841 840
f 288 840 291
f 291 840 843
f 291 843 290
f 290 843 842
f 290 842 293
f 293 842 845
f 293 845 292
f 292 845 844
f 292 844 295
f 295 844 847
f 295 847 294
f 294 847 846
f 294 846 297
f 297 846 849
f 297 849 296
f 296 849 848
f 296 848 299
f 299 848 851
f 299 851 298
f 298 851 850
f 298 850 389
f 389 850 941
f 389 941 472
f 472 941 1024
f 472 1024 454
f 454 1024 1006
f 454 1006 434
f 434 1006 986
f 434 986 301
f 301 986 852
f 301 852 302
f 302 852 854
f 302 854 300
f 300 854 853
f 300 853 304
f 304 853 856
f 304 856 303
f 303 856 855
f 303 855 306
f 306 855 858
f 306 858 305
f 305 858 857
f 305 857 308
f 308 857 860
f 308 860 307
f 307 860 859
f 307 859 473
f 473 859 1025
f 473 1025 455
f 455 1025 1007
f 455 1007 407
f 407 1007 959
f 407 959 310
f 310 959 861
f 310 861 311
f 311 861 863
f 311 863 309
f 309 863 862
f 309 862 313
f 313 862 865
f 313 865 312
f 312 865 864
f 312 864 315
f 315 864 867
f 315 867 314
f 314 867 866
f 314 866 390
f 390 866 942
f 390 942 408
f 408 942 960
f 408 960 474
f 474 960 1026
f 474 1026 491
f 491 1026 1043
f 491 1043 503
f 503 1043 1055
f 503 1055 517
f 517 1055 1069
f 517 1069 521
f 521 1069 1073
f 521 1073 511
f 511 1073 1063
f 511 1063 504
f 504 1063 1056
f 504 1056 492
f 492 1056 1044
f 492 1044 475
f 475 1044 1027
f 475 1027 456
f 456 1027 1008
f 456 1008 409
f 409 1008 961
f 409 961 317
f 317 961 868
f 317 868 318
f 318 868 870
f 318 870 316
f 316 870 869
f 316 869 320
f 320 869 872
f 320 872 319
f 319 872 871
f 319 871 322
f 322 871 874
f 322 874 321
f 321 874 873
f 321 873 324
f 324 873 876
f 324 876 323
f 323 876 875
f 323 875 326
f 326 875 878
f 326 878 325
f 325 878 877
f 325 877 328
f 328 877 880
f 328 880 327
f 327 880 879
f 327 879 518
f 518 879 1070
f 518 1070 522
f 522 1070 1074
f 522 1074 528
f 528 1074 1080
f 528 1080 533
f 533 1080 1085
f 533 1085 537
f 537 1085 1089
f 537 1089 550
f 550 1089 1102
f 550 1102 505
f 505 1102 1057
f 505 1057 493
f 493 1057 1045
f 493 1045 476
f 476 1045 1028
f 476 1028 435
f 435 1028 987
f 435 987 410
f 410 987 962
f 410 962 330
f 330 962 881
f 330 881 331
f 331 881 883
f 331 883 329
f 329 883 882
f 329 882 333
f 333 882 885
f 333 885 332
f 332 885 884
f 332 884 335
f 335 884 887
f 335 887 334
f 334 887 886
f 334 886 337
f 337 886 889
f 337 889 336
f 336 889 888
f 336 888 477
f 477 888 1029
f 477 1029 436
f 436 1029 988
f 436 988 411
f 411 988 963
f 411 963 339
f 339 963 890
f 339 890 340
f 340 890 892
f 340 892 338
f 338 892 891
f 338 891 342
f 342 891 894
f 342 894 341
f 341 894 893
f 341 893 344
f 344 893 896
f 344 896 343
f 343 896 895
f 343 895 346
f 346 895 898
f 346 898 345
f 345 898 897
f 345 897 348
f 348 897 900
f 348 900 347
f 347 900 899
f 347 899 350
f 350 899 902
f 350 902 349
f 349 902 901
f 349 901 352
f 352 901 904
f 352 904 351
f 351 904 903
f 351 903 354
f 354 903 906
f 354 906 353
f 353 906 905
f 353 905 356
f 356 905 908
f 356 908 355
f 355 908 907
f 355 907 358
f 358 907 910
f 358 910 357
f 357 910 909
f 357 909 360
f 360 909 912
f 360 912 359
f 359 912 911
f 359 911 362
f 362 911 914
f 362 914 361
f 361 914 913
f 361 913 364
f 364 913 916
f 364 916 363
f 363 916 915
f 363 915 366
f 366 915 918
f 366 918 365
f 365 918 917
f 365 917 368
f 368 917 920
f 368 920 367
f 367 920 919
f 367 919 2
f 2 919 553
f 2 553 3
f 3 553 555
f 3 555 1
f 1 555 554
