o 
v 58.66 0 -58.13
v 39.72 0 -64.16
v 58.6 0 -60.02
v 61.89 0 -70.77
v 64.8 0 -70.82
v 63.35 0 -70.79
v 60.92 0 -67.98
v 61.41 0 -69.37
v 59.54 0 -61.57
v 60.7 0 -65.56
v 60.48 0 -63.14
v 35.63 0 -71.06
v 37.6 0 -71.01
v 36.61 0 -71.03
v 21.735 0 -63.567
v 28.648 0 -63.57
v 28.52 0 -63.42
v 21.69 0 -65.27
v 21.618 0 -64.441
v 22.247 0 -66.687
v 21.901 0 -65.987
v 23.483 0 -68.209
v 22.763 0 -67.414
v 25.68 0 -70.18
v 24.444 0 -69.117
v 29.892 0 -75.039
v 29.049 0 -73.558
v 29.39 0 -74.17
v 31.138 0 -76.579
v 30.469 0 -75.836
v 32.816 0 -77.969
v 31.914 0 -77.284
v 34.115 0 -78.799
v 33.86 0 -78.65
v 34.886 0 -79.228
v 34.465 0 -78.996
v 35.847 0 -79.743
v 35.355 0 -79.481
v 31.817 0 -96.87
v 32.8 0 -95.07
v 32.223 0 -96.111
v 31.433 0 -97.747
v 31.561 0 -97.397
v 31.47 0 -98.12
v 31.409 0 -97.97
v 31.551 0 -98.194
v 31.507 0 -98.163
v 31.672 0 -98.216
v 31.605 0 -98.211
v 31.86 0 -98.19
v 31.756 0 -98.209
v 32.063 0 -98.123
v 31.967 0 -98.164
v 32.25 0 -97.971
v 32.155 0 -98.06
v 32.48 0 -97.69
v 32.356 0 -97.849
v 35.545 0 -94.643
v 34.081 0 -95.928
v 34.55 0 -95.52
v 37.022 0 -93.179
v 36.364 0 -93.87
v 37.933 0 -91.964
v 37.54 0 -92.55
v 38.88 0 -89.99
v 38.22 0 -91.4
v 39.22 0 -89.267
v 39.037 0 -89.665
v 39.627 0 -88.35
v 39.42 0 -88.82
v 40.02 0 -87.44
v 39.83 0 -87.882
v 46.908 0 -87.839
v 47.55 0 -86.17
v 47.178 0 -87.103
v 46.602 0 -88.994
v 46.722 0 -88.446
v 46.48 0 -90.19
v 46.527 0 -89.553
v 45.666 0 -94.7
v 46.13 0 -92.64
v 45.857 0 -93.831
v 45.474 0 -95.81
v 45.544 0 -95.331
v 45.43 0 -96.65
v 45.441 0 -96.222
v 45.436 0 -97.244
v 45.429 0 -96.986
v 45.481 0 -97.603
v 45.452 0 -97.444
v 45.58 0 -97.87
v 45.523 0 -97.739
v 45.84 0 -98.203
v 45.695 0 -98.053
v 46.217 0 -98.403
v 46.014 0 -98.32
v 46.71 0 -98.47
v 46.449 0 -98.453
v 47.797 0 -99.025
v 47.368 0 -98.683
v 47.53 0 -98.82
v 48.454 0 -99.418
v 48.109 0 -99.227
v 49.187 0 -99.736
v 48.817 0 -99.59
v 49.977 0 -99.933
v 49.55 0 -99.85
v 51.097 0 -100
v 50.509 0 -99.983
v 52.264 0 -99.933
v 51.698 0 -99.983
v 53.627 0 -99.603
v 52.75 0 -99.85
v 55.375 0 -98.894
v 54.51 0 -99.281
v 56.95 0 -97.967
v 56.197 0 -98.452
v 57.96 0 -97.15
v 57.61 0 -97.45
v 56.452 0 -89.249
v 56.72 0 -91.41
v 56.582 0 -90.223
v 56.181 0 -87.751
v 56.321 0 -88.441
v 55.84 0 -86.53
v 56.024 0 -87.13
v 55.676 0 -86.042
v 55.762 0 -86.285
v 55.48 0 -85.566
v 55.582 0 -85.803
v 55.253 0 -85.104
v 55.37 0 -85.333
v 54.997 0 -84.658
v 55.129 0 -84.879
v 54.712 0 -84.229
v 54.858 0 -84.441
v 54.4 0 -83.82
v 54.559 0 -84.022
v 62.078 0 -79.995
v 59.514 0 -80.057
v 60.66 0 -80.03
v 63.87 0 -79.885
v 63.117 0 -79.95
v 64.902 0 -79.642
v 64.433 0 -79.786
v 65.723 0 -79.255
v 65.37 0 -79.44
v 66.354 0 -78.771
v 66.048 0 -79.034
v 66.941 0 -78.091
v 66.649 0 -78.459
v 75.334 0 -69.111
v 72.234 0 -72.16
v 74.49 0 -69.95
v 76.695 0 -67.701
v 76.066 0 -68.366
v 77.696 0 -66.561
v 77.234 0 -67.104
v 78.205 0 -65.906
v 78.09 0 -66.06
v 78.336 0 -65.662
v 78.285 0 -65.78
v 78.377 0 -65.372
v 78.365 0 -65.533
v 78.354 0 -64.613
v 78.38 0 -65.16
v 78.152 0 -63.507
v 78.277 0 -64.058
v 77.771 0 -62.462
v 77.983 0 -62.972
v 77.054 0 -61.302
v 77.52 0 -61.99
v 75.783 0 -59.947
v 76.482 0 -60.627
v 73.918 0 -58.506
v 74.935 0 -59.246
v 72.4 0 -57.518
v 72.71 0 -57.71
v 68.526 0 -54.838
v 69.09 0 -55.26
v 68.853 0 -55.079
v 67.694 0 -54.236
v 68.132 0 -54.551
v 66.77 0 -53.58
v 67.232 0 -53.907
v 63.997 0 -40.8
v 62.588 0 -42.354
v 63.39 0 -41.47
v 64.902 0 -39.702
v 64.496 0 -40.216
v 65.495 0 -38.812
v 65.231 0 -39.24
v 65.885 0 -37.984
v 65.71 0 -38.4
v 66.134 0 -37.119
v 66.027 0 -37.553
v 66.233 0 -36.291
v 66.203 0 -36.694
v 66.181 0 -35.503
v 66.22 0 -35.92
v 66.076 0 -35.035
v 66.14 0 -35.219
v 65.802 0 -34.834
v 65.97 0 -34.918
v 64.58 0 -25.61
v 63.94 0 -28.53
v 64.36 0 -26.65
v 65.46 0 -15.8
v 65.15 0 -20.59
v 65.48 0 -20.54
v 67.976 0 -7.215
v 67.535 0 -7.605
v 67.77 0 -7.4
v 70.353 0 -5.259
v 69.474 0 -5.971
v 69.91 0 -5.62
v 71.223 0 -4.527
v 70.798 0 -4.889
v 71.925 0 -3.909
v 71.606 0 -4.195
v 72.353 0 -3.501
v 72.16 0 -3.69
v 73.544 0 -2.473
v 73.115 0 -2.825
v 73.25 0 -2.72
v 73.97 0 -1.952
v 73.786 0 -2.215
v 74.156 0 -1.439
v 74.094 0 -1.692
v 74.092 0 -1.051
v 74.15 0 -1.2
v 73.813 0 -0.726
v 73.976 0 -0.89
v 73.393 0 -0.432
v 73.614 0 -0.57
v 72.888 0 -0.237
v 73.16 0 -0.32
v 72.331 0 -0.116
v 72.611 0 -0.169
v 71.765 0 -0.054
v 72.049 0 -0.077
v 71.196 0 -0.052
v 71.481 0 -0.045
v 70.63 0 -0.111
v 70.912 0 -0.074
v 70.073 0 -0.229
v 70.35 0 -0.162
v 69.606 0 -0.377
v 69.8 0 -0.31
v 68.89 0 -0.276
v 69.178 0 -0.4
v 69.08 0 -0.35
v 68.445 0 -0.221
v 68.675 0 -0.233
v 67.974 0 -0.29
v 68.208 0 -0.24
v 67.499 0 -0.503
v 67.75 0 -0.37
v 66.969 0 -0.919
v 67.241 0 -0.684
v 66.355 0 -1.572
v 66.676 0 -1.213
v 65.49 0 -2.626
v 66 0 -2
v 62.859 0 -2.108
v 63.03 0 -2.52
v 62.937 0 -2.28
v 62.678 0 -1.889
v 62.778 0 -1.984
v 62.36 0 -1.71
v 62.544 0 -1.804
v 61.489 0 -1.394
v 61.905 0 -1.511
v 60.755 0 -1.406
v 61.106 0 -1.359
v 60.13 0 -1.75
v 60.431 0 -1.537
v 59.455 0 -2.694
v 59.764 0 -2.156
v 58.958 0 -4.352
v 59.191 0 -3.411
v 58.53 0 -7.09
v 58.742 0 -5.563
v 57.919 0 -10.668
v 58.034 0 -10.234
v 57.95 0 -10.55
v 57.856 0 -11.012
v 57.887 0 -10.826
v 57.81 0 -11.43
v 57.83 0 -11.217
v 56.723 0 -16.281
v 57.261 0 -14.381
v 56.99 0 -15.32
v 56.388 0 -17.669
v 56.525 0 -17.048
v 56.259 0 -18.666
v 56.302 0 -18.192
v 56.275 0 -19.715
v 56.25 0 -19.14
v 56.48 0 -20.711
v 56.35 0 -20.236
v 56.912 0 -21.564
v 56.666 0 -21.151
v 57.343 0 -22.1
v 57.22 0 -21.96
v 56.878 0 -23.889
v 57.45 0 -22.52
v 57.157 0 -23.202
v 56.367 0 -25.283
v 56.615 0 -24.583
v 55.918 0 -26.697
v 56.135 0 -25.988
v 55.532 0 -28.13
v 55.717 0 -27.412
v 55.209 0 -29.579
v 55.362 0 -28.853
v 54.95 0 -31.04
v 55.071 0 -30.308
v 54.235 0 -34.824
v 54.44 0 -33.75
v 54.321 0 -34.355
v 54.119 0 -35.692
v 54.171 0 -35.243
v 54 0 -37.02
v 54.065 0 -36.257
v 45.339 0 -35.282
v 45.751 0 -37.315
v 45.54 0 -36.26
v 44.999 0 -33.811
v 45.162 0 -34.477
v 44.681 0 -32.77
v 44.841 0 -33.253
v 44.437 0 -32.146
v 44.51 0 -32.33
v 44.263 0 -31.067
v 44.286 0 -31.5
v 44.28 0 -31.35
v 44.139 0 -30.341
v 44.214 0 -30.722
v 43.932 0 -29.566
v 44.043 0 -29.948
v 43.738 0 -29.047
v 43.81 0 -29.22
v 43.463 0 -28.44
v 43.619 0 -28.78
v 43.073 0 -27.62
v 43.277 0 -28.047
v 42.15 0 -17.86
v 42.43 0 -21.27
v 42.79 0 -20.94
v 40.108 0 -4.681
v 39.79 0 -5.45
v 39.99 0 -5.01
v 40.182 0 -3.963
v 40.171 0 -4.329
v 40.051 0 -3.224
v 40.142 0 -3.591
v 39.626 0 -2.403
v 39.91 0 -2.87
v 38.851 0 -1.646
v 39.266 0 -1.991
v 37.933 0 -1.213
v 38.4 0 -1.383
v 37.058 0 -1.187
v 37.47 0 -1.15
v 36.361 0 -1.531
v 36.69 0 -1.313
v 35.801 0 -2.265
v 36.066 0 -1.847
v 35.497 0 -2.94
v 35.56 0 -2.79
v 32.055 0 -1.006
v 33.31 0 -2.63
v 32.614 0 -1.682
v 31.175 0 -0.34
v 31.59 0 -0.57
v 30.32 0 -0.37
v 30.766 0 -0.285
v 26.691 0 -0.099
v 27.3 0 -0.2
v 27.003 0 -0.147
v 26.092 0 -0.027
v 26.382 0 -0.059
v 25.63 0 0
v 25.836 0 -0.007
v 25.177 0 -0.008
v 25.36 0 -0.001
v 24.993 0 -0.065
v 25.061 0 -0.027
v 24.92 0 -0.22
v 24.952 0 -0.127
v 24.865 0 -0.722
v 24.876 0 -0.457
v 24.935 0 -1.288
v 24.885 0 -1.003
v 25.12 0 -1.83
v 25.014 0 -1.568
v 25.849 0 -2.955
v 25.427 0 -2.381
v 27.151 0 -4.295
v 26.414 0 -3.582
v 29.26 0 -6.1
v 28.09 0 -5.124
v 33.24 0 -12.681
v 33.27 0 -12.01
v 33.253 0 -12.334
v 33.233 0 -13.375
v 33.234 0 -13.035
v 33.25 0 -13.94
v 33.238 0 -13.683
v 33.183 0 -16.96
v 33.247 0 -15.52
v 33.23 0 -15.83
v 33.209 0 -18.635
v 33.175 0 -17.883
v 33.418 0 -19.763
v 33.289 0 -19.25
v 33.793 0 -20.53
v 33.6 0 -20.21
v 34.331 0 -21.092
v 34.039 0 -20.826
v 35.033 0 -21.515
v 34.664 0 -21.324
v 35.558 0 -21.705
v 35.43 0 -21.66
v 34.377 0 -25.834
v 34.92 0 -24.39
v 34.602 0 -25.207
v 34.153 0 -26.746
v 34.232 0 -26.329
v 34.13 0 -27.57
v 34.123 0 -27.141
v 34.167 0 -28.093
v 34.146 0 -27.862
v 34.246 0 -28.46
v 34.199 0 -28.285
v 34.41 0 -28.85
v 34.315 0 -28.641
v 34.624 0 -29.205
v 34.504 0 -29.017
v 34.926 0 -29.615
v 34.766 0 -29.406
v 35.28 0 -30.03
v 35.098 0 -29.825
v 38.391 0 -39.734
v 38.156 0 -37.463
v 38.29 0 -38.79
v 38.603 0 -41.279
v 38.495 0 -40.562
v 38.834 0 -42.406
v 38.715 0 -41.891
v 39.089 0 -43.256
v 38.96 0 -42.83
v 33.053 0 -53.701
v 33.56 0 -53.33
v 33.318 0 -53.505
v 32.51 0 -54.115
v 32.779 0 -53.909
v 32.05 0 -54.48
v 32.263 0 -54.309
v 26.245 0 -58.206
v 28.13 0 -57.07
v 27.089 0 -57.684
v 24.965 0 -59.104
v 25.552 0 -58.669
v 23.92 0 -60.02
v 24.436 0 -59.544
v 22.502 0 -61.763
v 23.134 0 -60.874
v 22.032 0 -62.667
v 29.001 0 -62.916
v 41.98 0 -56.81
v 29.007 0 -63.967
v 33.765 0 -93.309
v 46.452 0 -90.635
v 46.88 0 -98.474
v 56.882 0 -92.749
v 72.092 0 -57.324
v 66.449 0 -53.37
v 65.55 0 -34.75
v 64.22 0 -25.27
v 64.092 0 -20.948
v 58.409 0 -8.014
v 57.8 0 -11.64
v 42.326 0 -21.382
v 33.713 0 -3.175
v 27.972 0 -0.318
v 29.546 0 -6.332
v 33.262 0 -14.196
v 35.161 0 -23.761
v 29.021 0 -56.538
v 30.209 0 -61.756
v 42.13 0 -56.32
v 29.564 0 -64.572
v 28.677 0 -73.009
v 32.774 0 -97.299
v 33.691 0 -96.287
v 48.036 0 -84.887
v 46.416 0 -91.036
v 46.229 0 -92.195
v 47.24 0 -98.587
v 53.97 0 -83.34
v 58.679 0 -80.081
v 70.541 0 -73.847
v 69.383 0 -55.476
v 66.132 0 -53.156
v 64.652 0 -34.324
v 63.6 0 -30.264
v 63.418 0 -21.554
v 69.042 0 -6.324
v 72.556 0 -3.312
v 72.947 0 -2.965
v 69.264 0 -0.429
v 63.185 0 -2.885
v 57.462 0 -13.641
v 45.925 0 -38.131
v 44.304 0 -31.653
v 42.216 0 -21.513
v 35.423 0 -3.093
v 29.831 0 -6.565
v 33.293 0 -11.24
v 33.26 0 -15.182
v 35.517 0 -30.278
v 58.686 0 -57.341
v 30.283 0 -65.35
v 26.775 0 -71.109
v 35.182 0 -90.669
v 47.014 0 -98.49
v 57.75 0 -96.64
v 57.034 0 -93.837
v 61.962 0 -43.083
v 63.528 0 -24.266
v 63.11 0 -22.349
v 72.757 0 -3.13
v 69.462 0 -0.418
v 58.302 0 -8.765
v 58.118 0 -9.849
v 53.847 0 -38.442
v 42.106 0 -21.658
v 35.341 0 -3.243
v 34.054 0 -3.554
v 28.583 0 -0.402
v 30.114 0 -6.8
v 33.266 0 -14.836
v 35.347 0 -23.257
v 38.029 0 -36.388
v 34.991 0 -52.249
v 29.802 0 -56.056
v 31.785 0 -60.272
v 58.708 0 -56.809
v 31.13 0 -66.261
v 27.6 0 -71.848
v 28.214 0 -72.46
v 36.77 0 -87.681
v 33.059 0 -96.95
v 33.357 0 -96.62
v 48.355 0 -83.849
v 46.307 0 -91.794
v 47.127 0 -98.525
v 57.534 0 -96.076
v 58.086 0 -80.107
v 69.305 0 -75.125
v 71.785 0 -57.128
v 69.678 0 -55.69
v 61.485 0 -43.697
v 64.015 0 -33.689
v 63.495 0 -31.685
v 65.45 0 -11.07
v 68.634 0 -6.66
v 69.354 0 -0.435
v 63.342 0 -3.181
v 58.206 0 -9.368
v 57.605 0 -13.049
v 57.477 0 -22.438
v 46.075 0 -38.77
v 44.335 0 -31.81
v 42 0 -21.811
v 39.95 0 -6.48
v 30.003 0 -0.435
v 30.396 0 -7.037
v 33.267 0 -14.501
v 35.489 0 -22.855
v 35.745 0 -30.535
v 37.899 0 -35.509
v 31.596 0 -54.837
v 30.484 0 -55.618
v 33.375 0 -58.797
v 58.732 0 -56.484
v 32.07 0 -67.27
v 36.34 0 -80
v 38.248 0 -84.878
v 46.369 0 -91.415
v 57.35 0 -95.453
v 57.186 0 -94.723
v 57.668 0 -80.143
v 71.479 0 -56.929
v 69.974 0 -55.902
v 63.152 0 -23.272
v 68.271 0 -6.963
v 63.502 0 -3.41
v 57.701 0 -12.552
v 44.379 0 -31.974
v 41.903 0 -21.967
v 40.15 0 -7.734
v 29.604 0 -0.461
v 29.129 0 -0.45
v 35.645 0 -21.744
v 35.593 0 -22.529
v 35.962 0 -30.801
v 39.186 0 -43.658
v 58.765 0 -56.314
v 39.335 0 -82.791
v 57.356 0 -80.192
v 71.175 0 -56.728
v 65.817 0 -52.937
v 61.128 0 -44.237
v 63.668 0 -3.572
v 57.762 0 -12.099
v 53.659 0 -39.6
v 41.82 0 -22.12
v 40.378 0 -9.046
v 34.347 0 -3.777
v 39.252 0 -44.056
v 31.078 0 -55.214
v 58.812 0 -56.25
v 67.24 0 -77.66
v 70.873 0 -56.525
v 60.862 0 -44.741
v 65.091 0 -3.081
v 63.84 0 -3.668
v 46.215 0 -39.292
v 41.721 0 -22.329
v 40.664 0 -10.565
v 33.267 0 -10.598
v 35.667 0 -22.256
v 58.88 0 -56.24
v 39.75 0 -81.95
v 48.511 0 -83.016
v 57.08 0 -80.26
v 70.572 0 -56.32
v 60.66 0 -45.25
v 64.774 0 -3.39
v 42.86 0 -27.18
v 41.651 0 -22.503
v 41.035 0 -12.441
v 34.609 0 -3.852
v 33.19 0 -10.069
v 35.72 0 -22.01
v 37.298 0 -80.503
v 40.827 0 -85.627
v 48.509 0 -82.348
v 56.743 0 -80.344
v 70.272 0 -56.112
v 60.581 0 -45.515
v 67.31 0 -7.821
v 64.509 0 -3.579
v 64.02 0 -3.7
v 42.408 0 -26.219
v 41.605 0 -22.668
v 41.521 0 -14.823
v 35.699 0 -21.786
v 35.73 0 -21.911
v 36.209 0 -51.189
v 38.122 0 -80.948
v 41.58 0 -84.169
v 48.35 0 -81.803
v 67.763 0 -76.917
v 63.631 0 -32.817
v 67.094 0 -8.046
v 64.267 0 -3.674
v 42.07 0 -25.445
v 41.579 0 -22.847
v 34.855 0 -3.787
v 35.725 0 -21.839
v 36.168 0 -31.074
v 37.22 0 -50.141
v 38.795 0 -81.324
v 42.31 0 -83.022
v 68.415 0 -76.11
v 66.889 0 -8.28
v 41.833 0 -24.815
v 30.676 0 -7.276
v 36.364 0 -31.356
v 38.031 0 -49.098
v 39.301 0 -81.622
v 39.625 0 -81.834
v 48.04 0 -81.34
v 56.414 0 -80.458
v 65.506 0 -52.714
v 66.694 0 -8.523
v 41.569 0 -23.066
v 35.1 0 -3.59
v 36.549 0 -31.645
v 38.649 0 -48.051
v 43.05 0 -82.144
v 47.838 0 -81.138
v 65.197 0 -52.487
v 60.533 0 -45.747
v 66.509 0 -8.775
v 41.57 0 -23.35
v 30.955 0 -7.516
v 34.622 0 -57.662
v 43.833 0 -81.491
v 47.603 0 -80.956
v 64.892 0 -52.255
v 66.336 0 -9.034
v 57.424 0 -22.207
v 41.597 0 -23.811
v 31.233 0 -7.757
v 36.722 0 -31.941
v 35.17 0 -57.2
v 44.69 0 -81.02
v 47.349 0 -80.802
v 56.097 0 -80.6
v 64.59 0 -52.02
v 66.175 0 -9.3
v 57.47 0 -22.293
v 41.68 0 -24.285
v 31.509 0 -8.001
v 36.884 0 -32.244
v 39.08 0 -46.99
v 47.09 0 -80.684
v 55.793 0 -80.77
v 64.291 0 -51.78
v 66.025 0 -9.574
v 57.486 0 -22.366
v 35.175 0 -3.499
v 37.034 0 -32.552
v 35.822 0 -57.105
v 44.971 0 -80.911
v 54.12 0 -82.92
v 63.996 0 -51.536
v 65.888 0 -9.854
v 31.784 0 -8.246
v 37.172 0 -32.867
v 37.07 0 -56.937
v 45.306 0 -80.808
v 54.239 0 -82.593
v 63.704 0 -51.288
v 65.762 0 -10.139
v 35.257 0 -3.38
v 32.058 0 -8.492
v 37.297 0 -33.186
v 39.135 0 -46.786
v 45.666 0 -80.717
v 46.843 0 -80.607
v 63.415 0 -51.036
v 65.65 0 -10.43
v 53.417 0 -40.541
v 37.41 0 -33.51
v 39.181 0 -46.57
v 46.024 0 -80.645
v 54.387 0 -82.279
v 63.13 0 -50.78
v 32.329 0 -8.74
v 37.598 0 -34.124
v 38.606 0 -56.735
v 46.351 0 -80.597
v 54.563 0 -81.978
v 62.845 0 -50.51
v 32.6 0 -8.99
v 37.758 0 -34.772
v 39.219 0 -46.335
v 46.62 0 -80.58
v 54.764 0 -81.695
v 32.861 0 -9.281
v 39.249 0 -46.073
v 54.989 0 -81.43
v 33.056 0 -9.635
v 39.272 0 -45.777
v 60.518 0 -45.97
v 40.12 0 -56.54
v 68.22 0 -67.23
v 60.533 0 -46.21
v 46.359 0 -39.758
v 39.29 0 -45.44
v 71.63 0 -63.63
v 60.581 0 -46.492
v 46.52 0 -40.23
v 39.303 0 -44.927
v 55.237 0 -81.186
v 60.66 0 -46.84
v 46.893 0 -41.113
v 39.291 0 -44.472
v 55.506 0 -80.966
v 60.779 0 -47.214
v 41.301 0 -56.392
v 60.915 0 -47.582
v 61.067 0 -47.944
v 71.44 0 -63.45
v 61.236 0 -48.298
v 47.331 0 -41.854
v 41.84 0 -56.33
v 70.793 0 -62.852
v 61.422 0 -48.644
v 47.836 0 -42.452
v 69.488 0 -61.656
v 61.622 0 -48.981
v 48.409 0 -42.909
v 67.868 0 -60.174
v 61.838 0 -49.309
v 66.272 0 -58.717
v 62.069 0 -49.626
v 49.05 0 -43.225
v 65.042 0 -57.599
v 62.314 0 -49.932
v 49.76 0 -43.4
v 64.52 0 -57.13
v 62.573 0 -50.227
v 50.264 0 -43.445
v 53.108 0 -41.313
v 50.702 0 -43.426
v 64.39 0 -57.092
v 51.095 0 -43.334
v 64.09 0 -57.03
v 52.714 0 -41.964
v 51.464 0 -43.161
v 63.646 0 -56.949
v 52.22 0 -42.54
v 51.832 0 -42.899
v 63.087 0 -56.854
v 59.023 0 -56.254
v 62.439 0 -56.749
v 61.73 0 -56.64
v 59.334 0 -56.293
v 61.012 0 -56.531
v 59.787 0 -56.354
v 60.356 0 -56.434
v 39.72 10 -64.16
v 58.66 10 -58.13
v 58.6 10 -60.02
v 64.8 10 -70.82
v 61.89 10 -70.77
v 63.35 10 -70.79
v 60.92 10 -67.98
v 61.41 10 -69.37
v 60.7 10 -65.56
v 59.54 10 -61.57
v 60.48 10 -63.14
v 37.6 10 -71.01
v 35.63 10 -71.06
v 36.61 10 -71.03
v 28.648 10 -63.57
v 21.735 10 -63.567
v 28.52 10 -63.42
v 21.69 10 -65.27
v 21.618 10 -64.441
v 22.247 10 -66.687
v 21.901 10 -65.987
v 23.483 10 -68.209
v 22.763 10 -67.414
v 25.68 10 -70.18
v 24.444 10 -69.117
v 29.049 10 -73.558
v 29.892 10 -75.039
v 29.39 10 -74.17
v 31.138 10 -76.579
v 30.469 10 -75.836
v 32.816 10 -77.969
v 31.914 10 -77.284
v 34.115 10 -78.799
v 33.86 10 -78.65
v 34.886 10 -79.228
v 34.465 10 -78.996
v 35.847 10 -79.743
v 35.355 10 -79.481
v 32.8 10 -95.07
v 31.817 10 -96.87
v 32.223 10 -96.111
v 31.433 10 -97.747
v 31.561 10 -97.397
v 31.47 10 -98.12
v 31.409 10 -97.97
v 31.551 10 -98.194
v 31.507 10 -98.163
v 31.672 10 -98.216
v 31.605 10 -98.211
v 31.86 10 -98.19
v 31.756 10 -98.209
v 32.063 10 -98.123
v 31.967 10 -98.164
v 32.25 10 -97.971
v 32.155 10 -98.06
v 32.48 10 -97.69
v 32.356 10 -97.849
v 34.081 10 -95.928
v 35.545 10 -94.643
v 34.55 10 -95.52
v 37.022 10 -93.179
v 36.364 10 -93.87
v 37.933 10 -91.964
v 37.54 10 -92.55
v 38.88 10 -89.99
v 38.22 10 -91.4
v 39.22 10 -89.267
v 39.037 10 -89.665
v 39.627 10 -88.35
v 39.42 10 -88.82
v 40.02 10 -87.44
v 39.83 10 -87.882
v 47.55 10 -86.17
v 46.908 10 -87.839
v 47.178 10 -87.103
v 46.602 10 -88.994
v 46.722 10 -88.446
v 46.48 10 -90.19
v 46.527 10 -89.553
v 46.13 10 -92.64
v 45.666 10 -94.7
v 45.857 10 -93.831
v 45.474 10 -95.81
v 45.544 10 -95.331
v 45.43 10 -96.65
v 45.441 10 -96.222
v 45.436 10 -97.244
v 45.429 10 -96.986
v 45.481 10 -97.603
v 45.452 10 -97.444
v 45.58 10 -97.87
v 45.523 10 -97.739
v 45.84 10 -98.203
v 45.695 10 -98.053
v 46.217 10 -98.403
v 46.014 10 -98.32
v 46.71 10 -98.47
v 46.449 10 -98.453
v 47.368 10 -98.683
v 47.797 10 -99.025
v 47.53 10 -98.82
v 48.454 10 -99.418
v 48.109 10 -99.227
v 49.187 10 -99.736
v 48.817 10 -99.59
v 49.977 10 -99.933
v 49.55 10 -99.85
v 51.097 10 -100
v 50.509 10 -99.983
v 52.264 10 -99.933
v 51.698 10 -99.983
v 53.627 10 -99.603
v 52.75 10 -99.85
v 55.375 10 -98.894
v 54.51 10 -99.281
v 56.95 10 -97.967
v 56.197 10 -98.452
v 57.96 10 -97.15
v 57.61 10 -97.45
v 56.72 10 -91.41
v 56.452 10 -89.249
v 56.582 10 -90.223
v 56.181 10 -87.751
v 56.321 10 -88.441
v 55.84 10 -86.53
v 56.024 10 -87.13
v 55.676 10 -86.042
v 55.762 10 -86.285
v 55.48 10 -85.566
v 55.582 10 -85.803
v 55.253 10 -85.104
v 55.37 10 -85.333
v 54.997 10 -84.658
v 55.129 10 -84.879
v 54.712 10 -84.229
v 54.858 10 -84.441
v 54.4 10 -83.82
v 54.559 10 -84.022
v 59.514 10 -80.057
v 62.078 10 -79.995
v 60.66 10 -80.03
v 63.87 10 -79.885
v 63.117 10 -79.95
v 64.902 10 -79.642
v 64.433 10 -79.786
v 65.723 10 -79.255
v 65.37 10 -79.44
v 66.354 10 -78.771
v 66.048 10 -79.034
v 66.941 10 -78.091
v 66.649 10 -78.459
v 72.234 10 -72.16
v 75.334 10 -69.111
v 74.49 10 -69.95
v 76.695 10 -67.701
v 76.066 10 -68.366
v 77.696 10 -66.561
v 77.234 10 -67.104
v 78.205 10 -65.906
v 78.09 10 -66.06
v 78.336 10 -65.662
v 78.285 10 -65.78
v 78.377 10 -65.372
v 78.365 10 -65.533
v 78.354 10 -64.613
v 78.38 10 -65.16
v 78.152 10 -63.507
v 78.277 10 -64.058
v 77.771 10 -62.462
v 77.983 10 -62.972
v 77.054 10 -61.302
v 77.52 10 -61.99
v 75.783 10 -59.947
v 76.482 10 -60.627
v 73.918 10 -58.506
v 74.935 10 -59.246
v 72.4 10 -57.518
v 72.71 10 -57.71
v 69.09 10 -55.26
v 68.526 10 -54.838
v 68.853 10 -55.079
v 67.694 10 -54.236
v 68.132 10 -54.551
v 66.77 10 -53.58
v 67.232 10 -53.907
v 62.588 10 -42.354
v 63.997 10 -40.8
v 63.39 10 -41.47
v 64.902 10 -39.702
v 64.496 10 -40.216
v 65.495 10 -38.812
v 65.231 10 -39.24
v 65.885 10 -37.984
v 65.71 10 -38.4
v 66.134 10 -37.119
v 66.027 10 -37.553
v 66.233 10 -36.291
v 66.203 10 -36.694
v 66.181 10 -35.503
v 66.22 10 -35.92
v 66.076 10 -35.035
v 66.14 10 -35.219
v 65.802 10 -34.834
v 65.97 10 -34.918
v 63.94 10 -28.53
v 64.58 10 -25.61
v 64.36 10 -26.65
v 65.15 10 -20.59
v 65.46 10 -15.8
v 65.48 10 -20.54
v 67.535 10 -7.605
v 67.976 10 -7.215
v 67.77 10 -7.4
v 69.474 10 -5.971
v 70.353 10 -5.259
v 69.91 10 -5.62
v 71.223 10 -4.527
v 70.798 10 -4.889
v 71.925 10 -3.909
v 71.606 10 -4.195
v 72.353 10 -3.501
v 72.16 10 -3.69
v 73.115 10 -2.825
v 73.544 10 -2.473
v 73.25 10 -2.72
v 73.97 10 -1.952
v 73.786 10 -2.215
v 74.156 10 -1.439
v 74.094 10 -1.692
v 74.092 10 -1.051
v 74.15 10 -1.2
v 73.813 10 -0.726
v 73.976 10 -0.89
v 73.393 10 -0.432
v 73.614 10 -0.57
v 72.888 10 -0.237
v 73.16 10 -0.32
v 72.331 10 -0.116
v 72.611 10 -0.169
v 71.765 10 -0.054
v 72.049 10 -0.077
v 71.196 10 -0.052
v 71.481 10 -0.045
v 70.63 10 -0.111
v 70.912 10 -0.074
v 70.073 10 -0.229
v 70.35 10 -0.162
v 69.606 10 -0.377
v 69.8 10 -0.31
v 69.178 10 -0.4
v 68.89 10 -0.276
v 69.08 10 -0.35
v 68.445 10 -0.221
v 68.675 10 -0.233
v 67.974 10 -0.29
v 68.208 10 -0.24
v 67.499 10 -0.503
v 67.75 10 -0.37
v 66.969 10 -0.919
v 67.241 10 -0.684
v 66.355 10 -1.572
v 66.676 10 -1.213
v 65.49 10 -2.626
v 66 10 -2
v 63.03 10 -2.52
v 62.859 10 -2.108
v 62.937 10 -2.28
v 62.678 10 -1.889
v 62.778 10 -1.984
v 62.36 10 -1.71
v 62.544 10 -1.804
v 61.489 10 -1.394
v 61.905 10 -1.511
v 60.755 10 -1.406
v 61.106 10 -1.359
v 60.13 10 -1.75
v 60.431 10 -1.537
v 59.455 10 -2.694
v 59.764 10 -2.156
v 58.958 10 -4.352
v 59.191 10 -3.411
v 58.53 10 -7.09
v 58.742 10 -5.563
v 58.034 10 -10.234
v 57.919 10 -10.668
v 57.95 10 -10.55
v 57.856 10 -11.012
v 57.887 10 -10.826
v 57.81 10 -11.43
v 57.83 10 -11.217
v 57.261 10 -14.381
v 56.723 10 -16.281
v 56.99 10 -15.32
v 56.388 10 -17.669
v 56.525 10 -17.048
v 56.259 10 -18.666
v 56.302 10 -18.192
v 56.275 10 -19.715
v 56.25 10 -19.14
v 56.48 10 -20.711
v 56.35 10 -20.236
v 56.912 10 -21.564
v 56.666 10 -21.151
v 57.343 10 -22.1
v 57.22 10 -21.96
v 57.45 10 -22.52
v 56.878 10 -23.889
v 57.157 10 -23.202
v 56.367 10 -25.283
v 56.615 10 -24.583
v 55.918 10 -26.697
v 56.135 10 -25.988
v 55.532 10 -28.13
v 55.717 10 -27.412
v 55.209 10 -29.579
v 55.362 10 -28.853
v 54.95 10 -31.04
v 55.071 10 -30.308
v 54.44 10 -33.75
v 54.235 10 -34.824
v 54.321 10 -34.355
v 54.119 10 -35.692
v 54.171 10 -35.243
v 54 10 -37.02
v 54.065 10 -36.257
v 45.751 10 -37.315
v 45.339 10 -35.282
v 45.54 10 -36.26
v 44.999 10 -33.811
v 45.162 10 -34.477
v 44.681 10 -32.77
v 44.841 10 -33.253
v 44.437 10 -32.146
v 44.51 10 -32.33
v 44.286 10 -31.5
v 44.263 10 -31.067
v 44.28 10 -31.35
v 44.139 10 -30.341
v 44.214 10 -30.722
v 43.932 10 -29.566
v 44.043 10 -29.948
v 43.738 10 -29.047
v 43.81 10 -29.22
v 43.463 10 -28.44
v 43.619 10 -28.78
v 43.073 10 -27.62
v 43.277 10 -28.047
v 42.43 10 -21.27
v 42.15 10 -17.86
v 42.79 10 -20.94
v 39.79 10 -5.45
v 40.108 10 -4.681
v 39.99 10 -5.01
v 40.182 10 -3.963
v 40.171 10 -4.329
v 40.051 10 -3.224
v 40.142 10 -3.591
v 39.626 10 -2.403
v 39.91 10 -2.87
v 38.851 10 -1.646
v 39.266 10 -1.991
v 37.933 10 -1.213
v 38.4 10 -1.383
v 37.058 10 -1.187
v 37.47 10 -1.15
v 36.361 10 -1.531
v 36.69 10 -1.313
v 35.801 10 -2.265
v 36.066 10 -1.847
v 35.497 10 -2.94
v 35.56 10 -2.79
v 33.31 10 -2.63
v 32.055 10 -1.006
v 32.614 10 -1.682
v 31.175 10 -0.34
v 31.59 10 -0.57
v 30.32 10 -0.37
v 30.766 10 -0.285
v 27.3 10 -0.2
v 26.691 10 -0.099
v 27.003 10 -0.147
v 26.092 10 -0.027
v 26.382 10 -0.059
v 25.63 10 0
v 25.836 10 -0.007
v 25.177 10 -0.008
v 25.36 10 -0.001
v 24.993 10 -0.065
v 25.061 10 -0.027
v 24.92 10 -0.22
v 24.952 10 -0.127
v 24.865 10 -0.722
v 24.876 10 -0.457
v 24.935 10 -1.288
v 24.885 10 -1.003
v 25.12 10 -1.83
v 25.014 10 -1.568
v 25.849 10 -2.955
v 25.427 10 -2.381
v 27.151 10 -4.295
v 26.414 10 -3.582
v 29.26 10 -6.1
v 28.09 10 -5.124
v 33.27 10 -12.01
v 33.24 10 -12.681
v 33.253 10 -12.334
v 33.233 10 -13.375
v 33.234 10 -13.035
v 33.25 10 -13.94
v 33.238 10 -13.683
v 33.247 10 -15.52
v 33.183 10 -16.96
v 33.23 10 -15.83
v 33.209 10 -18.635
v 33.175 10 -17.883
v 33.418 10 -19.763
v 33.289 10 -19.25
v 33.793 10 -20.53
v 33.6 10 -20.21
v 34.331 10 -21.092
v 34.039 10 -20.826
v 35.033 10 -21.515
v 34.664 10 -21.324
v 35.558 10 -21.705
v 35.43 10 -21.66
v 34.92 10 -24.39
v 34.377 10 -25.834
v 34.602 10 -25.207
v 34.153 10 -26.746
v 34.232 10 -26.329
v 34.13 10 -27.57
v 34.123 10 -27.141
v 34.167 10 -28.093
v 34.146 10 -27.862
v 34.246 10 -28.46
v 34.199 10 -28.285
v 34.41 10 -28.85
v 34.315 10 -28.641
v 34.624 10 -29.205
v 34.504 10 -29.017
v 34.926 10 -29.615
v 34.766 10 -29.406
v 35.28 10 -30.03
v 35.098 10 -29.825
v 38.156 10 -37.463
v 38.391 10 -39.734
v 38.29 10 -38.79
v 38.603 10 -41.279
v 38.495 10 -40.562
v 38.834 10 -42.406
v 38.715 10 -41.891
v 39.089 10 -43.256
v 38.96 10 -42.83
v 33.56 10 -53.33
v 33.053 10 -53.701
v 33.318 10 -53.505
v 32.51 10 -54.115
v 32.779 10 -53.909
v 32.05 10 -54.48
v 32.263 10 -54.309
v 28.13 10 -57.07
v 26.245 10 -58.206
v 27.089 10 -57.684
v 24.965 10 -59.104
v 25.552 10 -58.669
v 23.92 10 -60.02
v 24.436 10 -59.544
v 22.502 10 -61.763
v 23.134 10 -60.874
v 22.032 10 -62.667
v 29.001 10 -62.916
v 41.98 10 -56.81
v 29.007 10 -63.967
v 33.765 10 -93.309
v 46.452 10 -90.635
v 46.88 10 -98.474
v 56.882 10 -92.749
v 72.092 10 -57.324
v 66.449 10 -53.37
v 65.55 10 -34.75
v 64.22 10 -25.27
v 64.092 10 -20.948
v 58.409 10 -8.014
v 57.8 10 -11.64
v 42.326 10 -21.382
v 33.713 10 -3.175
v 27.972 10 -0.318
v 29.546 10 -6.332
v 33.262 10 -14.196
v 35.161 10 -23.761
v 29.021 10 -56.538
v 30.209 10 -61.756
v 42.13 10 -56.32
v 29.564 10 -64.572
v 28.677 10 -73.009
v 32.774 10 -97.299
v 33.691 10 -96.287
v 48.036 10 -84.887
v 46.416 10 -91.036
v 46.229 10 -92.195
v 47.24 10 -98.587
v 53.97 10 -83.34
v 58.679 10 -80.081
v 70.541 10 -73.847
v 69.383 10 -55.476
v 66.132 10 -53.156
v 64.652 10 -34.324
v 63.6 10 -30.264
v 63.418 10 -21.554
v 69.042 10 -6.324
v 72.556 10 -3.312
v 72.947 10 -2.965
v 69.264 10 -0.429
v 63.185 10 -2.885
v 57.462 10 -13.641
v 45.925 10 -38.131
v 44.304 10 -31.653
v 42.216 10 -21.513
v 35.423 10 -3.093
v 29.831 10 -6.565
v 33.293 10 -11.24
v 33.26 10 -15.182
v 35.517 10 -30.278
v 58.686 10 -57.341
v 30.283 10 -65.35
v 26.775 10 -71.109
v 35.182 10 -90.669
v 47.014 10 -98.49
v 57.75 10 -96.64
v 57.034 10 -93.837
v 61.962 10 -43.083
v 63.528 10 -24.266
v 63.11 10 -22.349
v 72.757 10 -3.13
v 69.462 10 -0.418
v 58.302 10 -8.765
v 58.118 10 -9.849
v 53.847 10 -38.442
v 42.106 10 -21.658
v 35.341 10 -3.243
v 34.054 10 -3.554
v 28.583 10 -0.402
v 30.114 10 -6.8
v 33.266 10 -14.836
v 35.347 10 -23.257
v 38.029 10 -36.388
v 34.991 10 -52.249
v 29.802 10 -56.056
v 31.785 10 -60.272
v 58.708 10 -56.809
v 31.13 10 -66.261
v 27.6 10 -71.848
v 28.214 10 -72.46
v 36.77 10 -87.681
v 33.059 10 -96.95
v 33.357 10 -96.62
v 48.355 10 -83.849
v 46.307 10 -91.794
v 47.127 10 -98.525
v 57.534 10 -96.076
v 58.086 10 -80.107
v 69.305 10 -75.125
v 71.785 10 -57.128
v 69.678 10 -55.69
v 61.485 10 -43.697
v 64.015 10 -33.689
v 63.495 10 -31.685
v 65.45 10 -11.07
v 68.634 10 -6.66
v 69.354 10 -0.435
v 63.342 10 -3.181
v 58.206 10 -9.368
v 57.605 10 -13.049
v 57.477 10 -22.438
v 46.075 10 -38.77
v 44.335 10 -31.81
v 42 10 -21.811
v 39.95 10 -6.48
v 30.003 10 -0.435
v 30.396 10 -7.037
v 33.267 10 -14.501
v 35.489 10 -22.855
v 35.745 10 -30.535
v 37.899 10 -35.509
v 31.596 10 -54.837
v 30.484 10 -55.618
v 33.375 10 -58.797
v 58.732 10 -56.484
v 32.07 10 -67.27
v 36.34 10 -80
v 38.248 10 -84.878
v 46.369 10 -91.415
v 57.35 10 -95.453
v 57.186 10 -94.723
v 57.668 10 -80.143
v 71.479 10 -56.929
v 69.974 10 -55.902
v 63.152 10 -23.272
v 68.271 10 -6.963
v 63.502 10 -3.41
v 57.701 10 -12.552
v 44.379 10 -31.974
v 41.903 10 -21.967
v 40.15 10 -7.734
v 29.604 10 -0.461
v 29.129 10 -0.45
v 35.645 10 -21.744
v 35.593 10 -22.529
v 35.962 10 -30.801
v 39.186 10 -43.658
v 58.765 10 -56.314
v 39.335 10 -82.791
v 57.356 10 -80.192
v 71.175 10 -56.728
v 65.817 10 -52.937
v 61.128 10 -44.237
v 63.668 10 -3.572
v 57.762 10 -12.099
v 53.659 10 -39.6
v 41.82 10 -22.12
v 40.378 10 -9.046
v 34.347 10 -3.777
v 39.252 10 -44.056
v 31.078 10 -55.214
v 58.812 10 -56.25
v 67.24 10 -77.66
v 70.873 10 -56.525
v 60.862 10 -44.741
v 65.091 10 -3.081
v 63.84 10 -3.668
v 46.215 10 -39.292
v 41.721 10 -22.329
v 40.664 10 -10.565
v 33.267 10 -10.598
v 35.667 10 -22.256
v 58.88 10 -56.24
v 39.75 10 -81.95
v 48.511 10 -83.016
v 57.08 10 -80.26
v 70.572 10 -56.32
v 60.66 10 -45.25
v 64.774 10 -3.39
v 42.86 10 -27.18
v 41.651 10 -22.503
v 41.035 10 -12.441
v 34.609 10 -3.852
v 33.19 10 -10.069
v 35.72 10 -22.01
v 37.298 10 -80.503
v 40.827 10 -85.627
v 48.509 10 -82.348
v 56.743 10 -80.344
v 70.272 10 -56.112
v 60.581 10 -45.515
v 67.31 10 -7.821
v 64.509 10 -3.579
v 64.02 10 -3.7
v 42.408 10 -26.219
v 41.605 10 -22.668
v 41.521 10 -14.823
v 35.699 10 -21.786
v 35.73 10 -21.911
v 36.209 10 -51.189
v 38.122 10 -80.948
v 41.58 10 -84.169
v 48.35 10 -81.803
v 67.763 10 -76.917
v 63.631 10 -32.817
v 67.094 10 -8.046
v 64.267 10 -3.674
v 42.07 10 -25.445
v 41.579 10 -22.847
v 34.855 10 -3.787
v 35.725 10 -21.839
v 36.168 10 -31.074
v 37.22 10 -50.141
v 38.795 10 -81.324
v 42.31 10 -83.022
v 68.415 10 -76.11
v 66.889 10 -8.28
v 41.833 10 -24.815
v 30.676 10 -7.276
v 36.364 10 -31.356
v 38.031 10 -49.098
v 39.301 10 -81.622
v 39.625 10 -81.834
v 48.04 10 -81.34
v 56.414 10 -80.458
v 65.506 10 -52.714
v 66.694 10 -8.523
v 41.569 10 -23.066
v 35.1 10 -3.59
v 36.549 10 -31.645
v 38.649 10 -48.051
v 43.05 10 -82.144
v 47.838 10 -81.138
v 65.197 10 -52.487
v 60.533 10 -45.747
v 66.509 10 -8.775
v 41.57 10 -23.35
v 30.955 10 -7.516
v 34.622 10 -57.662
v 43.833 10 -81.491
v 47.603 10 -80.956
v 64.892 10 -52.255
v 66.336 10 -9.034
v 57.424 10 -22.207
v 41.597 10 -23.811
v 31.233 10 -7.757
v 36.722 10 -31.941
v 35.17 10 -57.2
v 44.69 10 -81.02
v 47.349 10 -80.802
v 56.097 10 -80.6
v 64.59 10 -52.02
v 66.175 10 -9.3
v 57.47 10 -22.293
v 41.68 10 -24.285
v 31.509 10 -8.001
v 36.884 10 -32.244
v 39.08 10 -46.99
v 47.09 10 -80.684
v 55.793 10 -80.77
v 64.291 10 -51.78
v 66.025 10 -9.574
v 57.486 10 -22.366
v 35.175 10 -3.499
v 37.034 10 -32.552
v 35.822 10 -57.105
v 44.971 10 -80.911
v 54.12 10 -82.92
v 63.996 10 -51.536
v 65.888 10 -9.854
v 31.784 10 -8.246
v 37.172 10 -32.867
v 37.07 10 -56.937
v 45.306 10 -80.808
v 54.239 10 -82.593
v 63.704 10 -51.288
v 65.762 10 -10.139
v 35.257 10 -3.38
v 32.058 10 -8.492
v 37.297 10 -33.186
v 39.135 10 -46.786
v 45.666 10 -80.717
v 46.843 10 -80.607
v 63.415 10 -51.036
v 65.65 10 -10.43
v 53.417 10 -40.541
v 37.41 10 -33.51
v 39.181 10 -46.57
v 46.024 10 -80.645
v 54.387 10 -82.279
v 63.13 10 -50.78
v 32.329 10 -8.74
v 37.598 10 -34.124
v 38.606 10 -56.735
v 46.351 10 -80.597
v 54.563 10 -81.978
v 62.845 10 -50.51
v 32.6 10 -8.99
v 37.758 10 -34.772
v 39.219 10 -46.335
v 46.62 10 -80.58
v 54.764 10 -81.695
v 32.861 10 -9.281
v 39.249 10 -46.073
v 54.989 10 -81.43
v 33.056 10 -9.635
v 39.272 10 -45.777
v 60.518 10 -45.97
v 40.12 10 -56.54
v 68.22 10 -67.23
v 60.533 10 -46.21
v 46.359 10 -39.758
v 39.29 10 -45.44
v 71.63 10 -63.63
v 60.581 10 -46.492
v 46.52 10 -40.23
v 39.303 10 -44.927
v 55.237 10 -81.186
v 60.66 10 -46.84
v 46.893 10 -41.113
v 39.291 10 -44.472
v 55.506 10 -80.966
v 60.779 10 -47.214
v 41.301 10 -56.392
v 60.915 10 -47.582
v 61.067 10 -47.944
v 71.44 10 -63.45
v 61.236 10 -48.298
v 47.331 10 -41.854
v 41.84 10 -56.33
v 70.793 10 -62.852
v 61.422 10 -48.644
v 47.836 10 -42.452
v 69.488 10 -61.656
v 61.622 10 -48.981
v 48.409 10 -42.909
v 67.868 10 -60.174
v 61.838 10 -49.309
v 66.272 10 -58.717
v 62.069 10 -49.626
v 49.05 10 -43.225
v 65.042 10 -57.599
v 62.314 10 -49.932
v 49.76 10 -43.4
v 64.52 10 -57.13
v 62.573 10 -50.227
v 50.264 10 -43.445
v 53.108 10 -41.313
v 50.702 10 -43.426
v 64.39 10 -57.092
v 51.095 10 -43.334
v 64.09 10 -57.03
v 52.714 10 -41.964
v 51.464 10 -43.161
v 63.646 10 -56.949
v 52.22 10 -42.54
v 51.832 10 -42.899
v 63.087 10 -56.854
v 59.023 10 -56.254
v 62.439 10 -56.749
v 61.73 10 -56.64
v 59.334 10 -56.293
v 61.012 10 -56.531
v 59.787 10 -56.354
v 60.356 10 -56.434
f 1 2 3
f 4 5 6
f 7 4 8
f 9 10 11
f 2 9 3
f 12 13 14
f 15 16 17
f 18 15 19
f 20 18 21
f 22 20 23
f 24 22 25
f 26 27 28
f 29 26 30
f 31 29 32
f 33 31 34
f 35 33 36
f 37 35 38
f 39 40 41
f 42 39 43
f 44 42 45
f 46 44 47
f 48 46 49
f 50 48 51
f 52 50 53
f 54 52 55
f 56 54 57
f 58 59 60
f 61 58 62
f 63 61 64
f 65 63 66
f 67 65 68
f 69 67 70
f 71 69 72
f 73 74 75
f 76 73 77
f 78 76 79
f 80 81 82
f 83 80 84
f 85 83 86
f 87 85 88
f 89 87 90
f 91 89 92
f 93 91 94
f 95 93 96
f 97 95 98
f 99 100 101
f 102 99 103
f 104 102 105
f 106 104 107
f 108 106 109
f 110 108 111
f 112 110 113
f 114 112 115
f 116 114 117
f 118 116 119
f 120 121 122
f 123 120 124
f 125 123 126
f 127 125 128
f 129 127 130
f 131 129 132
f 133 131 134
f 135 133 136
f 137 135 138
f 139 140 141
f 142 139 143
f 144 142 145
f 146 144 147
f 148 146 149
f 150 148 151
f 152 153 154
f 155 152 156
f 157 155 158
f 159 157 160
f 161 159 162
f 163 161 164
f 165 163 166
f 167 165 168
f 169 167 170
f 171 169 172
f 173 171 174
f 175 173 176
f 177 175 178
f 179 180 181
f 182 179 183
f 184 182 185
f 186 187 188
f 189 186 190
f 191 189 192
f 193 191 194
f 195 193 196
f 197 195 198
f 199 197 200
f 201 199 202
f 203 201 204
f 205 206 207
f 208 209 210
f 211 212 213
f 214 215 216
f 217 214 218
f 219 217 220
f 221 219 222
f 223 224 225
f 226 223 227
f 228 226 229
f 230 228 231
f 232 230 233
f 234 232 235
f 236 234 237
f 238 236 239
f 240 238 241
f 242 240 243
f 244 242 245
f 246 244 247
f 248 246 249
f 250 251 252
f 253 250 254
f 255 253 256
f 257 255 258
f 259 257 260
f 261 259 262
f 263 261 264
f 265 266 267
f 268 265 269
f 270 268 271
f 272 270 273
f 274 272 275
f 276 274 277
f 278 276 279
f 280 278 281
f 282 280 283
f 284 285 286
f 287 284 288
f 289 287 290
f 291 292 293
f 294 291 295
f 296 294 297
f 298 296 299
f 300 298 301
f 302 300 303
f 304 302 305
f 306 307 308
f 309 306 310
f 311 309 312
f 313 311 314
f 315 313 316
f 317 315 318
f 319 320 321
f 322 319 323
f 324 322 325
f 326 327 328
f 329 326 330
f 331 329 332
f 333 331 334
f 335 336 337
f 338 335 339
f 340 338 341
f 342 340 343
f 344 342 345
f 346 344 347
f 348 349 350
f 351 352 353
f 354 351 355
f 356 354 357
f 358 356 359
f 360 358 361
f 362 360 363
f 364 362 365
f 366 364 367
f 368 366 369
f 370 368 371
f 372 373 374
f 375 372 376
f 377 375 378
f 379 380 381
f 382 379 383
f 384 382 385
f 386 384 387
f 388 386 389
f 390 388 391
f 392 390 393
f 394 392 395
f 396 394 397
f 398 396 399
f 400 398 401
f 402 400 403
f 404 405 406
f 407 404 408
f 409 407 410
f 411 412 413
f 414 411 415
f 416 414 417
f 418 416 419
f 420 418 421
f 422 420 423
f 424 422 425
f 426 427 428
f 429 426 430
f 431 429 432
f 433 431 434
f 435 433 436
f 437 435 438
f 439 437 440
f 441 439 442
f 443 441 444
f 445 446 447
f 448 445 449
f 450 448 451
f 452 450 453
f 454 455 456
f 457 454 458
f 459 457 460
f 461 462 463
f 464 461 465
f 466 464 467
f 468 466 469
f 15 468 470
f 471 15 17
f 1 472 2
f 9 7 10
f 13 9 2
f 15 473 16
f 20 15 18
f 24 20 22
f 29 27 26
f 33 29 31
f 37 33 35
f 39 474 40
f 44 39 42
f 48 44 46
f 52 48 50
f 56 52 54
f 61 59 58
f 65 61 63
f 69 65 67
f 76 74 73
f 475 76 78
f 83 81 80
f 87 83 85
f 91 87 89
f 95 91 93
f 476 95 97
f 102 100 99
f 106 102 104
f 110 106 108
f 114 110 112
f 118 114 116
f 120 477 121
f 125 120 123
f 129 125 127
f 133 129 131
f 137 133 135
f 142 140 139
f 146 142 144
f 150 146 148
f 155 153 152
f 159 155 157
f 163 159 161
f 167 163 165
f 171 167 169
f 175 171 173
f 478 175 177
f 182 180 179
f 479 182 184
f 189 187 186
f 193 189 191
f 197 193 195
f 201 197 199
f 480 201 203
f 481 206 205
f 208 482 209
f 217 215 214
f 221 217 219
f 226 224 223
f 230 226 228
f 234 230 232
f 238 234 236
f 242 238 240
f 246 242 244
f 253 251 250
f 257 253 255
f 261 257 259
f 268 266 265
f 272 268 270
f 276 272 274
f 280 276 278
f 483 280 282
f 287 285 284
f 484 287 289
f 294 292 291
f 298 294 296
f 302 298 300
f 309 307 306
f 313 309 311
f 317 313 315
f 322 320 319
f 329 327 326
f 333 329 331
f 338 336 335
f 342 338 340
f 346 342 344
f 348 485 349
f 354 352 351
f 358 354 356
f 362 358 360
f 366 362 364
f 370 366 368
f 372 486 373
f 377 372 375
f 379 487 380
f 384 379 382
f 388 384 386
f 392 388 390
f 396 392 394
f 400 396 398
f 488 400 402
f 407 405 404
f 489 407 409
f 414 412 411
f 418 414 416
f 422 418 420
f 426 490 427
f 431 426 429
f 435 431 433
f 439 435 437
f 443 439 441
f 448 446 445
f 452 448 450
f 457 455 454
f 461 491 462
f 466 461 464
f 15 466 468
f 492 15 471
f 1 493 472
f 13 7 9
f 15 494 473
f 24 15 20
f 29 495 27
f 37 29 33
f 44 474 39
f 52 44 48
f 496 52 56
f 61 497 59
f 69 61 65
f 76 498 74
f 499 76 475
f 83 500 81
f 91 83 87
f 476 91 95
f 102 501 100
f 110 102 106
f 118 110 114
f 125 477 120
f 133 125 129
f 502 133 137
f 142 503 140
f 150 142 146
f 155 504 153
f 163 155 159
f 171 163 167
f 478 171 175
f 182 505 180
f 506 182 479
f 193 187 189
f 201 193 197
f 507 201 480
f 481 508 206
f 208 509 482
f 217 510 215
f 511 217 221
f 226 512 224
f 234 226 230
f 242 234 238
f 248 242 246
f 253 513 251
f 261 253 257
f 268 514 266
f 276 268 272
f 483 276 280
f 484 285 287
f 294 515 292
f 302 294 298
f 313 307 309
f 320 313 317
f 324 320 322
f 329 516 327
f 338 517 336
f 346 338 342
f 348 518 485
f 358 352 354
f 366 358 362
f 519 366 370
f 377 486 372
f 384 487 379
f 392 384 388
f 400 392 396
f 520 400 488
f 407 521 405
f 414 522 412
f 422 414 418
f 431 490 426
f 439 431 435
f 523 439 443
f 452 446 448
f 459 455 457
f 466 491 461
f 492 466 15
f 524 493 1
f 13 4 7
f 15 525 494
f 526 15 24
f 37 495 29
f 44 527 474
f 496 44 52
f 69 497 61
f 499 498 76
f 91 500 83
f 528 91 476
f 110 501 102
f 529 110 118
f 125 530 477
f 502 125 133
f 150 503 142
f 163 504 155
f 478 163 171
f 506 505 182
f 193 531 187
f 507 193 201
f 532 508 481
f 208 533 509
f 511 510 217
f 226 534 512
f 242 226 234
f 535 242 248
f 261 513 253
f 276 514 268
f 536 276 483
f 484 537 285
f 302 515 294
f 320 307 313
f 538 320 324
f 333 516 329
f 346 517 338
f 348 539 518
f 366 352 358
f 540 366 519
f 377 541 486
f 384 542 487
f 400 384 392
f 543 400 520
f 489 521 407
f 414 544 522
f 424 414 422
f 431 545 490
f 523 431 439
f 452 546 446
f 459 547 455
f 466 548 491
f 549 466 492
f 550 493 524
f 13 5 4
f 15 551 525
f 552 15 526
f 37 553 495
f 44 554 527
f 555 44 496
f 69 556 497
f 499 557 498
f 91 558 500
f 559 91 528
f 110 559 501
f 560 110 529
f 502 530 125
f 150 561 503
f 163 562 504
f 563 163 478
f 506 564 505
f 193 565 531
f 566 193 507
f 532 567 508
f 568 533 208
f 511 569 510
f 226 511 534
f 535 226 242
f 261 570 513
f 276 571 514
f 572 276 536
f 484 572 537
f 302 573 515
f 320 574 307
f 333 575 516
f 346 576 517
f 348 577 539
f 366 578 352
f 579 541 377
f 400 542 384
f 580 400 543
f 581 521 489
f 424 544 414
f 431 582 545
f 583 431 523
f 452 584 546
f 585 547 459
f 466 586 548
f 587 466 549
f 588 493 550
f 12 5 13
f 15 589 551
f 553 15 552
f 590 553 37
f 44 591 554
f 556 44 555
f 71 556 69
f 592 557 499
f 91 592 558
f 110 91 559
f 593 110 560
f 502 594 530
f 150 595 561
f 596 163 563
f 506 597 564
f 566 565 193
f 598 567 532
f 511 599 569
f 535 511 226
f 261 535 570
f 276 600 571
f 484 276 572
f 302 601 573
f 538 574 320
f 602 575 333
f 346 602 576
f 348 603 577
f 366 604 578
f 605 541 579
f 400 606 542
f 544 521 581
f 607 544 424
f 431 608 582
f 609 431 583
f 610 584 452
f 587 586 466
f 611 493 588
f 15 12 589
f 590 15 553
f 44 612 591
f 71 44 556
f 91 557 592
f 593 91 110
f 502 593 594
f 150 613 595
f 614 163 596
f 615 597 506
f 566 616 565
f 533 567 598
f 535 599 511
f 263 535 261
f 276 617 600
f 618 276 484
f 302 618 601
f 619 574 538
f 346 575 602
f 348 620 603
f 366 621 604
f 605 622 541
f 400 605 606
f 607 521 544
f 609 608 431
f 623 584 610
f 587 624 586
f 625 493 611
f 590 12 15
f 71 612 44
f 593 557 91
f 626 613 150
f 627 163 614
f 566 628 616
f 535 211 599
f 629 535 263
f 276 630 617
f 302 276 618
f 346 631 575
f 348 632 620
f 366 633 621
f 400 622 605
f 607 634 521
f 609 635 608
f 587 585 624
f 636 493 625
f 590 5 12
f 71 637 612
f 593 638 557
f 626 639 613
f 640 163 627
f 566 641 628
f 535 212 211
f 642 535 629
f 302 630 276
f 643 631 346
f 348 644 632
f 366 645 633
f 400 646 622
f 607 647 634
f 609 648 635
f 587 547 585
f 649 5 590
f 650 637 71
f 593 651 638
f 626 652 639
f 653 163 640
f 566 654 641
f 535 655 212
f 656 535 642
f 302 657 630
f 658 631 643
f 348 659 644
f 366 660 645
f 580 646 400
f 661 647 607
f 609 662 648
f 587 663 547
f 664 5 649
f 665 637 650
f 593 666 651
f 667 652 626
f 597 163 653
f 668 654 566
f 535 669 655
f 302 670 657
f 671 631 658
f 348 672 659
f 366 348 660
f 580 673 646
f 674 647 661
f 675 662 609
f 587 676 663
f 677 5 664
f 678 637 665
f 502 666 593
f 679 652 667
f 615 163 597
f 567 654 668
f 535 680 669
f 302 656 670
f 681 631 671
f 366 672 348
f 682 673 580
f 683 662 675
f 587 684 676
f 685 5 677
f 678 686 637
f 502 687 666
f 679 688 652
f 689 163 615
f 533 654 567
f 535 690 680
f 302 535 656
f 366 691 672
f 682 692 673
f 693 662 683
f 587 694 684
f 686 5 685
f 695 686 678
f 502 696 687
f 562 688 679
f 697 163 689
f 533 698 654
f 535 699 690
f 304 535 302
f 366 700 691
f 701 692 682
f 693 674 662
f 702 694 587
f 703 686 695
f 502 704 696
f 163 688 562
f 705 163 697
f 535 706 699
f 707 535 304
f 366 708 700
f 709 692 701
f 710 674 693
f 711 694 702
f 712 686 703
f 502 713 704
f 163 714 688
f 715 163 705
f 535 716 706
f 717 535 707
f 366 718 708
f 719 692 709
f 720 674 710
f 711 721 694
f 712 5 686
f 502 722 713
f 163 723 714
f 724 163 715
f 535 725 716
f 726 535 717
f 540 718 366
f 719 727 692
f 728 674 720
f 729 721 711
f 730 5 712
f 731 722 502
f 732 163 724
f 535 733 725
f 574 535 726
f 540 681 718
f 734 727 719
f 735 674 728
f 736 721 729
f 737 5 730
f 738 722 731
f 739 163 732
f 535 740 733
f 619 535 574
f 741 681 540
f 742 727 734
f 743 674 735
f 736 744 721
f 745 5 737
f 738 746 722
f 747 163 739
f 535 748 740
f 749 535 619
f 741 631 681
f 742 741 727
f 750 674 743
f 736 751 744
f 752 5 745
f 753 746 738
f 754 163 747
f 749 748 535
f 755 741 742
f 756 674 750
f 757 751 736
f 758 5 752
f 759 746 753
f 760 163 754
f 749 568 748
f 761 741 755
f 762 674 756
f 757 763 751
f 764 5 758
f 765 746 759
f 749 533 568
f 766 741 761
f 584 674 762
f 757 767 763
f 746 5 764
f 768 746 765
f 749 698 533
f 769 741 766
f 757 770 767
f 768 5 746
f 749 771 698
f 769 631 741
f 772 770 757
f 768 773 5
f 749 774 771
f 769 775 631
f 772 776 770
f 768 777 773
f 749 778 774
f 769 779 775
f 772 780 776
f 781 777 768
f 749 782 778
f 769 783 779
f 772 784 780
f 785 777 781
f 749 786 782
f 647 783 769
f 787 784 772
f 723 777 785
f 749 788 786
f 674 783 647
f 787 623 784
f 163 777 723
f 749 789 788
f 584 783 674
f 787 584 623
f 163 790 777
f 749 791 789
f 584 792 783
f 793 584 787
f 163 794 790
f 749 795 791
f 584 796 792
f 493 584 793
f 163 797 794
f 749 798 795
f 584 799 796
f 636 584 493
f 163 800 797
f 749 801 798
f 636 799 584
f 163 802 800
f 749 803 801
f 636 804 799
f 163 805 802
f 749 806 803
f 636 807 804
f 163 808 805
f 749 809 806
f 636 810 807
f 760 808 163
f 811 809 749
f 636 812 810
f 760 813 808
f 811 760 809
f 636 814 812
f 760 815 813
f 816 760 811
f 636 817 814
f 760 818 815
f 819 760 816
f 636 820 817
f 760 821 818
f 820 760 819
f 822 820 636
f 760 823 821
f 822 760 820
f 760 824 823
f 825 760 822
f 760 826 824
f 827 760 825
f 760 828 826
f 828 760 827
f 829 830 831
f 832 833 834
f 833 835 836
f 837 838 839
f 838 829 831
f 840 841 842
f 843 844 845
f 844 846 847
f 846 848 849
f 848 850 851
f 850 852 853
f 854 855 856
f 855 857 858
f 857 859 860
f 859 861 862
f 861 863 864
f 863 865 866
f 867 868 869
f 868 870 871
f 870 872 873
f 872 874 875
f 874 876 877
f 876 878 879
f 878 880 881
f 880 882 883
f 882 884 885
f 886 887 888
f 887 889 890
f 889 891 892
f 891 893 894
f 893 895 896
f 895 897 898
f 897 899 900
f 901 902 903
f 902 904 905
f 904 906 907
f 908 909 910
f 909 911 912
f 911 913 914
f 913 915 916
f 915 917 918
f 917 919 920
f 919 921 922
f 921 923 924
f 923 925 926
f 927 928 929
f 928 930 931
f 930 932 933
f 932 934 935
f 934 936 937
f 936 938 939
f 938 940 941
f 940 942 943
f 942 944 945
f 944 946 947
f 948 949 950
f 949 951 952
f 951 953 954
f 953 955 956
f 955 957 958
f 957 959 960
f 959 961 962
f 961 963 964
f 963 965 966
f 967 968 969
f 968 970 971
f 970 972 973
f 972 974 975
f 974 976 977
f 976 978 979
f 980 981 982
f 981 983 984
f 983 985 986
f 985 987 988
f 987 989 990
f 989 991 992
f 991 993 994
f 993 995 996
f 995 997 998
f 997 999 1000
f 999 1001 1002
f 1001 1003 1004
f 1003 1005 1006
f 1007 1008 1009
f 1008 1010 1011
f 1010 1012 1013
f 1014 1015 1016
f 1015 1017 1018
f 1017 1019 1020
f 1019 1021 1022
f 1021 1023 1024
f 1023 1025 1026
f 1025 1027 1028
f 1027 1029 1030
f 1029 1031 1032
f 1033 1034 1035
f 1036 1037 1038
f 1039 1040 1041
f 1042 1043 1044
f 1043 1045 1046
f 1045 1047 1048
f 1047 1049 1050
f 1051 1052 1053
f 1052 1054 1055
f 1054 1056 1057
f 1056 1058 1059
f 1058 1060 1061
f 1060 1062 1063
f 1062 1064 1065
f 1064 1066 1067
f 1066 1068 1069
f 1068 1070 1071
f 1070 1072 1073
f 1072 1074 1075
f 1074 1076 1077
f 1078 1079 1080
f 1079 1081 1082
f 1081 1083 1084
f 1083 1085 1086
f 1085 1087 1088
f 1087 1089 1090
f 1089 1091 1092
f 1093 1094 1095
f 1094 1096 1097
f 1096 1098 1099
f 1098 1100 1101
f 1100 1102 1103
f 1102 1104 1105
f 1104 1106 1107
f 1106 1108 1109
f 1108 1110 1111
f 1112 1113 1114
f 1113 1115 1116
f 1115 1117 1118
f 1119 1120 1121
f 1120 1122 1123
f 1122 1124 1125
f 1124 1126 1127
f 1126 1128 1129
f 1128 1130 1131
f 1130 1132 1133
f 1134 1135 1136
f 1135 1137 1138
f 1137 1139 1140
f 1139 1141 1142
f 1141 1143 1144
f 1143 1145 1146
f 1147 1148 1149
f 1148 1150 1151
f 1150 1152 1153
f 1154 1155 1156
f 1155 1157 1158
f 1157 1159 1160
f 1159 1161 1162
f 1163 1164 1165
f 1164 1166 1167
f 1166 1168 1169
f 1168 1170 1171
f 1170 1172 1173
f 1172 1174 1175
f 1176 1177 1178
f 1179 1180 1181
f 1180 1182 1183
f 1182 1184 1185
f 1184 1186 1187
f 1186 1188 1189
f 1188 1190 1191
f 1190 1192 1193
f 1192 1194 1195
f 1194 1196 1197
f 1196 1198 1199
f 1200 1201 1202
f 1201 1203 1204
f 1203 1205 1206
f 1207 1208 1209
f 1208 1210 1211
f 1210 1212 1213
f 1212 1214 1215
f 1214 1216 1217
f 1216 1218 1219
f 1218 1220 1221
f 1220 1222 1223
f 1222 1224 1225
f 1224 1226 1227
f 1226 1228 1229
f 1228 1230 1231
f 1232 1233 1234
f 1233 1235 1236
f 1235 1237 1238
f 1239 1240 1241
f 1240 1242 1243
f 1242 1244 1245
f 1244 1246 1247
f 1246 1248 1249
f 1248 1250 1251
f 1250 1252 1253
f 1254 1255 1256
f 1255 1257 1258
f 1257 1259 1260
f 1259 1261 1262
f 1261 1263 1264
f 1263 1265 1266
f 1265 1267 1268
f 1267 1269 1270
f 1269 1271 1272
f 1273 1274 1275
f 1274 1276 1277
f 1276 1278 1279
f 1278 1280 1281
f 1282 1283 1284
f 1283 1285 1286
f 1285 1287 1288
f 1289 1290 1291
f 1290 1292 1293
f 1292 1294 1295
f 1294 1296 1297
f 1296 844 1298
f 844 1299 845
f 1300 830 829
f 835 838 837
f 838 840 829
f 1301 844 843
f 844 848 846
f 848 852 850
f 854 857 855
f 857 861 859
f 861 865 863
f 1302 868 867
f 868 872 870
f 872 876 874
f 876 880 878
f 880 884 882
f 886 889 887
f 889 893 891
f 893 897 895
f 901 904 902
f 904 1303 906
f 908 911 909
f 911 915 913
f 915 919 917
f 919 923 921
f 923 1304 925
f 927 930 928
f 930 934 932
f 934 938 936
f 938 942 940
f 942 946 944
f 1305 949 948
f 949 953 951
f 953 957 955
f 957 961 959
f 961 965 963
f 967 970 968
f 970 974 972
f 974 978 976
f 980 983 981
f 983 987 985
f 987 991 989
f 991 995 993
f 995 999 997
f 999 1003 1001
f 1003 1306 1005
f 1007 1010 1008
f 1010 1307 1012
f 1014 1017 1015
f 1017 1021 1019
f 1021 1025 1023
f 1025 1029 1027
f 1029 1308 1031
f 1033 1309 1034
f 1310 1037 1036
f 1042 1045 1043
f 1045 1049 1047
f 1051 1054 1052
f 1054 1058 1056
f 1058 1062 1060
f 1062 1066 1064
f 1066 1070 1068
f 1070 1074 1072
f 1078 1081 1079
f 1081 1085 1083
f 1085 1089 1087
f 1093 1096 1094
f 1096 1100 1098
f 1100 1104 1102
f 1104 1108 1106
f 1108 1311 1110
f 1112 1115 1113
f 1115 1312 1117
f 1119 1122 1120
f 1122 1126 1124
f 1126 1130 1128
f 1134 1137 1135
f 1137 1141 1139
f 1141 1145 1143
f 1147 1150 1148
f 1154 1157 1155
f 1157 1161 1159
f 1163 1166 1164
f 1166 1170 1168
f 1170 1174 1172
f 1313 1177 1176
f 1179 1182 1180
f 1182 1186 1184
f 1186 1190 1188
f 1190 1194 1192
f 1194 1198 1196
f 1314 1201 1200
f 1201 1205 1203
f 1315 1208 1207
f 1208 1212 1210
f 1212 1216 1214
f 1216 1220 1218
f 1220 1224 1222
f 1224 1228 1226
f 1228 1316 1230
f 1232 1235 1233
f 1235 1317 1237
f 1239 1242 1240
f 1242 1246 1244
f 1246 1250 1248
f 1318 1255 1254
f 1255 1259 1257
f 1259 1263 1261
f 1263 1267 1265
f 1267 1271 1269
f 1273 1276 1274
f 1276 1280 1278
f 1282 1285 1283
f 1319 1290 1289
f 1290 1294 1292
f 1294 844 1296
f 844 1320 1299
f 1321 830 1300
f 835 840 838
f 1322 844 1301
f 844 852 848
f 1323 857 854
f 857 865 861
f 1302 872 868
f 872 880 876
f 880 1324 884
f 1325 889 886
f 889 897 893
f 1326 904 901
f 904 1327 1303
f 1328 911 908
f 911 919 915
f 919 1304 923
f 1329 930 927
f 930 938 934
f 938 946 942
f 1305 953 949
f 953 961 957
f 961 1330 965
f 1331 970 967
f 970 978 974
f 1332 983 980
f 983 991 987
f 991 999 995
f 999 1306 1003
f 1333 1010 1007
f 1010 1334 1307
f 1014 1021 1017
f 1021 1029 1025
f 1029 1335 1308
f 1336 1309 1033
f 1337 1037 1310
f 1338 1045 1042
f 1045 1339 1049
f 1340 1054 1051
f 1054 1062 1058
f 1062 1070 1066
f 1070 1076 1074
f 1341 1081 1078
f 1081 1089 1085
f 1342 1096 1093
f 1096 1104 1100
f 1104 1311 1108
f 1112 1312 1115
f 1343 1122 1119
f 1122 1130 1126
f 1134 1141 1137
f 1141 1147 1145
f 1147 1152 1150
f 1344 1157 1154
f 1345 1166 1163
f 1166 1174 1170
f 1346 1177 1313
f 1179 1186 1182
f 1186 1194 1190
f 1194 1347 1198
f 1314 1205 1201
f 1315 1212 1208
f 1212 1220 1216
f 1220 1228 1224
f 1228 1348 1316
f 1349 1235 1232
f 1350 1242 1239
f 1242 1250 1246
f 1318 1259 1255
f 1259 1267 1263
f 1267 1351 1271
f 1273 1280 1276
f 1282 1287 1285
f 1319 1294 1290
f 1294 1320 844
f 1321 1352 830
f 833 840 835
f 1353 844 1322
f 844 1354 852
f 1323 865 857
f 1355 872 1302
f 872 1324 880
f 1325 897 889
f 1326 1327 904
f 1328 919 911
f 919 1356 1304
f 1329 938 930
f 938 1357 946
f 1358 953 1305
f 953 1330 961
f 1331 978 970
f 1332 991 983
f 991 1306 999
f 1333 1334 1010
f 1359 1021 1014
f 1021 1335 1029
f 1336 1360 1309
f 1361 1037 1337
f 1338 1339 1045
f 1362 1054 1340
f 1054 1070 1062
f 1070 1363 1076
f 1341 1089 1081
f 1342 1104 1096
f 1104 1364 1311
f 1365 1312 1112
f 1343 1130 1122
f 1134 1147 1141
f 1147 1366 1152
f 1344 1161 1157
f 1345 1174 1166
f 1367 1177 1346
f 1179 1194 1186
f 1194 1368 1347
f 1369 1205 1314
f 1370 1212 1315
f 1212 1228 1220
f 1228 1371 1348
f 1349 1317 1235
f 1372 1242 1350
f 1242 1252 1250
f 1373 1259 1318
f 1259 1351 1267
f 1374 1280 1273
f 1375 1287 1282
f 1376 1294 1319
f 1294 1377 1320
f 1321 1378 1352
f 832 840 833
f 1379 844 1353
f 844 1380 1354
f 1381 865 1323
f 1382 872 1355
f 872 1383 1324
f 1384 897 1325
f 1385 1327 1326
f 1386 919 1328
f 919 1387 1356
f 1387 938 1329
f 938 1388 1357
f 1358 1330 953
f 1389 978 1331
f 1390 991 1332
f 991 1391 1306
f 1392 1334 1333
f 1393 1021 1359
f 1021 1394 1335
f 1395 1360 1336
f 1361 1396 1037
f 1397 1339 1338
f 1339 1054 1362
f 1054 1363 1070
f 1398 1089 1341
f 1399 1104 1342
f 1104 1400 1364
f 1400 1312 1365
f 1401 1130 1343
f 1402 1147 1134
f 1403 1161 1344
f 1404 1174 1345
f 1405 1177 1367
f 1406 1194 1179
f 1369 1407 1205
f 1370 1228 1212
f 1228 1408 1371
f 1349 1409 1317
f 1372 1252 1242
f 1410 1259 1373
f 1259 1411 1351
f 1412 1280 1374
f 1375 1413 1287
f 1414 1294 1376
f 1294 1415 1377
f 1321 1416 1378
f 832 841 840
f 1417 844 1379
f 844 1381 1380
f 1381 1418 865
f 1419 872 1382
f 872 1384 1383
f 1384 899 897
f 1385 1420 1327
f 1420 919 1386
f 919 938 1387
f 938 1421 1388
f 1422 1330 1358
f 1423 978 1389
f 991 1424 1391
f 1425 1334 1392
f 1393 1394 1021
f 1395 1426 1360
f 1427 1339 1397
f 1339 1363 1054
f 1363 1089 1398
f 1428 1104 1399
f 1104 1312 1400
f 1429 1130 1401
f 1402 1366 1147
f 1403 1430 1161
f 1430 1174 1404
f 1431 1177 1405
f 1432 1194 1406
f 1369 1433 1407
f 1434 1228 1370
f 1349 1372 1409
f 1372 1435 1252
f 1436 1259 1410
f 1259 1437 1411
f 1412 1438 1280
f 1414 1415 1294
f 1321 1439 1416
f 841 844 1417
f 844 1418 1381
f 1440 872 1419
f 872 899 1384
f 1385 919 1420
f 919 1421 938
f 1421 1330 1422
f 1441 978 1423
f 991 1442 1424
f 1425 1443 1334
f 1444 1394 1393
f 1395 1361 1426
f 1427 1363 1339
f 1363 1091 1089
f 1445 1104 1428
f 1104 1446 1312
f 1446 1130 1429
f 1402 1447 1366
f 1403 1174 1430
f 1448 1177 1431
f 1449 1194 1432
f 1450 1433 1369
f 1433 1228 1434
f 1349 1435 1372
f 1436 1437 1259
f 1412 1451 1438
f 1452 1415 1414
f 1321 1453 1439
f 841 1418 844
f 1440 899 872
f 1385 1421 919
f 1441 1454 978
f 991 1455 1442
f 1456 1394 1444
f 1040 1363 1427
f 1363 1457 1091
f 1458 1104 1445
f 1104 1130 1446
f 1459 1174 1403
f 1460 1177 1448
f 1461 1194 1449
f 1450 1228 1433
f 1462 1435 1349
f 1463 1437 1436
f 1413 1415 1452
f 1321 1464 1453
f 832 1418 841
f 1465 899 1440
f 1466 1421 1385
f 1467 1454 1441
f 991 1468 1455
f 1469 1394 1456
f 1039 1363 1040
f 1363 1470 1457
f 1458 1130 1104
f 1459 1471 1174
f 1472 1177 1460
f 1473 1194 1461
f 1474 1228 1450
f 1475 1435 1462
f 1476 1437 1463
f 1375 1415 1413
f 832 1477 1418
f 1465 1478 899
f 1479 1421 1466
f 1480 1454 1467
f 991 1481 1468
f 1482 1394 1469
f 1483 1363 1039
f 1363 1484 1470
f 1485 1130 1458
f 1459 1486 1471
f 1487 1177 1472
f 1488 1194 1473
f 1474 1408 1228
f 1475 1489 1435
f 1490 1437 1476
f 1491 1415 1375
f 832 1492 1477
f 1465 1493 1478
f 1494 1421 1479
f 1480 1495 1454
f 991 1425 1481
f 1482 1496 1394
f 1497 1363 1483
f 1498 1130 1485
f 1459 1499 1486
f 1500 1177 1487
f 1177 1194 1488
f 1501 1408 1474
f 1475 1502 1489
f 1490 1503 1437
f 1504 1415 1491
f 832 1505 1492
f 1465 1506 1493
f 1494 1330 1421
f 1480 1507 1495
f 991 1443 1425
f 1482 1395 1496
f 1508 1363 1497
f 1484 1130 1498
f 1459 1509 1499
f 1500 1194 1177
f 1501 1510 1408
f 1490 1511 1503
f 1512 1415 1504
f 832 1513 1505
f 1514 1506 1465
f 1515 1330 1494
f 1516 1507 1480
f 991 1517 1443
f 1482 1361 1395
f 1518 1363 1508
f 1363 1130 1484
f 1519 1194 1500
f 1520 1510 1501
f 1490 1521 1511
f 1522 1415 1512
f 832 1514 1513
f 1514 1523 1506
f 1524 1330 1515
f 1516 1390 1507
f 991 1525 1517
f 1526 1361 1482
f 1527 1363 1518
f 1363 1132 1130
f 1528 1194 1519
f 1520 1529 1510
f 1502 1521 1490
f 1522 1530 1415
f 1514 1531 1523
f 1532 1330 1524
f 1516 991 1390
f 991 1533 1525
f 1534 1363 1527
f 1363 1535 1132
f 1536 1194 1528
f 1520 1537 1529
f 1502 1538 1521
f 1522 1539 1530
f 1514 1540 1531
f 1541 1330 1532
f 1542 991 1516
f 991 1543 1533
f 1544 1363 1534
f 1363 1545 1535
f 1546 1194 1536
f 1520 1547 1537
f 1502 1548 1538
f 1549 1539 1522
f 832 1540 1514
f 1550 1330 1541
f 1551 991 1542
f 991 1552 1543
f 1553 1363 1544
f 1363 1554 1545
f 1546 1368 1194
f 1555 1547 1520
f 1502 1556 1548
f 1549 1557 1539
f 832 1558 1540
f 1550 1559 1330
f 991 1560 1552
f 1561 1363 1553
f 1363 1402 1554
f 1509 1368 1546
f 1555 1562 1547
f 1502 1563 1556
f 1549 1564 1557
f 832 1565 1558
f 1550 1566 1559
f 991 1567 1560
f 1568 1363 1561
f 1363 1447 1402
f 1509 1569 1368
f 1555 1570 1562
f 1502 1571 1563
f 1572 1564 1549
f 832 1573 1565
f 1574 1566 1550
f 991 1575 1567
f 1576 1363 1568
f 1363 1577 1447
f 1459 1569 1509
f 1569 1570 1555
f 1502 1578 1571
f 1579 1564 1572
f 832 1580 1573
f 1574 1581 1566
f 991 1582 1575
f 1576 1577 1363
f 1569 1583 1570
f 1502 1584 1578
f 1579 1585 1564
f 832 1586 1580
f 1574 1587 1581
f 991 1588 1582
f 1396 1577 1576
f 1569 1589 1583
f 1502 1590 1584
f 1591 1585 1579
f 832 1592 1586
f 1574 1593 1587
f 1361 1577 1396
f 1569 1594 1589
f 1502 1412 1590
f 1595 1585 1591
f 832 1574 1592
f 1574 1596 1593
f 1526 1577 1361
f 1569 1597 1594
f 1598 1585 1595
f 832 1596 1574
f 1599 1577 1526
f 1459 1597 1569
f 1598 1600 1585
f 1601 1596 832
f 1602 1577 1599
f 1603 1597 1459
f 1604 1600 1598
f 1605 1596 1601
f 1606 1577 1602
f 1607 1597 1603
f 1608 1600 1604
f 1605 1609 1596
f 1610 1577 1606
f 1611 1597 1607
f 1612 1600 1608
f 1605 1613 1609
f 1614 1577 1610
f 1611 1475 1597
f 1612 1615 1600
f 1605 1551 1613
f 1616 1577 1614
f 1611 1502 1475
f 1451 1615 1612
f 1605 991 1551
f 1617 1577 1616
f 1611 1412 1502
f 1412 1615 1451
f 1618 991 1605
f 1619 1577 1617
f 1620 1412 1611
f 1412 1621 1615
f 1622 991 1618
f 1623 1577 1619
f 1624 1412 1620
f 1412 1321 1621
f 1625 991 1622
f 1626 1577 1623
f 1627 1412 1624
f 1412 1464 1321
f 1628 991 1625
f 1629 1577 1626
f 1627 1464 1412
f 1630 991 1628
f 1631 1577 1629
f 1632 1464 1627
f 1633 991 1630
f 1634 1577 1631
f 1635 1464 1632
f 1636 991 1633
f 1637 1577 1634
f 1638 1464 1635
f 1636 1588 991
f 1637 1639 1577
f 1640 1464 1638
f 1641 1588 1636
f 1588 1639 1637
f 1642 1464 1640
f 1643 1588 1641
f 1588 1644 1639
f 1645 1464 1642
f 1646 1588 1643
f 1588 1647 1644
f 1648 1464 1645
f 1649 1588 1646
f 1588 1648 1647
f 1648 1650 1464
f 1651 1588 1649
f 1588 1650 1648
f 1652 1588 1651
f 1588 1653 1650
f 1654 1588 1652
f 1588 1655 1653
f 1656 1588 1654
f 1588 1656 1655
f 390 1218 393
f 393 1218 1221
f 393 1221 392
f 392 1221 1220
f 392 1220 395
f 395 1220 1223
f 395 1223 394
f 394 1223 1222
f 394 1222 397
f 397 1222 1225
f 397 1225 396
f 396 1225 1224
f 396 1224 399
f 399 1224 1227
f 399 1227 398
f 398 1227 1226
f 398 1226 401
f 401 1226 1229
f 401 1229 400
f 400 1229 1228
f 400 1228 403
f 403 1228 1231
f 403 1231 402
f 402 1231 1230
f 402 1230 488
f 488 1230 1316
f 488 1316 520
f 520 1316 1348
f 520 1348 543
f 543 1348 1371
f 543 1371 580
f 580 1371 1408
f 580 1408 682
f 682 1408 1510
f 682 1510 701
f 701 1510 1529
f 701 1529 709
f 709 1529 1537
f 709 1537 719
f 719 1537 1547
f 719 1547 734
f 734 1547 1562
f 734 1562 742
f 742 1562 1570
f 742 1570 755
f 755 1570 1583
f 755 1583 761
f 761 1583 1589
f 761 1589 766
f 766 1589 1594
f 766 1594 769
f 769 1594 1597
f 769 1597 647
f 647 1597 1475
f 647 1475 634
f 634 1475 1462
f 634 1462 521
f 521 1462 1349
f 521 1349 405
f 405 1349 1232
f 405 1232 406
f 406 1232 1234
f 406 1234 404
f 404 1234 1233
f 404 1233 408
f 408 1233 1236
f 408 1236 407
f 407 1236 1235
f 407 1235 410
f 410 1235 1238
f 410 1238 409
f 409 1238 1237
f 409 1237 489
f 489 1237 1317
f 489 1317 581
f 581 1317 1409
f 581 1409 544
f 544 1409 1372
f 544 1372 522
f 522 1372 1350
f 522 1350 412
f 412 1350 1239
f 412 1239 413
f 413 1239 1241
f 413 1241 411
f 411 1241 1240
f 411 1240 415
f 415 1240 1243
f 415 1243 414
f 414 1243 1242
f 414 1242 417
f 417 1242 1245
f 417 1245 416
f 416 1245 1244
f 416 1244 419
f 419 1244 1247
f 419 1247 418
f 418 1247 1246
f 418 1246 421
f 421 1246 1249
f 421 1249 420
f 420 1249 1248
f 420 1248 423
f 423 1248 1251
f 423 1251 422
f 422 1251 1250
f 422 1250 425
f 425 1250 1253
f 425 1253 424
f 424 1253 1252
f 424 1252 607
f 607 1252 1435
f 607 1435 661
f 661 1435 1489
f 661 1489 674
f 674 1489 1502
f 674 1502 662
f 662 1502 1490
f 662 1490 648
f 648 1490 1476
f 648 1476 635
f 635 1476 1463
f 635 1463 608
f 608 1463 1436
f 608 1436 582
f 582 1436 1410
f 582 1410 545
f 545 1410 1373
f 545 1373 490
f 490 1373 1318
f 490 1318 427
f 427 1318 1254
f 427 1254 428
f 428 1254 1256
f 428 1256 426
f 426 1256 1255
f 426 1255 430
f 430 1255 1258
f 430 1258 429
f 429 1258 1257
f 429 1257 432
f 432 1257 1260
f 432 1260 431
f 431 1260 1259
f 431 1259 434
f 434 1259 1262
f 434 1262 433
f 433 1262 1261
f 433 1261 436
f 436 1261 1264
f 436 1264 435
f 435 1264 1263
f 435 1263 438
f 438 1263 1266
f 438 1266 437
f 437 1266 1265
f 437 1265 440
f 440 1265 1268
f 440 1268 439
f 439 1268 1267
f 439 1267 442
f 442 1267 1270
f 442 1270 441
f 441 1270 1269
f 441 1269 444
f 444 1269 1272
f 444 1272 443
f 443 1272 1271
f 443 1271 523
f 523 1271 1351
f 523 1351 583
f 583 1351 1411
f 583 1411 609
f 609 1411 1437
f 609 1437 675
f 675 1437 1503
f 675 1503 683
f 683 1503 1511
f 683 1511 693
f 693 1511 1521
f 693 1521 710
f 710 1521 1538
f 710 1538 720
f 720 1538 1548
f 720 1548 728
f 728 1548 1556
f 728 1556 735
f 735 1556 1563
f 735 1563 743
f 743 1563 1571
f 743 1571 750
f 750 1571 1578
f 750 1578 756
f 756 1578 1584
f 756 1584 762
f 762 1584 1590
f 762 1590 584
f 584 1590 1412
f 584 1412 546
f 546 1412 1374
f 546 1374 446
f 446 1374 1273
f 446 1273 447
f 447 1273 1275
f 447 1275 445
f 445 1275 1274
f 445 1274 449
f 449 1274 1277
f 449 1277 448
f 448 1277 1276
f 448 1276 451
f 451 1276 1279
f 451 1279 450
f 450 1279 1278
f 450 1278 453
f 453 1278 1281
f 453 1281 452
f 452 1281 1280
f 452 1280 610
f 610 1280 1438
f 610 1438 623
f 623 1438 1451
f 623 1451 784
f 784 1451 1612
f 784 1612 780
f 780 1612 1608
f 780 1608 776
f 776 1608 1604
f 776 1604 770
f 770 1604 1598
f 770 1598 767
f 767 1598 1595
f 767 1595 763
f 763 1595 1591
f 763 1591 751
f 751 1591 1579
f 751 1579 744
f 744 1579 1572
f 744 1572 721
f 721 1572 1549
f 721 1549 694
f 694 1549 1522
f 694 1522 684
f 684 1522 1512
f 684 1512 676
f 676 1512 1504
f 676 1504 663
f 663 1504 1491
f 663 1491 547
f 547 1491 1375
f 547 1375 455
f 455 1375 1282
f 455 1282 456
f 456 1282 1284
f 456 1284 454
f 454 1284 1283
f 454 1283 458
f 458 1283 1286
f 458 1286 457
f 457 1286 1285
f 457 1285 460
f 460 1285 1288
f 460 1288 459
f 459 1288 1287
f 459 1287 585
f 585 1287 1413
f 585 1413 624
f 624 1413 1452
f 624 1452 586
f 586 1452 1414
f 586 1414 548
f 548 1414 1376
f 548 1376 491
f 491 1376 1319
f 491 1319 462
f 462 1319 1289
f 462 1289 463
f 463 1289 1291
f 463 1291 461
f 461 1291 1290
f 461 1290 465
f 465 1290 1293
f 465 1293 464
f 464 1293 1292
f 464 1292 467
f 467 1292 1295
f 467 1295 466
f 466 1295 1294
f 466 1294 469
f 469 1294 1297
f 469 1297 468
f 468 1297 1296
f 468 1296 470
f 470 1296 1298
f 470 1298 15
f 15 1298 844
f 15 844 19
f 19 844 847
f 19 847 18
f 18 847 846
f 18 846 21
f 21 846 849
f 21 849 20
f 20 849 848
f 20 848 23
f 23 848 851
f 23 851 22
f 22 851 850
f 22 850 25
f 25 850 853
f 25 853 24
f 24 853 852
f 24 852 526
f 526 852 1354
f 526 1354 552
f 552 1354 1380
f 552 1380 553
f 553 1380 1381
f 553 1381 495
f 495 1381 1323
f 495 1323 27
f 27 1323 854
f 27 854 28
f 28 854 856
f 28 856 26
f 26 856 855
f 26 855 30
f 30 855 858
f 30 858 29
f 29 858 857
f 29 857 32
f 32 857 860
f 32 860 31
f 31 860 859
f 31 859 34
f 34 859 862
f 34 862 33
f 33 862 861
f 33 861 36
f 36 861 864
f 36 864 35
f 35 864 863
f 35 863 38
f 38 863 866
f 38 866 37
f 37 866 865
f 37 865 590
f 590 865 1418
f 590 1418 649
f 649 1418 1477
f 649 1477 664
f 664 1477 1492
f 664 1492 677
f 677 1492 1505
f 677 1505 685
f 685 1505 1513
f 685 1513 686
f 686 1513 1514
f 686 1514 637
f 637 1514 1465
f 637 1465 612
f 612 1465 1440
f 612 1440 591
f 591 1440 1419
f 591 1419 554
f 554 1419 1382
f 554 1382 527
f 527 1382 1355
f 527 1355 474
f 474 1355 1302
f 474 1302 40
f 40 1302 867
f 40 867 41
f 41 867 869
f 41 869 39
f 39 869 868
f 39 868 43
f 43 868 871
f 43 871 42
f 42 871 870
f 42 870 45
f 45 870 873
f 45 873 44
f 44 873 872
f 44 872 47
f 47 872 875
f 47 875 46
f 46 875 874
f 46 874 49
f 49 874 877
f 49 877 48
f 48 877 876
f 48 876 51
f 51 876 879
f 51 879 50
f 50 879 878
f 50 878 53
f 53 878 881
f 53 881 52
f 52 881 880
f 52 880 55
f 55 880 883
f 55 883 54
f 54 883 882
f 54 882 57
f 57 882 885
f 57 885 56
f 56 885 884
f 56 884 496
f 496 884 1324
f 496 1324 555
f 555 1324 1383
f 555 1383 556
f 556 1383 1384
f 556 1384 497
f 497 1384 1325
f 497 1325 59
f 59 1325 886
f 59 886 60
f 60 886 888
f 60 888 58
f 58 888 887
f 58 887 62
f 62 887 890
f 62 890 61
f 61 890 889
f 61 889 64
f 64 889 892
f 64 892 63
f 63 892 891
f 63 891 66
f 66 891 894
f 66 894 65
f 65 894 893
f 65 893 68
f 68 893 896
f 68 896 67
f 67 896 895
f 67 895 70
f 70 895 898
f 70 898 69
f 69 898 897
f 69 897 72
f 72 897 900
f 72 900 71
f 71 900 899
f 71 899 650
f 650 899 1478
f 650 1478 665
f 665 1478 1493
f 665 1493 678
f 678 1493 1506
f 678 1506 695
f 695 1506 1523
f 695 1523 703
f 703 1523 1531
f 703 1531 712
f 712 1531 1540
f 712 1540 730
f 730 1540 1558
f 730 1558 737
f 737 1558 1565
f 737 1565 745
f 745 1565 1573
f 745 1573 752
f 752 1573 1580
f 752 1580 758
f 758 1580 1586
f 758 1586 764
f 764 1586 1592
f 764 1592 746
f 746 1592 1574
f 746 1574 722
f 722 1574 1550
f 722 1550 713
f 713 1550 1541
f 713 1541 704
f 704 1541 1532
f 704 1532 696
f 696 1532 1524
f 696 1524 687
f 687 1524 1515
f 687 1515 666
f 666 1515 1494
f 666 1494 651
f 651 1494 1479
f 651 1479 638
f 638 1479 1466
f 638 1466 557
f 557 1466 1385
f 557 1385 498
f 498 1385 1326
f 498 1326 74
f 74 1326 901
f 74 901 75
f 75 901 903
f 75 903 73
f 73 903 902
f 73 902 77
f 77 902 905
f 77 905 76
f 76 905 904
f 76 904 79
f 79 904 907
f 79 907 78
f 78 907 906
f 78 906 475
f 475 906 1303
f 475 1303 499
f 499 1303 1327
f 499 1327 592
f 592 1327 1420
f 592 1420 558
f 558 1420 1386
f 558 1386 500
f 500 1386 1328
f 500 1328 81
f 81 1328 908
f 81 908 82
f 82 908 910
f 82 910 80
f 80 910 909
f 80 909 84
f 84 909 912
f 84 912 83
f 83 912 911
f 83 911 86
f 86 911 914
f 86 914 85
f 85 914 913
f 85 913 88
f 88 913 916
f 88 916 87
f 87 916 915
f 87 915 90
f 90 915 918
f 90 918 89
f 89 918 917
f 89 917 92
f 92 917 920
f 92 920 91
f 91 920 919
f 91 919 94
f 94 919 922
f 94 922 93
f 93 922 921
f 93 921 96
f 96 921 924
f 96 924 95
f 95 924 923
f 95 923 98
f 98 923 926
f 98 926 97
f 97 926 925
f 97 925 476
f 476 925 1304
f 476 1304 528
f 528 1304 1356
f 528 1356 559
f 559 1356 1387
f 559 1387 501
f 501 1387 1329
f 501 1329 100
f 100 1329 927
f 100 927 101
f 101 927 929
f 101 929 99
f 99 929 928
f 99 928 103
f 103 928 931
f 103 931 102
f 102 931 930
f 102 930 105
f 105 930 933
f 105 933 104
f 104 933 932
f 104 932 107
f 107 932 935
f 107 935 106
f 106 935 934
f 106 934 109
f 109 934 937
f 109 937 108
f 108 937 936
f 108 936 111
f 111 936 939
f 111 939 110
f 110 939 938
f 110 938 113
f 113 938 941
f 113 941 112
f 112 941 940
f 112 940 115
f 115 940 943
f 115 943 114
f 114 943 942
f 114 942 117
f 117 942 945
f 117 945 116
f 116 945 944
f 116 944 119
f 119 944 947
f 119 947 118
f 118 947 946
f 118 946 529
f 529 946 1357
f 529 1357 560
f 560 1357 1388
f 560 1388 593
f 593 1388 1421
f 593 1421 594
f 594 1421 1422
f 594 1422 530
f 530 1422 1358
f 530 1358 477
f 477 1358 1305
f 477 1305 121
f 121 1305 948
f 121 948 122
f 122 948 950
f 122 950 120
f 120 950 949
f 120 949 124
f 124 949 952
f 124 952 123
f 123 952 951
f 123 951 126
f 126 951 954
f 126 954 125
f 125 954 953
f 125 953 128
f 128 953 956
f 128 956 127
f 127 956 955
f 127 955 130
f 130 955 958
f 130 958 129
f 129 958 957
f 129 957 132
f 132 957 960
f 132 960 131
f 131 960 959
f 131 959 134
f 134 959 962
f 134 962 133
f 133 962 961
f 133 961 136
f 136 961 964
f 136 964 135
f 135 964 963
f 135 963 138
f 138 963 966
f 138 966 137
f 137 966 965
f 137 965 502
f 502 965 1330
f 502 1330 731
f 731 1330 1559
f 731 1559 738
f 738 1559 1566
f 738 1566 753
f 753 1566 1581
f 753 1581 759
f 759 1581 1587
f 759 1587 765
f 765 1587 1593
f 765 1593 768
f 768 1593 1596
f 768 1596 781
f 781 1596 1609
f 781 1609 785
f 785 1609 1613
f 785 1613 723
f 723 1613 1551
f 723 1551 714
f 714 1551 1542
f 714 1542 688
f 688 1542 1516
f 688 1516 652
f 652 1516 1480
f 652 1480 639
f 639 1480 1467
f 639 1467 613
f 613 1467 1441
f 613 1441 595
f 595 1441 1423
f 595 1423 561
f 561 1423 1389
f 561 1389 503
f 503 1389 1331
f 503 1331 140
f 140 1331 967
f 140 967 141
f 141 967 969
f 141 969 139
f 139 969 968
f 139 968 143
f 143 968 971
f 143 971 142
f 142 971 970
f 142 970 145
f 145 970 973
f 145 973 144
f 144 973 972
f 144 972 147
f 147 972 975
f 147 975 146
f 146 975 974
f 146 974 149
f 149 974 977
f 149 977 148
f 148 977 976
f 148 976 151
f 151 976 979
f 151 979 150
f 150 979 978
f 150 978 626
f 626 978 1454
f 626 1454 667
f 667 1454 1495
f 667 1495 679
f 679 1495 1507
f 679 1507 562
f 562 1507 1390
f 562 1390 504
f 504 1390 1332
f 504 1332 153
f 153 1332 980
f 153 980 154
f 154 980 982
f 154 982 152
f 152 982 981
f 152 981 156
f 156 981 984
f 156 984 155
f 155 984 983
f 155 983 158
f 158 983 986
f 158 986 157
f 157 986 985
f 157 985 160
f 160 985 988
f 160 988 159
f 159 988 987
f 159 987 162
f 162 987 990
f 162 990 161
f 161 990 989
f 161 989 164
f 164 989 992
f 164 992 163
f 163 992 991
f 163 991 166
f 166 991 994
f 166 994 165
f 165 994 993
f 165 993 168
f 168 993 996
f 168 996 167
f 167 996 995
f 167 995 170
f 170 995 998
f 170 998 169
f 169 998 997
f 169 997 172
f 172 997 1000
f 172 1000 171
f 171 1000 999
f 171 999 174
f 174 999 1002
f 174 1002 173
f 173 1002 1001
f 173 1001 176
f 176 1001 1004
f 176 1004 175
f 175 1004 1003
f 175 1003 178
f 178 1003 1006
f 178 1006 177
f 177 1006 1005
f 177 1005 478
f 478 1005 1306
f 478 1306 563
f 563 1306 1391
f 563 1391 596
f 596 1391 1424
f 596 1424 614
f 614 1424 1442
f 614 1442 627
f 627 1442 1455
f 627 1455 640
f 640 1455 1468
f 640 1468 653
f 653 1468 1481
f 653 1481 597
f 597 1481 1425
f 597 1425 564
f 564 1425 1392
f 564 1392 505
f 505 1392 1333
f 505 1333 180
f 180 1333 1007
f 180 1007 181
f 181 1007 1009
f 181 1009 179
f 179 1009 1008
f 179 1008 183
f 183 1008 1011
f 183 1011 182
f 182 1011 1010
f 182 1010 185
f 185 1010 1013
f 185 1013 184
f 184 1013 1012
f 184 1012 479
f 479 1012 1307
f 479 1307 506
f 506 1307 1334
f 506 1334 615
f 615 1334 1443
f 615 1443 689
f 689 1443 1517
f 689 1517 697
f 697 1517 1525
f 697 1525 705
f 705 1525 1533
f 705 1533 715
f 715 1533 1543
f 715 1543 724
f 724 1543 1552
f 724 1552 732
f 732 1552 1560
f 732 1560 739
f 739 1560 1567
f 739 1567 747
f 747 1567 1575
f 747 1575 754
f 754 1575 1582
f 754 1582 760
f 760 1582 1588
f 760 1588 809
f 809 1588 1637
f 809 1637 806
f 806 1637 1634
f 806 1634 803
f 803 1634 1631
f 803 1631 801
f 801 1631 1629
f 801 1629 798
f 798 1629 1626
f 798 1626 795
f 795 1626 1623
f 795 1623 791
f 791 1623 1619
f 791 1619 789
f 789 1619 1617
f 789 1617 788
f 788 1617 1616
f 788 1616 786
f 786 1616 1614
f 786 1614 782
f 782 1614 1610
f 782 1610 778
f 778 1610 1606
f 778 1606 774
f 774 1606 1602
f 774 1602 771
f 771 1602 1599
f 771 1599 698
f 698 1599 1526
f 698 1526 654
f 654 1526 1482
f 654 1482 641
f 641 1482 1469
f 641 1469 628
f 628 1469 1456
f 628 1456 616
f 616 1456 1444
f 616 1444 565
f 565 1444 1393
f 565 1393 531
f 531 1393 1359
f 531 1359 187
f 187 1359 1014
f 187 1014 188
f 188 1014 1016
f 188 1016 186
f 186 1016 1015
f 186 1015 190
f 190 1015 1018
f 190 1018 189
f 189 1018 1017
f 189 1017 192
f 192 1017 1020
f 192 1020 191
f 191 1020 1019
f 191 1019 194
f 194 1019 1022
f 194 1022 193
f 193 1022 1021
f 193 1021 196
f 196 1021 1024
f 196 1024 195
f 195 1024 1023
f 195 1023 198
f 198 1023 1026
f 198 1026 197
f 197 1026 1025
f 197 1025 200
f 200 1025 1028
f 200 1028 199
f 199 1028 1027
f 199 1027 202
f 202 1027 1030
f 202 1030 201
f 201 1030 1029
f 201 1029 204
f 204 1029 1032
f 204 1032 203
f 203 1032 1031
f 203 1031 480
f 480 1031 1308
f 480 1308 507
f 507 1308 1335
f 507 1335 566
f 566 1335 1394
f 566 1394 668
f 668 1394 1496
f 668 1496 567
f 567 1496 1395
f 567 1395 508
f 508 1395 1336
f 508 1336 206
f 206 1336 1033
f 206 1033 207
f 207 1033 1035
f 207 1035 205
f 205 1035 1034
f 205 1034 481
f 481 1034 1309
f 481 1309 532
f 532 1309 1360
f 532 1360 598
f 598 1360 1426
f 598 1426 533
f 533 1426 1361
f 533 1361 509
f 509 1361 1337
f 509 1337 482
f 482 1337 1310
f 482 1310 209
f 209 1310 1036
f 209 1036 210
f 210 1036 1038
f 210 1038 208
f 208 1038 1037
f 208 1037 568
f 568 1037 1396
f 568 1396 748
f 748 1396 1576
f 748 1576 740
f 740 1576 1568
f 740 1568 733
f 733 1568 1561
f 733 1561 725
f 725 1561 1553
f 725 1553 716
f 716 1553 1544
f 716 1544 706
f 706 1544 1534
f 706 1534 699
f 699 1534 1527
f 699 1527 690
f 690 1527 1518
f 690 1518 680
f 680 1518 1508
f 680 1508 669
f 669 1508 1497
f 669 1497 655
f 655 1497 1483
f 655 1483 212
f 212 1483 1039
f 212 1039 213
f 213 1039 1041
f 213 1041 211
f 211 1041 1040
f 211 1040 599
f 599 1040 1427
f 599 1427 569
f 569 1427 1397
f 569 1397 510
f 510 1397 1338
f 510 1338 215
f 215 1338 1042
f 215 1042 216
f 216 1042 1044
f 216 1044 214
f 214 1044 1043
f 214 1043 218
f 218 1043 1046
f 218 1046 217
f 217 1046 1045
f 217 1045 220
f 220 1045 1048
f 220 1048 219
f 219 1048 1047
f 219 1047 222
f 222 1047 1050
f 222 1050 221
f 221 1050 1049
f 221 1049 511
f 511 1049 1339
f 511 1339 534
f 534 1339 1362
f 534 1362 512
f 512 1362 1340
f 512 1340 224
f 224 1340 1051
f 224 1051 225
f 225 1051 1053
f 225 1053 223
f 223 1053 1052
f 223 1052 227
f 227 1052 1055
f 227 1055 226
f 226 1055 1054
f 226 1054 229
f 229 1054 1057
f 229 1057 228
f 228 1057 1056
f 228 1056 231
f 231 1056 1059
f 231 1059 230
f 230 1059 1058
f 230 1058 233
f 233 1058 1061
f 233 1061 232
f 232 1061 1060
f 232 1060 235
f 235 1060 1063
f 235 1063 234
f 234 1063 1062
f 234 1062 237
f 237 1062 1065
f 237 1065 236
f 236 1065 1064
f 236 1064 239
f 239 1064 1067
f 239 1067 238
f 238 1067 1066
f 238 1066 241
f 241 1066 1069
f 241 1069 240
f 240 1069 1068
f 240 1068 243
f 243 1068 1071
f 243 1071 242
f 242 1071 1070
f 242 1070 245
f 245 1070 1073
f 245 1073 244
f 244 1073 1072
f 244 1072 247
f 247 1072 1075
f 247 1075 246
f 246 1075 1074
f 246 1074 249
f 249 1074 1077
f 249 1077 248
f 248 1077 1076
f 248 1076 535
f 535 1076 1363
f 535 1363 570
f 570 1363 1398
f 570 1398 513
f 513 1398 1341
f 513 1341 251
f 251 1341 1078
f 251 1078 252
f 252 1078 1080
f 252 1080 250
f 250 1080 1079
f 250 1079 254
f 254 1079 1082
f 254 1082 253
f 253 1082 1081
f 253 1081 256
f 256 1081 1084
f 256 1084 255
f 255 1084 1083
f 255 1083 258
f 258 1083 1086
f 258 1086 257
f 257 1086 1085
f 257 1085 260
f 260 1085 1088
f 260 1088 259
f 259 1088 1087
f 259 1087 262
f 262 1087 1090
f 262 1090 261
f 261 1090 1089
f 261 1089 264
f 264 1089 1092
f 264 1092 263
f 263 1092 1091
f 263 1091 629
f 629 1091 1457
f 629 1457 642
f 642 1457 1470
f 642 1470 656
f 656 1470 1484
f 656 1484 670
f 670 1484 1498
f 670 1498 657
f 657 1498 1485
f 657 1485 630
f 630 1485 1458
f 630 1458 617
f 617 1458 1445
f 617 1445 600
f 600 1445 1428
f 600 1428 571
f 571 1428 1399
f 571 1399 514
f 514 1399 1342
f 514 1342 266
f 266 1342 1093
f 266 1093 267
f 267 1093 1095
f 267 1095 265
f 265 1095 1094
f 265 1094 269
f 269 1094 1097
f 269 1097 268
f 268 1097 1096
f 268 1096 271
f 271 1096 1099
f 271 1099 270
f 270 1099 1098
f 270 1098 273
f 273 1098 1101
f 273 1101 272
f 272 1101 1100
f 272 1100 275
f 275 1100 1103
f 275 1103 274
f 274 1103 1102
f 274 1102 277
f 277 1102 1105
f 277 1105 276
f 276 1105 1104
f 276 1104 279
f 279 1104 1107
f 279 1107 278
f 278 1107 1106
f 278 1106 281
f 281 1106 1109
f 281 1109 280
f 280 1109 1108
f 280 1108 283
f 283 1108 1111
f 283 1111 282
f 282 1111 1110
f 282 1110 483
f 483 1110 1311
f 483 1311 536
f 536 1311 1364
f 536 1364 572
f 572 1364 1400
f 572 1400 537
f 537 1400 1365
f 537 1365 285
f 285 1365 1112
f 285 1112 286
f 286 1112 1114
f 286 1114 284
f 284 1114 1113
f 284 1113 288
f 288 1113 1116
f 288 1116 287
f 287 1116 1115
f 287 1115 290
f 290 1115 1118
f 290 1118 289
f 289 1118 1117
f 289 1117 484
f 484 1117 1312
f 484 1312 618
f 618 1312 1446
f 618 1446 601
f 601 1446 1429
f 601 1429 573
f 573 1429 1401
f 573 1401 515
f 515 1401 1343
f 515 1343 292
f 292 1343 1119
f 292 1119 293
f 293 1119 1121
f 293 1121 291
f 291 1121 1120
f 291 1120 295
f 295 1120 1123
f 295 1123 294
f 294 1123 1122
f 294 1122 297
f 297 1122 1125
f 297 1125 296
f 296 1125 1124
f 296 1124 299
f 299 1124 1127
f 299 1127 298
f 298 1127 1126
f 298 1126 301
f 301 1126 1129
f 301 1129 300
f 300 1129 1128
f 300 1128 303
f 303 1128 1131
f 303 1131 302
f 302 1131 1130
f 302 1130 305
f 305 1130 1133
f 305 1133 304
f 304 1133 1132
f 304 1132 707
f 707 1132 1535
f 707 1535 717
f 717 1535 1545
f 717 1545 726
f 726 1545 1554
f 726 1554 574
f 574 1554 1402
f 574 1402 307
f 307 1402 1134
f 307 1134 308
f 308 1134 1136
f 308 1136 306
f 306 1136 1135
f 306 1135 310
f 310 1135 1138
f 310 1138 309
f 309 1138 1137
f 309 1137 312
f 312 1137 1140
f 312 1140 311
f 311 1140 1139
f 311 1139 314
f 314 1139 1142
f 314 1142 313
f 313 1142 1141
f 313 1141 316
f 316 1141 1144
f 316 1144 315
f 315 1144 1143
f 315 1143 318
f 318 1143 1146
f 318 1146 317
f 317 1146 1145
f 317 1145 320
f 320 1145 1147
f 320 1147 321
f 321 1147 1149
f 321 1149 319
f 319 1149 1148
f 319 1148 323
f 323 1148 1151
f 323 1151 322
f 322 1151 1150
f 322 1150 325
f 325 1150 1153
f 325 1153 324
f 324 1153 1152
f 324 1152 538
f 538 1152 1366
f 538 1366 619
f 619 1366 1447
f 619 1447 749
f 749 1447 1577
f 749 1577 811
f 811 1577 1639
f 811 1639 816
f 816 1639 1644
f 816 1644 819
f 819 1644 1647
f 819 1647 820
f 820 1647 1648
f 820 1648 817
f 817 1648 1645
f 817 1645 814
f 814 1645 1642
f 814 1642 812
f 812 1642 1640
f 812 1640 810
f 810 1640 1638
f 810 1638 807
f 807 1638 1635
f 807 1635 804
f 804 1635 1632
f 804 1632 799
f 799 1632 1627
f 799 1627 796
f 796 1627 1624
f 796 1624 792
f 792 1624 1620
f 792 1620 783
f 783 1620 1611
f 783 1611 779
f 779 1611 1607
f 779 1607 775
f 775 1607 1603
f 775 1603 631
f 631 1603 1459
f 631 1459 575
f 575 1459 1403
f 575 1403 516
f 516 1403 1344
f 516 1344 327
f 327 1344 1154
f 327 1154 328
f 328 1154 1156
f 328 1156 326
f 326 1156 1155
f 326 1155 330
f 330 1155 1158
f 330 1158 329
f 329 1158 1157
f 329 1157 332
f 332 1157 1160
f 332 1160 331
f 331 1160 1159
f 331 1159 334
f 334 1159 1162
f 334 1162 333
f 333 1162 1161
f 333 1161 602
f 602 1161 1430
f 602 1430 576
f 576 1430 1404
f 576 1404 517
f 517 1404 1345
f 517 1345 336
f 336 1345 1163
f 336 1163 337
f 337 1163 1165
f 337 1165 335
f 335 1165 1164
f 335 1164 339
f 339 1164 1167
f 339 1167 338
f 338 1167 1166
f 338 1166 341
f 341 1166 1169
f 341 1169 340
f 340 1169 1168
f 340 1168 343
f 343 1168 1171
f 343 1171 342
f 342 1171 1170
f 342 1170 345
f 345 1170 1173
f 345 1173 344
f 344 1173 1172
f 344 1172 347
f 347 1172 1175
f 347 1175 346
f 346 1175 1174
f 346 1174 643
f 643 1174 1471
f 643 1471 658
f 658 1471 1486
f 658 1486 671
f 671 1486 1499
f 671 1499 681
f 681 1499 1509
f 681 1509 718
f 718 1509 1546
f 718 1546 708
f 708 1546 1536
f 708 1536 700
f 700 1536 1528
f 700 1528 691
f 691 1528 1519
f 691 1519 672
f 672 1519 1500
f 672 1500 659
f 659 1500 1487
f 659 1487 644
f 644 1487 1472
f 644 1472 632
f 632 1472 1460
f 632 1460 620
f 620 1460 1448
f 620 1448 603
f 603 1448 1431
f 603 1431 577
f 577 1431 1405
f 577 1405 539
f 539 1405 1367
f 539 1367 518
f 518 1367 1346
f 518 1346 485
f 485 1346 1313
f 485 1313 349
f 349 1313 1176
f 349 1176 350
f 350 1176 1178
f 350 1178 348
f 348 1178 1177
f 348 1177 660
f 660 1177 1488
f 660 1488 645
f 645 1488 1473
f 645 1473 633
f 633 1473 1461
f 633 1461 621
f 621 1461 1449
f 621 1449 604
f 604 1449 1432
f 604 1432 578
f 578 1432 1406
f 578 1406 352
f 352 1406 1179
f 352 1179 353
f 353 1179 1181
f 353 1181 351
f 351 1181 1180
f 351 1180 355
f 355 1180 1183
f 355 1183 354
f 354 1183 1182
f 354 1182 357
f 357 1182 1185
f 357 1185 356
f 356 1185 1184
f 356 1184 359
f 359 1184 1187
f 359 1187 358
f 358 1187 1186
f 358 1186 361
f 361 1186 1189
f 361 1189 360
f 360 1189 1188
f 360 1188 363
f 363 1188 1191
f 363 1191 362
f 362 1191 1190
f 362 1190 365
f 365 1190 1193
f 365 1193 364
f 364 1193 1192
f 364 1192 367
f 367 1192 1195
f 367 1195 366
f 366 1195 1194
f 366 1194 369
f 369 1194 1197
f 369 1197 368
f 368 1197 1196
f 368 1196 371
f 371 1196 1199
f 371 1199 370
f 370 1199 1198
f 370 1198 519
f 519 1198 1347
f 519 1347 540
f 540 1347 1368
f 540 1368 741
f 741 1368 1569
f 741 1569 727
f 727 1569 1555
f 727 1555 692
f 692 1555 1520
f 692 1520 673
f 673 1520 1501
f 673 1501 646
f 646 1501 1474
f 646 1474 622
f 622 1474 1450
f 622 1450 541
f 541 1450 1369
f 541 1369 486
f 486 1369 1314
f 486 1314 373
f 373 1314 1200
f 373 1200 374
f 374 1200 1202
f 374 1202 372
f 372 1202 1201
f 372 1201 376
f 376 1201 1204
f 376 1204 375
f 375 1204 1203
f 375 1203 378
f 378 1203 1206
f 378 1206 377
f 377 1206 1205
f 377 1205 579
f 579 1205 1407
f 579 1407 605
f 605 1407 1433
f 605 1433 606
f 606 1433 1434
f 606 1434 542
f 542 1434 1370
f 542 1370 487
f 487 1370 1315
f 487 1315 380
f 380 1315 1207
f 380 1207 381
f 381 1207 1209
f 381 1209 379
f 379 1209 1208
f 379 1208 383
f 383 1208 1211
f 383 1211 382
f 382 1211 1210
f 382 1210 385
f 385 1210 1213
f 385 1213 384
f 384 1213 1212
f 384 1212 387
f 387 1212 1215
f 387 1215 386
f 386 1215 1214
f 386 1214 389
f 389 1214 1217
f 389 1217 388
f 388 1217 1216
f 388 1216 391
f 391 1216 1219
f 391 1219 390
f 390 1219 1218
f 824 1652 823
f 823 1652 1651
f 823 1651 821
f 821 1651 1649
f 821 1649 818
f 818 1649 1646
f 818 1646 815
f 815 1646 1643
f 815 1643 813
f 813 1643 1641
f 813 1641 808
f 808 1641 1636
f 808 1636 805
f 805 1636 1633
f 805 1633 802
f 802 1633 1630
f 802 1630 800
f 800 1630 1628
f 800 1628 797
f 797 1628 1625
f 797 1625 794
f 794 1625 1622
f 794 1622 790
f 790 1622 1618
f 790 1618 777
f 777 1618 1605
f 777 1605 773
f 773 1605 1601
f 773 1601 5
f 5 1601 832
f 5 832 6
f 6 832 834
f 6 834 4
f 4 834 833
f 4 833 8
f 8 833 836
f 8 836 7
f 7 836 835
f 7 835 10
f 10 835 837
f 10 837 11
f 11 837 839
f 11 839 9
f 9 839 838
f 9 838 3
f 3 838 831
f 3 831 1
f 1 831 830
f 1 830 524
f 524 830 1352
f 524 1352 550
f 550 1352 1378
f 550 1378 588
f 588 1378 1416
f 588 1416 611
f 611 1416 1439
f 611 1439 625
f 625 1439 1453
f 625 1453 636
f 636 1453 1464
f 636 1464 822
f 822 1464 1650
f 822 1650 825
f 825 1650 1653
f 825 1653 827
f 827 1653 1655
f 827 1655 828
f 828 1655 1656
f 828 1656 826
f 826 1656 1654
f 826 1654 824
f 824 1654 1652
f 472 1300 2
f 2 1300 829
f 2 829 13
f 13 829 840
f 13 840 14
f 14 840 842
f 14 842 12
f 12 842 841
f 12 841 589
f 589 841 1417
f 589 1417 551
f 551 1417 1379
f 551 1379 525
f 525 1379 1353
f 525 1353 494
f 494 1353 1322
f 494 1322 473
f 473 1322 1301
f 473 1301 16
f 16 1301 843
f 16 843 17
f 17 843 845
f 17 845 471
f 471 845 1299
f 471 1299 492
f 492 1299 1320
f 492 1320 549
f 549 1320 1377
f 549 1377 587
f 587 1377 1415
f 587 1415 702
f 702 1415 1530
f 702 1530 711
f 711 1530 1539
f 711 1539 729
f 729 1539 1557
f 729 1557 736
f 736 1557 1564
f 736 1564 757
f 757 1564 1585
f 757 1585 772
f 772 1585 1600
f 772 1600 787
f 787 1600 1615
f 787 1615 793
f 793 1615 1621
f 793 1621 493
f 493 1621 1321
f 493 1321 472
f 472 1321 1300
