o 
v 26.07 0 -0.18
v 27.176 0 -0.002
v 26.696 0 -0.059
v 25.472 0 -0.35
v 25.726 0 -0.263
v 25.145 0 -0.603
v 25.285 0 -0.459
v 24.92 0 -1.06
v 25.03 0 -0.798
v 23.658 0 -1.55
v 24.244 0 -1.65
v 23.96 0 -1.59
v 22.788 0 -1.656
v 23.286 0 -1.569
v 21.19 0 -2.086
v 22.107 0 -1.825
v 18.745 0 -2.838
v 19.98 0 -2.45
v 17.024 0 -3.454
v 17.783 0 -3.163
v 15.833 0 -4.053
v 16.397 0 -3.74
v 14.558 0 -4.92
v 15.26 0 -4.42
v 13.67 0 -5.88
v 14.036 0 -5.395
v 13.316 0 -7.026
v 13.438 0 -6.412
v 13.294 0 -8.138
v 13.28 0 -7.76
v 13.415 0 -8.632
v 13.331 0 -8.416
v 13.816 0 -9.027
v 13.569 0 -8.824
v 15.08 0 -9.89
v 14.18 0 -9.28
v 22.106 0 -11.499
v 21.657 0 -11.105
v 21.904 0 -11.321
v 22.33 0 -11.69
v 22.252 0 -11.625
v 21.993 0 -12.941
v 22.189 0 -12.463
v 22.09 0 -12.7
v 21.83 0 -13.393
v 21.905 0 -13.175
v 21.734 0 -13.731
v 21.771 0 -13.581
v 21.769 0 -13.962
v 21.72 0 -13.83
v 22.116 0 -14.535
v 21.905 0 -14.203
v 22.707 0 -15.388
v 22.388 0 -14.937
v 24.38 0 -17.67
v 23.06 0 -15.87
v 27.45 0 -26.39
v 25.56 0 -22.02
v 26.73 0 -26.39
v 27.8 0 -33.18
v 27.72 0 -28.78
v 27.3 0 -30.7
v 28.163 0 -34.757
v 27.978 0 -34.005
v 28.567 0 -36.083
v 28.359 0 -35.446
v 29.03 0 -37.24
v 28.79 0 -36.677
v 31.45 0 -39.02
v 29.74 0 -38.8
v 34.447 0 -40.997
v 33.19 0 -39.28
v 33.852 0 -40.193
v 35.503 0 -42.356
v 34.993 0 -41.711
v 36.48 0 -43.52
v 35.993 0 -42.952
v 34.699 0 -48.272
v 35.14 0 -48.34
v 34.962 0 -48.308
v 33.998 0 -48.195
v 34.371 0 -48.234
v 33.19 0 -48.12
v 33.598 0 -48.156
v 30.818 0 -47.186
v 31.349 0 -47.642
v 31.08 0 -47.41
v 30.211 0 -46.849
v 30.54 0 -47.004
v 29.261 0 -46.562
v 29.796 0 -46.706
v 26.7 0 -45.98
v 28.57 0 -46.4
v 23.708 0 -47.852
v 24.59 0 -47.3
v 22.764 0 -48.521
v 23.118 0 -48.242
v 22.549 0 -48.954
v 22.592 0 -48.741
v 22.611 0 -49.371
v 22.58 0 -49.21
v 22.673 0 -49.649
v 22.642 0 -49.519
v 22.728 0 -49.83
v 22.701 0 -49.754
v 17.814 0 -52.475
v 19.7 0 -53.54
v 18.25 0 -52.71
v 17.108 0 -52.136
v 17.431 0 -52.282
v 16.661 0 -52.001
v 16.849 0 -52.041
v 16.35 0 -52.158
v 16.55 0 -52.02
v 15.254 0 -52.959
v 15.905 0 -52.48
v 13.488 0 -54.263
v 14.435 0 -53.563
v 11.347 0 -55.846
v 12.45 0 -55.03
v 9.108 0 -57.507
v 10.214 0 -56.686
v 4.43 0 -60.96
v 7.195 0 -58.922
v 6.5 0 -59.43
v 9.33 0 -62.75
v 6.87 0 -61.86
v 11.611 0 -62.36
v 10.71 0 -62.55
v 13.564 0 -61.706
v 12.569 0 -62.077
v 15.58 0 -60.735
v 14.574 0 -61.257
v 17.164 0 -59.775
v 16.56 0 -60.15
v 19.9 0 -58.68
v 18.88 0 -59.32
v 19.68 0 -59.45
v 22.955 0 -58.817
v 22.487 0 -58.058
v 22.64 0 -58.35
v 23.985 0 -59.188
v 23.372 0 -59.096
v 26.175 0 -58.805
v 24.888 0 -59.091
v 28.859 0 -58.071
v 27.94 0 -58.33
v 30.486 0 -57.564
v 29.72 0 -57.811
v 31.584 0 -57.16
v 31.12 0 -57.343
v 32.115 0 -56.855
v 31.84 0 -57.03
v 35.125 0 -58.191
v 34.81 0 -57.76
v 34.934 0 -57.941
v 35.658 0 -58.836
v 35.371 0 -58.495
v 36.3 0 -59.56
v 35.972 0 -59.196
v 36.815 0 -63.87
v 37.05 0 -62.85
v 36.926 0 -63.383
v 36.651 0 -64.62
v 36.722 0 -64.289
v 36.59 0 -64.94
v 36.606 0 -64.844
v 35.183 0 -65.602
v 35.93 0 -65.27
v 35.69 0 -65.36
v 34.329 0 -66.423
v 34.734 0 -65.949
v 33.591 0 -67.823
v 33.952 0 -67.041
v 32.821 0 -70.306
v 33.23 0 -68.79
v 32.691 0 -73.144
v 32.643 0 -71.763
v 33.458 0 -75.605
v 32.964 0 -74.43
v 34.401 0 -76.917
v 34.17 0 -76.65
v 34.839 0 -77.378
v 34.627 0 -77.163
v 35.18 0 -77.671
v 35.026 0 -77.55
v 35.422 0 -77.775
v 35.29 0 -77.73
v 37.01 0 -78.38
v 36.255 0 -78.089
v 36.624 0 -78.231
v 37.572 0 -81.297
v 37.93 0 -81.28
v 37.766 0 -81.285
v 37.138 0 -81.339
v 37.359 0 -81.316
v 36.72 0 -81.39
v 36.921 0 -81.364
v 36.26 0 -81.51
v 36.452 0 -81.445
v 36.037 0 -81.743
v 36.126 0 -81.604
v 35.93 0 -82.23
v 35.977 0 -81.946
v 33.836 0 -83.439
v 34.773 0 -83.303
v 34.17 0 -83.39
v 33.349 0 -83.561
v 33.563 0 -83.495
v 33.085 0 -83.727
v 33.19 0 -83.638
v 32.982 0 -84.013
v 33.03 0 -83.83
v 32.791 0 -84.881
v 32.9 0 -84.374
v 32.511 0 -86.219
v 32.66 0 -85.506
v 28.392 0 -90.097
v 28.881 0 -90.086
v 28.66 0 -90.09
v 28.066 0 -90.188
v 28.2 0 -90.126
v 27.917 0 -90.458
v 27.977 0 -90.294
v 27.763 0 -91.322
v 27.87 0 -90.69
v 27.825 0 -92.048
v 27.733 0 -91.752
v 28.553 0 -92.5
v 28.083 0 -92.274
v 30.86 0 -93.41
v 29.28 0 -92.79
v 31.049 0 -95.614
v 30.99 0 -94.97
v 31.185 0 -96.35
v 31.108 0 -96.059
v 31.468 0 -96.659
v 31.299 0 -96.534
v 31.873 0 -96.828
v 31.71 0 -96.77
v 32.216 0 -96.9
v 32.044 0 -96.872
v 32.523 0 -96.905
v 32.379 0 -96.911
v 33.171 0 -96.701
v 32.64 0 -96.88
v 34.899 0 -98.376
v 34.48 0 -97.6
v 34.701 0 -98.049
v 35.428 0 -98.838
v 35.124 0 -98.624
v 36.48 0 -99.34
v 35.863 0 -99.062
v 40.83 0 -100
v 37.97 0 -100
v 42.717 0 -99.972
v 41.892 0 -99.994
v 43.889 0 -99.858
v 43.364 0 -99.929
v 44.81 0 -99.61
v 44.352 0 -99.753
v 45.633 0 -99.274
v 45.266 0 -99.444
v 46.264 0 -98.799
v 45.951 0 -99.07
v 47.04 0 -97.93
v 46.613 0 -98.429
v 47.698 0 -97.031
v 47.384 0 -97.481
v 48.239 0 -96.112
v 47.982 0 -96.576
v 48.67 0 -95.14
v 48.467 0 -95.635
v 50.73 0 -89.81
v 50.23 0 -93.3
v 50.73 0 -93.21
v 50.712 0 -88.098
v 50.725 0 -88.909
v 50.665 0 -86.879
v 50.691 0 -87.41
v 50.6 0 -86.42
v 50.634 0 -86.538
v 51.177 0 -84.321
v 49.84 0 -84.18
v 50.82 0 -84.29
v 51.779 0 -84.299
v 51.491 0 -84.325
v 52.35 0 -84.153
v 52.059 0 -84.242
v 52.988 0 -83.899
v 52.67 0 -84.03
v 55.959 0 -85.606
v 54.804 0 -84.74
v 55.06 0 -84.97
v 58.116 0 -86.425
v 56.997 0 -86.096
v 60.37 0 -86.551
v 59.26 0 -86.581
v 62.072 0 -86.055
v 61.39 0 -86.32
v 63.463 0 -85.369
v 62.774 0 -85.731
v 64.66 0 -84.599
v 64.103 0 -84.985
v 65.613 0 -83.705
v 65.1 0 -84.23
v 66.586 0 -82.417
v 66.113 0 -83.093
v 67.403 0 -80.964
v 67.021 0 -81.7
v 67.892 0 -79.753
v 67.72 0 -80.23
v 68.086 0 -78.999
v 68.013 0 -79.355
v 68.11 0 -78.255
v 68.117 0 -78.645
v 68.024 0 -77.418
v 68.07 0 -77.79
v 67.87 0 -76.714
v 67.956 0 -77.058
v 67.65 0 -76.099
v 67.767 0 -76.392
v 67.08 0 -75.09
v 67.52 0 -75.84
v 68.505 0 -73.012
v 68.2 0 -73.46
v 69.715 0 -71.256
v 69.492 0 -71.597
v 69.61 0 -71.44
v 69.993 0 -70.521
v 69.844 0 -70.941
v 70.317 0 -69.47
v 70.152 0 -70.022
v 71.01 0 -66.74
v 70.48 0 -68.89
v 72.92 0 -66
v 71.87 0 -66.85
v 72.72 0 -66.96
v 73.309 0 -63.853
v 73.154 0 -64.782
v 73.414 0 -62.487
v 73.394 0 -63.12
v 73.29 0 -61.14
v 73.377 0 -61.858
v 73.116 0 -60.14
v 73.214 0 -60.64
v 72.864 0 -59.184
v 72.999 0 -59.65
v 72.55 0 -58.37
v 72.714 0 -58.753
v 69.47 0 -57.23
v 72.04 0 -57.23
v 69.21 0 -54.66
v 69.34 0 -55.94
v 66.233 0 -52.056
v 66.86 0 -52.6
v 64.878 0 -49.763
v 64.679 0 -50.065
v 64.75 0 -49.96
v 65.4 0 -48.905
v 65.1 0 -49.402
v 66.162 0 -47.62
v 65.76 0 -48.301
v 67.199 0 -45.821
v 66.59 0 -46.89
v 68.001 0 -44.229
v 67.655 0 -44.968
v 68.54 0 -42.686
v 68.282 0 -43.502
v 69.008 0 -40.996
v 68.82 0 -41.68
v 75.73 0 -39.79
v 72.77 0 -39.04
v 73.65 0 -39.79
v 79.333 0 -39.681
v 77.511 0 -39.757
v 82.787 0 -39.423
v 81.118 0 -39.568
v 85.47 0 -39.06
v 84.264 0 -39.252
v 86.839 0 -38.758
v 86.247 0 -38.901
v 87.698 0 -38.422
v 87.302 0 -38.606
v 88.52 0 -37.86
v 88.084 0 -38.182
v 89.212 0 -37.286
v 88.915 0 -37.55
v 89.591 0 -36.798
v 89.431 0 -37.042
v 89.81 0 -36.21
v 89.711 0 -36.528
v 93.35 0 -34.32
v 90.01 0 -35.39
v 92.34 0 -35.39
v 94.49 0 -31.16
v 94.36 0 -33.26
v 95.33 0 -24.98
v 95.09 0 -28.56
v 95.57 0 -28.06
v 94.943 0 -21.501
v 95.157 0 -23.07
v 94.347 0 -19.225
v 94.676 0 -20.234
v 93.46 0 -17.82
v 93.945 0 -18.434
v 92.887 0 -17.315
v 93.171 0 -17.547
v 92.283 0 -16.945
v 92.595 0 -17.116
v 91.55 0 -16.66
v 91.939 0 -16.795
v 90.727 0 -16.439
v 91.083 0 -16.522
v 90.156 0 -16.431
v 90.435 0 -16.409
v 89.44 0 -16.63
v 89.841 0 -16.505
v 88.778 0 -16.892
v 89.059 0 -16.764
v 88.396 0 -17.241
v 88.566 0 -17.043
v 88.06 0 -17.89
v 88.237 0 -17.515
v 87.791 0 -18.652
v 87.911 0 -18.259
v 87.619 0 -19.621
v 87.695 0 -19.098
v 87.51 0 -21.01
v 87.559 0 -20.25
v 83.6 0 -25.66
v 84.672 0 -26.469
v 84.45 0 -26.3
v 76.09 0 -29.11
v 79.84 0 -27.38
v 69.794 0 -28.928
v 70.33 0 -29.55
v 69.93 0 -29.07
v 69.351 0 -28.6
v 69.596 0 -28.769
v 68.778 0 -28.272
v 69.074 0 -28.431
v 67.779 0 -27.872
v 68.48 0 -28.13
v 66.361 0 -27.671
v 67.078 0 -27.72
v 64.827 0 -27.887
v 65.616 0 -27.727
v 63.214 0 -28.488
v 63.98 0 -28.15
v 62.03 0 -29.414
v 62.572 0 -28.9
v 61.152 0 -30.856
v 61.564 0 -30.057
v 60.25 0 -33.31
v 60.77 0 -31.84
v 58.916 0 -37.875
v 60.517 0 -36.447
v 59.54 0 -37.31
v 58.042 0 -38.772
v 58.429 0 -38.348
v 57.429 0 -39.65
v 57.721 0 -39.192
v 56.932 0 -40.57
v 57.13 0 -40.19
v 52.29 0 -40.51
v 54.591 0 -41.21
v 54.1 0 -41.06
v 50.946 0 -41.038
v 51.31 0 -40.89
v 38.158 0 -30.226
v 38.26 0 -30.8
v 38.228 0 -30.565
v 37.922 0 -29.334
v 38.054 0 -29.808
v 37.6 0 -28.32
v 37.769 0 -28.83
v 37.13 0 -27.107
v 37.344 0 -27.628
v 36.737 0 -26.43
v 36.935 0 -26.72
v 36.24 0 -25.99
v 36.513 0 -26.199
v 35.76 0 -17.54
v 35.91 0 -22
v 36.57 0 -21.34
v 35.161 0 -14.979
v 35.454 0 -16.171
v 34.545 0 -12.861
v 34.865 0 -13.897
v 33.76 0 -10.66
v 34.183 0 -11.804
v 32.575 0 -7.749
v 33.117 0 -9.007
v 31.645 0 -6.168
v 32.096 0 -6.823
v 30.68 0 -5.43
v 31.185 0 -5.724
v 30.047 0 -3.166
v 29.938 0 -4.162
v 29.98 0 -3.87
v 29.846 0 -1.973
v 30.004 0 -2.538
v 29.169 0 -0.985
v 29.57 0 -1.459
v 28.243 0 -0.277
v 28.64 0 -0.54
v 27.561 0 -0.015
v 27.9 0 -0.104
v 24.798 0 -1.346
v 17.54 0 -9.76
v 27.832 0 -28.257
v 36.799 0 -43.89
v 18.535 0 -59.282
v 34.693 0 -57.598
v 36.146 0 -65.182
v 35.638 0 -77.854
v 38.43 0 -78.91
v 34.236 0 -97.12
v 49.855 0 -93.397
v 50.539 0 -86.403
v 54.552 0 -84.517
v 69.309 0 -71.853
v 72.396 0 -38.743
v 94.909 0 -28.775
v 87.458 0 -21.927
v 38.303 0 -31.097
v 35.95 0 -25.769
v 35.27 0 -22.68
v 29.902 0 -4.43
v 24.444 0 -1.67
v 21.379 0 -10.861
v 27.655 0 -26.397
v 27.934 0 -27.771
v 22.75 0 -49.87
v 8.083 0 -58.267
v 18.243 0 -59.291
v 22.357 0 -57.863
v 35.921 0 -77.961
v 38.141 0 -81.27
v 32.35 0 -86.99
v 29.163 0 -90.075
v 48.924 0 -94.493
v 49.57 0 -93.526
v 54.318 0 -84.311
v 69.074 0 -72.188
v 65.668 0 -51.559
v 72.111 0 -38.542
v 94.55 0 -30.329
v 94.777 0 -29.005
v 84.883 0 -26.621
v 60.89 0 -34.03
v 55.05 0 -41.346
v 29.874 0 -4.662
v 21.08 0 -10.6
v 22.266 0 -12.24
v 27.827 0 -26.418
v 28.021 0 -27.342
v 31.905 0 -39.076
v 37.087 0 -44.239
v 32.616 0 -48.067
v 31.596 0 -47.81
v 17.61 0 -59.519
v 17.952 0 -59.364
v 22.216 0 -57.748
v 37.49 0 -60.85
v 36.327 0 -65.101
v 35.211 0 -83.2
v 29.489 0 -90.058
v 34.032 0 -96.809
v 49.137 0 -94.034
v 49.341 0 -93.725
v 50.449 0 -86.354
v 53.233 0 -83.814
v 54.111 0 -84.133
v 68.801 0 -72.581
v 65.188 0 -51.129
v 64.616 0 -50.167
v 69.195 0 -40.362
v 71.871 0 -38.424
v 94.61 0 -29.728
v 94.681 0 -29.305
v 85.071 0 -26.751
v 61.309 0 -34.522
v 61.15 0 -35.815
v 55.456 0 -41.461
v 24.696 0 -1.533
v 24.586 0 -1.636
v 19.98 0 -9.65
v 27.965 0 -26.451
v 28.09 0 -26.993
v 32.317 0 -39.132
v 37.333 0 -44.55
v 31.861 0 -47.926
v 22.669 0 -50.036
v 20.015 0 -58.326
v 36.468 0 -65.031
v 38.282 0 -81.227
v 29.84 0 -90.035
v 33.548 0 -96.618
v 50.338 0 -86.28
v 53.423 0 -83.774
v 53.945 0 -83.992
v 64.816 0 -50.788
v 87.393 0 -22.6
v 85.227 0 -26.852
v 56.736 0 -40.912
v 55.79 0 -41.551
v 35.747 0 -25.575
v 35.4 0 -24.08
v 29.855 0 -4.846
v 22.319 0 -12.041
v 28.066 0 -26.495
v 28.134 0 -26.742
v 32.669 0 -39.184
v 20.129 0 -58.085
v 22.033 0 -57.697
v 36.558 0 -64.976
v 35.844 0 -82.596
v 35.515 0 -83.061
v 30.2 0 -90.009
v 33.819 0 -96.647
v 50.211 0 -86.186
v 53.83 0 -83.9
v 64.564 0 -50.263
v 71.629 0 -38.375
v 87.287 0 -23.139
v 85.34 0 -26.917
v 73.21 0 -29.33
v 56.551 0 -41.202
v 56.032 0 -41.609
v 35.61 0 -25.357
v 35.457 0 -24.659
v 29.846 0 -4.97
v 22.348 0 -11.876
v 28.129 0 -26.549
v 28.15 0 -26.61
v 32.943 0 -39.228
v 32.187 0 -48.007
v 20.33 0 -52.86
v 20.284 0 -57.931
v 21.775 0 -57.697
v 35.716 0 -82.866
v 30.55 0 -89.98
v 50.076 0 -86.077
v 64.524 0 -50.346
v 71.337 0 -38.381
v 87.114 0 -23.654
v 85.4 0 -26.94
v 56.387 0 -41.428
v 56.16 0 -41.63
v 35.52 0 -25.069
v 29.85 0 -5.02
v 22.352 0 -11.756
v 20.882 0 -52.244
v 32.354 0 -56.747
v 53.704 0 -83.819
v 64.575 0 -50.558
v 69.372 0 -39.804
v 50.668 0 -41.134
v 30.475 0 -5.34
v 21.444 0 -51.589
v 32.594 0 -56.705
v 31.74 0 -89.85
v 49.94 0 -85.96
v 53.574 0 -83.776
v 64.49 0 -50.46
v 69.532 0 -39.348
v 86.844 0 -24.254
v 61.513 0 -34.931
v 50.455 0 -41.181
v 30.287 0 -5.253
v 29.896 0 -5.052
v 33.123 0 -39.261
v 35.336 0 -48.357
v 21.964 0 -50.96
v 21.41 0 -57.73
v 38.368 0 -81.121
v 69.664 0 -39.021
v 86.45 0 -25.05
v 61.471 0 -35.336
v 50.286 0 -41.183
v 30.122 0 -5.173
v 29.99 0 -5.104
v 22.389 0 -50.421
v 86.199 0 -25.555
v 38.411 0 -80.919
v 85.964 0 -26.007
v 35.514 0 -48.308
v 38.428 0 -80.589
v 64.499 0 -50.413
v 85.756 0 -26.389
v 56.253 0 -41.575
v 37.523 0 -44.808
v 38.43 0 -80.1
v 85.586 0 -26.683
v 37.646 0 -44.997
v 20.521 0 -57.839
v 85.463 0 -26.873
v 38.524 0 -31.455
v 20.882 0 -57.78
v 49.729 0 -85.767
v 49.593 0 -85.612
v 39.061 0 -32.005
v 49.521 0 -85.467
v 70.95 0 -38.43
v 40.053 0 -32.879
v 35.704 0 -48.165
v 70.695 0 -38.467
v 41.636 0 -34.206
v 35.936 0 -47.899
v 49.507 0 -85.308
v 70.448 0 -38.523
v 43.95 0 -36.12
v 36.242 0 -47.48
v 49.543 0 -85.108
v 70.22 0 -38.595
v 45.467 0 -37.368
v 36.65 0 -46.88
v 49.62 0 -84.84
v 70.022 0 -38.677
v 46.858 0 -38.51
v 36.921 0 -46.457
v 69.865 0 -38.763
v 48.065 0 -39.498
v 37.169 0 -46.061
v 49.029 0 -40.284
v 37.38 0 -45.709
v 69.76 0 -38.85
v 49.69 0 -40.82
v 37.545 0 -45.419
v 34.543 0 -57.443
v 49.99 0 -41.06
v 37.652 0 -45.21
v 34.364 0 -57.299
v 50.138 0 -41.141
v 32.869 0 -56.726
v 34.157 0 -57.167
v 33.216 0 -56.809
v 33.925 0 -57.05
v 33.67 0 -56.95
v 37.69 0 -45.1
v 27.176 10 -0.002
v 26.07 10 -0.18
v 26.696 10 -0.059
v 25.472 10 -0.35
v 25.726 10 -0.263
v 25.145 10 -0.603
v 25.285 10 -0.459
v 24.92 10 -1.06
v 25.03 10 -0.798
v 24.244 10 -1.65
v 23.658 10 -1.55
v 23.96 10 -1.59
v 22.788 10 -1.656
v 23.286 10 -1.569
v 21.19 10 -2.086
v 22.107 10 -1.825
v 18.745 10 -2.838
v 19.98 10 -2.45
v 17.024 10 -3.454
v 17.783 10 -3.163
v 15.833 10 -4.053
v 16.397 10 -3.74
v 14.558 10 -4.92
v 15.26 10 -4.42
v 13.67 10 -5.88
v 14.036 10 -5.395
v 13.316 10 -7.026
v 13.438 10 -6.412
v 13.294 10 -8.138
v 13.28 10 -7.76
v 13.415 10 -8.632
v 13.331 10 -8.416
v 13.816 10 -9.027
v 13.569 10 -8.824
v 15.08 10 -9.89
v 14.18 10 -9.28
v 21.657 10 -11.105
v 22.106 10 -11.499
v 21.904 10 -11.321
v 22.33 10 -11.69
v 22.252 10 -11.625
v 22.189 10 -12.463
v 21.993 10 -12.941
v 22.09 10 -12.7
v 21.83 10 -13.393
v 21.905 10 -13.175
v 21.734 10 -13.731
v 21.771 10 -13.581
v 21.769 10 -13.962
v 21.72 10 -13.83
v 22.116 10 -14.535
v 21.905 10 -14.203
v 22.707 10 -15.388
v 22.388 10 -14.937
v 24.38 10 -17.67
v 23.06 10 -15.87
v 25.56 10 -22.02
v 27.45 10 -26.39
v 26.73 10 -26.39
v 27.72 10 -28.78
v 27.8 10 -33.18
v 27.3 10 -30.7
v 28.163 10 -34.757
v 27.978 10 -34.005
v 28.567 10 -36.083
v 28.359 10 -35.446
v 29.03 10 -37.24
v 28.79 10 -36.677
v 31.45 10 -39.02
v 29.74 10 -38.8
v 33.19 10 -39.28
v 34.447 10 -40.997
v 33.852 10 -40.193
v 35.503 10 -42.356
v 34.993 10 -41.711
v 36.48 10 -43.52
v 35.993 10 -42.952
v 35.14 10 -48.34
v 34.699 10 -48.272
v 34.962 10 -48.308
v 33.998 10 -48.195
v 34.371 10 -48.234
v 33.19 10 -48.12
v 33.598 10 -48.156
v 31.349 10 -47.642
v 30.818 10 -47.186
v 31.08 10 -47.41
v 30.211 10 -46.849
v 30.54 10 -47.004
v 29.261 10 -46.562
v 29.796 10 -46.706
v 26.7 10 -45.98
v 28.57 10 -46.4
v 23.708 10 -47.852
v 24.59 10 -47.3
v 22.764 10 -48.521
v 23.118 10 -48.242
v 22.549 10 -48.954
v 22.592 10 -48.741
v 22.611 10 -49.371
v 22.58 10 -49.21
v 22.673 10 -49.649
v 22.642 10 -49.519
v 22.728 10 -49.83
v 22.701 10 -49.754
v 19.7 10 -53.54
v 17.814 10 -52.475
v 18.25 10 -52.71
v 17.108 10 -52.136
v 17.431 10 -52.282
v 16.661 10 -52.001
v 16.849 10 -52.041
v 16.35 10 -52.158
v 16.55 10 -52.02
v 15.254 10 -52.959
v 15.905 10 -52.48
v 13.488 10 -54.263
v 14.435 10 -53.563
v 11.347 10 -55.846
v 12.45 10 -55.03
v 9.108 10 -57.507
v 10.214 10 -56.686
v 7.195 10 -58.922
v 4.43 10 -60.96
v 6.5 10 -59.43
v 9.33 10 -62.75
v 6.87 10 -61.86
v 11.611 10 -62.36
v 10.71 10 -62.55
v 13.564 10 -61.706
v 12.569 10 -62.077
v 15.58 10 -60.735
v 14.574 10 -61.257
v 17.164 10 -59.775
v 16.56 10 -60.15
v 18.88 10 -59.32
v 19.9 10 -58.68
v 19.68 10 -59.45
v 22.487 10 -58.058
v 22.955 10 -58.817
v 22.64 10 -58.35
v 23.985 10 -59.188
v 23.372 10 -59.096
v 26.175 10 -58.805
v 24.888 10 -59.091
v 28.859 10 -58.071
v 27.94 10 -58.33
v 30.486 10 -57.564
v 29.72 10 -57.811
v 31.584 10 -57.16
v 31.12 10 -57.343
v 32.115 10 -56.855
v 31.84 10 -57.03
v 34.81 10 -57.76
v 35.125 10 -58.191
v 34.934 10 -57.941
v 35.658 10 -58.836
v 35.371 10 -58.495
v 36.3 10 -59.56
v 35.972 10 -59.196
v 37.05 10 -62.85
v 36.815 10 -63.87
v 36.926 10 -63.383
v 36.651 10 -64.62
v 36.722 10 -64.289
v 36.59 10 -64.94
v 36.606 10 -64.844
v 35.93 10 -65.27
v 35.183 10 -65.602
v 35.69 10 -65.36
v 34.329 10 -66.423
v 34.734 10 -65.949
v 33.591 10 -67.823
v 33.952 10 -67.041
v 32.821 10 -70.306
v 33.23 10 -68.79
v 32.691 10 -73.144
v 32.643 10 -71.763
v 33.458 10 -75.605
v 32.964 10 -74.43
v 34.401 10 -76.917
v 34.17 10 -76.65
v 34.839 10 -77.378
v 34.627 10 -77.163
v 35.18 10 -77.671
v 35.026 10 -77.55
v 35.422 10 -77.775
v 35.29 10 -77.73
v 36.255 10 -78.089
v 37.01 10 -78.38
v 36.624 10 -78.231
v 37.93 10 -81.28
v 37.572 10 -81.297
v 37.766 10 -81.285
v 37.138 10 -81.339
v 37.359 10 -81.316
v 36.72 10 -81.39
v 36.921 10 -81.364
v 36.26 10 -81.51
v 36.452 10 -81.445
v 36.037 10 -81.743
v 36.126 10 -81.604
v 35.93 10 -82.23
v 35.977 10 -81.946
v 34.773 10 -83.303
v 33.836 10 -83.439
v 34.17 10 -83.39
v 33.349 10 -83.561
v 33.563 10 -83.495
v 33.085 10 -83.727
v 33.19 10 -83.638
v 32.982 10 -84.013
v 33.03 10 -83.83
v 32.791 10 -84.881
v 32.9 10 -84.374
v 32.511 10 -86.219
v 32.66 10 -85.506
v 28.881 10 -90.086
v 28.392 10 -90.097
v 28.66 10 -90.09
v 28.066 10 -90.188
v 28.2 10 -90.126
v 27.917 10 -90.458
v 27.977 10 -90.294
v 27.763 10 -91.322
v 27.87 10 -90.69
v 27.825 10 -92.048
v 27.733 10 -91.752
v 28.553 10 -92.5
v 28.083 10 -92.274
v 30.86 10 -93.41
v 29.28 10 -92.79
v 31.049 10 -95.614
v 30.99 10 -94.97
v 31.185 10 -96.35
v 31.108 10 -96.059
v 31.468 10 -96.659
v 31.299 10 -96.534
v 31.873 10 -96.828
v 31.71 10 -96.77
v 32.216 10 -96.9
v 32.044 10 -96.872
v 32.523 10 -96.905
v 32.379 10 -96.911
v 33.171 10 -96.701
v 32.64 10 -96.88
v 34.48 10 -97.6
v 34.899 10 -98.376
v 34.701 10 -98.049
v 35.428 10 -98.838
v 35.124 10 -98.624
v 36.48 10 -99.34
v 35.863 10 -99.062
v 40.83 10 -100
v 37.97 10 -100
v 42.717 10 -99.972
v 41.892 10 -99.994
v 43.889 10 -99.858
v 43.364 10 -99.929
v 44.81 10 -99.61
v 44.352 10 -99.753
v 45.633 10 -99.274
v 45.266 10 -99.444
v 46.264 10 -98.799
v 45.951 10 -99.07
v 47.04 10 -97.93
v 46.613 10 -98.429
v 47.698 10 -97.031
v 47.384 10 -97.481
v 48.239 10 -96.112
v 47.982 10 -96.576
v 48.67 10 -95.14
v 48.467 10 -95.635
v 50.23 10 -93.3
v 50.73 10 -89.81
v 50.73 10 -93.21
v 50.712 10 -88.098
v 50.725 10 -88.909
v 50.665 10 -86.879
v 50.691 10 -87.41
v 50.6 10 -86.42
v 50.634 10 -86.538
v 49.84 10 -84.18
v 51.177 10 -84.321
v 50.82 10 -84.29
v 51.779 10 -84.299
v 51.491 10 -84.325
v 52.35 10 -84.153
v 52.059 10 -84.242
v 52.988 10 -83.899
v 52.67 10 -84.03
v 54.804 10 -84.74
v 55.959 10 -85.606
v 55.06 10 -84.97
v 58.116 10 -86.425
v 56.997 10 -86.096
v 60.37 10 -86.551
v 59.26 10 -86.581
v 62.072 10 -86.055
v 61.39 10 -86.32
v 63.463 10 -85.369
v 62.774 10 -85.731
v 64.66 10 -84.599
v 64.103 10 -84.985
v 65.613 10 -83.705
v 65.1 10 -84.23
v 66.586 10 -82.417
v 66.113 10 -83.093
v 67.403 10 -80.964
v 67.021 10 -81.7
v 67.892 10 -79.753
v 67.72 10 -80.23
v 68.086 10 -78.999
v 68.013 10 -79.355
v 68.11 10 -78.255
v 68.117 10 -78.645
v 68.024 10 -77.418
v 68.07 10 -77.79
v 67.87 10 -76.714
v 67.956 10 -77.058
v 67.65 10 -76.099
v 67.767 10 -76.392
v 67.08 10 -75.09
v 67.52 10 -75.84
v 68.505 10 -73.012
v 68.2 10 -73.46
v 69.492 10 -71.597
v 69.715 10 -71.256
v 69.61 10 -71.44
v 69.993 10 -70.521
v 69.844 10 -70.941
v 70.317 10 -69.47
v 70.152 10 -70.022
v 71.01 10 -66.74
v 70.48 10 -68.89
v 71.87 10 -66.85
v 72.92 10 -66
v 72.72 10 -66.96
v 73.309 10 -63.853
v 73.154 10 -64.782
v 73.414 10 -62.487
v 73.394 10 -63.12
v 73.29 10 -61.14
v 73.377 10 -61.858
v 73.116 10 -60.14
v 73.214 10 -60.64
v 72.864 10 -59.184
v 72.999 10 -59.65
v 72.55 10 -58.37
v 72.714 10 -58.753
v 69.47 10 -57.23
v 72.04 10 -57.23
v 69.21 10 -54.66
v 69.34 10 -55.94
v 66.233 10 -52.056
v 66.86 10 -52.6
v 64.679 10 -50.065
v 64.878 10 -49.763
v 64.75 10 -49.96
v 65.4 10 -48.905
v 65.1 10 -49.402
v 66.162 10 -47.62
v 65.76 10 -48.301
v 67.199 10 -45.821
v 66.59 10 -46.89
v 68.001 10 -44.229
v 67.655 10 -44.968
v 68.54 10 -42.686
v 68.282 10 -43.502
v 69.008 10 -40.996
v 68.82 10 -41.68
v 72.77 10 -39.04
v 75.73 10 -39.79
v 73.65 10 -39.79
v 79.333 10 -39.681
v 77.511 10 -39.757
v 82.787 10 -39.423
v 81.118 10 -39.568
v 85.47 10 -39.06
v 84.264 10 -39.252
v 86.839 10 -38.758
v 86.247 10 -38.901
v 87.698 10 -38.422
v 87.302 10 -38.606
v 88.52 10 -37.86
v 88.084 10 -38.182
v 89.212 10 -37.286
v 88.915 10 -37.55
v 89.591 10 -36.798
v 89.431 10 -37.042
v 89.81 10 -36.21
v 89.711 10 -36.528
v 90.01 10 -35.39
v 93.35 10 -34.32
v 92.34 10 -35.39
v 94.49 10 -31.16
v 94.36 10 -33.26
v 95.09 10 -28.56
v 95.33 10 -24.98
v 95.57 10 -28.06
v 94.943 10 -21.501
v 95.157 10 -23.07
v 94.347 10 -19.225
v 94.676 10 -20.234
v 93.46 10 -17.82
v 93.945 10 -18.434
v 92.887 10 -17.315
v 93.171 10 -17.547
v 92.283 10 -16.945
v 92.595 10 -17.116
v 91.55 10 -16.66
v 91.939 10 -16.795
v 90.727 10 -16.439
v 91.083 10 -16.522
v 90.156 10 -16.431
v 90.435 10 -16.409
v 89.44 10 -16.63
v 89.841 10 -16.505
v 88.778 10 -16.892
v 89.059 10 -16.764
v 88.396 10 -17.241
v 88.566 10 -17.043
v 88.06 10 -17.89
v 88.237 10 -17.515
v 87.791 10 -18.652
v 87.911 10 -18.259
v 87.619 10 -19.621
v 87.695 10 -19.098
v 87.51 10 -21.01
v 87.559 10 -20.25
v 84.672 10 -26.469
v 83.6 10 -25.66
v 84.45 10 -26.3
v 76.09 10 -29.11
v 79.84 10 -27.38
v 70.33 10 -29.55
v 69.794 10 -28.928
v 69.93 10 -29.07
v 69.351 10 -28.6
v 69.596 10 -28.769
v 68.778 10 -28.272
v 69.074 10 -28.431
v 67.779 10 -27.872
v 68.48 10 -28.13
v 66.361 10 -27.671
v 67.078 10 -27.72
v 64.827 10 -27.887
v 65.616 10 -27.727
v 63.214 10 -28.488
v 63.98 10 -28.15
v 62.03 10 -29.414
v 62.572 10 -28.9
v 61.152 10 -30.856
v 61.564 10 -30.057
v 60.25 10 -33.31
v 60.77 10 -31.84
v 60.517 10 -36.447
v 58.916 10 -37.875
v 59.54 10 -37.31
v 58.042 10 -38.772
v 58.429 10 -38.348
v 57.429 10 -39.65
v 57.721 10 -39.192
v 56.932 10 -40.57
v 57.13 10 -40.19
v 54.591 10 -41.21
v 52.29 10 -40.51
v 54.1 10 -41.06
v 50.946 10 -41.038
v 51.31 10 -40.89
v 38.26 10 -30.8
v 38.158 10 -30.226
v 38.228 10 -30.565
v 37.922 10 -29.334
v 38.054 10 -29.808
v 37.6 10 -28.32
v 37.769 10 -28.83
v 37.13 10 -27.107
v 37.344 10 -27.628
v 36.737 10 -26.43
v 36.935 10 -26.72
v 36.24 10 -25.99
v 36.513 10 -26.199
v 35.91 10 -22
v 35.76 10 -17.54
v 36.57 10 -21.34
v 35.161 10 -14.979
v 35.454 10 -16.171
v 34.545 10 -12.861
v 34.865 10 -13.897
v 33.76 10 -10.66
v 34.183 10 -11.804
v 32.575 10 -7.749
v 33.117 10 -9.007
v 31.645 10 -6.168
v 32.096 10 -6.823
v 30.68 10 -5.43
v 31.185 10 -5.724
v 29.938 10 -4.162
v 30.047 10 -3.166
v 29.98 10 -3.87
v 29.846 10 -1.973
v 30.004 10 -2.538
v 29.169 10 -0.985
v 29.57 10 -1.459
v 28.243 10 -0.277
v 28.64 10 -0.54
v 27.561 10 -0.015
v 27.9 10 -0.104
v 24.798 10 -1.346
v 17.54 10 -9.76
v 27.832 10 -28.257
v 36.799 10 -43.89
v 18.535 10 -59.282
v 34.693 10 -57.598
v 36.146 10 -65.182
v 35.638 10 -77.854
v 38.43 10 -78.91
v 34.236 10 -97.12
v 49.855 10 -93.397
v 50.539 10 -86.403
v 54.552 10 -84.517
v 69.309 10 -71.853
v 72.396 10 -38.743
v 94.909 10 -28.775
v 87.458 10 -21.927
v 38.303 10 -31.097
v 35.95 10 -25.769
v 35.27 10 -22.68
v 29.902 10 -4.43
v 24.444 10 -1.67
v 21.379 10 -10.861
v 27.655 10 -26.397
v 27.934 10 -27.771
v 22.75 10 -49.87
v 8.083 10 -58.267
v 18.243 10 -59.291
v 22.357 10 -57.863
v 35.921 10 -77.961
v 38.141 10 -81.27
v 32.35 10 -86.99
v 29.163 10 -90.075
v 48.924 10 -94.493
v 49.57 10 -93.526
v 54.318 10 -84.311
v 69.074 10 -72.188
v 65.668 10 -51.559
v 72.111 10 -38.542
v 94.55 10 -30.329
v 94.777 10 -29.005
v 84.883 10 -26.621
v 60.89 10 -34.03
v 55.05 10 -41.346
v 29.874 10 -4.662
v 21.08 10 -10.6
v 22.266 10 -12.24
v 27.827 10 -26.418
v 28.021 10 -27.342
v 31.905 10 -39.076
v 37.087 10 -44.239
v 32.616 10 -48.067
v 31.596 10 -47.81
v 17.61 10 -59.519
v 17.952 10 -59.364
v 22.216 10 -57.748
v 37.49 10 -60.85
v 36.327 10 -65.101
v 35.211 10 -83.2
v 29.489 10 -90.058
v 34.032 10 -96.809
v 49.137 10 -94.034
v 49.341 10 -93.725
v 50.449 10 -86.354
v 53.233 10 -83.814
v 54.111 10 -84.133
v 68.801 10 -72.581
v 65.188 10 -51.129
v 64.616 10 -50.167
v 69.195 10 -40.362
v 71.871 10 -38.424
v 94.61 10 -29.728
v 94.681 10 -29.305
v 85.071 10 -26.751
v 61.309 10 -34.522
v 61.15 10 -35.815
v 55.456 10 -41.461
v 24.696 10 -1.533
v 24.586 10 -1.636
v 19.98 10 -9.65
v 27.965 10 -26.451
v 28.09 10 -26.993
v 32.317 10 -39.132
v 37.333 10 -44.55
v 31.861 10 -47.926
v 22.669 10 -50.036
v 20.015 10 -58.326
v 36.468 10 -65.031
v 38.282 10 -81.227
v 29.84 10 -90.035
v 33.548 10 -96.618
v 50.338 10 -86.28
v 53.423 10 -83.774
v 53.945 10 -83.992
v 64.816 10 -50.788
v 87.393 10 -22.6
v 85.227 10 -26.852
v 56.736 10 -40.912
v 55.79 10 -41.551
v 35.747 10 -25.575
v 35.4 10 -24.08
v 29.855 10 -4.846
v 22.319 10 -12.041
v 28.066 10 -26.495
v 28.134 10 -26.742
v 32.669 10 -39.184
v 20.129 10 -58.085
v 22.033 10 -57.697
v 36.558 10 -64.976
v 35.844 10 -82.596
v 35.515 10 -83.061
v 30.2 10 -90.009
v 33.819 10 -96.647
v 50.211 10 -86.186
v 53.83 10 -83.9
v 64.564 10 -50.263
v 71.629 10 -38.375
v 87.287 10 -23.139
v 85.34 10 -26.917
v 73.21 10 -29.33
v 56.551 10 -41.202
v 56.032 10 -41.609
v 35.61 10 -25.357
v 35.457 10 -24.659
v 29.846 10 -4.97
v 22.348 10 -11.876
v 28.129 10 -26.549
v 28.15 10 -26.61
v 32.943 10 -39.228
v 32.187 10 -48.007
v 20.33 10 -52.86
v 20.284 10 -57.931
v 21.775 10 -57.697
v 35.716 10 -82.866
v 30.55 10 -89.98
v 50.076 10 -86.077
v 64.524 10 -50.346
v 71.337 10 -38.381
v 87.114 10 -23.654
v 85.4 10 -26.94
v 56.387 10 -41.428
v 56.16 10 -41.63
v 35.52 10 -25.069
v 29.85 10 -5.02
v 22.352 10 -11.756
v 20.882 10 -52.244
v 32.354 10 -56.747
v 53.704 10 -83.819
v 64.575 10 -50.558
v 69.372 10 -39.804
v 50.668 10 -41.134
v 30.475 10 -5.34
v 21.444 10 -51.589
v 32.594 10 -56.705
v 31.74 10 -89.85
v 49.94 10 -85.96
v 53.574 10 -83.776
v 64.49 10 -50.46
v 69.532 10 -39.348
v 86.844 10 -24.254
v 61.513 10 -34.931
v 50.455 10 -41.181
v 30.287 10 -5.253
v 29.896 10 -5.052
v 33.123 10 -39.261
v 35.336 10 -48.357
v 21.964 10 -50.96
v 21.41 10 -57.73
v 38.368 10 -81.121
v 69.664 10 -39.021
v 86.45 10 -25.05
v 61.471 10 -35.336
v 50.286 10 -41.183
v 30.122 10 -5.173
v 29.99 10 -5.104
v 22.389 10 -50.421
v 86.199 10 -25.555
v 38.411 10 -80.919
v 85.964 10 -26.007
v 35.514 10 -48.308
v 38.428 10 -80.589
v 64.499 10 -50.413
v 85.756 10 -26.389
v 56.253 10 -41.575
v 37.523 10 -44.808
v 38.43 10 -80.1
v 85.586 10 -26.683
v 37.646 10 -44.997
v 20.521 10 -57.839
v 85.463 10 -26.873
v 38.524 10 -31.455
v 20.882 10 -57.78
v 49.729 10 -85.767
v 49.593 10 -85.612
v 39.061 10 -32.005
v 49.521 10 -85.467
v 70.95 10 -38.43
v 40.053 10 -32.879
v 35.704 10 -48.165
v 70.695 10 -38.467
v 41.636 10 -34.206
v 35.936 10 -47.899
v 49.507 10 -85.308
v 70.448 10 -38.523
v 43.95 10 -36.12
v 36.242 10 -47.48
v 49.543 10 -85.108
v 70.22 10 -38.595
v 45.467 10 -37.368
v 36.65 10 -46.88
v 49.62 10 -84.84
v 70.022 10 -38.677
v 46.858 10 -38.51
v 36.921 10 -46.457
v 69.865 10 -38.763
v 48.065 10 -39.498
v 37.169 10 -46.061
v 49.029 10 -40.284
v 37.38 10 -45.709
v 69.76 10 -38.85
v 49.69 10 -40.82
v 37.545 10 -45.419
v 34.543 10 -57.443
v 49.99 10 -41.06
v 37.652 10 -45.21
v 34.364 10 -57.299
v 50.138 10 -41.141
v 32.869 10 -56.726
v 34.157 10 -57.167
v 33.216 10 -56.809
v 33.925 10 -57.05
v 33.67 10 -56.95
v 37.69 10 -45.1
f 1 2 3
f 4 1 5
f 6 4 7
f 8 6 9
f 10 11 12
f 13 10 14
f 15 13 16
f 17 15 18
f 19 17 20
f 21 19 22
f 23 21 24
f 25 23 26
f 27 25 28
f 29 27 30
f 31 29 32
f 33 31 34
f 35 33 36
f 37 38 39
f 40 37 41
f 42 43 44
f 45 42 46
f 47 45 48
f 49 47 50
f 51 49 52
f 53 51 54
f 55 53 56
f 57 58 59
f 60 61 62
f 63 60 64
f 65 63 66
f 67 65 68
f 69 67 70
f 71 72 73
f 74 71 75
f 76 74 77
f 78 79 80
f 81 78 82
f 83 81 84
f 85 86 87
f 88 85 89
f 90 88 91
f 92 90 93
f 94 92 95
f 96 94 97
f 98 96 99
f 100 98 101
f 102 100 103
f 104 102 105
f 106 107 108
f 109 106 110
f 111 109 112
f 113 111 114
f 115 113 116
f 117 115 118
f 119 117 120
f 121 119 122
f 123 124 125
f 126 123 127
f 128 126 129
f 130 128 131
f 132 130 133
f 134 132 135
f 136 137 138
f 139 140 141
f 142 139 143
f 144 142 145
f 146 144 147
f 148 146 149
f 150 148 151
f 152 150 153
f 154 155 156
f 157 154 158
f 159 157 160
f 161 162 163
f 164 161 165
f 166 164 167
f 168 169 170
f 171 168 172
f 173 171 174
f 175 173 176
f 177 175 178
f 179 177 180
f 181 179 182
f 183 181 184
f 185 183 186
f 187 185 188
f 189 190 191
f 192 193 194
f 195 192 196
f 197 195 198
f 199 197 200
f 201 199 202
f 203 201 204
f 205 206 207
f 208 205 209
f 210 208 211
f 212 210 213
f 214 212 215
f 216 214 217
f 218 219 220
f 221 218 222
f 223 221 224
f 225 223 226
f 227 225 228
f 229 227 230
f 231 229 232
f 233 231 234
f 235 233 236
f 237 235 238
f 239 237 240
f 241 239 242
f 243 241 244
f 245 243 246
f 247 248 249
f 250 247 251
f 252 250 253
f 254 252 255
f 256 254 257
f 258 256 259
f 260 258 261
f 262 260 263
f 264 262 265
f 266 264 267
f 268 266 269
f 270 268 271
f 272 270 273
f 274 275 276
f 277 274 278
f 279 277 280
f 281 279 282
f 283 284 285
f 286 283 287
f 288 286 289
f 290 288 291
f 292 293 294
f 295 292 296
f 297 295 298
f 299 297 300
f 301 299 302
f 303 301 304
f 305 303 306
f 307 305 308
f 309 307 310
f 311 309 312
f 313 311 314
f 315 313 316
f 317 315 318
f 319 317 320
f 321 319 322
f 323 321 324
f 325 323 326
f 327 328 329
f 330 327 331
f 332 330 333
f 334 332 335
f 336 337 338
f 339 336 340
f 341 339 342
f 343 341 344
f 345 343 346
f 347 345 348
f 349 347 350
f 351 349 352
f 353 351 354
f 355 353 356
f 357 358 359
f 360 357 361
f 362 360 363
f 364 362 365
f 366 364 367
f 368 366 369
f 370 368 371
f 372 373 374
f 375 372 376
f 377 375 378
f 379 377 380
f 381 379 382
f 383 381 384
f 385 383 386
f 387 385 388
f 389 387 390
f 391 389 392
f 393 394 395
f 396 393 397
f 398 399 400
f 401 398 402
f 403 401 404
f 405 403 406
f 407 405 408
f 409 407 410
f 411 409 412
f 413 411 414
f 415 413 416
f 417 415 418
f 419 417 420
f 421 419 422
f 423 421 424
f 425 423 426
f 427 425 428
f 429 427 430
f 431 432 433
f 434 431 435
f 436 437 438
f 439 436 440
f 441 439 442
f 443 441 444
f 445 443 446
f 447 445 448
f 449 447 450
f 451 449 452
f 453 451 454
f 455 453 456
f 457 458 459
f 460 457 461
f 462 460 463
f 464 462 465
f 466 467 468
f 469 466 470
f 471 472 473
f 474 471 475
f 476 474 477
f 478 476 479
f 480 478 481
f 482 480 483
f 484 485 486
f 487 484 488
f 489 487 490
f 491 489 492
f 493 491 494
f 495 493 496
f 497 495 498
f 499 500 501
f 502 499 503
f 504 502 505
f 506 504 507
f 508 506 509
f 1 508 2
f 6 1 4
f 510 6 8
f 13 11 10
f 17 13 15
f 21 17 19
f 25 21 23
f 29 25 27
f 33 29 31
f 511 33 35
f 40 38 37
f 45 43 42
f 49 45 47
f 53 49 51
f 57 55 58
f 60 512 61
f 65 60 63
f 69 65 67
f 74 72 71
f 513 74 76
f 81 79 78
f 88 86 85
f 92 88 90
f 96 92 94
f 100 96 98
f 104 100 102
f 109 107 106
f 113 109 111
f 117 113 115
f 121 117 119
f 126 124 123
f 130 126 128
f 134 130 132
f 136 514 137
f 142 140 139
f 146 142 144
f 150 146 148
f 154 515 155
f 159 154 157
f 164 162 161
f 168 516 169
f 173 168 171
f 177 173 175
f 181 177 179
f 185 181 183
f 517 185 187
f 518 190 189
f 195 193 192
f 199 195 197
f 203 199 201
f 208 206 205
f 212 208 210
f 216 212 214
f 221 219 218
f 225 221 223
f 229 225 227
f 235 231 233
f 239 235 237
f 243 239 241
f 247 519 248
f 252 247 250
f 256 252 254
f 260 256 258
f 264 260 262
f 268 264 266
f 272 268 270
f 274 520 275
f 279 274 277
f 521 279 281
f 286 284 283
f 290 286 288
f 292 522 293
f 297 292 295
f 301 297 299
f 305 301 303
f 309 305 307
f 313 309 311
f 317 313 315
f 321 317 319
f 327 523 328
f 332 327 330
f 336 334 337
f 341 336 339
f 345 341 343
f 349 345 347
f 355 351 353
f 360 358 357
f 364 360 362
f 368 364 366
f 372 524 373
f 377 372 375
f 381 377 379
f 385 381 383
f 389 385 387
f 394 389 391
f 396 394 393
f 398 525 399
f 403 398 401
f 407 403 405
f 411 407 409
f 415 411 413
f 419 415 417
f 423 419 421
f 427 423 425
f 526 427 429
f 434 432 431
f 439 437 436
f 443 439 441
f 447 443 445
f 451 447 449
f 455 451 453
f 460 458 457
f 464 460 462
f 469 467 466
f 471 527 472
f 476 471 474
f 480 476 478
f 528 480 482
f 484 529 485
f 489 484 487
f 493 489 491
f 497 493 495
f 499 530 500
f 504 499 502
f 508 504 506
f 6 508 1
f 13 531 11
f 21 13 17
f 29 21 25
f 511 29 33
f 40 532 38
f 49 43 45
f 55 49 53
f 533 55 57
f 60 534 512
f 69 60 65
f 513 72 74
f 83 79 81
f 92 86 88
f 100 92 96
f 535 100 104
f 113 107 109
f 121 113 117
f 126 536 124
f 134 126 130
f 136 537 514
f 142 538 140
f 150 142 146
f 159 515 154
f 166 162 164
f 173 516 168
f 181 173 177
f 517 181 185
f 518 539 190
f 195 540 193
f 203 195 199
f 212 206 208
f 541 212 216
f 221 542 219
f 229 221 225
f 239 231 235
f 245 239 243
f 252 519 247
f 260 252 256
f 268 260 264
f 543 268 272
f 274 544 520
f 521 274 279
f 290 284 286
f 292 545 522
f 301 292 297
f 309 301 305
f 317 309 313
f 323 317 321
f 327 546 523
f 334 327 332
f 341 334 336
f 349 341 345
f 547 351 355
f 364 358 360
f 370 364 368
f 372 548 524
f 381 372 377
f 389 381 385
f 549 394 396
f 398 550 525
f 407 398 403
f 415 407 411
f 423 415 419
f 526 423 427
f 434 551 432
f 443 437 439
f 451 443 447
f 552 451 455
f 464 458 460
f 469 553 467
f 476 527 471
f 528 476 480
f 489 529 484
f 497 489 493
f 499 554 530
f 508 499 504
f 510 508 6
f 21 531 13
f 511 21 29
f 40 555 532
f 49 556 43
f 557 55 533
f 60 558 534
f 559 60 69
f 560 72 513
f 561 79 83
f 92 562 86
f 535 92 100
f 121 107 113
f 126 121 536
f 563 126 134
f 136 564 537
f 142 565 538
f 152 142 150
f 566 515 159
f 173 567 516
f 517 173 181
f 518 517 539
f 203 540 195
f 212 568 206
f 221 569 542
f 231 221 229
f 245 231 239
f 252 570 519
f 268 252 260
f 571 268 543
f 274 572 544
f 573 274 521
f 574 284 290
f 292 575 545
f 309 292 301
f 323 309 317
f 327 576 546
f 349 334 341
f 577 351 547
f 364 578 358
f 579 364 370
f 372 580 548
f 389 372 381
f 581 394 549
f 398 582 550
f 415 398 407
f 526 415 423
f 434 583 551
f 451 437 443
f 584 451 552
f 464 585 458
f 469 586 553
f 528 527 476
f 497 529 489
f 508 554 499
f 587 508 510
f 21 588 531
f 589 21 511
f 55 556 49
f 590 55 557
f 60 591 558
f 592 60 559
f 593 72 560
f 92 594 562
f 595 92 535
f 126 107 121
f 564 126 563
f 596 564 136
f 152 565 142
f 173 597 567
f 518 173 517
f 203 598 540
f 541 568 212
f 221 599 569
f 600 231 245
f 268 570 252
f 274 571 572
f 601 274 573
f 602 284 574
f 292 603 575
f 323 292 309
f 334 576 327
f 351 334 349
f 604 351 577
f 579 578 364
f 389 580 372
f 582 394 581
f 415 582 398
f 605 415 526
f 434 606 583
f 584 437 451
f 607 585 464
f 469 608 586
f 609 527 528
f 497 610 529
f 508 611 554
f 588 508 587
f 589 588 21
f 55 612 556
f 613 55 590
f 60 614 591
f 615 60 592
f 595 594 92
f 564 107 126
f 616 564 596
f 152 617 565
f 173 618 597
f 619 598 203
f 541 620 568
f 221 621 599
f 622 231 600
f 268 622 570
f 274 268 571
f 623 274 601
f 292 624 603
f 325 292 323
f 334 325 576
f 604 334 351
f 579 625 578
f 389 626 580
f 415 394 582
f 627 415 605
f 434 628 606
f 584 629 437
f 630 585 607
f 469 631 608
f 632 527 609
f 497 633 610
f 508 634 611
f 589 508 588
f 55 635 612
f 636 55 613
f 60 637 614
f 638 60 615
f 595 639 594
f 564 640 107
f 641 564 616
f 152 642 617
f 518 618 173
f 643 598 619
f 541 643 620
f 221 644 621
f 622 221 231
f 274 622 268
f 645 274 623
f 325 624 292
f 604 325 334
f 579 646 625
f 389 647 626
f 415 389 394
f 648 415 627
f 434 649 628
f 584 434 629
f 650 585 630
f 469 651 631
f 497 652 633
f 508 653 634
f 555 508 589
f 55 654 635
f 638 637 60
f 595 561 639
f 564 655 640
f 656 642 152
f 518 166 618
f 541 598 643
f 622 644 221
f 645 622 274
f 325 657 624
f 658 325 604
f 659 646 579
f 648 389 415
f 584 649 434
f 660 651 469
f 661 652 497
f 555 653 508
f 55 40 654
f 638 636 637
f 595 79 561
f 564 662 655
f 663 642 656
f 518 162 166
f 664 598 541
f 622 664 644
f 665 622 645
f 325 666 657
f 667 325 658
f 668 646 659
f 669 389 648
f 670 649 584
f 671 651 660
f 672 652 661
f 555 673 653
f 636 40 55
f 674 636 638
f 595 675 79
f 564 676 662
f 663 677 642
f 518 566 162
f 664 678 598
f 665 664 622
f 325 602 666
f 679 646 668
f 680 389 669
f 681 649 670
f 682 651 671
f 683 652 672
f 555 684 673
f 674 40 636
f 685 675 595
f 564 685 676
f 665 678 664
f 325 284 602
f 686 389 680
f 585 649 681
f 684 652 683
f 40 684 555
f 72 40 674
f 564 675 685
f 665 687 678
f 667 284 325
f 688 389 686
f 650 649 585
f 40 652 684
f 593 40 72
f 564 689 675
f 665 690 687
f 691 284 667
f 692 389 688
f 693 649 650
f 40 632 652
f 694 40 593
f 641 689 564
f 665 695 690
f 646 284 691
f 696 389 692
f 651 649 693
f 40 527 632
f 697 40 694
f 698 689 641
f 665 518 695
f 699 389 696
f 40 700 527
f 701 689 698
f 702 518 665
f 649 389 699
f 697 700 40
f 677 689 701
f 703 518 702
f 649 647 389
f 697 704 700
f 663 689 677
f 705 518 703
f 649 706 647
f 697 707 704
f 663 708 689
f 705 566 518
f 649 709 706
f 697 710 707
f 663 711 708
f 712 566 705
f 649 713 709
f 697 714 710
f 663 715 711
f 716 566 712
f 649 717 713
f 697 718 714
f 663 719 715
f 720 566 716
f 649 721 717
f 697 722 718
f 663 723 719
f 284 566 720
f 649 724 721
f 697 725 722
f 663 726 723
f 646 566 284
f 651 724 649
f 697 727 725
f 663 728 726
f 646 515 566
f 651 729 724
f 697 730 727
f 663 731 728
f 646 732 515
f 651 679 729
f 697 733 730
f 663 734 731
f 646 735 732
f 651 646 679
f 697 736 733
f 737 734 663
f 646 738 735
f 682 646 651
f 697 682 736
f 739 734 737
f 646 740 738
f 697 646 682
f 741 734 739
f 646 741 740
f 742 646 697
f 741 742 734
f 742 741 646
f 743 744 745
f 744 746 747
f 746 748 749
f 748 750 751
f 752 753 754
f 753 755 756
f 755 757 758
f 757 759 760
f 759 761 762
f 761 763 764
f 763 765 766
f 765 767 768
f 767 769 770
f 769 771 772
f 771 773 774
f 773 775 776
f 775 777 778
f 779 780 781
f 780 782 783
f 784 785 786
f 785 787 788
f 787 789 790
f 789 791 792
f 791 793 794
f 793 795 796
f 795 797 798
f 799 800 801
f 802 803 804
f 803 805 806
f 805 807 808
f 807 809 810
f 809 811 812
f 813 814 815
f 814 816 817
f 816 818 819
f 820 821 822
f 821 823 824
f 823 825 826
f 827 828 829
f 828 830 831
f 830 832 833
f 832 834 835
f 834 836 837
f 836 838 839
f 838 840 841
f 840 842 843
f 842 844 845
f 844 846 847
f 848 849 850
f 849 851 852
f 851 853 854
f 853 855 856
f 855 857 858
f 857 859 860
f 859 861 862
f 861 863 864
f 865 866 867
f 866 868 869
f 868 870 871
f 870 872 873
f 872 874 875
f 874 876 877
f 878 879 880
f 881 882 883
f 882 884 885
f 884 886 887
f 886 888 889
f 888 890 891
f 890 892 893
f 892 894 895
f 896 897 898
f 897 899 900
f 899 901 902
f 903 904 905
f 904 906 907
f 906 908 909
f 910 911 912
f 911 913 914
f 913 915 916
f 915 917 918
f 917 919 920
f 919 921 922
f 921 923 924
f 923 925 926
f 925 927 928
f 927 929 930
f 931 932 933
f 934 935 936
f 935 937 938
f 937 939 940
f 939 941 942
f 941 943 944
f 943 945 946
f 947 948 949
f 948 950 951
f 950 952 953
f 952 954 955
f 954 956 957
f 956 958 959
f 960 961 962
f 961 963 964
f 963 965 966
f 965 967 968
f 967 969 970
f 969 971 972
f 971 973 974
f 973 975 976
f 975 977 978
f 977 979 980
f 979 981 982
f 981 983 984
f 983 985 986
f 985 987 988
f 989 990 991
f 990 992 993
f 992 994 995
f 994 996 997
f 996 998 999
f 998 1000 1001
f 1000 1002 1003
f 1002 1004 1005
f 1004 1006 1007
f 1006 1008 1009
f 1008 1010 1011
f 1010 1012 1013
f 1012 1014 1015
f 1016 1017 1018
f 1017 1019 1020
f 1019 1021 1022
f 1021 1023 1024
f 1025 1026 1027
f 1026 1028 1029
f 1028 1030 1031
f 1030 1032 1033
f 1034 1035 1036
f 1035 1037 1038
f 1037 1039 1040
f 1039 1041 1042
f 1041 1043 1044
f 1043 1045 1046
f 1045 1047 1048
f 1047 1049 1050
f 1049 1051 1052
f 1051 1053 1054
f 1053 1055 1056
f 1055 1057 1058
f 1057 1059 1060
f 1059 1061 1062
f 1061 1063 1064
f 1063 1065 1066
f 1065 1067 1068
f 1069 1070 1071
f 1070 1072 1073
f 1072 1074 1075
f 1074 1076 1077
f 1078 1079 1080
f 1079 1081 1082
f 1081 1083 1084
f 1083 1085 1086
f 1085 1087 1088
f 1087 1089 1090
f 1089 1091 1092
f 1091 1093 1094
f 1093 1095 1096
f 1095 1097 1098
f 1099 1100 1101
f 1100 1102 1103
f 1102 1104 1105
f 1104 1106 1107
f 1106 1108 1109
f 1108 1110 1111
f 1110 1112 1113
f 1114 1115 1116
f 1115 1117 1118
f 1117 1119 1120
f 1119 1121 1122
f 1121 1123 1124
f 1123 1125 1126
f 1125 1127 1128
f 1127 1129 1130
f 1129 1131 1132
f 1131 1133 1134
f 1135 1136 1137
f 1136 1138 1139
f 1140 1141 1142
f 1141 1143 1144
f 1143 1145 1146
f 1145 1147 1148
f 1147 1149 1150
f 1149 1151 1152
f 1151 1153 1154
f 1153 1155 1156
f 1155 1157 1158
f 1157 1159 1160
f 1159 1161 1162
f 1161 1163 1164
f 1163 1165 1166
f 1165 1167 1168
f 1167 1169 1170
f 1169 1171 1172
f 1173 1174 1175
f 1174 1176 1177
f 1178 1179 1180
f 1179 1181 1182
f 1181 1183 1184
f 1183 1185 1186
f 1185 1187 1188
f 1187 1189 1190
f 1189 1191 1192
f 1191 1193 1194
f 1193 1195 1196
f 1195 1197 1198
f 1199 1200 1201
f 1200 1202 1203
f 1202 1204 1205
f 1204 1206 1207
f 1208 1209 1210
f 1209 1211 1212
f 1213 1214 1215
f 1214 1216 1217
f 1216 1218 1219
f 1218 1220 1221
f 1220 1222 1223
f 1222 1224 1225
f 1226 1227 1228
f 1227 1229 1230
f 1229 1231 1232
f 1231 1233 1234
f 1233 1235 1236
f 1235 1237 1238
f 1237 1239 1240
f 1241 1242 1243
f 1242 1244 1245
f 1244 1246 1247
f 1246 1248 1249
f 1248 1250 1251
f 1250 744 743
f 744 748 746
f 748 1252 750
f 752 755 753
f 755 759 757
f 759 763 761
f 763 767 765
f 767 771 769
f 771 775 773
f 775 1253 777
f 779 782 780
f 784 787 785
f 787 791 789
f 791 795 793
f 797 800 799
f 1254 803 802
f 803 807 805
f 807 811 809
f 813 816 814
f 816 1255 818
f 820 823 821
f 827 830 828
f 830 834 832
f 834 838 836
f 838 842 840
f 842 846 844
f 848 851 849
f 851 855 853
f 855 859 857
f 859 863 861
f 865 868 866
f 868 872 870
f 872 876 874
f 1256 879 878
f 881 884 882
f 884 888 886
f 888 892 890
f 1257 897 896
f 897 901 899
f 903 906 904
f 1258 911 910
f 911 915 913
f 915 919 917
f 919 923 921
f 923 927 925
f 927 1259 929
f 931 1260 932
f 934 937 935
f 937 941 939
f 941 945 943
f 947 950 948
f 950 954 952
f 954 958 956
f 960 963 961
f 963 967 965
f 967 971 969
f 973 977 975
f 977 981 979
f 981 985 983
f 1261 990 989
f 990 994 992
f 994 998 996
f 998 1002 1000
f 1002 1006 1004
f 1006 1010 1008
f 1010 1014 1012
f 1262 1017 1016
f 1017 1021 1019
f 1021 1263 1023
f 1025 1028 1026
f 1028 1032 1030
f 1264 1035 1034
f 1035 1039 1037
f 1039 1043 1041
f 1043 1047 1045
f 1047 1051 1049
f 1051 1055 1053
f 1055 1059 1057
f 1059 1063 1061
f 1265 1070 1069
f 1070 1074 1072
f 1076 1079 1078
f 1079 1083 1081
f 1083 1087 1085
f 1087 1091 1089
f 1093 1097 1095
f 1099 1102 1100
f 1102 1106 1104
f 1106 1110 1108
f 1266 1115 1114
f 1115 1119 1117
f 1119 1123 1121
f 1123 1127 1125
f 1127 1131 1129
f 1131 1135 1133
f 1135 1138 1136
f 1267 1141 1140
f 1141 1145 1143
f 1145 1149 1147
f 1149 1153 1151
f 1153 1157 1155
f 1157 1161 1159
f 1161 1165 1163
f 1165 1169 1167
f 1169 1268 1171
f 1173 1176 1174
f 1178 1181 1179
f 1181 1185 1183
f 1185 1189 1187
f 1189 1193 1191
f 1193 1197 1195
f 1199 1202 1200
f 1202 1206 1204
f 1208 1211 1209
f 1269 1214 1213
f 1214 1218 1216
f 1218 1222 1220
f 1222 1270 1224
f 1271 1227 1226
f 1227 1231 1229
f 1231 1235 1233
f 1235 1239 1237
f 1272 1242 1241
f 1242 1246 1244
f 1246 1250 1248
f 1250 748 744
f 1273 755 752
f 755 763 759
f 763 771 767
f 771 1253 775
f 1274 782 779
f 784 791 787
f 791 797 795
f 797 1275 800
f 1276 803 1254
f 803 811 807
f 813 1255 816
f 820 825 823
f 827 834 830
f 834 842 838
f 842 1277 846
f 848 855 851
f 855 863 859
f 1278 868 865
f 868 876 872
f 1279 879 1256
f 1280 884 881
f 884 892 888
f 1257 901 897
f 903 908 906
f 1258 915 911
f 915 923 919
f 923 1259 927
f 1281 1260 931
f 1282 937 934
f 937 945 941
f 947 954 950
f 954 1283 958
f 1284 963 960
f 963 971 967
f 973 981 977
f 981 987 985
f 1261 994 990
f 994 1002 998
f 1002 1010 1006
f 1010 1285 1014
f 1286 1017 1262
f 1017 1263 1021
f 1025 1032 1028
f 1287 1035 1264
f 1035 1043 1039
f 1043 1051 1047
f 1051 1059 1055
f 1059 1065 1063
f 1288 1070 1265
f 1070 1076 1074
f 1076 1083 1079
f 1083 1091 1087
f 1093 1289 1097
f 1099 1106 1102
f 1106 1112 1110
f 1290 1115 1266
f 1115 1123 1119
f 1123 1131 1127
f 1135 1291 1138
f 1292 1141 1267
f 1141 1149 1145
f 1149 1157 1153
f 1157 1165 1161
f 1165 1268 1169
f 1293 1176 1173
f 1178 1185 1181
f 1185 1193 1189
f 1193 1294 1197
f 1199 1206 1202
f 1295 1211 1208
f 1269 1218 1214
f 1218 1270 1222
f 1271 1231 1227
f 1231 1239 1235
f 1296 1242 1272
f 1242 1250 1246
f 1250 1252 748
f 1273 763 755
f 763 1253 771
f 1297 782 1274
f 1298 791 784
f 797 1299 1275
f 1300 803 1276
f 803 1301 811
f 813 1302 1255
f 820 1303 825
f 1304 834 827
f 834 1277 842
f 848 863 855
f 863 868 1278
f 868 1305 876
f 1306 879 1279
f 1307 884 1280
f 884 894 892
f 1257 1308 901
f 1309 915 1258
f 915 1259 923
f 1259 1260 1281
f 1282 945 937
f 1310 954 947
f 1311 963 1284
f 963 973 971
f 973 987 981
f 1312 994 1261
f 994 1010 1002
f 1010 1313 1285
f 1314 1017 1286
f 1017 1315 1263
f 1025 1316 1032
f 1317 1035 1287
f 1035 1051 1043
f 1051 1065 1059
f 1318 1070 1288
f 1076 1091 1083
f 1093 1319 1289
f 1320 1106 1099
f 1106 1321 1112
f 1322 1115 1290
f 1115 1131 1123
f 1135 1323 1291
f 1324 1141 1292
f 1141 1157 1149
f 1157 1268 1165
f 1325 1176 1293
f 1178 1193 1185
f 1193 1326 1294
f 1327 1206 1199
f 1328 1211 1295
f 1269 1270 1218
f 1271 1239 1231
f 1296 1250 1242
f 1250 1329 1252
f 1330 763 1273
f 763 1331 1253
f 1298 797 791
f 797 1332 1299
f 1333 803 1300
f 803 1334 1301
f 813 1335 1302
f 1336 834 1304
f 834 1337 1277
f 848 868 863
f 868 1306 1305
f 1306 1338 879
f 1307 894 884
f 1339 915 1309
f 915 1260 1259
f 1340 945 1282
f 1310 1283 954
f 1341 963 1311
f 973 1342 987
f 1312 1010 994
f 1313 1017 1314
f 1017 1343 1315
f 1025 1344 1316
f 1345 1035 1317
f 1035 1065 1051
f 1318 1076 1070
f 1076 1093 1091
f 1093 1346 1319
f 1320 1321 1106
f 1322 1131 1115
f 1135 1324 1323
f 1324 1157 1141
f 1157 1347 1268
f 1348 1176 1325
f 1178 1326 1193
f 1327 1349 1206
f 1350 1211 1328
f 1269 1351 1270
f 1352 1239 1271
f 1353 1250 1296
f 1250 1330 1329
f 1330 1331 763
f 1354 797 1298
f 797 1355 1332
f 1356 803 1333
f 803 1357 1334
f 1336 1337 834
f 848 1306 868
f 1306 1358 1338
f 1359 894 1307
f 1360 915 1339
f 1340 1361 945
f 1362 1283 1310
f 1363 963 1341
f 973 1364 1342
f 1364 1010 1312
f 1010 1017 1313
f 1017 1365 1343
f 1366 1035 1345
f 1035 1067 1065
f 1067 1076 1318
f 1076 1346 1093
f 1367 1321 1320
f 1368 1131 1322
f 1135 1157 1324
f 1157 1369 1347
f 1370 1176 1348
f 1371 1326 1178
f 1327 1372 1349
f 1373 1211 1350
f 1269 1374 1351
f 1375 1239 1352
f 1376 1250 1353
f 1250 1331 1330
f 1377 797 1354
f 797 1378 1355
f 1379 803 1356
f 803 1380 1357
f 1381 1337 1336
f 1382 1306 848
f 1306 1383 1358
f 1384 894 1359
f 1360 1260 915
f 1340 1385 1361
f 1385 1283 1362
f 1386 963 1363
f 963 1364 973
f 1364 1017 1010
f 1017 1387 1365
f 1366 1067 1035
f 1067 1346 1076
f 1388 1321 1367
f 1389 1131 1368
f 1131 1157 1135
f 1157 1390 1369
f 1391 1176 1370
f 1176 1326 1371
f 1327 1392 1372
f 1393 1211 1373
f 1394 1239 1375
f 1395 1250 1376
f 1250 1297 1331
f 1396 797 1377
f 1379 1380 803
f 1303 1337 1381
f 1397 1306 1382
f 1384 1398 894
f 908 1260 1360
f 1340 1283 1385
f 1386 1364 963
f 1364 1387 1017
f 1399 1067 1366
f 1067 1400 1346
f 1388 1401 1321
f 1131 1390 1157
f 1391 1326 1176
f 1393 1402 1211
f 1394 1403 1239
f 1395 1297 1250
f 782 797 1396
f 1378 1380 1379
f 820 1337 1303
f 1404 1306 1397
f 1384 1405 1398
f 903 1260 908
f 1340 1406 1283
f 1406 1364 1386
f 1364 1407 1387
f 1408 1067 1399
f 1067 1409 1400
f 1388 1410 1401
f 1131 1411 1390
f 1391 1412 1326
f 1393 1413 1402
f 1394 1414 1403
f 1415 1297 1395
f 782 1378 797
f 1378 1416 1380
f 1417 1337 820
f 1418 1306 1404
f 1419 1405 1384
f 1308 1260 903
f 1420 1406 1340
f 1406 1407 1364
f 1344 1067 1408
f 1388 1421 1410
f 1131 1422 1411
f 1391 1423 1412
f 1393 1424 1413
f 1394 1425 1414
f 1426 1297 1415
f 782 1416 1378
f 1417 1427 1337
f 1427 1306 1418
f 1420 1407 1406
f 1025 1067 1344
f 1131 1428 1422
f 1391 1327 1423
f 1394 1426 1425
f 1426 782 1297
f 782 813 1416
f 1417 1306 1427
f 1429 1407 1420
f 1025 1409 1067
f 1131 1430 1428
f 1391 1392 1327
f 1394 782 1426
f 782 1335 813
f 1431 1306 1417
f 1432 1407 1429
f 1025 1433 1409
f 1131 1434 1430
f 1391 1435 1392
f 1374 782 1394
f 782 1436 1335
f 1431 1383 1306
f 1437 1407 1432
f 1025 1388 1433
f 1131 1438 1434
f 1391 1393 1435
f 1269 782 1374
f 782 1439 1436
f 1431 1440 1383
f 1260 1407 1437
f 1131 1441 1438
f 1442 782 1269
f 1431 1443 1440
f 1260 1444 1407
f 1131 1391 1441
f 1442 1439 782
f 1431 1419 1443
f 1260 1445 1444
f 1389 1391 1131
f 1446 1439 1442
f 1431 1405 1419
f 1260 1447 1445
f 1448 1391 1389
f 1449 1439 1446
f 1450 1405 1431
f 1308 1447 1260
f 1451 1391 1448
f 1452 1439 1449
f 1453 1405 1450
f 1308 1454 1447
f 1455 1391 1451
f 1456 1439 1452
f 1457 1405 1453
f 1308 1458 1454
f 1459 1391 1455
f 1460 1439 1456
f 1461 1405 1457
f 1308 1462 1458
f 1463 1391 1459
f 1464 1439 1460
f 1465 1405 1461
f 1308 1025 1462
f 1466 1391 1463
f 1467 1439 1464
f 1468 1405 1465
f 1308 1388 1025
f 1466 1393 1391
f 1469 1439 1467
f 1470 1405 1468
f 1257 1388 1308
f 1471 1393 1466
f 1472 1439 1469
f 1473 1405 1470
f 1474 1388 1257
f 1421 1393 1471
f 1475 1439 1472
f 1476 1405 1473
f 1477 1388 1474
f 1388 1393 1421
f 1478 1439 1475
f 1476 1479 1405
f 1480 1388 1477
f 1388 1424 1393
f 1424 1439 1478
f 1476 1481 1479
f 1482 1388 1480
f 1388 1439 1424
f 1476 1483 1481
f 1483 1388 1482
f 1388 1484 1439
f 1484 1483 1476
f 1483 1484 1388
f 1 744 5
f 5 744 747
f 5 747 4
f 4 747 746
f 4 746 7
f 7 746 749
f 7 749 6
f 6 749 748
f 6 748 9
f 9 748 751
f 9 751 8
f 8 751 750
f 8 750 510
f 510 750 1252
f 510 1252 587
f 587 1252 1329
f 587 1329 588
f 588 1329 1330
f 588 1330 531
f 531 1330 1273
f 531 1273 11
f 11 1273 752
f 11 752 12
f 12 752 754
f 12 754 10
f 10 754 753
f 10 753 14
f 14 753 756
f 14 756 13
f 13 756 755
f 13 755 16
f 16 755 758
f 16 758 15
f 15 758 757
f 15 757 18
f 18 757 760
f 18 760 17
f 17 760 759
f 17 759 20
f 20 759 762
f 20 762 19
f 19 762 761
f 19 761 22
f 22 761 764
f 22 764 21
f 21 764 763
f 21 763 24
f 24 763 766
f 24 766 23
f 23 766 765
f 23 765 26
f 26 765 768
f 26 768 25
f 25 768 767
f 25 767 28
f 28 767 770
f 28 770 27
f 27 770 769
f 27 769 30
f 30 769 772
f 30 772 29
f 29 772 771
f 29 771 32
f 32 771 774
f 32 774 31
f 31 774 773
f 31 773 34
f 34 773 776
f 34 776 33
f 33 776 775
f 33 775 36
f 36 775 778
f 36 778 35
f 35 778 777
f 35 777 511
f 511 777 1253
f 511 1253 589
f 589 1253 1331
f 589 1331 555
f 555 1331 1297
f 555 1297 532
f 532 1297 1274
f 532 1274 38
f 38 1274 779
f 38 779 39
f 39 779 781
f 39 781 37
f 37 781 780
f 37 780 41
f 41 780 783
f 41 783 40
f 40 783 782
f 40 782 654
f 654 782 1396
f 654 1396 635
f 635 1396 1377
f 635 1377 612
f 612 1377 1354
f 612 1354 556
f 556 1354 1298
f 556 1298 43
f 43 1298 784
f 43 784 44
f 44 784 786
f 44 786 42
f 42 786 785
f 42 785 46
f 46 785 788
f 46 788 45
f 45 788 787
f 45 787 48
f 48 787 790
f 48 790 47
f 47 790 789
f 47 789 50
f 50 789 792
f 50 792 49
f 49 792 791
f 49 791 52
f 52 791 794
f 52 794 51
f 51 794 793
f 51 793 54
f 54 793 796
f 54 796 53
f 53 796 795
f 53 795 56
f 56 795 798
f 56 798 55
f 55 798 797
f 55 797 58
f 58 797 799
f 58 799 59
f 59 799 801
f 59 801 57
f 57 801 800
f 57 800 533
f 533 800 1275
f 533 1275 557
f 557 1275 1299
f 557 1299 590
f 590 1299 1332
f 590 1332 613
f 613 1332 1355
f 613 1355 636
f 636 1355 1378
f 636 1378 637
f 637 1378 1379
f 637 1379 614
f 614 1379 1356
f 614 1356 591
f 591 1356 1333
f 591 1333 558
f 558 1333 1300
f 558 1300 534
f 534 1300 1276
f 534 1276 512
f 512 1276 1254
f 512 1254 61
f 61 1254 802
f 61 802 62
f 62 802 804
f 62 804 60
f 60 804 803
f 60 803 64
f 64 803 806
f 64 806 63
f 63 806 805
f 63 805 66
f 66 805 808
f 66 808 65
f 65 808 807
f 65 807 68
f 68 807 810
f 68 810 67
f 67 810 809
f 67 809 70
f 70 809 812
f 70 812 69
f 69 812 811
f 69 811 559
f 559 811 1301
f 559 1301 592
f 592 1301 1334
f 592 1334 615
f 615 1334 1357
f 615 1357 638
f 638 1357 1380
f 638 1380 674
f 674 1380 1416
f 674 1416 72
f 72 1416 813
f 72 813 73
f 73 813 815
f 73 815 71
f 71 815 814
f 71 814 75
f 75 814 817
f 75 817 74
f 74 817 816
f 74 816 77
f 77 816 819
f 77 819 76
f 76 819 818
f 76 818 513
f 513 818 1255
f 513 1255 560
f 560 1255 1302
f 560 1302 593
f 593 1302 1335
f 593 1335 694
f 694 1335 1436
f 694 1436 697
f 697 1436 1439
f 697 1439 742
f 742 1439 1484
f 742 1484 734
f 734 1484 1476
f 734 1476 731
f 731 1476 1473
f 731 1473 728
f 728 1473 1470
f 728 1470 726
f 726 1470 1468
f 726 1468 723
f 723 1468 1465
f 723 1465 719
f 719 1465 1461
f 719 1461 715
f 715 1461 1457
f 715 1457 711
f 711 1457 1453
f 711 1453 708
f 708 1453 1450
f 708 1450 689
f 689 1450 1431
f 689 1431 675
f 675 1431 1417
f 675 1417 79
f 79 1417 820
f 79 820 80
f 80 820 822
f 80 822 78
f 78 822 821
f 78 821 82
f 82 821 824
f 82 824 81
f 81 824 823
f 81 823 84
f 84 823 826
f 84 826 83
f 83 826 825
f 83 825 561
f 561 825 1303
f 561 1303 639
f 639 1303 1381
f 639 1381 594
f 594 1381 1336
f 594 1336 562
f 562 1336 1304
f 562 1304 86
f 86 1304 827
f 86 827 87
f 87 827 829
f 87 829 85
f 85 829 828
f 85 828 89
f 89 828 831
f 89 831 88
f 88 831 830
f 88 830 91
f 91 830 833
f 91 833 90
f 90 833 832
f 90 832 93
f 93 832 835
f 93 835 92
f 92 835 834
f 92 834 95
f 95 834 837
f 95 837 94
f 94 837 836
f 94 836 97
f 97 836 839
f 97 839 96
f 96 839 838
f 96 838 99
f 99 838 841
f 99 841 98
f 98 841 840
f 98 840 101
f 101 840 843
f 101 843 100
f 100 843 842
f 100 842 103
f 103 842 845
f 103 845 102
f 102 845 844
f 102 844 105
f 105 844 847
f 105 847 104
f 104 847 846
f 104 846 535
f 535 846 1277
f 535 1277 595
f 595 1277 1337
f 595 1337 685
f 685 1337 1427
f 685 1427 676
f 676 1427 1418
f 676 1418 662
f 662 1418 1404
f 662 1404 655
f 655 1404 1397
f 655 1397 640
f 640 1397 1382
f 640 1382 107
f 107 1382 848
f 107 848 108
f 108 848 850
f 108 850 106
f 106 850 849
f 106 849 110
f 110 849 852
f 110 852 109
f 109 852 851
f 109 851 112
f 112 851 854
f 112 854 111
f 111 854 853
f 111 853 114
f 114 853 856
f 114 856 113
f 113 856 855
f 113 855 116
f 116 855 858
f 116 858 115
f 115 858 857
f 115 857 118
f 118 857 860
f 118 860 117
f 117 860 859
f 117 859 120
f 120 859 862
f 120 862 119
f 119 862 861
f 119 861 122
f 122 861 864
f 122 864 121
f 121 864 863
f 121 863 536
f 536 863 1278
f 536 1278 124
f 124 1278 865
f 124 865 125
f 125 865 867
f 125 867 123
f 123 867 866
f 123 866 127
f 127 866 869
f 127 869 126
f 126 869 868
f 126 868 129
f 129 868 871
f 129 871 128
f 128 871 870
f 128 870 131
f 131 870 873
f 131 873 130
f 130 873 872
f 130 872 133
f 133 872 875
f 133 875 132
f 132 875 874
f 132 874 135
f 135 874 877
f 135 877 134
f 134 877 876
f 134 876 563
f 563 876 1305
f 563 1305 564
f 564 1305 1306
f 564 1306 537
f 537 1306 1279
f 537 1279 514
f 514 1279 1256
f 514 1256 137
f 137 1256 878
f 137 878 138
f 138 878 880
f 138 880 136
f 136 880 879
f 136 879 596
f 596 879 1338
f 596 1338 616
f 616 1338 1358
f 616 1358 641
f 641 1358 1383
f 641 1383 698
f 698 1383 1440
f 698 1440 701
f 701 1440 1443
f 701 1443 677
f 677 1443 1419
f 677 1419 642
f 642 1419 1384
f 642 1384 617
f 617 1384 1359
f 617 1359 565
f 565 1359 1307
f 565 1307 538
f 538 1307 1280
f 538 1280 140
f 140 1280 881
f 140 881 141
f 141 881 883
f 141 883 139
f 139 883 882
f 139 882 143
f 143 882 885
f 143 885 142
f 142 885 884
f 142 884 145
f 145 884 887
f 145 887 144
f 144 887 886
f 144 886 147
f 147 886 889
f 147 889 146
f 146 889 888
f 146 888 149
f 149 888 891
f 149 891 148
f 148 891 890
f 148 890 151
f 151 890 893
f 151 893 150
f 150 893 892
f 150 892 153
f 153 892 895
f 153 895 152
f 152 895 894
f 152 894 656
f 656 894 1398
f 656 1398 663
f 663 1398 1405
f 663 1405 737
f 737 1405 1479
f 737 1479 739
f 739 1479 1481
f 739 1481 741
f 741 1481 1483
f 741 1483 740
f 740 1483 1482
f 740 1482 738
f 738 1482 1480
f 738 1480 735
f 735 1480 1477
f 735 1477 732
f 732 1477 1474
f 732 1474 515
f 515 1474 1257
f 515 1257 155
f 155 1257 896
f 155 896 156
f 156 896 898
f 156 898 154
f 154 898 897
f 154 897 158
f 158 897 900
f 158 900 157
f 157 900 899
f 157 899 160
f 160 899 902
f 160 902 159
f 159 902 901
f 159 901 566
f 566 901 1308
f 566 1308 162
f 162 1308 903
f 162 903 163
f 163 903 905
f 163 905 161
f 161 905 904
f 161 904 165
f 165 904 907
f 165 907 164
f 164 907 906
f 164 906 167
f 167 906 909
f 167 909 166
f 166 909 908
f 166 908 618
f 618 908 1360
f 618 1360 597
f 597 1360 1339
f 597 1339 567
f 567 1339 1309
f 567 1309 516
f 516 1309 1258
f 516 1258 169
f 169 1258 910
f 169 910 170
f 170 910 912
f 170 912 168
f 168 912 911
f 168 911 172
f 172 911 914
f 172 914 171
f 171 914 913
f 171 913 174
f 174 913 916
f 174 916 173
f 173 916 915
f 173 915 176
f 176 915 918
f 176 918 175
f 175 918 917
f 175 917 178
f 178 917 920
f 178 920 177
f 177 920 919
f 177 919 180
f 180 919 922
f 180 922 179
f 179 922 921
f 179 921 182
f 182 921 924
f 182 924 181
f 181 924 923
f 181 923 184
f 184 923 926
f 184 926 183
f 183 926 925
f 183 925 186
f 186 925 928
f 186 928 185
f 185 928 927
f 185 927 188
f 188 927 930
f 188 930 187
f 187 930 929
f 187 929 517
f 517 929 1259
f 517 1259 539
f 539 1259 1281
f 539 1281 190
f 190 1281 931
f 190 931 191
f 191 931 933
f 191 933 189
f 189 933 932
f 189 932 518
f 518 932 1260
f 518 1260 695
f 695 1260 1437
f 695 1437 690
f 690 1437 1432
f 690 1432 687
f 687 1432 1429
f 687 1429 678
f 678 1429 1420
f 678 1420 598
f 598 1420 1340
f 598 1340 540
f 540 1340 1282
f 540 1282 193
f 193 1282 934
f 193 934 194
f 194 934 936
f 194 936 192
f 192 936 935
f 192 935 196
f 196 935 938
f 196 938 195
f 195 938 937
f 195 937 198
f 198 937 940
f 198 940 197
f 197 940 939
f 197 939 200
f 200 939 942
f 200 942 199
f 199 942 941
f 199 941 202
f 202 941 944
f 202 944 201
f 201 944 943
f 201 943 204
f 204 943 946
f 204 946 203
f 203 946 945
f 203 945 619
f 619 945 1361
f 619 1361 643
f 643 1361 1385
f 643 1385 620
f 620 1385 1362
f 620 1362 568
f 568 1362 1310
f 568 1310 206
f 206 1310 947
f 206 947 207
f 207 947 949
f 207 949 205
f 205 949 948
f 205 948 209
f 209 948 951
f 209 951 208
f 208 951 950
f 208 950 211
f 211 950 953
f 211 953 210
f 210 953 952
f 210 952 213
f 213 952 955
f 213 955 212
f 212 955 954
f 212 954 215
f 215 954 957
f 215 957 214
f 214 957 956
f 214 956 217
f 217 956 959
f 217 959 216
f 216 959 958
f 216 958 541
f 541 958 1283
f 541 1283 664
f 664 1283 1406
f 664 1406 644
f 644 1406 1386
f 644 1386 621
f 621 1386 1363
f 621 1363 599
f 599 1363 1341
f 599 1341 569
f 569 1341 1311
f 569 1311 542
f 542 1311 1284
f 542 1284 219
f 219 1284 960
f 219 960 220
f 220 960 962
f 220 962 218
f 218 962 961
f 218 961 222
f 222 961 964
f 222 964 221
f 221 964 963
f 221 963 224
f 224 963 966
f 224 966 223
f 223 966 965
f 223 965 226
f 226 965 968
f 226 968 225
f 225 968 967
f 225 967 228
f 228 967 970
f 228 970 227
f 227 970 969
f 227 969 230
f 230 969 972
f 230 972 229
f 229 972 971
f 229 971 232
f 232 971 974
f 232 974 231
f 231 974 973
f 231 973 234
f 234 973 976
f 234 976 233
f 233 976 975
f 233 975 236
f 236 975 978
f 236 978 235
f 235 978 977
f 235 977 238
f 238 977 980
f 238 980 237
f 237 980 979
f 237 979 240
f 240 979 982
f 240 982 239
f 239 982 981
f 239 981 242
f 242 981 984
f 242 984 241
f 241 984 983
f 241 983 244
f 244 983 986
f 244 986 243
f 243 986 985
f 243 985 246
f 246 985 988
f 246 988 245
f 245 988 987
f 245 987 600
f 600 987 1342
f 600 1342 622
f 622 1342 1364
f 622 1364 570
f 570 1364 1312
f 570 1312 519
f 519 1312 1261
f 519 1261 248
f 248 1261 989
f 248 989 249
f 249 989 991
f 249 991 247
f 247 991 990
f 247 990 251
f 251 990 993
f 251 993 250
f 250 993 992
f 250 992 253
f 253 992 995
f 253 995 252
f 252 995 994
f 252 994 255
f 255 994 997
f 255 997 254
f 254 997 996
f 254 996 257
f 257 996 999
f 257 999 256
f 256 999 998
f 256 998 259
f 259 998 1001
f 259 1001 258
f 258 1001 1000
f 258 1000 261
f 261 1000 1003
f 261 1003 260
f 260 1003 1002
f 260 1002 263
f 263 1002 1005
f 263 1005 262
f 262 1005 1004
f 262 1004 265
f 265 1004 1007
f 265 1007 264
f 264 1007 1006
f 264 1006 267
f 267 1006 1009
f 267 1009 266
f 266 1009 1008
f 266 1008 269
f 269 1008 1011
f 269 1011 268
f 268 1011 1010
f 268 1010 271
f 271 1010 1013
f 271 1013 270
f 270 1013 1012
f 270 1012 273
f 273 1012 1015
f 273 1015 272
f 272 1015 1014
f 272 1014 543
f 543 1014 1285
f 543 1285 571
f 571 1285 1313
f 571 1313 572
f 572 1313 1314
f 572 1314 544
f 544 1314 1286
f 544 1286 520
f 520 1286 1262
f 520 1262 275
f 275 1262 1016
f 275 1016 276
f 276 1016 1018
f 276 1018 274
f 274 1018 1017
f 274 1017 278
f 278 1017 1020
f 278 1020 277
f 277 1020 1019
f 277 1019 280
f 280 1019 1022
f 280 1022 279
f 279 1022 1021
f 279 1021 282
f 282 1021 1024
f 282 1024 281
f 281 1024 1023
f 281 1023 521
f 521 1023 1263
f 521 1263 573
f 573 1263 1315
f 573 1315 601
f 601 1315 1343
f 601 1343 623
f 623 1343 1365
f 623 1365 645
f 645 1365 1387
f 645 1387 665
f 665 1387 1407
f 665 1407 702
f 702 1407 1444
f 702 1444 703
f 703 1444 1445
f 703 1445 705
f 705 1445 1447
f 705 1447 712
f 712 1447 1454
f 712 1454 716
f 716 1454 1458
f 716 1458 720
f 720 1458 1462
f 720 1462 284
f 284 1462 1025
f 284 1025 285
f 285 1025 1027
f 285 1027 283
f 283 1027 1026
f 283 1026 287
f 287 1026 1029
f 287 1029 286
f 286 1029 1028
f 286 1028 289
f 289 1028 1031
f 289 1031 288
f 288 1031 1030
f 288 1030 291
f 291 1030 1033
f 291 1033 290
f 290 1033 1032
f 290 1032 574
f 574 1032 1316
f 574 1316 602
f 602 1316 1344
f 602 1344 666
f 666 1344 1408
f 666 1408 657
f 657 1408 1399
f 657 1399 624
f 624 1399 1366
f 624 1366 603
f 603 1366 1345
f 603 1345 575
f 575 1345 1317
f 575 1317 545
f 545 1317 1287
f 545 1287 522
f 522 1287 1264
f 522 1264 293
f 293 1264 1034
f 293 1034 294
f 294 1034 1036
f 294 1036 292
f 292 1036 1035
f 292 1035 296
f 296 1035 1038
f 296 1038 295
f 295 1038 1037
f 295 1037 298
f 298 1037 1040
f 298 1040 297
f 297 1040 1039
f 297 1039 300
f 300 1039 1042
f 300 1042 299
f 299 1042 1041
f 299 1041 302
f 302 1041 1044
f 302 1044 301
f 301 1044 1043
f 301 1043 304
f 304 1043 1046
f 304 1046 303
f 303 1046 1045
f 303 1045 306
f 306 1045 1048
f 306 1048 305
f 305 1048 1047
f 305 1047 308
f 308 1047 1050
f 308 1050 307
f 307 1050 1049
f 307 1049 310
f 310 1049 1052
f 310 1052 309
f 309 1052 1051
f 309 1051 312
f 312 1051 1054
f 312 1054 311
f 311 1054 1053
f 311 1053 314
f 314 1053 1056
f 314 1056 313
f 313 1056 1055
f 313 1055 316
f 316 1055 1058
f 316 1058 315
f 315 1058 1057
f 315 1057 318
f 318 1057 1060
f 318 1060 317
f 317 1060 1059
f 317 1059 320
f 320 1059 1062
f 320 1062 319
f 319 1062 1061
f 319 1061 322
f 322 1061 1064
f 322 1064 321
f 321 1064 1063
f 321 1063 324
f 324 1063 1066
f 324 1066 323
f 323 1066 1065
f 323 1065 326
f 326 1065 1068
f 326 1068 325
f 325 1068 1067
f 325 1067 576
f 576 1067 1318
f 576 1318 546
f 546 1318 1288
f 546 1288 523
f 523 1288 1265
f 523 1265 328
f 328 1265 1069
f 328 1069 329
f 329 1069 1071
f 329 1071 327
f 327 1071 1070
f 327 1070 331
f 331 1070 1073
f 331 1073 330
f 330 1073 1072
f 330 1072 333
f 333 1072 1075
f 333 1075 332
f 332 1075 1074
f 332 1074 335
f 335 1074 1077
f 335 1077 334
f 334 1077 1076
f 334 1076 337
f 337 1076 1078
f 337 1078 338
f 338 1078 1080
f 338 1080 336
f 336 1080 1079
f 336 1079 340
f 340 1079 1082
f 340 1082 339
f 339 1082 1081
f 339 1081 342
f 342 1081 1084
f 342 1084 341
f 341 1084 1083
f 341 1083 344
f 344 1083 1086
f 344 1086 343
f 343 1086 1085
f 343 1085 346
f 346 1085 1088
f 346 1088 345
f 345 1088 1087
f 345 1087 348
f 348 1087 1090
f 348 1090 347
f 347 1090 1089
f 347 1089 350
f 350 1089 1092
f 350 1092 349
f 349 1092 1091
f 349 1091 352
f 352 1091 1094
f 352 1094 351
f 351 1094 1093
f 351 1093 354
f 354 1093 1096
f 354 1096 353
f 353 1096 1095
f 353 1095 356
f 356 1095 1098
f 356 1098 355
f 355 1098 1097
f 355 1097 547
f 547 1097 1289
f 547 1289 577
f 577 1289 1319
f 577 1319 604
f 604 1319 1346
f 604 1346 658
f 658 1346 1400
f 658 1400 667
f 667 1400 1409
f 667 1409 691
f 691 1409 1433
f 691 1433 646
f 646 1433 1388
f 646 1388 625
f 625 1388 1367
f 625 1367 578
f 578 1367 1320
f 578 1320 358
f 358 1320 1099
f 358 1099 359
f 359 1099 1101
f 359 1101 357
f 357 1101 1100
f 357 1100 361
f 361 1100 1103
f 361 1103 360
f 360 1103 1102
f 360 1102 363
f 363 1102 1105
f 363 1105 362
f 362 1105 1104
f 362 1104 365
f 365 1104 1107
f 365 1107 364
f 364 1107 1106
f 364 1106 367
f 367 1106 1109
f 367 1109 366
f 366 1109 1108
f 366 1108 369
f 369 1108 1111
f 369 1111 368
f 368 1111 1110
f 368 1110 371
f 371 1110 1113
f 371 1113 370
f 370 1113 1112
f 370 1112 579
f 579 1112 1321
f 579 1321 659
f 659 1321 1401
f 659 1401 668
f 668 1401 1410
f 668 1410 679
f 679 1410 1421
f 679 1421 729
f 729 1421 1471
f 729 1471 724
f 724 1471 1466
f 724 1466 721
f 721 1466 1463
f 721 1463 717
f 717 1463 1459
f 717 1459 713
f 713 1459 1455
f 713 1455 709
f 709 1455 1451
f 709 1451 706
f 706 1451 1448
f 706 1448 647
f 647 1448 1389
f 647 1389 626
f 626 1389 1368
f 626 1368 580
f 580 1368 1322
f 580 1322 548
f 548 1322 1290
f 548 1290 524
f 524 1290 1266
f 524 1266 373
f 373 1266 1114
f 373 1114 374
f 374 1114 1116
f 374 1116 372
f 372 1116 1115
f 372 1115 376
f 376 1115 1118
f 376 1118 375
f 375 1118 1117
f 375 1117 378
f 378 1117 1120
f 378 1120 377
f 377 1120 1119
f 377 1119 380
f 380 1119 1122
f 380 1122 379
f 379 1122 1121
f 379 1121 382
f 382 1121 1124
f 382 1124 381
f 381 1124 1123
f 381 1123 384
f 384 1123 1126
f 384 1126 383
f 383 1126 1125
f 383 1125 386
f 386 1125 1128
f 386 1128 385
f 385 1128 1127
f 385 1127 388
f 388 1127 1130
f 388 1130 387
f 387 1130 1129
f 387 1129 390
f 390 1129 1132
f 390 1132 389
f 389 1132 1131
f 389 1131 392
f 392 1131 1134
f 392 1134 391
f 391 1134 1133
f 391 1133 394
f 394 1133 1135
f 394 1135 395
f 395 1135 1137
f 395 1137 393
f 393 1137 1136
f 393 1136 397
f 397 1136 1139
f 397 1139 396
f 396 1139 1138
f 396 1138 549
f 549 1138 1291
f 549 1291 581
f 581 1291 1323
f 581 1323 582
f 582 1323 1324
f 582 1324 550
f 550 1324 1292
f 550 1292 525
f 525 1292 1267
f 525 1267 399
f 399 1267 1140
f 399 1140 400
f 400 1140 1142
f 400 1142 398
f 398 1142 1141
f 398 1141 402
f 402 1141 1144
f 402 1144 401
f 401 1144 1143
f 401 1143 404
f 404 1143 1146
f 404 1146 403
f 403 1146 1145
f 403 1145 406
f 406 1145 1148
f 406 1148 405
f 405 1148 1147
f 405 1147 408
f 408 1147 1150
f 408 1150 407
f 407 1150 1149
f 407 1149 410
f 410 1149 1152
f 410 1152 409
f 409 1152 1151
f 409 1151 412
f 412 1151 1154
f 412 1154 411
f 411 1154 1153
f 411 1153 414
f 414 1153 1156
f 414 1156 413
f 413 1156 1155
f 413 1155 416
f 416 1155 1158
f 416 1158 415
f 415 1158 1157
f 415 1157 418
f 418 1157 1160
f 418 1160 417
f 417 1160 1159
f 417 1159 420
f 420 1159 1162
f 420 1162 419
f 419 1162 1161
f 419 1161 422
f 422 1161 1164
f 422 1164 421
f 421 1164 1163
f 421 1163 424
f 424 1163 1166
f 424 1166 423
f 423 1166 1165
f 423 1165 426
f 426 1165 1168
f 426 1168 425
f 425 1168 1167
f 425 1167 428
f 428 1167 1170
f 428 1170 427
f 427 1170 1169
f 427 1169 430
f 430 1169 1172
f 430 1172 429
f 429 1172 1171
f 429 1171 526
f 526 1171 1268
f 526 1268 605
f 605 1268 1347
f 605 1347 627
f 627 1347 1369
f 627 1369 648
f 648 1369 1390
f 648 1390 669
f 669 1390 1411
f 669 1411 680
f 680 1411 1422
f 680 1422 686
f 686 1422 1428
f 686 1428 688
f 688 1428 1430
f 688 1430 692
f 692 1430 1434
f 692 1434 696
f 696 1434 1438
f 696 1438 699
f 699 1438 1441
f 699 1441 649
f 649 1441 1391
f 649 1391 628
f 628 1391 1370
f 628 1370 606
f 606 1370 1348
f 606 1348 583
f 583 1348 1325
f 583 1325 551
f 551 1325 1293
f 551 1293 432
f 432 1293 1173
f 432 1173 433
f 433 1173 1175
f 433 1175 431
f 431 1175 1174
f 431 1174 435
f 435 1174 1177
f 435 1177 434
f 434 1177 1176
f 434 1176 629
f 629 1176 1371
f 629 1371 437
f 437 1371 1178
f 437 1178 438
f 438 1178 1180
f 438 1180 436
f 436 1180 1179
f 436 1179 440
f 440 1179 1182
f 440 1182 439
f 439 1182 1181
f 439 1181 442
f 442 1181 1184
f 442 1184 441
f 441 1184 1183
f 441 1183 444
f 444 1183 1186
f 444 1186 443
f 443 1186 1185
f 443 1185 446
f 446 1185 1188
f 446 1188 445
f 445 1188 1187
f 445 1187 448
f 448 1187 1190
f 448 1190 447
f 447 1190 1189
f 447 1189 450
f 450 1189 1192
f 450 1192 449
f 449 1192 1191
f 449 1191 452
f 452 1191 1194
f 452 1194 451
f 451 1194 1193
f 451 1193 454
f 454 1193 1196
f 454 1196 453
f 453 1196 1195
f 453 1195 456
f 456 1195 1198
f 456 1198 455
f 455 1198 1197
f 455 1197 552
f 552 1197 1294
f 552 1294 584
f 584 1294 1326
f 584 1326 670
f 670 1326 1412
f 670 1412 681
f 681 1412 1423
f 681 1423 585
f 585 1423 1327
f 585 1327 458
f 458 1327 1199
f 458 1199 459
f 459 1199 1201
f 459 1201 457
f 457 1201 1200
f 457 1200 461
f 461 1200 1203
f 461 1203 460
f 460 1203 1202
f 460 1202 463
f 463 1202 1205
f 463 1205 462
f 462 1205 1204
f 462 1204 465
f 465 1204 1207
f 465 1207 464
f 464 1207 1206
f 464 1206 607
f 607 1206 1349
f 607 1349 630
f 630 1349 1372
f 630 1372 650
f 650 1372 1392
f 650 1392 693
f 693 1392 1435
f 693 1435 651
f 651 1435 1393
f 651 1393 631
f 631 1393 1373
f 631 1373 608
f 608 1373 1350
f 608 1350 586
f 586 1350 1328
f 586 1328 553
f 553 1328 1295
f 553 1295 467
f 467 1295 1208
f 467 1208 468
f 468 1208 1210
f 468 1210 466
f 466 1210 1209
f 466 1209 470
f 470 1209 1212
f 470 1212 469
f 469 1212 1211
f 469 1211 660
f 660 1211 1402
f 660 1402 671
f 671 1402 1413
f 671 1413 682
f 682 1413 1424
f 682 1424 736
f 736 1424 1478
f 736 1478 733
f 733 1478 1475
f 733 1475 730
f 730 1475 1472
f 730 1472 727
f 727 1472 1469
f 727 1469 725
f 725 1469 1467
f 725 1467 722
f 722 1467 1464
f 722 1464 718
f 718 1464 1460
f 718 1460 714
f 714 1460 1456
f 714 1456 710
f 710 1456 1452
f 710 1452 707
f 707 1452 1449
f 707 1449 704
f 704 1449 1446
f 704 1446 700
f 700 1446 1442
f 700 1442 527
f 527 1442 1269
f 527 1269 472
f 472 1269 1213
f 472 1213 473
f 473 1213 1215
f 473 1215 471
f 471 1215 1214
f 471 1214 475
f 475 1214 1217
f 475 1217 474
f 474 1217 1216
f 474 1216 477
f 477 1216 1219
f 477 1219 476
f 476 1219 1218
f 476 1218 479
f 479 1218 1221
f 479 1221 478
f 478 1221 1220
f 478 1220 481
f 481 1220 1223
f 481 1223 480
f 480 1223 1222
f 480 1222 483
f 483 1222 1225
f 483 1225 482
f 482 1225 1224
f 482 1224 528
f 528 1224 1270
f 528 1270 609
f 609 1270 1351
f 609 1351 632
f 632 1351 1374
f 632 1374 652
f 652 1374 1394
f 652 1394 633
f 633 1394 1375
f 633 1375 610
f 610 1375 1352
f 610 1352 529
f 529 1352 1271
f 529 1271 485
f 485 1271 1226
f 485 1226 486
f 486 1226 1228
f 486 1228 484
f 484 1228 1227
f 484 1227 488
f 488 1227 1230
f 488 1230 487
f 487 1230 1229
f 487 1229 490
f 490 1229 1232
f 490 1232 489
f 489 1232 1231
f 489 1231 492
f 492 1231 1234
f 492 1234 491
f 491 1234 1233
f 491 1233 494
f 494 1233 1236
f 494 1236 493
f 493 1236 1235
f 493 1235 496
f 496 1235 1238
f 496 1238 495
f 495 1238 1237
f 495 1237 498
f 498 1237 1240
f 498 1240 497
f 497 1240 1239
f 497 1239 661
f 661 1239 1403
f 661 1403 672
f 672 1403 1414
f 672 1414 683
f 683 1414 1425
f 683 1425 684
f 684 1425 1426
f 684 1426 673
f 673 1426 1415
f 673 1415 653
f 653 1415 1395
f 653 1395 634
f 634 1395 1376
f 634 1376 611
f 611 1376 1353
f 611 1353 554
f 554 1353 1296
f 554 1296 530
f 530 1296 1272
f 530 1272 500
f 500 1272 1241
f 500 1241 501
f 501 1241 1243
f 501 1243 499
f 499 1243 1242
f 499 1242 503
f 503 1242 1245
f 503 1245 502
f 502 1245 1244
f 502 1244 505
f 505 1244 1247
f 505 1247 504
f 504 1247 1246
f 504 1246 507
f 507 1246 1249
f 507 1249 506
f 506 1249 1248
f 506 1248 509
f 509 1248 1251
f 509 1251 508
f 508 1251 1250
f 508 1250 2
f 2 1250 743
f 2 743 3
f 3 743 745
f 3 745 1
f 1 745 744
