o 
v 58.66 0 -0.11
v 60.65 0 -0.46
v 59.25 0 0
v 57.41 0 -0.78
v 58.05 0 -0.21
v 56.914 0 -1.213
v 57.193 0 -0.966
v 56.243 0 -1.82
v 56.591 0 -1.504
v 55.54 0 -2.46
v 55.886 0 -2.145
v 54.13 0 -4.56
v 54.36 0 -3.56
v 52.35 0 -5.66
v 53.92 0 -5.55
v 53.14 0 -5.6
v 51.25 0 -6.81
v 51.8 0 -6.23
v 51.19 0 -12.22
v 51.21 0 -9.51
v 50.77 0 -22.55
v 50.98 0 -14.41
v 50.77 0 -16.6
v 50.162 0 -30.11
v 50.51 0 -29.58
v 50.327 0 -29.852
v 49.914 0 -30.533
v 50.022 0 -30.341
v 49.82 0 -30.75
v 49.845 0 -30.674
v 49.912 0 -30.91
v 49.844 0 -30.816
v 50.158 0 -31.163
v 50.019 0 -31.027
v 50.51 0 -31.47
v 50.323 0 -31.313
v 48.274 0 -36.509
v 49.19 0 -35.23
v 48.737 0 -35.851
v 47.412 0 -37.797
v 47.825 0 -37.17
v 46.79 0 -38.81
v 47.059 0 -38.356
v 44.14 0 -41.25
v 44.96 0 -41.48
v 44.54 0 -41.36
v 43.88 0 -39.666
v 44 0 -40.37
v 43.954 0 -40.064
v 43.67 0 -38.694
v 43.784 0 -39.2
v 43.41 0 -37.67
v 43.543 0 -38.176
v 41.97 0 -33.57
v 42.94 0 -35.86
v 41.356 0 -32.121
v 41.681 0 -32.886
v 40.674 0 -30.526
v 41.014 0 -31.32
v 39.14 0 -26.97
v 40.357 0 -29.781
v 40.08 0 -29.13
v 37.01 0 -19.84
v 38.08 0 -23.41
v 36.85 0 -17.253
v 36.95 0 -18.8
v 36.461 0 -12.08
v 36.674 0 -14.849
v 36.076 0 -7.414
v 36.249 0 -9.438
v 35.9 0 -6.12
v 35.98 0 -6.5
v 34.744 0 -4.867
v 35.03 0 -5.17
v 34.019 0 -4.098
v 34.4 0 -4.502
v 33.223 0 -3.255
v 33.62 0 -3.674
v 30.62 0 -1.18
v 32.85 0 -2.86
v 31.56 0 -1.49
v 29.06 0 -1.2
v 29.67 0 -0.86
v 28.34 0 -2
v 28.45 0 -1.54
v 28.34 0 -4.33
v 28.22 0 -2.46
v 29.82 0 -8.2
v 28.45 0 -6.21
v 30.545 0 -13.465
v 30.829 0 -12.082
v 30.693 0 -12.741
v 29.426 0 -18.774
v 30.39 0 -14.22
v 29.87 0 -16.669
v 28.744 0 -22.066
v 29.052 0 -20.564
v 28.3 0 -24.32
v 28.495 0 -23.309
v 27.71 0 -35.57
v 27.94 0 -26.13
v 28.07 0 -47.35
v 27.46 0 -45.01
v 30.66 0 -53.81
v 28.68 0 -49.71
v 29.63 0 -60.73
v 30.7 0 -60.18
v 30.17 0 -60.45
v 27.815 0 -60.756
v 28.24 0 -60.75
v 26.784 0 -60.796
v 27.32 0 -60.773
v 25.709 0 -60.853
v 26.237 0 -60.824
v 23.61 0 -61.02
v 25.23 0 -60.88
v 18.08 0 -62.33
v 20.37 0 -62.01
v 18.98 0 -61.74
v 17.28 0 -64.74
v 17.2 0 -62.92
v 18.23 0 -68.8
v 17.34 0 -66.55
v 21.85 0 -74.38
v 19.13 0 -71.06
v 19.13 0 -72.3
v 25.8 0 -77.41
v 24.913 0 -76.716
v 25.17 0 -76.92
v 25.826 0 -78.512
v 25.82 0 -78.27
v 25.866 0 -78.979
v 25.843 0 -78.752
v 25.923 0 -79.348
v 25.894 0 -79.181
v 26.09 0 -79.81
v 25.95 0 -79.47
v 27.861 0 -81.33
v 27.42 0 -80.96
v 29.063 0 -82.257
v 28.42 0 -81.771
v 30.458 0 -83.259
v 29.753 0 -82.762
v 35.613 0 -86.813
v 34.626 0 -86.116
v 35.14 0 -86.48
v 37.107 0 -87.869
v 36.116 0 -87.168
v 36.623 0 -87.526
v 37.91 0 -88.43
v 37.545 0 -88.177
v 39.6 0 -89.33
v 39.05 0 -89.23
v 41.55 0 -91.8
v 40.17 0 -89.42
v 40.86 0 -90.62
v 43.85 0 -96.78
v 42.19 0 -94
v 42.82 0 -96.19
v 45.15 0 -97.26
v 44.88 0 -97.37
v 45.34 0 -97.54
v 45.43 0 -97.16
v 45.38 0 -97.35
v 49.91 0 -100
v 47.63 0 -98.78
v 52.39 0 -99.77
v 51.15 0 -99.89
v 54.57 0 -99.26
v 53.71 0 -99.22
v 54.17 0 -99.47
v 55.06 0 -98.61
v 54.97 0 -99.03
v 55.134 0 -97.899
v 55.094 0 -98.368
v 55.223 0 -96.434
v 55.178 0 -97.241
v 55.31 0 -94.53
v 55.268 0 -95.518
v 57.81 0 -87.34
v 55.46 0 -90.89
v 56.64 0 -89.12
v 56.74 0 -86.745
v 56.97 0 -86.87
v 58.671 0 -85.466
v 57.25 0 -85.07
v 58.34 0 -85.38
v 59.43 0 -85.631
v 59.042 0 -85.551
v 60.175 0 -85.76
v 59.815 0 -85.702
v 61.54 0 -85.91
v 60.49 0 -85.8
v 63.77 0 -83.64
v 62.67 0 -84.77
v 66.46 0 -76.65
v 65.11 0 -80.16
v 67.38 0 -67.71
v 66.92 0 -72.19
v 66.25 0 -64.37
v 64.8 0 -65.12
v 65.47 0 -65.12
v 66.94 0 -62.94
v 67.01 0 -63.63
v 67.101 0 -62.228
v 66.97 0 -62.24
v 67.019 0 -62.237
v 67.342 0 -62.199
v 67.211 0 -62.215
v 67.64 0 -62.16
v 67.487 0 -62.18
v 69.7 0 -61.3
v 68.21 0 -62.1
v 73.852 0 -59.804
v 71.19 0 -60.5
v 73.23 0 -59.97
v 78.181 0 -58.659
v 76.874 0 -59.005
v 77.55 0 -58.83
v 81.2 0 -57.85
v 80.261 0 -58.097
v 80.53 0 -58.03
v 81.92 0 -55.79
v 82 0 -57.21
v 82.8 0 -56.58
v 81.5 0 -53.2
v 81.04 0 -55.01
v 81.27 0 -54.12
v 81.06 0 -51.58
v 81.29 0 -52.38
v 80.5 0 -51.613
v 80.89 0 -51.58
v 79.184 0 -51.813
v 79.89 0 -51.698
v 77.971 0 -52.045
v 78.503 0 -51.936
v 77.648 0 -52.179
v 77.71 0 -52.12
v 77.464 0 -52.393
v 77.564 0 -52.272
v 77.237 0 -52.693
v 77.353 0 -52.535
v 66.08 0 -53.87
v 69.57 0 -53.68
v 66.9 0 -53.64
v 60.82 0 -53.39
v 61.807 0 -53.552
v 61.56 0 -53.51
v 61.66 0 -52.42
v 60.91 0 -52.84
v 61.1 0 -52.95
v 62.21 0 -50.48
v 62.21 0 -51.89
v 60.68 0 -49.87
v 61.45 0 -50.17
v 62.06 0 -44.43
v 60.68 0 -47.66
v 61.37 0 -46.05
v 61.73 0 -36.73
v 62.02 0 -40.83
v 62 0 -37.21
v 61.68 0 -30.04
v 61.05 0 -31
v 61.37 0 -30.52
v 61.43 0 -28.75
v 61.56 0 -29.39
v 59.726 0 -24.881
v 60.15 0 -26.13
v 59.962 0 -25.573
v 59.174 0 -23.269
v 59.459 0 -24.099
v 58.61 0 -21.64
v 58.886 0 -22.434
v 58.87 0 -7.53
v 58.17 0 -11.25
v 58.74 0 -8.94
v 61.66 0 -2.21
v 60.34 0 -4.27
v 61.29 0 -3.16
v 61.838 0 -1.704
v 61.753 0 -1.949
v 61.969 0 -1.303
v 61.911 0 -1.485
v 62.02 0 -1.09
v 62.007 0 -1.167
v 62.02 0 -0.91
v 51.19 0 -28.56
v 51.17 0 -32.04
v 49.621 0 -34.634
v 31.2 0 -10.2
v 21.76 0 -62.26
v 31.14 0 -83.72
v 52.81 0 -99.37
v 53.25 0 -98.99
v 66.08 0 -66.41
v 74.57 0 -59.612
v 76.123 0 -59.201
v 70.35 0 -53.677
v 62.134 0 -53.606
v 60.72 0 -52.73
v 61.47 0 -36.24
v 57.62 0 -13.55
v 60.087 0 -4.569
v 50.98 0 -25.54
v 32.66 0 -57.91
v 22.59 0 -74.938
v 56.534 0 -86.624
v 66.86 0 -62.26
v 75.341 0 -59.408
v 78.796 0 -58.491
v 79.864 0 -58.202
v 71.209 0 -53.667
v 61.08 0 -28.31
v 59.01 0 -6.12
v 59.845 0 -4.867
v 50.023 0 -34.064
v 22.69 0 -61.65
v 23.3 0 -75.476
v 56.36 0 -86.511
v 79.366 0 -58.336
v 77.12 0 -52.86
v 72.096 0 -53.653
v 61.26 0 -33.63
v 60.74 0 -27.85
v 59.626 0 -5.147
v 50.377 0 -33.546
v 30.943 0 -11.522
v 23.945 0 -75.969
v 31.833 0 -84.192
v 56.68 0 -85.61
v 76.68 0 -53.47
v 72.965 0 -53.633
v 59.441 0 -5.397
v 46.56 0 -39.21
v 31.03 0 -11.094
v 24.494 0 -76.39
v 32.566 0 -84.693
v 34.001 0 -85.68
v 56.527 0 -85.763
v 73.766 0 -53.608
v 46.317 0 -39.614
v 31.08 0 -10.83
v 33.301 0 -85.198
v 56.226 0 -86.413
v 56.39 0 -85.908
v 65.26 0 -54.1
v 59.302 0 -5.599
v 46.074 0 -40.002
v 31.69 0 -59.05
v 56.14 0 -86.334
v 56.275 0 -86.039
v 74.45 0 -53.58
v 59.22 0 -5.74
v 45.843 0 -40.352
v 56.187 0 -86.149
v 56.13 0 -86.231
v 57.67 0 -18.85
v 45.47 0 -40.85
v 57.63 0 -16.2
v 45.638 0 -40.642
v 56.11 0 -86.28
v 63.79 0 -53.87
v 60.76 0 -53.05
v 63.368 0 -53.803
v 50.667 0 -33.106
v 62.936 0 -53.734
v 50.874 0 -32.768
v 62.518 0 -53.667
v 50.98 0 -32.56
v 60.65 10 -0.46
v 58.66 10 -0.11
v 59.25 10 0
v 57.41 10 -0.78
v 58.05 10 -0.21
v 56.914 10 -1.213
v 57.193 10 -0.966
v 56.243 10 -1.82
v 56.591 10 -1.504
v 55.54 10 -2.46
v 55.886 10 -2.145
v 54.13 10 -4.56
v 54.36 10 -3.56
v 53.92 10 -5.55
v 52.35 10 -5.66
v 53.14 10 -5.6
v 51.25 10 -6.81
v 51.8 10 -6.23
v 51.19 10 -12.22
v 51.21 10 -9.51
v 50.98 10 -14.41
v 50.77 10 -22.55
v 50.77 10 -16.6
v 50.51 10 -29.58
v 50.162 10 -30.11
v 50.327 10 -29.852
v 49.914 10 -30.533
v 50.022 10 -30.341
v 49.82 10 -30.75
v 49.845 10 -30.674
v 49.912 10 -30.91
v 49.844 10 -30.816
v 50.158 10 -31.163
v 50.019 10 -31.027
v 50.51 10 -31.47
v 50.323 10 -31.313
v 49.19 10 -35.23
v 48.274 10 -36.509
v 48.737 10 -35.851
v 47.412 10 -37.797
v 47.825 10 -37.17
v 46.79 10 -38.81
v 47.059 10 -38.356
v 44.96 10 -41.48
v 44.14 10 -41.25
v 44.54 10 -41.36
v 44 10 -40.37
v 43.88 10 -39.666
v 43.954 10 -40.064
v 43.67 10 -38.694
v 43.784 10 -39.2
v 43.41 10 -37.67
v 43.543 10 -38.176
v 41.97 10 -33.57
v 42.94 10 -35.86
v 41.356 10 -32.121
v 41.681 10 -32.886
v 40.674 10 -30.526
v 41.014 10 -31.32
v 40.357 10 -29.781
v 39.14 10 -26.97
v 40.08 10 -29.13
v 37.01 10 -19.84
v 38.08 10 -23.41
v 36.85 10 -17.253
v 36.95 10 -18.8
v 36.461 10 -12.08
v 36.674 10 -14.849
v 36.076 10 -7.414
v 36.249 10 -9.438
v 35.9 10 -6.12
v 35.98 10 -6.5
v 34.744 10 -4.867
v 35.03 10 -5.17
v 34.019 10 -4.098
v 34.4 10 -4.502
v 33.223 10 -3.255
v 33.62 10 -3.674
v 32.85 10 -2.86
v 30.62 10 -1.18
v 31.56 10 -1.49
v 29.06 10 -1.2
v 29.67 10 -0.86
v 28.34 10 -2
v 28.45 10 -1.54
v 28.34 10 -4.33
v 28.22 10 -2.46
v 29.82 10 -8.2
v 28.45 10 -6.21
v 30.829 10 -12.082
v 30.545 10 -13.465
v 30.693 10 -12.741
v 30.39 10 -14.22
v 29.426 10 -18.774
v 29.87 10 -16.669
v 28.744 10 -22.066
v 29.052 10 -20.564
v 28.3 10 -24.32
v 28.495 10 -23.309
v 27.71 10 -35.57
v 27.94 10 -26.13
v 28.07 10 -47.35
v 27.46 10 -45.01
v 30.66 10 -53.81
v 28.68 10 -49.71
v 30.7 10 -60.18
v 29.63 10 -60.73
v 30.17 10 -60.45
v 27.815 10 -60.756
v 28.24 10 -60.75
v 26.784 10 -60.796
v 27.32 10 -60.773
v 25.709 10 -60.853
v 26.237 10 -60.824
v 23.61 10 -61.02
v 25.23 10 -60.88
v 20.37 10 -62.01
v 18.08 10 -62.33
v 18.98 10 -61.74
v 17.28 10 -64.74
v 17.2 10 -62.92
v 18.23 10 -68.8
v 17.34 10 -66.55
v 19.13 10 -71.06
v 21.85 10 -74.38
v 19.13 10 -72.3
v 24.913 10 -76.716
v 25.8 10 -77.41
v 25.17 10 -76.92
v 25.826 10 -78.512
v 25.82 10 -78.27
v 25.866 10 -78.979
v 25.843 10 -78.752
v 25.923 10 -79.348
v 25.894 10 -79.181
v 26.09 10 -79.81
v 25.95 10 -79.47
v 27.861 10 -81.33
v 27.42 10 -80.96
v 29.063 10 -82.257
v 28.42 10 -81.771
v 30.458 10 -83.259
v 29.753 10 -82.762
v 34.626 10 -86.116
v 35.613 10 -86.813
v 35.14 10 -86.48
v 36.116 10 -87.168
v 37.107 10 -87.869
v 36.623 10 -87.526
v 37.91 10 -88.43
v 37.545 10 -88.177
v 39.6 10 -89.33
v 39.05 10 -89.23
v 40.17 10 -89.42
v 41.55 10 -91.8
v 40.86 10 -90.62
v 42.19 10 -94
v 43.85 10 -96.78
v 42.82 10 -96.19
v 45.15 10 -97.26
v 44.88 10 -97.37
v 45.43 10 -97.16
v 45.34 10 -97.54
v 45.38 10 -97.35
v 49.91 10 -100
v 47.63 10 -98.78
v 52.39 10 -99.77
v 51.15 10 -99.89
v 53.71 10 -99.22
v 54.57 10 -99.26
v 54.17 10 -99.47
v 55.06 10 -98.61
v 54.97 10 -99.03
v 55.134 10 -97.899
v 55.094 10 -98.368
v 55.223 10 -96.434
v 55.178 10 -97.241
v 55.31 10 -94.53
v 55.268 10 -95.518
v 55.46 10 -90.89
v 57.81 10 -87.34
v 56.64 10 -89.12
v 56.74 10 -86.745
v 56.97 10 -86.87
v 57.25 10 -85.07
v 58.671 10 -85.466
v 58.34 10 -85.38
v 59.43 10 -85.631
v 59.042 10 -85.551
v 60.175 10 -85.76
v 59.815 10 -85.702
v 61.54 10 -85.91
v 60.49 10 -85.8
v 63.77 10 -83.64
v 62.67 10 -84.77
v 66.46 10 -76.65
v 65.11 10 -80.16
v 67.38 10 -67.71
v 66.92 10 -72.19
v 64.8 10 -65.12
v 66.25 10 -64.37
v 65.47 10 -65.12
v 66.94 10 -62.94
v 67.01 10 -63.63
v 66.97 10 -62.24
v 67.101 10 -62.228
v 67.019 10 -62.237
v 67.342 10 -62.199
v 67.211 10 -62.215
v 67.64 10 -62.16
v 67.487 10 -62.18
v 69.7 10 -61.3
v 68.21 10 -62.1
v 71.19 10 -60.5
v 73.852 10 -59.804
v 73.23 10 -59.97
v 76.874 10 -59.005
v 78.181 10 -58.659
v 77.55 10 -58.83
v 80.261 10 -58.097
v 81.2 10 -57.85
v 80.53 10 -58.03
v 82 10 -57.21
v 81.92 10 -55.79
v 82.8 10 -56.58
v 81.04 10 -55.01
v 81.5 10 -53.2
v 81.27 10 -54.12
v 81.06 10 -51.58
v 81.29 10 -52.38
v 80.5 10 -51.613
v 80.89 10 -51.58
v 79.184 10 -51.813
v 79.89 10 -51.698
v 77.971 10 -52.045
v 78.503 10 -51.936
v 77.648 10 -52.179
v 77.71 10 -52.12
v 77.464 10 -52.393
v 77.564 10 -52.272
v 77.237 10 -52.693
v 77.353 10 -52.535
v 69.57 10 -53.68
v 66.08 10 -53.87
v 66.9 10 -53.64
v 61.807 10 -53.552
v 60.82 10 -53.39
v 61.56 10 -53.51
v 60.91 10 -52.84
v 61.66 10 -52.42
v 61.1 10 -52.95
v 62.21 10 -50.48
v 62.21 10 -51.89
v 60.68 10 -49.87
v 61.45 10 -50.17
v 60.68 10 -47.66
v 62.06 10 -44.43
v 61.37 10 -46.05
v 62.02 10 -40.83
v 61.73 10 -36.73
v 62 10 -37.21
v 61.05 10 -31
v 61.68 10 -30.04
v 61.37 10 -30.52
v 61.43 10 -28.75
v 61.56 10 -29.39
v 60.15 10 -26.13
v 59.726 10 -24.881
v 59.962 10 -25.573
v 59.174 10 -23.269
v 59.459 10 -24.099
v 58.61 10 -21.64
v 58.886 10 -22.434
v 58.17 10 -11.25
v 58.87 10 -7.53
v 58.74 10 -8.94
v 60.34 10 -4.27
v 61.66 10 -2.21
v 61.29 10 -3.16
v 61.838 10 -1.704
v 61.753 10 -1.949
v 61.969 10 -1.303
v 61.911 10 -1.485
v 62.02 10 -1.09
v 62.007 10 -1.167
v 62.02 10 -0.91
v 51.19 10 -28.56
v 51.17 10 -32.04
v 49.621 10 -34.634
v 31.2 10 -10.2
v 21.76 10 -62.26
v 31.14 10 -83.72
v 52.81 10 -99.37
v 53.25 10 -98.99
v 66.08 10 -66.41
v 74.57 10 -59.612
v 76.123 10 -59.201
v 70.35 10 -53.677
v 62.134 10 -53.606
v 60.72 10 -52.73
v 61.47 10 -36.24
v 57.62 10 -13.55
v 60.087 10 -4.569
v 50.98 10 -25.54
v 32.66 10 -57.91
v 22.59 10 -74.938
v 56.534 10 -86.624
v 66.86 10 -62.26
v 75.341 10 -59.408
v 78.796 10 -58.491
v 79.864 10 -58.202
v 71.209 10 -53.667
v 61.08 10 -28.31
v 59.01 10 -6.12
v 59.845 10 -4.867
v 50.023 10 -34.064
v 22.69 10 -61.65
v 23.3 10 -75.476
v 56.36 10 -86.511
v 79.366 10 -58.336
v 77.12 10 -52.86
v 72.096 10 -53.653
v 61.26 10 -33.63
v 60.74 10 -27.85
v 59.626 10 -5.147
v 50.377 10 -33.546
v 30.943 10 -11.522
v 23.945 10 -75.969
v 31.833 10 -84.192
v 56.68 10 -85.61
v 76.68 10 -53.47
v 72.965 10 -53.633
v 59.441 10 -5.397
v 46.56 10 -39.21
v 31.03 10 -11.094
v 24.494 10 -76.39
v 32.566 10 -84.693
v 34.001 10 -85.68
v 56.527 10 -85.763
v 73.766 10 -53.608
v 46.317 10 -39.614
v 31.08 10 -10.83
v 33.301 10 -85.198
v 56.226 10 -86.413
v 56.39 10 -85.908
v 65.26 10 -54.1
v 59.302 10 -5.599
v 46.074 10 -40.002
v 31.69 10 -59.05
v 56.14 10 -86.334
v 56.275 10 -86.039
v 74.45 10 -53.58
v 59.22 10 -5.74
v 45.843 10 -40.352
v 56.187 10 -86.149
v 56.13 10 -86.231
v 57.67 10 -18.85
v 45.47 10 -40.85
v 57.63 10 -16.2
v 45.638 10 -40.642
v 56.11 10 -86.28
v 63.79 10 -53.87
v 60.76 10 -53.05
v 63.368 10 -53.803
v 50.667 10 -33.106
v 62.936 10 -53.734
v 50.874 10 -32.768
v 62.518 10 -53.667
v 50.98 10 -32.56
f 1 2 3
f 4 1 5
f 6 4 7
f 8 6 9
f 10 8 11
f 12 10 13
f 14 15 16
f 17 14 18
f 19 17 20
f 21 22 23
f 24 25 26
f 27 24 28
f 29 27 30
f 31 29 32
f 33 31 34
f 35 33 36
f 37 38 39
f 40 37 41
f 42 40 43
f 44 45 46
f 47 48 49
f 50 47 51
f 52 50 53
f 54 52 55
f 56 54 57
f 58 56 59
f 60 61 62
f 63 60 64
f 65 63 66
f 67 65 68
f 69 67 70
f 71 69 72
f 73 71 74
f 75 73 76
f 77 75 78
f 79 80 81
f 82 79 83
f 84 82 85
f 86 84 87
f 88 86 89
f 90 91 92
f 93 94 95
f 96 93 97
f 98 96 99
f 100 98 101
f 102 100 103
f 104 102 105
f 106 107 108
f 109 106 110
f 111 109 112
f 113 111 114
f 115 113 116
f 117 118 119
f 120 117 121
f 122 120 123
f 124 125 126
f 127 128 129
f 130 127 131
f 132 130 133
f 134 132 135
f 136 134 137
f 138 136 139
f 140 138 141
f 142 140 143
f 144 145 146
f 147 148 149
f 150 147 151
f 152 150 153
f 154 155 156
f 157 158 159
f 160 157 161
f 162 163 164
f 165 162 166
f 167 165 168
f 169 170 171
f 172 169 173
f 174 172 175
f 176 174 177
f 178 176 179
f 180 181 182
f 183 180 184
f 185 186 187
f 188 185 189
f 190 188 191
f 192 190 193
f 194 192 195
f 196 194 197
f 198 196 199
f 200 201 202
f 203 200 204
f 205 206 207
f 208 205 209
f 210 208 211
f 212 210 213
f 214 215 216
f 217 218 219
f 220 221 222
f 223 224 225
f 226 227 228
f 229 226 230
f 231 229 232
f 233 231 234
f 235 233 236
f 237 235 238
f 239 237 240
f 241 239 242
f 243 244 245
f 246 247 248
f 249 250 251
f 252 249 253
f 254 252 255
f 256 257 258
f 259 260 261
f 262 263 264
f 265 262 266
f 267 268 269
f 270 267 271
f 272 270 273
f 274 275 276
f 277 278 279
f 280 277 281
f 282 280 283
f 284 282 285
f 2 284 286
f 4 2 1
f 8 4 6
f 12 8 10
f 17 15 14
f 21 19 22
f 24 287 25
f 29 24 27
f 33 29 31
f 288 33 35
f 37 289 38
f 42 37 40
f 47 44 48
f 52 47 50
f 56 52 54
f 60 58 61
f 67 63 65
f 71 67 69
f 75 71 73
f 80 75 77
f 82 80 79
f 86 82 84
f 290 86 88
f 94 91 90
f 96 94 93
f 100 96 98
f 104 100 102
f 111 106 109
f 115 111 113
f 117 291 118
f 122 117 120
f 124 122 125
f 132 127 130
f 136 132 134
f 140 136 138
f 292 140 142
f 150 148 147
f 155 150 152
f 157 154 158
f 163 157 160
f 165 163 162
f 293 165 167
f 169 294 170
f 174 169 172
f 178 174 176
f 183 181 180
f 188 186 185
f 192 188 190
f 196 192 194
f 295 196 198
f 203 201 200
f 208 206 205
f 212 208 210
f 296 215 214
f 217 297 218
f 224 221 220
f 227 224 223
f 229 227 226
f 233 229 231
f 237 233 235
f 241 237 239
f 243 298 244
f 246 299 247
f 249 300 250
f 254 249 252
f 260 257 256
f 301 260 259
f 265 263 262
f 270 268 267
f 274 302 275
f 277 303 278
f 282 277 280
f 2 282 284
f 8 2 4
f 15 8 12
f 19 15 17
f 304 19 21
f 29 287 24
f 288 29 33
f 42 289 37
f 52 44 47
f 58 52 56
f 71 63 67
f 80 71 75
f 86 80 82
f 100 94 96
f 305 100 104
f 115 106 111
f 122 291 117
f 306 122 124
f 136 127 132
f 292 136 140
f 150 144 148
f 163 154 157
f 293 163 165
f 174 294 169
f 181 174 178
f 307 181 183
f 192 186 188
f 295 192 196
f 308 201 203
f 212 206 208
f 309 215 296
f 310 297 217
f 224 311 221
f 233 227 229
f 241 233 237
f 243 312 298
f 254 300 249
f 301 257 260
f 313 263 265
f 272 268 270
f 314 302 274
f 277 315 303
f 2 277 282
f 15 2 8
f 304 15 19
f 288 287 29
f 42 316 289
f 58 44 52
f 80 63 71
f 290 80 86
f 100 91 94
f 317 106 115
f 122 317 291
f 318 122 306
f 292 127 136
f 150 145 144
f 163 155 154
f 294 163 293
f 181 294 174
f 319 181 307
f 295 186 192
f 212 308 206
f 297 215 309
f 320 297 310
f 224 320 311
f 233 224 227
f 321 233 241
f 243 322 312
f 323 257 301
f 324 263 313
f 277 325 315
f 15 277 2
f 287 15 304
f 42 326 316
f 60 44 58
f 290 63 80
f 100 327 91
f 122 106 317
f 328 122 318
f 329 127 292
f 155 145 150
f 294 155 163
f 319 294 181
f 295 330 186
f 215 308 212
f 320 215 297
f 233 320 224
f 331 233 321
f 243 332 322
f 263 257 323
f 268 263 324
f 277 333 325
f 288 15 287
f 334 326 42
f 290 60 63
f 100 335 327
f 122 107 106
f 336 122 328
f 337 127 329
f 155 338 145
f 319 155 294
f 295 339 330
f 233 215 320
f 243 340 332
f 268 257 263
f 15 333 277
f 341 326 334
f 290 44 60
f 100 342 335
f 336 107 122
f 343 127 337
f 155 343 338
f 344 155 319
f 295 345 339
f 233 308 215
f 346 340 243
f 268 254 257
f 15 347 333
f 348 326 341
f 342 44 290
f 305 342 100
f 336 349 107
f 155 127 343
f 350 155 344
f 295 351 345
f 331 308 233
f 346 352 340
f 268 300 254
f 15 353 347
f 354 326 348
f 305 44 342
f 336 305 349
f 350 127 155
f 295 355 351
f 352 308 331
f 272 300 268
f 15 314 353
f 305 45 44
f 128 305 336
f 350 128 127
f 295 356 355
f 346 308 352
f 357 300 272
f 15 302 314
f 305 358 45
f 350 305 128
f 201 356 295
f 346 201 308
f 15 359 302
f 305 360 358
f 361 305 350
f 346 356 201
f 15 357 359
f 361 360 305
f 346 361 356
f 15 300 357
f 361 354 360
f 362 361 346
f 15 363 300
f 361 326 354
f 364 361 362
f 288 363 15
f 361 365 326
f 366 361 364
f 288 246 363
f 361 367 365
f 368 361 366
f 369 246 288
f 361 369 367
f 299 361 368
f 361 246 369
f 246 361 299
f 370 371 372
f 371 373 374
f 373 375 376
f 375 377 378
f 377 379 380
f 379 381 382
f 383 384 385
f 384 386 387
f 386 388 389
f 390 391 392
f 393 394 395
f 394 396 397
f 396 398 399
f 398 400 401
f 400 402 403
f 402 404 405
f 406 407 408
f 407 409 410
f 409 411 412
f 413 414 415
f 416 417 418
f 417 419 420
f 419 421 422
f 421 423 424
f 423 425 426
f 425 427 428
f 429 430 431
f 430 432 433
f 432 434 435
f 434 436 437
f 436 438 439
f 438 440 441
f 440 442 443
f 442 444 445
f 444 446 447
f 448 449 450
f 449 451 452
f 451 453 454
f 453 455 456
f 455 457 458
f 459 460 461
f 462 463 464
f 463 465 466
f 465 467 468
f 467 469 470
f 469 471 472
f 471 473 474
f 475 476 477
f 476 478 479
f 478 480 481
f 480 482 483
f 482 484 485
f 486 487 488
f 487 489 490
f 489 491 492
f 493 494 495
f 496 497 498
f 497 499 500
f 499 501 502
f 501 503 504
f 503 505 506
f 505 507 508
f 507 509 510
f 509 511 512
f 513 514 515
f 516 517 518
f 517 519 520
f 519 521 522
f 523 524 525
f 526 527 528
f 527 529 530
f 531 532 533
f 532 534 535
f 534 536 537
f 538 539 540
f 539 541 542
f 541 543 544
f 543 545 546
f 545 547 548
f 549 550 551
f 550 552 553
f 554 555 556
f 555 557 558
f 557 559 560
f 559 561 562
f 561 563 564
f 563 565 566
f 565 567 568
f 569 570 571
f 570 572 573
f 574 575 576
f 575 577 578
f 577 579 580
f 579 581 582
f 583 584 585
f 586 587 588
f 589 590 591
f 592 593 594
f 595 596 597
f 596 598 599
f 598 600 601
f 600 602 603
f 602 604 605
f 604 606 607
f 606 608 609
f 608 610 611
f 612 613 614
f 615 616 617
f 618 619 620
f 619 621 622
f 621 623 624
f 625 626 627
f 628 629 630
f 631 632 633
f 632 634 635
f 636 637 638
f 637 639 640
f 639 641 642
f 643 644 645
f 646 647 648
f 647 649 650
f 649 651 652
f 651 653 654
f 653 370 655
f 370 373 371
f 373 377 375
f 377 381 379
f 383 386 384
f 388 391 390
f 656 394 393
f 394 398 396
f 398 402 400
f 402 657 404
f 658 407 406
f 407 411 409
f 414 417 416
f 417 421 419
f 421 425 423
f 427 430 429
f 432 436 434
f 436 440 438
f 440 444 442
f 444 448 446
f 448 451 449
f 451 455 453
f 455 659 457
f 459 462 460
f 462 465 463
f 465 469 467
f 469 473 471
f 476 480 478
f 480 484 482
f 660 487 486
f 487 491 489
f 491 494 493
f 497 501 499
f 501 505 503
f 505 509 507
f 509 661 511
f 516 519 517
f 519 523 521
f 524 527 526
f 527 531 529
f 531 534 532
f 534 662 536
f 663 539 538
f 539 543 541
f 543 547 545
f 549 552 550
f 554 557 555
f 557 561 559
f 561 565 563
f 565 664 567
f 569 572 570
f 574 577 575
f 577 581 579
f 583 665 584
f 666 587 586
f 589 592 590
f 592 595 593
f 595 598 596
f 598 602 600
f 602 606 604
f 606 610 608
f 667 613 612
f 668 616 615
f 669 619 618
f 619 623 621
f 625 628 626
f 628 670 629
f 631 634 632
f 636 639 637
f 671 644 643
f 672 647 646
f 647 651 649
f 651 370 653
f 370 377 373
f 377 383 381
f 383 388 386
f 388 673 391
f 656 398 394
f 398 657 402
f 658 411 407
f 414 421 417
f 421 427 425
f 432 440 436
f 440 448 444
f 448 455 451
f 462 469 465
f 469 674 473
f 476 484 480
f 660 491 487
f 491 675 494
f 497 505 501
f 505 661 509
f 514 519 516
f 524 531 527
f 531 662 534
f 663 543 539
f 543 549 547
f 549 676 552
f 554 561 557
f 561 664 565
f 569 677 572
f 574 581 577
f 583 678 665
f 666 679 587
f 680 592 589
f 595 602 598
f 602 610 606
f 681 613 667
f 669 623 619
f 625 670 628
f 631 682 634
f 636 641 639
f 671 683 644
f 684 647 672
f 647 370 651
f 370 383 377
f 383 673 388
f 656 657 398
f 685 411 658
f 414 427 421
f 432 448 440
f 448 659 455
f 459 469 462
f 476 686 484
f 686 491 660
f 491 687 675
f 497 661 505
f 513 519 514
f 523 531 524
f 531 663 662
f 663 549 543
f 549 688 676
f 554 664 561
f 677 581 574
f 583 666 678
f 666 689 679
f 689 592 680
f 592 602 595
f 602 690 610
f 691 613 681
f 625 692 670
f 631 693 682
f 694 647 684
f 647 383 370
f 383 656 673
f 695 411 685
f 414 430 427
f 432 659 448
f 696 469 459
f 476 491 686
f 491 697 687
f 497 698 661
f 513 523 519
f 523 663 531
f 663 688 549
f 699 664 554
f 677 583 581
f 583 689 666
f 689 602 592
f 602 700 690
f 701 613 691
f 625 631 692
f 631 636 693
f 702 647 694
f 383 657 656
f 695 703 411
f 430 659 432
f 704 469 696
f 475 491 476
f 491 705 697
f 497 706 698
f 707 523 513
f 523 688 663
f 708 664 699
f 583 602 689
f 709 613 701
f 625 636 631
f 702 383 647
f 695 710 703
f 414 659 430
f 711 469 704
f 475 705 491
f 497 712 706
f 712 523 707
f 523 713 688
f 714 664 708
f 677 602 583
f 709 715 613
f 623 636 625
f 716 383 702
f 695 717 710
f 414 711 659
f 711 674 469
f 718 705 475
f 497 523 712
f 523 719 713
f 720 664 714
f 677 700 602
f 721 715 709
f 669 636 623
f 722 383 716
f 695 723 717
f 414 674 711
f 674 705 718
f 497 719 523
f 724 664 720
f 677 721 700
f 669 641 636
f 683 383 722
f 413 674 414
f 674 496 705
f 496 719 497
f 725 664 724
f 677 715 721
f 669 726 641
f 671 383 683
f 727 674 413
f 674 719 496
f 725 569 664
f 569 715 677
f 728 383 671
f 729 674 727
f 674 730 719
f 725 715 569
f 726 383 728
f 729 730 674
f 730 715 725
f 669 383 726
f 723 730 729
f 730 731 715
f 732 383 669
f 695 730 723
f 730 733 731
f 732 657 383
f 734 730 695
f 730 735 733
f 616 657 732
f 736 730 734
f 730 737 735
f 616 738 657
f 738 730 736
f 730 668 737
f 616 730 738
f 730 616 668
f 1 371 5
f 5 371 374
f 5 374 4
f 4 374 373
f 4 373 7
f 7 373 376
f 7 376 6
f 6 376 375
f 6 375 9
f 9 375 378
f 9 378 8
f 8 378 377
f 8 377 11
f 11 377 380
f 11 380 10
f 10 380 379
f 10 379 13
f 13 379 382
f 13 382 12
f 12 382 381
f 12 381 15
f 15 381 383
f 15 383 16
f 16 383 385
f 16 385 14
f 14 385 384
f 14 384 18
f 18 384 387
f 18 387 17
f 17 387 386
f 17 386 20
f 20 386 389
f 20 389 19
f 19 389 388
f 19 388 22
f 22 388 390
f 22 390 23
f 23 390 392
f 23 392 21
f 21 392 391
f 21 391 304
f 304 391 673
f 304 673 287
f 287 673 656
f 287 656 25
f 25 656 393
f 25 393 26
f 26 393 395
f 26 395 24
f 24 395 394
f 24 394 28
f 28 394 397
f 28 397 27
f 27 397 396
f 27 396 30
f 30 396 399
f 30 399 29
f 29 399 398
f 29 398 32
f 32 398 401
f 32 401 31
f 31 401 400
f 31 400 34
f 34 400 403
f 34 403 33
f 33 403 402
f 33 402 36
f 36 402 405
f 36 405 35
f 35 405 404
f 35 404 288
f 288 404 657
f 288 657 369
f 369 657 738
f 369 738 367
f 367 738 736
f 367 736 365
f 365 736 734
f 365 734 326
f 326 734 695
f 326 695 316
f 316 695 685
f 316 685 289
f 289 685 658
f 289 658 38
f 38 658 406
f 38 406 39
f 39 406 408
f 39 408 37
f 37 408 407
f 37 407 41
f 41 407 410
f 41 410 40
f 40 410 409
f 40 409 43
f 43 409 412
f 43 412 42
f 42 412 411
f 42 411 334
f 334 411 703
f 334 703 341
f 341 703 710
f 341 710 348
f 348 710 717
f 348 717 354
f 354 717 723
f 354 723 360
f 360 723 729
f 360 729 358
f 358 729 727
f 358 727 45
f 45 727 413
f 45 413 46
f 46 413 415
f 46 415 44
f 44 415 414
f 44 414 48
f 48 414 416
f 48 416 49
f 49 416 418
f 49 418 47
f 47 418 417
f 47 417 51
f 51 417 420
f 51 420 50
f 50 420 419
f 50 419 53
f 53 419 422
f 53 422 52
f 52 422 421
f 52 421 55
f 55 421 424
f 55 424 54
f 54 424 423
f 54 423 57
f 57 423 426
f 57 426 56
f 56 426 425
f 56 425 59
f 59 425 428
f 59 428 58
f 58 428 427
f 58 427 61
f 61 427 429
f 61 429 62
f 62 429 431
f 62 431 60
f 60 431 430
f 60 430 64
f 64 430 433
f 64 433 63
f 63 433 432
f 63 432 66
f 66 432 435
f 66 435 65
f 65 435 434
f 65 434 68
f 68 434 437
f 68 437 67
f 67 437 436
f 67 436 70
f 70 436 439
f 70 439 69
f 69 439 438
f 69 438 72
f 72 438 441
f 72 441 71
f 71 441 440
f 71 440 74
f 74 440 443
f 74 443 73
f 73 443 442
f 73 442 76
f 76 442 445
f 76 445 75
f 75 445 444
f 75 444 78
f 78 444 447
f 78 447 77
f 77 447 446
f 77 446 80
f 80 446 448
f 80 448 81
f 81 448 450
f 81 450 79
f 79 450 449
f 79 449 83
f 83 449 452
f 83 452 82
f 82 452 451
f 82 451 85
f 85 451 454
f 85 454 84
f 84 454 453
f 84 453 87
f 87 453 456
f 87 456 86
f 86 456 455
f 86 455 89
f 89 455 458
f 89 458 88
f 88 458 457
f 88 457 290
f 290 457 659
f 290 659 342
f 342 659 711
f 342 711 335
f 335 711 704
f 335 704 327
f 327 704 696
f 327 696 91
f 91 696 459
f 91 459 92
f 92 459 461
f 92 461 90
f 90 461 460
f 90 460 94
f 94 460 462
f 94 462 95
f 95 462 464
f 95 464 93
f 93 464 463
f 93 463 97
f 97 463 466
f 97 466 96
f 96 466 465
f 96 465 99
f 99 465 468
f 99 468 98
f 98 468 467
f 98 467 101
f 101 467 470
f 101 470 100
f 100 470 469
f 100 469 103
f 103 469 472
f 103 472 102
f 102 472 471
f 102 471 105
f 105 471 474
f 105 474 104
f 104 474 473
f 104 473 305
f 305 473 674
f 305 674 349
f 349 674 718
f 349 718 107
f 107 718 475
f 107 475 108
f 108 475 477
f 108 477 106
f 106 477 476
f 106 476 110
f 110 476 479
f 110 479 109
f 109 479 478
f 109 478 112
f 112 478 481
f 112 481 111
f 111 481 480
f 111 480 114
f 114 480 483
f 114 483 113
f 113 483 482
f 113 482 116
f 116 482 485
f 116 485 115
f 115 485 484
f 115 484 317
f 317 484 686
f 317 686 291
f 291 686 660
f 291 660 118
f 118 660 486
f 118 486 119
f 119 486 488
f 119 488 117
f 117 488 487
f 117 487 121
f 121 487 490
f 121 490 120
f 120 490 489
f 120 489 123
f 123 489 492
f 123 492 122
f 122 492 491
f 122 491 125
f 125 491 493
f 125 493 126
f 126 493 495
f 126 495 124
f 124 495 494
f 124 494 306
f 306 494 675
f 306 675 318
f 318 675 687
f 318 687 328
f 328 687 697
f 328 697 336
f 336 697 705
f 336 705 128
f 128 705 496
f 128 496 129
f 129 496 498
f 129 498 127
f 127 498 497
f 127 497 131
f 131 497 500
f 131 500 130
f 130 500 499
f 130 499 133
f 133 499 502
f 133 502 132
f 132 502 501
f 132 501 135
f 135 501 504
f 135 504 134
f 134 504 503
f 134 503 137
f 137 503 506
f 137 506 136
f 136 506 505
f 136 505 139
f 139 505 508
f 139 508 138
f 138 508 507
f 138 507 141
f 141 507 510
f 141 510 140
f 140 510 509
f 140 509 143
f 143 509 512
f 143 512 142
f 142 512 511
f 142 511 292
f 292 511 661
f 292 661 329
f 329 661 698
f 329 698 337
f 337 698 706
f 337 706 343
f 343 706 712
f 343 712 338
f 338 712 707
f 338 707 145
f 145 707 513
f 145 513 146
f 146 513 515
f 146 515 144
f 144 515 514
f 144 514 148
f 148 514 516
f 148 516 149
f 149 516 518
f 149 518 147
f 147 518 517
f 147 517 151
f 151 517 520
f 151 520 150
f 150 520 519
f 150 519 153
f 153 519 522
f 153 522 152
f 152 522 521
f 152 521 155
f 155 521 523
f 155 523 156
f 156 523 525
f 156 525 154
f 154 525 524
f 154 524 158
f 158 524 526
f 158 526 159
f 159 526 528
f 159 528 157
f 157 528 527
f 157 527 161
f 161 527 530
f 161 530 160
f 160 530 529
f 160 529 163
f 163 529 531
f 163 531 164
f 164 531 533
f 164 533 162
f 162 533 532
f 162 532 166
f 166 532 535
f 166 535 165
f 165 535 534
f 165 534 168
f 168 534 537
f 168 537 167
f 167 537 536
f 167 536 293
f 293 536 662
f 293 662 294
f 294 662 663
f 294 663 170
f 170 663 538
f 170 538 171
f 171 538 540
f 171 540 169
f 169 540 539
f 169 539 173
f 173 539 542
f 173 542 172
f 172 542 541
f 172 541 175
f 175 541 544
f 175 544 174
f 174 544 543
f 174 543 177
f 177 543 546
f 177 546 176
f 176 546 545
f 176 545 179
f 179 545 548
f 179 548 178
f 178 548 547
f 178 547 181
f 181 547 549
f 181 549 182
f 182 549 551
f 182 551 180
f 180 551 550
f 180 550 184
f 184 550 553
f 184 553 183
f 183 553 552
f 183 552 307
f 307 552 676
f 307 676 319
f 319 676 688
f 319 688 344
f 344 688 713
f 344 713 350
f 350 713 719
f 350 719 361
f 361 719 730
f 361 730 356
f 356 730 725
f 356 725 355
f 355 725 724
f 355 724 351
f 351 724 720
f 351 720 345
f 345 720 714
f 345 714 339
f 339 714 708
f 339 708 330
f 330 708 699
f 330 699 186
f 186 699 554
f 186 554 187
f 187 554 556
f 187 556 185
f 185 556 555
f 185 555 189
f 189 555 558
f 189 558 188
f 188 558 557
f 188 557 191
f 191 557 560
f 191 560 190
f 190 560 559
f 190 559 193
f 193 559 562
f 193 562 192
f 192 562 561
f 192 561 195
f 195 561 564
f 195 564 194
f 194 564 563
f 194 563 197
f 197 563 566
f 197 566 196
f 196 566 565
f 196 565 199
f 199 565 568
f 199 568 198
f 198 568 567
f 198 567 295
f 295 567 664
f 295 664 201
f 201 664 569
f 201 569 202
f 202 569 571
f 202 571 200
f 200 571 570
f 200 570 204
f 204 570 573
f 204 573 203
f 203 573 572
f 203 572 308
f 308 572 677
f 308 677 206
f 206 677 574
f 206 574 207
f 207 574 576
f 207 576 205
f 205 576 575
f 205 575 209
f 209 575 578
f 209 578 208
f 208 578 577
f 208 577 211
f 211 577 580
f 211 580 210
f 210 580 579
f 210 579 213
f 213 579 582
f 213 582 212
f 212 582 581
f 212 581 215
f 215 581 583
f 215 583 216
f 216 583 585
f 216 585 214
f 214 585 584
f 214 584 296
f 296 584 665
f 296 665 309
f 309 665 678
f 309 678 297
f 297 678 666
f 297 666 218
f 218 666 586
f 218 586 219
f 219 586 588
f 219 588 217
f 217 588 587
f 217 587 310
f 310 587 679
f 310 679 320
f 320 679 689
f 320 689 311
f 311 689 680
f 311 680 221
f 221 680 589
f 221 589 222
f 222 589 591
f 222 591 220
f 220 591 590
f 220 590 224
f 224 590 592
f 224 592 225
f 225 592 594
f 225 594 223
f 223 594 593
f 223 593 227
f 227 593 595
f 227 595 228
f 228 595 597
f 228 597 226
f 226 597 596
f 226 596 230
f 230 596 599
f 230 599 229
f 229 599 598
f 229 598 232
f 232 598 601
f 232 601 231
f 231 601 600
f 231 600 234
f 234 600 603
f 234 603 233
f 233 603 602
f 233 602 236
f 236 602 605
f 236 605 235
f 235 605 604
f 235 604 238
f 238 604 607
f 238 607 237
f 237 607 606
f 237 606 240
f 240 606 609
f 240 609 239
f 239 609 608
f 239 608 242
f 242 608 611
f 242 611 241
f 241 611 610
f 241 610 321
f 321 610 690
f 321 690 331
f 331 690 700
f 331 700 352
f 352 700 721
f 352 721 340
f 340 721 709
f 340 709 332
f 332 709 701
f 332 701 322
f 322 701 691
f 322 691 312
f 312 691 681
f 312 681 298
f 298 681 667
f 298 667 244
f 244 667 612
f 244 612 245
f 245 612 614
f 245 614 243
f 243 614 613
f 243 613 346
f 346 613 715
f 346 715 362
f 362 715 731
f 362 731 364
f 364 731 733
f 364 733 366
f 366 733 735
f 366 735 368
f 368 735 737
f 368 737 299
f 299 737 668
f 299 668 247
f 247 668 615
f 247 615 248
f 248 615 617
f 248 617 246
f 246 617 616
f 246 616 363
f 363 616 732
f 363 732 300
f 300 732 669
f 300 669 250
f 250 669 618
f 250 618 251
f 251 618 620
f 251 620 249
f 249 620 619
f 249 619 253
f 253 619 622
f 253 622 252
f 252 622 621
f 252 621 255
f 255 621 624
f 255 624 254
f 254 624 623
f 254 623 257
f 257 623 625
f 257 625 258
f 258 625 627
f 258 627 256
f 256 627 626
f 256 626 260
f 260 626 628
f 260 628 261
f 261 628 630
f 261 630 259
f 259 630 629
f 259 629 301
f 301 629 670
f 301 670 323
f 323 670 692
f 323 692 263
f 263 692 631
f 263 631 264
f 264 631 633
f 264 633 262
f 262 633 632
f 262 632 266
f 266 632 635
f 266 635 265
f 265 635 634
f 265 634 313
f 313 634 682
f 313 682 324
f 324 682 693
f 324 693 268
f 268 693 636
f 268 636 269
f 269 636 638
f 269 638 267
f 267 638 637
f 267 637 271
f 271 637 640
f 271 640 270
f 270 640 639
f 270 639 273
f 273 639 642
f 273 642 272
f 272 642 641
f 272 641 357
f 357 641 726
f 357 726 359
f 359 726 728
f 359 728 302
f 302 728 671
f 302 671 275
f 275 671 643
f 275 643 276
f 276 643 645
f 276 645 274
f 274 645 644
f 274 644 314
f 314 644 683
f 314 683 353
f 353 683 722
f 353 722 347
f 347 722 716
f 347 716 333
f 333 716 702
f 333 702 325
f 325 702 694
f 325 694 315
f 315 694 684
f 315 684 303
f 303 684 672
f 303 672 278
f 278 672 646
f 278 646 279
f 279 646 648
f 279 648 277
f 277 648 647
f 277 647 281
f 281 647 650
f 281 650 280
f 280 650 649
f 280 649 283
f 283 649 652
f 283 652 282
f 282 652 651
f 282 651 285
f 285 651 654
f 285 654 284
f 284 654 653
f 284 653 286
f 286 653 655
f 286 655 2
f 2 655 370
f 2 370 3
f 3 370 372
f 3 372 1
f 1 372 371
