o 
v 31.314 0 -51.244
v 20.39 0 -52.71
v 31.01 0 -51.65
v 34.53 0 -50.381
v 34.844 0 -49.75
v 34.66 0 -50.12
v 34.314 0 -50.921
v 34.413 0 -50.653
v 34.188 0 -51.385
v 34.237 0 -51.17
v 34.212 0 -51.777
v 34.17 0 -51.55
v 34.556 0 -52.561
v 34.339 0 -52.112
v 35.278 0 -53.829
v 34.868 0 -53.131
v 38.5 0 -65.92
v 38.894 0 -63.892
v 38.78 0 -64.46
v 35.27 0 -61.93
v 36.21 0 -64.79
v 36.01 0 -62.69
v 34.364 0 -59.079
v 34.478 0 -60.296
v 34.42 0 -59.66
v 34.174 0 -58.068
v 34.286 0 -58.565
v 33.794 0 -56.929
v 34.014 0 -57.539
v 33.243 0 -55.598
v 33.5 0 -56.19
v 32.679 0 -54.445
v 32.967 0 -55.011
v 32.098 0 -53.439
v 32.387 0 -53.916
v 31.595 0 -52.706
v 31.82 0 -53.03
v 31.027 0 -51.741
v 21.342 0 -54.911
v 21.125 0 -54.602
v 21.16 0 -54.7
v 22.259 0 -55.634
v 21.742 0 -55.247
v 23.238 0 -56.273
v 22.791 0 -56
v 23.59 0 -56.329
v 23.5 0 -56.38
v 24.024 0 -55.961
v 23.77 0 -56.185
v 24.694 0 -55.33
v 24.337 0 -55.672
v 25.453 0 -54.579
v 25.08 0 -54.95
v 26.831 0 -55.931
v 26.72 0 -54.914
v 26.77 0 -55.39
v 27 0 -57.265
v 26.909 0 -56.569
v 27.196 0 -58.679
v 27.097 0 -57.981
v 27.428 0 -60.162
v 27.29 0 -59.32
v 27.68 0 -61.296
v 27.552 0 -60.802
v 28.012 0 -62.061
v 27.828 0 -61.698
v 28.85 0 -63.36
v 28.25 0 -62.44
v 29.44 0 -73.66
v 28.58 0 -67.01
v 28.3 0 -70.65
v 32.22 0 -83.1
v 31.14 0 -79.8
v 31.71 0 -82.94
v 38.3 0 -85.44
v 34.764 0 -84.071
v 35.52 0 -84.37
v 41.093 0 -90.991
v 40.94 0 -90.36
v 41.009 0 -90.707
v 41.347 0 -91.453
v 41.202 0 -91.232
v 41.78 0 -91.91
v 41.536 0 -91.672
v 43.351 0 -96.739
v 42.94 0 -94.9
v 43.159 0 -95.971
v 43.872 0 -97.821
v 43.571 0 -97.317
v 44.93 0 -99.06
v 44.307 0 -98.364
v 47.52 0 -99.93
v 45.8 0 -100
v 50.87 0 -98.69
v 49.23 0 -99.87
v 53 0 -96.16
v 52.5 0 -97.53
v 53.39 0 -91.7
v 53.51 0 -94.8
v 52.73 0 -88.46
v 53.27 0 -88.62
v 53.53 0 -84.94
v 52.95 0 -86.45
v 53.71 0 -85.73
v 53.373 0 -84.442
v 53.449 0 -84.652
v 53.197 0 -84.208
v 53.291 0 -84.298
v 52.94 0 -84.15
v 53.083 0 -84.163
v 54.385 0 -82.175
v 53.78 0 -82.67
v 54.111 0 -82.411
v 54.768 0 -81.762
v 54.604 0 -81.959
v 54.94 0 -81.42
v 54.88 0 -81.583
v 56.56 0 -73.66
v 55.8 0 -79.99
v 56.56 0 -79.01
v 57.823 0 -71.521
v 57.48 0 -72.11
v 58.241 0 -70.685
v 58.072 0 -71.058
v 58.396 0 -70.063
v 58.344 0 -70.366
v 58.398 0 -69.198
v 58.41 0 -69.74
v 58.275 0 -68.489
v 58.356 0 -68.787
v 57.966 0 -68.15
v 58.148 0 -68.283
v 57.23 0 -67.96
v 57.72 0 -68.07
v 58.435 0 -63.908
v 57.23 0 -64.83
v 58.05 0 -64.22
v 58.899 0 -63.239
v 58.713 0 -63.597
v 59.066 0 -62.18
v 59.011 0 -62.783
v 59.08 0 -60.4
v 59.08 0 -61.38
v 61.6 0 -56.68
v 60.34 0 -59.07
v 61.6 0 -57.74
v 62.316 0 -55.333
v 61.924 0 -55.491
v 62.16 0 -55.4
v 62.636 0 -55.118
v 62.478 0 -55.236
v 62.907 0 -54.842
v 62.782 0 -54.984
v 63.134 0 -54.489
v 63 0 -54.7
v 65.224 0 -54.183
v 64.133 0 -54.197
v 64.73 0 -54.19
v 65.985 0 -54.12
v 65.637 0 -54.16
v 66.546 0 -53.977
v 66.283 0 -54.06
v 67.191 0 -53.625
v 66.79 0 -53.87
v 67.802 0 -53.01
v 67.53 0 -53.336
v 68.128 0 -52.275
v 68.003 0 -52.654
v 68.161 0 -51.623
v 68.17 0 -51.88
v 68.039 0 -51.269
v 68.123 0 -51.428
v 67.66 0 -50.964
v 67.89 0 -51.122
v 67.006 0 -50.584
v 67.33 0 -50.77
v 67.12 0 -48.813
v 66.92 0 -49.12
v 67.045 0 -48.959
v 67.12 0 -48.554
v 67.145 0 -48.679
v 66.92 0 -48.32
v 67.045 0 -48.436
v 64.84 0 -45.79
v 66.57 0 -47.21
v 66.47 0 -46.28
v 63.807 0 -45.514
v 64.345 0 -45.648
v 62.7 0 -45.293
v 63.25 0 -45.394
v 61.72 0 -45.17
v 62.182 0 -45.217
v 58.69 0 -42.68
v 60.26 0 -45.05
v 59.48 0 -43.87
v 60.454 0 -32.604
v 60.09 0 -34.72
v 61.051 0 -29.074
v 60.779 0 -30.696
v 61.385 0 -26.994
v 61.257 0 -27.814
v 61.353 0 -26.684
v 61.42 0 -26.69
v 60.958 0 -26.75
v 61.194 0 -26.706
v 60.315 0 -26.896
v 60.659 0 -26.814
v 59.341 0 -27.144
v 59.94 0 -26.99
v 58.592 0 -27.438
v 58.912 0 -27.28
v 58.038 0 -27.965
v 58.321 0 -27.653
v 61.432 0 -23.076
v 56.74 0 -27.21
v 58.554 0 -25.652
v 68.435 0 -16.66
v 64.887 0 -19.93
v 73.86 0 -11.54
v 71.588 0 -13.715
v 76.641 0 -8.746
v 75.455 0 -9.951
v 78.102 0 -7.131
v 77.497 0 -7.835
v 78.87 0 -5.99
v 78.534 0 -6.546
v 79.337 0 -5.09
v 79.14 0 -5.493
v 79.556 0 -4.437
v 79.473 0 -4.749
v 79.61 0 -3.77
v 79.598 0 -4.121
v 79.595 0 -3.312
v 79.606 0 -3.529
v 79.558 0 -2.985
v 79.579 0 -3.128
v 79.51 0 -2.86
v 79.535 0 -2.893
v 79.264 0 -2.963
v 79.429 0 -2.887
v 78.736 0 -3.23
v 79.029 0 -3.08
v 78.03 0 -3.6
v 78.399 0 -3.406
v 76.848 0 -4.376
v 77.483 0 -3.931
v 75.152 0 -5.737
v 76.084 0 -4.967
v 72.63 0 -7.94
v 74.014 0 -6.717
v 70.078 0 -10.206
v 71.424 0 -9.01
v 63.75 0 -15.81
v 65.952 0 -13.864
v 64.8 0 -14.88
v 61.763 0 -17.569
v 62.721 0 -16.72
v 60.249 0 -18.911
v 60.922 0 -18.313
v 59.39 0 -19.677
v 59.79 0 -19.32
v 54.161 0 -20.033
v 54.28 0 -24.18
v 54.2 0 -21.22
v 54.057 0 -18.563
v 54.118 0 -19.176
v 53.84 0 -17.725
v 53.969 0 -18.107
v 53.22 0 -16.41
v 53.66 0 -17.33
v 55.87 0 -6.88
v 53.41 0 -9.27
v 54.64 0 -8.08
v 61.15 0 -4.75
v 58.25 0 -6.34
v 60.64 0 -5.81
v 60.95 0 -2.98
v 61.65 0 -3.67
v 52.4 0 -2.17
v 60.26 0 -2.27
v 48.413 0 -2.122
v 50.305 0 -2.141
v 45.541 0 -2.114
v 46.799 0 -2.114
v 44.4 0 -2.14
v 44.716 0 -2.123
v 44.331 0 -2.294
v 44.363 0 -2.188
v 44.286 0 -2.643
v 44.305 0 -2.449
v 44.27 0 -3.11
v 44.274 0 -2.867
v 44.314 0 -3.727
v 44.281 0 -3.435
v 44.463 0 -4.266
v 44.374 0 -4
v 44.74 0 -4.83
v 44.584 0 -4.539
v 45.824 0 -11.497
v 45.917 0 -9.231
v 45.87 0 -10.38
v 44.816 0 -17.417
v 45.297 0 -15.233
v 45.01 0 -16.53
v 44.49 0 -18.946
v 44.64 0 -18.234
v 44.297 0 -19.919
v 44.373 0 -19.52
v 44.311 0 -20.241
v 44.27 0 -20.11
v 44.61 0 -20.783
v 44.429 0 -20.471
v 45.122 0 -21.571
v 44.845 0 -21.155
v 44.955 0 -26.143
v 45.202 0 -27.079
v 45.13 0 -26.79
v 44.586 0 -25.228
v 44.776 0 -25.626
v 44.154 0 -24.745
v 44.381 0 -24.937
v 43.72 0 -24.612
v 43.9 0 -24.64
v 43.425 0 -24.631
v 43.564 0 -24.609
v 43.17 0 -24.761
v 43.296 0 -24.681
v 42.903 0 -25.044
v 43.04 0 -24.87
v 42.74 0 -25.779
v 42.807 0 -25.314
v 42.657 0 -27.697
v 42.693 0 -26.54
v 42.54 0 -33.47
v 42.62 0 -29.35
v 35.774 0 -24.688
v 36.75 0 -27.3
v 36.243 0 -25.928
v 35.033 0 -22.802
v 35.364 0 -23.629
v 34.69 0 -22.05
v 34.802 0 -22.259
v 34.538 0 -21.949
v 34.633 0 -22.012
v 33.31 0 -21.12
v 34.105 0 -21.658
v 33.94 0 -21.54
v 34.205 0 -18.289
v 33.798 0 -18.875
v 33.94 0 -18.7
v 34.329 0 -17.271
v 34.333 0 -17.801
v 33.943 0 -16.23
v 34.197 0 -16.736
v 33.456 0 -15.716
v 33.57 0 -15.79
v 33.144 0 -15.579
v 33.311 0 -15.644
v 32.774 0 -15.479
v 32.962 0 -15.523
v 31.93 0 -15.4
v 32.59 0 -15.45
v 29.63 0 -9.71
v 30.79 0 -12.55
v 30.22 0 -3.843
v 29.873 0 -4.097
v 30.05 0 -3.97
v 30.41 0 -3.476
v 30.337 0 -3.696
v 30.467 0 -2.606
v 30.45 0 -3.131
v 30.47 0 0
v 30.47 0 -1.85
v 22.68 0 -0.56
v 26.99 0 -0.02
v 23.49 0 -0.02
v 21.97 0 -2.78
v 21.87 0 -1.09
v 22.081 0 -3.968
v 22.02 0 -3.45
v 22.296 0 -4.782
v 22.167 0 -4.393
v 22.74 0 -5.69
v 22.482 0 -5.195
v 23.406 0 -9.948
v 23.4 0 -6.93
v 23.4 0 -9.31
v 23.444 0 -11.049
v 23.421 0 -10.536
v 23.505 0 -11.746
v 23.473 0 -11.46
v 23.587 0 -11.935
v 23.54 0 -11.88
v 23.735 0 -12.067
v 23.653 0 -11.999
v 23.923 0 -12.206
v 23.827 0 -12.138
v 24.167 0 -12.358
v 24.02 0 -12.27
v 24.416 0 -13.726
v 24.405 0 -13.054
v 24.41 0 -13.4
v 24.479 0 -14.2
v 24.438 0 -13.989
v 24.631 0 -14.501
v 24.542 0 -14.367
v 24.444 0 -20.104
v 24.66 0 -18.34
v 24.546 0 -19.262
v 24.296 0 -21.416
v 24.36 0 -20.834
v 24.24 0 -22
v 24.254 0 -21.816
v 24.411 0 -22.234
v 24.285 0 -22.093
v 24.859 0 -22.623
v 24.606 0 -22.414
v 25.49 0 -23.09
v 25.158 0 -22.852
v 26.964 0 -26.766
v 26.932 0 -26.214
v 26.94 0 -26.46
v 27.164 0 -27.618
v 27.039 0 -27.15
v 27.573 0 -28.835
v 27.341 0 -28.177
v 28.255 0 -30.612
v 27.86 0 -29.6
v 28.929 0 -32.004
v 28.583 0 -31.368
v 30 0 -33.459
v 29.373 0 -32.656
v 33.01 0 -37.11
v 30.89 0 -34.55
v 30.16 0 -44.367
v 32.61 0 -42.6
v 30.89 0 -43.84
v 27.02 0 -45.12
v 28.555 0 -45.093
v 28.1 0 -45.1
v 24.8 0 -48.47
v 25.86 0 -46.38
v 24.7 0 -47.64
v 24.9 0 -49.31
v 22.64 0 -51.01
v 32.015 0 -50.413
v 36.269 0 -65.351
v 31.102 0 -51.906
v 21.071 0 -54.454
v 30.911 0 -78.59
v 34.049 0 -83.792
v 42.062 0 -92.181
v 42.737 0 -93.912
v 52.518 0 -88.396
v 52.678 0 -86.711
v 52.694 0 -84.1
v 53.276 0 -83.078
v 55.594 0 -80.259
v 66.608 0 -47.459
v 57.68 0 -28.41
v 56.587 0 -27.345
v 44.875 0 -5.078
v 37.463 0 -29.212
v 34.412 0 -21.866
v 34.266 0 -21.768
v 24.75 0 -14.61
v 26.918 0 -25.935
v 35.79 0 -54.66
v 36.324 0 -65.861
v 34.538 0 -60.746
v 31.228 0 -52.13
v 21.003 0 -54.266
v 25.794 0 -54.246
v 26.673 0 -54.485
v 29.865 0 -74.82
v 30.695 0 -77.584
v 40.849 0 -89.998
v 52.367 0 -88.326
v 52.475 0 -86.935
v 55.401 0 -80.536
v 61.603 0 -56.231
v 66.862 0 -49.212
v 66.659 0 -47.698
v 57.279 0 -28.9
v 45.025 0 -5.369
v 45.43 0 -22.01
v 45.273 0 -27.293
v 33.68 0 -19.064
v 24.831 0 -16.9
v 28.912 0 -45.051
v 34.973 0 -49.448
v 36.611 0 -56.03
v 36.373 0 -66.299
v 31.394 0 -52.401
v 20.922 0 -54.05
v 30.199 0 -75.796
v 30.466 0 -76.685
v 42.577 0 -93.225
v 52.333 0 -87.135
v 52.909 0 -83.436
v 55.231 0 -80.806
v 61.621 0 -55.921
v 61.766 0 -55.585
v 63.721 0 -54.216
v 66.801 0 -49.325
v 66.719 0 -47.915
v 68.666 0 -11.459
v 67.266 0 -12.701
v 45.509 0 -14.191
v 45.821 0 -22.568
v 38.017 0 -30.652
v 33.585 0 -19.276
v 29.754 0 -4.264
v 24.384 0 -12.794
v 26.9 0 -25.64
v 29.247 0 -44.939
v 32.916 0 -49.38
v 36.413 0 -66.642
v 34.624 0 -61.072
v 20.834 0 -53.814
v 26.089 0 -53.965
v 26.63 0 -54.121
v 32.459 0 -83.186
v 40.712 0 -89.609
v 42.431 0 -92.76
v 52.268 0 -88.238
v 54.992 0 -81.263
v 55.092 0 -81.054
v 61.67 0 -55.717
v 63.269 0 -54.348
v 63.449 0 -54.261
v 66.783 0 -50.434
v 66.74 0 -49.451
v 66.785 0 -48.099
v 58.881 0 -20.128
v 53.31 0 -12.84
v 45.349 0 -27.442
v 29.683 0 -4.552
v 24.883 0 -14.75
v 24.937 0 -15.922
v 26.879 0 -25.345
v 35.051 0 -49.179
v 36.443 0 -66.869
v 20.74 0 -53.57
v 26.322 0 -53.751
v 26.594 0 -53.838
v 40.519 0 -89.176
v 52.242 0 -87.325
v 66.682 0 -49.585
v 66.853 0 -48.238
v 56.99 0 -29.188
v 45.181 0 -5.685
v 45.658 0 -13.294
v 33.51 0 -19.519
v 24.343 0 -12.603
v 24.979 0 -15.305
v 26.855 0 -25.066
v 29.638 0 -44.722
v 35.087 0 -48.909
v 36.46 0 -66.96
v 26.566 0 -53.652
v 32.864 0 -83.338
v 42.27 0 -92.439
v 52.194 0 -87.519
v 56.787 0 -29.272
v 56.483 0 -27.472
v 45.758 0 -12.432
v 45.437 0 -27.537
v 38.455 0 -31.713
v 33.452 0 -19.801
v 29.646 0 -5.046
v 24.96 0 -14.948
v 26.83 0 -24.82
v 35.088 0 -48.604
v 34.966 0 -61.602
v 26.481 0 -53.618
v 33.405 0 -83.544
v 40.261 0 -88.681
v 52.209 0 -88.117
v 52.611 0 -83.957
v 52.685 0 -83.732
v 66.631 0 -49.72
v 56.647 0 -29.152
v 45.546 0 -27.586
v 33.41 0 -20.13
v 29.632 0 -5.828
v 26.003 0 -23.46
v 26.784 0 -24.467
v 35.06 0 -48.23
v 34.759 0 -61.337
v 26.55 0 -53.58
v 66.645 0 -50.303
v 66.59 0 -49.85
v 56.542 0 -28.825
v 56.423 0 -27.611
v 45.335 0 -6.008
v 45.68 0 -27.6
v 38.816 0 -32.488
v 29.63 0 -6.98
v 26.355 0 -23.739
v 32.71 0 -41.62
v 35.031 0 -47.98
v 39.931 0 -88.105
v 66.577 0 -50.173
v 56.45 0 -28.29
v 58.296 0 -20.645
v 45.477 0 -6.319
v 45.936 0 -8.411
v 45.923 0 -27.582
v 26.58 0 -23.97
v 26.711 0 -24.198
v 32.739 0 -41.298
v 34.997 0 -47.755
v 39.52 0 -87.43
v 66.564 0 -50.028
v 57.669 0 -21.199
v 45.6 0 -6.6
v 46.139 0 -23.06
v 46.123 0 -27.518
v 32.773 0 -40.887
v 34.96 0 -47.565
v 57.033 0 -21.76
v 45.757 0 -7.016
v 46.393 0 -23.504
v 46.294 0 -27.394
v 24.272 0 -12.463
v 32.81 0 -40.415
v 37.304 0 -57.315
v 36.509 0 -66.952
v 56.401 0 -27.781
v 45.861 0 -7.396
v 45.919 0 -7.83
v 46.45 0 -27.196
v 32.847 0 -39.906
v 37.875 0 -58.524
v 36.619 0 -66.909
v 52.183 0 -87.952
v 56.42 0 -22.3
v 46.591 0 -23.913
v 39.141 0 -33.073
v 32.881 0 -39.386
v 34.923 0 -47.418
v 36.781 0 -66.836
v 52.18 0 -87.73
v 39.47 0 -33.56
v 32.91 0 -38.88
v 38.326 0 -59.665
v 36.988 0 -66.738
v 56.412 0 -28.001
v 46.744 0 -24.303
v 38.659 0 -60.748
v 37.231 0 -66.618
v 46.86 0 -24.69
v 33.822 0 -48.367
v 37.5 0 -66.48
v 46.964 0 -25.116
v 39.696 0 -33.854
v 34.535 0 -47.596
v 47.024 0 -25.433
v 39.907 0 -34.119
v 34.86 0 -47.29
v 47.037 0 -25.688
v 40.095 0 -34.344
v 34.889 0 -47.324
v 47.003 0 -25.923
v 40.249 0 -34.518
v 38.968 0 -63.43
v 46.918 0 -26.186
v 40.361 0 -34.63
v 39.002 0 -63.03
v 46.78 0 -26.52
v 40.42 0 -34.67
v 38.999 0 -62.65
v 46.608 0 -26.909
v 38.957 0 -62.248
v 40.485 0 -34.649
v 38.88 0 -61.78
v 40.613 0 -34.588
v 40.792 0 -34.495
v 41.014 0 -34.375
v 41.54 0 -34.08
v 41.267 0 -34.235
v 20.39 10 -52.71
v 31.314 10 -51.244
v 31.01 10 -51.65
v 34.844 10 -49.75
v 34.53 10 -50.381
v 34.66 10 -50.12
v 34.314 10 -50.921
v 34.413 10 -50.653
v 34.188 10 -51.385
v 34.237 10 -51.17
v 34.212 10 -51.777
v 34.17 10 -51.55
v 34.556 10 -52.561
v 34.339 10 -52.112
v 35.278 10 -53.829
v 34.868 10 -53.131
v 38.894 10 -63.892
v 38.5 10 -65.92
v 38.78 10 -64.46
v 36.21 10 -64.79
v 35.27 10 -61.93
v 36.01 10 -62.69
v 34.478 10 -60.296
v 34.364 10 -59.079
v 34.42 10 -59.66
v 34.174 10 -58.068
v 34.286 10 -58.565
v 33.794 10 -56.929
v 34.014 10 -57.539
v 33.243 10 -55.598
v 33.5 10 -56.19
v 32.679 10 -54.445
v 32.967 10 -55.011
v 32.098 10 -53.439
v 32.387 10 -53.916
v 31.595 10 -52.706
v 31.82 10 -53.03
v 31.027 10 -51.741
v 21.125 10 -54.602
v 21.342 10 -54.911
v 21.16 10 -54.7
v 22.259 10 -55.634
v 21.742 10 -55.247
v 23.238 10 -56.273
v 22.791 10 -56
v 23.59 10 -56.329
v 23.5 10 -56.38
v 24.024 10 -55.961
v 23.77 10 -56.185
v 24.694 10 -55.33
v 24.337 10 -55.672
v 25.453 10 -54.579
v 25.08 10 -54.95
v 26.72 10 -54.914
v 26.831 10 -55.931
v 26.77 10 -55.39
v 27 10 -57.265
v 26.909 10 -56.569
v 27.196 10 -58.679
v 27.097 10 -57.981
v 27.428 10 -60.162
v 27.29 10 -59.32
v 27.68 10 -61.296
v 27.552 10 -60.802
v 28.012 10 -62.061
v 27.828 10 -61.698
v 28.85 10 -63.36
v 28.25 10 -62.44
v 28.58 10 -67.01
v 29.44 10 -73.66
v 28.3 10 -70.65
v 31.14 10 -79.8
v 32.22 10 -83.1
v 31.71 10 -82.94
v 34.764 10 -84.071
v 38.3 10 -85.44
v 35.52 10 -84.37
v 40.94 10 -90.36
v 41.093 10 -90.991
v 41.009 10 -90.707
v 41.347 10 -91.453
v 41.202 10 -91.232
v 41.78 10 -91.91
v 41.536 10 -91.672
v 42.94 10 -94.9
v 43.351 10 -96.739
v 43.159 10 -95.971
v 43.872 10 -97.821
v 43.571 10 -97.317
v 44.93 10 -99.06
v 44.307 10 -98.364
v 47.52 10 -99.93
v 45.8 10 -100
v 50.87 10 -98.69
v 49.23 10 -99.87
v 53 10 -96.16
v 52.5 10 -97.53
v 53.39 10 -91.7
v 53.51 10 -94.8
v 52.73 10 -88.46
v 53.27 10 -88.62
v 52.95 10 -86.45
v 53.53 10 -84.94
v 53.71 10 -85.73
v 53.373 10 -84.442
v 53.449 10 -84.652
v 53.197 10 -84.208
v 53.291 10 -84.298
v 52.94 10 -84.15
v 53.083 10 -84.163
v 53.78 10 -82.67
v 54.385 10 -82.175
v 54.111 10 -82.411
v 54.768 10 -81.762
v 54.604 10 -81.959
v 54.94 10 -81.42
v 54.88 10 -81.583
v 55.8 10 -79.99
v 56.56 10 -73.66
v 56.56 10 -79.01
v 57.823 10 -71.521
v 57.48 10 -72.11
v 58.241 10 -70.685
v 58.072 10 -71.058
v 58.396 10 -70.063
v 58.344 10 -70.366
v 58.398 10 -69.198
v 58.41 10 -69.74
v 58.275 10 -68.489
v 58.356 10 -68.787
v 57.966 10 -68.15
v 58.148 10 -68.283
v 57.23 10 -67.96
v 57.72 10 -68.07
v 57.23 10 -64.83
v 58.435 10 -63.908
v 58.05 10 -64.22
v 58.899 10 -63.239
v 58.713 10 -63.597
v 59.066 10 -62.18
v 59.011 10 -62.783
v 59.08 10 -60.4
v 59.08 10 -61.38
v 60.34 10 -59.07
v 61.6 10 -56.68
v 61.6 10 -57.74
v 61.924 10 -55.491
v 62.316 10 -55.333
v 62.16 10 -55.4
v 62.636 10 -55.118
v 62.478 10 -55.236
v 62.907 10 -54.842
v 62.782 10 -54.984
v 63.134 10 -54.489
v 63 10 -54.7
v 64.133 10 -54.197
v 65.224 10 -54.183
v 64.73 10 -54.19
v 65.985 10 -54.12
v 65.637 10 -54.16
v 66.546 10 -53.977
v 66.283 10 -54.06
v 67.191 10 -53.625
v 66.79 10 -53.87
v 67.802 10 -53.01
v 67.53 10 -53.336
v 68.128 10 -52.275
v 68.003 10 -52.654
v 68.161 10 -51.623
v 68.17 10 -51.88
v 68.039 10 -51.269
v 68.123 10 -51.428
v 67.66 10 -50.964
v 67.89 10 -51.122
v 67.006 10 -50.584
v 67.33 10 -50.77
v 66.92 10 -49.12
v 67.12 10 -48.813
v 67.045 10 -48.959
v 67.12 10 -48.554
v 67.145 10 -48.679
v 66.92 10 -48.32
v 67.045 10 -48.436
v 66.57 10 -47.21
v 64.84 10 -45.79
v 66.47 10 -46.28
v 63.807 10 -45.514
v 64.345 10 -45.648
v 62.7 10 -45.293
v 63.25 10 -45.394
v 61.72 10 -45.17
v 62.182 10 -45.217
v 60.26 10 -45.05
v 58.69 10 -42.68
v 59.48 10 -43.87
v 60.454 10 -32.604
v 60.09 10 -34.72
v 61.051 10 -29.074
v 60.779 10 -30.696
v 61.385 10 -26.994
v 61.257 10 -27.814
v 61.353 10 -26.684
v 61.42 10 -26.69
v 60.958 10 -26.75
v 61.194 10 -26.706
v 60.315 10 -26.896
v 60.659 10 -26.814
v 59.341 10 -27.144
v 59.94 10 -26.99
v 58.592 10 -27.438
v 58.912 10 -27.28
v 58.038 10 -27.965
v 58.321 10 -27.653
v 56.74 10 -27.21
v 61.432 10 -23.076
v 58.554 10 -25.652
v 68.435 10 -16.66
v 64.887 10 -19.93
v 73.86 10 -11.54
v 71.588 10 -13.715
v 76.641 10 -8.746
v 75.455 10 -9.951
v 78.102 10 -7.131
v 77.497 10 -7.835
v 78.87 10 -5.99
v 78.534 10 -6.546
v 79.337 10 -5.09
v 79.14 10 -5.493
v 79.556 10 -4.437
v 79.473 10 -4.749
v 79.61 10 -3.77
v 79.598 10 -4.121
v 79.595 10 -3.312
v 79.606 10 -3.529
v 79.558 10 -2.985
v 79.579 10 -3.128
v 79.51 10 -2.86
v 79.535 10 -2.893
v 79.264 10 -2.963
v 79.429 10 -2.887
v 78.736 10 -3.23
v 79.029 10 -3.08
v 78.03 10 -3.6
v 78.399 10 -3.406
v 76.848 10 -4.376
v 77.483 10 -3.931
v 75.152 10 -5.737
v 76.084 10 -4.967
v 72.63 10 -7.94
v 74.014 10 -6.717
v 70.078 10 -10.206
v 71.424 10 -9.01
v 65.952 10 -13.864
v 63.75 10 -15.81
v 64.8 10 -14.88
v 61.763 10 -17.569
v 62.721 10 -16.72
v 60.249 10 -18.911
v 60.922 10 -18.313
v 59.39 10 -19.677
v 59.79 10 -19.32
v 54.28 10 -24.18
v 54.161 10 -20.033
v 54.2 10 -21.22
v 54.057 10 -18.563
v 54.118 10 -19.176
v 53.84 10 -17.725
v 53.969 10 -18.107
v 53.22 10 -16.41
v 53.66 10 -17.33
v 53.41 10 -9.27
v 55.87 10 -6.88
v 54.64 10 -8.08
v 58.25 10 -6.34
v 61.15 10 -4.75
v 60.64 10 -5.81
v 60.95 10 -2.98
v 61.65 10 -3.67
v 52.4 10 -2.17
v 60.26 10 -2.27
v 48.413 10 -2.122
v 50.305 10 -2.141
v 45.541 10 -2.114
v 46.799 10 -2.114
v 44.4 10 -2.14
v 44.716 10 -2.123
v 44.331 10 -2.294
v 44.363 10 -2.188
v 44.286 10 -2.643
v 44.305 10 -2.449
v 44.27 10 -3.11
v 44.274 10 -2.867
v 44.314 10 -3.727
v 44.281 10 -3.435
v 44.463 10 -4.266
v 44.374 10 -4
v 44.74 10 -4.83
v 44.584 10 -4.539
v 45.917 10 -9.231
v 45.824 10 -11.497
v 45.87 10 -10.38
v 45.297 10 -15.233
v 44.816 10 -17.417
v 45.01 10 -16.53
v 44.49 10 -18.946
v 44.64 10 -18.234
v 44.297 10 -19.919
v 44.373 10 -19.52
v 44.311 10 -20.241
v 44.27 10 -20.11
v 44.61 10 -20.783
v 44.429 10 -20.471
v 45.122 10 -21.571
v 44.845 10 -21.155
v 45.202 10 -27.079
v 44.955 10 -26.143
v 45.13 10 -26.79
v 44.586 10 -25.228
v 44.776 10 -25.626
v 44.154 10 -24.745
v 44.381 10 -24.937
v 43.72 10 -24.612
v 43.9 10 -24.64
v 43.425 10 -24.631
v 43.564 10 -24.609
v 43.17 10 -24.761
v 43.296 10 -24.681
v 42.903 10 -25.044
v 43.04 10 -24.87
v 42.74 10 -25.779
v 42.807 10 -25.314
v 42.657 10 -27.697
v 42.693 10 -26.54
v 42.54 10 -33.47
v 42.62 10 -29.35
v 36.75 10 -27.3
v 35.774 10 -24.688
v 36.243 10 -25.928
v 35.033 10 -22.802
v 35.364 10 -23.629
v 34.69 10 -22.05
v 34.802 10 -22.259
v 34.538 10 -21.949
v 34.633 10 -22.012
v 34.105 10 -21.658
v 33.31 10 -21.12
v 33.94 10 -21.54
v 33.798 10 -18.875
v 34.205 10 -18.289
v 33.94 10 -18.7
v 34.329 10 -17.271
v 34.333 10 -17.801
v 33.943 10 -16.23
v 34.197 10 -16.736
v 33.456 10 -15.716
v 33.57 10 -15.79
v 33.144 10 -15.579
v 33.311 10 -15.644
v 32.774 10 -15.479
v 32.962 10 -15.523
v 31.93 10 -15.4
v 32.59 10 -15.45
v 29.63 10 -9.71
v 30.79 10 -12.55
v 29.873 10 -4.097
v 30.22 10 -3.843
v 30.05 10 -3.97
v 30.41 10 -3.476
v 30.337 10 -3.696
v 30.467 10 -2.606
v 30.45 10 -3.131
v 30.47 10 0
v 30.47 10 -1.85
v 26.99 10 -0.02
v 22.68 10 -0.56
v 23.49 10 -0.02
v 21.97 10 -2.78
v 21.87 10 -1.09
v 22.081 10 -3.968
v 22.02 10 -3.45
v 22.296 10 -4.782
v 22.167 10 -4.393
v 22.74 10 -5.69
v 22.482 10 -5.195
v 23.4 10 -6.93
v 23.406 10 -9.948
v 23.4 10 -9.31
v 23.444 10 -11.049
v 23.421 10 -10.536
v 23.505 10 -11.746
v 23.473 10 -11.46
v 23.587 10 -11.935
v 23.54 10 -11.88
v 23.735 10 -12.067
v 23.653 10 -11.999
v 23.923 10 -12.206
v 23.827 10 -12.138
v 24.167 10 -12.358
v 24.02 10 -12.27
v 24.405 10 -13.054
v 24.416 10 -13.726
v 24.41 10 -13.4
v 24.479 10 -14.2
v 24.438 10 -13.989
v 24.631 10 -14.501
v 24.542 10 -14.367
v 24.66 10 -18.34
v 24.444 10 -20.104
v 24.546 10 -19.262
v 24.296 10 -21.416
v 24.36 10 -20.834
v 24.24 10 -22
v 24.254 10 -21.816
v 24.411 10 -22.234
v 24.285 10 -22.093
v 24.859 10 -22.623
v 24.606 10 -22.414
v 25.49 10 -23.09
v 25.158 10 -22.852
v 26.932 10 -26.214
v 26.964 10 -26.766
v 26.94 10 -26.46
v 27.164 10 -27.618
v 27.039 10 -27.15
v 27.573 10 -28.835
v 27.341 10 -28.177
v 28.255 10 -30.612
v 27.86 10 -29.6
v 28.929 10 -32.004
v 28.583 10 -31.368
v 30 10 -33.459
v 29.373 10 -32.656
v 33.01 10 -37.11
v 30.89 10 -34.55
v 32.61 10 -42.6
v 30.16 10 -44.367
v 30.89 10 -43.84
v 28.555 10 -45.093
v 27.02 10 -45.12
v 28.1 10 -45.1
v 25.86 10 -46.38
v 24.8 10 -48.47
v 24.7 10 -47.64
v 24.9 10 -49.31
v 22.64 10 -51.01
v 32.015 10 -50.413
v 36.269 10 -65.351
v 31.102 10 -51.906
v 21.071 10 -54.454
v 30.911 10 -78.59
v 34.049 10 -83.792
v 42.062 10 -92.181
v 42.737 10 -93.912
v 52.518 10 -88.396
v 52.678 10 -86.711
v 52.694 10 -84.1
v 53.276 10 -83.078
v 55.594 10 -80.259
v 66.608 10 -47.459
v 57.68 10 -28.41
v 56.587 10 -27.345
v 44.875 10 -5.078
v 37.463 10 -29.212
v 34.412 10 -21.866
v 34.266 10 -21.768
v 24.75 10 -14.61
v 26.918 10 -25.935
v 35.79 10 -54.66
v 36.324 10 -65.861
v 34.538 10 -60.746
v 31.228 10 -52.13
v 21.003 10 -54.266
v 25.794 10 -54.246
v 26.673 10 -54.485
v 29.865 10 -74.82
v 30.695 10 -77.584
v 40.849 10 -89.998
v 52.367 10 -88.326
v 52.475 10 -86.935
v 55.401 10 -80.536
v 61.603 10 -56.231
v 66.862 10 -49.212
v 66.659 10 -47.698
v 57.279 10 -28.9
v 45.025 10 -5.369
v 45.43 10 -22.01
v 45.273 10 -27.293
v 33.68 10 -19.064
v 24.831 10 -16.9
v 28.912 10 -45.051
v 34.973 10 -49.448
v 36.611 10 -56.03
v 36.373 10 -66.299
v 31.394 10 -52.401
v 20.922 10 -54.05
v 30.199 10 -75.796
v 30.466 10 -76.685
v 42.577 10 -93.225
v 52.333 10 -87.135
v 52.909 10 -83.436
v 55.231 10 -80.806
v 61.621 10 -55.921
v 61.766 10 -55.585
v 63.721 10 -54.216
v 66.801 10 -49.325
v 66.719 10 -47.915
v 68.666 10 -11.459
v 67.266 10 -12.701
v 45.509 10 -14.191
v 45.821 10 -22.568
v 38.017 10 -30.652
v 33.585 10 -19.276
v 29.754 10 -4.264
v 24.384 10 -12.794
v 26.9 10 -25.64
v 29.247 10 -44.939
v 32.916 10 -49.38
v 36.413 10 -66.642
v 34.624 10 -61.072
v 20.834 10 -53.814
v 26.089 10 -53.965
v 26.63 10 -54.121
v 32.459 10 -83.186
v 40.712 10 -89.609
v 42.431 10 -92.76
v 52.268 10 -88.238
v 54.992 10 -81.263
v 55.092 10 -81.054
v 61.67 10 -55.717
v 63.269 10 -54.348
v 63.449 10 -54.261
v 66.783 10 -50.434
v 66.74 10 -49.451
v 66.785 10 -48.099
v 58.881 10 -20.128
v 53.31 10 -12.84
v 45.349 10 -27.442
v 29.683 10 -4.552
v 24.883 10 -14.75
v 24.937 10 -15.922
v 26.879 10 -25.345
v 35.051 10 -49.179
v 36.443 10 -66.869
v 20.74 10 -53.57
v 26.322 10 -53.751
v 26.594 10 -53.838
v 40.519 10 -89.176
v 52.242 10 -87.325
v 66.682 10 -49.585
v 66.853 10 -48.238
v 56.99 10 -29.188
v 45.181 10 -5.685
v 45.658 10 -13.294
v 33.51 10 -19.519
v 24.343 10 -12.603
v 24.979 10 -15.305
v 26.855 10 -25.066
v 29.638 10 -44.722
v 35.087 10 -48.909
v 36.46 10 -66.96
v 26.566 10 -53.652
v 32.864 10 -83.338
v 42.27 10 -92.439
v 52.194 10 -87.519
v 56.787 10 -29.272
v 56.483 10 -27.472
v 45.758 10 -12.432
v 45.437 10 -27.537
v 38.455 10 -31.713
v 33.452 10 -19.801
v 29.646 10 -5.046
v 24.96 10 -14.948
v 26.83 10 -24.82
v 35.088 10 -48.604
v 34.966 10 -61.602
v 26.481 10 -53.618
v 33.405 10 -83.544
v 40.261 10 -88.681
v 52.209 10 -88.117
v 52.611 10 -83.957
v 52.685 10 -83.732
v 66.631 10 -49.72
v 56.647 10 -29.152
v 45.546 10 -27.586
v 33.41 10 -20.13
v 29.632 10 -5.828
v 26.003 10 -23.46
v 26.784 10 -24.467
v 35.06 10 -48.23
v 34.759 10 -61.337
v 26.55 10 -53.58
v 66.645 10 -50.303
v 66.59 10 -49.85
v 56.542 10 -28.825
v 56.423 10 -27.611
v 45.335 10 -6.008
v 45.68 10 -27.6
v 38.816 10 -32.488
v 29.63 10 -6.98
v 26.355 10 -23.739
v 32.71 10 -41.62
v 35.031 10 -47.98
v 39.931 10 -88.105
v 66.577 10 -50.173
v 56.45 10 -28.29
v 58.296 10 -20.645
v 45.477 10 -6.319
v 45.936 10 -8.411
v 45.923 10 -27.582
v 26.58 10 -23.97
v 26.711 10 -24.198
v 32.739 10 -41.298
v 34.997 10 -47.755
v 39.52 10 -87.43
v 66.564 10 -50.028
v 57.669 10 -21.199
v 45.6 10 -6.6
v 46.139 10 -23.06
v 46.123 10 -27.518
v 32.773 10 -40.887
v 34.96 10 -47.565
v 57.033 10 -21.76
v 45.757 10 -7.016
v 46.393 10 -23.504
v 46.294 10 -27.394
v 24.272 10 -12.463
v 32.81 10 -40.415
v 37.304 10 -57.315
v 36.509 10 -66.952
v 56.401 10 -27.781
v 45.861 10 -7.396
v 45.919 10 -7.83
v 46.45 10 -27.196
v 32.847 10 -39.906
v 37.875 10 -58.524
v 36.619 10 -66.909
v 52.183 10 -87.952
v 56.42 10 -22.3
v 46.591 10 -23.913
v 39.141 10 -33.073
v 32.881 10 -39.386
v 34.923 10 -47.418
v 36.781 10 -66.836
v 52.18 10 -87.73
v 39.47 10 -33.56
v 32.91 10 -38.88
v 38.326 10 -59.665
v 36.988 10 -66.738
v 56.412 10 -28.001
v 46.744 10 -24.303
v 38.659 10 -60.748
v 37.231 10 -66.618
v 46.86 10 -24.69
v 33.822 10 -48.367
v 37.5 10 -66.48
v 46.964 10 -25.116
v 39.696 10 -33.854
v 34.535 10 -47.596
v 47.024 10 -25.433
v 39.907 10 -34.119
v 34.86 10 -47.29
v 47.037 10 -25.688
v 40.095 10 -34.344
v 34.889 10 -47.324
v 47.003 10 -25.923
v 40.249 10 -34.518
v 38.968 10 -63.43
v 46.918 10 -26.186
v 40.361 10 -34.63
v 39.002 10 -63.03
v 46.78 10 -26.52
v 40.42 10 -34.67
v 38.999 10 -62.65
v 46.608 10 -26.909
v 38.957 10 -62.248
v 40.485 10 -34.649
v 38.88 10 -61.78
v 40.613 10 -34.588
v 40.792 10 -34.495
v 41.014 10 -34.375
v 41.54 10 -34.08
v 41.267 10 -34.235
f 1 2 3
f 4 5 6
f 7 4 8
f 9 7 10
f 11 9 12
f 13 11 14
f 15 13 16
f 17 18 19
f 20 21 22
f 23 24 25
f 26 23 27
f 28 26 29
f 30 28 31
f 32 30 33
f 34 32 35
f 36 34 37
f 2 38 3
f 39 40 41
f 42 39 43
f 44 42 45
f 46 44 47
f 48 46 49
f 50 48 51
f 52 50 53
f 54 55 56
f 57 54 58
f 59 57 60
f 61 59 62
f 63 61 64
f 65 63 66
f 67 65 68
f 69 70 71
f 72 73 74
f 75 76 77
f 78 79 80
f 81 78 82
f 83 81 84
f 85 86 87
f 88 85 89
f 90 88 91
f 92 90 93
f 94 92 95
f 96 94 97
f 98 96 99
f 100 98 101
f 102 103 104
f 105 102 106
f 107 105 108
f 109 107 110
f 111 112 113
f 114 111 115
f 116 114 117
f 118 119 120
f 121 118 122
f 123 121 124
f 125 123 126
f 127 125 128
f 129 127 130
f 131 129 132
f 133 131 134
f 135 136 137
f 138 135 139
f 140 138 141
f 142 140 143
f 144 145 146
f 147 148 149
f 150 147 151
f 152 150 153
f 154 152 155
f 156 157 158
f 159 156 160
f 161 159 162
f 163 161 164
f 165 163 166
f 167 165 168
f 169 167 170
f 171 169 172
f 173 171 174
f 175 173 176
f 177 178 179
f 180 177 181
f 182 180 183
f 184 185 186
f 187 184 188
f 189 187 190
f 191 189 192
f 193 194 195
f 196 193 197
f 198 196 199
f 200 198 201
f 202 200 203
f 204 202 205
f 206 204 207
f 208 206 209
f 210 208 211
f 212 210 213
f 214 215 216
f 217 214 218
f 219 217 220
f 221 219 222
f 223 221 224
f 225 223 226
f 227 225 228
f 229 227 230
f 231 229 232
f 233 231 234
f 235 233 236
f 237 235 238
f 239 237 240
f 241 239 242
f 243 241 244
f 245 243 246
f 247 245 248
f 249 247 250
f 251 249 252
f 253 254 255
f 256 253 257
f 258 256 259
f 260 258 261
f 262 263 264
f 265 262 266
f 267 265 268
f 269 267 270
f 271 272 273
f 274 275 276
f 277 274 278
f 279 277 280
f 281 279 282
f 283 281 284
f 285 283 286
f 287 285 288
f 289 287 290
f 291 289 292
f 293 291 294
f 295 293 296
f 297 295 298
f 299 300 301
f 302 303 304
f 305 302 306
f 307 305 308
f 309 307 310
f 311 309 312
f 313 311 314
f 315 316 317
f 318 315 319
f 320 318 321
f 322 320 323
f 324 322 325
f 326 324 327
f 328 326 329
f 330 328 331
f 332 330 333
f 334 332 335
f 336 337 338
f 339 336 340
f 341 339 342
f 343 341 344
f 345 346 347
f 348 349 350
f 351 348 352
f 353 351 354
f 355 353 356
f 357 355 358
f 359 357 360
f 361 359 362
f 363 361 364
f 365 366 367
f 368 365 369
f 370 368 371
f 372 370 373
f 374 375 376
f 377 374 378
f 379 377 380
f 381 379 382
f 383 381 384
f 385 386 387
f 388 385 389
f 390 388 391
f 392 390 393
f 394 392 395
f 396 394 397
f 398 396 399
f 400 401 402
f 403 400 404
f 405 403 406
f 407 408 409
f 410 407 411
f 412 410 413
f 414 412 415
f 416 414 417
f 418 416 419
f 420 421 422
f 423 420 424
f 425 423 426
f 427 425 428
f 429 427 430
f 431 429 432
f 433 431 434
f 435 436 437
f 438 439 440
f 441 442 443
f 2 444 445
f 446 2 1
f 7 5 4
f 11 7 9
f 15 11 13
f 20 447 21
f 26 24 23
f 30 26 28
f 34 30 32
f 2 448 38
f 39 449 40
f 44 39 42
f 48 44 46
f 52 48 50
f 57 55 54
f 61 57 59
f 65 61 63
f 69 67 70
f 72 450 73
f 75 451 76
f 81 79 78
f 452 81 83
f 85 453 86
f 90 85 88
f 94 90 92
f 98 94 96
f 454 98 100
f 102 455 103
f 107 102 105
f 456 107 109
f 111 457 112
f 116 111 114
f 118 458 119
f 123 118 121
f 127 123 125
f 131 127 129
f 138 136 135
f 142 138 140
f 144 142 145
f 150 148 147
f 154 150 152
f 159 157 156
f 163 159 161
f 167 163 165
f 171 167 169
f 175 171 173
f 180 178 177
f 184 459 185
f 189 184 187
f 194 189 191
f 198 193 196
f 202 198 200
f 206 202 204
f 210 206 208
f 460 210 212
f 214 461 215
f 219 214 217
f 223 219 221
f 227 223 225
f 231 227 229
f 235 231 233
f 239 235 237
f 243 239 241
f 247 243 245
f 251 247 249
f 256 254 253
f 260 256 258
f 265 263 262
f 269 265 267
f 274 271 275
f 279 274 277
f 283 279 281
f 287 283 285
f 291 287 289
f 295 291 293
f 462 295 297
f 305 303 302
f 309 305 307
f 313 309 311
f 318 316 315
f 322 318 320
f 326 322 324
f 330 326 328
f 334 330 332
f 336 463 337
f 341 336 339
f 464 341 343
f 345 465 346
f 351 349 348
f 355 351 353
f 359 355 357
f 368 366 365
f 372 368 370
f 374 372 375
f 379 374 377
f 383 379 381
f 388 386 385
f 392 388 390
f 396 392 394
f 403 401 400
f 466 403 405
f 410 408 407
f 414 410 412
f 418 414 416
f 420 467 421
f 425 420 423
f 429 425 427
f 433 429 431
f 442 439 438
f 444 442 441
f 446 444 2
f 11 5 7
f 468 11 15
f 20 469 447
f 26 470 24
f 34 26 30
f 2 471 448
f 39 472 449
f 48 39 44
f 473 48 52
f 57 474 55
f 65 57 61
f 475 67 69
f 72 476 450
f 81 477 79
f 90 453 85
f 98 90 94
f 478 98 454
f 102 479 455
f 456 102 107
f 116 457 111
f 118 480 458
f 127 118 123
f 133 127 131
f 142 136 138
f 481 142 144
f 154 148 150
f 163 157 159
f 171 163 167
f 180 482 178
f 184 483 459
f 194 184 189
f 202 193 198
f 210 202 206
f 484 210 460
f 219 461 214
f 227 219 223
f 235 227 231
f 243 235 239
f 251 243 247
f 260 254 256
f 269 263 265
f 279 271 274
f 287 279 283
f 295 287 291
f 485 295 462
f 309 303 305
f 486 309 313
f 318 487 316
f 326 318 322
f 334 326 330
f 341 463 336
f 351 488 349
f 359 351 355
f 372 366 368
f 379 372 374
f 386 379 383
f 392 386 388
f 398 392 396
f 466 401 403
f 410 489 408
f 418 410 414
f 425 467 420
f 433 425 429
f 442 490 439
f 446 442 444
f 11 491 5
f 492 11 468
f 20 493 469
f 34 470 26
f 2 494 471
f 39 495 472
f 473 39 48
f 65 474 57
f 496 67 475
f 72 497 476
f 452 477 81
f 90 498 453
f 478 90 98
f 102 499 479
f 116 500 457
f 118 501 480
f 133 118 127
f 502 142 481
f 154 503 148
f 163 504 157
f 175 163 171
f 180 505 482
f 184 506 483
f 210 193 202
f 227 461 219
f 243 227 235
f 507 243 251
f 260 508 254
f 279 272 271
f 295 279 287
f 309 509 303
f 510 309 486
f 326 487 318
f 341 511 463
f 351 512 488
f 361 351 359
f 372 513 366
f 386 372 379
f 398 386 392
f 466 514 401
f 418 489 410
f 425 515 467
f 442 516 490
f 517 442 446
f 492 491 11
f 20 518 493
f 34 519 470
f 2 36 494
f 39 520 495
f 521 39 473
f 65 522 474
f 497 67 496
f 523 497 72
f 452 524 477
f 90 525 498
f 526 90 478
f 456 499 102
f 527 500 116
f 118 528 501
f 136 118 133
f 529 142 502
f 530 503 154
f 163 531 504
f 532 163 175
f 180 533 505
f 184 534 506
f 484 193 210
f 243 461 227
f 508 243 507
f 535 508 260
f 279 536 272
f 485 279 295
f 510 509 309
f 326 537 487
f 464 511 341
f 361 512 351
f 372 538 513
f 398 372 386
f 539 514 466
f 418 540 489
f 425 541 515
f 517 516 442
f 492 542 491
f 20 543 518
f 36 519 34
f 544 36 2
f 39 544 520
f 545 39 521
f 65 546 522
f 523 67 497
f 452 547 524
f 526 525 90
f 456 548 499
f 528 500 527
f 136 528 118
f 532 531 163
f 180 549 533
f 184 550 534
f 551 193 484
f 508 461 243
f 279 269 536
f 552 279 485
f 510 553 509
f 334 537 326
f 465 511 464
f 361 554 512
f 398 538 372
f 539 555 514
f 418 556 540
f 425 557 541
f 517 558 516
f 492 559 542
f 20 560 543
f 545 544 39
f 65 561 546
f 562 67 523
f 563 547 452
f 526 563 525
f 456 564 548
f 136 500 528
f 532 530 531
f 182 549 180
f 184 182 550
f 565 193 551
f 508 566 461
f 552 269 279
f 510 567 553
f 334 568 537
f 465 569 511
f 361 570 554
f 398 571 538
f 572 555 539
f 418 572 556
f 425 573 557
f 517 435 558
f 492 574 559
f 575 560 20
f 576 544 545
f 67 561 65
f 577 67 562
f 563 578 547
f 579 563 526
f 580 564 456
f 136 581 500
f 532 503 530
f 182 582 549
f 194 182 184
f 583 193 565
f 535 566 508
f 552 263 269
f 510 299 567
f 334 584 568
f 345 569 465
f 361 585 570
f 398 586 571
f 587 572 418
f 425 588 573
f 517 436 435
f 492 589 574
f 590 560 575
f 591 544 576
f 67 591 561
f 451 67 577
f 579 578 563
f 136 580 581
f 592 503 532
f 182 593 582
f 594 193 583
f 535 595 566
f 596 263 552
f 510 300 299
f 334 597 584
f 345 598 569
f 361 345 585
f 398 599 586
f 600 572 587
f 433 588 425
f 517 601 436
f 492 602 589
f 519 560 590
f 591 36 544
f 451 591 67
f 579 603 578
f 604 503 592
f 194 593 182
f 605 193 594
f 606 595 535
f 607 263 596
f 510 608 300
f 334 609 597
f 363 345 361
f 398 363 599
f 610 572 600
f 433 611 588
f 517 612 601
f 492 613 602
f 36 560 519
f 451 36 591
f 579 614 603
f 615 503 604
f 194 615 593
f 616 595 606
f 617 263 607
f 618 608 510
f 334 619 609
f 398 345 363
f 611 572 610
f 517 620 612
f 492 621 613
f 451 560 36
f 579 75 614
f 194 503 615
f 622 595 616
f 623 263 617
f 624 608 618
f 334 625 619
f 626 345 398
f 433 572 611
f 517 627 620
f 628 621 492
f 451 629 560
f 579 451 75
f 194 529 503
f 622 630 595
f 631 263 623
f 624 632 608
f 334 633 625
f 626 598 345
f 433 555 572
f 517 634 627
f 635 621 628
f 451 636 629
f 637 451 579
f 194 142 529
f 638 630 622
f 632 263 631
f 639 632 624
f 626 640 598
f 517 641 634
f 635 642 621
f 451 643 636
f 644 451 637
f 194 136 142
f 263 630 638
f 639 263 632
f 626 645 640
f 517 646 641
f 647 642 635
f 451 648 643
f 564 451 644
f 194 580 136
f 263 649 630
f 650 263 639
f 555 645 626
f 517 433 646
f 651 642 647
f 451 652 648
f 580 451 564
f 193 580 194
f 263 605 649
f 653 263 650
f 433 645 555
f 654 433 517
f 451 655 652
f 193 451 580
f 263 193 605
f 656 263 653
f 433 657 645
f 658 433 654
f 451 17 655
f 263 451 193
f 659 263 656
f 433 660 657
f 661 433 658
f 263 17 451
f 662 263 659
f 433 663 660
f 664 433 661
f 263 18 17
f 665 263 662
f 433 666 663
f 642 433 664
f 263 667 18
f 668 263 665
f 433 669 666
f 651 433 642
f 263 670 667
f 671 263 668
f 433 672 669
f 263 673 670
f 674 263 671
f 651 672 433
f 263 675 673
f 633 263 674
f 651 676 672
f 263 677 675
f 334 263 633
f 651 678 676
f 263 651 677
f 651 679 678
f 334 651 263
f 651 680 679
f 681 651 334
f 651 682 680
f 682 651 681
f 683 684 685
f 686 687 688
f 687 689 690
f 689 691 692
f 691 693 694
f 693 695 696
f 695 697 698
f 699 700 701
f 702 703 704
f 705 706 707
f 706 708 709
f 708 710 711
f 710 712 713
f 712 714 715
f 714 716 717
f 716 718 719
f 720 683 685
f 721 722 723
f 722 724 725
f 724 726 727
f 726 728 729
f 728 730 731
f 730 732 733
f 732 734 735
f 736 737 738
f 737 739 740
f 739 741 742
f 741 743 744
f 743 745 746
f 745 747 748
f 747 749 750
f 751 752 753
f 754 755 756
f 757 758 759
f 760 761 762
f 761 763 764
f 763 765 766
f 767 768 769
f 768 770 771
f 770 772 773
f 772 774 775
f 774 776 777
f 776 778 779
f 778 780 781
f 780 782 783
f 784 785 786
f 785 787 788
f 787 789 790
f 789 791 792
f 793 794 795
f 794 796 797
f 796 798 799
f 800 801 802
f 801 803 804
f 803 805 806
f 805 807 808
f 807 809 810
f 809 811 812
f 811 813 814
f 813 815 816
f 817 818 819
f 818 820 821
f 820 822 823
f 822 824 825
f 826 827 828
f 829 830 831
f 830 832 833
f 832 834 835
f 834 836 837
f 838 839 840
f 839 841 842
f 841 843 844
f 843 845 846
f 845 847 848
f 847 849 850
f 849 851 852
f 851 853 854
f 853 855 856
f 855 857 858
f 859 860 861
f 860 862 863
f 862 864 865
f 866 867 868
f 867 869 870
f 869 871 872
f 871 873 874
f 875 876 877
f 876 878 879
f 878 880 881
f 880 882 883
f 882 884 885
f 884 886 887
f 886 888 889
f 888 890 891
f 890 892 893
f 892 894 895
f 896 897 898
f 897 899 900
f 899 901 902
f 901 903 904
f 903 905 906
f 905 907 908
f 907 909 910
f 909 911 912
f 911 913 914
f 913 915 916
f 915 917 918
f 917 919 920
f 919 921 922
f 921 923 924
f 923 925 926
f 925 927 928
f 927 929 930
f 929 931 932
f 931 933 934
f 935 936 937
f 936 938 939
f 938 940 941
f 940 942 943
f 944 945 946
f 945 947 948
f 947 949 950
f 949 951 952
f 953 954 955
f 956 957 958
f 957 959 960
f 959 961 962
f 961 963 964
f 963 965 966
f 965 967 968
f 967 969 970
f 969 971 972
f 971 973 974
f 973 975 976
f 975 977 978
f 977 979 980
f 981 982 983
f 984 985 986
f 985 987 988
f 987 989 990
f 989 991 992
f 991 993 994
f 993 995 996
f 997 998 999
f 998 1000 1001
f 1000 1002 1003
f 1002 1004 1005
f 1004 1006 1007
f 1006 1008 1009
f 1008 1010 1011
f 1010 1012 1013
f 1012 1014 1015
f 1014 1016 1017
f 1018 1019 1020
f 1019 1021 1022
f 1021 1023 1024
f 1023 1025 1026
f 1027 1028 1029
f 1030 1031 1032
f 1031 1033 1034
f 1033 1035 1036
f 1035 1037 1038
f 1037 1039 1040
f 1039 1041 1042
f 1041 1043 1044
f 1043 1045 1046
f 1047 1048 1049
f 1048 1050 1051
f 1050 1052 1053
f 1052 1054 1055
f 1056 1057 1058
f 1057 1059 1060
f 1059 1061 1062
f 1061 1063 1064
f 1063 1065 1066
f 1067 1068 1069
f 1068 1070 1071
f 1070 1072 1073
f 1072 1074 1075
f 1074 1076 1077
f 1076 1078 1079
f 1078 1080 1081
f 1082 1083 1084
f 1083 1085 1086
f 1085 1087 1088
f 1089 1090 1091
f 1090 1092 1093
f 1092 1094 1095
f 1094 1096 1097
f 1096 1098 1099
f 1098 1100 1101
f 1102 1103 1104
f 1103 1105 1106
f 1105 1107 1108
f 1107 1109 1110
f 1109 1111 1112
f 1111 1113 1114
f 1113 1115 1116
f 1117 1118 1119
f 1120 1121 1122
f 1123 1124 1125
f 1126 683 1127
f 683 1128 684
f 686 689 687
f 689 693 691
f 693 697 695
f 1129 703 702
f 705 708 706
f 708 712 710
f 712 716 714
f 1130 683 720
f 1131 722 721
f 722 726 724
f 726 730 728
f 730 734 732
f 736 739 737
f 739 743 741
f 743 747 745
f 749 752 751
f 1132 755 754
f 1133 758 757
f 760 763 761
f 763 1134 765
f 1135 768 767
f 768 772 770
f 772 776 774
f 776 780 778
f 780 1136 782
f 1137 785 784
f 785 789 787
f 789 1138 791
f 1139 794 793
f 794 798 796
f 1140 801 800
f 801 805 803
f 805 809 807
f 809 813 811
f 817 820 818
f 820 824 822
f 824 827 826
f 829 832 830
f 832 836 834
f 838 841 839
f 841 845 843
f 845 849 847
f 849 853 851
f 853 857 855
f 859 862 860
f 1141 867 866
f 867 871 869
f 871 875 873
f 876 880 878
f 880 884 882
f 884 888 886
f 888 892 890
f 892 1142 894
f 1143 897 896
f 897 901 899
f 901 905 903
f 905 909 907
f 909 913 911
f 913 917 915
f 917 921 919
f 921 925 923
f 925 929 927
f 929 933 931
f 935 938 936
f 938 942 940
f 944 947 945
f 947 951 949
f 954 957 956
f 957 961 959
f 961 965 963
f 965 969 967
f 969 973 971
f 973 977 975
f 977 1144 979
f 984 987 985
f 987 991 989
f 991 995 993
f 997 1000 998
f 1000 1004 1002
f 1004 1008 1006
f 1008 1012 1010
f 1012 1016 1014
f 1145 1019 1018
f 1019 1023 1021
f 1023 1146 1025
f 1147 1028 1027
f 1030 1033 1031
f 1033 1037 1035
f 1037 1041 1039
f 1047 1050 1048
f 1050 1054 1052
f 1054 1057 1056
f 1057 1061 1059
f 1061 1065 1063
f 1067 1070 1068
f 1070 1074 1072
f 1074 1078 1076
f 1082 1085 1083
f 1085 1148 1087
f 1089 1092 1090
f 1092 1096 1094
f 1096 1100 1098
f 1149 1103 1102
f 1103 1107 1105
f 1107 1111 1109
f 1111 1115 1113
f 1120 1123 1121
f 1123 1126 1124
f 1126 1128 683
f 686 693 689
f 693 1150 697
f 1151 703 1129
f 1152 708 705
f 708 716 712
f 1153 683 1130
f 1154 722 1131
f 722 730 726
f 730 1155 734
f 1156 739 736
f 739 747 743
f 749 1157 752
f 1158 755 1132
f 1159 763 760
f 1135 772 768
f 772 780 776
f 780 1160 1136
f 1161 785 1137
f 785 1138 789
f 1139 798 794
f 1162 801 1140
f 801 809 805
f 809 815 813
f 817 824 820
f 824 1163 827
f 829 836 832
f 838 845 841
f 845 853 849
f 1164 862 859
f 1165 867 1141
f 867 875 871
f 876 884 880
f 884 892 888
f 892 1166 1142
f 1143 901 897
f 901 909 905
f 909 917 913
f 917 925 921
f 925 933 929
f 935 942 938
f 944 951 947
f 954 961 957
f 961 969 965
f 969 977 973
f 977 1167 1144
f 984 991 987
f 991 1168 995
f 1169 1000 997
f 1000 1008 1004
f 1008 1016 1012
f 1145 1023 1019
f 1170 1033 1030
f 1033 1041 1037
f 1047 1054 1050
f 1054 1061 1057
f 1061 1067 1065
f 1067 1074 1070
f 1074 1080 1078
f 1082 1148 1085
f 1171 1092 1089
f 1092 1100 1096
f 1149 1107 1103
f 1107 1115 1111
f 1172 1123 1120
f 1123 1128 1126
f 1173 693 686
f 693 1174 1150
f 1175 703 1151
f 1152 716 708
f 1176 683 1153
f 1177 722 1154
f 722 1155 730
f 1156 747 739
f 749 1178 1157
f 1179 755 1158
f 1159 1134 763
f 1180 772 1135
f 772 1160 780
f 1181 785 1161
f 1182 798 1139
f 1183 801 1162
f 801 815 809
f 824 1184 1163
f 1185 836 829
f 1186 845 838
f 845 857 853
f 1187 862 1164
f 1188 867 1165
f 876 892 884
f 1143 909 901
f 909 925 917
f 925 1189 933
f 1190 942 935
f 953 961 954
f 961 977 969
f 1191 991 984
f 991 1192 1168
f 1169 1008 1000
f 1193 1023 1145
f 1194 1033 1170
f 1033 1043 1041
f 1195 1054 1047
f 1054 1067 1061
f 1067 1080 1074
f 1196 1148 1082
f 1171 1100 1092
f 1197 1107 1149
f 1198 1123 1172
f 1123 1199 1128
f 1173 1174 693
f 1200 703 1175
f 1201 716 1152
f 718 683 1176
f 1202 722 1177
f 722 1203 1155
f 1204 747 1156
f 749 1179 1178
f 1179 1205 755
f 1206 1134 1159
f 1207 772 1180
f 772 1208 1160
f 1181 1138 785
f 1182 1209 798
f 1210 801 1183
f 801 817 815
f 824 1211 1184
f 1185 1212 836
f 1213 845 1186
f 845 1214 857
f 1215 862 1187
f 1216 867 1188
f 876 1166 892
f 1143 925 909
f 925 1190 1189
f 1190 1217 942
f 1218 961 953
f 961 1167 977
f 1191 1192 991
f 1219 1008 1169
f 1193 1146 1023
f 1194 1043 1033
f 1220 1054 1195
f 1054 1080 1067
f 1196 1221 1148
f 1222 1100 1171
f 1223 1107 1197
f 1198 1199 1123
f 1224 1174 1173
f 1225 703 1200
f 1201 718 716
f 718 1226 683
f 1226 722 1202
f 722 1227 1203
f 1228 747 1204
f 749 1205 1179
f 1229 1134 1206
f 1207 1208 772
f 1230 1138 1181
f 1182 1210 1209
f 1210 817 801
f 1213 1214 845
f 1231 862 1215
f 1232 867 1216
f 876 1233 1166
f 1143 1190 925
f 951 961 1218
f 961 1234 1167
f 1235 1192 1191
f 1219 1016 1008
f 1193 1147 1146
f 1236 1043 1194
f 1220 1080 1054
f 1237 1221 1196
f 1238 1100 1222
f 1239 1107 1223
f 1240 1199 1198
f 1241 1174 1224
f 1242 703 1225
f 1226 1227 722
f 1243 747 1228
f 749 1244 1205
f 1229 1245 1134
f 1245 1208 1207
f 1246 1138 1230
f 1182 817 1210
f 1212 1214 1213
f 1231 864 862
f 864 867 1232
f 876 1247 1233
f 1248 1190 1143
f 951 1234 961
f 1249 1192 1235
f 1250 1016 1219
f 1251 1147 1193
f 1252 1043 1236
f 1253 1080 1220
f 1237 1254 1221
f 1254 1100 1238
f 1255 1107 1239
f 1118 1199 1240
f 1256 1174 1241
f 1242 1257 703
f 1226 1258 1227
f 1243 749 747
f 749 1259 1244
f 1260 1245 1229
f 1245 1261 1208
f 1246 1262 1138
f 1263 817 1182
f 1185 1214 1212
f 1264 864 1231
f 864 875 867
f 876 1265 1247
f 1248 1217 1190
f 944 1234 951
f 982 1192 1249
f 1266 1016 1250
f 1251 1028 1147
f 1267 1043 1252
f 1268 1080 1253
f 1254 1269 1100
f 1270 1107 1255
f 1117 1199 1118
f 1271 1174 1256
f 1242 1272 1257
f 1226 1273 1258
f 1273 749 1243
f 749 1133 1259
f 1260 1261 1245
f 1262 817 1263
f 1185 1274 1214
f 1275 864 1264
f 876 1276 1265
f 1277 1217 1248
f 944 1278 1234
f 981 1192 982
f 1279 1016 1266
f 1280 1028 1251
f 1028 1043 1267
f 1281 1080 1268
f 1254 1282 1269
f 1270 1115 1107
f 1283 1199 1117
f 1284 1174 1271
f 1242 1201 1272
f 718 1273 1226
f 1273 1133 749
f 1285 1261 1260
f 1185 1286 1274
f 1275 875 864
f 876 1287 1276
f 1277 1288 1217
f 944 1289 1278
f 1290 1192 981
f 1291 1016 1279
f 1028 1045 1043
f 1045 1080 1281
f 1254 1292 1282
f 1293 1115 1270
f 1294 1199 1283
f 1295 1174 1284
f 1242 718 1201
f 718 1133 1273
f 1296 1261 1285
f 1185 1297 1286
f 1297 875 1275
f 1277 1298 1288
f 944 1299 1289
f 1290 1300 1192
f 1301 1016 1291
f 1028 1080 1045
f 1254 1293 1292
f 1302 1199 1294
f 1303 1174 1295
f 1242 1133 718
f 758 1261 1296
f 1185 875 1297
f 1277 1304 1298
f 944 1305 1299
f 1290 1306 1300
f 1307 1016 1301
f 1028 1308 1080
f 1254 1115 1293
f 1309 1199 1302
f 1303 1310 1174
f 1311 1133 1242
f 1133 1261 758
f 1211 875 1185
f 1312 1304 1277
f 944 1313 1305
f 1314 1306 1290
f 1315 1016 1307
f 1280 1308 1028
f 1237 1115 1254
f 1316 1199 1309
f 1303 1317 1310
f 1318 1133 1311
f 1133 1319 1261
f 824 875 1211
f 1312 1320 1304
f 944 1314 1313
f 1314 1321 1306
f 1322 1308 1280
f 1323 1199 1316
f 1324 1317 1303
f 1325 1133 1318
f 1133 1326 1319
f 817 875 824
f 1312 944 1320
f 944 1321 1314
f 1327 1308 1322
f 1328 1199 1323
f 1324 1329 1317
f 1330 1133 1325
f 1133 1246 1326
f 1262 875 817
f 1331 944 1312
f 944 1332 1321
f 1327 1237 1308
f 1115 1199 1328
f 1324 1333 1329
f 1334 1133 1330
f 1133 1262 1246
f 1262 876 875
f 1287 944 1331
f 944 1335 1332
f 1327 1115 1237
f 1115 1336 1199
f 1337 1133 1334
f 1133 876 1262
f 876 944 1287
f 944 1338 1335
f 1339 1115 1327
f 1115 1340 1336
f 700 1133 1337
f 1133 944 876
f 944 1341 1338
f 1342 1115 1339
f 1115 1343 1340
f 700 944 1133
f 944 1344 1341
f 1345 1115 1342
f 1115 1346 1343
f 699 944 700
f 944 1347 1344
f 1348 1115 1345
f 1115 1324 1346
f 1349 944 699
f 944 1350 1347
f 1351 1115 1348
f 1115 1333 1324
f 1352 944 1349
f 944 1353 1350
f 1354 1115 1351
f 1355 944 1352
f 944 1356 1353
f 1354 1333 1115
f 1357 944 1355
f 944 1315 1356
f 1358 1333 1354
f 1359 944 1357
f 944 1016 1315
f 1360 1333 1358
f 1333 944 1359
f 1361 1333 1360
f 1333 1016 944
f 1362 1333 1361
f 1333 1363 1016
f 1364 1333 1362
f 1333 1364 1363
f 374 1057 378
f 378 1057 1060
f 378 1060 377
f 377 1060 1059
f 377 1059 380
f 380 1059 1062
f 380 1062 379
f 379 1062 1061
f 379 1061 382
f 382 1061 1064
f 382 1064 381
f 381 1064 1063
f 381 1063 384
f 384 1063 1066
f 384 1066 383
f 383 1066 1065
f 383 1065 386
f 386 1065 1067
f 386 1067 387
f 387 1067 1069
f 387 1069 385
f 385 1069 1068
f 385 1068 389
f 389 1068 1071
f 389 1071 388
f 388 1071 1070
f 388 1070 391
f 391 1070 1073
f 391 1073 390
f 390 1073 1072
f 390 1072 393
f 393 1072 1075
f 393 1075 392
f 392 1075 1074
f 392 1074 395
f 395 1074 1077
f 395 1077 394
f 394 1077 1076
f 394 1076 397
f 397 1076 1079
f 397 1079 396
f 396 1079 1078
f 396 1078 399
f 399 1078 1081
f 399 1081 398
f 398 1081 1080
f 398 1080 626
f 626 1080 1308
f 626 1308 555
f 555 1308 1237
f 555 1237 514
f 514 1237 1196
f 514 1196 401
f 401 1196 1082
f 401 1082 402
f 402 1082 1084
f 402 1084 400
f 400 1084 1083
f 400 1083 404
f 404 1083 1086
f 404 1086 403
f 403 1086 1085
f 403 1085 406
f 406 1085 1088
f 406 1088 405
f 405 1088 1087
f 405 1087 466
f 466 1087 1148
f 466 1148 539
f 539 1148 1221
f 539 1221 572
f 572 1221 1254
f 572 1254 556
f 556 1254 1238
f 556 1238 540
f 540 1238 1222
f 540 1222 489
f 489 1222 1171
f 489 1171 408
f 408 1171 1089
f 408 1089 409
f 409 1089 1091
f 409 1091 407
f 407 1091 1090
f 407 1090 411
f 411 1090 1093
f 411 1093 410
f 410 1093 1092
f 410 1092 413
f 413 1092 1095
f 413 1095 412
f 412 1095 1094
f 412 1094 415
f 415 1094 1097
f 415 1097 414
f 414 1097 1096
f 414 1096 417
f 417 1096 1099
f 417 1099 416
f 416 1099 1098
f 416 1098 419
f 419 1098 1101
f 419 1101 418
f 418 1101 1100
f 418 1100 587
f 587 1100 1269
f 587 1269 600
f 600 1269 1282
f 600 1282 610
f 610 1282 1292
f 610 1292 611
f 611 1292 1293
f 611 1293 588
f 588 1293 1270
f 588 1270 573
f 573 1270 1255
f 573 1255 557
f 557 1255 1239
f 557 1239 541
f 541 1239 1223
f 541 1223 515
f 515 1223 1197
f 515 1197 467
f 467 1197 1149
f 467 1149 421
f 421 1149 1102
f 421 1102 422
f 422 1102 1104
f 422 1104 420
f 420 1104 1103
f 420 1103 424
f 424 1103 1106
f 424 1106 423
f 423 1106 1105
f 423 1105 426
f 426 1105 1108
f 426 1108 425
f 425 1108 1107
f 425 1107 428
f 428 1107 1110
f 428 1110 427
f 427 1110 1109
f 427 1109 430
f 430 1109 1112
f 430 1112 429
f 429 1112 1111
f 429 1111 432
f 432 1111 1114
f 432 1114 431
f 431 1114 1113
f 431 1113 434
f 434 1113 1116
f 434 1116 433
f 433 1116 1115
f 433 1115 646
f 646 1115 1328
f 646 1328 641
f 641 1328 1323
f 641 1323 634
f 634 1323 1316
f 634 1316 627
f 627 1316 1309
f 627 1309 620
f 620 1309 1302
f 620 1302 612
f 612 1302 1294
f 612 1294 601
f 601 1294 1283
f 601 1283 436
f 436 1283 1117
f 436 1117 437
f 437 1117 1119
f 437 1119 435
f 435 1119 1118
f 435 1118 558
f 558 1118 1240
f 558 1240 516
f 516 1240 1198
f 516 1198 490
f 490 1198 1172
f 490 1172 439
f 439 1172 1120
f 439 1120 440
f 440 1120 1122
f 440 1122 438
f 438 1122 1121
f 438 1121 442
f 442 1121 1123
f 442 1123 443
f 443 1123 1125
f 443 1125 441
f 441 1125 1124
f 441 1124 444
f 444 1124 1126
f 444 1126 445
f 445 1126 1127
f 445 1127 2
f 2 1127 683
f 2 683 544
f 544 683 1226
f 544 1226 520
f 520 1226 1202
f 520 1202 495
f 495 1202 1177
f 495 1177 472
f 472 1177 1154
f 472 1154 449
f 449 1154 1131
f 449 1131 40
f 40 1131 721
f 40 721 41
f 41 721 723
f 41 723 39
f 39 723 722
f 39 722 43
f 43 722 725
f 43 725 42
f 42 725 724
f 42 724 45
f 45 724 727
f 45 727 44
f 44 727 726
f 44 726 47
f 47 726 729
f 47 729 46
f 46 729 728
f 46 728 49
f 49 728 731
f 49 731 48
f 48 731 730
f 48 730 51
f 51 730 733
f 51 733 50
f 50 733 732
f 50 732 53
f 53 732 735
f 53 735 52
f 52 735 734
f 52 734 473
f 473 734 1155
f 473 1155 521
f 521 1155 1203
f 521 1203 545
f 545 1203 1227
f 545 1227 576
f 576 1227 1258
f 576 1258 591
f 591 1258 1273
f 591 1273 561
f 561 1273 1243
f 561 1243 546
f 546 1243 1228
f 546 1228 522
f 522 1228 1204
f 522 1204 474
f 474 1204 1156
f 474 1156 55
f 55 1156 736
f 55 736 56
f 56 736 738
f 56 738 54
f 54 738 737
f 54 737 58
f 58 737 740
f 58 740 57
f 57 740 739
f 57 739 60
f 60 739 742
f 60 742 59
f 59 742 741
f 59 741 62
f 62 741 744
f 62 744 61
f 61 744 743
f 61 743 64
f 64 743 746
f 64 746 63
f 63 746 745
f 63 745 66
f 66 745 748
f 66 748 65
f 65 748 747
f 65 747 68
f 68 747 750
f 68 750 67
f 67 750 749
f 67 749 70
f 70 749 751
f 70 751 71
f 71 751 753
f 71 753 69
f 69 753 752
f 69 752 475
f 475 752 1157
f 475 1157 496
f 496 1157 1178
f 496 1178 497
f 497 1178 1179
f 497 1179 476
f 476 1179 1158
f 476 1158 450
f 450 1158 1132
f 450 1132 73
f 73 1132 754
f 73 754 74
f 74 754 756
f 74 756 72
f 72 756 755
f 72 755 523
f 523 755 1205
f 523 1205 562
f 562 1205 1244
f 562 1244 577
f 577 1244 1259
f 577 1259 451
f 451 1259 1133
f 451 1133 76
f 76 1133 757
f 76 757 77
f 77 757 759
f 77 759 75
f 75 759 758
f 75 758 614
f 614 758 1296
f 614 1296 603
f 603 1296 1285
f 603 1285 578
f 578 1285 1260
f 578 1260 547
f 547 1260 1229
f 547 1229 524
f 524 1229 1206
f 524 1206 477
f 477 1206 1159
f 477 1159 79
f 79 1159 760
f 79 760 80
f 80 760 762
f 80 762 78
f 78 762 761
f 78 761 82
f 82 761 764
f 82 764 81
f 81 764 763
f 81 763 84
f 84 763 766
f 84 766 83
f 83 766 765
f 83 765 452
f 452 765 1134
f 452 1134 563
f 563 1134 1245
f 563 1245 525
f 525 1245 1207
f 525 1207 498
f 498 1207 1180
f 498 1180 453
f 453 1180 1135
f 453 1135 86
f 86 1135 767
f 86 767 87
f 87 767 769
f 87 769 85
f 85 769 768
f 85 768 89
f 89 768 771
f 89 771 88
f 88 771 770
f 88 770 91
f 91 770 773
f 91 773 90
f 90 773 772
f 90 772 93
f 93 772 775
f 93 775 92
f 92 775 774
f 92 774 95
f 95 774 777
f 95 777 94
f 94 777 776
f 94 776 97
f 97 776 779
f 97 779 96
f 96 779 778
f 96 778 99
f 99 778 781
f 99 781 98
f 98 781 780
f 98 780 101
f 101 780 783
f 101 783 100
f 100 783 782
f 100 782 454
f 454 782 1136
f 454 1136 478
f 478 1136 1160
f 478 1160 526
f 526 1160 1208
f 526 1208 579
f 579 1208 1261
f 579 1261 637
f 637 1261 1319
f 637 1319 644
f 644 1319 1326
f 644 1326 564
f 564 1326 1246
f 564 1246 548
f 548 1246 1230
f 548 1230 499
f 499 1230 1181
f 499 1181 479
f 479 1181 1161
f 479 1161 455
f 455 1161 1137
f 455 1137 103
f 103 1137 784
f 103 784 104
f 104 784 786
f 104 786 102
f 102 786 785
f 102 785 106
f 106 785 788
f 106 788 105
f 105 788 787
f 105 787 108
f 108 787 790
f 108 790 107
f 107 790 789
f 107 789 110
f 110 789 792
f 110 792 109
f 109 792 791
f 109 791 456
f 456 791 1138
f 456 1138 580
f 580 1138 1262
f 580 1262 581
f 581 1262 1263
f 581 1263 500
f 500 1263 1182
f 500 1182 457
f 457 1182 1139
f 457 1139 112
f 112 1139 793
f 112 793 113
f 113 793 795
f 113 795 111
f 111 795 794
f 111 794 115
f 115 794 797
f 115 797 114
f 114 797 796
f 114 796 117
f 117 796 799
f 117 799 116
f 116 799 798
f 116 798 527
f 527 798 1209
f 527 1209 528
f 528 1209 1210
f 528 1210 501
f 501 1210 1183
f 501 1183 480
f 480 1183 1162
f 480 1162 458
f 458 1162 1140
f 458 1140 119
f 119 1140 800
f 119 800 120
f 120 800 802
f 120 802 118
f 118 802 801
f 118 801 122
f 122 801 804
f 122 804 121
f 121 804 803
f 121 803 124
f 124 803 806
f 124 806 123
f 123 806 805
f 123 805 126
f 126 805 808
f 126 808 125
f 125 808 807
f 125 807 128
f 128 807 810
f 128 810 127
f 127 810 809
f 127 809 130
f 130 809 812
f 130 812 129
f 129 812 811
f 129 811 132
f 132 811 814
f 132 814 131
f 131 814 813
f 131 813 134
f 134 813 816
f 134 816 133
f 133 816 815
f 133 815 136
f 136 815 817
f 136 817 137
f 137 817 819
f 137 819 135
f 135 819 818
f 135 818 139
f 139 818 821
f 139 821 138
f 138 821 820
f 138 820 141
f 141 820 823
f 141 823 140
f 140 823 822
f 140 822 143
f 143 822 825
f 143 825 142
f 142 825 824
f 142 824 145
f 145 824 826
f 145 826 146
f 146 826 828
f 146 828 144
f 144 828 827
f 144 827 481
f 481 827 1163
f 481 1163 502
f 502 1163 1184
f 502 1184 529
f 529 1184 1211
f 529 1211 503
f 503 1211 1185
f 503 1185 148
f 148 1185 829
f 148 829 149
f 149 829 831
f 149 831 147
f 147 831 830
f 147 830 151
f 151 830 833
f 151 833 150
f 150 833 832
f 150 832 153
f 153 832 835
f 153 835 152
f 152 835 834
f 152 834 155
f 155 834 837
f 155 837 154
f 154 837 836
f 154 836 530
f 530 836 1212
f 530 1212 531
f 531 1212 1213
f 531 1213 504
f 504 1213 1186
f 504 1186 157
f 157 1186 838
f 157 838 158
f 158 838 840
f 158 840 156
f 156 840 839
f 156 839 160
f 160 839 842
f 160 842 159
f 159 842 841
f 159 841 162
f 162 841 844
f 162 844 161
f 161 844 843
f 161 843 164
f 164 843 846
f 164 846 163
f 163 846 845
f 163 845 166
f 166 845 848
f 166 848 165
f 165 848 847
f 165 847 168
f 168 847 850
f 168 850 167
f 167 850 849
f 167 849 170
f 170 849 852
f 170 852 169
f 169 852 851
f 169 851 172
f 172 851 854
f 172 854 171
f 171 854 853
f 171 853 174
f 174 853 856
f 174 856 173
f 173 856 855
f 173 855 176
f 176 855 858
f 176 858 175
f 175 858 857
f 175 857 532
f 532 857 1214
f 532 1214 592
f 592 1214 1274
f 592 1274 604
f 604 1274 1286
f 604 1286 615
f 615 1286 1297
f 615 1297 593
f 593 1297 1275
f 593 1275 582
f 582 1275 1264
f 582 1264 549
f 549 1264 1231
f 549 1231 533
f 533 1231 1215
f 533 1215 505
f 505 1215 1187
f 505 1187 482
f 482 1187 1164
f 482 1164 178
f 178 1164 859
f 178 859 179
f 179 859 861
f 179 861 177
f 177 861 860
f 177 860 181
f 181 860 863
f 181 863 180
f 180 863 862
f 180 862 183
f 183 862 865
f 183 865 182
f 182 865 864
f 182 864 550
f 550 864 1232
f 550 1232 534
f 534 1232 1216
f 534 1216 506
f 506 1216 1188
f 506 1188 483
f 483 1188 1165
f 483 1165 459
f 459 1165 1141
f 459 1141 185
f 185 1141 866
f 185 866 186
f 186 866 868
f 186 868 184
f 184 868 867
f 184 867 188
f 188 867 870
f 188 870 187
f 187 870 869
f 187 869 190
f 190 869 872
f 190 872 189
f 189 872 871
f 189 871 192
f 192 871 874
f 192 874 191
f 191 874 873
f 191 873 194
f 194 873 875
f 194 875 195
f 195 875 877
f 195 877 193
f 193 877 876
f 193 876 197
f 197 876 879
f 197 879 196
f 196 879 878
f 196 878 199
f 199 878 881
f 199 881 198
f 198 881 880
f 198 880 201
f 201 880 883
f 201 883 200
f 200 883 882
f 200 882 203
f 203 882 885
f 203 885 202
f 202 885 884
f 202 884 205
f 205 884 887
f 205 887 204
f 204 887 886
f 204 886 207
f 207 886 889
f 207 889 206
f 206 889 888
f 206 888 209
f 209 888 891
f 209 891 208
f 208 891 890
f 208 890 211
f 211 890 893
f 211 893 210
f 210 893 892
f 210 892 213
f 213 892 895
f 213 895 212
f 212 895 894
f 212 894 460
f 460 894 1142
f 460 1142 484
f 484 1142 1166
f 484 1166 551
f 551 1166 1233
f 551 1233 565
f 565 1233 1247
f 565 1247 583
f 583 1247 1265
f 583 1265 594
f 594 1265 1276
f 594 1276 605
f 605 1276 1287
f 605 1287 649
f 649 1287 1331
f 649 1331 630
f 630 1331 1312
f 630 1312 595
f 595 1312 1277
f 595 1277 566
f 566 1277 1248
f 566 1248 461
f 461 1248 1143
f 461 1143 215
f 215 1143 896
f 215 896 216
f 216 896 898
f 216 898 214
f 214 898 897
f 214 897 218
f 218 897 900
f 218 900 217
f 217 900 899
f 217 899 220
f 220 899 902
f 220 902 219
f 219 902 901
f 219 901 222
f 222 901 904
f 222 904 221
f 221 904 903
f 221 903 224
f 224 903 906
f 224 906 223
f 223 906 905
f 223 905 226
f 226 905 908
f 226 908 225
f 225 908 907
f 225 907 228
f 228 907 910
f 228 910 227
f 227 910 909
f 227 909 230
f 230 909 912
f 230 912 229
f 229 912 911
f 229 911 232
f 232 911 914
f 232 914 231
f 231 914 913
f 231 913 234
f 234 913 916
f 234 916 233
f 233 916 915
f 233 915 236
f 236 915 918
f 236 918 235
f 235 918 917
f 235 917 238
f 238 917 920
f 238 920 237
f 237 920 919
f 237 919 240
f 240 919 922
f 240 922 239
f 239 922 921
f 239 921 242
f 242 921 924
f 242 924 241
f 241 924 923
f 241 923 244
f 244 923 926
f 244 926 243
f 243 926 925
f 243 925 246
f 246 925 928
f 246 928 245
f 245 928 927
f 245 927 248
f 248 927 930
f 248 930 247
f 247 930 929
f 247 929 250
f 250 929 932
f 250 932 249
f 249 932 931
f 249 931 252
f 252 931 934
f 252 934 251
f 251 934 933
f 251 933 507
f 507 933 1189
f 507 1189 508
f 508 1189 1190
f 508 1190 254
f 254 1190 935
f 254 935 255
f 255 935 937
f 255 937 253
f 253 937 936
f 253 936 257
f 257 936 939
f 257 939 256
f 256 939 938
f 256 938 259
f 259 938 941
f 259 941 258
f 258 941 940
f 258 940 261
f 261 940 943
f 261 943 260
f 260 943 942
f 260 942 535
f 535 942 1217
f 535 1217 606
f 606 1217 1288
f 606 1288 616
f 616 1288 1298
f 616 1298 622
f 622 1298 1304
f 622 1304 638
f 638 1304 1320
f 638 1320 263
f 263 1320 944
f 263 944 264
f 264 944 946
f 264 946 262
f 262 946 945
f 262 945 266
f 266 945 948
f 266 948 265
f 265 948 947
f 265 947 268
f 268 947 950
f 268 950 267
f 267 950 949
f 267 949 270
f 270 949 952
f 270 952 269
f 269 952 951
f 269 951 536
f 536 951 1218
f 536 1218 272
f 272 1218 953
f 272 953 273
f 273 953 955
f 273 955 271
f 271 955 954
f 271 954 275
f 275 954 956
f 275 956 276
f 276 956 958
f 276 958 274
f 274 958 957
f 274 957 278
f 278 957 960
f 278 960 277
f 277 960 959
f 277 959 280
f 280 959 962
f 280 962 279
f 279 962 961
f 279 961 282
f 282 961 964
f 282 964 281
f 281 964 963
f 281 963 284
f 284 963 966
f 284 966 283
f 283 966 965
f 283 965 286
f 286 965 968
f 286 968 285
f 285 968 967
f 285 967 288
f 288 967 970
f 288 970 287
f 287 970 969
f 287 969 290
f 290 969 972
f 290 972 289
f 289 972 971
f 289 971 292
f 292 971 974
f 292 974 291
f 291 974 973
f 291 973 294
f 294 973 976
f 294 976 293
f 293 976 975
f 293 975 296
f 296 975 978
f 296 978 295
f 295 978 977
f 295 977 298
f 298 977 980
f 298 980 297
f 297 980 979
f 297 979 462
f 462 979 1144
f 462 1144 485
f 485 1144 1167
f 485 1167 552
f 552 1167 1234
f 552 1234 596
f 596 1234 1278
f 596 1278 607
f 607 1278 1289
f 607 1289 617
f 617 1289 1299
f 617 1299 623
f 623 1299 1305
f 623 1305 631
f 631 1305 1313
f 631 1313 632
f 632 1313 1314
f 632 1314 608
f 608 1314 1290
f 608 1290 300
f 300 1290 981
f 300 981 301
f 301 981 983
f 301 983 299
f 299 983 982
f 299 982 567
f 567 982 1249
f 567 1249 553
f 553 1249 1235
f 553 1235 509
f 509 1235 1191
f 509 1191 303
f 303 1191 984
f 303 984 304
f 304 984 986
f 304 986 302
f 302 986 985
f 302 985 306
f 306 985 988
f 306 988 305
f 305 988 987
f 305 987 308
f 308 987 990
f 308 990 307
f 307 990 989
f 307 989 310
f 310 989 992
f 310 992 309
f 309 992 991
f 309 991 312
f 312 991 994
f 312 994 311
f 311 994 993
f 311 993 314
f 314 993 996
f 314 996 313
f 313 996 995
f 313 995 486
f 486 995 1168
f 486 1168 510
f 510 1168 1192
f 510 1192 618
f 618 1192 1300
f 618 1300 624
f 624 1300 1306
f 624 1306 639
f 639 1306 1321
f 639 1321 650
f 650 1321 1332
f 650 1332 653
f 653 1332 1335
f 653 1335 656
f 656 1335 1338
f 656 1338 659
f 659 1338 1341
f 659 1341 662
f 662 1341 1344
f 662 1344 665
f 665 1344 1347
f 665 1347 668
f 668 1347 1350
f 668 1350 671
f 671 1350 1353
f 671 1353 674
f 674 1353 1356
f 674 1356 633
f 633 1356 1315
f 633 1315 625
f 625 1315 1307
f 625 1307 619
f 619 1307 1301
f 619 1301 609
f 609 1301 1291
f 609 1291 597
f 597 1291 1279
f 597 1279 584
f 584 1279 1266
f 584 1266 568
f 568 1266 1250
f 568 1250 537
f 537 1250 1219
f 537 1219 487
f 487 1219 1169
f 487 1169 316
f 316 1169 997
f 316 997 317
f 317 997 999
f 317 999 315
f 315 999 998
f 315 998 319
f 319 998 1001
f 319 1001 318
f 318 1001 1000
f 318 1000 321
f 321 1000 1003
f 321 1003 320
f 320 1003 1002
f 320 1002 323
f 323 1002 1005
f 323 1005 322
f 322 1005 1004
f 322 1004 325
f 325 1004 1007
f 325 1007 324
f 324 1007 1006
f 324 1006 327
f 327 1006 1009
f 327 1009 326
f 326 1009 1008
f 326 1008 329
f 329 1008 1011
f 329 1011 328
f 328 1011 1010
f 328 1010 331
f 331 1010 1013
f 331 1013 330
f 330 1013 1012
f 330 1012 333
f 333 1012 1015
f 333 1015 332
f 332 1015 1014
f 332 1014 335
f 335 1014 1017
f 335 1017 334
f 334 1017 1016
f 334 1016 681
f 681 1016 1363
f 681 1363 682
f 682 1363 1364
f 682 1364 680
f 680 1364 1362
f 680 1362 679
f 679 1362 1361
f 679 1361 678
f 678 1361 1360
f 678 1360 676
f 676 1360 1358
f 676 1358 672
f 672 1358 1354
f 672 1354 669
f 669 1354 1351
f 669 1351 666
f 666 1351 1348
f 666 1348 663
f 663 1348 1345
f 663 1345 660
f 660 1345 1342
f 660 1342 657
f 657 1342 1339
f 657 1339 645
f 645 1339 1327
f 645 1327 640
f 640 1327 1322
f 640 1322 598
f 598 1322 1280
f 598 1280 569
f 569 1280 1251
f 569 1251 511
f 511 1251 1193
f 511 1193 463
f 463 1193 1145
f 463 1145 337
f 337 1145 1018
f 337 1018 338
f 338 1018 1020
f 338 1020 336
f 336 1020 1019
f 336 1019 340
f 340 1019 1022
f 340 1022 339
f 339 1022 1021
f 339 1021 342
f 342 1021 1024
f 342 1024 341
f 341 1024 1023
f 341 1023 344
f 344 1023 1026
f 344 1026 343
f 343 1026 1025
f 343 1025 464
f 464 1025 1146
f 464 1146 465
f 465 1146 1147
f 465 1147 346
f 346 1147 1027
f 346 1027 347
f 347 1027 1029
f 347 1029 345
f 345 1029 1028
f 345 1028 585
f 585 1028 1267
f 585 1267 570
f 570 1267 1252
f 570 1252 554
f 554 1252 1236
f 554 1236 512
f 512 1236 1194
f 512 1194 488
f 488 1194 1170
f 488 1170 349
f 349 1170 1030
f 349 1030 350
f 350 1030 1032
f 350 1032 348
f 348 1032 1031
f 348 1031 352
f 352 1031 1034
f 352 1034 351
f 351 1034 1033
f 351 1033 354
f 354 1033 1036
f 354 1036 353
f 353 1036 1035
f 353 1035 356
f 356 1035 1038
f 356 1038 355
f 355 1038 1037
f 355 1037 358
f 358 1037 1040
f 358 1040 357
f 357 1040 1039
f 357 1039 360
f 360 1039 1042
f 360 1042 359
f 359 1042 1041
f 359 1041 362
f 362 1041 1044
f 362 1044 361
f 361 1044 1043
f 361 1043 364
f 364 1043 1046
f 364 1046 363
f 363 1046 1045
f 363 1045 599
f 599 1045 1281
f 599 1281 586
f 586 1281 1268
f 586 1268 571
f 571 1268 1253
f 571 1253 538
f 538 1253 1220
f 538 1220 513
f 513 1220 1195
f 513 1195 366
f 366 1195 1047
f 366 1047 367
f 367 1047 1049
f 367 1049 365
f 365 1049 1048
f 365 1048 369
f 369 1048 1051
f 369 1051 368
f 368 1051 1050
f 368 1050 371
f 371 1050 1053
f 371 1053 370
f 370 1053 1052
f 370 1052 373
f 373 1052 1055
f 373 1055 372
f 372 1055 1054
f 372 1054 375
f 375 1054 1056
f 375 1056 376
f 376 1056 1058
f 376 1058 374
f 374 1058 1057
f 589 1271 574
f 574 1271 1256
f 574 1256 559
f 559 1256 1241
f 559 1241 542
f 542 1241 1224
f 542 1224 491
f 491 1224 1173
f 491 1173 5
f 5 1173 686
f 5 686 6
f 6 686 688
f 6 688 4
f 4 688 687
f 4 687 8
f 8 687 690
f 8 690 7
f 7 690 689
f 7 689 10
f 10 689 692
f 10 692 9
f 9 692 691
f 9 691 12
f 12 691 694
f 12 694 11
f 11 694 693
f 11 693 14
f 14 693 696
f 14 696 13
f 13 696 695
f 13 695 16
f 16 695 698
f 16 698 15
f 15 698 697
f 15 697 468
f 468 697 1150
f 468 1150 492
f 492 1150 1174
f 492 1174 628
f 628 1174 1310
f 628 1310 635
f 635 1310 1317
f 635 1317 647
f 647 1317 1329
f 647 1329 651
f 651 1329 1333
f 651 1333 677
f 677 1333 1359
f 677 1359 675
f 675 1359 1357
f 675 1357 673
f 673 1357 1355
f 673 1355 670
f 670 1355 1352
f 670 1352 667
f 667 1352 1349
f 667 1349 18
f 18 1349 699
f 18 699 19
f 19 699 701
f 19 701 17
f 17 701 700
f 17 700 655
f 655 700 1337
f 655 1337 652
f 652 1337 1334
f 652 1334 648
f 648 1334 1330
f 648 1330 643
f 643 1330 1325
f 643 1325 636
f 636 1325 1318
f 636 1318 629
f 629 1318 1311
f 629 1311 560
f 560 1311 1242
f 560 1242 543
f 543 1242 1225
f 543 1225 518
f 518 1225 1200
f 518 1200 493
f 493 1200 1175
f 493 1175 469
f 469 1175 1151
f 469 1151 447
f 447 1151 1129
f 447 1129 21
f 21 1129 702
f 21 702 22
f 22 702 704
f 22 704 20
f 20 704 703
f 20 703 575
f 575 703 1257
f 575 1257 590
f 590 1257 1272
f 590 1272 519
f 519 1272 1201
f 519 1201 470
f 470 1201 1152
f 470 1152 24
f 24 1152 705
f 24 705 25
f 25 705 707
f 25 707 23
f 23 707 706
f 23 706 27
f 27 706 709
f 27 709 26
f 26 709 708
f 26 708 29
f 29 708 711
f 29 711 28
f 28 711 710
f 28 710 31
f 31 710 713
f 31 713 30
f 30 713 712
f 30 712 33
f 33 712 715
f 33 715 32
f 32 715 714
f 32 714 35
f 35 714 717
f 35 717 34
f 34 717 716
f 34 716 37
f 37 716 719
f 37 719 36
f 36 719 718
f 36 718 494
f 494 718 1176
f 494 1176 471
f 471 1176 1153
f 471 1153 448
f 448 1153 1130
f 448 1130 38
f 38 1130 720
f 38 720 3
f 3 720 685
f 3 685 1
f 1 685 684
f 1 684 446
f 446 684 1128
f 446 1128 517
f 517 1128 1199
f 517 1199 654
f 654 1199 1336
f 654 1336 658
f 658 1336 1340
f 658 1340 661
f 661 1340 1343
f 661 1343 664
f 664 1343 1346
f 664 1346 642
f 642 1346 1324
f 642 1324 621
f 621 1324 1303
f 621 1303 613
f 613 1303 1295
f 613 1295 602
f 602 1295 1284
f 602 1284 589
f 589 1284 1271
