o 
v 29.696 0 -0.211
v 32.199 0 -0.135
v 31.17 0 -0.16
v 27.891 0 -0.324
v 28.634 0 -0.262
v 26.996 0 -0.526
v 27.376 0 -0.408
v 25.89 0 -1.1
v 26.66 0 -0.69
v 26.388 0 -2.252
v 26.26 0 -1.97
v 27.461 0 -4.703
v 27.09 0 -3.861
v 27.26 0 -4.28
v 27.978 0 -5.641
v 27.705 0 -5.166
v 28.554 0 -6.529
v 28.265 0 -6.104
v 29.77 0 -8.08
v 28.83 0 -6.89
v 12.136 0 -20.41
v 13.522 0 -19.819
v 12.799 0 -20.127
v 11.128 0 -20.841
v 11.568 0 -20.653
v 10.667 0 -21.043
v 10.85 0 -20.96
v 10.361 0 -21.219
v 10.502 0 -21.131
v 10.179 0 -21.377
v 10.251 0 -21.302
v 10.163 0 -21.53
v 10.15 0 -21.44
v 10.256 0 -21.935
v 10.199 0 -21.7
v 10.42 0 -22.54
v 10.331 0 -22.22
v 10.683 0 -23.364
v 10.52 0 -22.88
v 11.094 0 -24.201
v 10.864 0 -23.789
v 11.821 0 -25.175
v 11.402 0 -24.647
v 12.811 0 -26.313
v 12.38 0 -25.83
v 15.715 0 -29.625
v 14.563 0 -28.321
v 14.89 0 -28.7
v 18.438 0 -32.584
v 16.926 0 -30.95
v 22.033 0 -36.419
v 20.168 0 -34.437
v 25.291 0 -39.827
v 23.95 0 -38.44
v 27.841 0 -42.235
v 26.541 0 -41.05
v 31.168 0 -44.99
v 29.336 0 -43.507
v 44.995 0 -59.376
v 44.63 0 -58.6
v 44.828 0 -59.05
v 45.322 0 -59.754
v 45.153 0 -59.603
v 45.78 0 -59.93
v 45.524 0 -59.855
v 48.41 0 -65.16
v 48.246 0 -63.1
v 48.28 0 -63.55
v 44.686 0 -64.777
v 45.321 0 -66.187
v 45.06 0 -65.6
v 44.132 0 -63.709
v 44.385 0 -64.16
v 43.666 0 -63.144
v 43.901 0 -63.384
v 43.146 0 -62.776
v 43.4 0 -62.95
v 42.544 0 -61.418
v 42.65 0 -62.009
v 42.6 0 -61.71
v 42.399 0 -61.021
v 42.479 0 -61.193
v 42.157 0 -60.788
v 42.294 0 -60.891
v 40.215 0 -60.016
v 41.98 0 -60.7
v 37.905 0 -59.243
v 38.915 0 -59.545
v 36.061 0 -58.969
v 37.012 0 -59.065
v 33.912 0 -58.866
v 34.88 0 -58.91
v 32.895 0 -55.83
v 32.594 0 -57.015
v 32.71 0 -56.57
v 35.41 0 -53.55
v 34.46 0 -55.03
v 35.1 0 -55.11
v 35.55 0 -52.755
v 35.485 0 -53.134
v 35.637 0 -52.178
v 35.601 0 -52.431
v 35.65 0 -51.95
v 35.654 0 -52.012
v 34.011 0 -51.598
v 35.149 0 -51.813
v 31.109 0 -51.132
v 32.557 0 -51.354
v 29.51 0 -50.96
v 29.986 0 -50.984
v 29.324 0 -51.67
v 29.433 0 -51.185
v 29.093 0 -52.956
v 29.204 0 -52.3
v 28.98 0 -53.88
v 29.012 0 -53.522
v 29.093 0 -53.984
v 29.009 0 -53.929
v 29.387 0 -54.096
v 29.221 0 -54.041
v 29.8 0 -54.18
v 29.583 0 -54.143
v 26.33 0 -61.16
v 28.192 0 -59.702
v 27.79 0 -60.01
v 25.432 0 -64.855
v 25.62 0 -64.08
v 24.833 0 -67.269
v 24.876 0 -67.032
v 24.83 0 -67.19
v 24.959 0 -67.549
v 24.877 0 -67.392
v 25.215 0 -67.931
v 25.073 0 -67.731
v 26 0 -68.89
v 25.38 0 -68.14
v 25.071 0 -72.794
v 25.4 0 -71.41
v 25.229 0 -72.109
v 24.813 0 -73.996
v 24.93 0 -73.434
v 24.67 0 -74.76
v 24.724 0 -74.449
v 24.632 0 -75.34
v 24.636 0 -75.098
v 24.758 0 -75.65
v 24.669 0 -75.515
v 25.14 0 -75.91
v 24.911 0 -75.772
v 25.544 0 -76.843
v 25.64 0 -76.46
v 25.605 0 -76.592
v 25.363 0 -77.627
v 25.461 0 -77.195
v 25.14 0 -78.65
v 25.254 0 -78.118
v 23.446 0 -80.374
v 24.72 0 -80.61
v 24.06 0 -80.48
v 22.729 0 -80.396
v 23.017 0 -80.339
v 22.408 0 -80.876
v 22.54 0 -80.568
v 22.227 0 -81.61
v 22.29 0 -81.34
v 22.119 0 -82.085
v 22.169 0 -81.862
v 22.067 0 -82.511
v 22.047 0 -82.4
v 22.03 0 -82.47
v 22.329 0 -82.622
v 22.17 0 -82.563
v 22.774 0 -82.754
v 22.534 0 -82.687
v 23.315 0 -82.885
v 23.04 0 -82.82
v 21.984 0 -85.721
v 22.851 0 -85.86
v 22.24 0 -85.76
v 21.549 0 -85.68
v 21.751 0 -85.694
v 21.27 0 -85.692
v 21.386 0 -85.679
v 21.186 0 -85.79
v 21.21 0 -85.72
v 21.121 0 -86.106
v 21.156 0 -85.922
v 21.046 0 -86.586
v 21.084 0 -86.331
v 20.9 0 -87.86
v 21.01 0 -86.86
v 23.09 0 -90.42
v 23.259 0 -88.862
v 23.2 0 -89.36
v 23.996 0 -90.579
v 23.79 0 -90.55
v 25.042 0 -90.798
v 24.767 0 -90.736
v 24.89 0 -90.77
v 25.235 0 -90.729
v 25.153 0 -90.788
v 25.348 0 -90.429
v 25.297 0 -90.612
v 25.511 0 -89.58
v 25.4 0 -90.17
v 27.88 0 -88.43
v 26.81 0 -88.94
v 27.88 0 -89.07
v 28.031 0 -86.848
v 27.99 0 -87.24
v 28.032 0 -87.008
v 27.806 0 -86.672
v 27.964 0 -86.743
v 27.12 0 -86.56
v 27.532 0 -86.617
v 28.624 0 -83.947
v 27.5 0 -83.8
v 28.174 0 -83.906
v 29.073 0 -83.723
v 28.905 0 -83.895
v 29.29 0 -82.91
v 29.182 0 -83.404
v 29.407 0 -82.362
v 29.357 0 -82.626
v 29.463 0 -81.941
v 29.442 0 -82.13
v 29.46 0 -81.74
v 29.468 0 -81.807
v 29.281 0 -81.673
v 29.401 0 -81.71
v 28.902 0 -81.587
v 29.111 0 -81.631
v 28.41 0 -81.5
v 28.665 0 -81.542
v 29.42 0 -76.46
v 28.16 0 -76.9
v 28.8 0 -76.68
v 30.314 0 -72.477
v 30.06 0 -73.61
v 31.334 0 -70.498
v 30.973 0 -70.682
v 31.16 0 -70.59
v 31.696 0 -70.12
v 31.511 0 -70.344
v 32.115 0 -69.422
v 31.896 0 -69.816
v 33.07 0 -67.45
v 32.36 0 -68.93
v 38.037 0 -70.352
v 36.07 0 -67.45
v 37.22 0 -69.15
v 39.274 0 -72.095
v 38.701 0 -71.306
v 40.4 0 -73.518
v 39.819 0 -72.804
v 42.49 0 -75.98
v 41.08 0 -74.32
v 42.772 0 -78.137
v 42.69 0 -77.57
v 42.995 0 -79.114
v 42.871 0 -78.644
v 43.338 0 -80.034
v 43.149 0 -79.569
v 44.22 0 -81.89
v 43.57 0 -80.53
v 51.24 0 -82.16
v 48.506 0 -82.012
v 49.12 0 -82.05
v 49.579 0 -86.077
v 50.24 0 -84.5
v 49.85 0 -85.404
v 49.328 0 -86.97
v 49.41 0 -86.579
v 49.36 0 -87.66
v 49.317 0 -87.31
v 49.486 0 -88.256
v 49.414 0 -88.004
v 49.804 0 -88.611
v 49.606 0 -88.448
v 50.55 0 -88.98
v 50.108 0 -88.778
v 51.43 0 -96.53
v 51.19 0 -93.82
v 50.75 0 -94.83
v 51.938 0 -97.74
v 51.71 0 -97.235
v 52.412 0 -98.393
v 52.158 0 -98.106
v 53.2 0 -98.97
v 52.745 0 -98.661
v 54.06 0 -99.482
v 53.67 0 -99.271
v 54.976 0 -99.725
v 54.465 0 -99.625
v 56.69 0 -99.89
v 55.687 0 -99.805
v 58.439 0 -99.998
v 57.712 0 -99.963
v 59.434 0 -99.912
v 58.978 0 -99.984
v 60.53 0 -99.56
v 59.916 0 -99.774
v 61.539 0 -99.148
v 61.107 0 -99.341
v 62.168 0 -98.696
v 61.876 0 -98.945
v 62.81 0 -97.91
v 62.463 0 -98.363
v 63.286 0 -97.229
v 63.051 0 -97.582
v 63.694 0 -96.528
v 63.504 0 -96.871
v 63.95 0 -95.96
v 63.847 0 -96.218
v 64.852 0 -93.471
v 64.571 0 -94.242
v 64.71 0 -93.88
v 65.054 0 -92.719
v 64.966 0 -93.084
v 65.146 0 -92.057
v 65.114 0 -92.376
v 65.136 0 -91.531
v 65.15 0 -91.76
v 66.963 0 -89.539
v 66.253 0 -89.979
v 66.58 0 -89.78
v 67.878 0 -88.875
v 67.403 0 -89.231
v 68.826 0 -88.104
v 68.36 0 -88.493
v 70.65 0 -86.42
v 69.25 0 -87.73
v 74.95 0 -79.56
v 70.43 0 -81.68
v 73.12 0 -81.68
v 79.352 0 -75.706
v 77.938 0 -76.684
v 78.64 0 -76.2
v 80.494 0 -74.786
v 79.953 0 -75.251
v 81.606 0 -73.63
v 81.027 0 -74.262
v 82.864 0 -72.146
v 82.28 0 -72.84
v 84.626 0 -70.691
v 84.271 0 -70.788
v 84.45 0 -70.74
v 85.156 0 -70.245
v 84.856 0 -70.532
v 86.036 0 -69.212
v 85.544 0 -69.811
v 88.42 0 -66.13
v 86.65 0 -68.43
v 89.66 0 -58.12
v 89.04 0 -62.13
v 88.71 0 -56.26
v 89.19 0 -57.19
v 89.506 0 -54.76
v 89.28 0 -55.2
v 89.764 0 -54.021
v 89.663 0 -54.389
v 89.845 0 -53.046
v 89.82 0 -53.595
v 89.85 0 -50.47
v 89.85 0 -52.31
v 87.38 0 -47.174
v 87.56 0 -47.63
v 87.478 0 -47.384
v 87.13 0 -46.846
v 87.265 0 -46.996
v 86.79 0 -46.61
v 86.972 0 -46.718
v 86.927 0 -43.503
v 86.25 0 -46.33
v 86.67 0 -44.6
v 87.439 0 -41.019
v 87.191 0 -42.267
v 87.787 0 -38.998
v 87.646 0 -39.887
v 87.825 0 -38.356
v 87.84 0 -38.48
v 87.704 0 -38.144
v 87.78 0 -38.245
v 87.459 0 -37.968
v 87.597 0 -38.052
v 87.059 0 -37.813
v 87.29 0 -37.89
v 86.704 0 -37.846
v 86.875 0 -37.793
v 86.265 0 -38.243
v 86.511 0 -37.991
v 84.345 0 -36.969
v 84.4 0 -37.87
v 84.376 0 -37.336
v 84.192 0 -36.594
v 84.289 0 -36.734
v 83.81 0 -36.46
v 84.038 0 -36.515
v 83.522 0 -36.413
v 83.664 0 -36.431
v 83.274 0 -36.41
v 83.39 0 -36.406
v 83.12 0 -36.45
v 83.182 0 -36.425
v 82.176 0 -37.739
v 82.807 0 -36.838
v 80.484 0 -40.285
v 81.357 0 -38.954
v 79.1 0 -42.5
v 79.688 0 -41.533
v 78.57 0 -43.54
v 78.86 0 -42.94
v 77.913 0 -45.053
v 78.249 0 -44.259
v 77.27 0 -46.7
v 77.581 0 -45.881
v 76.518 0 -48.809
v 76.827 0 -47.906
v 76.189 0 -50.195
v 76.315 0 -49.53
v 76.05 0 -51.85
v 76.11 0 -50.927
v 77.87 0 -55.02
v 75.9 0 -54.08
v 78.891 0 -55.474
v 78.399 0 -55.258
v 79.682 0 -55.803
v 79.326 0 -55.659
v 80.07 0 -55.93
v 79.937 0 -55.897
v 80.312 0 -55.768
v 80.165 0 -55.888
v 80.718 0 -55.342
v 80.5 0 -55.583
v 81.2 0 -54.74
v 80.955 0 -55.057
v 81.918 0 -55.668
v 82.477 0 -55.299
v 82.26 0 -55.44
v 81.448 0 -56.222
v 81.661 0 -55.901
v 80.971 0 -57.477
v 81.232 0 -56.719
v 80.313 0 -59.586
v 80.62 0 -58.58
v 79.942 0 -61.019
v 80.091 0 -60.375
v 79.806 0 -62.168
v 79.852 0 -61.592
v 79.79 0 -64.45
v 79.79 0 -62.82
v 68.72 0 -65.64
v 70.29 0 -68.71
v 69.65 0 -66.31
v 69.72 0 -52.57
v 68.42 0 -56.73
v 69.3 0 -56.17
v 78.258 0 -29.816
v 77.78 0 -30.495
v 78.02 0 -30.16
v 78.849 0 -28.808
v 78.54 0 -29.355
v 79.476 0 -27.579
v 79.167 0 -28.205
v 80.135 0 -26.128
v 79.76 0 -26.96
v 81.368 0 -23.369
v 80.684 0 -24.901
v 82.98 0 -19.739
v 82.146 0 -21.619
v 86.54 0 -9.91
v 83.83 0 -17.82
v 86.94 0 -10.89
v 88.57 0 -4.09
v 86.99 0 -8.06
v 87.87 0 -7.18
v 88.31 0 -0.51
v 89.26 0 -1.01
v 82.61 0 0
v 87.38 0 -0.02
v 77.18 0 -0.58
v 77.84 0 0
v 77.14 0 -3.2
v 76.5 0 -1.19
v 76.926 0 -7
v 77.8 0 -5.21
v 77.11 0 -6.62
v 71.479 0 -5.917
v 74.095 0 -7.097
v 73.36 0 -6.76
v 68.481 0 -5.021
v 69.947 0 -5.351
v 64.62 0 -4.902
v 66.8 0 -4.885
v 59.978 0 -5.116
v 61.66 0 -5.03
v 56.002 0 -5.332
v 58.055 0 -5.219
v 51.954 0 -5.569
v 53.932 0 -5.451
v 47.768 0 -5.843
v 50.18 0 -5.68
v 44.684 0 -6.114
v 46.004 0 -5.979
v 42.557 0 -6.488
v 43.603 0 -6.275
v 39.849 0 -7.133
v 41.34 0 -6.78
v 40.56 0 -6.965
v 37.53 0 -0.48
v 38.25 0 -4.22
v 38.36 0 -0.97
v 36.964 0 -0.193
v 37.236 0 -0.316
v 36.432 0 -0.054
v 36.701 0 -0.106
v 35.82 0 -0.04
v 36.143 0 -0.033
v 33.187 0 -0.111
v 26.907 0 -3.428
v 14.168 0 -27.865
v 33.48 0 -46.81
v 46.753 0 -60.18
v 33.875 0 -54.966
v 28.576 0 -59.408
v 24.968 0 -66.688
v 22.077 0 -82.268
v 21.78 0 -87.99
v 24.605 0 -90.697
v 26.303 0 -88.885
v 27.961 0 -87.403
v 26.66 0 -83.68
v 51.63 0 -89.47
v 51.359 0 -93.426
v 64.043 0 -95.694
v 64.429 0 -94.624
v 69.636 0 -81.698
v 87.653 0 -47.886
v 85.93 0 -38.62
v 84.421 0 -38.321
v 82.11 0 -53.55
v 70.462 0 -69.342
v 67.55 0 -57.3
v 86.14 0 -8.94
v 38.222 0 -5.091
v 35.449 0 -0.052
v 34.088 0 -0.089
v 26.722 0 -3.001
v 14.27 0 -19.5
v 13.269 0 -26.832
v 13.729 0 -27.359
v 34.703 0 -47.79
v 44.389 0 -58.107
v 47.384 0 -60.358
v 45.564 0 -66.714
v 42.955 0 -62.613
v 33.482 0 -54.965
v 28.924 0 -59.141
v 25.097 0 -66.19
v 23.256 0 -88.529
v 25.964 0 -88.883
v 27.935 0 -87.595
v 26.11 0 -86.44
v 28.159 0 -81.454
v 30.51 0 -71.683
v 51.483 0 -93.058
v 65.95 0 -90.172
v 69.76 0 -85.39
v 68.97 0 -81.723
v 85.624 0 -38.964
v 82.673 0 -55.159
v 70.624 0 -69.912
v 69.893 0 -51.115
v 77.481 0 -30.931
v 74.77 0 -7.401
v 38.209 0 -5.872
v 34.857 0 -0.069
v 26.546 0 -2.602
v 42.719 0 -62.247
v 33.212 0 -58.822
v 33.225 0 -55.076
v 30.206 0 -54.251
v 29.217 0 -58.915
v 25.255 0 -65.569
v 23.564 0 -82.95
v 23.275 0 -85.879
v 22.455 0 -88.092
v 24.209 0 -90.616
v 24.415 0 -90.656
v 27.884 0 -88.234
v 30.67 0 -71.162
v 30.817 0 -70.851
v 45.61 0 -81.9
v 51.566 0 -92.681
v 64.289 0 -95.006
v 65.684 0 -90.35
v 69.332 0 -84.832
v 68.439 0 -81.755
v 77.332 0 -77.142
v 84.034 0 -70.94
v 88.8 0 -49.42
v 87.793 0 -48.161
v 84.454 0 -38.672
v 82.839 0 -55.029
v 70.768 0 -70.396
v 70.051 0 -49.994
v 77.141 0 -31.439
v 75.356 0 -7.659
v 38.208 0 -6.534
v 16.012 0 -18.669
v 35.739 0 -48.666
v 44.045 0 -57.566
v 45.78 0 -67.16
v 42.816 0 -62.443
v 32.739 0 -58.77
v 30.464 0 -54.363
v 29.439 0 -58.744
v 25.287 0 -76.013
v 27.895 0 -88.021
v 27.913 0 -87.805
v 46.049 0 -81.912
v 51.617 0 -92.259
v 64.158 0 -95.37
v 68.05 0 -81.793
v 76.776 0 -77.618
v 83.729 0 -71.209
v 87.978 0 -48.454
v 84.504 0 -38.939
v 70.886 0 -70.771
v 70.225 0 -49.065
v 76.779 0 -31.989
v 75.823 0 -7.859
v 38.218 0 -7.044
v 36.705 0 -49.548
v 43.533 0 -56.897
v 45.956 0 -67.502
v 33.048 0 -55.349
v 25.414 0 -76.117
v 23.779 0 -83.011
v 23.555 0 -85.787
v 23.15 0 -88.319
v 25.612 0 -89.193
v 25.749 0 -88.974
v 27.925 0 -81.407
v 46.593 0 -81.93
v 51.643 0 -91.754
v 65.467 0 -90.504
v 67.811 0 -81.838
v 83.343 0 -71.607
v 88.482 0 -49.085
v 85.385 0 -39.206
v 82.967 0 -54.914
v 70.973 0 -71.014
v 70.446 0 -48.186
v 76.141 0 -7.99
v 39.235 0 -7.277
v 38.239 0 -7.373
v 18.656 0 -17.309
v 42.789 0 -56.024
v 46.079 0 -67.719
v 29.57 0 -58.64
v 25.517 0 -76.219
v 23.949 0 -83.067
v 23.735 0 -85.554
v 27.718 0 -81.361
v 47.208 0 -81.952
v 65.135 0 -91.31
v 65.311 0 -90.627
v 75.631 0 -78.785
v 88.207 0 -48.763
v 85.198 0 -39.355
v 84.573 0 -39.134
v 83.051 0 -54.822
v 67.78 0 -64.98
v 70.744 0 -47.215
v 76.413 0 -32.552
v 21.714 0 -15.684
v 41.749 0 -54.868
v 29.674 0 -58.515
v 25.593 0 -76.313
v 24.066 0 -83.114
v 22.897 0 -88.187
v 27.549 0 -81.32
v 51.65 0 -91.13
v 65.145 0 -91.107
v 65.23 0 -90.71
v 76.224 0 -78.151
v 85.045 0 -39.424
v 84.664 0 -39.273
v 83.08 0 -54.76
v 76.06 0 -33.1
v 76.28 0 -8.04
v 38.27 0 -7.49
v 24.701 0 -14.054
v 40.35 0 -53.35
v 46.14 0 -67.79
v 25.635 0 -76.395
v 24.12 0 -83.15
v 27.429 0 -81.285
v 47.857 0 -81.98
v 65.165 0 -90.933
v 68.878 0 -84.16
v 84.78 0 -39.37
v 75.595 0 -33.884
v 38.748 0 -7.39
v 29.33 0 -9.82
v 27.132 0 -12.682
v 38.894 0 -51.778
v 32.451 0 -58.705
v 32.489 0 -57.437
v 29.784 0 -58.296
v 24.132 0 -83.224
v 23.859 0 -85.148
v 27.37 0 -81.26
v 65.194 0 -90.798
v 68.445 0 -83.452
v 67.73 0 -81.89
v 84.911 0 -39.426
v 75.201 0 -34.62
v 38.417 0 -7.464
v 28.52 0 -11.83
v 37.718 0 -50.548
v 32.308 0 -58.62
v 32.4 0 -57.818
v 29.9 0 -57.991
v 24.128 0 -83.379
v 23.97 0 -84.54
v 27.362 0 -81.159
v 68.079 0 -82.786
v 74.838 0 -35.406
v 28.65 0 -11.701
v 47.752 0 -60.509
v 30.585 0 -54.588
v 24.029 0 -84.195
v 27.385 0 -80.919
v 82.59 0 -54.07
v 74.462 0 -36.34
v 29.187 0 -10.37
v 47.936 0 -60.675
v 32.331 0 -58.136
v 30.019 0 -57.611
v 24.109 0 -83.601
v 24.076 0 -83.877
v 27.436 0 -80.564
v 82.72 0 -54.214
v 74.034 0 -37.519
v 29.049 0 -10.83
v 28.781 0 -11.493
v 32.286 0 -58.373
v 30.139 0 -57.164
v 27.511 0 -80.114
v 67.825 0 -82.24
v 82.837 0 -54.353
v 73.51 0 -39.04
v 28.914 0 -11.204
v 32.27 0 -58.51
v 30.26 0 -56.66
v 27.607 0 -79.592
v 82.936 0 -54.482
v 73.113 0 -40.207
v 27.72 0 -79.02
v 83.013 0 -54.597
v 72.687 0 -41.463
v 76.344 0 -7.993
v 30.583 0 -54.997
v 30.47 0 -55.664
v 83.062 0 -54.691
v 72.255 0 -42.739
v 26.38 0 -85.05
v 71.84 0 -43.967
v 71.464 0 -45.081
v 76.449 0 -7.852
v 71.15 0 -46.01
v 76.586 0 -7.63
v 76.748 0 -7.341
v 77.86 0 -66.18
v 48.012 0 -60.901
v 76.827 0 -67.027
v 48.06 0 -61.23
v 75.462 0 -68.073
v 48.089 0 -61.48
v 73.982 0 -69.161
v 72.604 0 -70.133
v 67.55 0 -59.13
v 71.545 0 -70.832
v 67.555 0 -59.688
v 46.207 0 -67.746
v 71.02 0 -71.1
v 67.567 0 -60.328
v 46.342 0 -67.613
v 67.586 0 -61.013
v 46.533 0 -67.405
v 67.609 0 -61.706
v 46.768 0 -67.137
v 67.66 0 -62.97
v 67.634 0 -62.37
v 47.038 0 -66.824
v 48.126 0 -61.814
v 47.33 0 -66.48
v 48.166 0 -62.21
v 48.207 0 -62.646
v 32.199 10 -0.135
v 29.696 10 -0.211
v 31.17 10 -0.16
v 27.891 10 -0.324
v 28.634 10 -0.262
v 26.996 10 -0.526
v 27.376 10 -0.408
v 25.89 10 -1.1
v 26.66 10 -0.69
v 26.388 10 -2.252
v 26.26 10 -1.97
v 27.09 10 -3.861
v 27.461 10 -4.703
v 27.26 10 -4.28
v 27.978 10 -5.641
v 27.705 10 -5.166
v 28.554 10 -6.529
v 28.265 10 -6.104
v 29.77 10 -8.08
v 28.83 10 -6.89
v 13.522 10 -19.819
v 12.136 10 -20.41
v 12.799 10 -20.127
v 11.128 10 -20.841
v 11.568 10 -20.653
v 10.667 10 -21.043
v 10.85 10 -20.96
v 10.361 10 -21.219
v 10.502 10 -21.131
v 10.179 10 -21.377
v 10.251 10 -21.302
v 10.163 10 -21.53
v 10.15 10 -21.44
v 10.256 10 -21.935
v 10.199 10 -21.7
v 10.42 10 -22.54
v 10.331 10 -22.22
v 10.683 10 -23.364
v 10.52 10 -22.88
v 11.094 10 -24.201
v 10.864 10 -23.789
v 11.821 10 -25.175
v 11.402 10 -24.647
v 12.811 10 -26.313
v 12.38 10 -25.83
v 14.563 10 -28.321
v 15.715 10 -29.625
v 14.89 10 -28.7
v 18.438 10 -32.584
v 16.926 10 -30.95
v 22.033 10 -36.419
v 20.168 10 -34.437
v 25.291 10 -39.827
v 23.95 10 -38.44
v 27.841 10 -42.235
v 26.541 10 -41.05
v 31.168 10 -44.99
v 29.336 10 -43.507
v 44.63 10 -58.6
v 44.995 10 -59.376
v 44.828 10 -59.05
v 45.322 10 -59.754
v 45.153 10 -59.603
v 45.78 10 -59.93
v 45.524 10 -59.855
v 48.246 10 -63.1
v 48.41 10 -65.16
v 48.28 10 -63.55
v 45.321 10 -66.187
v 44.686 10 -64.777
v 45.06 10 -65.6
v 44.132 10 -63.709
v 44.385 10 -64.16
v 43.666 10 -63.144
v 43.901 10 -63.384
v 43.146 10 -62.776
v 43.4 10 -62.95
v 42.65 10 -62.009
v 42.544 10 -61.418
v 42.6 10 -61.71
v 42.399 10 -61.021
v 42.479 10 -61.193
v 42.157 10 -60.788
v 42.294 10 -60.891
v 40.215 10 -60.016
v 41.98 10 -60.7
v 37.905 10 -59.243
v 38.915 10 -59.545
v 36.061 10 -58.969
v 37.012 10 -59.065
v 33.912 10 -58.866
v 34.88 10 -58.91
v 32.594 10 -57.015
v 32.895 10 -55.83
v 32.71 10 -56.57
v 34.46 10 -55.03
v 35.41 10 -53.55
v 35.1 10 -55.11
v 35.55 10 -52.755
v 35.485 10 -53.134
v 35.637 10 -52.178
v 35.601 10 -52.431
v 35.65 10 -51.95
v 35.654 10 -52.012
v 34.011 10 -51.598
v 35.149 10 -51.813
v 31.109 10 -51.132
v 32.557 10 -51.354
v 29.51 10 -50.96
v 29.986 10 -50.984
v 29.324 10 -51.67
v 29.433 10 -51.185
v 29.093 10 -52.956
v 29.204 10 -52.3
v 28.98 10 -53.88
v 29.012 10 -53.522
v 29.093 10 -53.984
v 29.009 10 -53.929
v 29.387 10 -54.096
v 29.221 10 -54.041
v 29.8 10 -54.18
v 29.583 10 -54.143
v 28.192 10 -59.702
v 26.33 10 -61.16
v 27.79 10 -60.01
v 25.432 10 -64.855
v 25.62 10 -64.08
v 24.876 10 -67.032
v 24.833 10 -67.269
v 24.83 10 -67.19
v 24.959 10 -67.549
v 24.877 10 -67.392
v 25.215 10 -67.931
v 25.073 10 -67.731
v 26 10 -68.89
v 25.38 10 -68.14
v 25.4 10 -71.41
v 25.071 10 -72.794
v 25.229 10 -72.109
v 24.813 10 -73.996
v 24.93 10 -73.434
v 24.67 10 -74.76
v 24.724 10 -74.449
v 24.632 10 -75.34
v 24.636 10 -75.098
v 24.758 10 -75.65
v 24.669 10 -75.515
v 25.14 10 -75.91
v 24.911 10 -75.772
v 25.64 10 -76.46
v 25.544 10 -76.843
v 25.605 10 -76.592
v 25.363 10 -77.627
v 25.461 10 -77.195
v 25.14 10 -78.65
v 25.254 10 -78.118
v 24.72 10 -80.61
v 23.446 10 -80.374
v 24.06 10 -80.48
v 22.729 10 -80.396
v 23.017 10 -80.339
v 22.408 10 -80.876
v 22.54 10 -80.568
v 22.227 10 -81.61
v 22.29 10 -81.34
v 22.119 10 -82.085
v 22.169 10 -81.862
v 22.047 10 -82.4
v 22.067 10 -82.511
v 22.03 10 -82.47
v 22.329 10 -82.622
v 22.17 10 -82.563
v 22.774 10 -82.754
v 22.534 10 -82.687
v 23.315 10 -82.885
v 23.04 10 -82.82
v 22.851 10 -85.86
v 21.984 10 -85.721
v 22.24 10 -85.76
v 21.549 10 -85.68
v 21.751 10 -85.694
v 21.27 10 -85.692
v 21.386 10 -85.679
v 21.186 10 -85.79
v 21.21 10 -85.72
v 21.121 10 -86.106
v 21.156 10 -85.922
v 21.046 10 -86.586
v 21.084 10 -86.331
v 20.9 10 -87.86
v 21.01 10 -86.86
v 23.259 10 -88.862
v 23.09 10 -90.42
v 23.2 10 -89.36
v 23.996 10 -90.579
v 23.79 10 -90.55
v 24.767 10 -90.736
v 25.042 10 -90.798
v 24.89 10 -90.77
v 25.235 10 -90.729
v 25.153 10 -90.788
v 25.348 10 -90.429
v 25.297 10 -90.612
v 25.511 10 -89.58
v 25.4 10 -90.17
v 26.81 10 -88.94
v 27.88 10 -88.43
v 27.88 10 -89.07
v 27.99 10 -87.24
v 28.031 10 -86.848
v 28.032 10 -87.008
v 27.806 10 -86.672
v 27.964 10 -86.743
v 27.12 10 -86.56
v 27.532 10 -86.617
v 27.5 10 -83.8
v 28.624 10 -83.947
v 28.174 10 -83.906
v 29.073 10 -83.723
v 28.905 10 -83.895
v 29.29 10 -82.91
v 29.182 10 -83.404
v 29.407 10 -82.362
v 29.357 10 -82.626
v 29.463 10 -81.941
v 29.442 10 -82.13
v 29.46 10 -81.74
v 29.468 10 -81.807
v 29.281 10 -81.673
v 29.401 10 -81.71
v 28.902 10 -81.587
v 29.111 10 -81.631
v 28.41 10 -81.5
v 28.665 10 -81.542
v 28.16 10 -76.9
v 29.42 10 -76.46
v 28.8 10 -76.68
v 30.314 10 -72.477
v 30.06 10 -73.61
v 30.973 10 -70.682
v 31.334 10 -70.498
v 31.16 10 -70.59
v 31.696 10 -70.12
v 31.511 10 -70.344
v 32.115 10 -69.422
v 31.896 10 -69.816
v 33.07 10 -67.45
v 32.36 10 -68.93
v 36.07 10 -67.45
v 38.037 10 -70.352
v 37.22 10 -69.15
v 39.274 10 -72.095
v 38.701 10 -71.306
v 40.4 10 -73.518
v 39.819 10 -72.804
v 42.49 10 -75.98
v 41.08 10 -74.32
v 42.772 10 -78.137
v 42.69 10 -77.57
v 42.995 10 -79.114
v 42.871 10 -78.644
v 43.338 10 -80.034
v 43.149 10 -79.569
v 44.22 10 -81.89
v 43.57 10 -80.53
v 48.506 10 -82.012
v 51.24 10 -82.16
v 49.12 10 -82.05
v 50.24 10 -84.5
v 49.579 10 -86.077
v 49.85 10 -85.404
v 49.328 10 -86.97
v 49.41 10 -86.579
v 49.36 10 -87.66
v 49.317 10 -87.31
v 49.486 10 -88.256
v 49.414 10 -88.004
v 49.804 10 -88.611
v 49.606 10 -88.448
v 50.55 10 -88.98
v 50.108 10 -88.778
v 51.19 10 -93.82
v 51.43 10 -96.53
v 50.75 10 -94.83
v 51.938 10 -97.74
v 51.71 10 -97.235
v 52.412 10 -98.393
v 52.158 10 -98.106
v 53.2 10 -98.97
v 52.745 10 -98.661
v 54.06 10 -99.482
v 53.67 10 -99.271
v 54.976 10 -99.725
v 54.465 10 -99.625
v 56.69 10 -99.89
v 55.687 10 -99.805
v 58.439 10 -99.998
v 57.712 10 -99.963
v 59.434 10 -99.912
v 58.978 10 -99.984
v 60.53 10 -99.56
v 59.916 10 -99.774
v 61.539 10 -99.148
v 61.107 10 -99.341
v 62.168 10 -98.696
v 61.876 10 -98.945
v 62.81 10 -97.91
v 62.463 10 -98.363
v 63.286 10 -97.229
v 63.051 10 -97.582
v 63.694 10 -96.528
v 63.504 10 -96.871
v 63.95 10 -95.96
v 63.847 10 -96.218
v 64.571 10 -94.242
v 64.852 10 -93.471
v 64.71 10 -93.88
v 65.054 10 -92.719
v 64.966 10 -93.084
v 65.146 10 -92.057
v 65.114 10 -92.376
v 65.136 10 -91.531
v 65.15 10 -91.76
v 66.253 10 -89.979
v 66.963 10 -89.539
v 66.58 10 -89.78
v 67.878 10 -88.875
v 67.403 10 -89.231
v 68.826 10 -88.104
v 68.36 10 -88.493
v 70.65 10 -86.42
v 69.25 10 -87.73
v 70.43 10 -81.68
v 74.95 10 -79.56
v 73.12 10 -81.68
v 77.938 10 -76.684
v 79.352 10 -75.706
v 78.64 10 -76.2
v 80.494 10 -74.786
v 79.953 10 -75.251
v 81.606 10 -73.63
v 81.027 10 -74.262
v 82.864 10 -72.146
v 82.28 10 -72.84
v 84.271 10 -70.788
v 84.626 10 -70.691
v 84.45 10 -70.74
v 85.156 10 -70.245
v 84.856 10 -70.532
v 86.036 10 -69.212
v 85.544 10 -69.811
v 88.42 10 -66.13
v 86.65 10 -68.43
v 89.66 10 -58.12
v 89.04 10 -62.13
v 88.71 10 -56.26
v 89.19 10 -57.19
v 89.506 10 -54.76
v 89.28 10 -55.2
v 89.764 10 -54.021
v 89.663 10 -54.389
v 89.845 10 -53.046
v 89.82 10 -53.595
v 89.85 10 -50.47
v 89.85 10 -52.31
v 87.56 10 -47.63
v 87.38 10 -47.174
v 87.478 10 -47.384
v 87.13 10 -46.846
v 87.265 10 -46.996
v 86.79 10 -46.61
v 86.972 10 -46.718
v 86.25 10 -46.33
v 86.927 10 -43.503
v 86.67 10 -44.6
v 87.439 10 -41.019
v 87.191 10 -42.267
v 87.787 10 -38.998
v 87.646 10 -39.887
v 87.825 10 -38.356
v 87.84 10 -38.48
v 87.704 10 -38.144
v 87.78 10 -38.245
v 87.459 10 -37.968
v 87.597 10 -38.052
v 87.059 10 -37.813
v 87.29 10 -37.89
v 86.704 10 -37.846
v 86.875 10 -37.793
v 86.265 10 -38.243
v 86.511 10 -37.991
v 84.4 10 -37.87
v 84.345 10 -36.969
v 84.376 10 -37.336
v 84.192 10 -36.594
v 84.289 10 -36.734
v 83.81 10 -36.46
v 84.038 10 -36.515
v 83.522 10 -36.413
v 83.664 10 -36.431
v 83.274 10 -36.41
v 83.39 10 -36.406
v 83.12 10 -36.45
v 83.182 10 -36.425
v 82.176 10 -37.739
v 82.807 10 -36.838
v 80.484 10 -40.285
v 81.357 10 -38.954
v 79.1 10 -42.5
v 79.688 10 -41.533
v 78.57 10 -43.54
v 78.86 10 -42.94
v 77.913 10 -45.053
v 78.249 10 -44.259
v 77.27 10 -46.7
v 77.581 10 -45.881
v 76.518 10 -48.809
v 76.827 10 -47.906
v 76.189 10 -50.195
v 76.315 10 -49.53
v 76.05 10 -51.85
v 76.11 10 -50.927
v 77.87 10 -55.02
v 75.9 10 -54.08
v 78.891 10 -55.474
v 78.399 10 -55.258
v 79.682 10 -55.803
v 79.326 10 -55.659
v 80.07 10 -55.93
v 79.937 10 -55.897
v 80.312 10 -55.768
v 80.165 10 -55.888
v 80.718 10 -55.342
v 80.5 10 -55.583
v 81.2 10 -54.74
v 80.955 10 -55.057
v 82.477 10 -55.299
v 81.918 10 -55.668
v 82.26 10 -55.44
v 81.448 10 -56.222
v 81.661 10 -55.901
v 80.971 10 -57.477
v 81.232 10 -56.719
v 80.313 10 -59.586
v 80.62 10 -58.58
v 79.942 10 -61.019
v 80.091 10 -60.375
v 79.806 10 -62.168
v 79.852 10 -61.592
v 79.79 10 -64.45
v 79.79 10 -62.82
v 70.29 10 -68.71
v 68.72 10 -65.64
v 69.65 10 -66.31
v 68.42 10 -56.73
v 69.72 10 -52.57
v 69.3 10 -56.17
v 77.78 10 -30.495
v 78.258 10 -29.816
v 78.02 10 -30.16
v 78.849 10 -28.808
v 78.54 10 -29.355
v 79.476 10 -27.579
v 79.167 10 -28.205
v 80.135 10 -26.128
v 79.76 10 -26.96
v 81.368 10 -23.369
v 80.684 10 -24.901
v 82.98 10 -19.739
v 82.146 10 -21.619
v 83.83 10 -17.82
v 86.54 10 -9.91
v 86.94 10 -10.89
v 86.99 10 -8.06
v 88.57 10 -4.09
v 87.87 10 -7.18
v 88.31 10 -0.51
v 89.26 10 -1.01
v 82.61 10 0
v 87.38 10 -0.02
v 77.18 10 -0.58
v 77.84 10 0
v 77.14 10 -3.2
v 76.5 10 -1.19
v 77.8 10 -5.21
v 76.926 10 -7
v 77.11 10 -6.62
v 74.095 10 -7.097
v 71.479 10 -5.917
v 73.36 10 -6.76
v 68.481 10 -5.021
v 69.947 10 -5.351
v 64.62 10 -4.902
v 66.8 10 -4.885
v 59.978 10 -5.116
v 61.66 10 -5.03
v 56.002 10 -5.332
v 58.055 10 -5.219
v 51.954 10 -5.569
v 53.932 10 -5.451
v 47.768 10 -5.843
v 50.18 10 -5.68
v 44.684 10 -6.114
v 46.004 10 -5.979
v 42.557 10 -6.488
v 43.603 10 -6.275
v 41.34 10 -6.78
v 39.849 10 -7.133
v 40.56 10 -6.965
v 38.25 10 -4.22
v 37.53 10 -0.48
v 38.36 10 -0.97
v 36.964 10 -0.193
v 37.236 10 -0.316
v 36.432 10 -0.054
v 36.701 10 -0.106
v 35.82 10 -0.04
v 36.143 10 -0.033
v 33.187 10 -0.111
v 26.907 10 -3.428
v 14.168 10 -27.865
v 33.48 10 -46.81
v 46.753 10 -60.18
v 33.875 10 -54.966
v 28.576 10 -59.408
v 24.968 10 -66.688
v 22.077 10 -82.268
v 21.78 10 -87.99
v 24.605 10 -90.697
v 26.303 10 -88.885
v 27.961 10 -87.403
v 26.66 10 -83.68
v 51.63 10 -89.47
v 51.359 10 -93.426
v 64.043 10 -95.694
v 64.429 10 -94.624
v 69.636 10 -81.698
v 87.653 10 -47.886
v 85.93 10 -38.62
v 84.421 10 -38.321
v 82.11 10 -53.55
v 70.462 10 -69.342
v 67.55 10 -57.3
v 86.14 10 -8.94
v 38.222 10 -5.091
v 35.449 10 -0.052
v 34.088 10 -0.089
v 26.722 10 -3.001
v 14.27 10 -19.5
v 13.269 10 -26.832
v 13.729 10 -27.359
v 34.703 10 -47.79
v 44.389 10 -58.107
v 47.384 10 -60.358
v 45.564 10 -66.714
v 42.955 10 -62.613
v 33.482 10 -54.965
v 28.924 10 -59.141
v 25.097 10 -66.19
v 23.256 10 -88.529
v 25.964 10 -88.883
v 27.935 10 -87.595
v 26.11 10 -86.44
v 28.159 10 -81.454
v 30.51 10 -71.683
v 51.483 10 -93.058
v 65.95 10 -90.172
v 69.76 10 -85.39
v 68.97 10 -81.723
v 85.624 10 -38.964
v 82.673 10 -55.159
v 70.624 10 -69.912
v 69.893 10 -51.115
v 77.481 10 -30.931
v 74.77 10 -7.401
v 38.209 10 -5.872
v 34.857 10 -0.069
v 26.546 10 -2.602
v 42.719 10 -62.247
v 33.212 10 -58.822
v 33.225 10 -55.076
v 30.206 10 -54.251
v 29.217 10 -58.915
v 25.255 10 -65.569
v 23.564 10 -82.95
v 23.275 10 -85.879
v 22.455 10 -88.092
v 24.209 10 -90.616
v 24.415 10 -90.656
v 27.884 10 -88.234
v 30.67 10 -71.162
v 30.817 10 -70.851
v 45.61 10 -81.9
v 51.566 10 -92.681
v 64.289 10 -95.006
v 65.684 10 -90.35
v 69.332 10 -84.832
v 68.439 10 -81.755
v 77.332 10 -77.142
v 84.034 10 -70.94
v 88.8 10 -49.42
v 87.793 10 -48.161
v 84.454 10 -38.672
v 82.839 10 -55.029
v 70.768 10 -70.396
v 70.051 10 -49.994
v 77.141 10 -31.439
v 75.356 10 -7.659
v 38.208 10 -6.534
v 16.012 10 -18.669
v 35.739 10 -48.666
v 44.045 10 -57.566
v 45.78 10 -67.16
v 42.816 10 -62.443
v 32.739 10 -58.77
v 30.464 10 -54.363
v 29.439 10 -58.744
v 25.287 10 -76.013
v 27.895 10 -88.021
v 27.913 10 -87.805
v 46.049 10 -81.912
v 51.617 10 -92.259
v 64.158 10 -95.37
v 68.05 10 -81.793
v 76.776 10 -77.618
v 83.729 10 -71.209
v 87.978 10 -48.454
v 84.504 10 -38.939
v 70.886 10 -70.771
v 70.225 10 -49.065
v 76.779 10 -31.989
v 75.823 10 -7.859
v 38.218 10 -7.044
v 36.705 10 -49.548
v 43.533 10 -56.897
v 45.956 10 -67.502
v 33.048 10 -55.349
v 25.414 10 -76.117
v 23.779 10 -83.011
v 23.555 10 -85.787
v 23.15 10 -88.319
v 25.612 10 -89.193
v 25.749 10 -88.974
v 27.925 10 -81.407
v 46.593 10 -81.93
v 51.643 10 -91.754
v 65.467 10 -90.504
v 67.811 10 -81.838
v 83.343 10 -71.607
v 88.482 10 -49.085
v 85.385 10 -39.206
v 82.967 10 -54.914
v 70.973 10 -71.014
v 70.446 10 -48.186
v 76.141 10 -7.99
v 39.235 10 -7.277
v 38.239 10 -7.373
v 18.656 10 -17.309
v 42.789 10 -56.024
v 46.079 10 -67.719
v 29.57 10 -58.64
v 25.517 10 -76.219
v 23.949 10 -83.067
v 23.735 10 -85.554
v 27.718 10 -81.361
v 47.208 10 -81.952
v 65.135 10 -91.31
v 65.311 10 -90.627
v 75.631 10 -78.785
v 88.207 10 -48.763
v 85.198 10 -39.355
v 84.573 10 -39.134
v 83.051 10 -54.822
v 67.78 10 -64.98
v 70.744 10 -47.215
v 76.413 10 -32.552
v 21.714 10 -15.684
v 41.749 10 -54.868
v 29.674 10 -58.515
v 25.593 10 -76.313
v 24.066 10 -83.114
v 22.897 10 -88.187
v 27.549 10 -81.32
v 51.65 10 -91.13
v 65.145 10 -91.107
v 65.23 10 -90.71
v 76.224 10 -78.151
v 85.045 10 -39.424
v 84.664 10 -39.273
v 83.08 10 -54.76
v 76.06 10 -33.1
v 76.28 10 -8.04
v 38.27 10 -7.49
v 24.701 10 -14.054
v 40.35 10 -53.35
v 46.14 10 -67.79
v 25.635 10 -76.395
v 24.12 10 -83.15
v 27.429 10 -81.285
v 47.857 10 -81.98
v 65.165 10 -90.933
v 68.878 10 -84.16
v 84.78 10 -39.37
v 75.595 10 -33.884
v 38.748 10 -7.39
v 29.33 10 -9.82
v 27.132 10 -12.682
v 38.894 10 -51.778
v 32.451 10 -58.705
v 32.489 10 -57.437
v 29.784 10 -58.296
v 24.132 10 -83.224
v 23.859 10 -85.148
v 27.37 10 -81.26
v 65.194 10 -90.798
v 68.445 10 -83.452
v 67.73 10 -81.89
v 84.911 10 -39.426
v 75.201 10 -34.62
v 38.417 10 -7.464
v 28.52 10 -11.83
v 37.718 10 -50.548
v 32.308 10 -58.62
v 32.4 10 -57.818
v 29.9 10 -57.991
v 24.128 10 -83.379
v 23.97 10 -84.54
v 27.362 10 -81.159
v 68.079 10 -82.786
v 74.838 10 -35.406
v 28.65 10 -11.701
v 47.752 10 -60.509
v 30.585 10 -54.588
v 24.029 10 -84.195
v 27.385 10 -80.919
v 82.59 10 -54.07
v 74.462 10 -36.34
v 29.187 10 -10.37
v 47.936 10 -60.675
v 32.331 10 -58.136
v 30.019 10 -57.611
v 24.109 10 -83.601
v 24.076 10 -83.877
v 27.436 10 -80.564
v 82.72 10 -54.214
v 74.034 10 -37.519
v 29.049 10 -10.83
v 28.781 10 -11.493
v 32.286 10 -58.373
v 30.139 10 -57.164
v 27.511 10 -80.114
v 67.825 10 -82.24
v 82.837 10 -54.353
v 73.51 10 -39.04
v 28.914 10 -11.204
v 32.27 10 -58.51
v 30.26 10 -56.66
v 27.607 10 -79.592
v 82.936 10 -54.482
v 73.113 10 -40.207
v 27.72 10 -79.02
v 83.013 10 -54.597
v 72.687 10 -41.463
v 76.344 10 -7.993
v 30.583 10 -54.997
v 30.47 10 -55.664
v 83.062 10 -54.691
v 72.255 10 -42.739
v 26.38 10 -85.05
v 71.84 10 -43.967
v 71.464 10 -45.081
v 76.449 10 -7.852
v 71.15 10 -46.01
v 76.586 10 -7.63
v 76.748 10 -7.341
v 77.86 10 -66.18
v 48.012 10 -60.901
v 76.827 10 -67.027
v 48.06 10 -61.23
v 75.462 10 -68.073
v 48.089 10 -61.48
v 73.982 10 -69.161
v 72.604 10 -70.133
v 67.55 10 -59.13
v 71.545 10 -70.832
v 67.555 10 -59.688
v 46.207 10 -67.746
v 71.02 10 -71.1
v 67.567 10 -60.328
v 46.342 10 -67.613
v 67.586 10 -61.013
v 46.533 10 -67.405
v 67.609 10 -61.706
v 46.768 10 -67.137
v 67.66 10 -62.97
v 67.634 10 -62.37
v 47.038 10 -66.824
v 48.126 10 -61.814
v 47.33 10 -66.48
v 48.166 10 -62.21
v 48.207 10 -62.646
f 1 2 3
f 4 1 5
f 6 4 7
f 8 6 9
f 10 8 11
f 12 13 14
f 15 12 16
f 17 15 18
f 19 17 20
f 21 22 23
f 24 21 25
f 26 24 27
f 28 26 29
f 30 28 31
f 32 30 33
f 34 32 35
f 36 34 37
f 38 36 39
f 40 38 41
f 42 40 43
f 44 42 45
f 46 47 48
f 49 46 50
f 51 49 52
f 53 51 54
f 55 53 56
f 57 55 58
f 59 60 61
f 62 59 63
f 64 62 65
f 66 67 68
f 69 70 71
f 72 69 73
f 74 72 75
f 76 74 77
f 78 79 80
f 81 78 82
f 83 81 84
f 85 83 86
f 87 85 88
f 89 87 90
f 91 89 92
f 93 94 95
f 96 97 98
f 99 96 100
f 101 99 102
f 103 101 104
f 105 103 106
f 107 105 108
f 109 107 110
f 111 109 112
f 113 111 114
f 115 113 116
f 117 115 118
f 119 117 120
f 121 119 122
f 123 124 125
f 126 123 127
f 128 129 130
f 131 128 132
f 133 131 134
f 135 133 136
f 137 138 139
f 140 137 141
f 142 140 143
f 144 142 145
f 146 144 147
f 148 146 149
f 150 151 152
f 153 150 154
f 155 153 156
f 157 158 159
f 160 157 161
f 162 160 163
f 164 162 165
f 166 164 167
f 168 169 170
f 171 168 172
f 173 171 174
f 175 173 176
f 177 178 179
f 180 177 181
f 182 180 183
f 184 182 185
f 186 184 187
f 188 186 189
f 190 188 191
f 192 193 194
f 195 192 196
f 197 198 199
f 200 197 201
f 202 200 203
f 204 202 205
f 206 207 208
f 209 210 211
f 212 209 213
f 214 212 215
f 216 217 218
f 219 216 220
f 221 219 222
f 223 221 224
f 225 223 226
f 227 225 228
f 229 227 230
f 231 229 232
f 233 231 234
f 235 236 237
f 238 235 239
f 240 241 242
f 243 240 244
f 245 243 246
f 247 245 248
f 249 250 251
f 252 249 253
f 254 252 255
f 256 254 257
f 258 256 259
f 260 258 261
f 262 260 263
f 264 262 265
f 266 267 268
f 269 270 271
f 272 269 273
f 274 272 275
f 276 274 277
f 278 276 279
f 280 278 281
f 282 283 284
f 285 282 286
f 287 285 288
f 289 287 290
f 291 289 292
f 293 291 294
f 295 293 296
f 297 295 298
f 299 297 300
f 301 299 302
f 303 301 304
f 305 303 306
f 307 305 308
f 309 307 310
f 311 309 312
f 313 311 314
f 315 316 317
f 318 315 319
f 320 318 321
f 322 320 323
f 324 325 326
f 327 324 328
f 329 327 330
f 331 329 332
f 333 334 335
f 336 337 338
f 339 336 340
f 341 339 342
f 343 341 344
f 345 346 347
f 348 345 349
f 350 348 351
f 352 350 353
f 354 352 355
f 356 354 357
f 358 356 359
f 360 358 361
f 362 360 363
f 364 362 365
f 366 367 368
f 369 366 370
f 371 369 372
f 373 374 375
f 376 373 377
f 378 376 379
f 380 378 381
f 382 380 383
f 384 382 385
f 386 384 387
f 388 386 389
f 390 388 391
f 392 393 394
f 395 392 396
f 397 395 398
f 399 397 400
f 401 399 402
f 403 401 404
f 405 403 406
f 407 405 408
f 409 407 410
f 411 409 412
f 413 411 414
f 415 413 416
f 417 415 418
f 419 417 420
f 421 419 422
f 423 421 424
f 425 423 426
f 427 425 428
f 429 427 430
f 431 429 432
f 433 431 434
f 435 433 436
f 437 438 439
f 440 437 441
f 442 440 443
f 444 442 445
f 446 444 447
f 448 446 449
f 450 448 451
f 452 453 454
f 455 456 457
f 458 459 460
f 461 458 462
f 463 461 464
f 465 463 466
f 467 465 468
f 469 467 470
f 471 472 473
f 474 475 476
f 477 474 478
f 479 477 480
f 481 479 482
f 483 481 484
f 485 486 487
f 488 489 490
f 491 488 492
f 493 491 494
f 495 493 496
f 497 495 498
f 499 497 500
f 501 499 502
f 503 501 504
f 505 503 506
f 507 508 509
f 510 511 512
f 513 510 514
f 515 513 516
f 517 515 518
f 1 519 2
f 6 1 4
f 10 6 8
f 12 520 13
f 17 12 15
f 24 22 21
f 28 24 26
f 32 28 30
f 36 32 34
f 40 36 38
f 44 40 42
f 46 521 47
f 51 46 49
f 55 51 53
f 522 55 57
f 62 60 59
f 523 62 64
f 72 70 69
f 76 72 74
f 81 79 78
f 85 81 83
f 89 85 87
f 96 524 97
f 101 96 99
f 105 101 103
f 109 105 107
f 113 109 111
f 117 113 115
f 121 117 119
f 123 525 124
f 128 526 129
f 133 128 131
f 137 135 138
f 142 137 140
f 146 142 144
f 153 151 150
f 158 153 155
f 160 158 157
f 164 160 162
f 527 164 166
f 168 527 169
f 173 168 171
f 180 178 177
f 184 180 182
f 188 184 186
f 528 188 190
f 195 193 192
f 197 529 198
f 202 197 200
f 206 530 207
f 209 531 210
f 214 209 212
f 216 532 217
f 221 216 219
f 225 221 223
f 229 225 227
f 233 229 231
f 238 236 235
f 243 241 240
f 247 243 245
f 252 250 249
f 256 252 254
f 260 256 258
f 264 260 262
f 269 266 270
f 274 269 272
f 278 274 276
f 533 278 280
f 282 534 283
f 287 282 285
f 291 287 289
f 295 291 293
f 299 295 297
f 303 299 301
f 307 303 305
f 311 307 309
f 535 311 313
f 315 536 316
f 320 315 318
f 327 325 324
f 331 327 329
f 333 537 334
f 339 337 336
f 343 339 341
f 348 346 345
f 352 348 350
f 356 352 354
f 360 356 358
f 364 360 362
f 366 538 367
f 371 366 369
f 376 374 373
f 380 376 378
f 384 380 382
f 388 384 386
f 539 388 390
f 392 540 393
f 397 392 395
f 401 397 399
f 405 401 403
f 409 405 407
f 413 409 411
f 417 413 415
f 421 417 419
f 425 421 423
f 429 425 427
f 433 429 431
f 541 433 435
f 440 438 437
f 444 440 442
f 448 444 446
f 452 542 453
f 455 543 456
f 461 459 458
f 465 461 463
f 469 465 467
f 471 469 472
f 474 544 475
f 479 474 477
f 483 479 481
f 491 489 488
f 495 491 493
f 499 495 497
f 503 499 501
f 508 503 505
f 510 545 511
f 515 510 513
f 546 515 517
f 1 547 519
f 10 1 6
f 12 548 520
f 19 12 17
f 24 549 22
f 32 24 28
f 40 32 36
f 550 40 44
f 46 551 521
f 55 46 51
f 552 55 522
f 62 553 60
f 554 62 523
f 72 555 70
f 556 72 76
f 85 79 81
f 91 85 89
f 96 557 524
f 105 96 101
f 113 105 109
f 121 113 117
f 123 558 525
f 128 559 526
f 135 128 133
f 142 135 137
f 148 142 146
f 158 151 153
f 164 158 160
f 168 164 527
f 175 168 173
f 184 178 180
f 528 184 188
f 195 560 193
f 202 529 197
f 206 561 530
f 209 562 531
f 563 209 214
f 221 532 216
f 229 221 225
f 564 229 233
f 565 236 238
f 247 241 243
f 256 250 252
f 264 256 260
f 274 266 269
f 533 274 278
f 282 566 534
f 291 282 287
f 299 291 295
f 307 299 303
f 535 307 311
f 320 536 315
f 327 567 325
f 568 327 331
f 333 569 537
f 343 337 339
f 352 346 348
f 364 356 360
f 371 538 366
f 380 374 376
f 388 380 384
f 570 388 539
f 397 540 392
f 405 397 401
f 413 405 409
f 421 413 417
f 429 421 425
f 541 429 433
f 440 571 438
f 448 440 444
f 452 572 542
f 573 543 455
f 461 574 459
f 469 461 465
f 544 469 471
f 479 544 474
f 486 479 483
f 491 575 489
f 499 491 495
f 508 499 503
f 510 576 545
f 546 510 515
f 1 577 547
f 578 1 10
f 19 548 12
f 32 549 24
f 550 32 40
f 46 550 551
f 552 46 55
f 554 553 62
f 556 555 72
f 85 579 79
f 580 85 91
f 96 581 557
f 113 96 105
f 582 113 121
f 123 583 558
f 128 584 559
f 148 135 142
f 168 158 164
f 585 168 175
f 184 586 178
f 587 184 528
f 588 560 195
f 202 589 529
f 590 561 206
f 563 562 209
f 229 532 221
f 591 236 565
f 247 592 241
f 593 256 264
f 533 266 274
f 282 594 566
f 299 282 291
f 535 299 307
f 320 595 536
f 327 596 567
f 597 327 568
f 333 598 569
f 343 599 337
f 352 600 346
f 601 356 364
f 371 602 538
f 388 374 380
f 397 603 540
f 413 397 405
f 429 413 421
f 440 604 571
f 450 440 448
f 452 605 572
f 606 543 573
f 461 607 574
f 544 461 469
f 486 544 479
f 491 608 575
f 508 491 499
f 510 609 576
f 577 510 546
f 578 577 1
f 19 578 548
f 32 610 549
f 46 32 550
f 611 46 552
f 554 612 553
f 556 613 555
f 85 614 579
f 615 85 580
f 113 581 96
f 616 113 582
f 123 617 583
f 135 584 128
f 618 135 148
f 585 158 168
f 587 586 184
f 589 560 588
f 204 589 202
f 619 561 590
f 563 620 562
f 564 532 229
f 621 256 593
f 282 622 594
f 535 282 299
f 320 623 595
f 597 596 327
f 333 624 598
f 343 625 599
f 352 626 600
f 601 352 356
f 371 627 602
f 570 374 388
f 397 628 603
f 429 397 413
f 450 604 440
f 452 629 605
f 630 543 606
f 461 631 607
f 486 461 544
f 491 632 608
f 507 491 508
f 510 633 609
f 578 510 577
f 46 610 32
f 634 46 611
f 554 635 612
f 556 636 613
f 85 556 614
f 113 637 581
f 126 617 123
f 135 126 584
f 638 135 618
f 639 158 585
f 587 640 586
f 589 641 560
f 642 589 204
f 619 643 561
f 563 619 620
f 644 532 564
f 645 256 621
f 282 646 622
f 623 282 535
f 322 623 320
f 597 647 596
f 333 648 624
f 649 625 343
f 352 649 626
f 650 352 601
f 374 627 371
f 651 374 570
f 429 628 397
f 450 652 604
f 452 653 629
f 654 543 630
f 486 631 461
f 491 655 632
f 656 491 507
f 510 657 633
f 19 510 578
f 46 658 610
f 554 659 635
f 556 660 636
f 615 556 85
f 113 93 637
f 126 661 617
f 662 135 638
f 663 158 639
f 587 664 640
f 642 641 589
f 563 643 619
f 665 532 644
f 666 256 645
f 623 646 282
f 667 623 322
f 597 668 647
f 669 648 333
f 352 625 649
f 670 352 650
f 374 670 627
f 671 374 651
f 429 672 628
f 450 673 652
f 674 653 452
f 675 543 654
f 486 676 631
f 656 655 491
f 19 657 510
f 46 677 658
f 554 678 659
f 615 660 556
f 616 93 113
f 126 679 661
f 680 135 662
f 681 158 663
f 682 664 587
f 642 682 641
f 563 642 643
f 683 532 665
f 666 250 256
f 623 684 646
f 685 623 667
f 597 686 668
f 687 648 669
f 352 687 625
f 374 352 670
f 688 374 671
f 429 689 672
f 450 690 673
f 486 691 676
f 656 692 655
f 19 693 657
f 46 694 677
f 554 695 678
f 615 696 660
f 616 94 93
f 135 679 126
f 697 135 680
f 698 158 681
f 642 664 682
f 699 532 683
f 700 250 666
f 623 533 684
f 701 623 685
f 702 686 597
f 352 648 687
f 688 352 374
f 429 703 689
f 486 704 691
f 705 692 656
f 706 693 19
f 46 707 694
f 554 708 695
f 709 696 615
f 616 710 94
f 135 711 679
f 151 135 697
f 712 158 698
f 642 713 664
f 714 532 699
f 267 250 700
f 623 266 533
f 715 623 701
f 716 686 702
f 352 717 648
f 718 352 688
f 429 718 703
f 486 719 704
f 720 692 705
f 706 720 693
f 46 721 707
f 554 722 708
f 723 696 709
f 616 724 710
f 135 725 711
f 726 158 712
f 642 727 713
f 728 532 714
f 266 250 267
f 715 266 623
f 729 686 716
f 541 718 429
f 486 730 719
f 706 692 720
f 46 731 721
f 732 722 554
f 733 724 616
f 151 725 135
f 726 151 158
f 642 734 727
f 735 532 728
f 715 250 266
f 729 715 686
f 736 718 541
f 486 737 730
f 738 692 706
f 634 731 46
f 739 722 732
f 733 740 724
f 151 741 725
f 742 151 726
f 642 743 734
f 744 532 735
f 729 250 715
f 745 718 736
f 486 746 737
f 747 692 738
f 634 748 731
f 733 749 740
f 151 750 741
f 743 151 742
f 563 743 642
f 751 532 744
f 752 250 729
f 753 718 745
f 486 754 746
f 755 692 747
f 634 755 748
f 733 756 749
f 151 757 750
f 563 151 743
f 758 532 751
f 717 250 752
f 759 718 753
f 486 760 754
f 634 692 755
f 733 723 756
f 563 757 151
f 761 532 758
f 762 718 759
f 486 763 760
f 634 764 692
f 765 723 733
f 563 766 757
f 236 532 761
f 767 718 762
f 486 768 763
f 722 764 634
f 766 723 765
f 769 766 563
f 767 352 718
f 486 770 768
f 739 764 722
f 532 766 769
f 690 352 767
f 486 771 770
f 739 772 764
f 236 766 532
f 450 352 690
f 486 773 771
f 739 774 772
f 236 723 766
f 450 717 352
f 486 675 773
f 739 775 774
f 591 723 236
f 776 717 450
f 486 543 675
f 777 775 739
f 592 723 591
f 778 717 776
f 485 543 486
f 779 775 777
f 247 723 592
f 780 717 778
f 775 543 485
f 781 775 779
f 250 723 247
f 782 717 780
f 781 543 775
f 250 696 723
f 783 717 782
f 781 784 543
f 717 696 250
f 785 717 783
f 781 786 784
f 717 787 696
f 788 717 785
f 781 789 786
f 717 790 787
f 653 717 788
f 781 791 789
f 717 792 790
f 674 717 653
f 781 793 791
f 717 794 792
f 795 717 674
f 781 796 793
f 717 797 794
f 796 717 795
f 798 796 781
f 717 799 797
f 798 717 796
f 717 66 799
f 800 717 798
f 717 67 66
f 801 717 800
f 717 801 67
f 802 803 804
f 803 805 806
f 805 807 808
f 807 809 810
f 809 811 812
f 813 814 815
f 814 816 817
f 816 818 819
f 818 820 821
f 822 823 824
f 823 825 826
f 825 827 828
f 827 829 830
f 829 831 832
f 831 833 834
f 833 835 836
f 835 837 838
f 837 839 840
f 839 841 842
f 841 843 844
f 843 845 846
f 847 848 849
f 848 850 851
f 850 852 853
f 852 854 855
f 854 856 857
f 856 858 859
f 860 861 862
f 861 863 864
f 863 865 866
f 867 868 869
f 870 871 872
f 871 873 874
f 873 875 876
f 875 877 878
f 879 880 881
f 880 882 883
f 882 884 885
f 884 886 887
f 886 888 889
f 888 890 891
f 890 892 893
f 894 895 896
f 897 898 899
f 898 900 901
f 900 902 903
f 902 904 905
f 904 906 907
f 906 908 909
f 908 910 911
f 910 912 913
f 912 914 915
f 914 916 917
f 916 918 919
f 918 920 921
f 920 922 923
f 924 925 926
f 925 927 928
f 929 930 931
f 930 932 933
f 932 934 935
f 934 936 937
f 938 939 940
f 939 941 942
f 941 943 944
f 943 945 946
f 945 947 948
f 947 949 950
f 951 952 953
f 952 954 955
f 954 956 957
f 958 959 960
f 959 961 962
f 961 963 964
f 963 965 966
f 965 967 968
f 969 970 971
f 970 972 973
f 972 974 975
f 974 976 977
f 978 979 980
f 979 981 982
f 981 983 984
f 983 985 986
f 985 987 988
f 987 989 990
f 989 991 992
f 993 994 995
f 994 996 997
f 998 999 1000
f 999 1001 1002
f 1001 1003 1004
f 1003 1005 1006
f 1007 1008 1009
f 1010 1011 1012
f 1011 1013 1014
f 1013 1015 1016
f 1017 1018 1019
f 1018 1020 1021
f 1020 1022 1023
f 1022 1024 1025
f 1024 1026 1027
f 1026 1028 1029
f 1028 1030 1031
f 1030 1032 1033
f 1032 1034 1035
f 1036 1037 1038
f 1037 1039 1040
f 1041 1042 1043
f 1042 1044 1045
f 1044 1046 1047
f 1046 1048 1049
f 1050 1051 1052
f 1051 1053 1054
f 1053 1055 1056
f 1055 1057 1058
f 1057 1059 1060
f 1059 1061 1062
f 1061 1063 1064
f 1063 1065 1066
f 1067 1068 1069
f 1070 1071 1072
f 1071 1073 1074
f 1073 1075 1076
f 1075 1077 1078
f 1077 1079 1080
f 1079 1081 1082
f 1083 1084 1085
f 1084 1086 1087
f 1086 1088 1089
f 1088 1090 1091
f 1090 1092 1093
f 1092 1094 1095
f 1094 1096 1097
f 1096 1098 1099
f 1098 1100 1101
f 1100 1102 1103
f 1102 1104 1105
f 1104 1106 1107
f 1106 1108 1109
f 1108 1110 1111
f 1110 1112 1113
f 1112 1114 1115
f 1116 1117 1118
f 1117 1119 1120
f 1119 1121 1122
f 1121 1123 1124
f 1125 1126 1127
f 1126 1128 1129
f 1128 1130 1131
f 1130 1132 1133
f 1134 1135 1136
f 1137 1138 1139
f 1138 1140 1141
f 1140 1142 1143
f 1142 1144 1145
f 1146 1147 1148
f 1147 1149 1150
f 1149 1151 1152
f 1151 1153 1154
f 1153 1155 1156
f 1155 1157 1158
f 1157 1159 1160
f 1159 1161 1162
f 1161 1163 1164
f 1163 1165 1166
f 1167 1168 1169
f 1168 1170 1171
f 1170 1172 1173
f 1174 1175 1176
f 1175 1177 1178
f 1177 1179 1180
f 1179 1181 1182
f 1181 1183 1184
f 1183 1185 1186
f 1185 1187 1188
f 1187 1189 1190
f 1189 1191 1192
f 1193 1194 1195
f 1194 1196 1197
f 1196 1198 1199
f 1198 1200 1201
f 1200 1202 1203
f 1202 1204 1205
f 1204 1206 1207
f 1206 1208 1209
f 1208 1210 1211
f 1210 1212 1213
f 1212 1214 1215
f 1214 1216 1217
f 1216 1218 1219
f 1218 1220 1221
f 1220 1222 1223
f 1222 1224 1225
f 1224 1226 1227
f 1226 1228 1229
f 1228 1230 1231
f 1230 1232 1233
f 1232 1234 1235
f 1234 1236 1237
f 1238 1239 1240
f 1239 1241 1242
f 1241 1243 1244
f 1243 1245 1246
f 1245 1247 1248
f 1247 1249 1250
f 1249 1251 1252
f 1253 1254 1255
f 1256 1257 1258
f 1259 1260 1261
f 1260 1262 1263
f 1262 1264 1265
f 1264 1266 1267
f 1266 1268 1269
f 1268 1270 1271
f 1272 1273 1274
f 1275 1276 1277
f 1276 1278 1279
f 1278 1280 1281
f 1280 1282 1283
f 1282 1284 1285
f 1286 1287 1288
f 1289 1290 1291
f 1290 1292 1293
f 1292 1294 1295
f 1294 1296 1297
f 1296 1298 1299
f 1298 1300 1301
f 1300 1302 1303
f 1302 1304 1305
f 1304 1306 1307
f 1308 1309 1310
f 1311 1312 1313
f 1312 1314 1315
f 1314 1316 1317
f 1316 1318 1319
f 1320 803 802
f 803 807 805
f 807 811 809
f 1321 814 813
f 814 818 816
f 822 825 823
f 825 829 827
f 829 833 831
f 833 837 835
f 837 841 839
f 841 845 843
f 1322 848 847
f 848 852 850
f 852 856 854
f 856 1323 858
f 860 863 861
f 863 1324 865
f 870 873 871
f 873 877 875
f 879 882 880
f 882 886 884
f 886 890 888
f 1325 898 897
f 898 902 900
f 902 906 904
f 906 910 908
f 910 914 912
f 914 918 916
f 918 922 920
f 1326 925 924
f 1327 930 929
f 930 934 932
f 936 939 938
f 939 943 941
f 943 947 945
f 951 954 952
f 954 958 956
f 958 961 959
f 961 965 963
f 965 1328 967
f 1328 970 969
f 970 974 972
f 978 981 979
f 981 985 983
f 985 989 987
f 989 1329 991
f 993 996 994
f 1330 999 998
f 999 1003 1001
f 1331 1008 1007
f 1332 1011 1010
f 1011 1015 1013
f 1333 1018 1017
f 1018 1022 1020
f 1022 1026 1024
f 1026 1030 1028
f 1030 1034 1032
f 1036 1039 1037
f 1041 1044 1042
f 1044 1048 1046
f 1050 1053 1051
f 1053 1057 1055
f 1057 1061 1059
f 1061 1065 1063
f 1068 1071 1070
f 1071 1075 1073
f 1075 1079 1077
f 1079 1334 1081
f 1335 1084 1083
f 1084 1088 1086
f 1088 1092 1090
f 1092 1096 1094
f 1096 1100 1098
f 1100 1104 1102
f 1104 1108 1106
f 1108 1112 1110
f 1112 1336 1114
f 1337 1117 1116
f 1117 1121 1119
f 1125 1128 1126
f 1128 1132 1130
f 1338 1135 1134
f 1137 1140 1138
f 1140 1144 1142
f 1146 1149 1147
f 1149 1153 1151
f 1153 1157 1155
f 1157 1161 1159
f 1161 1165 1163
f 1339 1168 1167
f 1168 1172 1170
f 1174 1177 1175
f 1177 1181 1179
f 1181 1185 1183
f 1185 1189 1187
f 1189 1340 1191
f 1341 1194 1193
f 1194 1198 1196
f 1198 1202 1200
f 1202 1206 1204
f 1206 1210 1208
f 1210 1214 1212
f 1214 1218 1216
f 1218 1222 1220
f 1222 1226 1224
f 1226 1230 1228
f 1230 1234 1232
f 1234 1342 1236
f 1238 1241 1239
f 1241 1245 1243
f 1245 1249 1247
f 1343 1254 1253
f 1344 1257 1256
f 1259 1262 1260
f 1262 1266 1264
f 1266 1270 1268
f 1270 1273 1272
f 1345 1276 1275
f 1276 1280 1278
f 1280 1284 1282
f 1289 1292 1290
f 1292 1296 1294
f 1296 1300 1298
f 1300 1304 1302
f 1304 1308 1306
f 1346 1312 1311
f 1312 1316 1314
f 1316 1347 1318
f 1348 803 1320
f 803 811 807
f 1349 814 1321
f 814 820 818
f 1350 825 822
f 825 833 829
f 833 841 837
f 841 1351 845
f 1352 848 1322
f 848 856 852
f 856 1353 1323
f 1354 863 860
f 863 1355 1324
f 1356 873 870
f 873 1357 877
f 879 886 882
f 886 892 890
f 1358 898 1325
f 898 906 902
f 906 914 910
f 914 922 918
f 1359 925 1326
f 1360 930 1327
f 930 936 934
f 936 943 939
f 943 949 947
f 951 958 954
f 958 965 961
f 965 970 1328
f 970 976 974
f 978 985 981
f 985 1329 989
f 1361 996 993
f 1330 1003 999
f 1362 1008 1331
f 1363 1011 1332
f 1011 1364 1015
f 1333 1022 1018
f 1022 1030 1026
f 1030 1365 1034
f 1036 1366 1039
f 1041 1048 1044
f 1050 1057 1053
f 1057 1065 1061
f 1068 1075 1071
f 1075 1334 1079
f 1367 1084 1335
f 1084 1092 1088
f 1092 1100 1096
f 1100 1108 1104
f 1108 1336 1112
f 1337 1121 1117
f 1368 1128 1125
f 1128 1369 1132
f 1370 1135 1338
f 1137 1144 1140
f 1146 1153 1149
f 1157 1165 1161
f 1339 1172 1168
f 1174 1181 1177
f 1181 1189 1185
f 1189 1371 1340
f 1341 1198 1194
f 1198 1206 1202
f 1206 1214 1210
f 1214 1222 1218
f 1222 1230 1226
f 1230 1342 1234
f 1372 1241 1238
f 1241 1249 1245
f 1373 1254 1343
f 1344 1374 1257
f 1375 1262 1259
f 1262 1270 1266
f 1270 1345 1273
f 1345 1280 1276
f 1280 1286 1284
f 1376 1292 1289
f 1292 1300 1296
f 1300 1308 1304
f 1377 1312 1346
f 1312 1347 1316
f 1378 803 1348
f 803 1379 811
f 1349 820 814
f 1350 833 825
f 833 1351 841
f 1351 848 1352
f 848 1353 856
f 1354 1355 863
f 1356 1357 873
f 1380 886 879
f 886 1381 892
f 1382 898 1358
f 898 914 906
f 914 1383 922
f 1384 925 1359
f 1385 930 1360
f 936 949 943
f 958 970 965
f 970 1386 976
f 1387 985 978
f 985 1388 1329
f 1361 1389 996
f 1390 1003 1330
f 1362 1391 1008
f 1363 1364 1011
f 1333 1030 1022
f 1036 1392 1366
f 1393 1048 1041
f 1057 1394 1065
f 1068 1334 1075
f 1395 1084 1367
f 1084 1100 1092
f 1100 1336 1108
f 1396 1121 1337
f 1397 1128 1368
f 1128 1398 1369
f 1399 1135 1370
f 1400 1144 1137
f 1401 1153 1146
f 1157 1402 1165
f 1403 1172 1339
f 1174 1189 1181
f 1404 1198 1341
f 1198 1214 1206
f 1214 1230 1222
f 1405 1241 1372
f 1241 1251 1249
f 1406 1254 1373
f 1344 1407 1374
f 1408 1262 1375
f 1262 1345 1270
f 1345 1286 1280
f 1409 1292 1376
f 1292 1308 1300
f 1410 1312 1377
f 1312 1378 1347
f 1378 1379 803
f 1379 820 1349
f 1411 833 1350
f 833 848 1351
f 848 1412 1353
f 1413 1355 1354
f 1414 1357 1356
f 1415 886 1380
f 886 1416 1381
f 1382 914 898
f 914 1417 1383
f 1418 925 1384
f 1385 936 930
f 936 1419 949
f 958 1386 970
f 1387 1388 985
f 1361 1390 1389
f 1390 1005 1003
f 1362 1420 1391
f 1421 1364 1363
f 1333 1365 1030
f 1057 1422 1394
f 1423 1084 1395
f 1084 1336 1100
f 1424 1121 1396
f 1397 1398 1128
f 1425 1135 1399
f 1426 1144 1400
f 1427 1153 1401
f 1153 1402 1157
f 1428 1172 1403
f 1174 1371 1189
f 1429 1198 1404
f 1198 1230 1214
f 1405 1251 1241
f 1430 1254 1406
f 1344 1431 1407
f 1432 1262 1408
f 1262 1286 1345
f 1433 1292 1409
f 1292 1309 1308
f 1434 1312 1410
f 1312 1379 1378
f 1411 848 833
f 848 1435 1412
f 1436 1355 1413
f 1437 1357 1414
f 1357 886 1415
f 1438 914 1382
f 1418 927 925
f 927 936 1385
f 936 1439 1419
f 958 1440 1386
f 1441 1388 1387
f 1442 1390 1361
f 1390 1443 1005
f 1444 1420 1362
f 1420 1364 1421
f 1333 1445 1365
f 1057 1446 1422
f 1447 1084 1423
f 1084 1424 1336
f 1424 1123 1121
f 1448 1398 1397
f 1449 1135 1425
f 1426 1450 1144
f 1450 1153 1427
f 1153 1451 1402
f 1428 1174 1172
f 1174 1452 1371
f 1429 1230 1198
f 1453 1251 1405
f 1454 1254 1430
f 1344 1455 1431
f 1432 1286 1262
f 1456 1292 1433
f 1292 1457 1309
f 1458 1312 1434
f 1312 820 1379
f 1459 848 1411
f 1460 1355 1436
f 1461 1357 1437
f 1357 1416 886
f 895 914 1438
f 1462 927 1418
f 936 1463 1439
f 958 1464 1440
f 1465 1388 1441
f 1442 1443 1390
f 1444 1364 1420
f 1333 1466 1445
f 1057 1467 1446
f 1447 1424 1084
f 1424 1468 1123
f 1469 1398 1448
f 1449 1470 1135
f 1426 1153 1450
f 1153 1471 1451
f 1471 1174 1428
f 1174 1472 1452
f 1473 1230 1429
f 1474 1251 1453
f 1454 1475 1254
f 1344 1476 1455
f 1477 1286 1432
f 1456 1457 1292
f 1458 820 1312
f 1478 848 1459
f 1479 1355 1460
f 1461 1416 1357
f 895 1417 914
f 1480 927 1462
f 936 1481 1463
f 958 1482 1464
f 1465 1483 1388
f 1483 1443 1442
f 1443 1364 1444
f 1333 1484 1466
f 1050 1467 1057
f 1485 1424 1447
f 1424 1486 1468
f 1487 1398 1469
f 1449 1488 1470
f 1488 1153 1426
f 1153 1174 1471
f 1174 1489 1472
f 1490 1230 1473
f 1491 1251 1474
f 1492 1286 1477
f 1493 1457 1456
f 1494 820 1458
f 1495 848 1478
f 1496 1355 1479
f 1497 1416 1461
f 894 1417 895
f 1480 936 927
f 936 1498 1481
f 958 1499 1482
f 1465 1443 1483
f 1333 1500 1484
f 1050 1501 1467
f 1334 1424 1485
f 1424 1502 1486
f 1487 1503 1398
f 1449 1153 1488
f 1153 1489 1174
f 1504 1230 1490
f 1505 1286 1492
f 1493 1506 1457
f 1494 1507 820
f 1508 848 1495
f 1509 1355 1496
f 1497 1510 1416
f 1511 1417 894
f 1512 936 1480
f 936 951 1498
f 958 1513 1499
f 1514 1443 1465
f 1333 1515 1500
f 1050 1067 1501
f 1068 1424 1334
f 1424 1516 1502
f 1487 1517 1503
f 1518 1153 1449
f 1153 1519 1489
f 1519 1230 1504
f 1520 1286 1505
f 1493 1521 1506
f 1521 1507 1494
f 1522 848 1508
f 1523 1355 1509
f 1497 1524 1510
f 1525 1417 1511
f 1526 936 1512
f 958 1527 1513
f 1528 1443 1514
f 1333 1529 1515
f 1050 1068 1067
f 1068 1516 1424
f 1487 1530 1517
f 1519 1342 1230
f 1531 1286 1520
f 1493 1507 1521
f 1532 848 1522
f 1523 1533 1355
f 1525 1534 1417
f 1526 951 936
f 951 1527 958
f 1535 1443 1528
f 1333 1536 1529
f 1050 1516 1068
f 1516 1530 1487
f 1519 1537 1342
f 1538 1286 1531
f 1493 1539 1507
f 1532 1435 848
f 1523 1540 1533
f 1541 1534 1525
f 1542 951 1526
f 951 1543 1527
f 1544 1443 1535
f 1333 1545 1536
f 1050 1530 1516
f 1519 1546 1537
f 1547 1286 1538
f 1493 1548 1539
f 1549 1435 1532
f 1550 1534 1541
f 1551 951 1542
f 951 1544 1543
f 1544 1364 1443
f 1333 1552 1545
f 1050 1553 1530
f 1519 1554 1546
f 1555 1286 1547
f 1493 1556 1548
f 1556 1435 1549
f 1557 1534 1550
f 1558 951 1551
f 951 1364 1544
f 1333 1559 1552
f 1050 1518 1553
f 1519 1560 1554
f 1561 1286 1555
f 1493 1435 1556
f 1524 1534 1557
f 1558 1364 951
f 1333 1562 1559
f 1519 1563 1560
f 1564 1286 1561
f 1565 1435 1493
f 1524 1566 1534
f 1567 1364 1558
f 1333 1036 1562
f 1519 1568 1563
f 1569 1286 1564
f 1565 1523 1435
f 1524 1567 1566
f 1567 1570 1364
f 1153 1568 1519
f 1571 1286 1569
f 1565 1540 1523
f 1567 1333 1570
f 1153 1491 1568
f 1572 1286 1571
f 1573 1540 1565
f 1567 1036 1333
f 1153 1251 1491
f 1574 1286 1572
f 1575 1540 1573
f 1524 1036 1567
f 1518 1251 1153
f 1476 1286 1574
f 1576 1540 1575
f 1524 1392 1036
f 1518 1577 1251
f 1344 1286 1476
f 1576 1578 1540
f 1524 1393 1392
f 1518 1579 1577
f 1344 1287 1286
f 1576 1580 1578
f 1524 1048 1393
f 1518 1581 1579
f 1344 1576 1287
f 1576 1582 1580
f 1524 1050 1048
f 1518 1583 1581
f 1344 1582 1576
f 1497 1050 1524
f 1518 1584 1583
f 1585 1582 1344
f 1497 1518 1050
f 1518 1586 1584
f 1587 1582 1585
f 1588 1518 1497
f 1518 1589 1586
f 1590 1582 1587
f 1591 1518 1588
f 1518 1454 1589
f 1592 1582 1590
f 1593 1518 1591
f 1518 1475 1454
f 1594 1582 1592
f 1595 1518 1593
f 1518 1596 1475
f 1597 1582 1594
f 1598 1518 1595
f 1518 1597 1596
f 1597 1599 1582
f 1600 1518 1598
f 1518 1599 1597
f 868 1518 1600
f 1518 1601 1599
f 867 1518 868
f 1518 1602 1601
f 1602 1518 867
f 3 804 1
f 1 804 803
f 1 803 5
f 5 803 806
f 5 806 4
f 4 806 805
f 4 805 7
f 7 805 808
f 7 808 6
f 6 808 807
f 6 807 9
f 9 807 810
f 9 810 8
f 8 810 809
f 8 809 11
f 11 809 812
f 11 812 10
f 10 812 811
f 10 811 578
f 578 811 1379
f 578 1379 548
f 548 1379 1349
f 548 1349 520
f 520 1349 1321
f 520 1321 13
f 13 1321 813
f 13 813 14
f 14 813 815
f 14 815 12
f 12 815 814
f 12 814 16
f 16 814 817
f 16 817 15
f 15 817 816
f 15 816 18
f 18 816 819
f 18 819 17
f 17 819 818
f 17 818 20
f 20 818 821
f 20 821 19
f 19 821 820
f 19 820 706
f 706 820 1507
f 706 1507 738
f 738 1507 1539
f 738 1539 747
f 747 1539 1548
f 747 1548 755
f 755 1548 1556
f 755 1556 748
f 748 1556 1549
f 748 1549 731
f 731 1549 1532
f 731 1532 721
f 721 1532 1522
f 721 1522 707
f 707 1522 1508
f 707 1508 694
f 694 1508 1495
f 694 1495 677
f 677 1495 1478
f 677 1478 658
f 658 1478 1459
f 658 1459 610
f 610 1459 1411
f 610 1411 549
f 549 1411 1350
f 549 1350 22
f 22 1350 822
f 22 822 23
f 23 822 824
f 23 824 21
f 21 824 823
f 21 823 25
f 25 823 826
f 25 826 24
f 24 826 825
f 24 825 27
f 27 825 828
f 27 828 26
f 26 828 827
f 26 827 29
f 29 827 830
f 29 830 28
f 28 830 829
f 28 829 31
f 31 829 832
f 31 832 30
f 30 832 831
f 30 831 33
f 33 831 834
f 33 834 32
f 32 834 833
f 32 833 35
f 35 833 836
f 35 836 34
f 34 836 835
f 34 835 37
f 37 835 838
f 37 838 36
f 36 838 837
f 36 837 39
f 39 837 840
f 39 840 38
f 38 840 839
f 38 839 41
f 41 839 842
f 41 842 40
f 40 842 841
f 40 841 43
f 43 841 844
f 43 844 42
f 42 844 843
f 42 843 45
f 45 843 846
f 45 846 44
f 44 846 845
f 44 845 550
f 550 845 1351
f 550 1351 551
f 551 1351 1352
f 551 1352 521
f 521 1352 1322
f 521 1322 47
f 47 1322 847
f 47 847 48
f 48 847 849
f 48 849 46
f 46 849 848
f 46 848 50
f 50 848 851
f 50 851 49
f 49 851 850
f 49 850 52
f 52 850 853
f 52 853 51
f 51 853 852
f 51 852 54
f 54 852 855
f 54 855 53
f 53 855 854
f 53 854 56
f 56 854 857
f 56 857 55
f 55 857 856
f 55 856 58
f 58 856 859
f 58 859 57
f 57 859 858
f 57 858 522
f 522 858 1323
f 522 1323 552
f 552 1323 1353
f 552 1353 611
f 611 1353 1412
f 611 1412 634
f 634 1412 1435
f 634 1435 722
f 722 1435 1523
f 722 1523 708
f 708 1523 1509
f 708 1509 695
f 695 1509 1496
f 695 1496 678
f 678 1496 1479
f 678 1479 659
f 659 1479 1460
f 659 1460 635
f 635 1460 1436
f 635 1436 612
f 612 1436 1413
f 612 1413 553
f 553 1413 1354
f 553 1354 60
f 60 1354 860
f 60 860 61
f 61 860 862
f 61 862 59
f 59 862 861
f 59 861 63
f 63 861 864
f 63 864 62
f 62 864 863
f 62 863 65
f 65 863 866
f 65 866 64
f 64 866 865
f 64 865 523
f 523 865 1324
f 523 1324 554
f 554 1324 1355
f 554 1355 732
f 732 1355 1533
f 732 1533 739
f 739 1533 1540
f 739 1540 777
f 777 1540 1578
f 777 1578 779
f 779 1578 1580
f 779 1580 781
f 781 1580 1582
f 781 1582 798
f 798 1582 1599
f 798 1599 800
f 800 1599 1601
f 800 1601 801
f 801 1601 1602
f 801 1602 67
f 67 1602 867
f 67 867 68
f 68 867 869
f 68 869 66
f 66 869 868
f 66 868 799
f 799 868 1600
f 799 1600 797
f 797 1600 1598
f 797 1598 794
f 794 1598 1595
f 794 1595 792
f 792 1595 1593
f 792 1593 790
f 790 1593 1591
f 790 1591 787
f 787 1591 1588
f 787 1588 696
f 696 1588 1497
f 696 1497 660
f 660 1497 1461
f 660 1461 636
f 636 1461 1437
f 636 1437 613
f 613 1437 1414
f 613 1414 555
f 555 1414 1356
f 555 1356 70
f 70 1356 870
f 70 870 71
f 71 870 872
f 71 872 69
f 69 872 871
f 69 871 73
f 73 871 874
f 73 874 72
f 72 874 873
f 72 873 75
f 75 873 876
f 75 876 74
f 74 876 875
f 74 875 77
f 77 875 878
f 77 878 76
f 76 878 877
f 76 877 556
f 556 877 1357
f 556 1357 614
f 614 1357 1415
f 614 1415 579
f 579 1415 1380
f 579 1380 79
f 79 1380 879
f 79 879 80
f 80 879 881
f 80 881 78
f 78 881 880
f 78 880 82
f 82 880 883
f 82 883 81
f 81 883 882
f 81 882 84
f 84 882 885
f 84 885 83
f 83 885 884
f 83 884 86
f 86 884 887
f 86 887 85
f 85 887 886
f 85 886 88
f 88 886 889
f 88 889 87
f 87 889 888
f 87 888 90
f 90 888 891
f 90 891 89
f 89 891 890
f 89 890 92
f 92 890 893
f 92 893 91
f 91 893 892
f 91 892 580
f 580 892 1381
f 580 1381 615
f 615 1381 1416
f 615 1416 709
f 709 1416 1510
f 709 1510 723
f 723 1510 1524
f 723 1524 756
f 756 1524 1557
f 756 1557 749
f 749 1557 1550
f 749 1550 740
f 740 1550 1541
f 740 1541 724
f 724 1541 1525
f 724 1525 710
f 710 1525 1511
f 710 1511 94
f 94 1511 894
f 94 894 95
f 95 894 896
f 95 896 93
f 93 896 895
f 93 895 637
f 637 895 1438
f 637 1438 581
f 581 1438 1382
f 581 1382 557
f 557 1382 1358
f 557 1358 524
f 524 1358 1325
f 524 1325 97
f 97 1325 897
f 97 897 98
f 98 897 899
f 98 899 96
f 96 899 898
f 96 898 100
f 100 898 901
f 100 901 99
f 99 901 900
f 99 900 102
f 102 900 903
f 102 903 101
f 101 903 902
f 101 902 104
f 104 902 905
f 104 905 103
f 103 905 904
f 103 904 106
f 106 904 907
f 106 907 105
f 105 907 906
f 105 906 108
f 108 906 909
f 108 909 107
f 107 909 908
f 107 908 110
f 110 908 911
f 110 911 109
f 109 911 910
f 109 910 112
f 112 910 913
f 112 913 111
f 111 913 912
f 111 912 114
f 114 912 915
f 114 915 113
f 113 915 914
f 113 914 116
f 116 914 917
f 116 917 115
f 115 917 916
f 115 916 118
f 118 916 919
f 118 919 117
f 117 919 918
f 117 918 120
f 120 918 921
f 120 921 119
f 119 921 920
f 119 920 122
f 122 920 923
f 122 923 121
f 121 923 922
f 121 922 582
f 582 922 1383
f 582 1383 616
f 616 1383 1417
f 616 1417 733
f 733 1417 1534
f 733 1534 765
f 765 1534 1566
f 765 1566 766
f 766 1566 1567
f 766 1567 757
f 757 1567 1558
f 757 1558 750
f 750 1558 1551
f 750 1551 741
f 741 1551 1542
f 741 1542 725
f 725 1542 1526
f 725 1526 711
f 711 1526 1512
f 711 1512 679
f 679 1512 1480
f 679 1480 661
f 661 1480 1462
f 661 1462 617
f 617 1462 1418
f 617 1418 583
f 583 1418 1384
f 583 1384 558
f 558 1384 1359
f 558 1359 525
f 525 1359 1326
f 525 1326 124
f 124 1326 924
f 124 924 125
f 125 924 926
f 125 926 123
f 123 926 925
f 123 925 127
f 127 925 928
f 127 928 126
f 126 928 927
f 126 927 584
f 584 927 1385
f 584 1385 559
f 559 1385 1360
f 559 1360 526
f 526 1360 1327
f 526 1327 129
f 129 1327 929
f 129 929 130
f 130 929 931
f 130 931 128
f 128 931 930
f 128 930 132
f 132 930 933
f 132 933 131
f 131 933 932
f 131 932 134
f 134 932 935
f 134 935 133
f 133 935 934
f 133 934 136
f 136 934 937
f 136 937 135
f 135 937 936
f 135 936 138
f 138 936 938
f 138 938 139
f 139 938 940
f 139 940 137
f 137 940 939
f 137 939 141
f 141 939 942
f 141 942 140
f 140 942 941
f 140 941 143
f 143 941 944
f 143 944 142
f 142 944 943
f 142 943 145
f 145 943 946
f 145 946 144
f 144 946 945
f 144 945 147
f 147 945 948
f 147 948 146
f 146 948 947
f 146 947 149
f 149 947 950
f 149 950 148
f 148 950 949
f 148 949 618
f 618 949 1419
f 618 1419 638
f 638 1419 1439
f 638 1439 662
f 662 1439 1463
f 662 1463 680
f 680 1463 1481
f 680 1481 697
f 697 1481 1498
f 697 1498 151
f 151 1498 951
f 151 951 152
f 152 951 953
f 152 953 150
f 150 953 952
f 150 952 154
f 154 952 955
f 154 955 153
f 153 955 954
f 153 954 156
f 156 954 957
f 156 957 155
f 155 957 956
f 155 956 158
f 158 956 958
f 158 958 159
f 159 958 960
f 159 960 157
f 157 960 959
f 157 959 161
f 161 959 962
f 161 962 160
f 160 962 961
f 160 961 163
f 163 961 964
f 163 964 162
f 162 964 963
f 162 963 165
f 165 963 966
f 165 966 164
f 164 966 965
f 164 965 167
f 167 965 968
f 167 968 166
f 166 968 967
f 166 967 527
f 527 967 1328
f 527 1328 169
f 169 1328 969
f 169 969 170
f 170 969 971
f 170 971 168
f 168 971 970
f 168 970 172
f 172 970 973
f 172 973 171
f 171 973 972
f 171 972 174
f 174 972 975
f 174 975 173
f 173 975 974
f 173 974 176
f 176 974 977
f 176 977 175
f 175 977 976
f 175 976 585
f 585 976 1386
f 585 1386 639
f 639 1386 1440
f 639 1440 663
f 663 1440 1464
f 663 1464 681
f 681 1464 1482
f 681 1482 698
f 698 1482 1499
f 698 1499 712
f 712 1499 1513
f 712 1513 726
f 726 1513 1527
f 726 1527 742
f 742 1527 1543
f 742 1543 743
f 743 1543 1544
f 743 1544 734
f 734 1544 1535
f 734 1535 727
f 727 1535 1528
f 727 1528 713
f 713 1528 1514
f 713 1514 664
f 664 1514 1465
f 664 1465 640
f 640 1465 1441
f 640 1441 586
f 586 1441 1387
f 586 1387 178
f 178 1387 978
f 178 978 179
f 179 978 980
f 179 980 177
f 177 980 979
f 177 979 181
f 181 979 982
f 181 982 180
f 180 982 981
f 180 981 183
f 183 981 984
f 183 984 182
f 182 984 983
f 182 983 185
f 185 983 986
f 185 986 184
f 184 986 985
f 184 985 187
f 187 985 988
f 187 988 186
f 186 988 987
f 186 987 189
f 189 987 990
f 189 990 188
f 188 990 989
f 188 989 191
f 191 989 992
f 191 992 190
f 190 992 991
f 190 991 528
f 528 991 1329
f 528 1329 587
f 587 1329 1388
f 587 1388 682
f 682 1388 1483
f 682 1483 641
f 641 1483 1442
f 641 1442 560
f 560 1442 1361
f 560 1361 193
f 193 1361 993
f 193 993 194
f 194 993 995
f 194 995 192
f 192 995 994
f 192 994 196
f 196 994 997
f 196 997 195
f 195 997 996
f 195 996 588
f 588 996 1389
f 588 1389 589
f 589 1389 1390
f 589 1390 529
f 529 1390 1330
f 529 1330 198
f 198 1330 998
f 198 998 199
f 199 998 1000
f 199 1000 197
f 197 1000 999
f 197 999 201
f 201 999 1002
f 201 1002 200
f 200 1002 1001
f 200 1001 203
f 203 1001 1004
f 203 1004 202
f 202 1004 1003
f 202 1003 205
f 205 1003 1006
f 205 1006 204
f 204 1006 1005
f 204 1005 642
f 642 1005 1443
f 642 1443 643
f 643 1443 1444
f 643 1444 561
f 561 1444 1362
f 561 1362 530
f 530 1362 1331
f 530 1331 207
f 207 1331 1007
f 207 1007 208
f 208 1007 1009
f 208 1009 206
f 206 1009 1008
f 206 1008 590
f 590 1008 1391
f 590 1391 619
f 619 1391 1420
f 619 1420 620
f 620 1420 1421
f 620 1421 562
f 562 1421 1363
f 562 1363 531
f 531 1363 1332
f 531 1332 210
f 210 1332 1010
f 210 1010 211
f 211 1010 1012
f 211 1012 209
f 209 1012 1011
f 209 1011 213
f 213 1011 1014
f 213 1014 212
f 212 1014 1013
f 212 1013 215
f 215 1013 1016
f 215 1016 214
f 214 1016 1015
f 214 1015 563
f 563 1015 1364
f 563 1364 769
f 769 1364 1570
f 769 1570 532
f 532 1570 1333
f 532 1333 217
f 217 1333 1017
f 217 1017 218
f 218 1017 1019
f 218 1019 216
f 216 1019 1018
f 216 1018 220
f 220 1018 1021
f 220 1021 219
f 219 1021 1020
f 219 1020 222
f 222 1020 1023
f 222 1023 221
f 221 1023 1022
f 221 1022 224
f 224 1022 1025
f 224 1025 223
f 223 1025 1024
f 223 1024 226
f 226 1024 1027
f 226 1027 225
f 225 1027 1026
f 225 1026 228
f 228 1026 1029
f 228 1029 227
f 227 1029 1028
f 227 1028 230
f 230 1028 1031
f 230 1031 229
f 229 1031 1030
f 229 1030 232
f 232 1030 1033
f 232 1033 231
f 231 1033 1032
f 231 1032 234
f 234 1032 1035
f 234 1035 233
f 233 1035 1034
f 233 1034 564
f 564 1034 1365
f 564 1365 644
f 644 1365 1445
f 644 1445 665
f 665 1445 1466
f 665 1466 683
f 683 1466 1484
f 683 1484 699
f 699 1484 1500
f 699 1500 714
f 714 1500 1515
f 714 1515 728
f 728 1515 1529
f 728 1529 735
f 735 1529 1536
f 735 1536 744
f 744 1536 1545
f 744 1545 751
f 751 1545 1552
f 751 1552 758
f 758 1552 1559
f 758 1559 761
f 761 1559 1562
f 761 1562 236
f 236 1562 1036
f 236 1036 237
f 237 1036 1038
f 237 1038 235
f 235 1038 1037
f 235 1037 239
f 239 1037 1040
f 239 1040 238
f 238 1040 1039
f 238 1039 565
f 565 1039 1366
f 565 1366 591
f 591 1366 1392
f 591 1392 592
f 592 1392 1393
f 592 1393 241
f 241 1393 1041
f 241 1041 242
f 242 1041 1043
f 242 1043 240
f 240 1043 1042
f 240 1042 244
f 244 1042 1045
f 244 1045 243
f 243 1045 1044
f 243 1044 246
f 246 1044 1047
f 246 1047 245
f 245 1047 1046
f 245 1046 248
f 248 1046 1049
f 248 1049 247
f 247 1049 1048
f 247 1048 250
f 250 1048 1050
f 250 1050 251
f 251 1050 1052
f 251 1052 249
f 249 1052 1051
f 249 1051 253
f 253 1051 1054
f 253 1054 252
f 252 1054 1053
f 252 1053 255
f 255 1053 1056
f 255 1056 254
f 254 1056 1055
f 254 1055 257
f 257 1055 1058
f 257 1058 256
f 256 1058 1057
f 256 1057 259
f 259 1057 1060
f 259 1060 258
f 258 1060 1059
f 258 1059 261
f 261 1059 1062
f 261 1062 260
f 260 1062 1061
f 260 1061 263
f 263 1061 1064
f 263 1064 262
f 262 1064 1063
f 262 1063 265
f 265 1063 1066
f 265 1066 264
f 264 1066 1065
f 264 1065 593
f 593 1065 1394
f 593 1394 621
f 621 1394 1422
f 621 1422 645
f 645 1422 1446
f 645 1446 666
f 666 1446 1467
f 666 1467 700
f 700 1467 1501
f 700 1501 267
f 267 1501 1067
f 267 1067 268
f 268 1067 1069
f 268 1069 266
f 266 1069 1068
f 266 1068 270
f 270 1068 1070
f 270 1070 271
f 271 1070 1072
f 271 1072 269
f 269 1072 1071
f 269 1071 273
f 273 1071 1074
f 273 1074 272
f 272 1074 1073
f 272 1073 275
f 275 1073 1076
f 275 1076 274
f 274 1076 1075
f 274 1075 277
f 277 1075 1078
f 277 1078 276
f 276 1078 1077
f 276 1077 279
f 279 1077 1080
f 279 1080 278
f 278 1080 1079
f 278 1079 281
f 281 1079 1082
f 281 1082 280
f 280 1082 1081
f 280 1081 533
f 533 1081 1334
f 533 1334 684
f 684 1334 1485
f 684 1485 646
f 646 1485 1447
f 646 1447 622
f 622 1447 1423
f 622 1423 594
f 594 1423 1395
f 594 1395 566
f 566 1395 1367
f 566 1367 534
f 534 1367 1335
f 534 1335 283
f 283 1335 1083
f 283 1083 284
f 284 1083 1085
f 284 1085 282
f 282 1085 1084
f 282 1084 286
f 286 1084 1087
f 286 1087 285
f 285 1087 1086
f 285 1086 288
f 288 1086 1089
f 288 1089 287
f 287 1089 1088
f 287 1088 290
f 290 1088 1091
f 290 1091 289
f 289 1091 1090
f 289 1090 292
f 292 1090 1093
f 292 1093 291
f 291 1093 1092
f 291 1092 294
f 294 1092 1095
f 294 1095 293
f 293 1095 1094
f 293 1094 296
f 296 1094 1097
f 296 1097 295
f 295 1097 1096
f 295 1096 298
f 298 1096 1099
f 298 1099 297
f 297 1099 1098
f 297 1098 300
f 300 1098 1101
f 300 1101 299
f 299 1101 1100
f 299 1100 302
f 302 1100 1103
f 302 1103 301
f 301 1103 1102
f 301 1102 304
f 304 1102 1105
f 304 1105 303
f 303 1105 1104
f 303 1104 306
f 306 1104 1107
f 306 1107 305
f 305 1107 1106
f 305 1106 308
f 308 1106 1109
f 308 1109 307
f 307 1109 1108
f 307 1108 310
f 310 1108 1111
f 310 1111 309
f 309 1111 1110
f 309 1110 312
f 312 1110 1113
f 312 1113 311
f 311 1113 1112
f 311 1112 314
f 314 1112 1115
f 314 1115 313
f 313 1115 1114
f 313 1114 535
f 535 1114 1336
f 535 1336 623
f 623 1336 1424
f 623 1424 595
f 595 1424 1396
f 595 1396 536
f 536 1396 1337
f 536 1337 316
f 316 1337 1116
f 316 1116 317
f 317 1116 1118
f 317 1118 315
f 315 1118 1117
f 315 1117 319
f 319 1117 1120
f 319 1120 318
f 318 1120 1119
f 318 1119 321
f 321 1119 1122
f 321 1122 320
f 320 1122 1121
f 320 1121 323
f 323 1121 1124
f 323 1124 322
f 322 1124 1123
f 322 1123 667
f 667 1123 1468
f 667 1468 685
f 685 1468 1486
f 685 1486 701
f 701 1486 1502
f 701 1502 715
f 715 1502 1516
f 715 1516 686
f 686 1516 1487
f 686 1487 668
f 668 1487 1469
f 668 1469 647
f 647 1469 1448
f 647 1448 596
f 596 1448 1397
f 596 1397 567
f 567 1397 1368
f 567 1368 325
f 325 1368 1125
f 325 1125 326
f 326 1125 1127
f 326 1127 324
f 324 1127 1126
f 324 1126 328
f 328 1126 1129
f 328 1129 327
f 327 1129 1128
f 327 1128 330
f 330 1128 1131
f 330 1131 329
f 329 1131 1130
f 329 1130 332
f 332 1130 1133
f 332 1133 331
f 331 1133 1132
f 331 1132 568
f 568 1132 1369
f 568 1369 597
f 597 1369 1398
f 597 1398 702
f 702 1398 1503
f 702 1503 716
f 716 1503 1517
f 716 1517 729
f 729 1517 1530
f 729 1530 752
f 752 1530 1553
f 752 1553 717
f 717 1553 1518
f 717 1518 648
f 648 1518 1449
f 648 1449 624
f 624 1449 1425
f 624 1425 598
f 598 1425 1399
f 598 1399 569
f 569 1399 1370
f 569 1370 537
f 537 1370 1338
f 537 1338 334
f 334 1338 1134
f 334 1134 335
f 335 1134 1136
f 335 1136 333
f 333 1136 1135
f 333 1135 669
f 669 1135 1470
f 669 1470 687
f 687 1470 1488
f 687 1488 625
f 625 1488 1426
f 625 1426 599
f 599 1426 1400
f 599 1400 337
f 337 1400 1137
f 337 1137 338
f 338 1137 1139
f 338 1139 336
f 336 1139 1138
f 336 1138 340
f 340 1138 1141
f 340 1141 339
f 339 1141 1140
f 339 1140 342
f 342 1140 1143
f 342 1143 341
f 341 1143 1142
f 341 1142 344
f 344 1142 1145
f 344 1145 343
f 343 1145 1144
f 343 1144 649
f 649 1144 1450
f 649 1450 626
f 626 1450 1427
f 626 1427 600
f 600 1427 1401
f 600 1401 346
f 346 1401 1146
f 346 1146 347
f 347 1146 1148
f 347 1148 345
f 345 1148 1147
f 345 1147 349
f 349 1147 1150
f 349 1150 348
f 348 1150 1149
f 348 1149 351
f 351 1149 1152
f 351 1152 350
f 350 1152 1151
f 350 1151 353
f 353 1151 1154
f 353 1154 352
f 352 1154 1153
f 352 1153 355
f 355 1153 1156
f 355 1156 354
f 354 1156 1155
f 354 1155 357
f 357 1155 1158
f 357 1158 356
f 356 1158 1157
f 356 1157 359
f 359 1157 1160
f 359 1160 358
f 358 1160 1159
f 358 1159 361
f 361 1159 1162
f 361 1162 360
f 360 1162 1161
f 360 1161 363
f 363 1161 1164
f 363 1164 362
f 362 1164 1163
f 362 1163 365
f 365 1163 1166
f 365 1166 364
f 364 1166 1165
f 364 1165 601
f 601 1165 1402
f 601 1402 650
f 650 1402 1451
f 650 1451 670
f 670 1451 1471
f 670 1471 627
f 627 1471 1428
f 627 1428 602
f 602 1428 1403
f 602 1403 538
f 538 1403 1339
f 538 1339 367
f 367 1339 1167
f 367 1167 368
f 368 1167 1169
f 368 1169 366
f 366 1169 1168
f 366 1168 370
f 370 1168 1171
f 370 1171 369
f 369 1171 1170
f 369 1170 372
f 372 1170 1173
f 372 1173 371
f 371 1173 1172
f 371 1172 374
f 374 1172 1174
f 374 1174 375
f 375 1174 1176
f 375 1176 373
f 373 1176 1175
f 373 1175 377
f 377 1175 1178
f 377 1178 376
f 376 1178 1177
f 376 1177 379
f 379 1177 1180
f 379 1180 378
f 378 1180 1179
f 378 1179 381
f 381 1179 1182
f 381 1182 380
f 380 1182 1181
f 380 1181 383
f 383 1181 1184
f 383 1184 382
f 382 1184 1183
f 382 1183 385
f 385 1183 1186
f 385 1186 384
f 384 1186 1185
f 384 1185 387
f 387 1185 1188
f 387 1188 386
f 386 1188 1187
f 386 1187 389
f 389 1187 1190
f 389 1190 388
f 388 1190 1189
f 388 1189 391
f 391 1189 1192
f 391 1192 390
f 390 1192 1191
f 390 1191 539
f 539 1191 1340
f 539 1340 570
f 570 1340 1371
f 570 1371 651
f 651 1371 1452
f 651 1452 671
f 671 1452 1472
f 671 1472 688
f 688 1472 1489
f 688 1489 718
f 718 1489 1519
f 718 1519 703
f 703 1519 1504
f 703 1504 689
f 689 1504 1490
f 689 1490 672
f 672 1490 1473
f 672 1473 628
f 628 1473 1429
f 628 1429 603
f 603 1429 1404
f 603 1404 540
f 540 1404 1341
f 540 1341 393
f 393 1341 1193
f 393 1193 394
f 394 1193 1195
f 394 1195 392
f 392 1195 1194
f 392 1194 396
f 396 1194 1197
f 396 1197 395
f 395 1197 1196
f 395 1196 398
f 398 1196 1199
f 398 1199 397
f 397 1199 1198
f 397 1198 400
f 400 1198 1201
f 400 1201 399
f 399 1201 1200
f 399 1200 402
f 402 1200 1203
f 402 1203 401
f 401 1203 1202
f 401 1202 404
f 404 1202 1205
f 404 1205 403
f 403 1205 1204
f 403 1204 406
f 406 1204 1207
f 406 1207 405
f 405 1207 1206
f 405 1206 408
f 408 1206 1209
f 408 1209 407
f 407 1209 1208
f 407 1208 410
f 410 1208 1211
f 410 1211 409
f 409 1211 1210
f 409 1210 412
f 412 1210 1213
f 412 1213 411
f 411 1213 1212
f 411 1212 414
f 414 1212 1215
f 414 1215 413
f 413 1215 1214
f 413 1214 416
f 416 1214 1217
f 416 1217 415
f 415 1217 1216
f 415 1216 418
f 418 1216 1219
f 418 1219 417
f 417 1219 1218
f 417 1218 420
f 420 1218 1221
f 420 1221 419
f 419 1221 1220
f 419 1220 422
f 422 1220 1223
f 422 1223 421
f 421 1223 1222
f 421 1222 424
f 424 1222 1225
f 424 1225 423
f 423 1225 1224
f 423 1224 426
f 426 1224 1227
f 426 1227 425
f 425 1227 1226
f 425 1226 428
f 428 1226 1229
f 428 1229 427
f 427 1229 1228
f 427 1228 430
f 430 1228 1231
f 430 1231 429
f 429 1231 1230
f 429 1230 432
f 432 1230 1233
f 432 1233 431
f 431 1233 1232
f 431 1232 434
f 434 1232 1235
f 434 1235 433
f 433 1235 1234
f 433 1234 436
f 436 1234 1237
f 436 1237 435
f 435 1237 1236
f 435 1236 541
f 541 1236 1342
f 541 1342 736
f 736 1342 1537
f 736 1537 745
f 745 1537 1546
f 745 1546 753
f 753 1546 1554
f 753 1554 759
f 759 1554 1560
f 759 1560 762
f 762 1560 1563
f 762 1563 767
f 767 1563 1568
f 767 1568 690
f 690 1568 1491
f 690 1491 673
f 673 1491 1474
f 673 1474 652
f 652 1474 1453
f 652 1453 604
f 604 1453 1405
f 604 1405 571
f 571 1405 1372
f 571 1372 438
f 438 1372 1238
f 438 1238 439
f 439 1238 1240
f 439 1240 437
f 437 1240 1239
f 437 1239 441
f 441 1239 1242
f 441 1242 440
f 440 1242 1241
f 440 1241 443
f 443 1241 1244
f 443 1244 442
f 442 1244 1243
f 442 1243 445
f 445 1243 1246
f 445 1246 444
f 444 1246 1245
f 444 1245 447
f 447 1245 1248
f 447 1248 446
f 446 1248 1247
f 446 1247 449
f 449 1247 1250
f 449 1250 448
f 448 1250 1249
f 448 1249 451
f 451 1249 1252
f 451 1252 450
f 450 1252 1251
f 450 1251 776
f 776 1251 1577
f 776 1577 778
f 778 1577 1579
f 778 1579 780
f 780 1579 1581
f 780 1581 782
f 782 1581 1583
f 782 1583 783
f 783 1583 1584
f 783 1584 785
f 785 1584 1586
f 785 1586 788
f 788 1586 1589
f 788 1589 653
f 653 1589 1454
f 653 1454 629
f 629 1454 1430
f 629 1430 605
f 605 1430 1406
f 605 1406 572
f 572 1406 1373
f 572 1373 542
f 542 1373 1343
f 542 1343 453
f 453 1343 1253
f 453 1253 454
f 454 1253 1255
f 454 1255 452
f 452 1255 1254
f 452 1254 674
f 674 1254 1475
f 674 1475 795
f 795 1475 1596
f 795 1596 796
f 796 1596 1597
f 796 1597 793
f 793 1597 1594
f 793 1594 791
f 791 1594 1592
f 791 1592 789
f 789 1592 1590
f 789 1590 786
f 786 1590 1587
f 786 1587 784
f 784 1587 1585
f 784 1585 543
f 543 1585 1344
f 543 1344 456
f 456 1344 1256
f 456 1256 457
f 457 1256 1258
f 457 1258 455
f 455 1258 1257
f 455 1257 573
f 573 1257 1374
f 573 1374 606
f 606 1374 1407
f 606 1407 630
f 630 1407 1431
f 630 1431 654
f 654 1431 1455
f 654 1455 675
f 675 1455 1476
f 675 1476 773
f 773 1476 1574
f 773 1574 771
f 771 1574 1572
f 771 1572 770
f 770 1572 1571
f 770 1571 768
f 768 1571 1569
f 768 1569 763
f 763 1569 1564
f 763 1564 760
f 760 1564 1561
f 760 1561 754
f 754 1561 1555
f 754 1555 746
f 746 1555 1547
f 746 1547 737
f 737 1547 1538
f 737 1538 730
f 730 1538 1531
f 730 1531 719
f 719 1531 1520
f 719 1520 704
f 704 1520 1505
f 704 1505 691
f 691 1505 1492
f 691 1492 676
f 676 1492 1477
f 676 1477 631
f 631 1477 1432
f 631 1432 607
f 607 1432 1408
f 607 1408 574
f 574 1408 1375
f 574 1375 459
f 459 1375 1259
f 459 1259 460
f 460 1259 1261
f 460 1261 458
f 458 1261 1260
f 458 1260 462
f 462 1260 1263
f 462 1263 461
f 461 1263 1262
f 461 1262 464
f 464 1262 1265
f 464 1265 463
f 463 1265 1264
f 463 1264 466
f 466 1264 1267
f 466 1267 465
f 465 1267 1266
f 465 1266 468
f 468 1266 1269
f 468 1269 467
f 467 1269 1268
f 467 1268 470
f 470 1268 1271
f 470 1271 469
f 469 1271 1270
f 469 1270 472
f 472 1270 1272
f 472 1272 473
f 473 1272 1274
f 473 1274 471
f 471 1274 1273
f 471 1273 544
f 544 1273 1345
f 544 1345 475
f 475 1345 1275
f 475 1275 476
f 476 1275 1277
f 476 1277 474
f 474 1277 1276
f 474 1276 478
f 478 1276 1279
f 478 1279 477
f 477 1279 1278
f 477 1278 480
f 480 1278 1281
f 480 1281 479
f 479 1281 1280
f 479 1280 482
f 482 1280 1283
f 482 1283 481
f 481 1283 1282
f 481 1282 484
f 484 1282 1285
f 484 1285 483
f 483 1285 1284
f 483 1284 486
f 486 1284 1286
f 486 1286 487
f 487 1286 1288
f 487 1288 485
f 485 1288 1287
f 485 1287 775
f 775 1287 1576
f 775 1576 774
f 774 1576 1575
f 774 1575 772
f 772 1575 1573
f 772 1573 764
f 764 1573 1565
f 764 1565 692
f 692 1565 1493
f 692 1493 655
f 655 1493 1456
f 655 1456 632
f 632 1456 1433
f 632 1433 608
f 608 1433 1409
f 608 1409 575
f 575 1409 1376
f 575 1376 489
f 489 1376 1289
f 489 1289 490
f 490 1289 1291
f 490 1291 488
f 488 1291 1290
f 488 1290 492
f 492 1290 1293
f 492 1293 491
f 491 1293 1292
f 491 1292 494
f 494 1292 1295
f 494 1295 493
f 493 1295 1294
f 493 1294 496
f 496 1294 1297
f 496 1297 495
f 495 1297 1296
f 495 1296 498
f 498 1296 1299
f 498 1299 497
f 497 1299 1298
f 497 1298 500
f 500 1298 1301
f 500 1301 499
f 499 1301 1300
f 499 1300 502
f 502 1300 1303
f 502 1303 501
f 501 1303 1302
f 501 1302 504
f 504 1302 1305
f 504 1305 503
f 503 1305 1304
f 503 1304 506
f 506 1304 1307
f 506 1307 505
f 505 1307 1306
f 505 1306 508
f 508 1306 1308
f 508 1308 509
f 509 1308 1310
f 509 1310 507
f 507 1310 1309
f 507 1309 656
f 656 1309 1457
f 656 1457 705
f 705 1457 1506
f 705 1506 720
f 720 1506 1521
f 720 1521 693
f 693 1521 1494
f 693 1494 657
f 657 1494 1458
f 657 1458 633
f 633 1458 1434
f 633 1434 609
f 609 1434 1410
f 609 1410 576
f 576 1410 1377
f 576 1377 545
f 545 1377 1346
f 545 1346 511
f 511 1346 1311
f 511 1311 512
f 512 1311 1313
f 512 1313 510
f 510 1313 1312
f 510 1312 514
f 514 1312 1315
f 514 1315 513
f 513 1315 1314
f 513 1314 516
f 516 1314 1317
f 516 1317 515
f 515 1317 1316
f 515 1316 518
f 518 1316 1319
f 518 1319 517
f 517 1319 1318
f 517 1318 546
f 546 1318 1347
f 546 1347 577
f 577 1347 1378
f 577 1378 547
f 547 1378 1348
f 547 1348 519
f 519 1348 1320
f 519 1320 2
f 2 1320 802
f 2 802 3
f 3 802 804
