o 
v 48.46 0 -0.17
v 49.125 0 -0.09
v 48.77 0 -0.128
v 47.12 0 -0.45
v 47.696 0 -0.299
v 46.393 0 -0.894
v 46.697 0 -0.641
v 46 0 -1.66
v 46.173 0 -1.227
v 45.809 0 -2.678
v 45.849 0 -2.223
v 46.124 0 -3.402
v 45.895 0 -3.059
v 47.08 0 -4.12
v 46.514 0 -3.744
v 48.526 0 -18.395
v 50.58 0 -12.38
v 48.96 0 -17.1
v 47.754 0 -20.777
v 48.118 0 -19.64
v 47.231 0 -22.5
v 47.452 0 -21.75
v 46.987 0 -23.946
v 47.11 0 -22.97
v 46.875 0 -26.82
v 46.908 0 -25.304
v 46.95 0 -29.427
v 46.889 0 -28.269
v 47.121 0 -30.234
v 47.06 0 -30.07
v 46.898 0 -31.927
v 47.063 0 -31.201
v 46.97 0 -31.59
v 46.779 0 -32.729
v 46.833 0 -32.314
v 46.71 0 -33.554
v 46.737 0 -33.149
v 45.849 0 -38.153
v 46.359 0 -36.257
v 46.2 0 -36.82
v 45.34 0 -41.15
v 45.561 0 -39.612
v 45.124 0 -44.28
v 45.193 0 -42.721
v 45.179 0 -46.726
v 45.14 0 -45.78
v 45.325 0 -48.169
v 45.235 0 -47.49
v 45.671 0 -49.661
v 45.465 0 -48.86
v 46.485 0 -52.458
v 45.96 0 -50.67
v 47.381 0 -55.294
v 46.956 0 -53.99
v 48.134 0 -57.326
v 47.771 0 -56.397
v 49.07 0 -59.4
v 48.48 0 -58.11
v 47.024 0 -64.314
v 47.28 0 -64.95
v 47.158 0 -64.608
v 46.683 0 -63.809
v 46.869 0 -64.053
v 46.18 0 -63.32
v 46.457 0 -63.57
v 44.799 0 -61.229
v 45.27 0 -62.2
v 45.107 0 -61.786
v 43.931 0 -59.961
v 44.391 0 -60.597
v 43.04 0 -58.95
v 43.466 0 -59.389
v 42.601 0 -58.587
v 42.809 0 -58.745
v 42.213 0 -58.396
v 42.405 0 -58.472
v 41.8 0 -58.34
v 42.014 0 -58.353
v 41.066 0 -56.906
v 40.9 0 -57.08
v 41.004 0 -56.997
v 41.058 0 -56.611
v 41.084 0 -56.784
v 40.87 0 -56.03
v 40.987 0 -56.367
v 40.323 0 -55.059
v 40.624 0 -55.47
v 39.43 0 -54.618
v 39.936 0 -54.78
v 37.93 0 -54.58
v 38.772 0 -54.557
v 35.666 0 -53.568
v 36.48 0 -54.68
v 35.91 0 -53.89
v 35.305 0 -53.217
v 35.475 0 -53.35
v 34.904 0 -53.14
v 35.125 0 -53.154
v 33.9 0 -53.23
v 34.61 0 -53.16
v 31.961 0 -49.283
v 31.76 0 -49.697
v 31.9 0 -49.42
v 31.905 0 -48.917
v 31.966 0 -49.123
v 31.543 0 -48.266
v 31.767 0 -48.64
v 30.099 0 -45.68
v 30.304 0 -46.129
v 30.24 0 -45.94
v 29.235 0 -44.581
v 29.762 0 -45.224
v 27.637 0 -42.766
v 28.524 0 -43.759
v 25.64 0 -40.585
v 26.58 0 -41.61
v 24.048 0 -38.886
v 24.784 0 -39.665
v 23.075 0 -37.897
v 23.466 0 -38.285
v 22.873 0 -37.779
v 22.91 0 -37.76
v 22.79 0 -37.916
v 22.832 0 -37.833
v 22.707 0 -38.15
v 22.748 0 -38.024
v 22.615 0 -38.504
v 22.67 0 -38.29
v 19.84 0 -41.09
v 21.68 0 -38.69
v 20.8 0 -38.57
v 19.351 0 -42.366
v 19.581 0 -41.756
v 19.009 0 -43.317
v 19.157 0 -42.895
v 18.88 0 -43.74
v 18.914 0 -43.608
v 19.184 0 -44.185
v 18.96 0 -43.874
v 19.982 0 -45.228
v 19.532 0 -44.646
v 21.1 0 -46.64
v 20.512 0 -45.902
v 22.396 0 -48.207
v 21.806 0 -47.508
v 23.244 0 -49.119
v 22.874 0 -48.743
v 23.68 0 -49.42
v 23.512 0 -49.343
v 25.432 0 -51.113
v 24.81 0 -50.38
v 25.079 0 -50.698
v 26.294 0 -52.121
v 25.845 0 -51.596
v 27.21 0 -53.18
v 26.757 0 -52.658
v 28.956 0 -55.584
v 28.732 0 -55.151
v 28.78 0 -55.29
v 30.224 0 -57.245
v 29.453 0 -56.256
v 32.395 0 -59.933
v 31.22 0 -58.491
v 35.734 0 -63.953
v 33.7 0 -61.51
v 38.051 0 -66.64
v 37.139 0 -65.613
v 38.945 0 -67.393
v 38.607 0 -67.183
v 39.438 0 -67.418
v 39.2 0 -67.42
v 43.393 0 -71.769
v 43.26 0 -71.31
v 43.312 0 -71.512
v 43.627 0 -72.378
v 43.5 0 -72.063
v 43.92 0 -73.01
v 43.768 0 -72.699
v 45.502 0 -79.37
v 44.93 0 -76.56
v 45.243 0 -78.195
v 46.031 0 -80.804
v 45.75 0 -80.2
v 46.87 0 -81.8
v 46.39 0 -81.298
v 48.438 0 -82.997
v 47.646 0 -82.479
v 50.275 0 -83.62
v 49.298 0 -83.371
v 52.79 0 -83.81
v 51.422 0 -83.76
v 54.825 0 -85.986
v 54.8 0 -85.46
v 54.806 0 -85.758
v 54.905 0 -86.261
v 54.857 0 -86.151
v 55.05 0 -86.34
v 54.969 0 -86.321
v 53.471 0 -89.877
v 54.58 0 -88.43
v 53.945 0 -89.213
v 52.905 0 -91.063
v 53.134 0 -90.476
v 52.67 0 -92.41
v 52.759 0 -91.689
v 52.717 0 -94.104
v 52.648 0 -93.285
v 53.16 0 -95.666
v 52.885 0 -94.89
v 54.06 0 -97.28
v 53.549 0 -96.455
v 54.643 0 -98.075
v 54.362 0 -97.715
v 55.244 0 -98.665
v 54.929 0 -98.384
v 56.06 0 -99.24
v 55.613 0 -98.943
v 56.962 0 -99.761
v 56.57 0 -99.55
v 57.638 0 -99.965
v 57.298 0 -99.894
v 58.58 0 -100
v 58.045 0 -99.994
v 59.859 0 -99.89
v 59.275 0 -99.976
v 60.871 0 -99.453
v 60.376 0 -99.723
v 61.97 0 -98.53
v 61.388 0 -99.063
v 63.411 0 -96.729
v 62.738 0 -97.692
v 64.389 0 -94.598
v 63.967 0 -95.683
v 64.75 0 -92.49
v 64.657 0 -93.519
v 64.68 0 -91.819
v 64.736 0 -92.14
v 64.366 0 -91.068
v 64.564 0 -91.478
v 63.65 0 -89.85
v 64.068 0 -90.541
v 69.55 0 -85.287
v 67.373 0 -85.475
v 68.07 0 -85.43
v 72.011 0 -84.619
v 70.856 0 -85.021
v 73.969 0 -83.36
v 73.041 0 -84.069
v 75.257 0 -81.892
v 74.82 0 -82.48
v 75.906 0 -80.589
v 75.622 0 -81.254
v 76.199 0 -79.269
v 76.101 0 -79.919
v 76.168 0 -78.421
v 76.19 0 -78.66
v 77.209 0 -77.046
v 76.474 0 -77.776
v 76.69 0 -77.6
v 78.206 0 -75.251
v 77.731 0 -76.223
v 78.807 0 -73.34
v 78.582 0 -74.25
v 78.795 0 -72.377
v 78.83 0 -72.64
v 80.326 0 -69.92
v 79.228 0 -71.408
v 79.56 0 -71.02
v 81.085 0 -66.938
v 80.831 0 -68.616
v 80.884 0 -61.775
v 81.099 0 -64.714
v 80.255 0 -56.451
v 80.45 0 -57.95
v 79.893 0 -53.895
v 80.067 0 -55.082
v 79.616 0 -52.285
v 79.74 0 -52.945
v 79.445 0 -51.824
v 79.53 0 -51.97
v 79.179 0 -51.436
v 79.325 0 -51.642
v 78.843 0 -50.999
v 79.015 0 -51.218
v 78.45 0 -50.55
v 78.67 0 -50.79
v 78.076 0 -50.232
v 78.255 0 -50.366
v 77.732 0 -50.095
v 77.905 0 -50.144
v 73.45 0 -50.6
v 76.22 0 -49.66
v 75.39 0 -49.23
v 72.452 0 -51.299
v 72.927 0 -50.962
v 71.721 0 -51.834
v 72.044 0 -51.595
v 71.41 0 -52.08
v 71.503 0 -52.001
v 71.4 0 -52.234
v 71.4 0 -52.137
v 71.433 0 -52.519
v 71.411 0 -52.364
v 71.51 0 -52.88
v 71.466 0 -52.694
v 72.413 0 -54.221
v 71.812 0 -53.447
v 74.003 0 -55.865
v 73.186 0 -55.071
v 75.26 0 -56.76
v 74.737 0 -56.472
v 75.561 0 -57.772
v 75.791 0 -57.442
v 75.65 0 -57.63
v 75.42 0 -58.276
v 75.485 0 -57.985
v 75.319 0 -59.13
v 75.365 0 -58.655
v 74.516 0 -62.628
v 74.77 0 -62.14
v 74.65 0 -62.357
v 74.234 0 -63.262
v 74.375 0 -62.935
v 73.98 0 -63.91
v 74.1 0 -63.593
v 73.728 0 -64.684
v 73.83 0 -64.333
v 73.649 0 -65.3
v 73.669 0 -64.995
v 73.71 0 -66.02
v 73.664 0 -65.63
v 73.792 0 -66.577
v 73.749 0 -66.301
v 73.878 0 -67.063
v 73.836 0 -66.835
v 73.94 0 -67.38
v 73.914 0 -67.249
v 73.254 0 -68.227
v 73.667 0 -67.945
v 73.47 0 -68.07
v 72.817 0 -68.715
v 73.04 0 -68.438
v 72.308 0 -69.523
v 72.577 0 -69.072
v 71.761 0 -70.529
v 72 0 -70.08
v 69.31 0 -69.024
v 69.518 0 -69.8
v 69.41 0 -69.39
v 68.993 0 -68.146
v 69.167 0 -68.601
v 68.588 0 -67.232
v 68.796 0 -67.682
v 67.65 0 -65.46
v 68.38 0 -66.82
v 68.068 0 -62.386
v 67.96 0 -63.2
v 69.348 0 -58.309
v 68.629 0 -60.108
v 68.85 0 -59.59
v 70.244 0 -55.188
v 69.813 0 -56.843
v 71.003 0 -51.286
v 70.64 0 -53.337
v 71.576 0 -46.812
v 71.33 0 -49.03
v 71.577 0 -43.107
v 71.663 0 -44.885
v 70.826 0 -39.436
v 71.303 0 -41.338
v 69.719 0 -36.051
v 70.13 0 -37.26
v 69.313 0 -26.45
v 68.56 0 -28.67
v 69.02 0 -27.36
v 69.74 0 -24.895
v 69.553 0 -25.63
v 69.953 0 -23.673
v 69.873 0 -24.244
v 69.959 0 -22.719
v 69.98 0 -23.18
v 69.724 0 -20.965
v 69.882 0 -22.028
v 69.071 0 -17.145
v 69.461 0 -19.385
v 72.254 0 -3.542
v 70.655 0 -4.699
v 71.58 0 -4.03
v 72.929 0 -2.774
v 72.697 0 -3.141
v 72.827 0 -1.922
v 72.966 0 -2.386
v 72.321 0 -0.962
v 72.53 0 -1.33
v 71.969 0 -0.518
v 72.145 0 -0.699
v 71.493 0 -0.293
v 71.762 0 -0.391
v 70.843 0 -0.144
v 71.13 0 -0.2
v 70.081 0 -0.055
v 70.486 0 -0.095
v 69.216 0 -0.006
v 69.651 0 -0.025
v 68.008 0 -0.026
v 68.8 0 0
v 66.754 0 -0.341
v 67.35 0 -0.128
v 65.443 0 -1.247
v 66.143 0 -0.702
v 64.207 0 -2.348
v 64.58 0 -2.01
v 62.959 0 -3.518
v 63.108 0 -3.315
v 63.01 0 -3.39
v 62.91 0 -4.354
v 62.926 0 -3.838
v 62.928 0 -5.999
v 62.911 0 -5.072
v 63.08 0 -10.76
v 62.96 0 -7.14
v 61.695 0 -15.362
v 62.24 0 -13.51
v 60.909 0 -18.449
v 61.254 0 -16.994
v 60.466 0 -20.986
v 60.649 0 -19.766
v 60.302 0 -22.93
v 60.35 0 -22.15
v 60.29 0 -23.924
v 60.281 0 -23.504
v 60.411 0 -24.501
v 60.332 0 -24.239
v 60.094 0 -30.101
v 60.25 0 -29.57
v 60.164 0 -29.789
v 59.996 0 -31.055
v 60.039 0 -30.52
v 59.94 0 -32.52
v 59.964 0 -31.718
v 58.87 0 -40.026
v 59.29 0 -37.88
v 59.04 0 -39.085
v 58.707 0 -41.751
v 58.764 0 -40.861
v 58.68 0 -44.33
v 58.684 0 -42.854
v 58.135 0 -44.297
v 58.188 0 -45.732
v 58.17 0 -45.02
v 57.855 0 -42.361
v 58.03 0 -43.41
v 57.295 0 -39.789
v 57.61 0 -41.153
v 56.286 0 -33.273
v 56.32 0 -34.37
v 56.312 0 -33.776
v 56.154 0 -32.407
v 56.235 0 -32.827
v 55.88 0 -31.51
v 56.038 0 -31.979
v 56.7 0 -25.01
v 56.27 0 -26.01
v 56.527 0 -25.455
v 56.86 0 -24.103
v 56.805 0 -24.589
v 56.89 0 -22.59
v 56.883 0 -23.466
v 56.853 0 -21.035
v 56.883 0 -21.734
v 56.657 0 -19.698
v 56.783 0 -20.391
v 56.18 0 -17.75
v 56.462 0 -18.852
v 56.317 0 -9.184
v 55.98 0 -10.16
v 56.178 0 -9.632
v 56.46 0 -8.259
v 56.408 0 -8.749
v 56.49 0 -6.85
v 56.484 0 -7.649
v 55.22 0 -4.29
v 56.49 0 -4.86
v 52.79 0 -0.69
v 53.96 0 -3.71
v 53.96 0 -1.42
v 51.959 0 -0.222
v 52.325 0 -0.415
v 51.341 0 -0.028
v 51.646 0 -0.098
v 50.57 0 0
v 50.998 0 0
v 49.885 0 -0.033
v 50.248 0 -0.013
v 49.504 0 -0.059
v 47.499 0 -4.389
v 46.7 0 -33.92
v 47.447 0 -65.391
v 45.331 0 -62.341
v 31.22 0 -47.77
v 30.421 0 -46.386
v 22.047 0 -38.734
v 23.801 0 -49.452
v 43.193 0 -71.063
v 44.765 0 -75.735
v 53.501 0 -83.84
v 55.131 0 -86.356
v 54.829 0 -88.122
v 79.002 0 -71.704
v 77.55 0 -50.08
v 76.456 0 -49.771
v 75.519 0 -56.84
v 75.28 0 -59.71
v 63.857 0 -2.661
v 63.293 0 -3.159
v 60.319 0 -29.374
v 59.508 0 -36.795
v 56.91 0 -38.27
v 56.331 0 -34.989
v 56.045 0 -26.508
v 55.916 0 -16.696
v 55.789 0 -10.683
v 47.124 0 -30.885
v 46.687 0 -34.358
v 46.485 0 -35.739
v 40.694 0 -57.33
v 22.297 0 -38.749
v 23.957 0 -49.542
v 28.577 0 -54.899
v 54.764 0 -84.876
v 63.357 0 -89.358
v 66.761 0 -85.531
v 76.323 0 -77.928
v 78.801 0 -72.156
v 77.389 0 -50.065
v 76.705 0 -49.871
v 75.706 0 -56.954
v 74.91 0 -61.868
v 73.81 0 -67.836
v 71.54 0 -70.936
v 68.45 0 -60.608
v 68.53 0 -14.1
v 69.919 0 -5.3
v 63.548 0 -2.936
v 60.53 0 -24.76
v 58.23 0 -46.401
v 56.703 0 -37.434
v 47.847 0 -4.649
v 47.652 0 -65.8
v 45.439 0 -62.515
v 41.369 0 -58.278
v 31.72 0 -49.98
v 30.58 0 -46.694
v 22.456 0 -38.722
v 27.633 0 -53.673
v 44.11 0 -73.431
v 44.606 0 -75.029
v 54.031 0 -83.942
v 55.018 0 -87.857
v 63.094 0 -88.896
v 66.219 0 -85.601
v 78.865 0 -71.942
v 77.185 0 -50.022
v 76.952 0 -49.956
v 75.844 0 -57.262
v 73.964 0 -67.513
v 69.637 0 -70.15
v 60.394 0 -29.07
v 59.67 0 -35.881
v 56.369 0 -35.559
v 55.875 0 -26.944
v 55.725 0 -15.865
v 55.652 0 -11.13
v 47.152 0 -30.415
v 46.648 0 -34.801
v 46.581 0 -35.257
v 45.965 0 -63.125
v 40.66 0 -57.607
v 31.792 0 -50.303
v 30.773 0 -47.038
v 22.553 0 -38.645
v 28.333 0 -54.554
v 44.447 0 -74.421
v 55.195 0 -86.405
v 55.155 0 -87.622
v 76.226 0 -78.074
v 75.236 0 -60.332
v 75.022 0 -61.577
v 73.904 0 -67.732
v 68.304 0 -61.129
v 68.271 0 -12.555
v 69.351 0 -5.853
v 60.652 0 -25.031
v 60.471 0 -28.683
v 59.784 0 -35.069
v 58.29 0 -46.99
v 55.714 0 -31.017
v 55.75 0 -27.355
v 55.596 0 -15.18
v 55.56 0 -11.554
v 47.154 0 -30.628
v 45.764 0 -62.919
v 45.586 0 -62.711
v 40.776 0 -57.879
v 30.989 0 -47.402
v 24.144 0 -49.686
v 28.013 0 -54.138
v 44.284 0 -73.895
v 55.244 0 -86.488
v 65.729 0 -85.689
v 75.815 0 -57.097
v 75.181 0 -60.833
v 71.348 0 -71.285
v 68.18 0 -61.709
v 68.115 0 -11.381
v 68.935 0 -6.377
v 60.731 0 -25.29
v 60.546 0 -28.233
v 58.674 0 -45.274
v 58.363 0 -47.459
v 56.439 0 -36.125
v 47.891 0 -66.169
v 54.639 0 -84.441
v 55.245 0 -87.403
v 65.274 0 -85.798
v 76.177 0 -78.232
v 75.111 0 -61.24
v 71.193 0 -71.561
v 68.059 0 -10.43
v 68.651 0 -6.893
v 60.769 0 -25.588
v 59.909 0 -33.459
v 58.659 0 -46.124
v 56.548 0 -36.734
v 55.601 0 -30.605
v 55.662 0 -27.776
v 48.153 0 -4.931
v 41.02 0 -58.113
v 31.99 0 -50.696
v 24.353 0 -49.878
v 55.295 0 -87.183
v 64.84 0 -85.93
v 71.088 0 -71.748
v 60.769 0 -25.977
v 60.613 0 -27.745
v 58.635 0 -46.844
v 55.536 0 -30.225
v 55.601 0 -28.242
v 55.504 0 -12.01
v 55.31 0 -86.95
v 64.244 0 -86.178
v 73.954 0 -67.628
v 71.04 0 -71.83
v 68.48 0 -7.42
v 60.735 0 -26.51
v 59.86 0 -34.285
v 55.56 0 -28.79
v 55.477 0 -12.554
v 49.05 0 -63.25
v 48.158 0 -66.49
v 32.325 0 -51.195
v 39.673 0 -67.484
v 43.058 0 -70.794
v 55.3 0 -86.759
v 63.702 0 -86.47
v 69.426 0 -35.117
v 68.243 0 -8.598
v 60.67 0 -27.24
v 55.522 0 -29.366
v 55.47 0 -13.24
v 49.038 0 -64.764
v 32.81 0 -51.83
v 24.577 0 -50.111
v 42.836 0 -70.481
v 55.278 0 -86.605
v 69.221 0 -34.326
v 68.102 0 -9.552
v 58.604 0 -47.4
v 55.512 0 -29.829
v 48.447 0 -5.267
v 49.019 0 -65.816
v 39.947 0 -67.647
v 54.403 0 -84.136
v 69.074 0 -33.546
v 55.519 0 -14.565
v 55.48 0 -13.944
v 40.307 0 -67.939
v 68.953 0 -32.644
v 58.569 0 -47.757
v 48.759 0 -5.69
v 48.446 0 -66.756
v 40.797 0 -68.39
v 63.239 0 -86.79
v 68.83 0 -31.49
v 49.12 0 -6.23
v 41.46 0 -69.03
v 62.878 0 -87.12
v 49.732 0 -7.186
v 42.509 0 -70.099
v 62.643 0 -87.442
v 50.145 0 -7.893
v 48.75 0 -66.96
v 42.057 0 -69.623
v 50.397 0 -8.466
v 48.858 0 -66.98
v 70.995 0 -71.829
v 69.772 0 -70.454
v 70.914 0 -71.781
v 58.53 0 -47.88
v 48.934 0 -66.847
v 70.801 0 -71.692
v 58.445 0 -47.768
v 50.528 0 -9.024
v 48.986 0 -66.485
v 70.663 0 -71.569
v 70.504 0 -71.416
v 70.33 0 -71.24
v 50.576 0 -9.683
v 62.873 0 -88.484
v 70.113 0 -70.984
v 50.58 0 -10.56
v 62.703 0 -88.14
v 69.929 0 -70.727
v 62.595 0 -87.886
v 62.56 0 -87.74
v 49.125 10 -0.09
v 48.46 10 -0.17
v 48.77 10 -0.128
v 47.12 10 -0.45
v 47.696 10 -0.299
v 46.393 10 -0.894
v 46.697 10 -0.641
v 46 10 -1.66
v 46.173 10 -1.227
v 45.809 10 -2.678
v 45.849 10 -2.223
v 46.124 10 -3.402
v 45.895 10 -3.059
v 47.08 10 -4.12
v 46.514 10 -3.744
v 50.58 10 -12.38
v 48.526 10 -18.395
v 48.96 10 -17.1
v 47.754 10 -20.777
v 48.118 10 -19.64
v 47.231 10 -22.5
v 47.452 10 -21.75
v 46.987 10 -23.946
v 47.11 10 -22.97
v 46.875 10 -26.82
v 46.908 10 -25.304
v 46.95 10 -29.427
v 46.889 10 -28.269
v 47.121 10 -30.234
v 47.06 10 -30.07
v 47.063 10 -31.201
v 46.898 10 -31.927
v 46.97 10 -31.59
v 46.779 10 -32.729
v 46.833 10 -32.314
v 46.71 10 -33.554
v 46.737 10 -33.149
v 46.359 10 -36.257
v 45.849 10 -38.153
v 46.2 10 -36.82
v 45.34 10 -41.15
v 45.561 10 -39.612
v 45.124 10 -44.28
v 45.193 10 -42.721
v 45.179 10 -46.726
v 45.14 10 -45.78
v 45.325 10 -48.169
v 45.235 10 -47.49
v 45.671 10 -49.661
v 45.465 10 -48.86
v 46.485 10 -52.458
v 45.96 10 -50.67
v 47.381 10 -55.294
v 46.956 10 -53.99
v 48.134 10 -57.326
v 47.771 10 -56.397
v 49.07 10 -59.4
v 48.48 10 -58.11
v 47.28 10 -64.95
v 47.024 10 -64.314
v 47.158 10 -64.608
v 46.683 10 -63.809
v 46.869 10 -64.053
v 46.18 10 -63.32
v 46.457 10 -63.57
v 45.27 10 -62.2
v 44.799 10 -61.229
v 45.107 10 -61.786
v 43.931 10 -59.961
v 44.391 10 -60.597
v 43.04 10 -58.95
v 43.466 10 -59.389
v 42.601 10 -58.587
v 42.809 10 -58.745
v 42.213 10 -58.396
v 42.405 10 -58.472
v 41.8 10 -58.34
v 42.014 10 -58.353
v 40.9 10 -57.08
v 41.066 10 -56.906
v 41.004 10 -56.997
v 41.058 10 -56.611
v 41.084 10 -56.784
v 40.87 10 -56.03
v 40.987 10 -56.367
v 40.323 10 -55.059
v 40.624 10 -55.47
v 39.43 10 -54.618
v 39.936 10 -54.78
v 37.93 10 -54.58
v 38.772 10 -54.557
v 36.48 10 -54.68
v 35.666 10 -53.568
v 35.91 10 -53.89
v 35.305 10 -53.217
v 35.475 10 -53.35
v 34.904 10 -53.14
v 35.125 10 -53.154
v 33.9 10 -53.23
v 34.61 10 -53.16
v 31.76 10 -49.697
v 31.961 10 -49.283
v 31.9 10 -49.42
v 31.905 10 -48.917
v 31.966 10 -49.123
v 31.543 10 -48.266
v 31.767 10 -48.64
v 30.304 10 -46.129
v 30.099 10 -45.68
v 30.24 10 -45.94
v 29.235 10 -44.581
v 29.762 10 -45.224
v 27.637 10 -42.766
v 28.524 10 -43.759
v 25.64 10 -40.585
v 26.58 10 -41.61
v 24.048 10 -38.886
v 24.784 10 -39.665
v 23.075 10 -37.897
v 23.466 10 -38.285
v 22.873 10 -37.779
v 22.91 10 -37.76
v 22.79 10 -37.916
v 22.832 10 -37.833
v 22.707 10 -38.15
v 22.748 10 -38.024
v 22.615 10 -38.504
v 22.67 10 -38.29
v 21.68 10 -38.69
v 19.84 10 -41.09
v 20.8 10 -38.57
v 19.351 10 -42.366
v 19.581 10 -41.756
v 19.009 10 -43.317
v 19.157 10 -42.895
v 18.88 10 -43.74
v 18.914 10 -43.608
v 19.184 10 -44.185
v 18.96 10 -43.874
v 19.982 10 -45.228
v 19.532 10 -44.646
v 21.1 10 -46.64
v 20.512 10 -45.902
v 22.396 10 -48.207
v 21.806 10 -47.508
v 23.244 10 -49.119
v 22.874 10 -48.743
v 23.68 10 -49.42
v 23.512 10 -49.343
v 24.81 10 -50.38
v 25.432 10 -51.113
v 25.079 10 -50.698
v 26.294 10 -52.121
v 25.845 10 -51.596
v 27.21 10 -53.18
v 26.757 10 -52.658
v 28.732 10 -55.151
v 28.956 10 -55.584
v 28.78 10 -55.29
v 30.224 10 -57.245
v 29.453 10 -56.256
v 32.395 10 -59.933
v 31.22 10 -58.491
v 35.734 10 -63.953
v 33.7 10 -61.51
v 38.051 10 -66.64
v 37.139 10 -65.613
v 38.945 10 -67.393
v 38.607 10 -67.183
v 39.438 10 -67.418
v 39.2 10 -67.42
v 43.26 10 -71.31
v 43.393 10 -71.769
v 43.312 10 -71.512
v 43.627 10 -72.378
v 43.5 10 -72.063
v 43.92 10 -73.01
v 43.768 10 -72.699
v 44.93 10 -76.56
v 45.502 10 -79.37
v 45.243 10 -78.195
v 46.031 10 -80.804
v 45.75 10 -80.2
v 46.87 10 -81.8
v 46.39 10 -81.298
v 48.438 10 -82.997
v 47.646 10 -82.479
v 50.275 10 -83.62
v 49.298 10 -83.371
v 52.79 10 -83.81
v 51.422 10 -83.76
v 54.8 10 -85.46
v 54.825 10 -85.986
v 54.806 10 -85.758
v 54.905 10 -86.261
v 54.857 10 -86.151
v 55.05 10 -86.34
v 54.969 10 -86.321
v 54.58 10 -88.43
v 53.471 10 -89.877
v 53.945 10 -89.213
v 52.905 10 -91.063
v 53.134 10 -90.476
v 52.67 10 -92.41
v 52.759 10 -91.689
v 52.717 10 -94.104
v 52.648 10 -93.285
v 53.16 10 -95.666
v 52.885 10 -94.89
v 54.06 10 -97.28
v 53.549 10 -96.455
v 54.643 10 -98.075
v 54.362 10 -97.715
v 55.244 10 -98.665
v 54.929 10 -98.384
v 56.06 10 -99.24
v 55.613 10 -98.943
v 56.962 10 -99.761
v 56.57 10 -99.55
v 57.638 10 -99.965
v 57.298 10 -99.894
v 58.58 10 -100
v 58.045 10 -99.994
v 59.859 10 -99.89
v 59.275 10 -99.976
v 60.871 10 -99.453
v 60.376 10 -99.723
v 61.97 10 -98.53
v 61.388 10 -99.063
v 63.411 10 -96.729
v 62.738 10 -97.692
v 64.389 10 -94.598
v 63.967 10 -95.683
v 64.75 10 -92.49
v 64.657 10 -93.519
v 64.68 10 -91.819
v 64.736 10 -92.14
v 64.366 10 -91.068
v 64.564 10 -91.478
v 63.65 10 -89.85
v 64.068 10 -90.541
v 67.373 10 -85.475
v 69.55 10 -85.287
v 68.07 10 -85.43
v 72.011 10 -84.619
v 70.856 10 -85.021
v 73.969 10 -83.36
v 73.041 10 -84.069
v 75.257 10 -81.892
v 74.82 10 -82.48
v 75.906 10 -80.589
v 75.622 10 -81.254
v 76.199 10 -79.269
v 76.101 10 -79.919
v 76.168 10 -78.421
v 76.19 10 -78.66
v 76.474 10 -77.776
v 77.209 10 -77.046
v 76.69 10 -77.6
v 78.206 10 -75.251
v 77.731 10 -76.223
v 78.807 10 -73.34
v 78.582 10 -74.25
v 78.795 10 -72.377
v 78.83 10 -72.64
v 79.228 10 -71.408
v 80.326 10 -69.92
v 79.56 10 -71.02
v 81.085 10 -66.938
v 80.831 10 -68.616
v 80.884 10 -61.775
v 81.099 10 -64.714
v 80.255 10 -56.451
v 80.45 10 -57.95
v 79.893 10 -53.895
v 80.067 10 -55.082
v 79.616 10 -52.285
v 79.74 10 -52.945
v 79.445 10 -51.824
v 79.53 10 -51.97
v 79.179 10 -51.436
v 79.325 10 -51.642
v 78.843 10 -50.999
v 79.015 10 -51.218
v 78.45 10 -50.55
v 78.67 10 -50.79
v 78.076 10 -50.232
v 78.255 10 -50.366
v 77.732 10 -50.095
v 77.905 10 -50.144
v 76.22 10 -49.66
v 73.45 10 -50.6
v 75.39 10 -49.23
v 72.452 10 -51.299
v 72.927 10 -50.962
v 71.721 10 -51.834
v 72.044 10 -51.595
v 71.41 10 -52.08
v 71.503 10 -52.001
v 71.4 10 -52.234
v 71.4 10 -52.137
v 71.433 10 -52.519
v 71.411 10 -52.364
v 71.51 10 -52.88
v 71.466 10 -52.694
v 72.413 10 -54.221
v 71.812 10 -53.447
v 74.003 10 -55.865
v 73.186 10 -55.071
v 75.26 10 -56.76
v 74.737 10 -56.472
v 75.791 10 -57.442
v 75.561 10 -57.772
v 75.65 10 -57.63
v 75.42 10 -58.276
v 75.485 10 -57.985
v 75.319 10 -59.13
v 75.365 10 -58.655
v 74.77 10 -62.14
v 74.516 10 -62.628
v 74.65 10 -62.357
v 74.234 10 -63.262
v 74.375 10 -62.935
v 73.98 10 -63.91
v 74.1 10 -63.593
v 73.728 10 -64.684
v 73.83 10 -64.333
v 73.649 10 -65.3
v 73.669 10 -64.995
v 73.71 10 -66.02
v 73.664 10 -65.63
v 73.792 10 -66.577
v 73.749 10 -66.301
v 73.878 10 -67.063
v 73.836 10 -66.835
v 73.94 10 -67.38
v 73.914 10 -67.249
v 73.667 10 -67.945
v 73.254 10 -68.227
v 73.47 10 -68.07
v 72.817 10 -68.715
v 73.04 10 -68.438
v 72.308 10 -69.523
v 72.577 10 -69.072
v 71.761 10 -70.529
v 72 10 -70.08
v 69.518 10 -69.8
v 69.31 10 -69.024
v 69.41 10 -69.39
v 68.993 10 -68.146
v 69.167 10 -68.601
v 68.588 10 -67.232
v 68.796 10 -67.682
v 67.65 10 -65.46
v 68.38 10 -66.82
v 68.068 10 -62.386
v 67.96 10 -63.2
v 68.629 10 -60.108
v 69.348 10 -58.309
v 68.85 10 -59.59
v 70.244 10 -55.188
v 69.813 10 -56.843
v 71.003 10 -51.286
v 70.64 10 -53.337
v 71.576 10 -46.812
v 71.33 10 -49.03
v 71.577 10 -43.107
v 71.663 10 -44.885
v 70.826 10 -39.436
v 71.303 10 -41.338
v 69.719 10 -36.051
v 70.13 10 -37.26
v 68.56 10 -28.67
v 69.313 10 -26.45
v 69.02 10 -27.36
v 69.74 10 -24.895
v 69.553 10 -25.63
v 69.953 10 -23.673
v 69.873 10 -24.244
v 69.959 10 -22.719
v 69.98 10 -23.18
v 69.724 10 -20.965
v 69.882 10 -22.028
v 69.071 10 -17.145
v 69.461 10 -19.385
v 70.655 10 -4.699
v 72.254 10 -3.542
v 71.58 10 -4.03
v 72.929 10 -2.774
v 72.697 10 -3.141
v 72.827 10 -1.922
v 72.966 10 -2.386
v 72.321 10 -0.962
v 72.53 10 -1.33
v 71.969 10 -0.518
v 72.145 10 -0.699
v 71.493 10 -0.293
v 71.762 10 -0.391
v 70.843 10 -0.144
v 71.13 10 -0.2
v 70.081 10 -0.055
v 70.486 10 -0.095
v 69.216 10 -0.006
v 69.651 10 -0.025
v 68.008 10 -0.026
v 68.8 10 0
v 66.754 10 -0.341
v 67.35 10 -0.128
v 65.443 10 -1.247
v 66.143 10 -0.702
v 64.207 10 -2.348
v 64.58 10 -2.01
v 63.108 10 -3.315
v 62.959 10 -3.518
v 63.01 10 -3.39
v 62.91 10 -4.354
v 62.926 10 -3.838
v 62.928 10 -5.999
v 62.911 10 -5.072
v 63.08 10 -10.76
v 62.96 10 -7.14
v 61.695 10 -15.362
v 62.24 10 -13.51
v 60.909 10 -18.449
v 61.254 10 -16.994
v 60.466 10 -20.986
v 60.649 10 -19.766
v 60.302 10 -22.93
v 60.35 10 -22.15
v 60.29 10 -23.924
v 60.281 10 -23.504
v 60.411 10 -24.501
v 60.332 10 -24.239
v 60.25 10 -29.57
v 60.094 10 -30.101
v 60.164 10 -29.789
v 59.996 10 -31.055
v 60.039 10 -30.52
v 59.94 10 -32.52
v 59.964 10 -31.718
v 59.29 10 -37.88
v 58.87 10 -40.026
v 59.04 10 -39.085
v 58.707 10 -41.751
v 58.764 10 -40.861
v 58.68 10 -44.33
v 58.684 10 -42.854
v 58.188 10 -45.732
v 58.135 10 -44.297
v 58.17 10 -45.02
v 57.855 10 -42.361
v 58.03 10 -43.41
v 57.295 10 -39.789
v 57.61 10 -41.153
v 56.32 10 -34.37
v 56.286 10 -33.273
v 56.312 10 -33.776
v 56.154 10 -32.407
v 56.235 10 -32.827
v 55.88 10 -31.51
v 56.038 10 -31.979
v 56.27 10 -26.01
v 56.7 10 -25.01
v 56.527 10 -25.455
v 56.86 10 -24.103
v 56.805 10 -24.589
v 56.89 10 -22.59
v 56.883 10 -23.466
v 56.853 10 -21.035
v 56.883 10 -21.734
v 56.657 10 -19.698
v 56.783 10 -20.391
v 56.18 10 -17.75
v 56.462 10 -18.852
v 55.98 10 -10.16
v 56.317 10 -9.184
v 56.178 10 -9.632
v 56.46 10 -8.259
v 56.408 10 -8.749
v 56.49 10 -6.85
v 56.484 10 -7.649
v 55.22 10 -4.29
v 56.49 10 -4.86
v 53.96 10 -3.71
v 52.79 10 -0.69
v 53.96 10 -1.42
v 51.959 10 -0.222
v 52.325 10 -0.415
v 51.341 10 -0.028
v 51.646 10 -0.098
v 50.57 10 0
v 50.998 10 0
v 49.885 10 -0.033
v 50.248 10 -0.013
v 49.504 10 -0.059
v 47.499 10 -4.389
v 46.7 10 -33.92
v 47.447 10 -65.391
v 45.331 10 -62.341
v 31.22 10 -47.77
v 30.421 10 -46.386
v 22.047 10 -38.734
v 23.801 10 -49.452
v 43.193 10 -71.063
v 44.765 10 -75.735
v 53.501 10 -83.84
v 55.131 10 -86.356
v 54.829 10 -88.122
v 79.002 10 -71.704
v 77.55 10 -50.08
v 76.456 10 -49.771
v 75.519 10 -56.84
v 75.28 10 -59.71
v 63.857 10 -2.661
v 63.293 10 -3.159
v 60.319 10 -29.374
v 59.508 10 -36.795
v 56.91 10 -38.27
v 56.331 10 -34.989
v 56.045 10 -26.508
v 55.916 10 -16.696
v 55.789 10 -10.683
v 47.124 10 -30.885
v 46.687 10 -34.358
v 46.485 10 -35.739
v 40.694 10 -57.33
v 22.297 10 -38.749
v 23.957 10 -49.542
v 28.577 10 -54.899
v 54.764 10 -84.876
v 63.357 10 -89.358
v 66.761 10 -85.531
v 76.323 10 -77.928
v 78.801 10 -72.156
v 77.389 10 -50.065
v 76.705 10 -49.871
v 75.706 10 -56.954
v 74.91 10 -61.868
v 73.81 10 -67.836
v 71.54 10 -70.936
v 68.45 10 -60.608
v 68.53 10 -14.1
v 69.919 10 -5.3
v 63.548 10 -2.936
v 60.53 10 -24.76
v 58.23 10 -46.401
v 56.703 10 -37.434
v 47.847 10 -4.649
v 47.652 10 -65.8
v 45.439 10 -62.515
v 41.369 10 -58.278
v 31.72 10 -49.98
v 30.58 10 -46.694
v 22.456 10 -38.722
v 27.633 10 -53.673
v 44.11 10 -73.431
v 44.606 10 -75.029
v 54.031 10 -83.942
v 55.018 10 -87.857
v 63.094 10 -88.896
v 66.219 10 -85.601
v 78.865 10 -71.942
v 77.185 10 -50.022
v 76.952 10 -49.956
v 75.844 10 -57.262
v 73.964 10 -67.513
v 69.637 10 -70.15
v 60.394 10 -29.07
v 59.67 10 -35.881
v 56.369 10 -35.559
v 55.875 10 -26.944
v 55.725 10 -15.865
v 55.652 10 -11.13
v 47.152 10 -30.415
v 46.648 10 -34.801
v 46.581 10 -35.257
v 45.965 10 -63.125
v 40.66 10 -57.607
v 31.792 10 -50.303
v 30.773 10 -47.038
v 22.553 10 -38.645
v 28.333 10 -54.554
v 44.447 10 -74.421
v 55.195 10 -86.405
v 55.155 10 -87.622
v 76.226 10 -78.074
v 75.236 10 -60.332
v 75.022 10 -61.577
v 73.904 10 -67.732
v 68.304 10 -61.129
v 68.271 10 -12.555
v 69.351 10 -5.853
v 60.652 10 -25.031
v 60.471 10 -28.683
v 59.784 10 -35.069
v 58.29 10 -46.99
v 55.714 10 -31.017
v 55.75 10 -27.355
v 55.596 10 -15.18
v 55.56 10 -11.554
v 47.154 10 -30.628
v 45.764 10 -62.919
v 45.586 10 -62.711
v 40.776 10 -57.879
v 30.989 10 -47.402
v 24.144 10 -49.686
v 28.013 10 -54.138
v 44.284 10 -73.895
v 55.244 10 -86.488
v 65.729 10 -85.689
v 75.815 10 -57.097
v 75.181 10 -60.833
v 71.348 10 -71.285
v 68.18 10 -61.709
v 68.115 10 -11.381
v 68.935 10 -6.377
v 60.731 10 -25.29
v 60.546 10 -28.233
v 58.674 10 -45.274
v 58.363 10 -47.459
v 56.439 10 -36.125
v 47.891 10 -66.169
v 54.639 10 -84.441
v 55.245 10 -87.403
v 65.274 10 -85.798
v 76.177 10 -78.232
v 75.111 10 -61.24
v 71.193 10 -71.561
v 68.059 10 -10.43
v 68.651 10 -6.893
v 60.769 10 -25.588
v 59.909 10 -33.459
v 58.659 10 -46.124
v 56.548 10 -36.734
v 55.601 10 -30.605
v 55.662 10 -27.776
v 48.153 10 -4.931
v 41.02 10 -58.113
v 31.99 10 -50.696
v 24.353 10 -49.878
v 55.295 10 -87.183
v 64.84 10 -85.93
v 71.088 10 -71.748
v 60.769 10 -25.977
v 60.613 10 -27.745
v 58.635 10 -46.844
v 55.536 10 -30.225
v 55.601 10 -28.242
v 55.504 10 -12.01
v 55.31 10 -86.95
v 64.244 10 -86.178
v 73.954 10 -67.628
v 71.04 10 -71.83
v 68.48 10 -7.42
v 60.735 10 -26.51
v 59.86 10 -34.285
v 55.56 10 -28.79
v 55.477 10 -12.554
v 49.05 10 -63.25
v 48.158 10 -66.49
v 32.325 10 -51.195
v 39.673 10 -67.484
v 43.058 10 -70.794
v 55.3 10 -86.759
v 63.702 10 -86.47
v 69.426 10 -35.117
v 68.243 10 -8.598
v 60.67 10 -27.24
v 55.522 10 -29.366
v 55.47 10 -13.24
v 49.038 10 -64.764
v 32.81 10 -51.83
v 24.577 10 -50.111
v 42.836 10 -70.481
v 55.278 10 -86.605
v 69.221 10 -34.326
v 68.102 10 -9.552
v 58.604 10 -47.4
v 55.512 10 -29.829
v 48.447 10 -5.267
v 49.019 10 -65.816
v 39.947 10 -67.647
v 54.403 10 -84.136
v 69.074 10 -33.546
v 55.519 10 -14.565
v 55.48 10 -13.944
v 40.307 10 -67.939
v 68.953 10 -32.644
v 58.569 10 -47.757
v 48.759 10 -5.69
v 48.446 10 -66.756
v 40.797 10 -68.39
v 63.239 10 -86.79
v 68.83 10 -31.49
v 49.12 10 -6.23
v 41.46 10 -69.03
v 62.878 10 -87.12
v 49.732 10 -7.186
v 42.509 10 -70.099
v 62.643 10 -87.442
v 50.145 10 -7.893
v 48.75 10 -66.96
v 42.057 10 -69.623
v 50.397 10 -8.466
v 48.858 10 -66.98
v 70.995 10 -71.829
v 69.772 10 -70.454
v 70.914 10 -71.781
v 58.53 10 -47.88
v 48.934 10 -66.847
v 70.801 10 -71.692
v 58.445 10 -47.768
v 50.528 10 -9.024
v 48.986 10 -66.485
v 70.663 10 -71.569
v 70.504 10 -71.416
v 70.33 10 -71.24
v 50.576 10 -9.683
v 62.873 10 -88.484
v 70.113 10 -70.984
v 50.58 10 -10.56
v 62.703 10 -88.14
v 69.929 10 -70.727
v 62.595 10 -87.886
v 62.56 10 -87.74
f 1 2 3
f 4 1 5
f 6 4 7
f 8 6 9
f 10 8 11
f 12 10 13
f 14 12 15
f 16 17 18
f 19 16 20
f 21 19 22
f 23 21 24
f 25 23 26
f 27 25 28
f 29 27 30
f 31 32 33
f 34 31 35
f 36 34 37
f 38 39 40
f 41 38 42
f 43 41 44
f 45 43 46
f 47 45 48
f 49 47 50
f 51 49 52
f 53 51 54
f 55 53 56
f 57 55 58
f 59 60 61
f 62 59 63
f 64 62 65
f 66 67 68
f 69 66 70
f 71 69 72
f 73 71 74
f 75 73 76
f 77 75 78
f 79 80 81
f 82 79 83
f 84 82 85
f 86 84 87
f 88 86 89
f 90 88 91
f 92 93 94
f 95 92 96
f 97 95 98
f 99 97 100
f 101 102 103
f 104 101 105
f 106 104 107
f 108 109 110
f 111 108 112
f 113 111 114
f 115 113 116
f 117 115 118
f 119 117 120
f 121 119 122
f 123 121 124
f 125 123 126
f 127 125 128
f 129 130 131
f 132 129 133
f 134 132 135
f 136 134 137
f 138 136 139
f 140 138 141
f 142 140 143
f 144 142 145
f 146 144 147
f 148 146 149
f 150 151 152
f 153 150 154
f 155 153 156
f 157 158 159
f 160 157 161
f 162 160 163
f 164 162 165
f 166 164 167
f 168 166 169
f 170 168 171
f 172 173 174
f 175 172 176
f 177 175 178
f 179 180 181
f 182 179 183
f 184 182 185
f 186 184 187
f 188 186 189
f 190 188 191
f 192 193 194
f 195 192 196
f 197 195 198
f 199 200 201
f 202 199 203
f 204 202 205
f 206 204 207
f 208 206 209
f 210 208 211
f 212 210 213
f 214 212 215
f 216 214 217
f 218 216 219
f 220 218 221
f 222 220 223
f 224 222 225
f 226 224 227
f 228 226 229
f 230 228 231
f 232 230 233
f 234 232 235
f 236 234 237
f 238 236 239
f 240 238 241
f 242 243 244
f 245 242 246
f 247 245 248
f 249 247 250
f 251 249 252
f 253 251 254
f 255 253 256
f 257 258 259
f 260 257 261
f 262 260 263
f 264 262 265
f 266 267 268
f 269 266 270
f 271 269 272
f 273 271 274
f 275 273 276
f 277 275 278
f 279 277 280
f 281 279 282
f 283 281 284
f 285 283 286
f 287 285 288
f 289 287 290
f 291 292 293
f 294 291 295
f 296 294 297
f 298 296 299
f 300 298 301
f 302 300 303
f 304 302 305
f 306 304 307
f 308 306 309
f 310 308 311
f 312 313 314
f 315 312 316
f 317 315 318
f 319 320 321
f 322 319 323
f 324 322 325
f 326 324 327
f 328 326 329
f 330 328 331
f 332 330 333
f 334 332 335
f 336 334 337
f 338 339 340
f 341 338 342
f 343 341 344
f 345 343 346
f 347 348 349
f 350 347 351
f 352 350 353
f 354 352 355
f 356 354 357
f 358 359 360
f 361 358 362
f 363 361 364
f 365 363 366
f 367 365 368
f 369 367 370
f 371 369 372
f 373 374 375
f 376 373 377
f 378 376 379
f 380 378 381
f 382 380 383
f 384 382 385
f 386 387 388
f 389 386 390
f 391 389 392
f 393 391 394
f 395 393 396
f 397 395 398
f 399 397 400
f 401 399 402
f 403 401 404
f 405 403 406
f 407 405 408
f 409 407 410
f 411 409 412
f 413 414 415
f 416 413 417
f 418 416 419
f 420 418 421
f 422 420 423
f 424 422 425
f 426 424 427
f 428 426 429
f 430 428 431
f 432 430 433
f 434 435 436
f 437 434 438
f 439 437 440
f 441 442 443
f 444 441 445
f 446 444 447
f 448 449 450
f 451 448 452
f 453 451 454
f 455 456 457
f 458 455 459
f 460 458 461
f 462 463 464
f 465 462 466
f 467 465 468
f 469 467 470
f 471 469 472
f 473 471 474
f 475 476 477
f 478 475 479
f 480 478 481
f 482 480 483
f 484 485 486
f 487 484 488
f 489 487 490
f 491 489 492
f 493 491 494
f 2 493 495
f 4 2 1
f 8 4 6
f 12 8 10
f 496 12 14
f 19 17 16
f 23 19 21
f 27 23 25
f 34 32 31
f 497 34 36
f 41 39 38
f 45 41 43
f 49 45 47
f 53 49 51
f 57 53 55
f 59 498 60
f 64 59 62
f 66 499 67
f 71 66 69
f 75 71 73
f 82 80 79
f 86 82 84
f 90 86 88
f 95 93 92
f 99 95 97
f 104 102 101
f 500 104 106
f 108 501 109
f 113 108 111
f 117 113 115
f 121 117 119
f 125 121 123
f 129 502 130
f 134 129 132
f 138 134 136
f 142 138 140
f 146 142 144
f 503 146 148
f 153 151 150
f 160 158 157
f 164 160 162
f 168 164 166
f 172 504 173
f 177 172 175
f 179 505 180
f 184 179 182
f 188 184 186
f 506 188 190
f 195 193 192
f 507 195 197
f 199 508 200
f 204 199 202
f 208 204 206
f 212 208 210
f 216 212 214
f 220 216 218
f 224 220 222
f 228 224 226
f 232 228 230
f 236 232 234
f 240 236 238
f 245 243 242
f 249 245 247
f 253 249 251
f 260 258 257
f 264 260 262
f 266 509 267
f 271 266 269
f 275 271 273
f 279 275 277
f 283 279 281
f 287 283 285
f 510 287 289
f 291 511 292
f 296 291 294
f 300 296 298
f 304 300 302
f 308 304 306
f 512 308 310
f 315 313 312
f 513 315 317
f 322 320 319
f 326 322 324
f 330 326 328
f 334 330 332
f 341 339 338
f 345 341 343
f 350 348 347
f 354 350 352
f 361 359 358
f 365 361 363
f 369 365 367
f 376 374 373
f 380 376 378
f 384 380 382
f 389 387 386
f 393 389 391
f 397 393 395
f 401 397 399
f 405 401 403
f 409 405 407
f 514 409 411
f 413 515 414
f 418 413 416
f 424 420 422
f 428 424 426
f 432 428 430
f 434 516 435
f 439 434 437
f 441 517 442
f 446 441 444
f 451 449 448
f 518 451 453
f 455 519 456
f 460 455 458
f 462 520 463
f 467 462 465
f 471 467 469
f 521 471 473
f 475 522 476
f 480 475 478
f 485 480 482
f 487 485 484
f 491 487 489
f 2 491 493
f 8 2 4
f 496 8 12
f 23 17 19
f 29 23 27
f 34 523 32
f 524 34 497
f 41 525 39
f 49 41 45
f 57 49 53
f 64 498 59
f 71 499 66
f 77 71 75
f 82 526 80
f 90 82 86
f 99 93 95
f 500 102 104
f 113 501 108
f 121 113 117
f 127 121 125
f 129 527 502
f 138 129 134
f 146 138 142
f 528 146 503
f 155 151 153
f 160 529 158
f 168 160 164
f 177 504 172
f 184 505 179
f 506 184 188
f 195 530 193
f 204 508 199
f 212 204 208
f 220 212 216
f 228 220 224
f 236 228 232
f 531 236 240
f 245 532 243
f 253 245 249
f 260 533 258
f 534 260 264
f 271 509 266
f 279 271 275
f 287 279 283
f 535 287 510
f 291 536 511
f 300 291 296
f 308 300 304
f 537 308 512
f 513 313 315
f 322 538 320
f 330 322 326
f 336 330 334
f 341 539 339
f 540 341 345
f 354 348 350
f 361 541 359
f 369 361 365
f 380 374 376
f 542 380 384
f 389 543 387
f 397 389 393
f 405 397 401
f 514 405 409
f 413 544 515
f 420 413 418
f 428 420 424
f 545 428 432
f 439 516 434
f 446 517 441
f 451 546 449
f 547 451 518
f 460 519 455
f 467 520 462
f 521 467 471
f 480 522 475
f 491 485 487
f 8 491 2
f 548 8 496
f 29 17 23
f 524 523 34
f 49 525 41
f 64 549 498
f 71 550 499
f 551 71 77
f 90 526 82
f 500 552 102
f 113 553 501
f 127 113 121
f 129 554 527
f 146 129 138
f 555 151 155
f 168 529 160
f 556 504 177
f 184 557 505
f 558 184 506
f 507 530 195
f 204 559 508
f 220 204 212
f 236 220 228
f 560 236 531
f 245 561 532
f 255 245 253
f 534 533 260
f 271 562 509
f 287 271 279
f 563 287 535
f 291 564 536
f 308 291 300
f 513 565 313
f 330 538 322
f 566 330 336
f 540 539 341
f 354 567 348
f 369 541 361
f 542 374 380
f 397 543 389
f 514 397 405
f 413 514 544
f 545 420 428
f 439 568 516
f 446 569 517
f 547 546 451
f 460 570 519
f 467 571 520
f 572 467 521
f 480 573 522
f 491 480 485
f 548 491 8
f 574 17 29
f 575 523 524
f 49 576 525
f 577 549 64
f 551 550 71
f 90 578 526
f 500 579 552
f 113 580 553
f 581 113 127
f 129 581 554
f 528 129 146
f 168 582 529
f 184 583 557
f 584 530 507
f 204 585 559
f 236 204 220
f 255 561 245
f 534 586 533
f 271 534 562
f 563 271 287
f 291 563 564
f 537 291 308
f 587 565 513
f 330 588 538
f 540 589 539
f 369 590 541
f 591 374 542
f 397 592 543
f 413 397 514
f 593 420 545
f 439 594 568
f 446 595 569
f 547 596 546
f 597 570 460
f 467 598 571
f 599 467 572
f 480 600 573
f 548 480 491
f 601 17 574
f 49 575 576
f 602 549 577
f 551 603 550
f 90 604 578
f 605 579 500
f 113 605 580
f 129 113 581
f 606 129 528
f 168 607 582
f 184 608 583
f 609 530 584
f 236 585 204
f 255 610 561
f 271 586 534
f 291 271 563
f 611 291 537
f 612 565 587
f 566 588 330
f 613 589 540
f 369 614 590
f 615 374 591
f 397 616 592
f 420 397 413
f 617 420 593
f 439 618 594
f 619 595 446
f 547 620 596
f 597 621 570
f 599 598 467
f 548 600 480
f 523 17 601
f 49 523 575
f 602 622 549
f 551 602 603
f 93 604 90
f 113 579 605
f 606 113 129
f 168 555 607
f 558 608 184
f 609 623 530
f 236 624 585
f 255 625 610
f 271 626 586
f 611 271 291
f 627 565 612
f 566 627 588
f 628 589 613
f 369 356 614
f 629 374 615
f 397 630 616
f 631 420 617
f 632 618 439
f 633 595 619
f 634 620 547
f 635 621 597
f 599 636 598
f 637 600 548
f 49 17 523
f 551 622 602
f 93 638 604
f 113 639 579
f 640 113 606
f 170 555 168
f 558 556 608
f 236 641 624
f 255 642 625
f 565 271 611
f 566 565 627
f 643 589 628
f 369 354 356
f 420 630 397
f 644 420 631
f 632 645 618
f 646 595 633
f 621 620 634
f 647 621 635
f 599 648 636
f 637 649 600
f 57 17 49
f 638 622 551
f 99 638 93
f 640 639 113
f 170 151 555
f 558 504 556
f 236 650 641
f 255 651 642
f 565 626 271
f 652 565 566
f 653 589 643
f 371 354 369
f 420 654 630
f 655 420 644
f 656 645 632
f 646 656 595
f 599 657 648
f 637 658 649
f 659 17 57
f 638 660 622
f 640 661 639
f 662 151 170
f 558 663 504
f 236 664 650
f 255 665 651
f 565 255 626
f 666 354 371
f 420 667 654
f 668 420 655
f 646 645 656
f 599 669 657
f 637 670 658
f 671 17 659
f 99 660 638
f 640 672 661
f 662 673 151
f 558 674 663
f 236 675 664
f 652 255 565
f 676 354 666
f 420 677 667
f 645 420 668
f 678 645 646
f 599 679 669
f 680 670 637
f 681 17 671
f 640 99 672
f 682 673 662
f 683 674 558
f 236 609 675
f 589 255 652
f 684 354 676
f 420 629 677
f 678 420 645
f 685 679 599
f 680 686 670
f 640 660 99
f 687 673 682
f 236 623 609
f 589 665 255
f 688 354 684
f 420 374 629
f 689 420 678
f 686 679 685
f 690 686 680
f 640 691 660
f 692 673 687
f 236 683 623
f 589 693 665
f 694 354 688
f 420 694 374
f 695 686 690
f 673 691 640
f 696 673 692
f 236 674 683
f 589 697 693
f 420 354 694
f 698 686 695
f 696 691 673
f 236 699 674
f 589 700 697
f 689 354 420
f 701 686 698
f 696 702 691
f 236 703 699
f 653 700 589
f 689 567 354
f 704 686 701
f 696 705 702
f 236 696 703
f 706 700 653
f 689 707 567
f 704 679 686
f 236 705 696
f 708 700 706
f 709 707 689
f 704 647 679
f 236 710 705
f 711 700 708
f 712 707 709
f 713 647 704
f 236 714 710
f 715 700 711
f 713 621 647
f 236 681 714
f 716 700 715
f 713 620 621
f 560 681 236
f 717 700 716
f 718 620 713
f 719 681 560
f 720 700 717
f 721 620 718
f 722 681 719
f 723 700 720
f 17 620 721
f 724 681 722
f 707 700 723
f 681 620 17
f 725 681 724
f 712 700 707
f 681 712 620
f 700 681 725
f 681 700 712
f 726 727 728
f 727 729 730
f 729 731 732
f 731 733 734
f 733 735 736
f 735 737 738
f 737 739 740
f 741 742 743
f 742 744 745
f 744 746 747
f 746 748 749
f 748 750 751
f 750 752 753
f 752 754 755
f 756 757 758
f 757 759 760
f 759 761 762
f 763 764 765
f 764 766 767
f 766 768 769
f 768 770 771
f 770 772 773
f 772 774 775
f 774 776 777
f 776 778 779
f 778 780 781
f 780 782 783
f 784 785 786
f 785 787 788
f 787 789 790
f 791 792 793
f 792 794 795
f 794 796 797
f 796 798 799
f 798 800 801
f 800 802 803
f 804 805 806
f 805 807 808
f 807 809 810
f 809 811 812
f 811 813 814
f 813 815 816
f 817 818 819
f 818 820 821
f 820 822 823
f 822 824 825
f 826 827 828
f 827 829 830
f 829 831 832
f 833 834 835
f 834 836 837
f 836 838 839
f 838 840 841
f 840 842 843
f 842 844 845
f 844 846 847
f 846 848 849
f 848 850 851
f 850 852 853
f 854 855 856
f 855 857 858
f 857 859 860
f 859 861 862
f 861 863 864
f 863 865 866
f 865 867 868
f 867 869 870
f 869 871 872
f 871 873 874
f 875 876 877
f 876 878 879
f 878 880 881
f 882 883 884
f 883 885 886
f 885 887 888
f 887 889 890
f 889 891 892
f 891 893 894
f 893 895 896
f 897 898 899
f 898 900 901
f 900 902 903
f 904 905 906
f 905 907 908
f 907 909 910
f 909 911 912
f 911 913 914
f 913 915 916
f 917 918 919
f 918 920 921
f 920 922 923
f 924 925 926
f 925 927 928
f 927 929 930
f 929 931 932
f 931 933 934
f 933 935 936
f 935 937 938
f 937 939 940
f 939 941 942
f 941 943 944
f 943 945 946
f 945 947 948
f 947 949 950
f 949 951 952
f 951 953 954
f 953 955 956
f 955 957 958
f 957 959 960
f 959 961 962
f 961 963 964
f 963 965 966
f 967 968 969
f 968 970 971
f 970 972 973
f 972 974 975
f 974 976 977
f 976 978 979
f 978 980 981
f 982 983 984
f 983 985 986
f 985 987 988
f 987 989 990
f 991 992 993
f 992 994 995
f 994 996 997
f 996 998 999
f 998 1000 1001
f 1000 1002 1003
f 1002 1004 1005
f 1004 1006 1007
f 1006 1008 1009
f 1008 1010 1011
f 1010 1012 1013
f 1012 1014 1015
f 1016 1017 1018
f 1017 1019 1020
f 1019 1021 1022
f 1021 1023 1024
f 1023 1025 1026
f 1025 1027 1028
f 1027 1029 1030
f 1029 1031 1032
f 1031 1033 1034
f 1033 1035 1036
f 1037 1038 1039
f 1038 1040 1041
f 1040 1042 1043
f 1044 1045 1046
f 1045 1047 1048
f 1047 1049 1050
f 1049 1051 1052
f 1051 1053 1054
f 1053 1055 1056
f 1055 1057 1058
f 1057 1059 1060
f 1059 1061 1062
f 1063 1064 1065
f 1064 1066 1067
f 1066 1068 1069
f 1068 1070 1071
f 1072 1073 1074
f 1073 1075 1076
f 1075 1077 1078
f 1077 1079 1080
f 1079 1081 1082
f 1083 1084 1085
f 1084 1086 1087
f 1086 1088 1089
f 1088 1090 1091
f 1090 1092 1093
f 1092 1094 1095
f 1094 1096 1097
f 1098 1099 1100
f 1099 1101 1102
f 1101 1103 1104
f 1103 1105 1106
f 1105 1107 1108
f 1107 1109 1110
f 1111 1112 1113
f 1112 1114 1115
f 1114 1116 1117
f 1116 1118 1119
f 1118 1120 1121
f 1120 1122 1123
f 1122 1124 1125
f 1124 1126 1127
f 1126 1128 1129
f 1128 1130 1131
f 1130 1132 1133
f 1132 1134 1135
f 1134 1136 1137
f 1138 1139 1140
f 1139 1141 1142
f 1141 1143 1144
f 1143 1145 1146
f 1145 1147 1148
f 1147 1149 1150
f 1149 1151 1152
f 1151 1153 1154
f 1153 1155 1156
f 1155 1157 1158
f 1159 1160 1161
f 1160 1162 1163
f 1162 1164 1165
f 1166 1167 1168
f 1167 1169 1170
f 1169 1171 1172
f 1173 1174 1175
f 1174 1176 1177
f 1176 1178 1179
f 1180 1181 1182
f 1181 1183 1184
f 1183 1185 1186
f 1187 1188 1189
f 1188 1190 1191
f 1190 1192 1193
f 1192 1194 1195
f 1194 1196 1197
f 1196 1198 1199
f 1200 1201 1202
f 1201 1203 1204
f 1203 1205 1206
f 1205 1207 1208
f 1209 1210 1211
f 1210 1212 1213
f 1212 1214 1215
f 1214 1216 1217
f 1216 1218 1219
f 1218 726 1220
f 726 729 727
f 729 733 731
f 733 737 735
f 737 1221 739
f 741 744 742
f 744 748 746
f 748 752 750
f 756 759 757
f 759 1222 761
f 763 766 764
f 766 770 768
f 770 774 772
f 774 778 776
f 778 782 780
f 1223 785 784
f 785 789 787
f 1224 792 791
f 792 796 794
f 796 800 798
f 804 807 805
f 807 811 809
f 811 815 813
f 817 820 818
f 820 824 822
f 826 829 827
f 829 1225 831
f 1226 834 833
f 834 838 836
f 838 842 840
f 842 846 844
f 846 850 848
f 1227 855 854
f 855 859 857
f 859 863 861
f 863 867 865
f 867 871 869
f 871 1228 873
f 875 878 876
f 882 885 883
f 885 889 887
f 889 893 891
f 1229 898 897
f 898 902 900
f 1230 905 904
f 905 909 907
f 909 913 911
f 913 1231 915
f 917 920 918
f 920 1232 922
f 1233 925 924
f 925 929 927
f 929 933 931
f 933 937 935
f 937 941 939
f 941 945 943
f 945 949 947
f 949 953 951
f 953 957 955
f 957 961 959
f 961 965 963
f 967 970 968
f 970 974 972
f 974 978 976
f 982 985 983
f 985 989 987
f 1234 992 991
f 992 996 994
f 996 1000 998
f 1000 1004 1002
f 1004 1008 1006
f 1008 1012 1010
f 1012 1235 1014
f 1236 1017 1016
f 1017 1021 1019
f 1021 1025 1023
f 1025 1029 1027
f 1029 1033 1031
f 1033 1237 1035
f 1037 1040 1038
f 1040 1238 1042
f 1044 1047 1045
f 1047 1051 1049
f 1051 1055 1053
f 1055 1059 1057
f 1063 1066 1064
f 1066 1070 1068
f 1072 1075 1073
f 1075 1079 1077
f 1083 1086 1084
f 1086 1090 1088
f 1090 1094 1092
f 1098 1101 1099
f 1101 1105 1103
f 1105 1109 1107
f 1111 1114 1112
f 1114 1118 1116
f 1118 1122 1120
f 1122 1126 1124
f 1126 1130 1128
f 1130 1134 1132
f 1134 1239 1136
f 1240 1139 1138
f 1139 1143 1141
f 1145 1149 1147
f 1149 1153 1151
f 1153 1157 1155
f 1241 1160 1159
f 1160 1164 1162
f 1242 1167 1166
f 1167 1171 1169
f 1173 1176 1174
f 1176 1243 1178
f 1244 1181 1180
f 1181 1185 1183
f 1245 1188 1187
f 1188 1192 1190
f 1192 1196 1194
f 1196 1246 1198
f 1247 1201 1200
f 1201 1205 1203
f 1205 1209 1207
f 1209 1212 1210
f 1212 1216 1214
f 1216 726 1218
f 726 733 729
f 733 1221 737
f 741 748 744
f 748 754 752
f 1248 759 756
f 759 1249 1222
f 1250 766 763
f 766 774 770
f 774 782 778
f 1223 789 785
f 1224 796 792
f 796 802 800
f 1251 807 804
f 807 815 811
f 817 824 820
f 826 1225 829
f 1226 838 834
f 838 846 842
f 846 852 850
f 1252 855 1227
f 855 863 859
f 863 871 867
f 871 1253 1228
f 875 880 878
f 1254 885 882
f 885 893 889
f 1229 902 898
f 1230 909 905
f 909 1231 913
f 1255 920 917
f 1233 929 925
f 929 937 933
f 937 945 941
f 945 953 949
f 953 961 957
f 961 1256 965
f 1257 970 967
f 970 978 974
f 1258 985 982
f 985 1259 989
f 1234 996 992
f 996 1004 1000
f 1004 1012 1008
f 1012 1260 1235
f 1261 1017 1236
f 1017 1025 1021
f 1025 1033 1029
f 1033 1262 1237
f 1037 1238 1040
f 1263 1047 1044
f 1047 1055 1051
f 1055 1061 1059
f 1264 1066 1063
f 1066 1265 1070
f 1072 1079 1075
f 1266 1086 1083
f 1086 1094 1090
f 1098 1105 1101
f 1105 1267 1109
f 1268 1114 1111
f 1114 1122 1118
f 1122 1130 1126
f 1130 1239 1134
f 1269 1139 1240
f 1139 1145 1143
f 1145 1153 1149
f 1153 1270 1157
f 1241 1164 1160
f 1242 1171 1167
f 1271 1176 1173
f 1176 1272 1243
f 1244 1185 1181
f 1245 1192 1188
f 1192 1246 1196
f 1247 1205 1201
f 1209 1216 1212
f 1216 733 726
f 733 1273 1221
f 741 754 748
f 1248 1249 759
f 1250 774 766
f 1274 789 1223
f 1275 796 1224
f 796 1276 802
f 1251 815 807
f 1277 1225 826
f 1278 838 1226
f 838 852 846
f 1279 855 1252
f 855 871 863
f 875 1280 880
f 1254 893 885
f 1229 1281 902
f 1282 909 1230
f 909 1283 1231
f 1255 1232 920
f 1284 929 1233
f 929 945 937
f 945 961 953
f 961 1285 1256
f 1286 970 1257
f 970 980 978
f 1258 1259 985
f 1287 996 1234
f 996 1012 1004
f 1012 1288 1260
f 1289 1017 1261
f 1017 1033 1025
f 1290 1238 1037
f 1263 1055 1047
f 1055 1291 1061
f 1264 1265 1066
f 1292 1079 1072
f 1266 1094 1086
f 1098 1267 1105
f 1268 1122 1114
f 1122 1239 1130
f 1239 1139 1269
f 1145 1270 1153
f 1293 1164 1241
f 1294 1171 1242
f 1271 1272 1176
f 1295 1185 1244
f 1296 1192 1245
f 1192 1297 1246
f 1298 1205 1247
f 1205 1216 1209
f 1216 1273 733
f 741 1299 754
f 1248 1300 1249
f 1301 774 1250
f 1274 1302 789
f 1275 1276 796
f 1303 815 1251
f 1304 1225 1277
f 1305 838 1278
f 838 1306 852
f 1306 855 1279
f 855 1253 871
f 1307 893 1254
f 1308 909 1282
f 1255 1309 1232
f 1310 929 1284
f 929 961 945
f 1286 980 970
f 1311 1259 1258
f 1259 996 1287
f 996 1288 1012
f 1288 1017 1289
f 1017 1262 1033
f 1290 1312 1238
f 1313 1055 1263
f 1314 1265 1264
f 1315 1094 1266
f 1098 1316 1267
f 1317 1122 1268
f 1122 1139 1239
f 1145 1318 1270
f 1319 1164 1293
f 1320 1171 1294
f 1321 1272 1271
f 1295 1322 1185
f 1323 1192 1296
f 1192 1324 1297
f 1325 1205 1298
f 1205 1273 1216
f 741 1326 1299
f 1300 774 1301
f 1274 1327 1302
f 1328 1276 1275
f 1329 815 1303
f 1304 1330 1225
f 1330 838 1305
f 838 855 1306
f 855 1331 1253
f 1332 893 1307
f 1333 909 1308
f 1255 1334 1309
f 1310 961 929
f 1335 980 1286
f 1311 996 1259
f 996 1017 1288
f 1017 1336 1262
f 1290 1337 1312
f 1313 1291 1055
f 1314 1338 1265
f 1339 1094 1315
f 1098 1340 1316
f 1341 1122 1317
f 1122 1145 1139
f 1145 1342 1318
f 1343 1164 1319
f 1320 1344 1171
f 1345 1272 1321
f 1346 1322 1295
f 1323 1324 1192
f 1325 1273 1205
f 741 1248 1326
f 1248 774 1300
f 1347 1327 1274
f 1327 1276 1328
f 1329 817 815
f 1304 838 1330
f 838 1331 855
f 1280 893 1332
f 1333 1283 909
f 1348 1334 1255
f 1349 961 1310
f 1350 980 1335
f 1351 996 1311
f 996 1336 1017
f 1290 1352 1337
f 1352 1291 1313
f 1314 1353 1338
f 1081 1094 1339
f 1098 1354 1340
f 1355 1122 1341
f 1145 1356 1342
f 1343 1357 1164
f 1320 1358 1344
f 1345 1359 1272
f 1346 1360 1322
f 1361 1324 1323
f 1325 1362 1273
f 741 774 1248
f 1347 1276 1327
f 1363 817 1329
f 1364 838 1304
f 838 1365 1331
f 1280 895 893
f 1281 1283 1333
f 1366 961 1349
f 1367 980 1350
f 996 1290 1336
f 1290 1291 1352
f 1314 1368 1353
f 1079 1094 1081
f 1355 1145 1122
f 1145 1369 1356
f 1370 1357 1343
f 1320 1371 1358
f 1345 1346 1359
f 1346 1372 1360
f 1373 1324 1361
f 1374 1362 1325
f 741 782 774
f 1347 1363 1276
f 1363 824 817
f 1364 1365 838
f 875 895 1280
f 1229 1283 1281
f 1375 961 1366
f 1376 980 1367
f 1351 1290 996
f 1290 1377 1291
f 1314 1378 1368
f 1079 1096 1094
f 1379 1145 1355
f 1145 1380 1369
f 1370 1381 1357
f 1381 1371 1320
f 1382 1324 1373
f 1383 1362 1374
f 741 1384 782
f 1385 1363 1347
f 1386 1365 1364
f 875 1387 895
f 1388 1283 1229
f 1389 961 1375
f 1390 980 1376
f 980 1290 1351
f 1079 1391 1096
f 1392 1145 1379
f 1145 1393 1380
f 1370 1371 1381
f 1394 1324 1382
f 1395 1362 1383
f 741 1396 1384
f 1385 824 1363
f 1397 1365 1386
f 1398 1387 875
f 1399 1283 1388
f 1400 961 1389
f 980 1377 1290
f 1079 1401 1391
f 1402 1145 1392
f 1145 1370 1393
f 1370 1403 1371
f 1404 1324 1394
f 1395 1405 1362
f 741 1406 1396
f 824 1365 1397
f 1398 1407 1387
f 1399 1408 1283
f 1334 961 1400
f 980 1314 1377
f 1079 1409 1401
f 1354 1145 1402
f 1145 1403 1370
f 1404 1410 1324
f 1411 1405 1395
f 1385 1365 824
f 1398 1412 1407
f 1348 961 1334
f 1390 1314 980
f 1079 1413 1409
f 1098 1145 1354
f 1145 1414 1403
f 1404 1411 1410
f 1411 1415 1405
f 1416 1365 1385
f 1398 1417 1412
f 1408 961 1348
f 1418 1314 1390
f 1079 1419 1413
f 1419 1145 1098
f 1411 1420 1415
f 1416 1398 1365
f 1398 1421 1417
f 1399 961 1408
f 1422 1314 1418
f 1079 1145 1419
f 1411 1423 1420
f 1416 1421 1398
f 1424 961 1399
f 1425 1314 1422
f 1079 1414 1145
f 1411 1426 1423
f 1427 1421 1416
f 1428 961 1424
f 1425 1378 1314
f 1292 1414 1079
f 1411 1429 1426
f 1430 1421 1427
f 1421 961 1428
f 1425 1431 1378
f 1432 1414 1292
f 1404 1429 1411
f 1430 961 1421
f 1425 1433 1431
f 1432 1434 1414
f 1372 1429 1404
f 1435 961 1430
f 1425 1436 1433
f 1432 1437 1434
f 1372 1438 1429
f 1439 961 1435
f 1425 1440 1436
f 1346 1438 1372
f 1406 961 1439
f 1425 1441 1440
f 1345 1438 1346
f 1406 1285 961
f 1425 1442 1441
f 1345 1443 1438
f 1406 1444 1285
f 1425 1445 1442
f 1345 1446 1443
f 1406 1447 1444
f 1425 1448 1445
f 1345 741 1446
f 1406 1449 1447
f 1425 1432 1448
f 1345 1406 741
f 1406 1450 1449
f 1425 1437 1432
f 1437 1406 1345
f 1406 1425 1450
f 1425 1406 1437
f 1 727 5
f 5 727 730
f 5 730 4
f 4 730 729
f 4 729 7
f 7 729 732
f 7 732 6
f 6 732 731
f 6 731 9
f 9 731 734
f 9 734 8
f 8 734 733
f 8 733 11
f 11 733 736
f 11 736 10
f 10 736 735
f 10 735 13
f 13 735 738
f 13 738 12
f 12 738 737
f 12 737 15
f 15 737 740
f 15 740 14
f 14 740 739
f 14 739 496
f 496 739 1221
f 496 1221 548
f 548 1221 1273
f 548 1273 637
f 637 1273 1362
f 637 1362 680
f 680 1362 1405
f 680 1405 690
f 690 1405 1415
f 690 1415 695
f 695 1415 1420
f 695 1420 698
f 698 1420 1423
f 698 1423 701
f 701 1423 1426
f 701 1426 704
f 704 1426 1429
f 704 1429 713
f 713 1429 1438
f 713 1438 718
f 718 1438 1443
f 718 1443 721
f 721 1443 1446
f 721 1446 17
f 17 1446 741
f 17 741 18
f 18 741 743
f 18 743 16
f 16 743 742
f 16 742 20
f 20 742 745
f 20 745 19
f 19 745 744
f 19 744 22
f 22 744 747
f 22 747 21
f 21 747 746
f 21 746 24
f 24 746 749
f 24 749 23
f 23 749 748
f 23 748 26
f 26 748 751
f 26 751 25
f 25 751 750
f 25 750 28
f 28 750 753
f 28 753 27
f 27 753 752
f 27 752 30
f 30 752 755
f 30 755 29
f 29 755 754
f 29 754 574
f 574 754 1299
f 574 1299 601
f 601 1299 1326
f 601 1326 523
f 523 1326 1248
f 523 1248 32
f 32 1248 756
f 32 756 33
f 33 756 758
f 33 758 31
f 31 758 757
f 31 757 35
f 35 757 760
f 35 760 34
f 34 760 759
f 34 759 37
f 37 759 762
f 37 762 36
f 36 762 761
f 36 761 497
f 497 761 1222
f 497 1222 524
f 524 1222 1249
f 524 1249 575
f 575 1249 1300
f 575 1300 576
f 576 1300 1301
f 576 1301 525
f 525 1301 1250
f 525 1250 39
f 39 1250 763
f 39 763 40
f 40 763 765
f 40 765 38
f 38 765 764
f 38 764 42
f 42 764 767
f 42 767 41
f 41 767 766
f 41 766 44
f 44 766 769
f 44 769 43
f 43 769 768
f 43 768 46
f 46 768 771
f 46 771 45
f 45 771 770
f 45 770 48
f 48 770 773
f 48 773 47
f 47 773 772
f 47 772 50
f 50 772 775
f 50 775 49
f 49 775 774
f 49 774 52
f 52 774 777
f 52 777 51
f 51 777 776
f 51 776 54
f 54 776 779
f 54 779 53
f 53 779 778
f 53 778 56
f 56 778 781
f 56 781 55
f 55 781 780
f 55 780 58
f 58 780 783
f 58 783 57
f 57 783 782
f 57 782 659
f 659 782 1384
f 659 1384 671
f 671 1384 1396
f 671 1396 681
f 681 1396 1406
f 681 1406 714
f 714 1406 1439
f 714 1439 710
f 710 1439 1435
f 710 1435 705
f 705 1435 1430
f 705 1430 702
f 702 1430 1427
f 702 1427 691
f 691 1427 1416
f 691 1416 660
f 660 1416 1385
f 660 1385 622
f 622 1385 1347
f 622 1347 549
f 549 1347 1274
f 549 1274 498
f 498 1274 1223
f 498 1223 60
f 60 1223 784
f 60 784 61
f 61 784 786
f 61 786 59
f 59 786 785
f 59 785 63
f 63 785 788
f 63 788 62
f 62 788 787
f 62 787 65
f 65 787 790
f 65 790 64
f 64 790 789
f 64 789 577
f 577 789 1302
f 577 1302 602
f 602 1302 1327
f 602 1327 603
f 603 1327 1328
f 603 1328 550
f 550 1328 1275
f 550 1275 499
f 499 1275 1224
f 499 1224 67
f 67 1224 791
f 67 791 68
f 68 791 793
f 68 793 66
f 66 793 792
f 66 792 70
f 70 792 795
f 70 795 69
f 69 795 794
f 69 794 72
f 72 794 797
f 72 797 71
f 71 797 796
f 71 796 74
f 74 796 799
f 74 799 73
f 73 799 798
f 73 798 76
f 76 798 801
f 76 801 75
f 75 801 800
f 75 800 78
f 78 800 803
f 78 803 77
f 77 803 802
f 77 802 551
f 551 802 1276
f 551 1276 638
f 638 1276 1363
f 638 1363 604
f 604 1363 1329
f 604 1329 578
f 578 1329 1303
f 578 1303 526
f 526 1303 1251
f 526 1251 80
f 80 1251 804
f 80 804 81
f 81 804 806
f 81 806 79
f 79 806 805
f 79 805 83
f 83 805 808
f 83 808 82
f 82 808 807
f 82 807 85
f 85 807 810
f 85 810 84
f 84 810 809
f 84 809 87
f 87 809 812
f 87 812 86
f 86 812 811
f 86 811 89
f 89 811 814
f 89 814 88
f 88 814 813
f 88 813 91
f 91 813 816
f 91 816 90
f 90 816 815
f 90 815 93
f 93 815 817
f 93 817 94
f 94 817 819
f 94 819 92
f 92 819 818
f 92 818 96
f 96 818 821
f 96 821 95
f 95 821 820
f 95 820 98
f 98 820 823
f 98 823 97
f 97 823 822
f 97 822 100
f 100 822 825
f 100 825 99
f 99 825 824
f 99 824 672
f 672 824 1397
f 672 1397 661
f 661 1397 1386
f 661 1386 639
f 639 1386 1364
f 639 1364 579
f 579 1364 1304
f 579 1304 552
f 552 1304 1277
f 552 1277 102
f 102 1277 826
f 102 826 103
f 103 826 828
f 103 828 101
f 101 828 827
f 101 827 105
f 105 827 830
f 105 830 104
f 104 830 829
f 104 829 107
f 107 829 832
f 107 832 106
f 106 832 831
f 106 831 500
f 500 831 1225
f 500 1225 605
f 605 1225 1330
f 605 1330 580
f 580 1330 1305
f 580 1305 553
f 553 1305 1278
f 553 1278 501
f 501 1278 1226
f 501 1226 109
f 109 1226 833
f 109 833 110
f 110 833 835
f 110 835 108
f 108 835 834
f 108 834 112
f 112 834 837
f 112 837 111
f 111 837 836
f 111 836 114
f 114 836 839
f 114 839 113
f 113 839 838
f 113 838 116
f 116 838 841
f 116 841 115
f 115 841 840
f 115 840 118
f 118 840 843
f 118 843 117
f 117 843 842
f 117 842 120
f 120 842 845
f 120 845 119
f 119 845 844
f 119 844 122
f 122 844 847
f 122 847 121
f 121 847 846
f 121 846 124
f 124 846 849
f 124 849 123
f 123 849 848
f 123 848 126
f 126 848 851
f 126 851 125
f 125 851 850
f 125 850 128
f 128 850 853
f 128 853 127
f 127 853 852
f 127 852 581
f 581 852 1306
f 581 1306 554
f 554 1306 1279
f 554 1279 527
f 527 1279 1252
f 527 1252 502
f 502 1252 1227
f 502 1227 130
f 130 1227 854
f 130 854 131
f 131 854 856
f 131 856 129
f 129 856 855
f 129 855 133
f 133 855 858
f 133 858 132
f 132 858 857
f 132 857 135
f 135 857 860
f 135 860 134
f 134 860 859
f 134 859 137
f 137 859 862
f 137 862 136
f 136 862 861
f 136 861 139
f 139 861 864
f 139 864 138
f 138 864 863
f 138 863 141
f 141 863 866
f 141 866 140
f 140 866 865
f 140 865 143
f 143 865 868
f 143 868 142
f 142 868 867
f 142 867 145
f 145 867 870
f 145 870 144
f 144 870 869
f 144 869 147
f 147 869 872
f 147 872 146
f 146 872 871
f 146 871 149
f 149 871 874
f 149 874 148
f 148 874 873
f 148 873 503
f 503 873 1228
f 503 1228 528
f 528 1228 1253
f 528 1253 606
f 606 1253 1331
f 606 1331 640
f 640 1331 1365
f 640 1365 673
f 673 1365 1398
f 673 1398 151
f 151 1398 875
f 151 875 152
f 152 875 877
f 152 877 150
f 150 877 876
f 150 876 154
f 154 876 879
f 154 879 153
f 153 879 878
f 153 878 156
f 156 878 881
f 156 881 155
f 155 881 880
f 155 880 555
f 555 880 1280
f 555 1280 607
f 607 1280 1332
f 607 1332 582
f 582 1332 1307
f 582 1307 529
f 529 1307 1254
f 529 1254 158
f 158 1254 882
f 158 882 159
f 159 882 884
f 159 884 157
f 157 884 883
f 157 883 161
f 161 883 886
f 161 886 160
f 160 886 885
f 160 885 163
f 163 885 888
f 163 888 162
f 162 888 887
f 162 887 165
f 165 887 890
f 165 890 164
f 164 890 889
f 164 889 167
f 167 889 892
f 167 892 166
f 166 892 891
f 166 891 169
f 169 891 894
f 169 894 168
f 168 894 893
f 168 893 171
f 171 893 896
f 171 896 170
f 170 896 895
f 170 895 662
f 662 895 1387
f 662 1387 682
f 682 1387 1407
f 682 1407 687
f 687 1407 1412
f 687 1412 692
f 692 1412 1417
f 692 1417 696
f 696 1417 1421
f 696 1421 703
f 703 1421 1428
f 703 1428 699
f 699 1428 1424
f 699 1424 674
f 674 1424 1399
f 674 1399 663
f 663 1399 1388
f 663 1388 504
f 504 1388 1229
f 504 1229 173
f 173 1229 897
f 173 897 174
f 174 897 899
f 174 899 172
f 172 899 898
f 172 898 176
f 176 898 901
f 176 901 175
f 175 901 900
f 175 900 178
f 178 900 903
f 178 903 177
f 177 903 902
f 177 902 556
f 556 902 1281
f 556 1281 608
f 608 1281 1333
f 608 1333 583
f 583 1333 1308
f 583 1308 557
f 557 1308 1282
f 557 1282 505
f 505 1282 1230
f 505 1230 180
f 180 1230 904
f 180 904 181
f 181 904 906
f 181 906 179
f 179 906 905
f 179 905 183
f 183 905 908
f 183 908 182
f 182 908 907
f 182 907 185
f 185 907 910
f 185 910 184
f 184 910 909
f 184 909 187
f 187 909 912
f 187 912 186
f 186 912 911
f 186 911 189
f 189 911 914
f 189 914 188
f 188 914 913
f 188 913 191
f 191 913 916
f 191 916 190
f 190 916 915
f 190 915 506
f 506 915 1231
f 506 1231 558
f 558 1231 1283
f 558 1283 683
f 683 1283 1408
f 683 1408 623
f 623 1408 1348
f 623 1348 530
f 530 1348 1255
f 530 1255 193
f 193 1255 917
f 193 917 194
f 194 917 919
f 194 919 192
f 192 919 918
f 192 918 196
f 196 918 921
f 196 921 195
f 195 921 920
f 195 920 198
f 198 920 923
f 198 923 197
f 197 923 922
f 197 922 507
f 507 922 1232
f 507 1232 584
f 584 1232 1309
f 584 1309 609
f 609 1309 1334
f 609 1334 675
f 675 1334 1400
f 675 1400 664
f 664 1400 1389
f 664 1389 650
f 650 1389 1375
f 650 1375 641
f 641 1375 1366
f 641 1366 624
f 624 1366 1349
f 624 1349 585
f 585 1349 1310
f 585 1310 559
f 559 1310 1284
f 559 1284 508
f 508 1284 1233
f 508 1233 200
f 200 1233 924
f 200 924 201
f 201 924 926
f 201 926 199
f 199 926 925
f 199 925 203
f 203 925 928
f 203 928 202
f 202 928 927
f 202 927 205
f 205 927 930
f 205 930 204
f 204 930 929
f 204 929 207
f 207 929 932
f 207 932 206
f 206 932 931
f 206 931 209
f 209 931 934
f 209 934 208
f 208 934 933
f 208 933 211
f 211 933 936
f 211 936 210
f 210 936 935
f 210 935 213
f 213 935 938
f 213 938 212
f 212 938 937
f 212 937 215
f 215 937 940
f 215 940 214
f 214 940 939
f 214 939 217
f 217 939 942
f 217 942 216
f 216 942 941
f 216 941 219
f 219 941 944
f 219 944 218
f 218 944 943
f 218 943 221
f 221 943 946
f 221 946 220
f 220 946 945
f 220 945 223
f 223 945 948
f 223 948 222
f 222 948 947
f 222 947 225
f 225 947 950
f 225 950 224
f 224 950 949
f 224 949 227
f 227 949 952
f 227 952 226
f 226 952 951
f 226 951 229
f 229 951 954
f 229 954 228
f 228 954 953
f 228 953 231
f 231 953 956
f 231 956 230
f 230 956 955
f 230 955 233
f 233 955 958
f 233 958 232
f 232 958 957
f 232 957 235
f 235 957 960
f 235 960 234
f 234 960 959
f 234 959 237
f 237 959 962
f 237 962 236
f 236 962 961
f 236 961 239
f 239 961 964
f 239 964 238
f 238 964 963
f 238 963 241
f 241 963 966
f 241 966 240
f 240 966 965
f 240 965 531
f 531 965 1256
f 531 1256 560
f 560 1256 1285
f 560 1285 719
f 719 1285 1444
f 719 1444 722
f 722 1444 1447
f 722 1447 724
f 724 1447 1449
f 724 1449 725
f 725 1449 1450
f 725 1450 700
f 700 1450 1425
f 700 1425 697
f 697 1425 1422
f 697 1422 693
f 693 1422 1418
f 693 1418 665
f 665 1418 1390
f 665 1390 651
f 651 1390 1376
f 651 1376 642
f 642 1376 1367
f 642 1367 625
f 625 1367 1350
f 625 1350 610
f 610 1350 1335
f 610 1335 561
f 561 1335 1286
f 561 1286 532
f 532 1286 1257
f 532 1257 243
f 243 1257 967
f 243 967 244
f 244 967 969
f 244 969 242
f 242 969 968
f 242 968 246
f 246 968 971
f 246 971 245
f 245 971 970
f 245 970 248
f 248 970 973
f 248 973 247
f 247 973 972
f 247 972 250
f 250 972 975
f 250 975 249
f 249 975 974
f 249 974 252
f 252 974 977
f 252 977 251
f 251 977 976
f 251 976 254
f 254 976 979
f 254 979 253
f 253 979 978
f 253 978 256
f 256 978 981
f 256 981 255
f 255 981 980
f 255 980 626
f 626 980 1351
f 626 1351 586
f 586 1351 1311
f 586 1311 533
f 533 1311 1258
f 533 1258 258
f 258 1258 982
f 258 982 259
f 259 982 984
f 259 984 257
f 257 984 983
f 257 983 261
f 261 983 986
f 261 986 260
f 260 986 985
f 260 985 263
f 263 985 988
f 263 988 262
f 262 988 987
f 262 987 265
f 265 987 990
f 265 990 264
f 264 990 989
f 264 989 534
f 534 989 1259
f 534 1259 562
f 562 1259 1287
f 562 1287 509
f 509 1287 1234
f 509 1234 267
f 267 1234 991
f 267 991 268
f 268 991 993
f 268 993 266
f 266 993 992
f 266 992 270
f 270 992 995
f 270 995 269
f 269 995 994
f 269 994 272
f 272 994 997
f 272 997 271
f 271 997 996
f 271 996 274
f 274 996 999
f 274 999 273
f 273 999 998
f 273 998 276
f 276 998 1001
f 276 1001 275
f 275 1001 1000
f 275 1000 278
f 278 1000 1003
f 278 1003 277
f 277 1003 1002
f 277 1002 280
f 280 1002 1005
f 280 1005 279
f 279 1005 1004
f 279 1004 282
f 282 1004 1007
f 282 1007 281
f 281 1007 1006
f 281 1006 284
f 284 1006 1009
f 284 1009 283
f 283 1009 1008
f 283 1008 286
f 286 1008 1011
f 286 1011 285
f 285 1011 1010
f 285 1010 288
f 288 1010 1013
f 288 1013 287
f 287 1013 1012
f 287 1012 290
f 290 1012 1015
f 290 1015 289
f 289 1015 1014
f 289 1014 510
f 510 1014 1235
f 510 1235 535
f 535 1235 1260
f 535 1260 563
f 563 1260 1288
f 563 1288 564
f 564 1288 1289
f 564 1289 536
f 536 1289 1261
f 536 1261 511
f 511 1261 1236
f 511 1236 292
f 292 1236 1016
f 292 1016 293
f 293 1016 1018
f 293 1018 291
f 291 1018 1017
f 291 1017 295
f 295 1017 1020
f 295 1020 294
f 294 1020 1019
f 294 1019 297
f 297 1019 1022
f 297 1022 296
f 296 1022 1021
f 296 1021 299
f 299 1021 1024
f 299 1024 298
f 298 1024 1023
f 298 1023 301
f 301 1023 1026
f 301 1026 300
f 300 1026 1025
f 300 1025 303
f 303 1025 1028
f 303 1028 302
f 302 1028 1027
f 302 1027 305
f 305 1027 1030
f 305 1030 304
f 304 1030 1029
f 304 1029 307
f 307 1029 1032
f 307 1032 306
f 306 1032 1031
f 306 1031 309
f 309 1031 1034
f 309 1034 308
f 308 1034 1033
f 308 1033 311
f 311 1033 1036
f 311 1036 310
f 310 1036 1035
f 310 1035 512
f 512 1035 1237
f 512 1237 537
f 537 1237 1262
f 537 1262 611
f 611 1262 1336
f 611 1336 565
f 565 1336 1290
f 565 1290 313
f 313 1290 1037
f 313 1037 314
f 314 1037 1039
f 314 1039 312
f 312 1039 1038
f 312 1038 316
f 316 1038 1041
f 316 1041 315
f 315 1041 1040
f 315 1040 318
f 318 1040 1043
f 318 1043 317
f 317 1043 1042
f 317 1042 513
f 513 1042 1238
f 513 1238 587
f 587 1238 1312
f 587 1312 612
f 612 1312 1337
f 612 1337 627
f 627 1337 1352
f 627 1352 588
f 588 1352 1313
f 588 1313 538
f 538 1313 1263
f 538 1263 320
f 320 1263 1044
f 320 1044 321
f 321 1044 1046
f 321 1046 319
f 319 1046 1045
f 319 1045 323
f 323 1045 1048
f 323 1048 322
f 322 1048 1047
f 322 1047 325
f 325 1047 1050
f 325 1050 324
f 324 1050 1049
f 324 1049 327
f 327 1049 1052
f 327 1052 326
f 326 1052 1051
f 326 1051 329
f 329 1051 1054
f 329 1054 328
f 328 1054 1053
f 328 1053 331
f 331 1053 1056
f 331 1056 330
f 330 1056 1055
f 330 1055 333
f 333 1055 1058
f 333 1058 332
f 332 1058 1057
f 332 1057 335
f 335 1057 1060
f 335 1060 334
f 334 1060 1059
f 334 1059 337
f 337 1059 1062
f 337 1062 336
f 336 1062 1061
f 336 1061 566
f 566 1061 1291
f 566 1291 652
f 652 1291 1377
f 652 1377 589
f 589 1377 1314
f 589 1314 539
f 539 1314 1264
f 539 1264 339
f 339 1264 1063
f 339 1063 340
f 340 1063 1065
f 340 1065 338
f 338 1065 1064
f 338 1064 342
f 342 1064 1067
f 342 1067 341
f 341 1067 1066
f 341 1066 344
f 344 1066 1069
f 344 1069 343
f 343 1069 1068
f 343 1068 346
f 346 1068 1071
f 346 1071 345
f 345 1071 1070
f 345 1070 540
f 540 1070 1265
f 540 1265 613
f 613 1265 1338
f 613 1338 628
f 628 1338 1353
f 628 1353 643
f 643 1353 1368
f 643 1368 653
f 653 1368 1378
f 653 1378 706
f 706 1378 1431
f 706 1431 708
f 708 1431 1433
f 708 1433 711
f 711 1433 1436
f 711 1436 715
f 715 1436 1440
f 715 1440 716
f 716 1440 1441
f 716 1441 717
f 717 1441 1442
f 717 1442 720
f 720 1442 1445
f 720 1445 723
f 723 1445 1448
f 723 1448 707
f 707 1448 1432
f 707 1432 567
f 567 1432 1292
f 567 1292 348
f 348 1292 1072
f 348 1072 349
f 349 1072 1074
f 349 1074 347
f 347 1074 1073
f 347 1073 351
f 351 1073 1076
f 351 1076 350
f 350 1076 1075
f 350 1075 353
f 353 1075 1078
f 353 1078 352
f 352 1078 1077
f 352 1077 355
f 355 1077 1080
f 355 1080 354
f 354 1080 1079
f 354 1079 357
f 357 1079 1082
f 357 1082 356
f 356 1082 1081
f 356 1081 614
f 614 1081 1339
f 614 1339 590
f 590 1339 1315
f 590 1315 541
f 541 1315 1266
f 541 1266 359
f 359 1266 1083
f 359 1083 360
f 360 1083 1085
f 360 1085 358
f 358 1085 1084
f 358 1084 362
f 362 1084 1087
f 362 1087 361
f 361 1087 1086
f 361 1086 364
f 364 1086 1089
f 364 1089 363
f 363 1089 1088
f 363 1088 366
f 366 1088 1091
f 366 1091 365
f 365 1091 1090
f 365 1090 368
f 368 1090 1093
f 368 1093 367
f 367 1093 1092
f 367 1092 370
f 370 1092 1095
f 370 1095 369
f 369 1095 1094
f 369 1094 372
f 372 1094 1097
f 372 1097 371
f 371 1097 1096
f 371 1096 666
f 666 1096 1391
f 666 1391 676
f 676 1391 1401
f 676 1401 684
f 684 1401 1409
f 684 1409 688
f 688 1409 1413
f 688 1413 694
f 694 1413 1419
f 694 1419 374
f 374 1419 1098
f 374 1098 375
f 375 1098 1100
f 375 1100 373
f 373 1100 1099
f 373 1099 377
f 377 1099 1102
f 377 1102 376
f 376 1102 1101
f 376 1101 379
f 379 1101 1104
f 379 1104 378
f 378 1104 1103
f 378 1103 381
f 381 1103 1106
f 381 1106 380
f 380 1106 1105
f 380 1105 383
f 383 1105 1108
f 383 1108 382
f 382 1108 1107
f 382 1107 385
f 385 1107 1110
f 385 1110 384
f 384 1110 1109
f 384 1109 542
f 542 1109 1267
f 542 1267 591
f 591 1267 1316
f 591 1316 615
f 615 1316 1340
f 615 1340 629
f 629 1340 1354
f 629 1354 677
f 677 1354 1402
f 677 1402 667
f 667 1402 1392
f 667 1392 654
f 654 1392 1379
f 654 1379 630
f 630 1379 1355
f 630 1355 616
f 616 1355 1341
f 616 1341 592
f 592 1341 1317
f 592 1317 543
f 543 1317 1268
f 543 1268 387
f 387 1268 1111
f 387 1111 388
f 388 1111 1113
f 388 1113 386
f 386 1113 1112
f 386 1112 390
f 390 1112 1115
f 390 1115 389
f 389 1115 1114
f 389 1114 392
f 392 1114 1117
f 392 1117 391
f 391 1117 1116
f 391 1116 394
f 394 1116 1119
f 394 1119 393
f 393 1119 1118
f 393 1118 396
f 396 1118 1121
f 396 1121 395
f 395 1121 1120
f 395 1120 398
f 398 1120 1123
f 398 1123 397
f 397 1123 1122
f 397 1122 400
f 400 1122 1125
f 400 1125 399
f 399 1125 1124
f 399 1124 402
f 402 1124 1127
f 402 1127 401
f 401 1127 1126
f 401 1126 404
f 404 1126 1129
f 404 1129 403
f 403 1129 1128
f 403 1128 406
f 406 1128 1131
f 406 1131 405
f 405 1131 1130
f 405 1130 408
f 408 1130 1133
f 408 1133 407
f 407 1133 1132
f 407 1132 410
f 410 1132 1135
f 410 1135 409
f 409 1135 1134
f 409 1134 412
f 412 1134 1137
f 412 1137 411
f 411 1137 1136
f 411 1136 514
f 514 1136 1239
f 514 1239 544
f 544 1239 1269
f 544 1269 515
f 515 1269 1240
f 515 1240 414
f 414 1240 1138
f 414 1138 415
f 415 1138 1140
f 415 1140 413
f 413 1140 1139
f 413 1139 417
f 417 1139 1142
f 417 1142 416
f 416 1142 1141
f 416 1141 419
f 419 1141 1144
f 419 1144 418
f 418 1144 1143
f 418 1143 421
f 421 1143 1146
f 421 1146 420
f 420 1146 1145
f 420 1145 423
f 423 1145 1148
f 423 1148 422
f 422 1148 1147
f 422 1147 425
f 425 1147 1150
f 425 1150 424
f 424 1150 1149
f 424 1149 427
f 427 1149 1152
f 427 1152 426
f 426 1152 1151
f 426 1151 429
f 429 1151 1154
f 429 1154 428
f 428 1154 1153
f 428 1153 431
f 431 1153 1156
f 431 1156 430
f 430 1156 1155
f 430 1155 433
f 433 1155 1158
f 433 1158 432
f 432 1158 1157
f 432 1157 545
f 545 1157 1270
f 545 1270 593
f 593 1270 1318
f 593 1318 617
f 617 1318 1342
f 617 1342 631
f 631 1342 1356
f 631 1356 644
f 644 1356 1369
f 644 1369 655
f 655 1369 1380
f 655 1380 668
f 668 1380 1393
f 668 1393 645
f 645 1393 1370
f 645 1370 618
f 618 1370 1343
f 618 1343 594
f 594 1343 1319
f 594 1319 568
f 568 1319 1293
f 568 1293 516
f 516 1293 1241
f 516 1241 435
f 435 1241 1159
f 435 1159 436
f 436 1159 1161
f 436 1161 434
f 434 1161 1160
f 434 1160 438
f 438 1160 1163
f 438 1163 437
f 437 1163 1162
f 437 1162 440
f 440 1162 1165
f 440 1165 439
f 439 1165 1164
f 439 1164 632
f 632 1164 1357
f 632 1357 656
f 656 1357 1381
f 656 1381 595
f 595 1381 1320
f 595 1320 569
f 569 1320 1294
f 569 1294 517
f 517 1294 1242
f 517 1242 442
f 442 1242 1166
f 442 1166 443
f 443 1166 1168
f 443 1168 441
f 441 1168 1167
f 441 1167 445
f 445 1167 1170
f 445 1170 444
f 444 1170 1169
f 444 1169 447
f 447 1169 1172
f 447 1172 446
f 446 1172 1171
f 446 1171 619
f 619 1171 1344
f 619 1344 633
f 633 1344 1358
f 633 1358 646
f 646 1358 1371
f 646 1371 678
f 678 1371 1403
f 678 1403 689
f 689 1403 1414
f 689 1414 709
f 709 1414 1434
f 709 1434 712
f 712 1434 1437
f 712 1437 620
f 620 1437 1345
f 620 1345 596
f 596 1345 1321
f 596 1321 546
f 546 1321 1271
f 546 1271 449
f 449 1271 1173
f 449 1173 450
f 450 1173 1175
f 450 1175 448
f 448 1175 1174
f 448 1174 452
f 452 1174 1177
f 452 1177 451
f 451 1177 1176
f 451 1176 454
f 454 1176 1179
f 454 1179 453
f 453 1179 1178
f 453 1178 518
f 518 1178 1243
f 518 1243 547
f 547 1243 1272
f 547 1272 634
f 634 1272 1359
f 634 1359 621
f 621 1359 1346
f 621 1346 570
f 570 1346 1295
f 570 1295 519
f 519 1295 1244
f 519 1244 456
f 456 1244 1180
f 456 1180 457
f 457 1180 1182
f 457 1182 455
f 455 1182 1181
f 455 1181 459
f 459 1181 1184
f 459 1184 458
f 458 1184 1183
f 458 1183 461
f 461 1183 1186
f 461 1186 460
f 460 1186 1185
f 460 1185 597
f 597 1185 1322
f 597 1322 635
f 635 1322 1360
f 635 1360 647
f 647 1360 1372
f 647 1372 679
f 679 1372 1404
f 679 1404 669
f 669 1404 1394
f 669 1394 657
f 657 1394 1382
f 657 1382 648
f 648 1382 1373
f 648 1373 636
f 636 1373 1361
f 636 1361 598
f 598 1361 1323
f 598 1323 571
f 571 1323 1296
f 571 1296 520
f 520 1296 1245
f 520 1245 463
f 463 1245 1187
f 463 1187 464
f 464 1187 1189
f 464 1189 462
f 462 1189 1188
f 462 1188 466
f 466 1188 1191
f 466 1191 465
f 465 1191 1190
f 465 1190 468
f 468 1190 1193
f 468 1193 467
f 467 1193 1192
f 467 1192 470
f 470 1192 1195
f 470 1195 469
f 469 1195 1194
f 469 1194 472
f 472 1194 1197
f 472 1197 471
f 471 1197 1196
f 471 1196 474
f 474 1196 1199
f 474 1199 473
f 473 1199 1198
f 473 1198 521
f 521 1198 1246
f 521 1246 572
f 572 1246 1297
f 572 1297 599
f 599 1297 1324
f 599 1324 685
f 685 1324 1410
f 685 1410 686
f 686 1410 1411
f 686 1411 670
f 670 1411 1395
f 670 1395 658
f 658 1395 1383
f 658 1383 649
f 649 1383 1374
f 649 1374 600
f 600 1374 1325
f 600 1325 573
f 573 1325 1298
f 573 1298 522
f 522 1298 1247
f 522 1247 476
f 476 1247 1200
f 476 1200 477
f 477 1200 1202
f 477 1202 475
f 475 1202 1201
f 475 1201 479
f 479 1201 1204
f 479 1204 478
f 478 1204 1203
f 478 1203 481
f 481 1203 1206
f 481 1206 480
f 480 1206 1205
f 480 1205 483
f 483 1205 1208
f 483 1208 482
f 482 1208 1207
f 482 1207 485
f 485 1207 1209
f 485 1209 486
f 486 1209 1211
f 486 1211 484
f 484 1211 1210
f 484 1210 488
f 488 1210 1213
f 488 1213 487
f 487 1213 1212
f 487 1212 490
f 490 1212 1215
f 490 1215 489
f 489 1215 1214
f 489 1214 492
f 492 1214 1217
f 492 1217 491
f 491 1217 1216
f 491 1216 494
f 494 1216 1219
f 494 1219 493
f 493 1219 1218
f 493 1218 495
f 495 1218 1220
f 495 1220 2
f 2 1220 726
f 2 726 3
f 3 726 728
f 3 728 1
f 1 728 727
