o 
v 57.588 0 -49.193
v 6.12 0 -49.3
v 57.567 0 -49.401
v 59.57 0 -51.01
v 62.784 0 -49.633
v 62.11 0 -49.92
v 57.645 0 -49.609
v 7.54 0 -50.51
v 6.892 0 -49.97
v 11.671 0 -53.423
v 9.391 0 -51.882
v 16.886 0 -56.623
v 14.221 0 -55.036
v 21.93 0 -59.33
v 19.508 0 -58.087
v 33.477 0 -68.936
v 34.684 0 -67.851
v 34.46 0 -68.05
v 32.091 0 -70.466
v 32.701 0 -69.723
v 31.202 0 -72.053
v 31.605 0 -71.224
v 30.737 0 -73.33
v 30.84 0 -73.01
v 30.628 0 -73.781
v 30.666 0 -73.585
v 30.645 0 -74.022
v 30.621 0 -73.925
v 30.863 0 -74.141
v 30.7 0 -74.08
v 31.719 0 -74.396
v 31.213 0 -74.249
v 33.078 0 -74.775
v 32.35 0 -74.574
v 35.657 0 -75.434
v 33.87 0 -74.99
v 38.844 0 -75.97
v 37.296 0 -75.758
v 41.894 0 -76.08
v 40.357 0 -76.075
v 44.973 0 -75.9
v 43.51 0 -75.99
v 53.564 0 -78.011
v 53.56 0 -76.03
v 53.56 0 -77.45
v 53.627 0 -78.714
v 53.583 0 -78.42
v 53.831 0 -79.106
v 53.707 0 -78.93
v 54.209 0 -79.44
v 54.01 0 -79.28
v 54.731 0 -79.635
v 54.429 0 -79.555
v 55.83 0 -79.724
v 55.177 0 -79.688
v 60.2 0 -79.18
v 56.75 0 -79.75
v 59.04 0 -79.82
v 61.38 0 -82.47
v 61.36 0 -78.54
v 61.36 0 -80.52
v 65.43 0 -85.7
v 63.41 0 -84.09
v 70.46 0 -85.47
v 67.95 0 -85.59
v 73.052 0 -84.11
v 72.37 0 -84.48
v 74.005 0 -83.519
v 73.588 0 -83.796
v 74.598 0 -82.991
v 74.332 0 -83.257
v 75.033 0 -82.41
v 74.83 0 -82.7
v 75.268 0 -81.956
v 75.176 0 -82.169
v 75.322 0 -81.546
v 75.314 0 -81.755
v 75.249 0 -81.11
v 75.3 0 -81.31
v 75.106 0 -80.792
v 75.186 0 -80.938
v 74.886 0 -80.575
v 75.007 0 -80.672
v 74.31 0 -80.29
v 74.74 0 -80.5
v 75.055 0 -75.059
v 74.88 0 -75.63
v 74.972 0 -75.33
v 75.181 0 -74.645
v 75.126 0 -74.826
v 75.23 0 -74.48
v 75.217 0 -74.526
v 75.141 0 -74.403
v 75.207 0 -74.455
v 74.906 0 -74.237
v 75.039 0 -74.329
v 74.57 0 -74.02
v 74.747 0 -74.133
v 73.592 0 -72.479
v 73.758 0 -73.034
v 73.67 0 -72.73
v 73.353 0 -71.874
v 73.484 0 -72.187
v 73.053 0 -71.252
v 73.206 0 -71.556
v 72.37 0 -70.06
v 72.9 0 -70.98
v 70.795 0 -70.216
v 71.15 0 -70.17
v 70.001 0 -70.36
v 70.405 0 -70.281
v 69.237 0 -70.544
v 69.605 0 -70.449
v 67.91 0 -70.98
v 68.92 0 -70.64
v 67.625 0 -66.689
v 67.255 0 -68.755
v 67.43 0 -67.84
v 67.628 0 -64.743
v 67.697 0 -65.7
v 66.983 0 -62.403
v 67.396 0 -63.687
v 65.981 0 -59.723
v 66.37 0 -60.76
v 74.428 0 -53.545
v 73.29 0 -53.01
v 74.15 0 -53.42
v 74.941 0 -53.709
v 74.692 0 -53.641
v 75.391 0 -53.762
v 75.174 0 -53.749
v 86.472 0 -58.288
v 81.979 0 -56.265
v 85.71 0 -57.95
v 87.876 0 -58.879
v 87.205 0 -58.602
v 88.897 0 -59.266
v 88.451 0 -59.105
v 95.873 0 -62.033
v 93.331 0 -60.96
v 94.61 0 -61.5
v 97.979 0 -62.908
v 97.011 0 -62.508
v 99.214 0 -63.402
v 98.729 0 -63.212
v 99.487 0 -63.277
v 99.39 0 -63.46
v 99.766 0 -62.536
v 99.621 0 -62.942
v 99.982 0 -61.839
v 99.895 0 -62.141
v 99.826 0 -61.628
v 100 0 -61.71
v 98.655 0 -61.119
v 99.363 0 -61.425
v 96.684 0 -60.273
v 97.747 0 -60.729
v 86.98 0 -54.2
v 90.83 0 -56.72
v 90.83 0 -55.94
v 79.3 0 -50.74
v 81.868 0 -51.897
v 81.22 0 -51.6
v 79.29 0 -49.623
v 79.3 0 -49.96
v 79.088 0 -49.089
v 79.234 0 -49.352
v 78.358 0 -48.351
v 78.81 0 -48.775
v 76.868 0 -47.054
v 77.69 0 -47.76
v 75.706 0 -46.391
v 76.242 0 -46.603
v 74.481 0 -46.612
v 75.154 0 -46.4
v 72.11 0 -47.7
v 73.58 0 -47.01
v 68.444 0 -41.821
v 66.713 0 -43.173
v 67.32 0 -42.71
v 69.868 0 -40.234
v 69.278 0 -41.021
v 70.497 0 -38.39
v 70.259 0 -39.383
v 70.77 0 -35.4
v 70.63 0 -37.18
v 72.8 0 -29.35
v 71.43 0 -34.84
v 72.11 0 -34.29
v 73.148 0 -26.796
v 72.983 0 -28.023
v 73.396 0 -24.854
v 73.287 0 -25.723
v 73.49 0 -23.94
v 73.465 0 -24.242
v 73.441 0 -23.644
v 73.479 0 -23.777
v 73.259 0 -23.442
v 73.37 0 -23.535
v 72.89 0 -23.28
v 73.101 0 -23.359
v 72.32 0 -22.765
v 72.28 0 -22.97
v 72.295 0 -22.899
v 72.73 0 -20.78
v 72.449 0 -22.095
v 72.51 0 -21.82
v 74.049 0 -20.385
v 73.68 0 -20.52
v 74.978 0 -19.899
v 74.476 0 -20.181
v 76.273 0 -19.049
v 75.571 0 -19.525
v 79.56 0 -16.68
v 77.1 0 -18.46
v 79.555 0 -15.511
v 79.56 0 -15.81
v 79.506 0 -15.13
v 79.539 0 -15.287
v 79.381 0 -14.976
v 79.455 0 -15.029
v 78.453 0 -14.923
v 79.28 0 -14.96
v 66.94 0 -15.2
v 68.35 0 -14.37
v 67.27 0 -14.3
v 66.279 0 -17.126
v 66.565 0 -16.238
v 65.911 0 -18.718
v 66.066 0 -17.93
v 65.71 0 -20.51
v 65.798 0 -19.556
v 64.226 0 -25.412
v 64.77 0 -24.23
v 64.448 0 -24.893
v 63.988 0 -26.431
v 64.08 0 -25.89
v 63.87 0 -28.12
v 63.926 0 -27.14
v 63.667 0 -30.979
v 63.7 0 -30.654
v 63.68 0 -30.84
v 63.728 0 -31.176
v 63.681 0 -31.09
v 63.942 0 -31.297
v 63.813 0 -31.244
v 64.814 0 -33.539
v 64.673 0 -32.137
v 64.72 0 -32.61
v 60.784 0 -36.118
v 63.195 0 -35.256
v 61.76 0 -35.76
v 58.289 0 -37.068
v 59.603 0 -36.563
v 55.551 0 -38.144
v 56.914 0 -37.604
v 53.103 0 -39.136
v 54.27 0 -38.66
v 45.828 0 -32.922
v 47.429 0 -36.075
v 46.63 0 -34.5
v 44.454 0 -30.259
v 45.092 0 -31.489
v 43.596 0 -28.645
v 43.945 0 -29.291
v 42.868 0 -28.074
v 43.44 0 -28.38
v 40.246 0 -27.23
v 41.749 0 -27.676
v 36.735 0 -26.373
v 38.521 0 -26.781
v 31.79 0 -25.52
v 35.05 0 -26.05
v 28.58 0 -26.38
v 30.18 0 -25.95
v 25.839 0 -18.316
v 25.32 0 -18.6
v 25.594 0 -18.455
v 26.208 0 -18.078
v 26.046 0 -18.188
v 26.36 0 -17.94
v 26.316 0 -17.993
v 26.39 0 -16.897
v 26.372 0 -17.482
v 26.381 0 -17.209
v 26.43 0 -15.31
v 26.4 0 -16.56
v 24.865 0 -15.362
v 25.91 0 -15.32
v 22.096 0 -15.58
v 23.523 0 -15.456
v 19.837 0 -15.838
v 20.797 0 -15.714
v 19.357 0 -16.115
v 19.43 0 -15.93
v 19.02 0 -17.209
v 19.216 0 -16.554
v 18.51 0 -19.006
v 18.78 0 -18.039
v 17.644 0 -22.147
v 18.22 0 -20.07
v 17.922 0 -21.142
v 16.898 0 -24.799
v 17.04 0 -24.312
v 16.95 0 -24.6
v 16.849 0 -25.336
v 16.864 0 -25.045
v 16.876 0 -26.05
v 16.852 0 -25.672
v 17.07 0 -27.82
v 16.92 0 -26.47
v 2.74 0 -46.16
v 3.09 0 -43.42
v 0 0 -43.47
v 4.393 0 -47.737
v 3.534 0 -46.929
v 5.271 0 -48.541
v 57.7 0 -48.97
v 57.83 0 -49.829
v 75.59 0 -53.75
v 89.18 0 -59.35
v 95.51 0 -59.77
v 90.836 0 -56.935
v 82.716 0 -52.283
v 72.354 0 -22.579
v 69.656 0 -14.448
v 65.636 0 -21.402
v 65.082 0 -23.588
v 64.12 0 -31.34
v 26.362 0 -17.861
v 17.397 0 -23.04
v 4.88 0 -43.364
v 57.992 0 -48.73
v 58.129 0 -50.074
v 67.153 0 -69.367
v 65.692 0 -58.915
v 79.346 0 -55.09
v 89.534 0 -59.456
v 90.851 0 -57.143
v 83.706 0 -52.731
v 66.275 0 -43.53
v 71.773 0 -14.567
v 63.727 0 -30.326
v 64.321 0 -31.392
v 24.3 0 -19.16
v 26.366 0 -17.704
v 17.193 0 -23.777
v 20.11 0 -29.12
v 6.566 0 -43.246
v 58.55 0 -50.36
v 24.42 0 -60.611
v 34.829 0 -67.702
v 74.784 0 -75.992
v 73.859 0 -73.284
v 75.933 0 -53.756
v 92.131 0 -60.465
v 90.874 0 -57.333
v 74.246 0 -14.702
v 65.557 0 -22.068
v 65.303 0 -23.072
v 63.76 0 -29.881
v 52.043 0 -39.564
v 48.157 0 -37.491
v 20.914 0 -29.474
v 8.132 0 -43.068
v 58.596 0 -48.347
v 27.129 0 -62.125
v 67.124 0 -69.762
v 76.534 0 -53.923
v 77.601 0 -54.339
v 91.063 0 -60.035
v 94.335 0 -59.262
v 90.903 0 -57.494
v 65.98 0 -43.807
v 72.73 0 -23.226
v 76.624 0 -14.829
v 65.454 0 -22.595
v 63.796 0 -29.347
v 51.132 0 -39.925
v 48.783 0 -38.693
v 21.645 0 -29.796
v 9.56 0 -42.831
v 59.362 0 -47.903
v 34.901 0 -67.58
v 74.69 0 -76.439
v 73.981 0 -73.495
v 65.495 0 -58.313
v 90.179 0 -59.692
v 93.269 0 -58.791
v 90.935 0 -57.617
v 84.784 0 -53.217
v 65.801 0 -44.034
v 72.585 0 -23.166
v 63.834 0 -28.751
v 50.417 0 -40.203
v 49.277 0 -39.622
v 24.02 0 -20.94
v 10.832 0 -42.538
v 60.141 0 -47.48
v 29.788 0 -63.704
v 34.908 0 -67.465
v 74.43 0 -78.52
v 74.603 0 -76.944
v 74.134 0 -73.679
v 65.385 0 -57.892
v 92.355 0 -58.377
v 90.97 0 -57.69
v 85.894 0 -53.715
v 49.609 0 -40.224
v 23.948 0 -21.426
v 22.271 0 -30.074
v 11.93 0 -42.19
v 60.78 0 -47.161
v 32.124 0 -65.182
v 34.856 0 -67.335
v 52.5 0 -75.9
v 74.527 0 -77.477
v 74.328 0 -73.849
v 69.89 0 -46.77
v 65.714 0 -44.235
v 72.397 0 -22.351
v 23.883 0 -21.88
v 22.762 0 -30.294
v 12.964 0 -41.747
v 61.13 0 -47.03
v 34.75 0 -67.17
v 74.467 0 -78.012
v 72.461 0 -23.106
v 49.75 0 -40.44
v 23.829 0 -22.284
v 23.085 0 -30.444
v 63.389 0 -49.368
v 91.162 0 -57.807
v 72.365 0 -23.05
v 64.462 0 -31.467
v 26.16 0 -24.81
v 23.787 0 -22.616
v 23.21 0 -30.51
v 14.1 0 -41.139
v 63.901 0 -49.138
v 33.868 0 -66.393
v 51.454 0 -75.84
v 91.638 0 -58.043
v 68.128 0 -46.03
v 72.302 0 -23.003
v 64.559 0 -31.596
v 23.76 0 -22.858
v 15.271 0 -40.411
v 64.298 0 -48.952
v 46.645 0 -75.84
v 50.031 0 -75.81
v 66.946 0 -45.517
v 64.624 0 -31.81
v 23.75 0 -22.99
v 16.41 0 -39.611
v 64.556 0 -48.822
v 48.38 0 -75.81
v 65.69 0 -44.44
v 17.449 0 -38.786
v 72.38 0 -53.51
v 23.837 0 -23.113
v 18.32 0 -37.98
v 70.774 0 -54.402
v 24.081 0 -23.331
v 19.291 0 -36.838
v 67.5 0 -70.5
v 69.199 0 -55.287
v 64.815 0 -34.153
v 24.46 0 -23.626
v 20.414 0 -35.328
v 67.296 0 -70.243
v 67.765 0 -56.101
v 64.616 0 -34.567
v 24.949 0 -23.983
v 21.53 0 -33.694
v 67.171 0 -70.026
v 66.581 0 -56.783
v 65.714 0 -44.692
v 25.523 0 -24.383
v 22.476 0 -32.182
v 65.756 0 -57.27
v 64.112 0 -34.897
v 23.089 0 -31.039
v 65.4 0 -57.5
v 65.355 0 -57.629
v 66.226 0 -45.166
v 65.854 0 -44.913
v 49.942 0 -40.38
v 64.65 0 -48.76
v 61.248 0 -47.059
v 64.594 0 -48.706
v 61.469 0 -47.14
v 64.429 0 -48.599
v 61.774 0 -47.266
v 64.171 0 -48.45
v 62.145 0 -47.43
v 63.837 0 -48.267
v 62.563 0 -47.624
v 63.445 0 -48.061
v 63.01 0 -47.84
v 6.12 10 -49.3
v 57.588 10 -49.193
v 57.567 10 -49.401
v 62.784 10 -49.633
v 59.57 10 -51.01
v 62.11 10 -49.92
v 57.645 10 -49.609
v 7.54 10 -50.51
v 6.892 10 -49.97
v 11.671 10 -53.423
v 9.391 10 -51.882
v 16.886 10 -56.623
v 14.221 10 -55.036
v 21.93 10 -59.33
v 19.508 10 -58.087
v 34.684 10 -67.851
v 33.477 10 -68.936
v 34.46 10 -68.05
v 32.091 10 -70.466
v 32.701 10 -69.723
v 31.202 10 -72.053
v 31.605 10 -71.224
v 30.737 10 -73.33
v 30.84 10 -73.01
v 30.628 10 -73.781
v 30.666 10 -73.585
v 30.645 10 -74.022
v 30.621 10 -73.925
v 30.863 10 -74.141
v 30.7 10 -74.08
v 31.719 10 -74.396
v 31.213 10 -74.249
v 33.078 10 -74.775
v 32.35 10 -74.574
v 35.657 10 -75.434
v 33.87 10 -74.99
v 38.844 10 -75.97
v 37.296 10 -75.758
v 41.894 10 -76.08
v 40.357 10 -76.075
v 44.973 10 -75.9
v 43.51 10 -75.99
v 53.56 10 -76.03
v 53.564 10 -78.011
v 53.56 10 -77.45
v 53.627 10 -78.714
v 53.583 10 -78.42
v 53.831 10 -79.106
v 53.707 10 -78.93
v 54.209 10 -79.44
v 54.01 10 -79.28
v 54.731 10 -79.635
v 54.429 10 -79.555
v 55.83 10 -79.724
v 55.177 10 -79.688
v 56.75 10 -79.75
v 60.2 10 -79.18
v 59.04 10 -79.82
v 61.36 10 -78.54
v 61.38 10 -82.47
v 61.36 10 -80.52
v 65.43 10 -85.7
v 63.41 10 -84.09
v 70.46 10 -85.47
v 67.95 10 -85.59
v 73.052 10 -84.11
v 72.37 10 -84.48
v 74.005 10 -83.519
v 73.588 10 -83.796
v 74.598 10 -82.991
v 74.332 10 -83.257
v 75.033 10 -82.41
v 74.83 10 -82.7
v 75.268 10 -81.956
v 75.176 10 -82.169
v 75.322 10 -81.546
v 75.314 10 -81.755
v 75.249 10 -81.11
v 75.3 10 -81.31
v 75.106 10 -80.792
v 75.186 10 -80.938
v 74.886 10 -80.575
v 75.007 10 -80.672
v 74.31 10 -80.29
v 74.74 10 -80.5
v 74.88 10 -75.63
v 75.055 10 -75.059
v 74.972 10 -75.33
v 75.181 10 -74.645
v 75.126 10 -74.826
v 75.23 10 -74.48
v 75.217 10 -74.526
v 75.141 10 -74.403
v 75.207 10 -74.455
v 74.906 10 -74.237
v 75.039 10 -74.329
v 74.57 10 -74.02
v 74.747 10 -74.133
v 73.758 10 -73.034
v 73.592 10 -72.479
v 73.67 10 -72.73
v 73.353 10 -71.874
v 73.484 10 -72.187
v 73.053 10 -71.252
v 73.206 10 -71.556
v 72.37 10 -70.06
v 72.9 10 -70.98
v 70.795 10 -70.216
v 71.15 10 -70.17
v 70.001 10 -70.36
v 70.405 10 -70.281
v 69.237 10 -70.544
v 69.605 10 -70.449
v 67.91 10 -70.98
v 68.92 10 -70.64
v 67.255 10 -68.755
v 67.625 10 -66.689
v 67.43 10 -67.84
v 67.628 10 -64.743
v 67.697 10 -65.7
v 66.983 10 -62.403
v 67.396 10 -63.687
v 65.981 10 -59.723
v 66.37 10 -60.76
v 73.29 10 -53.01
v 74.428 10 -53.545
v 74.15 10 -53.42
v 74.941 10 -53.709
v 74.692 10 -53.641
v 75.391 10 -53.762
v 75.174 10 -53.749
v 81.979 10 -56.265
v 86.472 10 -58.288
v 85.71 10 -57.95
v 87.876 10 -58.879
v 87.205 10 -58.602
v 88.897 10 -59.266
v 88.451 10 -59.105
v 93.331 10 -60.96
v 95.873 10 -62.033
v 94.61 10 -61.5
v 97.979 10 -62.908
v 97.011 10 -62.508
v 99.214 10 -63.402
v 98.729 10 -63.212
v 99.487 10 -63.277
v 99.39 10 -63.46
v 99.766 10 -62.536
v 99.621 10 -62.942
v 99.982 10 -61.839
v 99.895 10 -62.141
v 99.826 10 -61.628
v 100 10 -61.71
v 98.655 10 -61.119
v 99.363 10 -61.425
v 96.684 10 -60.273
v 97.747 10 -60.729
v 90.83 10 -56.72
v 86.98 10 -54.2
v 90.83 10 -55.94
v 81.868 10 -51.897
v 79.3 10 -50.74
v 81.22 10 -51.6
v 79.29 10 -49.623
v 79.3 10 -49.96
v 79.088 10 -49.089
v 79.234 10 -49.352
v 78.358 10 -48.351
v 78.81 10 -48.775
v 76.868 10 -47.054
v 77.69 10 -47.76
v 75.706 10 -46.391
v 76.242 10 -46.603
v 74.481 10 -46.612
v 75.154 10 -46.4
v 72.11 10 -47.7
v 73.58 10 -47.01
v 66.713 10 -43.173
v 68.444 10 -41.821
v 67.32 10 -42.71
v 69.868 10 -40.234
v 69.278 10 -41.021
v 70.497 10 -38.39
v 70.259 10 -39.383
v 70.77 10 -35.4
v 70.63 10 -37.18
v 71.43 10 -34.84
v 72.8 10 -29.35
v 72.11 10 -34.29
v 73.148 10 -26.796
v 72.983 10 -28.023
v 73.396 10 -24.854
v 73.287 10 -25.723
v 73.49 10 -23.94
v 73.465 10 -24.242
v 73.441 10 -23.644
v 73.479 10 -23.777
v 73.259 10 -23.442
v 73.37 10 -23.535
v 72.89 10 -23.28
v 73.101 10 -23.359
v 72.28 10 -22.97
v 72.32 10 -22.765
v 72.295 10 -22.899
v 72.449 10 -22.095
v 72.73 10 -20.78
v 72.51 10 -21.82
v 74.049 10 -20.385
v 73.68 10 -20.52
v 74.978 10 -19.899
v 74.476 10 -20.181
v 76.273 10 -19.049
v 75.571 10 -19.525
v 79.56 10 -16.68
v 77.1 10 -18.46
v 79.555 10 -15.511
v 79.56 10 -15.81
v 79.506 10 -15.13
v 79.539 10 -15.287
v 79.381 10 -14.976
v 79.455 10 -15.029
v 78.453 10 -14.923
v 79.28 10 -14.96
v 68.35 10 -14.37
v 66.94 10 -15.2
v 67.27 10 -14.3
v 66.279 10 -17.126
v 66.565 10 -16.238
v 65.911 10 -18.718
v 66.066 10 -17.93
v 65.71 10 -20.51
v 65.798 10 -19.556
v 64.77 10 -24.23
v 64.226 10 -25.412
v 64.448 10 -24.893
v 63.988 10 -26.431
v 64.08 10 -25.89
v 63.87 10 -28.12
v 63.926 10 -27.14
v 63.7 10 -30.654
v 63.667 10 -30.979
v 63.68 10 -30.84
v 63.728 10 -31.176
v 63.681 10 -31.09
v 63.942 10 -31.297
v 63.813 10 -31.244
v 64.673 10 -32.137
v 64.814 10 -33.539
v 64.72 10 -32.61
v 63.195 10 -35.256
v 60.784 10 -36.118
v 61.76 10 -35.76
v 58.289 10 -37.068
v 59.603 10 -36.563
v 55.551 10 -38.144
v 56.914 10 -37.604
v 53.103 10 -39.136
v 54.27 10 -38.66
v 47.429 10 -36.075
v 45.828 10 -32.922
v 46.63 10 -34.5
v 44.454 10 -30.259
v 45.092 10 -31.489
v 43.596 10 -28.645
v 43.945 10 -29.291
v 42.868 10 -28.074
v 43.44 10 -28.38
v 40.246 10 -27.23
v 41.749 10 -27.676
v 36.735 10 -26.373
v 38.521 10 -26.781
v 31.79 10 -25.52
v 35.05 10 -26.05
v 28.58 10 -26.38
v 30.18 10 -25.95
v 25.32 10 -18.6
v 25.839 10 -18.316
v 25.594 10 -18.455
v 26.208 10 -18.078
v 26.046 10 -18.188
v 26.36 10 -17.94
v 26.316 10 -17.993
v 26.372 10 -17.482
v 26.39 10 -16.897
v 26.381 10 -17.209
v 26.43 10 -15.31
v 26.4 10 -16.56
v 24.865 10 -15.362
v 25.91 10 -15.32
v 22.096 10 -15.58
v 23.523 10 -15.456
v 19.837 10 -15.838
v 20.797 10 -15.714
v 19.357 10 -16.115
v 19.43 10 -15.93
v 19.02 10 -17.209
v 19.216 10 -16.554
v 18.51 10 -19.006
v 18.78 10 -18.039
v 18.22 10 -20.07
v 17.644 10 -22.147
v 17.922 10 -21.142
v 17.04 10 -24.312
v 16.898 10 -24.799
v 16.95 10 -24.6
v 16.849 10 -25.336
v 16.864 10 -25.045
v 16.876 10 -26.05
v 16.852 10 -25.672
v 17.07 10 -27.82
v 16.92 10 -26.47
v 3.09 10 -43.42
v 2.74 10 -46.16
v 0 10 -43.47
v 4.393 10 -47.737
v 3.534 10 -46.929
v 5.271 10 -48.541
v 57.7 10 -48.97
v 57.83 10 -49.829
v 75.59 10 -53.75
v 89.18 10 -59.35
v 95.51 10 -59.77
v 90.836 10 -56.935
v 82.716 10 -52.283
v 72.354 10 -22.579
v 69.656 10 -14.448
v 65.636 10 -21.402
v 65.082 10 -23.588
v 64.12 10 -31.34
v 26.362 10 -17.861
v 17.397 10 -23.04
v 4.88 10 -43.364
v 57.992 10 -48.73
v 58.129 10 -50.074
v 67.153 10 -69.367
v 65.692 10 -58.915
v 79.346 10 -55.09
v 89.534 10 -59.456
v 90.851 10 -57.143
v 83.706 10 -52.731
v 66.275 10 -43.53
v 71.773 10 -14.567
v 63.727 10 -30.326
v 64.321 10 -31.392
v 24.3 10 -19.16
v 26.366 10 -17.704
v 17.193 10 -23.777
v 20.11 10 -29.12
v 6.566 10 -43.246
v 58.55 10 -50.36
v 24.42 10 -60.611
v 34.829 10 -67.702
v 74.784 10 -75.992
v 73.859 10 -73.284
v 75.933 10 -53.756
v 92.131 10 -60.465
v 90.874 10 -57.333
v 74.246 10 -14.702
v 65.557 10 -22.068
v 65.303 10 -23.072
v 63.76 10 -29.881
v 52.043 10 -39.564
v 48.157 10 -37.491
v 20.914 10 -29.474
v 8.132 10 -43.068
v 58.596 10 -48.347
v 27.129 10 -62.125
v 67.124 10 -69.762
v 76.534 10 -53.923
v 77.601 10 -54.339
v 91.063 10 -60.035
v 94.335 10 -59.262
v 90.903 10 -57.494
v 65.98 10 -43.807
v 72.73 10 -23.226
v 76.624 10 -14.829
v 65.454 10 -22.595
v 63.796 10 -29.347
v 51.132 10 -39.925
v 48.783 10 -38.693
v 21.645 10 -29.796
v 9.56 10 -42.831
v 59.362 10 -47.903
v 34.901 10 -67.58
v 74.69 10 -76.439
v 73.981 10 -73.495
v 65.495 10 -58.313
v 90.179 10 -59.692
v 93.269 10 -58.791
v 90.935 10 -57.617
v 84.784 10 -53.217
v 65.801 10 -44.034
v 72.585 10 -23.166
v 63.834 10 -28.751
v 50.417 10 -40.203
v 49.277 10 -39.622
v 24.02 10 -20.94
v 10.832 10 -42.538
v 60.141 10 -47.48
v 29.788 10 -63.704
v 34.908 10 -67.465
v 74.43 10 -78.52
v 74.603 10 -76.944
v 74.134 10 -73.679
v 65.385 10 -57.892
v 92.355 10 -58.377
v 90.97 10 -57.69
v 85.894 10 -53.715
v 49.609 10 -40.224
v 23.948 10 -21.426
v 22.271 10 -30.074
v 11.93 10 -42.19
v 60.78 10 -47.161
v 32.124 10 -65.182
v 34.856 10 -67.335
v 52.5 10 -75.9
v 74.527 10 -77.477
v 74.328 10 -73.849
v 69.89 10 -46.77
v 65.714 10 -44.235
v 72.397 10 -22.351
v 23.883 10 -21.88
v 22.762 10 -30.294
v 12.964 10 -41.747
v 61.13 10 -47.03
v 34.75 10 -67.17
v 74.467 10 -78.012
v 72.461 10 -23.106
v 49.75 10 -40.44
v 23.829 10 -22.284
v 23.085 10 -30.444
v 63.389 10 -49.368
v 91.162 10 -57.807
v 72.365 10 -23.05
v 64.462 10 -31.467
v 26.16 10 -24.81
v 23.787 10 -22.616
v 23.21 10 -30.51
v 14.1 10 -41.139
v 63.901 10 -49.138
v 33.868 10 -66.393
v 51.454 10 -75.84
v 91.638 10 -58.043
v 68.128 10 -46.03
v 72.302 10 -23.003
v 64.559 10 -31.596
v 23.76 10 -22.858
v 15.271 10 -40.411
v 64.298 10 -48.952
v 46.645 10 -75.84
v 50.031 10 -75.81
v 66.946 10 -45.517
v 64.624 10 -31.81
v 23.75 10 -22.99
v 16.41 10 -39.611
v 64.556 10 -48.822
v 48.38 10 -75.81
v 65.69 10 -44.44
v 17.449 10 -38.786
v 72.38 10 -53.51
v 23.837 10 -23.113
v 18.32 10 -37.98
v 70.774 10 -54.402
v 24.081 10 -23.331
v 19.291 10 -36.838
v 67.5 10 -70.5
v 69.199 10 -55.287
v 64.815 10 -34.153
v 24.46 10 -23.626
v 20.414 10 -35.328
v 67.296 10 -70.243
v 67.765 10 -56.101
v 64.616 10 -34.567
v 24.949 10 -23.983
v 21.53 10 -33.694
v 67.171 10 -70.026
v 66.581 10 -56.783
v 65.714 10 -44.692
v 25.523 10 -24.383
v 22.476 10 -32.182
v 65.756 10 -57.27
v 64.112 10 -34.897
v 23.089 10 -31.039
v 65.4 10 -57.5
v 65.355 10 -57.629
v 66.226 10 -45.166
v 65.854 10 -44.913
v 49.942 10 -40.38
v 64.65 10 -48.76
v 61.248 10 -47.059
v 64.594 10 -48.706
v 61.469 10 -47.14
v 64.429 10 -48.599
v 61.774 10 -47.266
v 64.171 10 -48.45
v 62.145 10 -47.43
v 63.837 10 -48.267
v 62.563 10 -47.624
v 63.445 10 -48.061
v 63.01 10 -47.84
f 1 2 3
f 4 5 6
f 2 7 3
f 8 2 9
f 10 8 11
f 12 10 13
f 14 12 15
f 16 17 18
f 19 16 20
f 21 19 22
f 23 21 24
f 25 23 26
f 27 25 28
f 29 27 30
f 31 29 32
f 33 31 34
f 35 33 36
f 37 35 38
f 39 37 40
f 41 39 42
f 43 44 45
f 46 43 47
f 48 46 49
f 50 48 51
f 52 50 53
f 54 52 55
f 56 57 58
f 59 60 61
f 62 59 63
f 64 62 65
f 66 64 67
f 68 66 69
f 70 68 71
f 72 70 73
f 74 72 75
f 76 74 77
f 78 76 79
f 80 78 81
f 82 80 83
f 84 82 85
f 86 87 88
f 89 86 90
f 91 89 92
f 93 91 94
f 95 93 96
f 97 95 98
f 99 100 101
f 102 99 103
f 104 102 105
f 106 104 107
f 108 106 109
f 110 108 111
f 112 110 113
f 114 112 115
f 116 117 118
f 119 116 120
f 121 119 122
f 123 121 124
f 125 126 127
f 128 125 129
f 130 128 131
f 132 133 134
f 135 132 136
f 137 135 138
f 139 140 141
f 142 139 143
f 144 142 145
f 146 144 147
f 148 146 149
f 150 148 151
f 152 150 153
f 154 152 155
f 156 154 157
f 158 159 160
f 161 162 163
f 164 161 165
f 166 164 167
f 168 166 169
f 170 168 171
f 172 170 173
f 174 172 175
f 176 174 177
f 178 179 180
f 181 178 182
f 183 181 184
f 185 183 186
f 187 188 189
f 190 187 191
f 192 190 193
f 194 192 195
f 196 194 197
f 198 196 199
f 200 198 201
f 202 203 204
f 205 206 207
f 208 205 209
f 210 208 211
f 212 210 213
f 214 212 215
f 216 214 217
f 218 216 219
f 220 218 221
f 222 220 223
f 224 225 226
f 227 224 228
f 229 227 230
f 231 229 232
f 233 234 235
f 236 233 237
f 238 236 239
f 240 241 242
f 243 240 244
f 245 243 246
f 247 248 249
f 250 251 252
f 253 250 254
f 255 253 256
f 257 255 258
f 259 260 261
f 262 259 263
f 264 262 265
f 266 264 267
f 268 266 269
f 270 268 271
f 272 270 273
f 274 272 275
f 276 277 278
f 279 276 280
f 281 279 282
f 283 284 285
f 286 283 287
f 288 286 289
f 290 288 291
f 292 290 293
f 294 292 295
f 296 294 297
f 298 296 299
f 300 301 302
f 303 304 305
f 306 303 307
f 308 306 309
f 310 308 311
f 312 313 314
f 315 312 316
f 2 315 317
f 318 2 1
f 2 319 7
f 10 2 8
f 14 10 12
f 19 17 16
f 23 19 21
f 27 23 25
f 31 27 29
f 35 31 33
f 39 35 37
f 46 44 43
f 50 46 48
f 54 50 52
f 56 54 57
f 62 60 59
f 66 62 64
f 70 66 68
f 74 70 72
f 78 74 76
f 82 78 80
f 89 87 86
f 93 89 91
f 97 93 95
f 102 100 99
f 106 102 104
f 110 106 108
f 114 110 112
f 119 117 116
f 123 119 121
f 128 126 125
f 320 128 130
f 135 133 132
f 321 135 137
f 142 140 139
f 146 142 144
f 150 146 148
f 154 150 152
f 322 154 156
f 158 323 159
f 161 324 162
f 166 161 164
f 170 166 168
f 174 170 172
f 181 179 178
f 185 181 183
f 187 185 188
f 192 187 190
f 196 192 194
f 200 196 198
f 325 203 202
f 210 205 208
f 214 210 212
f 218 214 216
f 222 218 220
f 224 326 225
f 229 224 227
f 327 229 231
f 233 328 234
f 238 233 236
f 243 241 240
f 329 243 245
f 253 251 250
f 257 253 255
f 262 260 259
f 266 262 264
f 270 266 268
f 274 270 272
f 279 277 276
f 330 279 281
f 286 284 283
f 290 286 288
f 294 290 292
f 298 294 296
f 331 301 300
f 306 304 303
f 310 306 308
f 312 332 313
f 2 312 315
f 333 2 318
f 2 334 319
f 14 2 10
f 23 17 19
f 31 23 27
f 39 31 35
f 50 44 46
f 56 50 54
f 66 60 62
f 74 66 70
f 82 74 78
f 93 87 89
f 106 100 102
f 114 106 110
f 119 335 117
f 336 119 123
f 320 126 128
f 135 337 133
f 338 135 321
f 146 140 142
f 154 146 150
f 158 339 323
f 161 340 324
f 170 161 166
f 176 170 174
f 181 341 179
f 192 185 187
f 200 192 196
f 214 205 210
f 222 214 218
f 224 342 326
f 327 224 229
f 238 328 233
f 243 343 241
f 344 243 329
f 257 251 253
f 266 260 262
f 274 266 270
f 279 345 277
f 346 279 330
f 286 346 284
f 294 286 290
f 301 294 298
f 306 347 304
f 348 306 310
f 312 349 332
f 333 312 2
f 2 350 334
f 351 2 14
f 23 352 17
f 39 23 31
f 56 44 50
f 74 60 66
f 84 74 82
f 93 353 87
f 106 354 100
f 336 335 119
f 355 126 320
f 338 337 135
f 146 356 140
f 322 146 154
f 158 357 339
f 176 161 170
f 185 341 181
f 200 185 192
f 222 205 214
f 224 358 342
f 359 224 327
f 238 360 328
f 243 361 343
f 362 251 257
f 266 363 260
f 346 345 279
f 294 346 286
f 331 294 301
f 306 331 347
f 364 306 348
f 312 365 349
f 366 312 333
f 2 4 350
f 367 2 351
f 39 352 23
f 60 44 56
f 84 60 74
f 97 353 93
f 114 354 106
f 336 368 335
f 369 126 355
f 338 370 337
f 146 371 356
f 372 146 322
f 158 373 357
f 176 340 161
f 185 374 341
f 375 185 200
f 376 205 222
f 224 376 358
f 377 224 359
f 238 377 360
f 243 378 361
f 379 251 362
f 266 380 363
f 294 345 346
f 306 294 331
f 381 306 364
f 312 382 365
f 383 312 366
f 367 4 2
f 39 384 352
f 84 44 60
f 97 385 353
f 114 386 354
f 387 368 336
f 388 370 338
f 146 388 371
f 389 146 372
f 158 390 373
f 176 391 340
f 185 392 374
f 393 185 375
f 224 205 376
f 394 377 238
f 243 394 378
f 395 251 379
f 266 396 380
f 294 397 345
f 381 294 306
f 312 398 382
f 399 312 383
f 400 4 367
f 39 401 384
f 402 44 84
f 97 403 385
f 114 404 386
f 405 368 387
f 146 370 388
f 406 146 389
f 158 407 390
f 176 408 391
f 393 392 185
f 224 206 205
f 243 377 394
f 266 409 396
f 294 410 397
f 411 294 381
f 312 412 398
f 413 312 399
f 414 4 400
f 39 415 401
f 402 416 44
f 97 417 403
f 114 418 404
f 406 370 146
f 408 407 158
f 419 408 176
f 393 420 392
f 224 421 206
f 344 377 243
f 274 409 266
f 294 422 410
f 423 294 411
f 312 424 412
f 425 312 413
f 414 5 4
f 39 426 415
f 427 416 402
f 97 427 417
f 114 97 418
f 406 369 370
f 419 407 408
f 428 420 393
f 224 325 421
f 344 224 377
f 274 429 409
f 294 430 422
f 431 294 423
f 425 424 312
f 414 432 5
f 41 426 39
f 97 416 427
f 406 126 369
f 419 433 407
f 434 420 428
f 224 203 325
f 435 224 344
f 436 429 274
f 294 437 430
f 438 294 431
f 425 439 424
f 414 440 432
f 41 441 426
f 97 442 416
f 443 126 406
f 444 433 419
f 445 420 434
f 224 445 203
f 446 224 435
f 294 447 437
f 425 448 439
f 414 449 440
f 450 441 41
f 97 451 442
f 433 126 443
f 452 433 444
f 224 420 445
f 453 224 446
f 294 454 447
f 425 455 448
f 414 456 449
f 457 441 450
f 97 457 451
f 452 126 433
f 224 458 420
f 248 224 453
f 438 454 294
f 425 459 455
f 441 456 414
f 97 441 457
f 452 460 126
f 247 224 248
f 438 461 454
f 425 462 459
f 114 441 97
f 452 463 460
f 247 458 224
f 438 464 461
f 425 465 462
f 466 441 114
f 452 467 463
f 468 458 247
f 438 469 464
f 425 470 465
f 471 441 466
f 452 472 467
f 473 458 468
f 438 474 469
f 425 475 470
f 476 441 471
f 452 477 472
f 473 478 458
f 438 479 474
f 425 480 475
f 368 441 476
f 452 481 477
f 482 478 473
f 438 436 479
f 425 483 480
f 405 441 368
f 452 484 481
f 251 478 482
f 438 429 436
f 425 438 483
f 485 441 405
f 452 485 484
f 395 478 251
f 425 429 438
f 485 456 441
f 486 485 452
f 395 487 478
f 425 488 429
f 485 489 456
f 487 485 486
f 488 487 395
f 490 488 425
f 487 489 485
f 490 487 488
f 487 491 489
f 492 487 490
f 487 493 491
f 494 487 492
f 487 495 493
f 496 487 494
f 487 497 495
f 498 487 496
f 487 499 497
f 500 487 498
f 487 500 499
f 501 502 503
f 504 505 506
f 507 501 503
f 501 508 509
f 508 510 511
f 510 512 513
f 512 514 515
f 516 517 518
f 517 519 520
f 519 521 522
f 521 523 524
f 523 525 526
f 525 527 528
f 527 529 530
f 529 531 532
f 531 533 534
f 533 535 536
f 535 537 538
f 537 539 540
f 539 541 542
f 543 544 545
f 544 546 547
f 546 548 549
f 548 550 551
f 550 552 553
f 552 554 555
f 556 557 558
f 559 560 561
f 560 562 563
f 562 564 565
f 564 566 567
f 566 568 569
f 568 570 571
f 570 572 573
f 572 574 575
f 574 576 577
f 576 578 579
f 578 580 581
f 580 582 583
f 582 584 585
f 586 587 588
f 587 589 590
f 589 591 592
f 591 593 594
f 593 595 596
f 595 597 598
f 599 600 601
f 600 602 603
f 602 604 605
f 604 606 607
f 606 608 609
f 608 610 611
f 610 612 613
f 612 614 615
f 616 617 618
f 617 619 620
f 619 621 622
f 621 623 624
f 625 626 627
f 626 628 629
f 628 630 631
f 632 633 634
f 633 635 636
f 635 637 638
f 639 640 641
f 640 642 643
f 642 644 645
f 644 646 647
f 646 648 649
f 648 650 651
f 650 652 653
f 652 654 655
f 654 656 657
f 658 659 660
f 661 662 663
f 662 664 665
f 664 666 667
f 666 668 669
f 668 670 671
f 670 672 673
f 672 674 675
f 674 676 677
f 678 679 680
f 679 681 682
f 681 683 684
f 683 685 686
f 687 688 689
f 688 690 691
f 690 692 693
f 692 694 695
f 694 696 697
f 696 698 699
f 698 700 701
f 702 703 704
f 705 706 707
f 706 708 709
f 708 710 711
f 710 712 713
f 712 714 715
f 714 716 717
f 716 718 719
f 718 720 721
f 720 722 723
f 724 725 726
f 725 727 728
f 727 729 730
f 729 731 732
f 733 734 735
f 734 736 737
f 736 738 739
f 740 741 742
f 741 743 744
f 743 745 746
f 747 748 749
f 750 751 752
f 751 753 754
f 753 755 756
f 755 757 758
f 759 760 761
f 760 762 763
f 762 764 765
f 764 766 767
f 766 768 769
f 768 770 771
f 770 772 773
f 772 774 775
f 776 777 778
f 777 779 780
f 779 781 782
f 783 784 785
f 784 786 787
f 786 788 789
f 788 790 791
f 790 792 793
f 792 794 795
f 794 796 797
f 796 798 799
f 800 801 802
f 803 804 805
f 804 806 807
f 806 808 809
f 808 810 811
f 812 813 814
f 813 815 816
f 815 501 817
f 501 818 502
f 819 501 507
f 501 510 508
f 510 514 512
f 516 519 517
f 519 523 521
f 523 527 525
f 527 531 529
f 531 535 533
f 535 539 537
f 543 546 544
f 546 550 548
f 550 554 552
f 554 557 556
f 559 562 560
f 562 566 564
f 566 570 568
f 570 574 572
f 574 578 576
f 578 582 580
f 586 589 587
f 589 593 591
f 593 597 595
f 599 602 600
f 602 606 604
f 606 610 608
f 610 614 612
f 616 619 617
f 619 623 621
f 625 628 626
f 628 820 630
f 632 635 633
f 635 821 637
f 639 642 640
f 642 646 644
f 646 650 648
f 650 654 652
f 654 822 656
f 823 659 658
f 824 662 661
f 662 666 664
f 666 670 668
f 670 674 672
f 678 681 679
f 681 685 683
f 685 688 687
f 688 692 690
f 692 696 694
f 696 700 698
f 702 825 703
f 706 710 708
f 710 714 712
f 714 718 716
f 718 722 720
f 826 725 724
f 725 729 727
f 729 827 731
f 828 734 733
f 734 738 736
f 740 743 741
f 743 829 745
f 750 753 751
f 753 757 755
f 759 762 760
f 762 766 764
f 766 770 768
f 770 774 772
f 776 779 777
f 779 830 781
f 783 786 784
f 786 790 788
f 790 794 792
f 794 798 796
f 800 831 801
f 803 806 804
f 806 810 808
f 832 813 812
f 813 501 815
f 501 833 818
f 834 501 819
f 501 514 510
f 516 523 519
f 523 531 527
f 531 539 535
f 543 550 546
f 550 557 554
f 559 566 562
f 566 574 570
f 574 582 578
f 586 593 589
f 599 606 602
f 606 614 610
f 835 619 616
f 619 836 623
f 625 820 628
f 837 635 632
f 635 838 821
f 639 646 642
f 646 654 650
f 839 659 823
f 840 662 824
f 662 670 666
f 670 676 674
f 841 681 678
f 685 692 688
f 692 700 696
f 706 714 710
f 714 722 718
f 842 725 826
f 725 827 729
f 828 738 734
f 843 743 740
f 743 844 829
f 750 757 753
f 759 766 762
f 766 774 770
f 845 779 776
f 779 846 830
f 846 786 783
f 786 794 790
f 794 800 798
f 847 806 803
f 806 848 810
f 849 813 832
f 813 833 501
f 850 501 834
f 501 851 514
f 852 523 516
f 523 539 531
f 543 557 550
f 559 574 566
f 574 584 582
f 853 593 586
f 854 606 599
f 835 836 619
f 625 855 820
f 837 838 635
f 856 646 639
f 646 822 654
f 857 659 839
f 662 676 670
f 841 685 681
f 685 700 692
f 706 722 714
f 858 725 842
f 725 859 827
f 860 738 828
f 861 743 843
f 750 862 757
f 863 766 759
f 845 846 779
f 846 794 786
f 794 831 800
f 831 806 847
f 806 864 848
f 865 813 849
f 813 866 833
f 505 501 850
f 501 867 851
f 852 539 523
f 543 559 557
f 559 584 574
f 853 597 593
f 854 614 606
f 868 836 835
f 625 869 855
f 870 838 837
f 871 646 856
f 646 872 822
f 873 659 857
f 840 676 662
f 874 685 841
f 685 875 700
f 706 876 722
f 876 725 858
f 725 877 859
f 877 738 860
f 878 743 861
f 750 879 862
f 880 766 863
f 845 794 846
f 794 806 831
f 806 881 864
f 882 813 865
f 813 883 866
f 505 867 501
f 884 539 852
f 543 584 559
f 885 597 853
f 886 614 854
f 868 887 836
f 870 888 838
f 888 646 871
f 646 889 872
f 890 659 873
f 891 676 840
f 892 685 874
f 685 893 875
f 706 725 876
f 877 894 738
f 894 743 878
f 750 895 879
f 896 766 880
f 897 794 845
f 794 881 806
f 898 813 882
f 813 899 883
f 505 900 867
f 901 539 884
f 543 902 584
f 903 597 885
f 904 614 886
f 868 905 887
f 870 646 888
f 646 906 889
f 907 659 890
f 908 676 891
f 892 893 685
f 705 725 706
f 877 743 894
f 909 766 896
f 910 794 897
f 794 911 881
f 912 813 898
f 813 913 899
f 505 914 900
f 915 539 901
f 916 902 543
f 917 597 903
f 918 614 904
f 870 906 646
f 907 908 659
f 908 919 676
f 920 893 892
f 921 725 705
f 877 844 743
f 909 774 766
f 922 794 910
f 794 923 911
f 924 813 912
f 813 925 913
f 504 914 505
f 926 539 915
f 916 927 902
f 927 597 917
f 597 614 918
f 869 906 870
f 907 919 908
f 920 928 893
f 825 725 921
f 725 844 877
f 929 774 909
f 930 794 922
f 794 931 923
f 924 925 813
f 932 914 504
f 926 541 539
f 916 597 927
f 625 906 869
f 933 919 907
f 920 934 928
f 702 725 825
f 725 935 844
f 929 936 774
f 937 794 930
f 794 938 931
f 939 925 924
f 940 914 932
f 941 541 926
f 942 597 916
f 625 943 906
f 933 944 919
f 920 945 934
f 945 725 702
f 725 946 935
f 947 794 937
f 948 925 939
f 949 914 940
f 941 950 541
f 951 597 942
f 625 933 943
f 933 952 944
f 920 725 945
f 725 953 946
f 954 794 947
f 955 925 948
f 956 914 949
f 941 957 950
f 957 597 951
f 625 952 933
f 958 725 920
f 725 747 953
f 954 938 794
f 959 925 955
f 956 941 914
f 941 597 957
f 960 952 625
f 725 748 747
f 961 938 954
f 962 925 959
f 941 614 597
f 963 952 960
f 958 748 725
f 964 938 961
f 965 925 962
f 941 966 614
f 967 952 963
f 958 968 748
f 969 938 964
f 970 925 965
f 941 971 966
f 972 952 967
f 958 973 968
f 974 938 969
f 975 925 970
f 941 976 971
f 977 952 972
f 978 973 958
f 979 938 974
f 980 925 975
f 941 868 976
f 981 952 977
f 978 982 973
f 936 938 979
f 983 925 980
f 941 905 868
f 984 952 981
f 978 750 982
f 929 938 936
f 938 925 983
f 941 985 905
f 985 952 984
f 978 895 750
f 929 925 938
f 956 985 941
f 985 986 952
f 987 895 978
f 988 925 929
f 989 985 956
f 985 987 986
f 987 988 895
f 988 990 925
f 989 987 985
f 987 990 988
f 991 987 989
f 987 992 990
f 993 987 991
f 987 994 992
f 995 987 993
f 987 996 994
f 997 987 995
f 987 998 996
f 999 987 997
f 987 1000 998
f 1000 987 999
f 224 725 228
f 228 725 728
f 228 728 227
f 227 728 727
f 227 727 230
f 230 727 730
f 230 730 229
f 229 730 729
f 229 729 232
f 232 729 732
f 232 732 231
f 231 732 731
f 231 731 327
f 327 731 827
f 327 827 359
f 359 827 859
f 359 859 377
f 377 859 877
f 377 877 360
f 360 877 860
f 360 860 328
f 328 860 828
f 328 828 234
f 234 828 733
f 234 733 235
f 235 733 735
f 235 735 233
f 233 735 734
f 233 734 237
f 237 734 737
f 237 737 236
f 236 737 736
f 236 736 239
f 239 736 739
f 239 739 238
f 238 739 738
f 238 738 394
f 394 738 894
f 394 894 378
f 378 894 878
f 378 878 361
f 361 878 861
f 361 861 343
f 343 861 843
f 343 843 241
f 241 843 740
f 241 740 242
f 242 740 742
f 242 742 240
f 240 742 741
f 240 741 244
f 244 741 744
f 244 744 243
f 243 744 743
f 243 743 246
f 246 743 746
f 246 746 245
f 245 746 745
f 245 745 329
f 329 745 829
f 329 829 344
f 344 829 844
f 344 844 435
f 435 844 935
f 435 935 446
f 446 935 946
f 446 946 453
f 453 946 953
f 453 953 248
f 248 953 747
f 248 747 249
f 249 747 749
f 249 749 247
f 247 749 748
f 247 748 468
f 468 748 968
f 468 968 473
f 473 968 973
f 473 973 482
f 482 973 982
f 482 982 251
f 251 982 750
f 251 750 252
f 252 750 752
f 252 752 250
f 250 752 751
f 250 751 254
f 254 751 754
f 254 754 253
f 253 754 753
f 253 753 256
f 256 753 756
f 256 756 255
f 255 756 755
f 255 755 258
f 258 755 758
f 258 758 257
f 257 758 757
f 257 757 362
f 362 757 862
f 362 862 379
f 379 862 879
f 379 879 395
f 395 879 895
f 395 895 488
f 488 895 988
f 488 988 429
f 429 988 929
f 429 929 409
f 409 929 909
f 409 909 396
f 396 909 896
f 396 896 380
f 380 896 880
f 380 880 363
f 363 880 863
f 363 863 260
f 260 863 759
f 260 759 261
f 261 759 761
f 261 761 259
f 259 761 760
f 259 760 263
f 263 760 763
f 263 763 262
f 262 763 762
f 262 762 265
f 265 762 765
f 265 765 264
f 264 765 764
f 264 764 267
f 267 764 767
f 267 767 266
f 266 767 766
f 266 766 269
f 269 766 769
f 269 769 268
f 268 769 768
f 268 768 271
f 271 768 771
f 271 771 270
f 270 771 770
f 270 770 273
f 273 770 773
f 273 773 272
f 272 773 772
f 272 772 275
f 275 772 775
f 275 775 274
f 274 775 774
f 274 774 436
f 436 774 936
f 436 936 479
f 479 936 979
f 479 979 474
f 474 979 974
f 474 974 469
f 469 974 969
f 469 969 464
f 464 969 964
f 464 964 461
f 461 964 961
f 461 961 454
f 454 961 954
f 454 954 447
f 447 954 947
f 447 947 437
f 437 947 937
f 437 937 430
f 430 937 930
f 430 930 422
f 422 930 922
f 422 922 410
f 410 922 910
f 410 910 397
f 397 910 897
f 397 897 345
f 345 897 845
f 345 845 277
f 277 845 776
f 277 776 278
f 278 776 778
f 278 778 276
f 276 778 777
f 276 777 280
f 280 777 780
f 280 780 279
f 279 780 779
f 279 779 282
f 282 779 782
f 282 782 281
f 281 782 781
f 281 781 330
f 330 781 830
f 330 830 346
f 346 830 846
f 346 846 284
f 284 846 783
f 284 783 285
f 285 783 785
f 285 785 283
f 283 785 784
f 283 784 287
f 287 784 787
f 287 787 286
f 286 787 786
f 286 786 289
f 289 786 789
f 289 789 288
f 288 789 788
f 288 788 291
f 291 788 791
f 291 791 290
f 290 791 790
f 290 790 293
f 293 790 793
f 293 793 292
f 292 793 792
f 292 792 295
f 295 792 795
f 295 795 294
f 294 795 794
f 294 794 297
f 297 794 797
f 297 797 296
f 296 797 796
f 296 796 299
f 299 796 799
f 299 799 298
f 298 799 798
f 298 798 301
f 301 798 800
f 301 800 302
f 302 800 802
f 302 802 300
f 300 802 801
f 300 801 331
f 331 801 831
f 331 831 347
f 347 831 847
f 347 847 304
f 304 847 803
f 304 803 305
f 305 803 805
f 305 805 303
f 303 805 804
f 303 804 307
f 307 804 807
f 307 807 306
f 306 807 806
f 306 806 309
f 309 806 809
f 309 809 308
f 308 809 808
f 308 808 311
f 311 808 811
f 311 811 310
f 310 811 810
f 310 810 348
f 348 810 848
f 348 848 364
f 364 848 864
f 364 864 381
f 381 864 881
f 381 881 411
f 411 881 911
f 411 911 423
f 423 911 923
f 423 923 431
f 431 923 931
f 431 931 438
f 438 931 938
f 438 938 483
f 483 938 983
f 483 983 480
f 480 983 980
f 480 980 475
f 475 980 975
f 475 975 470
f 470 975 970
f 470 970 465
f 465 970 965
f 465 965 462
f 462 965 962
f 462 962 459
f 459 962 959
f 459 959 455
f 455 959 955
f 455 955 448
f 448 955 948
f 448 948 439
f 439 948 939
f 439 939 424
f 424 939 924
f 424 924 412
f 412 924 912
f 412 912 398
f 398 912 898
f 398 898 382
f 382 898 882
f 382 882 365
f 365 882 865
f 365 865 349
f 349 865 849
f 349 849 332
f 332 849 832
f 332 832 313
f 313 832 812
f 313 812 314
f 314 812 814
f 314 814 312
f 312 814 813
f 312 813 316
f 316 813 816
f 316 816 315
f 315 816 815
f 315 815 317
f 317 815 817
f 317 817 2
f 2 817 501
f 2 501 9
f 9 501 509
f 9 509 8
f 8 509 508
f 8 508 11
f 11 508 511
f 11 511 10
f 10 511 510
f 10 510 13
f 13 510 513
f 13 513 12
f 12 513 512
f 12 512 15
f 15 512 515
f 15 515 14
f 14 515 514
f 14 514 351
f 351 514 851
f 351 851 367
f 367 851 867
f 367 867 400
f 400 867 900
f 400 900 414
f 414 900 914
f 414 914 441
f 441 914 941
f 441 941 426
f 426 941 926
f 426 926 415
f 415 926 915
f 415 915 401
f 401 915 901
f 401 901 384
f 384 901 884
f 384 884 352
f 352 884 852
f 352 852 17
f 17 852 516
f 17 516 18
f 18 516 518
f 18 518 16
f 16 518 517
f 16 517 20
f 20 517 520
f 20 520 19
f 19 520 519
f 19 519 22
f 22 519 522
f 22 522 21
f 21 522 521
f 21 521 24
f 24 521 524
f 24 524 23
f 23 524 523
f 23 523 26
f 26 523 526
f 26 526 25
f 25 526 525
f 25 525 28
f 28 525 528
f 28 528 27
f 27 528 527
f 27 527 30
f 30 527 530
f 30 530 29
f 29 530 529
f 29 529 32
f 32 529 532
f 32 532 31
f 31 532 531
f 31 531 34
f 34 531 534
f 34 534 33
f 33 534 533
f 33 533 36
f 36 533 536
f 36 536 35
f 35 536 535
f 35 535 38
f 38 535 538
f 38 538 37
f 37 538 537
f 37 537 40
f 40 537 540
f 40 540 39
f 39 540 539
f 39 539 42
f 42 539 542
f 42 542 41
f 41 542 541
f 41 541 450
f 450 541 950
f 450 950 457
f 457 950 957
f 457 957 451
f 451 957 951
f 451 951 442
f 442 951 942
f 442 942 416
f 416 942 916
f 416 916 44
f 44 916 543
f 44 543 45
f 45 543 545
f 45 545 43
f 43 545 544
f 43 544 47
f 47 544 547
f 47 547 46
f 46 547 546
f 46 546 49
f 49 546 549
f 49 549 48
f 48 549 548
f 48 548 51
f 51 548 551
f 51 551 50
f 50 551 550
f 50 550 53
f 53 550 553
f 53 553 52
f 52 553 552
f 52 552 55
f 55 552 555
f 55 555 54
f 54 555 554
f 54 554 57
f 57 554 556
f 57 556 58
f 58 556 558
f 58 558 56
f 56 558 557
f 56 557 60
f 60 557 559
f 60 559 61
f 61 559 561
f 61 561 59
f 59 561 560
f 59 560 63
f 63 560 563
f 63 563 62
f 62 563 562
f 62 562 65
f 65 562 565
f 65 565 64
f 64 565 564
f 64 564 67
f 67 564 567
f 67 567 66
f 66 567 566
f 66 566 69
f 69 566 569
f 69 569 68
f 68 569 568
f 68 568 71
f 71 568 571
f 71 571 70
f 70 571 570
f 70 570 73
f 73 570 573
f 73 573 72
f 72 573 572
f 72 572 75
f 75 572 575
f 75 575 74
f 74 575 574
f 74 574 77
f 77 574 577
f 77 577 76
f 76 577 576
f 76 576 79
f 79 576 579
f 79 579 78
f 78 579 578
f 78 578 81
f 81 578 581
f 81 581 80
f 80 581 580
f 80 580 83
f 83 580 583
f 83 583 82
f 82 583 582
f 82 582 85
f 85 582 585
f 85 585 84
f 84 585 584
f 84 584 402
f 402 584 902
f 402 902 427
f 427 902 927
f 427 927 417
f 417 927 917
f 417 917 403
f 403 917 903
f 403 903 385
f 385 903 885
f 385 885 353
f 353 885 853
f 353 853 87
f 87 853 586
f 87 586 88
f 88 586 588
f 88 588 86
f 86 588 587
f 86 587 90
f 90 587 590
f 90 590 89
f 89 590 589
f 89 589 92
f 92 589 592
f 92 592 91
f 91 592 591
f 91 591 94
f 94 591 594
f 94 594 93
f 93 594 593
f 93 593 96
f 96 593 596
f 96 596 95
f 95 596 595
f 95 595 98
f 98 595 598
f 98 598 97
f 97 598 597
f 97 597 418
f 418 597 918
f 418 918 404
f 404 918 904
f 404 904 386
f 386 904 886
f 386 886 354
f 354 886 854
f 354 854 100
f 100 854 599
f 100 599 101
f 101 599 601
f 101 601 99
f 99 601 600
f 99 600 103
f 103 600 603
f 103 603 102
f 102 603 602
f 102 602 105
f 105 602 605
f 105 605 104
f 104 605 604
f 104 604 107
f 107 604 607
f 107 607 106
f 106 607 606
f 106 606 109
f 109 606 609
f 109 609 108
f 108 609 608
f 108 608 111
f 111 608 611
f 111 611 110
f 110 611 610
f 110 610 113
f 113 610 613
f 113 613 112
f 112 613 612
f 112 612 115
f 115 612 615
f 115 615 114
f 114 615 614
f 114 614 466
f 466 614 966
f 466 966 471
f 471 966 971
f 471 971 476
f 476 971 976
f 476 976 368
f 368 976 868
f 368 868 335
f 335 868 835
f 335 835 117
f 117 835 616
f 117 616 118
f 118 616 618
f 118 618 116
f 116 618 617
f 116 617 120
f 120 617 620
f 120 620 119
f 119 620 619
f 119 619 122
f 122 619 622
f 122 622 121
f 121 622 621
f 121 621 124
f 124 621 624
f 124 624 123
f 123 624 623
f 123 623 336
f 336 623 836
f 336 836 387
f 387 836 887
f 387 887 405
f 405 887 905
f 405 905 485
f 485 905 985
f 485 985 484
f 484 985 984
f 484 984 481
f 481 984 981
f 481 981 477
f 477 981 977
f 477 977 472
f 472 977 972
f 472 972 467
f 467 972 967
f 467 967 463
f 463 967 963
f 463 963 460
f 460 963 960
f 460 960 126
f 126 960 625
f 126 625 127
f 127 625 627
f 127 627 125
f 125 627 626
f 125 626 129
f 129 626 629
f 129 629 128
f 128 629 628
f 128 628 131
f 131 628 631
f 131 631 130
f 130 631 630
f 130 630 320
f 320 630 820
f 320 820 355
f 355 820 855
f 355 855 369
f 369 855 869
f 369 869 370
f 370 869 870
f 370 870 337
f 337 870 837
f 337 837 133
f 133 837 632
f 133 632 134
f 134 632 634
f 134 634 132
f 132 634 633
f 132 633 136
f 136 633 636
f 136 636 135
f 135 636 635
f 135 635 138
f 138 635 638
f 138 638 137
f 137 638 637
f 137 637 321
f 321 637 821
f 321 821 338
f 338 821 838
f 338 838 388
f 388 838 888
f 388 888 371
f 371 888 871
f 371 871 356
f 356 871 856
f 356 856 140
f 140 856 639
f 140 639 141
f 141 639 641
f 141 641 139
f 139 641 640
f 139 640 143
f 143 640 643
f 143 643 142
f 142 643 642
f 142 642 145
f 145 642 645
f 145 645 144
f 144 645 644
f 144 644 147
f 147 644 647
f 147 647 146
f 146 647 646
f 146 646 149
f 149 646 649
f 149 649 148
f 148 649 648
f 148 648 151
f 151 648 651
f 151 651 150
f 150 651 650
f 150 650 153
f 153 650 653
f 153 653 152
f 152 653 652
f 152 652 155
f 155 652 655
f 155 655 154
f 154 655 654
f 154 654 157
f 157 654 657
f 157 657 156
f 156 657 656
f 156 656 322
f 322 656 822
f 322 822 372
f 372 822 872
f 372 872 389
f 389 872 889
f 389 889 406
f 406 889 906
f 406 906 443
f 443 906 943
f 443 943 433
f 433 943 933
f 433 933 407
f 407 933 907
f 407 907 390
f 390 907 890
f 390 890 373
f 373 890 873
f 373 873 357
f 357 873 857
f 357 857 339
f 339 857 839
f 339 839 323
f 323 839 823
f 323 823 159
f 159 823 658
f 159 658 160
f 160 658 660
f 160 660 158
f 158 660 659
f 158 659 408
f 408 659 908
f 408 908 391
f 391 908 891
f 391 891 340
f 340 891 840
f 340 840 324
f 324 840 824
f 324 824 162
f 162 824 661
f 162 661 163
f 163 661 663
f 163 663 161
f 161 663 662
f 161 662 165
f 165 662 665
f 165 665 164
f 164 665 664
f 164 664 167
f 167 664 667
f 167 667 166
f 166 667 666
f 166 666 169
f 169 666 669
f 169 669 168
f 168 669 668
f 168 668 171
f 171 668 671
f 171 671 170
f 170 671 670
f 170 670 173
f 173 670 673
f 173 673 172
f 172 673 672
f 172 672 175
f 175 672 675
f 175 675 174
f 174 675 674
f 174 674 177
f 177 674 677
f 177 677 176
f 176 677 676
f 176 676 419
f 419 676 919
f 419 919 444
f 444 919 944
f 444 944 452
f 452 944 952
f 452 952 486
f 486 952 986
f 486 986 487
f 487 986 987
f 487 987 478
f 478 987 978
f 478 978 458
f 458 978 958
f 458 958 420
f 420 958 920
f 420 920 392
f 392 920 892
f 392 892 374
f 374 892 874
f 374 874 341
f 341 874 841
f 341 841 179
f 179 841 678
f 179 678 180
f 180 678 680
f 180 680 178
f 178 680 679
f 178 679 182
f 182 679 682
f 182 682 181
f 181 682 681
f 181 681 184
f 184 681 684
f 184 684 183
f 183 684 683
f 183 683 186
f 186 683 686
f 186 686 185
f 185 686 685
f 185 685 188
f 188 685 687
f 188 687 189
f 189 687 689
f 189 689 187
f 187 689 688
f 187 688 191
f 191 688 691
f 191 691 190
f 190 691 690
f 190 690 193
f 193 690 693
f 193 693 192
f 192 693 692
f 192 692 195
f 195 692 695
f 195 695 194
f 194 695 694
f 194 694 197
f 197 694 697
f 197 697 196
f 196 697 696
f 196 696 199
f 199 696 699
f 199 699 198
f 198 699 698
f 198 698 201
f 201 698 701
f 201 701 200
f 200 701 700
f 200 700 375
f 375 700 875
f 375 875 393
f 393 875 893
f 393 893 428
f 428 893 928
f 428 928 434
f 434 928 934
f 434 934 445
f 445 934 945
f 445 945 203
f 203 945 702
f 203 702 204
f 204 702 704
f 204 704 202
f 202 704 703
f 202 703 325
f 325 703 825
f 325 825 421
f 421 825 921
f 421 921 206
f 206 921 705
f 206 705 207
f 207 705 707
f 207 707 205
f 205 707 706
f 205 706 209
f 209 706 709
f 209 709 208
f 208 709 708
f 208 708 211
f 211 708 711
f 211 711 210
f 210 711 710
f 210 710 213
f 213 710 713
f 213 713 212
f 212 713 712
f 212 712 215
f 215 712 715
f 215 715 214
f 214 715 714
f 214 714 217
f 217 714 717
f 217 717 216
f 216 717 716
f 216 716 219
f 219 716 719
f 219 719 218
f 218 719 718
f 218 718 221
f 221 718 721
f 221 721 220
f 220 721 720
f 220 720 223
f 223 720 723
f 223 723 222
f 222 723 722
f 222 722 376
f 376 722 876
f 376 876 358
f 358 876 858
f 358 858 342
f 342 858 842
f 342 842 326
f 326 842 826
f 326 826 225
f 225 826 724
f 225 724 226
f 226 724 726
f 226 726 224
f 224 726 725
f 500 1000 499
f 499 1000 999
f 499 999 497
f 497 999 997
f 497 997 495
f 495 997 995
f 495 995 493
f 493 995 993
f 493 993 491
f 491 993 991
f 491 991 489
f 489 991 989
f 489 989 456
f 456 989 956
f 456 956 449
f 449 956 949
f 449 949 440
f 440 949 940
f 440 940 432
f 432 940 932
f 432 932 5
f 5 932 504
f 5 504 6
f 6 504 506
f 6 506 4
f 4 506 505
f 4 505 350
f 350 505 850
f 350 850 334
f 334 850 834
f 334 834 319
f 319 834 819
f 319 819 7
f 7 819 507
f 7 507 3
f 3 507 503
f 3 503 1
f 1 503 502
f 1 502 318
f 318 502 818
f 318 818 333
f 333 818 833
f 333 833 366
f 366 833 866
f 366 866 383
f 383 866 883
f 383 883 399
f 399 883 899
f 399 899 413
f 413 899 913
f 413 913 425
f 425 913 925
f 425 925 490
f 490 925 990
f 490 990 492
f 492 990 992
f 492 992 494
f 494 992 994
f 494 994 496
f 496 994 996
f 496 996 498
f 498 996 998
f 498 998 500
f 500 998 1000
