o 
v 28.783 0 -58.06
v 23.66 0 -59.4
v 28.754 0 -58.26
v 30.035 0 -57.101
v 29.536 0 -57.254
v 29.73 0 -57.2
v 30.452 0 -56.709
v 30.271 0 -56.947
v 30.717 0 -55.873
v 30.596 0 -56.36
v 30.894 0 -54.826
v 30.83 0 -55.22
v 31.835 0 -54.44
v 31.5 0 -54.37
v 31.656 0 -54.403
v 32.221 0 -54.52
v 32.028 0 -54.48
v 32.57 0 -54.59
v 32.406 0 -54.557
v 33.26 0 -52.77
v 33.11 0 -54.71
v 33.328 0 -51.489
v 33.308 0 -52.042
v 33.269 0 -50.748
v 33.316 0 -51.071
v 33.05 0 -50.22
v 33.182 0 -50.478
v 33.412 0 -46.813
v 32.984 0 -48.518
v 33.18 0 -47.75
v 34.806 0 -48.795
v 34.785 0 -48.233
v 34.79 0 -48.48
v 34.99 0 -49.34
v 34.867 0 -49.07
v 35.494 0 -49.992
v 35.193 0 -49.636
v 37.159 0 -52.674
v 37.02 0 -52.08
v 37.047 0 -52.388
v 37.838 0 -53.389
v 37.406 0 -52.991
v 39.45 0 -54.63
v 38.503 0 -53.918
v 42.835 0 -64.515
v 43.15 0 -59.59
v 42.91 0 -63.25
v 42.77 0 -66.725
v 42.789 0 -65.662
v 42.812 0 -68.735
v 42.778 0 -67.738
v 42.928 0 -70.518
v 42.87 0 -69.75
v 38.697 0 -69.746
v 39.35 0 -70.94
v 39.004 0 -70.257
v 37.837 0 -68.881
v 38.338 0 -69.317
v 36.05 0 -67.62
v 37.104 0 -68.345
v 34.584 0 -66.597
v 35.337 0 -67.122
v 33.12 0 -65.579
v 33.831 0 -66.074
v 31.98 0 -64.79
v 32.489 0 -65.142
v 30.045 0 -61.696
v 30.38 0 -63.68
v 30.14 0 -62.16
v 29.778 0 -60.752
v 29.923 0 -61.222
v 29.437 0 -59.883
v 29.614 0 -60.301
v 29.023 0 -59.075
v 29.25 0 -59.51
v 28.781 0 -58.478
v 19.74 0 -67.18
v 21.96 0 -63.45
v 20.28 0 -64.63
v 17.698 0 -70.956
v 17.823 0 -70.832
v 17.77 0 -70.86
v 17.39 0 -71.647
v 17.567 0 -71.228
v 16.936 0 -72.825
v 17.176 0 -72.189
v 14.437 0 -77.606
v 14.94 0 -77.03
v 14.649 0 -77.342
v 14.206 0 -78.094
v 14.294 0 -77.848
v 14.15 0 -78.71
v 14.162 0 -78.373
v 14.182 0 -79.17
v 14.158 0 -78.953
v 14.271 0 -79.503
v 14.22 0 -79.355
v 14.41 0 -79.67
v 14.335 0 -79.61
v 14.988 0 -79.716
v 14.591 0 -79.692
v 16.289 0 -79.771
v 15.566 0 -79.743
v 18.02 0 -79.83
v 17.119 0 -79.8
v 23.84 0 -73.31
v 21.4 0 -79.91
v 30.165 0 -73.14
v 29.86 0 -72.28
v 29.96 0 -72.673
v 31.032 0 -74.53
v 30.51 0 -73.74
v 32.75 0 -76.91
v 31.766 0 -75.567
v 36.6 0 -79.38
v 35.48 0 -80.64
v 41.45 0 -81.85
v 37.71 0 -78.13
v 39.57 0 -79.99
v 45.58 0 -82.9
v 43.52 0 -82.38
v 47.63 0 -88.92
v 46.59 0 -85.92
v 48.862 0 -88.764
v 48.54 0 -88.81
v 49.815 0 -88.598
v 49.297 0 -88.691
v 50.982 0 -88.371
v 50.387 0 -88.489
v 52.435 0 -88.049
v 51.57 0 -88.25
v 53.825 0 -87.576
v 53.148 0 -87.841
v 55.535 0 -86.667
v 54.582 0 -87.202
v 58.242 0 -85.053
v 56.8 0 -85.92
v 60.793 0 -85.623
v 60.42 0 -84.8
v 60.72 0 -85.47
v 60.946 0 -85.875
v 60.869 0 -85.76
v 61.09 0 -86.02
v 61.021 0 -85.963
v 61.247 0 -86.011
v 61.15 0 -86.04
v 61.654 0 -85.804
v 61.419 0 -85.93
v 62.257 0 -85.446
v 61.937 0 -85.64
v 62.943 0 -85.014
v 62.6 0 -85.23
v 61.112 0 -91.907
v 62.262 0 -89.263
v 61.71 0 -90.49
v 60.11 0 -95.019
v 60.569 0 -93.453
v 59.561 0 -97.768
v 59.764 0 -96.494
v 59.562 0 -99.019
v 59.53 0 -98.73
v 59.632 0 -99.525
v 59.596 0 -99.288
v 59.71 0 -99.858
v 59.671 0 -99.719
v 60.055 0 -100.002
v 59.75 0 -99.93
v 61.379 0 -99.676
v 60.616 0 -99.911
v 63.299 0 -98.847
v 62.291 0 -99.315
v 65.024 0 -97.908
v 64.35 0 -98.29
v 69.805 0 -95.247
v 67.751 0 -96.393
v 68.25 0 -96.12
v 71.961 0 -93.72
v 70.997 0 -94.488
v 73.734 0 -91.673
v 72.829 0 -92.822
v 77.02 0 -86.95
v 74.81 0 -90.15
v 77.384 0 -83.532
v 77.26 0 -84.73
v 77.326 0 -84.119
v 77.469 0 -82.541
v 77.433 0 -82.997
v 77.5 0 -81.97
v 77.492 0 -82.19
v 77.463 0 -81.599
v 77.495 0 -81.746
v 77.233 0 -81.501
v 77.384 0 -81.52
v 76.63 0 -81.61
v 76.99 0 -81.534
v 75.724 0 -81.832
v 76.153 0 -81.728
v 75.926 0 -81.783
v 75.44 0 -81.91
v 75.558 0 -81.875
v 74.501 0 -80.071
v 74.826 0 -81.083
v 74.67 0 -80.58
v 74.026 0 -79.036
v 74.289 0 -79.561
v 73.315 0 -77.872
v 73.704 0 -78.479
v 71.45 0 -75.21
v 72.85 0 -77.2
v 72.93 0 -73.43
v 72.2 0 -74.32
v 74.79 0 -64.89
v 73.78 0 -66.97
v 74.35 0 -65.822
v 75.324 0 -63.56
v 75.11 0 -64.145
v 75.48 0 -62.76
v 75.443 0 -63.108
v 80.24 0 -62.459
v 79.992 0 -61.864
v 80.11 0 -62.16
v 80.482 0 -62.986
v 80.366 0 -62.738
v 80.665 0 -63.344
v 80.584 0 -63.192
v 81.117 0 -63.355
v 80.72 0 -63.43
v 83.198 0 -62.658
v 82.025 0 -63.068
v 85.351 0 -61.82
v 84.388 0 -62.212
v 85.847 0 -61.427
v 85.84 0 -61.57
v 85.739 0 -60.563
v 85.812 0 -61.08
v 85.493 0 -59.145
v 85.631 0 -59.906
v 84.69 0 -55.17
v 85.33 0 -58.31
v 75.104 0 -52.599
v 77.416 0 -53.327
v 76.23 0 -52.95
v 73.216 0 -52.024
v 74.086 0 -52.286
v 72.091 0 -51.712
v 72.537 0 -51.828
v 71.883 0 -51.781
v 71.92 0 -51.69
v 71.719 0 -52.325
v 71.814 0 -51.999
v 71.472 0 -53.216
v 71.603 0 -52.737
v 70.82 0 -55.7
v 71.33 0 -53.74
v 72.04 0 -58.11
v 71.43 0 -56.92
v 62.834 0 -52.712
v 61.925 0 -52.492
v 62.5 0 -52.64
v 64.309 0 -52.08
v 63.319 0 -52.593
v 69.207 0 -49.061
v 66.154 0 -50.97
v 76.69 0 -44.31
v 73.82 0 -46.15
v 76.683 0 -40.804
v 76.69 0 -41.71
v 76.613 0 -39.404
v 76.658 0 -40.046
v 76.442 0 -38.347
v 76.542 0 -38.848
v 75.92 0 -36.63
v 76.31 0 -37.87
v 76.69 0 -36.318
v 76.35 0 -36.45
v 76.497 0 -36.396
v 77.16 0 -36.115
v 76.915 0 -36.222
v 77.66 0 -35.89
v 77.413 0 -36.002
v 76.25 0 -32.69
v 78.51 0 -35.5
v 70.185 0 -12.42
v 69.71 0 -12.87
v 69.994 0 -12.619
v 70.331 0 -12.09
v 70.294 0 -12.251
v 70.24 0 -11.7
v 70.31 0 -11.914
v 70.031 0 -11.322
v 70.145 0 -11.475
v 69.582 0 -11.175
v 69.857 0 -11.226
v 68.56 0 -11.15
v 69.164 0 -11.154
v 64.14 0 -14.43
v 67.08 0 -11.17
v 62.567 0 -16.17
v 63.336 0 -15.317
v 61.273 0 -17.62
v 61.868 0 -16.951
v 60.54 0 -18.46
v 60.819 0 -18.136
v 60.4 0 -21.01
v 59.87 0 -19.25
v 60.816 0 -22.276
v 60.62 0 -21.735
v 61.31 0 -23.087
v 61.033 0 -22.704
v 62.22 0 -24
v 61.692 0 -23.496
v 65.9 0 -40.5
v 67.62 0 -38.07
v 66.75 0 -39.29
v 45.187 0 -35.962
v 50.48 0 -40.5
v 46.33 0 -36.94
v 43.066 0 -34.146
v 44.082 0 -35.016
v 41.509 0 -32.814
v 42.191 0 -33.398
v 40.435 0 -31.891
v 41.07 0 -32.44
v 40.756 0 -32.168
v 38.84 0 -30.48
v 39.595 0 -31.158
v 39.41 0 -30.99
v 40.135 0 -25.821
v 39.77 0 -27.14
v 42.049 0 -22.223
v 41.6 0 -22.77
v 41.836 0 -22.484
v 42.368 0 -21.814
v 42.229 0 -21.996
v 42.49 0 -21.62
v 42.458 0 -21.685
v 42.353 0 -21.519
v 42.454 0 -21.579
v 41.994 0 -21.358
v 42.196 0 -21.444
v 41.49 0 -21.17
v 41.755 0 -21.265
v 41.922 0 -17.186
v 40.5 0 -20.85
v 41.62 0 -17.97
v 42.466 0 -15.757
v 42.209 0 -16.437
v 42.841 0 -14.749
v 42.681 0 -15.183
v 45.4 0 -13.01
v 44.17 0 -13.84
v 44.87 0 -14.15
v 45.638 0 -12.414
v 45.53 0 -12.701
v 45.769 0 -11.956
v 45.719 0 -12.161
v 45.76 0 -11.74
v 45.784 0 -11.811
v 45.582 0 -11.637
v 45.694 0 -11.694
v 45.255 0 -11.5
v 45.432 0 -11.571
v 44.85 0 -11.35
v 45.058 0 -11.425
v 45.476 0 -7.742
v 44.698 0 -9.512
v 45.24 0 -8.28
v 45.869 0 -6.827
v 45.689 0 -7.251
v 46.098 0 -6.267
v 46.008 0 -6.493
v 45.983 0 -6.102
v 46.13 0 -6.17
v 45.121 0 -5.808
v 45.611 0 -5.969
v 44.21 0 -5.533
v 44.619 0 -5.651
v 42.79 0 -7.91
v 44 0 -5.49
v 40 0 -10
v 41.09 0 -10.24
v 40.445 0 -10.084
v 39.546 0 -10.067
v 39.715 0 -9.993
v 39.39 0 -10.48
v 39.452 0 -10.228
v 39.306 0 -10.817
v 39.349 0 -10.641
v 39.221 0 -11.176
v 39.263 0 -10.999
v 39.114 0 -11.641
v 39.183 0 -11.34
v 39.15 0 -11.48
v 39.219 0 -11.89
v 39.133 0 -11.774
v 39.641 0 -12.125
v 39.384 0 -12.003
v 40.259 0 -12.368
v 40 0 -12.27
v 36.345 0 -19.268
v 37.02 0 -19.55
v 36.622 0 -19.342
v 36.065 0 -19.632
v 36.166 0 -19.355
v 36.01 0 -20.87
v 36.02 0 -20.128
v 33.889 0 -24.724
v 34.07 0 -25.77
v 34.002 0 -25.175
v 33.221 0 -23.856
v 33.654 0 -24.317
v 31.46 0 -22.37
v 32.515 0 -23.24
v 30.603 0 -21.653
v 31.049 0 -22.025
v 29.701 0 -20.904
v 30.145 0 -21.272
v 22.812 0 -5.29
v 22.59 0 -11.46
v 22.75 0 -7.1
v 23.652 0 -1.263
v 23.242 0 -2.099
v 23.5 0 -1.58
v 23.89 0 -0.713
v 23.783 0 -0.97
v 24.008 0 -0.355
v 23.967 0 -0.504
v 23.914 0 -0.256
v 24.01 0 -0.28
v 23.38 0 -0.19
v 23.698 0 -0.224
v 22.513 0 -0.124
v 22.979 0 -0.156
v 18.2 0 -1.28
v 22 0 -0.1
v 20.12 0 0
v 16.09 0 -5.69
v 16.27 0 -2.55
v 14.892 0 -12.152
v 15.24 0 -11.01
v 15.057 0 -11.602
v 14.644 0 -13.031
v 14.752 0 -12.636
v 14.55 0 -13.46
v 14.575 0 -13.314
v 14.877 0 -13.767
v 14.635 0 -13.57
v 15.74 0 -14.353
v 15.252 0 -14.034
v 16.96 0 -15.08
v 16.316 0 -14.708
v 20.565 0 -21.017
v 19.35 0 -16.48
v 20.3 0 -20.04
v 21.063 0 -22.823
v 20.824 0 -21.959
v 21.433 0 -24.141
v 21.27 0 -23.564
v 21.631 0 -24.814
v 21.54 0 -24.51
v 23.68 0 -28.82
v 22.25 0 -27.06
v 22.67 0 -28.7
v 24.373 0 -28.859
v 24.039 0 -28.855
v 25.017 0 -28.774
v 24.695 0 -28.832
v 25.71 0 -28.56
v 25.351 0 -28.683
v 27.826 0 -30.07
v 27.51 0 -29.31
v 27.656 0 -29.666
v 28.197 0 -30.927
v 28.01 0 -30.497
v 28.54 0 -31.7
v 28.378 0 -31.335
v 28.943 0 -32.597
v 28.718 0 -32.097
v 30.93 0 -37.06
v 29.743 0 -34.391
v 30 0 -34.98
v 23.938 0 -37.948
v 25.864 0 -38.593
v 24.9 0 -38.27
v 22.294 0 -37.414
v 23.057 0 -37.659
v 21.273 0 -37.103
v 21.687 0 -37.225
v 20.933 0 -37.237
v 21.09 0 -37.06
v 20.384 0 -38.292
v 20.679 0 -37.689
v 19.898 0 -39.474
v 20.105 0 -38.928
v 19.847 0 -39.849
v 19.82 0 -39.81
v 20.044 0 -39.976
v 19.924 0 -39.906
v 20.384 0 -40.146
v 20.199 0 -40.057
v 21.546 0 -40.65
v 20.59 0 -40.24
v 20.699 0 -45.245
v 22.69 0 -45.76
v 21.653 0 -45.487
v 19.205 0 -44.885
v 19.869 0 -45.041
v 18.54 0 -44.75
v 18.748 0 -44.785
v 18.34 0 -44.936
v 18.454 0 -44.799
v 18.057 0 -45.424
v 18.205 0 -45.149
v 17.75 0 -46.11
v 17.903 0 -45.749
v 21.33 0 -49
v 17.23 0 -47.48
v 25.412 0 -52.273
v 25.557 0 -51.56
v 25.5 0 -51.84
v 25.391 0 -52.842
v 25.372 0 -52.593
v 25.641 0 -53.312
v 25.478 0 -53.067
v 24.125 0 -56.383
v 25.32 0 -56.29
v 24.6 0 -56.297
v 23.708 0 -57.167
v 23.845 0 -56.641
v 23.664 0 -58.055
v 28.86 0 -57.85
v 32.909 0 -49.964
v 35.91 0 -50.44
v 36.987 0 -51.906
v 40.16 0 -72.54
v 28.869 0 -58.74
v 23.64 0 -62.26
v 17.916 0 -70.77
v 15.234 0 -76.694
v 24.5 0 -71.556
v 29.569 0 -71.445
v 67.141 0 -96.729
v 76.391 0 -81.67
v 72.36 0 -72.36
v 73.326 0 -67.895
v 79.883 0 -61.592
v 82.56 0 -54.75
v 69.414 0 -13.14
v 63.54 0 -25.22
v 41.23 0 -23.218
v 42.93 0 -14.49
v 43.826 0 -13.714
v 42.31 0 -8.879
v 37.45 0 -19.766
v 34.153 0 -26.38
v 16.019 0 -6.894
v 22.125 0 -26.598
v 25.981 0 -28.454
v 29.47 0 -33.776
v 22.429 0 -49.414
v 25.89 0 -53.62
v 25.595 0 -56.282
v 28.945 0 -57.696
v 29.358 0 -57.333
v 34.772 0 -47.935
v 36.239 0 -50.801
v 19.522 0 -68.178
v 18.042 0 -70.68
v 16.68 0 -73.53
v 62.819 0 -87.921
v 66.457 0 -97.107
v 74.959 0 -81.454
v 72.189 0 -72.015
v 61.505 0 -52.442
v 43.569 0 -13.664
v 44.48 0 -11.23
v 41.295 0 -10.267
v 29.294 0 -20.567
v 15.939 0 -7.856
v 15.498 0 -10.151
v 21.995 0 -26.117
v 23.005 0 -41.284
v 25.599 0 -51.299
v 26.174 0 -53.985
v 29.059 0 -57.557
v 31.29 0 -54.327
v 32.828 0 -49.726
v 34.752 0 -47.605
v 36.89 0 -51.688
v 42.98 0 -71.24
v 19.342 0 -68.902
v 18.194 0 -70.567
v 16.327 0 -74.491
v 15.5 0 -76.311
v 28.961 0 -70.205
v 63.327 0 -86.615
v 72.058 0 -71.71
v 72.907 0 -68.756
v 79.785 0 -61.356
v 78.633 0 -53.697
v 69.196 0 -13.414
v 43.374 0 -13.704
v 44.363 0 -10.325
v 41.956 0 -9.55
v 40.499 0 -12.459
v 37.795 0 -19.79
v 34.244 0 -26.7
v 23.066 0 -2.582
v 21.742 0 -25.2
v 21.865 0 -25.643
v 26.236 0 -28.358
v 29.199 0 -33.168
v 26.75 0 -38.884
v 23.729 0 -46.019
v 23.428 0 -49.795
v 25.802 0 -56.249
v 29.198 0 -57.435
v 31.14 0 -54.33
v 34.728 0 -47.261
v 36.731 0 -51.429
v 43.025 0 -71.882
v 19.177 0 -69.414
v 18.362 0 -70.435
v 28.19 0 -68.824
v 60.153 0 -84.409
v 65.739 0 -97.507
v 75.077 0 -81.706
v 71.966 0 -71.442
v 72.541 0 -69.516
v 79.704 0 -61.168
v 81.845 0 -54.585
v 79.819 0 -54.041
v 61.201 0 -52.509
v 75.435 0 -31.649
v 40.937 0 -23.654
v 41.484 0 -10.194
v 40.709 0 -12.54
v 35.998 0 -21.479
v 15.691 0 -9.397
v 27.522 0 -39.131
v 24.667 0 -42.011
v 24.673 0 -46.243
v 24.285 0 -50.126
v 25.624 0 -51.066
v 25.956 0 -56.181
v 31.034 0 -54.401
v 34.7 0 -46.924
v 36.513 0 -51.132
v 43.06 0 -72.414
v 19.004 0 -69.775
v 15.757 0 -75.842
v 59.194 0 -84.521
v 59.787 0 -84.311
v 63.731 0 -85.496
v 75.309 0 -81.919
v 71.916 0 -71.21
v 72.246 0 -70.141
v 74.633 0 -30.557
v 69.025 0 -13.775
v 40.681 0 -24.171
v 43.218 0 -13.846
v 44.224 0 -10.816
v 38.121 0 -19.539
v 28.95 0 -20.28
v 22.949 0 -3.177
v 15.834 0 -8.661
v 28.143 0 -39.323
v 26.235 0 -42.703
v 25.481 0 -46.421
v 24.959 0 -50.392
v 25.631 0 -50.875
v 26.075 0 -56.068
v 30.957 0 -54.56
v 34.67 0 -46.61
v 43.082 0 -72.8
v 18.54 0 -70.29
v 16.027 0 -75.249
v 27.413 0 -67.565
v 63.261 0 -84.82
v 63.973 0 -84.714
v 71.907 0 -71.01
v 72.039 0 -70.594
v 79.644 0 -61.039
v 80.91 0 -54.343
v 60.975 0 -52.711
v 73.814 0 -29.374
v 68.871 0 -14.306
v 40.427 0 -24.863
v 43.078 0 -14.104
v 44.267 0 -11.085
v 41.693 0 -9.971
v 35.957 0 -22.019
v 28.535 0 -19.889
v 22.871 0 -4.031
v 26.464 0 -28.276
v 25.62 0 -50.736
v 40.238 0 -55.221
v 43.09 0 -73.01
v 18.8 0 -70.046
v 26.784 0 -66.693
v 64 0 -84.42
v 75.191 0 -81.856
v 75.486 0 -62.439
v 79.61 0 -60.98
v 68.703 0 -15.09
v 40.878 0 -12.608
v 35.876 0 -22.535
v 28.065 0 -19.367
v 26.654 0 -28.212
v 28.575 0 -39.446
v 26.117 0 -46.547
v 26.36 0 -54.293
v 26.174 0 -55.898
v 32.811 0 -49.446
v 34.618 0 -46.244
v 40.807 0 -55.686
v 43.09 0 -73.45
v 25.104 0 -69.959
v 75.517 0 -62.21
v 79.513 0 -60.974
v 68.66 0 -61.83
v 72.951 0 -28.056
v 68.49 0 -16.21
v 40.995 0 -12.659
v 35.746 0 -23.074
v 28.78 0 -39.49
v 26.543 0 -46.613
v 26.455 0 -54.58
v 26.27 0 -55.66
v 32.862 0 -49.064
v 34.558 0 -45.969
v 41.226 0 -56.1
v 25.626 0 -68.585
v 26.46 0 -66.47
v 79.252 0 -61.018
v 67.746 0 -62.821
v 60.787 0 -53.068
v 68.356 0 -16.95
v 41.05 0 -12.69
v 35.557 0 -23.684
v 25.22 0 -15.42
v 26.797 0 -28.169
v 28.902 0 -39.443
v 26.72 0 -46.61
v 26.403 0 -55.228
v 63.54 0 -84.656
v 78.811 0 -61.116
v 66.906 0 -63.71
v 68.238 0 -17.648
v 41.016 0 -12.836
v 35.3 0 -24.41
v 26.119 0 -16.74
v 26.88 0 -28.15
v 29.073 0 -39.318
v 26.875 0 -46.298
v 26.467 0 -54.88
v 34.487 0 -45.774
v 26.043 0 -67.501
v 63.766 0 -84.53
v 63.924 0 -84.449
v 78.174 0 -61.272
v 66.176 0 -64.461
v 68.139 0 -18.272
v 38.495 0 -18.93
v 26.878 0 -17.82
v 26.936 0 -28.192
v 29.28 0 -39.127
v 25.408 0 -50.575
v 33.579 0 -46.191
v 41.563 0 -56.541
v 26.329 0 -66.774
v 77.326 0 -61.489
v 65.59 0 -65.04
v 68.062 0 -18.792
v 34.871 0 -25.583
v 27.52 0 -18.686
v 27.019 0 -28.311
v 29.514 0 -38.882
v 27.121 0 -45.7
v 71.94 0 -70.84
v 76.25 0 -61.77
v 65.183 0 -65.412
v 68.011 0 -19.175
v 40.885 0 -13.211
v 34.572 0 -26.334
v 27.124 0 -28.494
v 29.764 0 -38.592
v 27.403 0 -44.967
v 25.59 0 -50.66
v 75.939 0 -61.854
v 64.99 0 -65.54
v 67.99 0 -19.39
v 40.669 0 -13.78
v 27.409 0 -43.229
v 27.662 0 -44.25
v 75.726 0 -61.94
v 68.094 0 -19.687
v 40.382 0 -14.509
v 30.02 0 -38.27
v 33.709 0 -45.819
v 41.64 0 -73.01
v 75.591 0 -62.051
v 68.396 0 -20.301
v 40.038 0 -15.364
v 34.374 0 -26.695
v 27.844 0 -43.697
v 33.831 0 -45.632
v 68.866 0 -21.179
v 39.65 0 -16.31
v 27.244 0 -28.729
v 27.89 0 -43.46
v 69.474 0 -22.266
v 38.982 0 -17.881
v 27.375 0 -29.005
v 33.975 0 -45.567
v 42.26 0 -57.81
v 64.834 0 -65.377
v 70.188 0 -23.507
v 41.884 0 -57.086
v 64.543 0 -64.937
v 70.98 0 -24.85
v 34.17 0 -45.56
v 64.141 0 -64.261
v 72.016 0 -26.562
v 63.654 0 -63.393
v 34.297 0 -45.58
v 34.402 0 -45.648
v 63.105 0 -62.375
v 39.838 0 -31.373
v 65.58 0 -31.64
v 40.124 0 -31.621
v 62.52 0 -61.25
v 61.471 0 -59.17
v 60.6 0 -53.6
v 60.767 0 -57.624
v 60.324 0 -54.601
v 60.368 0 -56.454
v 60.233 0 -55.499
v 23.66 10 -59.4
v 28.783 10 -58.06
v 28.754 10 -58.26
v 29.536 10 -57.254
v 30.035 10 -57.101
v 29.73 10 -57.2
v 30.452 10 -56.709
v 30.271 10 -56.947
v 30.717 10 -55.873
v 30.596 10 -56.36
v 30.894 10 -54.826
v 30.83 10 -55.22
v 31.5 10 -54.37
v 31.835 10 -54.44
v 31.656 10 -54.403
v 32.221 10 -54.52
v 32.028 10 -54.48
v 32.57 10 -54.59
v 32.406 10 -54.557
v 33.26 10 -52.77
v 33.11 10 -54.71
v 33.328 10 -51.489
v 33.308 10 -52.042
v 33.269 10 -50.748
v 33.316 10 -51.071
v 33.05 10 -50.22
v 33.182 10 -50.478
v 32.984 10 -48.518
v 33.412 10 -46.813
v 33.18 10 -47.75
v 34.785 10 -48.233
v 34.806 10 -48.795
v 34.79 10 -48.48
v 34.99 10 -49.34
v 34.867 10 -49.07
v 35.494 10 -49.992
v 35.193 10 -49.636
v 37.02 10 -52.08
v 37.159 10 -52.674
v 37.047 10 -52.388
v 37.838 10 -53.389
v 37.406 10 -52.991
v 39.45 10 -54.63
v 38.503 10 -53.918
v 43.15 10 -59.59
v 42.835 10 -64.515
v 42.91 10 -63.25
v 42.77 10 -66.725
v 42.789 10 -65.662
v 42.812 10 -68.735
v 42.778 10 -67.738
v 42.928 10 -70.518
v 42.87 10 -69.75
v 39.35 10 -70.94
v 38.697 10 -69.746
v 39.004 10 -70.257
v 37.837 10 -68.881
v 38.338 10 -69.317
v 36.05 10 -67.62
v 37.104 10 -68.345
v 34.584 10 -66.597
v 35.337 10 -67.122
v 33.12 10 -65.579
v 33.831 10 -66.074
v 31.98 10 -64.79
v 32.489 10 -65.142
v 30.38 10 -63.68
v 30.045 10 -61.696
v 30.14 10 -62.16
v 29.778 10 -60.752
v 29.923 10 -61.222
v 29.437 10 -59.883
v 29.614 10 -60.301
v 29.023 10 -59.075
v 29.25 10 -59.51
v 28.781 10 -58.478
v 21.96 10 -63.45
v 19.74 10 -67.18
v 20.28 10 -64.63
v 17.823 10 -70.832
v 17.698 10 -70.956
v 17.77 10 -70.86
v 17.39 10 -71.647
v 17.567 10 -71.228
v 16.936 10 -72.825
v 17.176 10 -72.189
v 14.94 10 -77.03
v 14.437 10 -77.606
v 14.649 10 -77.342
v 14.206 10 -78.094
v 14.294 10 -77.848
v 14.15 10 -78.71
v 14.162 10 -78.373
v 14.182 10 -79.17
v 14.158 10 -78.953
v 14.271 10 -79.503
v 14.22 10 -79.355
v 14.41 10 -79.67
v 14.335 10 -79.61
v 14.988 10 -79.716
v 14.591 10 -79.692
v 16.289 10 -79.771
v 15.566 10 -79.743
v 18.02 10 -79.83
v 17.119 10 -79.8
v 23.84 10 -73.31
v 21.4 10 -79.91
v 29.86 10 -72.28
v 30.165 10 -73.14
v 29.96 10 -72.673
v 31.032 10 -74.53
v 30.51 10 -73.74
v 32.75 10 -76.91
v 31.766 10 -75.567
v 36.6 10 -79.38
v 35.48 10 -80.64
v 37.71 10 -78.13
v 41.45 10 -81.85
v 39.57 10 -79.99
v 45.58 10 -82.9
v 43.52 10 -82.38
v 47.63 10 -88.92
v 46.59 10 -85.92
v 48.862 10 -88.764
v 48.54 10 -88.81
v 49.815 10 -88.598
v 49.297 10 -88.691
v 50.982 10 -88.371
v 50.387 10 -88.489
v 52.435 10 -88.049
v 51.57 10 -88.25
v 53.825 10 -87.576
v 53.148 10 -87.841
v 55.535 10 -86.667
v 54.582 10 -87.202
v 58.242 10 -85.053
v 56.8 10 -85.92
v 60.42 10 -84.8
v 60.793 10 -85.623
v 60.72 10 -85.47
v 60.946 10 -85.875
v 60.869 10 -85.76
v 61.09 10 -86.02
v 61.021 10 -85.963
v 61.247 10 -86.011
v 61.15 10 -86.04
v 61.654 10 -85.804
v 61.419 10 -85.93
v 62.257 10 -85.446
v 61.937 10 -85.64
v 62.943 10 -85.014
v 62.6 10 -85.23
v 62.262 10 -89.263
v 61.112 10 -91.907
v 61.71 10 -90.49
v 60.11 10 -95.019
v 60.569 10 -93.453
v 59.561 10 -97.768
v 59.764 10 -96.494
v 59.562 10 -99.019
v 59.53 10 -98.73
v 59.632 10 -99.525
v 59.596 10 -99.288
v 59.71 10 -99.858
v 59.671 10 -99.719
v 60.055 10 -100.002
v 59.75 10 -99.93
v 61.379 10 -99.676
v 60.616 10 -99.911
v 63.299 10 -98.847
v 62.291 10 -99.315
v 65.024 10 -97.908
v 64.35 10 -98.29
v 67.751 10 -96.393
v 69.805 10 -95.247
v 68.25 10 -96.12
v 71.961 10 -93.72
v 70.997 10 -94.488
v 73.734 10 -91.673
v 72.829 10 -92.822
v 77.02 10 -86.95
v 74.81 10 -90.15
v 77.26 10 -84.73
v 77.384 10 -83.532
v 77.326 10 -84.119
v 77.469 10 -82.541
v 77.433 10 -82.997
v 77.5 10 -81.97
v 77.492 10 -82.19
v 77.463 10 -81.599
v 77.495 10 -81.746
v 77.233 10 -81.501
v 77.384 10 -81.52
v 76.63 10 -81.61
v 76.99 10 -81.534
v 76.153 10 -81.728
v 75.724 10 -81.832
v 75.926 10 -81.783
v 75.44 10 -81.91
v 75.558 10 -81.875
v 74.826 10 -81.083
v 74.501 10 -80.071
v 74.67 10 -80.58
v 74.026 10 -79.036
v 74.289 10 -79.561
v 73.315 10 -77.872
v 73.704 10 -78.479
v 71.45 10 -75.21
v 72.85 10 -77.2
v 72.93 10 -73.43
v 72.2 10 -74.32
v 73.78 10 -66.97
v 74.79 10 -64.89
v 74.35 10 -65.822
v 75.324 10 -63.56
v 75.11 10 -64.145
v 75.48 10 -62.76
v 75.443 10 -63.108
v 79.992 10 -61.864
v 80.24 10 -62.459
v 80.11 10 -62.16
v 80.482 10 -62.986
v 80.366 10 -62.738
v 80.665 10 -63.344
v 80.584 10 -63.192
v 81.117 10 -63.355
v 80.72 10 -63.43
v 83.198 10 -62.658
v 82.025 10 -63.068
v 85.351 10 -61.82
v 84.388 10 -62.212
v 85.847 10 -61.427
v 85.84 10 -61.57
v 85.739 10 -60.563
v 85.812 10 -61.08
v 85.493 10 -59.145
v 85.631 10 -59.906
v 84.69 10 -55.17
v 85.33 10 -58.31
v 77.416 10 -53.327
v 75.104 10 -52.599
v 76.23 10 -52.95
v 73.216 10 -52.024
v 74.086 10 -52.286
v 72.091 10 -51.712
v 72.537 10 -51.828
v 71.883 10 -51.781
v 71.92 10 -51.69
v 71.719 10 -52.325
v 71.814 10 -51.999
v 71.472 10 -53.216
v 71.603 10 -52.737
v 70.82 10 -55.7
v 71.33 10 -53.74
v 72.04 10 -58.11
v 71.43 10 -56.92
v 61.925 10 -52.492
v 62.834 10 -52.712
v 62.5 10 -52.64
v 64.309 10 -52.08
v 63.319 10 -52.593
v 69.207 10 -49.061
v 66.154 10 -50.97
v 76.69 10 -44.31
v 73.82 10 -46.15
v 76.683 10 -40.804
v 76.69 10 -41.71
v 76.613 10 -39.404
v 76.658 10 -40.046
v 76.442 10 -38.347
v 76.542 10 -38.848
v 75.92 10 -36.63
v 76.31 10 -37.87
v 76.35 10 -36.45
v 76.69 10 -36.318
v 76.497 10 -36.396
v 77.16 10 -36.115
v 76.915 10 -36.222
v 77.66 10 -35.89
v 77.413 10 -36.002
v 76.25 10 -32.69
v 78.51 10 -35.5
v 69.71 10 -12.87
v 70.185 10 -12.42
v 69.994 10 -12.619
v 70.331 10 -12.09
v 70.294 10 -12.251
v 70.24 10 -11.7
v 70.31 10 -11.914
v 70.031 10 -11.322
v 70.145 10 -11.475
v 69.582 10 -11.175
v 69.857 10 -11.226
v 68.56 10 -11.15
v 69.164 10 -11.154
v 64.14 10 -14.43
v 67.08 10 -11.17
v 62.567 10 -16.17
v 63.336 10 -15.317
v 61.273 10 -17.62
v 61.868 10 -16.951
v 60.54 10 -18.46
v 60.819 10 -18.136
v 60.4 10 -21.01
v 59.87 10 -19.25
v 60.816 10 -22.276
v 60.62 10 -21.735
v 61.31 10 -23.087
v 61.033 10 -22.704
v 62.22 10 -24
v 61.692 10 -23.496
v 67.62 10 -38.07
v 65.9 10 -40.5
v 66.75 10 -39.29
v 50.48 10 -40.5
v 45.187 10 -35.962
v 46.33 10 -36.94
v 43.066 10 -34.146
v 44.082 10 -35.016
v 41.509 10 -32.814
v 42.191 10 -33.398
v 41.07 10 -32.44
v 40.435 10 -31.891
v 40.756 10 -32.168
v 39.595 10 -31.158
v 38.84 10 -30.48
v 39.41 10 -30.99
v 40.135 10 -25.821
v 39.77 10 -27.14
v 41.6 10 -22.77
v 42.049 10 -22.223
v 41.836 10 -22.484
v 42.368 10 -21.814
v 42.229 10 -21.996
v 42.49 10 -21.62
v 42.458 10 -21.685
v 42.353 10 -21.519
v 42.454 10 -21.579
v 41.994 10 -21.358
v 42.196 10 -21.444
v 41.49 10 -21.17
v 41.755 10 -21.265
v 40.5 10 -20.85
v 41.922 10 -17.186
v 41.62 10 -17.97
v 42.466 10 -15.757
v 42.209 10 -16.437
v 42.841 10 -14.749
v 42.681 10 -15.183
v 44.17 10 -13.84
v 45.4 10 -13.01
v 44.87 10 -14.15
v 45.638 10 -12.414
v 45.53 10 -12.701
v 45.769 10 -11.956
v 45.719 10 -12.161
v 45.76 10 -11.74
v 45.784 10 -11.811
v 45.582 10 -11.637
v 45.694 10 -11.694
v 45.255 10 -11.5
v 45.432 10 -11.571
v 44.85 10 -11.35
v 45.058 10 -11.425
v 44.698 10 -9.512
v 45.476 10 -7.742
v 45.24 10 -8.28
v 45.869 10 -6.827
v 45.689 10 -7.251
v 46.098 10 -6.267
v 46.008 10 -6.493
v 45.983 10 -6.102
v 46.13 10 -6.17
v 45.121 10 -5.808
v 45.611 10 -5.969
v 44.21 10 -5.533
v 44.619 10 -5.651
v 42.79 10 -7.91
v 44 10 -5.49
v 41.09 10 -10.24
v 40 10 -10
v 40.445 10 -10.084
v 39.546 10 -10.067
v 39.715 10 -9.993
v 39.39 10 -10.48
v 39.452 10 -10.228
v 39.306 10 -10.817
v 39.349 10 -10.641
v 39.221 10 -11.176
v 39.263 10 -10.999
v 39.183 10 -11.34
v 39.114 10 -11.641
v 39.15 10 -11.48
v 39.219 10 -11.89
v 39.133 10 -11.774
v 39.641 10 -12.125
v 39.384 10 -12.003
v 40.259 10 -12.368
v 40 10 -12.27
v 37.02 10 -19.55
v 36.345 10 -19.268
v 36.622 10 -19.342
v 36.065 10 -19.632
v 36.166 10 -19.355
v 36.01 10 -20.87
v 36.02 10 -20.128
v 34.07 10 -25.77
v 33.889 10 -24.724
v 34.002 10 -25.175
v 33.221 10 -23.856
v 33.654 10 -24.317
v 31.46 10 -22.37
v 32.515 10 -23.24
v 30.603 10 -21.653
v 31.049 10 -22.025
v 29.701 10 -20.904
v 30.145 10 -21.272
v 22.59 10 -11.46
v 22.812 10 -5.29
v 22.75 10 -7.1
v 23.242 10 -2.099
v 23.652 10 -1.263
v 23.5 10 -1.58
v 23.89 10 -0.713
v 23.783 10 -0.97
v 24.008 10 -0.355
v 23.967 10 -0.504
v 23.914 10 -0.256
v 24.01 10 -0.28
v 23.38 10 -0.19
v 23.698 10 -0.224
v 22.513 10 -0.124
v 22.979 10 -0.156
v 22 10 -0.1
v 18.2 10 -1.28
v 20.12 10 0
v 16.09 10 -5.69
v 16.27 10 -2.55
v 15.24 10 -11.01
v 14.892 10 -12.152
v 15.057 10 -11.602
v 14.644 10 -13.031
v 14.752 10 -12.636
v 14.55 10 -13.46
v 14.575 10 -13.314
v 14.877 10 -13.767
v 14.635 10 -13.57
v 15.74 10 -14.353
v 15.252 10 -14.034
v 16.96 10 -15.08
v 16.316 10 -14.708
v 19.35 10 -16.48
v 20.565 10 -21.017
v 20.3 10 -20.04
v 21.063 10 -22.823
v 20.824 10 -21.959
v 21.433 10 -24.141
v 21.27 10 -23.564
v 21.631 10 -24.814
v 21.54 10 -24.51
v 22.25 10 -27.06
v 23.68 10 -28.82
v 22.67 10 -28.7
v 24.373 10 -28.859
v 24.039 10 -28.855
v 25.017 10 -28.774
v 24.695 10 -28.832
v 25.71 10 -28.56
v 25.351 10 -28.683
v 27.51 10 -29.31
v 27.826 10 -30.07
v 27.656 10 -29.666
v 28.197 10 -30.927
v 28.01 10 -30.497
v 28.54 10 -31.7
v 28.378 10 -31.335
v 28.943 10 -32.597
v 28.718 10 -32.097
v 29.743 10 -34.391
v 30.93 10 -37.06
v 30 10 -34.98
v 25.864 10 -38.593
v 23.938 10 -37.948
v 24.9 10 -38.27
v 22.294 10 -37.414
v 23.057 10 -37.659
v 21.273 10 -37.103
v 21.687 10 -37.225
v 20.933 10 -37.237
v 21.09 10 -37.06
v 20.384 10 -38.292
v 20.679 10 -37.689
v 19.898 10 -39.474
v 20.105 10 -38.928
v 19.847 10 -39.849
v 19.82 10 -39.81
v 20.044 10 -39.976
v 19.924 10 -39.906
v 20.384 10 -40.146
v 20.199 10 -40.057
v 21.546 10 -40.65
v 20.59 10 -40.24
v 22.69 10 -45.76
v 20.699 10 -45.245
v 21.653 10 -45.487
v 19.205 10 -44.885
v 19.869 10 -45.041
v 18.54 10 -44.75
v 18.748 10 -44.785
v 18.34 10 -44.936
v 18.454 10 -44.799
v 18.057 10 -45.424
v 18.205 10 -45.149
v 17.75 10 -46.11
v 17.903 10 -45.749
v 21.33 10 -49
v 17.23 10 -47.48
v 25.557 10 -51.56
v 25.412 10 -52.273
v 25.5 10 -51.84
v 25.391 10 -52.842
v 25.372 10 -52.593
v 25.641 10 -53.312
v 25.478 10 -53.067
v 25.32 10 -56.29
v 24.125 10 -56.383
v 24.6 10 -56.297
v 23.708 10 -57.167
v 23.845 10 -56.641
v 23.664 10 -58.055
v 28.86 10 -57.85
v 32.909 10 -49.964
v 35.91 10 -50.44
v 36.987 10 -51.906
v 40.16 10 -72.54
v 28.869 10 -58.74
v 23.64 10 -62.26
v 17.916 10 -70.77
v 15.234 10 -76.694
v 24.5 10 -71.556
v 29.569 10 -71.445
v 67.141 10 -96.729
v 76.391 10 -81.67
v 72.36 10 -72.36
v 73.326 10 -67.895
v 79.883 10 -61.592
v 82.56 10 -54.75
v 69.414 10 -13.14
v 63.54 10 -25.22
v 41.23 10 -23.218
v 42.93 10 -14.49
v 43.826 10 -13.714
v 42.31 10 -8.879
v 37.45 10 -19.766
v 34.153 10 -26.38
v 16.019 10 -6.894
v 22.125 10 -26.598
v 25.981 10 -28.454
v 29.47 10 -33.776
v 22.429 10 -49.414
v 25.89 10 -53.62
v 25.595 10 -56.282
v 28.945 10 -57.696
v 29.358 10 -57.333
v 34.772 10 -47.935
v 36.239 10 -50.801
v 19.522 10 -68.178
v 18.042 10 -70.68
v 16.68 10 -73.53
v 62.819 10 -87.921
v 66.457 10 -97.107
v 74.959 10 -81.454
v 72.189 10 -72.015
v 61.505 10 -52.442
v 43.569 10 -13.664
v 44.48 10 -11.23
v 41.295 10 -10.267
v 29.294 10 -20.567
v 15.939 10 -7.856
v 15.498 10 -10.151
v 21.995 10 -26.117
v 23.005 10 -41.284
v 25.599 10 -51.299
v 26.174 10 -53.985
v 29.059 10 -57.557
v 31.29 10 -54.327
v 32.828 10 -49.726
v 34.752 10 -47.605
v 36.89 10 -51.688
v 42.98 10 -71.24
v 19.342 10 -68.902
v 18.194 10 -70.567
v 16.327 10 -74.491
v 15.5 10 -76.311
v 28.961 10 -70.205
v 63.327 10 -86.615
v 72.058 10 -71.71
v 72.907 10 -68.756
v 79.785 10 -61.356
v 78.633 10 -53.697
v 69.196 10 -13.414
v 43.374 10 -13.704
v 44.363 10 -10.325
v 41.956 10 -9.55
v 40.499 10 -12.459
v 37.795 10 -19.79
v 34.244 10 -26.7
v 23.066 10 -2.582
v 21.742 10 -25.2
v 21.865 10 -25.643
v 26.236 10 -28.358
v 29.199 10 -33.168
v 26.75 10 -38.884
v 23.729 10 -46.019
v 23.428 10 -49.795
v 25.802 10 -56.249
v 29.198 10 -57.435
v 31.14 10 -54.33
v 34.728 10 -47.261
v 36.731 10 -51.429
v 43.025 10 -71.882
v 19.177 10 -69.414
v 18.362 10 -70.435
v 28.19 10 -68.824
v 60.153 10 -84.409
v 65.739 10 -97.507
v 75.077 10 -81.706
v 71.966 10 -71.442
v 72.541 10 -69.516
v 79.704 10 -61.168
v 81.845 10 -54.585
v 79.819 10 -54.041
v 61.201 10 -52.509
v 75.435 10 -31.649
v 40.937 10 -23.654
v 41.484 10 -10.194
v 40.709 10 -12.54
v 35.998 10 -21.479
v 15.691 10 -9.397
v 27.522 10 -39.131
v 24.667 10 -42.011
v 24.673 10 -46.243
v 24.285 10 -50.126
v 25.624 10 -51.066
v 25.956 10 -56.181
v 31.034 10 -54.401
v 34.7 10 -46.924
v 36.513 10 -51.132
v 43.06 10 -72.414
v 19.004 10 -69.775
v 15.757 10 -75.842
v 59.194 10 -84.521
v 59.787 10 -84.311
v 63.731 10 -85.496
v 75.309 10 -81.919
v 71.916 10 -71.21
v 72.246 10 -70.141
v 74.633 10 -30.557
v 69.025 10 -13.775
v 40.681 10 -24.171
v 43.218 10 -13.846
v 44.224 10 -10.816
v 38.121 10 -19.539
v 28.95 10 -20.28
v 22.949 10 -3.177
v 15.834 10 -8.661
v 28.143 10 -39.323
v 26.235 10 -42.703
v 25.481 10 -46.421
v 24.959 10 -50.392
v 25.631 10 -50.875
v 26.075 10 -56.068
v 30.957 10 -54.56
v 34.67 10 -46.61
v 43.082 10 -72.8
v 18.54 10 -70.29
v 16.027 10 -75.249
v 27.413 10 -67.565
v 63.261 10 -84.82
v 63.973 10 -84.714
v 71.907 10 -71.01
v 72.039 10 -70.594
v 79.644 10 -61.039
v 80.91 10 -54.343
v 60.975 10 -52.711
v 73.814 10 -29.374
v 68.871 10 -14.306
v 40.427 10 -24.863
v 43.078 10 -14.104
v 44.267 10 -11.085
v 41.693 10 -9.971
v 35.957 10 -22.019
v 28.535 10 -19.889
v 22.871 10 -4.031
v 26.464 10 -28.276
v 25.62 10 -50.736
v 40.238 10 -55.221
v 43.09 10 -73.01
v 18.8 10 -70.046
v 26.784 10 -66.693
v 64 10 -84.42
v 75.191 10 -81.856
v 75.486 10 -62.439
v 79.61 10 -60.98
v 68.703 10 -15.09
v 40.878 10 -12.608
v 35.876 10 -22.535
v 28.065 10 -19.367
v 26.654 10 -28.212
v 28.575 10 -39.446
v 26.117 10 -46.547
v 26.36 10 -54.293
v 26.174 10 -55.898
v 32.811 10 -49.446
v 34.618 10 -46.244
v 40.807 10 -55.686
v 43.09 10 -73.45
v 25.104 10 -69.959
v 75.517 10 -62.21
v 79.513 10 -60.974
v 68.66 10 -61.83
v 72.951 10 -28.056
v 68.49 10 -16.21
v 40.995 10 -12.659
v 35.746 10 -23.074
v 28.78 10 -39.49
v 26.543 10 -46.613
v 26.455 10 -54.58
v 26.27 10 -55.66
v 32.862 10 -49.064
v 34.558 10 -45.969
v 41.226 10 -56.1
v 25.626 10 -68.585
v 26.46 10 -66.47
v 79.252 10 -61.018
v 67.746 10 -62.821
v 60.787 10 -53.068
v 68.356 10 -16.95
v 41.05 10 -12.69
v 35.557 10 -23.684
v 25.22 10 -15.42
v 26.797 10 -28.169
v 28.902 10 -39.443
v 26.72 10 -46.61
v 26.403 10 -55.228
v 63.54 10 -84.656
v 78.811 10 -61.116
v 66.906 10 -63.71
v 68.238 10 -17.648
v 41.016 10 -12.836
v 35.3 10 -24.41
v 26.119 10 -16.74
v 26.88 10 -28.15
v 29.073 10 -39.318
v 26.875 10 -46.298
v 26.467 10 -54.88
v 34.487 10 -45.774
v 26.043 10 -67.501
v 63.766 10 -84.53
v 63.924 10 -84.449
v 78.174 10 -61.272
v 66.176 10 -64.461
v 68.139 10 -18.272
v 38.495 10 -18.93
v 26.878 10 -17.82
v 26.936 10 -28.192
v 29.28 10 -39.127
v 25.408 10 -50.575
v 33.579 10 -46.191
v 41.563 10 -56.541
v 26.329 10 -66.774
v 77.326 10 -61.489
v 65.59 10 -65.04
v 68.062 10 -18.792
v 34.871 10 -25.583
v 27.52 10 -18.686
v 27.019 10 -28.311
v 29.514 10 -38.882
v 27.121 10 -45.7
v 71.94 10 -70.84
v 76.25 10 -61.77
v 65.183 10 -65.412
v 68.011 10 -19.175
v 40.885 10 -13.211
v 34.572 10 -26.334
v 27.124 10 -28.494
v 29.764 10 -38.592
v 27.403 10 -44.967
v 25.59 10 -50.66
v 75.939 10 -61.854
v 64.99 10 -65.54
v 67.99 10 -19.39
v 40.669 10 -13.78
v 27.409 10 -43.229
v 27.662 10 -44.25
v 75.726 10 -61.94
v 68.094 10 -19.687
v 40.382 10 -14.509
v 30.02 10 -38.27
v 33.709 10 -45.819
v 41.64 10 -73.01
v 75.591 10 -62.051
v 68.396 10 -20.301
v 40.038 10 -15.364
v 34.374 10 -26.695
v 27.844 10 -43.697
v 33.831 10 -45.632
v 68.866 10 -21.179
v 39.65 10 -16.31
v 27.244 10 -28.729
v 27.89 10 -43.46
v 69.474 10 -22.266
v 38.982 10 -17.881
v 27.375 10 -29.005
v 33.975 10 -45.567
v 42.26 10 -57.81
v 64.834 10 -65.377
v 70.188 10 -23.507
v 41.884 10 -57.086
v 64.543 10 -64.937
v 70.98 10 -24.85
v 34.17 10 -45.56
v 64.141 10 -64.261
v 72.016 10 -26.562
v 63.654 10 -63.393
v 34.297 10 -45.58
v 34.402 10 -45.648
v 63.105 10 -62.375
v 39.838 10 -31.373
v 65.58 10 -31.64
v 40.124 10 -31.621
v 62.52 10 -61.25
v 61.471 10 -59.17
v 60.6 10 -53.6
v 60.767 10 -57.624
v 60.324 10 -54.601
v 60.368 10 -56.454
v 60.233 10 -55.499
f 1 2 3
f 4 5 6
f 7 4 8
f 9 7 10
f 11 9 12
f 13 14 15
f 16 13 17
f 18 16 19
f 20 18 21
f 22 20 23
f 24 22 25
f 26 24 27
f 28 29 30
f 31 32 33
f 34 31 35
f 36 34 37
f 38 39 40
f 41 38 42
f 43 41 44
f 45 46 47
f 48 45 49
f 50 48 51
f 52 50 53
f 54 55 56
f 57 54 58
f 59 57 60
f 61 59 62
f 63 61 64
f 65 63 66
f 67 68 69
f 70 67 71
f 72 70 73
f 74 72 75
f 2 76 3
f 77 78 79
f 80 81 82
f 83 80 84
f 85 83 86
f 87 88 89
f 90 87 91
f 92 90 93
f 94 92 95
f 96 94 97
f 98 96 99
f 100 98 101
f 102 100 103
f 104 102 105
f 106 104 107
f 108 109 110
f 111 108 112
f 113 111 114
f 115 113 116
f 117 118 119
f 120 117 121
f 122 120 123
f 124 122 125
f 126 124 127
f 128 126 129
f 130 128 131
f 132 130 133
f 134 132 135
f 136 134 137
f 138 139 140
f 141 138 142
f 143 141 144
f 145 143 146
f 147 145 148
f 149 147 150
f 151 149 152
f 153 154 155
f 156 153 157
f 158 156 159
f 160 158 161
f 162 160 163
f 164 162 165
f 166 164 167
f 168 166 169
f 170 168 171
f 172 170 173
f 174 175 176
f 177 174 178
f 179 177 180
f 181 179 182
f 183 184 185
f 186 183 187
f 188 186 189
f 190 188 191
f 192 190 193
f 194 192 195
f 196 197 198
f 199 196 200
f 201 202 203
f 204 201 205
f 206 204 207
f 208 206 209
f 210 208 211
f 212 213 214
f 215 212 216
f 217 215 218
f 219 220 221
f 222 219 223
f 224 222 225
f 226 224 227
f 228 226 229
f 230 228 231
f 232 230 233
f 234 232 235
f 236 234 237
f 238 236 239
f 240 241 242
f 243 240 244
f 245 243 246
f 247 245 248
f 249 247 250
f 251 249 252
f 253 251 254
f 255 253 256
f 257 258 259
f 260 257 261
f 262 260 263
f 264 262 265
f 266 264 267
f 268 266 269
f 270 268 271
f 272 270 273
f 274 275 276
f 277 274 278
f 279 277 280
f 281 279 282
f 283 284 285
f 286 283 287
f 288 286 289
f 290 288 291
f 292 290 293
f 294 292 295
f 296 294 297
f 298 296 299
f 300 298 301
f 302 300 303
f 304 302 305
f 306 304 307
f 308 306 309
f 310 308 311
f 312 313 314
f 315 316 317
f 318 315 319
f 320 318 321
f 322 323 324
f 325 326 327
f 328 325 329
f 330 331 332
f 333 330 334
f 335 333 336
f 337 335 338
f 339 337 340
f 341 339 342
f 343 344 345
f 346 343 347
f 348 346 349
f 350 351 352
f 353 350 354
f 355 353 356
f 357 355 358
f 359 357 360
f 361 359 362
f 363 361 364
f 365 366 367
f 368 365 369
f 370 368 371
f 372 370 373
f 374 372 375
f 376 374 377
f 378 376 379
f 380 381 382
f 383 380 384
f 385 383 386
f 387 385 388
f 389 387 390
f 391 392 393
f 394 391 395
f 396 394 397
f 398 396 399
f 400 401 402
f 403 400 404
f 405 403 406
f 407 408 409
f 410 407 411
f 412 410 413
f 414 412 415
f 416 414 417
f 418 419 420
f 421 422 423
f 424 421 425
f 426 424 427
f 428 426 429
f 430 428 431
f 432 430 433
f 434 435 436
f 437 434 438
f 439 440 441
f 442 439 443
f 444 442 445
f 446 444 447
f 448 446 449
f 450 448 451
f 452 453 454
f 455 452 456
f 457 455 458
f 459 457 460
f 461 462 463
f 464 461 465
f 466 464 467
f 468 466 469
f 470 471 472
f 473 470 474
f 475 473 476
f 477 475 478
f 479 480 481
f 482 483 484
f 485 482 486
f 487 485 488
f 489 487 490
f 491 489 492
f 493 491 494
f 495 493 496
f 497 495 498
f 499 497 500
f 501 499 502
f 503 504 505
f 506 503 507
f 508 506 509
f 510 508 511
f 512 510 513
f 514 512 515
f 516 514 517
f 518 519 520
f 521 518 522
f 523 521 524
f 525 526 527
f 528 525 529
f 2 528 530
f 531 2 1
f 7 5 4
f 11 7 9
f 16 14 13
f 20 16 18
f 24 20 22
f 532 24 26
f 34 32 31
f 533 34 36
f 38 534 39
f 43 38 41
f 48 46 45
f 52 48 50
f 54 535 55
f 59 54 57
f 63 59 61
f 70 68 67
f 74 70 72
f 2 536 76
f 77 537 78
f 80 538 81
f 85 80 83
f 87 539 88
f 92 87 90
f 96 92 94
f 100 96 98
f 104 100 102
f 540 104 106
f 108 541 109
f 113 108 111
f 118 113 115
f 120 118 117
f 124 120 122
f 128 124 126
f 132 128 130
f 136 132 134
f 141 139 138
f 145 141 143
f 149 145 147
f 156 154 153
f 160 156 158
f 164 160 162
f 168 164 166
f 172 168 170
f 174 542 175
f 179 174 177
f 184 179 181
f 186 184 183
f 190 186 188
f 194 190 192
f 196 543 197
f 204 202 201
f 208 204 206
f 544 208 210
f 212 545 213
f 217 212 215
f 219 546 220
f 224 219 222
f 228 224 226
f 232 228 230
f 236 232 234
f 547 236 238
f 243 241 240
f 247 243 245
f 251 247 249
f 255 251 253
f 260 258 257
f 264 260 262
f 268 264 266
f 272 268 270
f 277 275 274
f 281 277 279
f 283 548 284
f 288 283 286
f 292 288 290
f 296 292 294
f 300 296 298
f 304 300 302
f 308 304 306
f 549 308 310
f 318 316 315
f 323 318 320
f 330 550 331
f 335 330 333
f 339 335 337
f 344 339 341
f 346 344 343
f 551 346 348
f 350 552 351
f 355 350 353
f 359 355 357
f 363 359 361
f 368 366 365
f 372 368 370
f 376 372 374
f 553 376 378
f 383 381 380
f 387 383 385
f 392 387 389
f 394 392 391
f 398 394 396
f 400 554 401
f 405 400 403
f 407 555 408
f 412 407 410
f 416 412 414
f 424 422 421
f 428 424 426
f 432 428 430
f 434 432 435
f 556 434 437
f 442 440 439
f 446 442 444
f 450 446 448
f 455 453 452
f 459 455 457
f 461 557 462
f 466 461 464
f 558 466 468
f 473 471 470
f 477 473 475
f 479 559 480
f 485 483 482
f 489 485 487
f 493 489 491
f 497 493 495
f 501 497 499
f 506 504 503
f 510 506 508
f 514 510 512
f 560 514 516
f 521 519 518
f 561 521 523
f 525 562 526
f 2 525 528
f 563 2 531
f 7 564 5
f 20 14 16
f 532 20 24
f 34 565 32
f 566 34 533
f 43 534 38
f 52 46 48
f 59 535 54
f 65 59 63
f 74 68 70
f 2 74 536
f 567 537 77
f 80 568 538
f 569 80 85
f 92 539 87
f 100 92 96
f 540 100 104
f 113 541 108
f 128 120 124
f 136 128 132
f 145 139 141
f 151 145 149
f 156 570 154
f 164 156 160
f 172 164 168
f 174 571 542
f 184 174 179
f 190 184 186
f 543 190 194
f 199 543 196
f 204 572 202
f 573 208 544
f 217 545 212
f 224 546 219
f 232 224 228
f 547 232 236
f 247 241 243
f 255 247 251
f 260 574 258
f 268 260 264
f 281 275 277
f 288 548 283
f 296 288 292
f 304 296 300
f 549 304 308
f 323 316 318
f 335 550 330
f 344 335 339
f 551 344 346
f 350 575 552
f 359 350 355
f 576 359 363
f 372 366 368
f 553 372 376
f 383 577 381
f 392 383 387
f 398 392 394
f 405 554 400
f 412 555 407
f 578 412 416
f 428 422 424
f 434 428 432
f 579 434 556
f 442 580 440
f 450 442 446
f 459 453 455
f 461 581 557
f 558 461 466
f 477 471 473
f 489 483 485
f 497 489 493
f 582 497 501
f 510 504 506
f 560 510 514
f 521 583 519
f 584 521 561
f 2 562 525
f 585 2 563
f 11 564 7
f 20 586 14
f 587 20 532
f 34 588 565
f 43 589 534
f 590 46 52
f 65 535 59
f 2 68 74
f 591 537 567
f 80 592 568
f 593 80 569
f 92 594 539
f 540 92 100
f 113 595 541
f 136 120 128
f 151 139 145
f 156 596 570
f 172 156 164
f 184 571 174
f 543 184 190
f 208 572 204
f 597 208 573
f 217 598 545
f 224 599 546
f 547 224 232
f 247 600 241
f 268 574 260
f 281 272 275
f 288 601 548
f 304 288 296
f 344 550 335
f 350 602 575
f 576 350 359
f 372 603 366
f 604 372 553
f 392 577 383
f 605 392 398
f 405 606 554
f 412 607 555
f 428 608 422
f 579 428 434
f 450 580 442
f 609 453 459
f 461 610 581
f 611 461 558
f 612 471 477
f 489 613 483
f 582 489 497
f 510 614 504
f 615 510 560
f 584 583 521
f 2 616 562
f 617 2 585
f 11 617 564
f 20 618 586
f 34 619 588
f 43 620 589
f 621 46 590
f 68 535 65
f 537 68 2
f 622 537 591
f 80 623 592
f 540 594 92
f 113 624 595
f 136 118 120
f 151 625 139
f 172 596 156
f 184 626 571
f 199 184 543
f 208 627 572
f 628 208 597
f 217 629 598
f 224 630 599
f 631 224 547
f 247 632 600
f 268 633 574
f 634 272 281
f 304 601 288
f 344 635 550
f 576 602 350
f 604 603 372
f 392 636 577
f 637 392 605
f 638 606 405
f 578 607 412
f 579 608 428
f 450 639 580
f 610 453 609
f 611 610 461
f 559 471 612
f 489 640 613
f 641 489 582
f 510 642 614
f 643 510 615
f 584 644 583
f 2 645 616
f 11 2 617
f 20 646 618
f 34 647 619
f 43 648 620
f 649 46 621
f 537 535 68
f 650 537 622
f 593 623 80
f 540 651 594
f 118 624 113
f 652 118 136
f 151 653 625
f 172 654 596
f 184 172 626
f 655 184 199
f 656 208 628
f 217 657 629
f 631 630 224
f 255 632 247
f 272 633 268
f 658 272 634
f 304 659 601
f 344 660 635
f 576 661 602
f 604 662 603
f 637 636 392
f 638 663 606
f 664 607 578
f 579 665 608
f 450 666 639
f 611 453 610
f 479 471 559
f 489 667 640
f 668 489 641
f 510 669 642
f 670 510 643
f 584 671 644
f 2 672 645
f 673 2 11
f 587 646 20
f 34 674 647
f 43 566 648
f 675 46 649
f 593 676 623
f 540 677 651
f 118 678 624
f 653 118 652
f 679 653 151
f 172 680 654
f 655 172 184
f 681 208 656
f 217 682 657
f 631 683 630
f 255 684 632
f 272 685 633
f 686 272 658
f 304 687 659
f 344 688 660
f 576 689 661
f 604 690 662
f 637 691 636
f 692 663 638
f 693 607 664
f 579 694 665
f 450 579 666
f 695 453 611
f 668 667 489
f 670 669 510
f 584 696 671
f 673 672 2
f 587 673 646
f 566 674 34
f 697 566 43
f 698 46 675
f 593 699 676
f 540 593 677
f 118 700 678
f 679 118 653
f 172 701 680
f 702 172 655
f 703 682 217
f 631 704 683
f 255 631 684
f 686 685 272
f 304 705 687
f 344 328 688
f 690 689 576
f 691 690 604
f 706 691 637
f 707 663 692
f 708 607 693
f 579 418 694
f 453 579 450
f 709 453 695
f 668 710 667
f 670 711 669
f 712 696 584
f 673 713 672
f 714 673 587
f 566 715 674
f 716 566 697
f 717 46 698
f 593 650 699
f 718 593 540
f 679 700 118
f 702 701 172
f 719 682 703
f 631 720 704
f 721 631 255
f 722 685 686
f 304 723 705
f 344 325 328
f 691 689 690
f 724 691 706
f 725 663 707
f 579 419 418
f 709 579 453
f 668 726 710
f 670 727 711
f 728 696 712
f 673 729 713
f 730 673 714
f 566 731 715
f 732 566 716
f 593 537 650
f 733 593 718
f 679 734 700
f 627 701 702
f 631 735 720
f 736 631 721
f 722 737 685
f 304 738 723
f 691 551 689
f 739 691 724
f 740 663 725
f 579 741 419
f 742 579 709
f 668 743 726
f 670 744 727
f 673 745 729
f 29 673 730
f 732 731 566
f 733 537 593
f 746 734 679
f 208 701 627
f 631 747 735
f 748 631 736
f 304 749 738
f 691 344 551
f 750 691 739
f 751 663 740
f 579 752 741
f 753 579 742
f 668 754 743
f 670 755 744
f 673 756 745
f 28 673 29
f 732 757 731
f 758 537 733
f 759 734 746
f 208 760 701
f 631 761 747
f 762 631 748
f 304 763 749
f 691 325 344
f 751 764 663
f 579 765 752
f 766 579 753
f 668 767 754
f 768 755 670
f 673 728 756
f 769 673 28
f 770 757 732
f 771 537 758
f 760 734 759
f 681 760 208
f 631 772 761
f 773 631 762
f 304 774 763
f 750 325 691
f 775 764 751
f 579 776 765
f 777 579 766
f 668 778 767
f 768 779 755
f 673 696 728
f 734 537 771
f 780 760 681
f 631 781 772
f 782 631 773
f 304 783 774
f 784 325 750
f 785 764 775
f 579 708 776
f 786 579 777
f 668 787 778
f 768 788 779
f 673 789 696
f 734 535 537
f 682 760 780
f 631 790 781
f 791 631 782
f 304 792 783
f 793 325 784
f 579 607 708
f 794 787 668
f 768 795 788
f 769 789 673
f 760 535 734
f 719 760 682
f 631 796 790
f 304 797 792
f 798 325 793
f 786 607 579
f 794 799 787
f 789 795 768
f 800 789 769
f 760 801 535
f 802 760 719
f 631 802 796
f 304 803 797
f 804 325 798
f 786 805 607
f 794 479 799
f 789 806 795
f 807 789 800
f 760 717 801
f 791 802 631
f 304 808 803
f 809 325 804
f 810 805 786
f 811 479 794
f 807 806 789
f 760 46 717
f 791 760 802
f 304 812 808
f 813 325 809
f 814 805 810
f 806 479 811
f 815 806 807
f 760 816 46
f 817 760 791
f 304 818 812
f 764 325 813
f 471 805 814
f 815 479 806
f 760 819 816
f 820 760 817
f 304 821 818
f 785 325 764
f 479 805 471
f 822 479 815
f 760 770 819
f 823 760 820
f 304 824 821
f 805 325 785
f 822 805 479
f 760 757 770
f 825 760 823
f 304 722 824
f 805 326 325
f 826 805 822
f 760 827 757
f 828 760 825
f 549 722 304
f 805 829 326
f 827 805 826
f 828 827 760
f 830 722 549
f 805 831 829
f 828 805 827
f 313 722 830
f 805 322 831
f 832 805 828
f 313 737 722
f 805 323 322
f 833 805 832
f 312 737 313
f 833 323 805
f 316 737 312
f 833 316 323
f 316 834 737
f 835 316 833
f 316 836 834
f 837 316 835
f 316 838 836
f 838 316 837
f 839 840 841
f 842 843 844
f 843 845 846
f 845 847 848
f 847 849 850
f 851 852 853
f 852 854 855
f 854 856 857
f 856 858 859
f 858 860 861
f 860 862 863
f 862 864 865
f 866 867 868
f 869 870 871
f 870 872 873
f 872 874 875
f 876 877 878
f 877 879 880
f 879 881 882
f 883 884 885
f 884 886 887
f 886 888 889
f 888 890 891
f 892 893 894
f 893 895 896
f 895 897 898
f 897 899 900
f 899 901 902
f 901 903 904
f 905 906 907
f 906 908 909
f 908 910 911
f 910 912 913
f 914 839 841
f 915 916 917
f 918 919 920
f 919 921 922
f 921 923 924
f 925 926 927
f 926 928 929
f 928 930 931
f 930 932 933
f 932 934 935
f 934 936 937
f 936 938 939
f 938 940 941
f 940 942 943
f 942 944 945
f 946 947 948
f 947 949 950
f 949 951 952
f 951 953 954
f 955 956 957
f 956 958 959
f 958 960 961
f 960 962 963
f 962 964 965
f 964 966 967
f 966 968 969
f 968 970 971
f 970 972 973
f 972 974 975
f 976 977 978
f 977 979 980
f 979 981 982
f 981 983 984
f 983 985 986
f 985 987 988
f 987 989 990
f 991 992 993
f 992 994 995
f 994 996 997
f 996 998 999
f 998 1000 1001
f 1000 1002 1003
f 1002 1004 1005
f 1004 1006 1007
f 1006 1008 1009
f 1008 1010 1011
f 1012 1013 1014
f 1013 1015 1016
f 1015 1017 1018
f 1017 1019 1020
f 1021 1022 1023
f 1022 1024 1025
f 1024 1026 1027
f 1026 1028 1029
f 1028 1030 1031
f 1030 1032 1033
f 1034 1035 1036
f 1035 1037 1038
f 1039 1040 1041
f 1040 1042 1043
f 1042 1044 1045
f 1044 1046 1047
f 1046 1048 1049
f 1050 1051 1052
f 1051 1053 1054
f 1053 1055 1056
f 1057 1058 1059
f 1058 1060 1061
f 1060 1062 1063
f 1062 1064 1065
f 1064 1066 1067
f 1066 1068 1069
f 1068 1070 1071
f 1070 1072 1073
f 1072 1074 1075
f 1074 1076 1077
f 1078 1079 1080
f 1079 1081 1082
f 1081 1083 1084
f 1083 1085 1086
f 1085 1087 1088
f 1087 1089 1090
f 1089 1091 1092
f 1091 1093 1094
f 1095 1096 1097
f 1096 1098 1099
f 1098 1100 1101
f 1100 1102 1103
f 1102 1104 1105
f 1104 1106 1107
f 1106 1108 1109
f 1108 1110 1111
f 1112 1113 1114
f 1113 1115 1116
f 1115 1117 1118
f 1117 1119 1120
f 1121 1122 1123
f 1122 1124 1125
f 1124 1126 1127
f 1126 1128 1129
f 1128 1130 1131
f 1130 1132 1133
f 1132 1134 1135
f 1134 1136 1137
f 1136 1138 1139
f 1138 1140 1141
f 1140 1142 1143
f 1142 1144 1145
f 1144 1146 1147
f 1146 1148 1149
f 1150 1151 1152
f 1153 1154 1155
f 1154 1156 1157
f 1156 1158 1159
f 1160 1161 1162
f 1163 1164 1165
f 1164 1166 1167
f 1168 1169 1170
f 1169 1171 1172
f 1171 1173 1174
f 1173 1175 1176
f 1175 1177 1178
f 1177 1179 1180
f 1181 1182 1183
f 1182 1184 1185
f 1184 1186 1187
f 1188 1189 1190
f 1189 1191 1192
f 1191 1193 1194
f 1193 1195 1196
f 1195 1197 1198
f 1197 1199 1200
f 1199 1201 1202
f 1203 1204 1205
f 1204 1206 1207
f 1206 1208 1209
f 1208 1210 1211
f 1210 1212 1213
f 1212 1214 1215
f 1214 1216 1217
f 1218 1219 1220
f 1219 1221 1222
f 1221 1223 1224
f 1223 1225 1226
f 1225 1227 1228
f 1229 1230 1231
f 1230 1232 1233
f 1232 1234 1235
f 1234 1236 1237
f 1238 1239 1240
f 1239 1241 1242
f 1241 1243 1244
f 1245 1246 1247
f 1246 1248 1249
f 1248 1250 1251
f 1250 1252 1253
f 1252 1254 1255
f 1256 1257 1258
f 1259 1260 1261
f 1260 1262 1263
f 1262 1264 1265
f 1264 1266 1267
f 1266 1268 1269
f 1268 1270 1271
f 1272 1273 1274
f 1273 1275 1276
f 1277 1278 1279
f 1278 1280 1281
f 1280 1282 1283
f 1282 1284 1285
f 1284 1286 1287
f 1286 1288 1289
f 1290 1291 1292
f 1291 1293 1294
f 1293 1295 1296
f 1295 1297 1298
f 1299 1300 1301
f 1300 1302 1303
f 1302 1304 1305
f 1304 1306 1307
f 1308 1309 1310
f 1309 1311 1312
f 1311 1313 1314
f 1313 1315 1316
f 1317 1318 1319
f 1320 1321 1322
f 1321 1323 1324
f 1323 1325 1326
f 1325 1327 1328
f 1327 1329 1330
f 1329 1331 1332
f 1331 1333 1334
f 1333 1335 1336
f 1335 1337 1338
f 1337 1339 1340
f 1341 1342 1343
f 1342 1344 1345
f 1344 1346 1347
f 1346 1348 1349
f 1348 1350 1351
f 1350 1352 1353
f 1352 1354 1355
f 1356 1357 1358
f 1357 1359 1360
f 1359 1361 1362
f 1363 1364 1365
f 1364 1366 1367
f 1366 839 1368
f 839 1369 840
f 842 845 843
f 845 849 847
f 851 854 852
f 854 858 856
f 858 862 860
f 862 1370 864
f 869 872 870
f 872 1371 874
f 1372 877 876
f 877 881 879
f 883 886 884
f 886 890 888
f 1373 893 892
f 893 897 895
f 897 901 899
f 905 908 906
f 908 912 910
f 1374 839 914
f 1375 916 915
f 1376 919 918
f 919 923 921
f 1377 926 925
f 926 930 928
f 930 934 932
f 934 938 936
f 938 942 940
f 942 1378 944
f 1379 947 946
f 947 951 949
f 951 955 953
f 955 958 956
f 958 962 960
f 962 966 964
f 966 970 968
f 970 974 972
f 976 979 977
f 979 983 981
f 983 987 985
f 991 994 992
f 994 998 996
f 998 1002 1000
f 1002 1006 1004
f 1006 1010 1008
f 1380 1013 1012
f 1013 1017 1015
f 1017 1021 1019
f 1021 1024 1022
f 1024 1028 1026
f 1028 1032 1030
f 1381 1035 1034
f 1039 1042 1040
f 1042 1046 1044
f 1046 1382 1048
f 1383 1051 1050
f 1051 1055 1053
f 1384 1058 1057
f 1058 1062 1060
f 1062 1066 1064
f 1066 1070 1068
f 1070 1074 1072
f 1074 1385 1076
f 1078 1081 1079
f 1081 1085 1083
f 1085 1089 1087
f 1089 1093 1091
f 1095 1098 1096
f 1098 1102 1100
f 1102 1106 1104
f 1106 1110 1108
f 1112 1115 1113
f 1115 1119 1117
f 1386 1122 1121
f 1122 1126 1124
f 1126 1130 1128
f 1130 1134 1132
f 1134 1138 1136
f 1138 1142 1140
f 1142 1146 1144
f 1146 1387 1148
f 1153 1156 1154
f 1156 1160 1158
f 1388 1169 1168
f 1169 1173 1171
f 1173 1177 1175
f 1177 1181 1179
f 1181 1184 1182
f 1184 1389 1186
f 1390 1189 1188
f 1189 1193 1191
f 1193 1197 1195
f 1197 1201 1199
f 1203 1206 1204
f 1206 1210 1208
f 1210 1214 1212
f 1214 1391 1216
f 1218 1221 1219
f 1221 1225 1223
f 1225 1229 1227
f 1229 1232 1230
f 1232 1236 1234
f 1392 1239 1238
f 1239 1243 1241
f 1393 1246 1245
f 1246 1250 1248
f 1250 1254 1252
f 1259 1262 1260
f 1262 1266 1264
f 1266 1270 1268
f 1270 1273 1272
f 1273 1394 1275
f 1277 1280 1278
f 1280 1284 1282
f 1284 1288 1286
f 1290 1293 1291
f 1293 1297 1295
f 1395 1300 1299
f 1300 1304 1302
f 1304 1396 1306
f 1308 1311 1309
f 1311 1315 1313
f 1397 1318 1317
f 1320 1323 1321
f 1323 1327 1325
f 1327 1331 1329
f 1331 1335 1333
f 1335 1339 1337
f 1341 1344 1342
f 1344 1348 1346
f 1348 1352 1350
f 1352 1398 1354
f 1356 1359 1357
f 1359 1399 1361
f 1400 1364 1363
f 1364 839 1366
f 839 1401 1369
f 1402 845 842
f 851 858 854
f 858 1370 862
f 1403 872 869
f 872 1404 1371
f 1372 881 877
f 883 890 886
f 1373 897 893
f 897 903 901
f 905 912 908
f 912 839 1374
f 1375 1405 916
f 1406 919 1376
f 919 1407 923
f 1377 930 926
f 930 938 934
f 938 1378 942
f 1379 951 947
f 958 966 962
f 966 974 970
f 976 983 979
f 983 989 987
f 1408 994 991
f 994 1002 998
f 1002 1010 1006
f 1409 1013 1380
f 1013 1021 1017
f 1021 1028 1024
f 1028 1381 1032
f 1381 1037 1035
f 1410 1042 1039
f 1046 1411 1382
f 1383 1055 1051
f 1384 1062 1058
f 1062 1070 1066
f 1070 1385 1074
f 1078 1085 1081
f 1085 1093 1089
f 1412 1098 1095
f 1098 1106 1102
f 1112 1119 1115
f 1386 1126 1122
f 1126 1134 1130
f 1134 1142 1138
f 1142 1387 1146
f 1153 1160 1156
f 1388 1173 1169
f 1173 1181 1177
f 1181 1389 1184
f 1413 1189 1390
f 1189 1197 1193
f 1197 1414 1201
f 1203 1210 1206
f 1210 1391 1214
f 1415 1221 1218
f 1221 1229 1225
f 1229 1236 1232
f 1392 1243 1239
f 1393 1250 1246
f 1250 1416 1254
f 1259 1266 1262
f 1266 1273 1270
f 1273 1417 1394
f 1418 1280 1277
f 1280 1288 1284
f 1290 1297 1293
f 1419 1300 1395
f 1300 1396 1304
f 1308 1315 1311
f 1320 1327 1323
f 1327 1335 1331
f 1335 1420 1339
f 1341 1348 1344
f 1348 1398 1352
f 1421 1359 1356
f 1359 1422 1399
f 1400 839 1364
f 839 1423 1401
f 1402 849 845
f 1424 858 851
f 858 1425 1370
f 1426 872 1403
f 1427 881 1372
f 883 1428 890
f 1373 903 897
f 905 839 912
f 1375 1429 1405
f 1430 919 1406
f 919 1431 1407
f 1432 930 1377
f 930 1378 938
f 1433 951 1379
f 958 974 966
f 976 989 983
f 1434 994 1408
f 994 1010 1002
f 1409 1021 1013
f 1021 1381 1028
f 1410 1046 1042
f 1046 1435 1411
f 1436 1055 1383
f 1437 1062 1384
f 1062 1385 1070
f 1438 1085 1078
f 1412 1106 1098
f 1110 1119 1112
f 1439 1126 1386
f 1126 1142 1134
f 1388 1181 1173
f 1440 1189 1413
f 1189 1414 1197
f 1441 1210 1203
f 1210 1442 1391
f 1415 1229 1221
f 1229 1443 1236
f 1444 1243 1392
f 1445 1250 1393
f 1446 1266 1259
f 1266 1417 1273
f 1418 1288 1280
f 1290 1447 1297
f 1448 1300 1419
f 1300 1449 1396
f 1308 1450 1315
f 1451 1327 1320
f 1327 1420 1335
f 1452 1348 1341
f 1348 1453 1398
f 1421 1422 1359
f 1454 839 1400
f 839 1455 1423
f 1455 849 1402
f 1456 858 1424
f 1457 872 1426
f 1458 881 1427
f 883 1459 1428
f 1373 905 903
f 905 1375 839
f 1375 1460 1429
f 1461 919 1430
f 1432 1378 930
f 1462 951 1433
f 955 974 958
f 1463 989 976
f 1434 1010 994
f 1464 1021 1409
f 1021 1037 1381
f 1465 1046 1410
f 1046 1466 1435
f 1467 1055 1436
f 1468 1062 1437
f 1062 1469 1385
f 1470 1085 1438
f 1471 1106 1412
f 1110 1472 1119
f 1439 1142 1126
f 1473 1181 1388
f 1440 1414 1189
f 1441 1442 1210
f 1474 1229 1415
f 1229 1475 1443
f 1444 1476 1243
f 1445 1416 1250
f 1446 1417 1266
f 1477 1288 1418
f 1290 1448 1447
f 1448 1449 1300
f 1308 1397 1450
f 1478 1327 1451
f 1327 1479 1420
f 1480 1348 1452
f 1348 1481 1453
f 1482 1422 1421
f 1483 839 1454
f 839 849 1455
f 1484 858 1456
f 1485 872 1457
f 1486 881 1458
f 883 1487 1459
f 1373 1375 905
f 1375 1488 1460
f 1461 1431 919
f 1489 1378 1432
f 1462 955 951
f 955 1490 974
f 1491 989 1463
f 1492 1010 1434
f 1010 1021 1464
f 1021 1493 1037
f 1046 1494 1466
f 1495 1055 1467
f 1468 1469 1062
f 1470 1093 1085
f 1471 1110 1106
f 1110 1496 1472
f 1497 1142 1439
f 1498 1181 1473
f 1499 1414 1440
f 1500 1442 1441
f 1474 1475 1229
f 1501 1476 1444
f 1445 1502 1416
f 1503 1417 1446
f 1504 1288 1477
f 1290 1449 1448
f 1308 1318 1397
f 1505 1327 1478
f 1327 1506 1479
f 1507 1348 1480
f 1348 1508 1481
f 1509 1422 1482
f 1510 839 1483
f 839 1511 849
f 1484 1425 858
f 1512 872 1485
f 1404 881 1486
f 883 1513 1487
f 1514 1431 1461
f 1515 1378 1489
f 1516 955 1462
f 955 1491 1490
f 1491 1517 989
f 1518 1010 1492
f 1010 1493 1021
f 1046 1519 1494
f 1520 1055 1495
f 1521 1469 1468
f 1522 1093 1470
f 1523 1110 1471
f 1110 1524 1496
f 1525 1142 1497
f 1526 1181 1498
f 1527 1414 1499
f 1528 1442 1500
f 1529 1475 1474
f 1501 1530 1476
f 1445 1531 1502
f 1532 1417 1503
f 1417 1288 1504
f 1290 1533 1449
f 1505 1506 1327
f 1507 1508 1348
f 1534 1422 1509
f 1510 1511 839
f 1511 1425 1484
f 1512 1404 872
f 1404 1535 881
f 883 1536 1513
f 1537 1431 1514
f 1431 1378 1515
f 1538 955 1516
f 955 1517 1491
f 1539 1010 1518
f 1010 1540 1493
f 1520 1541 1055
f 1542 1469 1521
f 1469 1093 1522
f 1523 1524 1110
f 1543 1142 1525
f 1166 1181 1526
f 1527 1528 1414
f 1528 1529 1442
f 1529 1544 1475
f 1501 1545 1530
f 1445 1546 1531
f 1257 1417 1532
f 1417 1290 1288
f 1290 1547 1533
f 1548 1506 1505
f 1549 1508 1507
f 1534 1550 1422
f 1551 1511 1510
f 1511 1552 1425
f 1553 1404 1512
f 1404 1554 1535
f 883 1555 1536
f 1488 1431 1537
f 1431 1556 1378
f 1538 1517 955
f 1539 1540 1010
f 1520 1557 1541
f 1558 1469 1542
f 1469 1559 1093
f 1523 1560 1524
f 1561 1142 1543
f 1164 1181 1166
f 1527 1529 1528
f 1529 1562 1544
f 1501 1563 1545
f 1256 1417 1257
f 1417 1547 1290
f 1564 1506 1548
f 1565 1508 1549
f 1534 1566 1550
f 1567 1511 1551
f 1511 1568 1552
f 1569 1404 1553
f 1404 1570 1554
f 1375 1431 1488
f 1431 1571 1556
f 1572 1517 1538
f 1539 1465 1540
f 1573 1469 1558
f 1469 1574 1559
f 1575 1560 1523
f 1576 1142 1561
f 1389 1529 1527
f 1529 1577 1562
f 1501 1578 1563
f 1579 1417 1256
f 1417 1580 1547
f 1581 1506 1564
f 1582 1508 1565
f 1583 1511 1567
f 1511 866 1568
f 1569 1570 1404
f 1375 1571 1431
f 1572 1584 1517
f 1539 1046 1465
f 1585 1469 1573
f 1469 1586 1574
f 1587 1142 1576
f 1181 1529 1389
f 1529 1588 1577
f 1501 1589 1578
f 1590 1417 1579
f 1417 1591 1580
f 1592 1506 1581
f 1593 1508 1582
f 1594 1511 1583
f 1511 867 866
f 1595 1570 1569
f 1375 1596 1571
f 1572 1597 1584
f 1598 1046 1539
f 1599 1469 1585
f 1469 1600 1586
f 1601 1142 1587
f 1164 1529 1181
f 1602 1589 1501
f 1603 1417 1590
f 1417 1604 1591
f 1605 1506 1592
f 1593 1606 1508
f 1566 1511 1594
f 1511 1607 867
f 1595 1608 1570
f 1375 1609 1596
f 1572 1598 1597
f 1598 1519 1046
f 1610 1469 1599
f 1469 1611 1600
f 1612 1142 1601
f 1164 1588 1529
f 1602 1613 1589
f 1614 1417 1603
f 1417 1615 1604
f 1616 1506 1605
f 1617 1606 1593
f 1534 1511 1566
f 1375 1572 1609
f 1598 1618 1519
f 1619 1469 1610
f 1469 1620 1611
f 1621 1142 1612
f 1164 1622 1588
f 1602 1623 1613
f 1546 1417 1614
f 1417 1624 1615
f 1625 1506 1616
f 1626 1606 1617
f 1627 1511 1534
f 1373 1572 1375
f 1598 1520 1618
f 1628 1469 1619
f 1469 1629 1620
f 1630 1142 1621
f 1164 1631 1622
f 1445 1417 1546
f 1625 1632 1506
f 1633 1606 1626
f 1627 1607 1511
f 1373 1598 1572
f 1598 1557 1520
f 1634 1469 1628
f 1635 1142 1630
f 1164 1636 1631
f 1445 1624 1417
f 1637 1632 1625
f 1633 1627 1606
f 1627 1638 1607
f 1639 1598 1373
f 1598 1640 1557
f 1640 1469 1634
f 1641 1142 1635
f 1164 1642 1636
f 1643 1624 1445
f 1318 1632 1637
f 1644 1627 1633
f 1627 1645 1638
f 1555 1598 1639
f 1640 1629 1469
f 1646 1142 1641
f 1164 1647 1642
f 1643 1648 1624
f 1318 1649 1632
f 1644 1645 1627
f 883 1598 1555
f 1598 1629 1640
f 1650 1142 1646
f 1164 1651 1647
f 1643 1652 1648
f 1318 1644 1649
f 1644 1653 1645
f 1654 1598 883
f 1598 1655 1629
f 1656 1142 1650
f 1164 1602 1651
f 1643 1308 1652
f 1318 1653 1644
f 1657 1598 1654
f 1598 1658 1655
f 1659 1142 1656
f 1164 1623 1602
f 1643 1318 1308
f 1318 1660 1653
f 1608 1598 1657
f 1598 1661 1658
f 1662 1142 1659
f 1164 1643 1623
f 1643 1660 1318
f 1595 1598 1608
f 1598 1663 1661
f 1560 1142 1662
f 1163 1643 1164
f 1643 1664 1660
f 1665 1598 1595
f 1598 1666 1663
f 1560 1387 1142
f 1667 1643 1163
f 1643 1665 1664
f 1665 1666 1598
f 1560 1668 1387
f 1669 1643 1667
f 1643 1666 1665
f 1560 1150 1668
f 1161 1643 1669
f 1643 1670 1666
f 1575 1150 1560
f 1160 1643 1161
f 1643 1671 1670
f 1575 1151 1150
f 1160 1671 1643
f 1575 1153 1151
f 1153 1671 1160
f 1672 1153 1575
f 1153 1673 1671
f 1674 1153 1672
f 1153 1675 1673
f 1676 1153 1674
f 1153 1676 1675
f 434 1273 438
f 438 1273 1276
f 438 1276 437
f 437 1276 1275
f 437 1275 556
f 556 1275 1394
f 556 1394 579
f 579 1394 1417
f 579 1417 666
f 666 1417 1504
f 666 1504 639
f 639 1504 1477
f 639 1477 580
f 580 1477 1418
f 580 1418 440
f 440 1418 1277
f 440 1277 441
f 441 1277 1279
f 441 1279 439
f 439 1279 1278
f 439 1278 443
f 443 1278 1281
f 443 1281 442
f 442 1281 1280
f 442 1280 445
f 445 1280 1283
f 445 1283 444
f 444 1283 1282
f 444 1282 447
f 447 1282 1285
f 447 1285 446
f 446 1285 1284
f 446 1284 449
f 449 1284 1287
f 449 1287 448
f 448 1287 1286
f 448 1286 451
f 451 1286 1289
f 451 1289 450
f 450 1289 1288
f 450 1288 453
f 453 1288 1290
f 453 1290 454
f 454 1290 1292
f 454 1292 452
f 452 1292 1291
f 452 1291 456
f 456 1291 1294
f 456 1294 455
f 455 1294 1293
f 455 1293 458
f 458 1293 1296
f 458 1296 457
f 457 1296 1295
f 457 1295 460
f 460 1295 1298
f 460 1298 459
f 459 1298 1297
f 459 1297 609
f 609 1297 1447
f 609 1447 610
f 610 1447 1448
f 610 1448 581
f 581 1448 1419
f 581 1419 557
f 557 1419 1395
f 557 1395 462
f 462 1395 1299
f 462 1299 463
f 463 1299 1301
f 463 1301 461
f 461 1301 1300
f 461 1300 465
f 465 1300 1303
f 465 1303 464
f 464 1303 1302
f 464 1302 467
f 467 1302 1305
f 467 1305 466
f 466 1305 1304
f 466 1304 469
f 469 1304 1307
f 469 1307 468
f 468 1307 1306
f 468 1306 558
f 558 1306 1396
f 558 1396 611
f 611 1396 1449
f 611 1449 695
f 695 1449 1533
f 695 1533 709
f 709 1533 1547
f 709 1547 742
f 742 1547 1580
f 742 1580 753
f 753 1580 1591
f 753 1591 766
f 766 1591 1604
f 766 1604 777
f 777 1604 1615
f 777 1615 786
f 786 1615 1624
f 786 1624 810
f 810 1624 1648
f 810 1648 814
f 814 1648 1652
f 814 1652 471
f 471 1652 1308
f 471 1308 472
f 472 1308 1310
f 472 1310 470
f 470 1310 1309
f 470 1309 474
f 474 1309 1312
f 474 1312 473
f 473 1312 1311
f 473 1311 476
f 476 1311 1314
f 476 1314 475
f 475 1314 1313
f 475 1313 478
f 478 1313 1316
f 478 1316 477
f 477 1316 1315
f 477 1315 612
f 612 1315 1450
f 612 1450 559
f 559 1450 1397
f 559 1397 480
f 480 1397 1317
f 480 1317 481
f 481 1317 1319
f 481 1319 479
f 479 1319 1318
f 479 1318 799
f 799 1318 1637
f 799 1637 787
f 787 1637 1625
f 787 1625 778
f 778 1625 1616
f 778 1616 767
f 767 1616 1605
f 767 1605 754
f 754 1605 1592
f 754 1592 743
f 743 1592 1581
f 743 1581 726
f 726 1581 1564
f 726 1564 710
f 710 1564 1548
f 710 1548 667
f 667 1548 1505
f 667 1505 640
f 640 1505 1478
f 640 1478 613
f 613 1478 1451
f 613 1451 483
f 483 1451 1320
f 483 1320 484
f 484 1320 1322
f 484 1322 482
f 482 1322 1321
f 482 1321 486
f 486 1321 1324
f 486 1324 485
f 485 1324 1323
f 485 1323 488
f 488 1323 1326
f 488 1326 487
f 487 1326 1325
f 487 1325 490
f 490 1325 1328
f 490 1328 489
f 489 1328 1327
f 489 1327 492
f 492 1327 1330
f 492 1330 491
f 491 1330 1329
f 491 1329 494
f 494 1329 1332
f 494 1332 493
f 493 1332 1331
f 493 1331 496
f 496 1331 1334
f 496 1334 495
f 495 1334 1333
f 495 1333 498
f 498 1333 1336
f 498 1336 497
f 497 1336 1335
f 497 1335 500
f 500 1335 1338
f 500 1338 499
f 499 1338 1337
f 499 1337 502
f 502 1337 1340
f 502 1340 501
f 501 1340 1339
f 501 1339 582
f 582 1339 1420
f 582 1420 641
f 641 1420 1479
f 641 1479 668
f 668 1479 1506
f 668 1506 794
f 794 1506 1632
f 794 1632 811
f 811 1632 1649
f 811 1649 806
f 806 1649 1644
f 806 1644 795
f 795 1644 1633
f 795 1633 788
f 788 1633 1626
f 788 1626 779
f 779 1626 1617
f 779 1617 755
f 755 1617 1593
f 755 1593 744
f 744 1593 1582
f 744 1582 727
f 727 1582 1565
f 727 1565 711
f 711 1565 1549
f 711 1549 669
f 669 1549 1507
f 669 1507 642
f 642 1507 1480
f 642 1480 614
f 614 1480 1452
f 614 1452 504
f 504 1452 1341
f 504 1341 505
f 505 1341 1343
f 505 1343 503
f 503 1343 1342
f 503 1342 507
f 507 1342 1345
f 507 1345 506
f 506 1345 1344
f 506 1344 509
f 509 1344 1347
f 509 1347 508
f 508 1347 1346
f 508 1346 511
f 511 1346 1349
f 511 1349 510
f 510 1349 1348
f 510 1348 513
f 513 1348 1351
f 513 1351 512
f 512 1351 1350
f 512 1350 515
f 515 1350 1353
f 515 1353 514
f 514 1353 1352
f 514 1352 517
f 517 1352 1355
f 517 1355 516
f 516 1355 1354
f 516 1354 560
f 560 1354 1398
f 560 1398 615
f 615 1398 1453
f 615 1453 643
f 643 1453 1481
f 643 1481 670
f 670 1481 1508
f 670 1508 768
f 768 1508 1606
f 768 1606 789
f 789 1606 1627
f 789 1627 696
f 696 1627 1534
f 696 1534 671
f 671 1534 1509
f 671 1509 644
f 644 1509 1482
f 644 1482 583
f 583 1482 1421
f 583 1421 519
f 519 1421 1356
f 519 1356 520
f 520 1356 1358
f 520 1358 518
f 518 1358 1357
f 518 1357 522
f 522 1357 1360
f 522 1360 521
f 521 1360 1359
f 521 1359 524
f 524 1359 1362
f 524 1362 523
f 523 1362 1361
f 523 1361 561
f 561 1361 1399
f 561 1399 584
f 584 1399 1422
f 584 1422 712
f 712 1422 1550
f 712 1550 728
f 728 1550 1566
f 728 1566 756
f 756 1566 1594
f 756 1594 745
f 745 1594 1583
f 745 1583 729
f 729 1583 1567
f 729 1567 713
f 713 1567 1551
f 713 1551 672
f 672 1551 1510
f 672 1510 645
f 645 1510 1483
f 645 1483 616
f 616 1483 1454
f 616 1454 562
f 562 1454 1400
f 562 1400 526
f 526 1400 1363
f 526 1363 527
f 527 1363 1365
f 527 1365 525
f 525 1365 1364
f 525 1364 529
f 529 1364 1367
f 529 1367 528
f 528 1367 1366
f 528 1366 530
f 530 1366 1368
f 530 1368 2
f 2 1368 839
f 2 839 537
f 537 839 1375
f 537 1375 78
f 78 1375 915
f 78 915 79
f 79 915 917
f 79 917 77
f 77 917 916
f 77 916 567
f 567 916 1405
f 567 1405 591
f 591 1405 1429
f 591 1429 622
f 622 1429 1460
f 622 1460 650
f 650 1460 1488
f 650 1488 699
f 699 1488 1537
f 699 1537 676
f 676 1537 1514
f 676 1514 623
f 623 1514 1461
f 623 1461 592
f 592 1461 1430
f 592 1430 568
f 568 1430 1406
f 568 1406 538
f 538 1406 1376
f 538 1376 81
f 81 1376 918
f 81 918 82
f 82 918 920
f 82 920 80
f 80 920 919
f 80 919 84
f 84 919 922
f 84 922 83
f 83 922 921
f 83 921 86
f 86 921 924
f 86 924 85
f 85 924 923
f 85 923 569
f 569 923 1407
f 569 1407 593
f 593 1407 1431
f 593 1431 677
f 677 1431 1515
f 677 1515 651
f 651 1515 1489
f 651 1489 594
f 594 1489 1432
f 594 1432 539
f 539 1432 1377
f 539 1377 88
f 88 1377 925
f 88 925 89
f 89 925 927
f 89 927 87
f 87 927 926
f 87 926 91
f 91 926 929
f 91 929 90
f 90 929 928
f 90 928 93
f 93 928 931
f 93 931 92
f 92 931 930
f 92 930 95
f 95 930 933
f 95 933 94
f 94 933 932
f 94 932 97
f 97 932 935
f 97 935 96
f 96 935 934
f 96 934 99
f 99 934 937
f 99 937 98
f 98 937 936
f 98 936 101
f 101 936 939
f 101 939 100
f 100 939 938
f 100 938 103
f 103 938 941
f 103 941 102
f 102 941 940
f 102 940 105
f 105 940 943
f 105 943 104
f 104 943 942
f 104 942 107
f 107 942 945
f 107 945 106
f 106 945 944
f 106 944 540
f 540 944 1378
f 540 1378 718
f 718 1378 1556
f 718 1556 733
f 733 1556 1571
f 733 1571 758
f 758 1571 1596
f 758 1596 771
f 771 1596 1609
f 771 1609 734
f 734 1609 1572
f 734 1572 700
f 700 1572 1538
f 700 1538 678
f 678 1538 1516
f 678 1516 624
f 624 1516 1462
f 624 1462 595
f 595 1462 1433
f 595 1433 541
f 541 1433 1379
f 541 1379 109
f 109 1379 946
f 109 946 110
f 110 946 948
f 110 948 108
f 108 948 947
f 108 947 112
f 112 947 950
f 112 950 111
f 111 950 949
f 111 949 114
f 114 949 952
f 114 952 113
f 113 952 951
f 113 951 116
f 116 951 954
f 116 954 115
f 115 954 953
f 115 953 118
f 118 953 955
f 118 955 119
f 119 955 957
f 119 957 117
f 117 957 956
f 117 956 121
f 121 956 959
f 121 959 120
f 120 959 958
f 120 958 123
f 123 958 961
f 123 961 122
f 122 961 960
f 122 960 125
f 125 960 963
f 125 963 124
f 124 963 962
f 124 962 127
f 127 962 965
f 127 965 126
f 126 965 964
f 126 964 129
f 129 964 967
f 129 967 128
f 128 967 966
f 128 966 131
f 131 966 969
f 131 969 130
f 130 969 968
f 130 968 133
f 133 968 971
f 133 971 132
f 132 971 970
f 132 970 135
f 135 970 973
f 135 973 134
f 134 973 972
f 134 972 137
f 137 972 975
f 137 975 136
f 136 975 974
f 136 974 652
f 652 974 1490
f 652 1490 653
f 653 1490 1491
f 653 1491 625
f 625 1491 1463
f 625 1463 139
f 139 1463 976
f 139 976 140
f 140 976 978
f 140 978 138
f 138 978 977
f 138 977 142
f 142 977 980
f 142 980 141
f 141 980 979
f 141 979 144
f 144 979 982
f 144 982 143
f 143 982 981
f 143 981 146
f 146 981 984
f 146 984 145
f 145 984 983
f 145 983 148
f 148 983 986
f 148 986 147
f 147 986 985
f 147 985 150
f 150 985 988
f 150 988 149
f 149 988 987
f 149 987 152
f 152 987 990
f 152 990 151
f 151 990 989
f 151 989 679
f 679 989 1517
f 679 1517 746
f 746 1517 1584
f 746 1584 759
f 759 1584 1597
f 759 1597 760
f 760 1597 1598
f 760 1598 701
f 701 1598 1539
f 701 1539 680
f 680 1539 1518
f 680 1518 654
f 654 1518 1492
f 654 1492 596
f 596 1492 1434
f 596 1434 570
f 570 1434 1408
f 570 1408 154
f 154 1408 991
f 154 991 155
f 155 991 993
f 155 993 153
f 153 993 992
f 153 992 157
f 157 992 995
f 157 995 156
f 156 995 994
f 156 994 159
f 159 994 997
f 159 997 158
f 158 997 996
f 158 996 161
f 161 996 999
f 161 999 160
f 160 999 998
f 160 998 163
f 163 998 1001
f 163 1001 162
f 162 1001 1000
f 162 1000 165
f 165 1000 1003
f 165 1003 164
f 164 1003 1002
f 164 1002 167
f 167 1002 1005
f 167 1005 166
f 166 1005 1004
f 166 1004 169
f 169 1004 1007
f 169 1007 168
f 168 1007 1006
f 168 1006 171
f 171 1006 1009
f 171 1009 170
f 170 1009 1008
f 170 1008 173
f 173 1008 1011
f 173 1011 172
f 172 1011 1010
f 172 1010 626
f 626 1010 1464
f 626 1464 571
f 571 1464 1409
f 571 1409 542
f 542 1409 1380
f 542 1380 175
f 175 1380 1012
f 175 1012 176
f 176 1012 1014
f 176 1014 174
f 174 1014 1013
f 174 1013 178
f 178 1013 1016
f 178 1016 177
f 177 1016 1015
f 177 1015 180
f 180 1015 1018
f 180 1018 179
f 179 1018 1017
f 179 1017 182
f 182 1017 1020
f 182 1020 181
f 181 1020 1019
f 181 1019 184
f 184 1019 1021
f 184 1021 185
f 185 1021 1023
f 185 1023 183
f 183 1023 1022
f 183 1022 187
f 187 1022 1025
f 187 1025 186
f 186 1025 1024
f 186 1024 189
f 189 1024 1027
f 189 1027 188
f 188 1027 1026
f 188 1026 191
f 191 1026 1029
f 191 1029 190
f 190 1029 1028
f 190 1028 193
f 193 1028 1031
f 193 1031 192
f 192 1031 1030
f 192 1030 195
f 195 1030 1033
f 195 1033 194
f 194 1033 1032
f 194 1032 543
f 543 1032 1381
f 543 1381 197
f 197 1381 1034
f 197 1034 198
f 198 1034 1036
f 198 1036 196
f 196 1036 1035
f 196 1035 200
f 200 1035 1038
f 200 1038 199
f 199 1038 1037
f 199 1037 655
f 655 1037 1493
f 655 1493 702
f 702 1493 1540
f 702 1540 627
f 627 1540 1465
f 627 1465 572
f 572 1465 1410
f 572 1410 202
f 202 1410 1039
f 202 1039 203
f 203 1039 1041
f 203 1041 201
f 201 1041 1040
f 201 1040 205
f 205 1040 1043
f 205 1043 204
f 204 1043 1042
f 204 1042 207
f 207 1042 1045
f 207 1045 206
f 206 1045 1044
f 206 1044 209
f 209 1044 1047
f 209 1047 208
f 208 1047 1046
f 208 1046 211
f 211 1046 1049
f 211 1049 210
f 210 1049 1048
f 210 1048 544
f 544 1048 1382
f 544 1382 573
f 573 1382 1411
f 573 1411 597
f 597 1411 1435
f 597 1435 628
f 628 1435 1466
f 628 1466 656
f 656 1466 1494
f 656 1494 681
f 681 1494 1519
f 681 1519 780
f 780 1519 1618
f 780 1618 682
f 682 1618 1520
f 682 1520 657
f 657 1520 1495
f 657 1495 629
f 629 1495 1467
f 629 1467 598
f 598 1467 1436
f 598 1436 545
f 545 1436 1383
f 545 1383 213
f 213 1383 1050
f 213 1050 214
f 214 1050 1052
f 214 1052 212
f 212 1052 1051
f 212 1051 216
f 216 1051 1054
f 216 1054 215
f 215 1054 1053
f 215 1053 218
f 218 1053 1056
f 218 1056 217
f 217 1056 1055
f 217 1055 703
f 703 1055 1541
f 703 1541 719
f 719 1541 1557
f 719 1557 802
f 802 1557 1640
f 802 1640 796
f 796 1640 1634
f 796 1634 790
f 790 1634 1628
f 790 1628 781
f 781 1628 1619
f 781 1619 772
f 772 1619 1610
f 772 1610 761
f 761 1610 1599
f 761 1599 747
f 747 1599 1585
f 747 1585 735
f 735 1585 1573
f 735 1573 720
f 720 1573 1558
f 720 1558 704
f 704 1558 1542
f 704 1542 683
f 683 1542 1521
f 683 1521 630
f 630 1521 1468
f 630 1468 599
f 599 1468 1437
f 599 1437 546
f 546 1437 1384
f 546 1384 220
f 220 1384 1057
f 220 1057 221
f 221 1057 1059
f 221 1059 219
f 219 1059 1058
f 219 1058 223
f 223 1058 1061
f 223 1061 222
f 222 1061 1060
f 222 1060 225
f 225 1060 1063
f 225 1063 224
f 224 1063 1062
f 224 1062 227
f 227 1062 1065
f 227 1065 226
f 226 1065 1064
f 226 1064 229
f 229 1064 1067
f 229 1067 228
f 228 1067 1066
f 228 1066 231
f 231 1066 1069
f 231 1069 230
f 230 1069 1068
f 230 1068 233
f 233 1068 1071
f 233 1071 232
f 232 1071 1070
f 232 1070 235
f 235 1070 1073
f 235 1073 234
f 234 1073 1072
f 234 1072 237
f 237 1072 1075
f 237 1075 236
f 236 1075 1074
f 236 1074 239
f 239 1074 1077
f 239 1077 238
f 238 1077 1076
f 238 1076 547
f 547 1076 1385
f 547 1385 631
f 631 1385 1469
f 631 1469 684
f 684 1469 1522
f 684 1522 632
f 632 1522 1470
f 632 1470 600
f 600 1470 1438
f 600 1438 241
f 241 1438 1078
f 241 1078 242
f 242 1078 1080
f 242 1080 240
f 240 1080 1079
f 240 1079 244
f 244 1079 1082
f 244 1082 243
f 243 1082 1081
f 243 1081 246
f 246 1081 1084
f 246 1084 245
f 245 1084 1083
f 245 1083 248
f 248 1083 1086
f 248 1086 247
f 247 1086 1085
f 247 1085 250
f 250 1085 1088
f 250 1088 249
f 249 1088 1087
f 249 1087 252
f 252 1087 1090
f 252 1090 251
f 251 1090 1089
f 251 1089 254
f 254 1089 1092
f 254 1092 253
f 253 1092 1091
f 253 1091 256
f 256 1091 1094
f 256 1094 255
f 255 1094 1093
f 255 1093 721
f 721 1093 1559
f 721 1559 736
f 736 1559 1574
f 736 1574 748
f 748 1574 1586
f 748 1586 762
f 762 1586 1600
f 762 1600 773
f 773 1600 1611
f 773 1611 782
f 782 1611 1620
f 782 1620 791
f 791 1620 1629
f 791 1629 817
f 817 1629 1655
f 817 1655 820
f 820 1655 1658
f 820 1658 823
f 823 1658 1661
f 823 1661 825
f 825 1661 1663
f 825 1663 828
f 828 1663 1666
f 828 1666 832
f 832 1666 1670
f 832 1670 833
f 833 1670 1671
f 833 1671 835
f 835 1671 1673
f 835 1673 837
f 837 1673 1675
f 837 1675 838
f 838 1675 1676
f 838 1676 836
f 836 1676 1674
f 836 1674 834
f 834 1674 1672
f 834 1672 737
f 737 1672 1575
f 737 1575 685
f 685 1575 1523
f 685 1523 633
f 633 1523 1471
f 633 1471 574
f 574 1471 1412
f 574 1412 258
f 258 1412 1095
f 258 1095 259
f 259 1095 1097
f 259 1097 257
f 257 1097 1096
f 257 1096 261
f 261 1096 1099
f 261 1099 260
f 260 1099 1098
f 260 1098 263
f 263 1098 1101
f 263 1101 262
f 262 1101 1100
f 262 1100 265
f 265 1100 1103
f 265 1103 264
f 264 1103 1102
f 264 1102 267
f 267 1102 1105
f 267 1105 266
f 266 1105 1104
f 266 1104 269
f 269 1104 1107
f 269 1107 268
f 268 1107 1106
f 268 1106 271
f 271 1106 1109
f 271 1109 270
f 270 1109 1108
f 270 1108 273
f 273 1108 1111
f 273 1111 272
f 272 1111 1110
f 272 1110 275
f 275 1110 1112
f 275 1112 276
f 276 1112 1114
f 276 1114 274
f 274 1114 1113
f 274 1113 278
f 278 1113 1116
f 278 1116 277
f 277 1116 1115
f 277 1115 280
f 280 1115 1118
f 280 1118 279
f 279 1118 1117
f 279 1117 282
f 282 1117 1120
f 282 1120 281
f 281 1120 1119
f 281 1119 634
f 634 1119 1472
f 634 1472 658
f 658 1472 1496
f 658 1496 686
f 686 1496 1524
f 686 1524 722
f 722 1524 1560
f 722 1560 824
f 824 1560 1662
f 824 1662 821
f 821 1662 1659
f 821 1659 818
f 818 1659 1656
f 818 1656 812
f 812 1656 1650
f 812 1650 808
f 808 1650 1646
f 808 1646 803
f 803 1646 1641
f 803 1641 797
f 797 1641 1635
f 797 1635 792
f 792 1635 1630
f 792 1630 783
f 783 1630 1621
f 783 1621 774
f 774 1621 1612
f 774 1612 763
f 763 1612 1601
f 763 1601 749
f 749 1601 1587
f 749 1587 738
f 738 1587 1576
f 738 1576 723
f 723 1576 1561
f 723 1561 705
f 705 1561 1543
f 705 1543 687
f 687 1543 1525
f 687 1525 659
f 659 1525 1497
f 659 1497 601
f 601 1497 1439
f 601 1439 548
f 548 1439 1386
f 548 1386 284
f 284 1386 1121
f 284 1121 285
f 285 1121 1123
f 285 1123 283
f 283 1123 1122
f 283 1122 287
f 287 1122 1125
f 287 1125 286
f 286 1125 1124
f 286 1124 289
f 289 1124 1127
f 289 1127 288
f 288 1127 1126
f 288 1126 291
f 291 1126 1129
f 291 1129 290
f 290 1129 1128
f 290 1128 293
f 293 1128 1131
f 293 1131 292
f 292 1131 1130
f 292 1130 295
f 295 1130 1133
f 295 1133 294
f 294 1133 1132
f 294 1132 297
f 297 1132 1135
f 297 1135 296
f 296 1135 1134
f 296 1134 299
f 299 1134 1137
f 299 1137 298
f 298 1137 1136
f 298 1136 301
f 301 1136 1139
f 301 1139 300
f 300 1139 1138
f 300 1138 303
f 303 1138 1141
f 303 1141 302
f 302 1141 1140
f 302 1140 305
f 305 1140 1143
f 305 1143 304
f 304 1143 1142
f 304 1142 307
f 307 1142 1145
f 307 1145 306
f 306 1145 1144
f 306 1144 309
f 309 1144 1147
f 309 1147 308
f 308 1147 1146
f 308 1146 311
f 311 1146 1149
f 311 1149 310
f 310 1149 1148
f 310 1148 549
f 549 1148 1387
f 549 1387 830
f 830 1387 1668
f 830 1668 313
f 313 1668 1150
f 313 1150 314
f 314 1150 1152
f 314 1152 312
f 312 1152 1151
f 312 1151 316
f 316 1151 1153
f 316 1153 317
f 317 1153 1155
f 317 1155 315
f 315 1155 1154
f 315 1154 319
f 319 1154 1157
f 319 1157 318
f 318 1157 1156
f 318 1156 321
f 321 1156 1159
f 321 1159 320
f 320 1159 1158
f 320 1158 323
f 323 1158 1160
f 323 1160 324
f 324 1160 1162
f 324 1162 322
f 322 1162 1161
f 322 1161 831
f 831 1161 1669
f 831 1669 829
f 829 1669 1667
f 829 1667 326
f 326 1667 1163
f 326 1163 327
f 327 1163 1165
f 327 1165 325
f 325 1165 1164
f 325 1164 329
f 329 1164 1167
f 329 1167 328
f 328 1167 1166
f 328 1166 688
f 688 1166 1526
f 688 1526 660
f 660 1526 1498
f 660 1498 635
f 635 1498 1473
f 635 1473 550
f 550 1473 1388
f 550 1388 331
f 331 1388 1168
f 331 1168 332
f 332 1168 1170
f 332 1170 330
f 330 1170 1169
f 330 1169 334
f 334 1169 1172
f 334 1172 333
f 333 1172 1171
f 333 1171 336
f 336 1171 1174
f 336 1174 335
f 335 1174 1173
f 335 1173 338
f 338 1173 1176
f 338 1176 337
f 337 1176 1175
f 337 1175 340
f 340 1175 1178
f 340 1178 339
f 339 1178 1177
f 339 1177 342
f 342 1177 1180
f 342 1180 341
f 341 1180 1179
f 341 1179 344
f 344 1179 1181
f 344 1181 345
f 345 1181 1183
f 345 1183 343
f 343 1183 1182
f 343 1182 347
f 347 1182 1185
f 347 1185 346
f 346 1185 1184
f 346 1184 349
f 349 1184 1187
f 349 1187 348
f 348 1187 1186
f 348 1186 551
f 551 1186 1389
f 551 1389 689
f 689 1389 1527
f 689 1527 661
f 661 1527 1499
f 661 1499 602
f 602 1499 1440
f 602 1440 575
f 575 1440 1413
f 575 1413 552
f 552 1413 1390
f 552 1390 351
f 351 1390 1188
f 351 1188 352
f 352 1188 1190
f 352 1190 350
f 350 1190 1189
f 350 1189 354
f 354 1189 1192
f 354 1192 353
f 353 1192 1191
f 353 1191 356
f 356 1191 1194
f 356 1194 355
f 355 1194 1193
f 355 1193 358
f 358 1193 1196
f 358 1196 357
f 357 1196 1195
f 357 1195 360
f 360 1195 1198
f 360 1198 359
f 359 1198 1197
f 359 1197 362
f 362 1197 1200
f 362 1200 361
f 361 1200 1199
f 361 1199 364
f 364 1199 1202
f 364 1202 363
f 363 1202 1201
f 363 1201 576
f 576 1201 1414
f 576 1414 690
f 690 1414 1528
f 690 1528 662
f 662 1528 1500
f 662 1500 603
f 603 1500 1441
f 603 1441 366
f 366 1441 1203
f 366 1203 367
f 367 1203 1205
f 367 1205 365
f 365 1205 1204
f 365 1204 369
f 369 1204 1207
f 369 1207 368
f 368 1207 1206
f 368 1206 371
f 371 1206 1209
f 371 1209 370
f 370 1209 1208
f 370 1208 373
f 373 1208 1211
f 373 1211 372
f 372 1211 1210
f 372 1210 375
f 375 1210 1213
f 375 1213 374
f 374 1213 1212
f 374 1212 377
f 377 1212 1215
f 377 1215 376
f 376 1215 1214
f 376 1214 379
f 379 1214 1217
f 379 1217 378
f 378 1217 1216
f 378 1216 553
f 553 1216 1391
f 553 1391 604
f 604 1391 1442
f 604 1442 691
f 691 1442 1529
f 691 1529 636
f 636 1529 1474
f 636 1474 577
f 577 1474 1415
f 577 1415 381
f 381 1415 1218
f 381 1218 382
f 382 1218 1220
f 382 1220 380
f 380 1220 1219
f 380 1219 384
f 384 1219 1222
f 384 1222 383
f 383 1222 1221
f 383 1221 386
f 386 1221 1224
f 386 1224 385
f 385 1224 1223
f 385 1223 388
f 388 1223 1226
f 388 1226 387
f 387 1226 1225
f 387 1225 390
f 390 1225 1228
f 390 1228 389
f 389 1228 1227
f 389 1227 392
f 392 1227 1229
f 392 1229 393
f 393 1229 1231
f 393 1231 391
f 391 1231 1230
f 391 1230 395
f 395 1230 1233
f 395 1233 394
f 394 1233 1232
f 394 1232 397
f 397 1232 1235
f 397 1235 396
f 396 1235 1234
f 396 1234 399
f 399 1234 1237
f 399 1237 398
f 398 1237 1236
f 398 1236 605
f 605 1236 1443
f 605 1443 637
f 637 1443 1475
f 637 1475 706
f 706 1475 1544
f 706 1544 724
f 724 1544 1562
f 724 1562 739
f 739 1562 1577
f 739 1577 750
f 750 1577 1588
f 750 1588 784
f 784 1588 1622
f 784 1622 793
f 793 1622 1631
f 793 1631 798
f 798 1631 1636
f 798 1636 804
f 804 1636 1642
f 804 1642 809
f 809 1642 1647
f 809 1647 813
f 813 1647 1651
f 813 1651 764
f 764 1651 1602
f 764 1602 663
f 663 1602 1501
f 663 1501 606
f 606 1501 1444
f 606 1444 554
f 554 1444 1392
f 554 1392 401
f 401 1392 1238
f 401 1238 402
f 402 1238 1240
f 402 1240 400
f 400 1240 1239
f 400 1239 404
f 404 1239 1242
f 404 1242 403
f 403 1242 1241
f 403 1241 406
f 406 1241 1244
f 406 1244 405
f 405 1244 1243
f 405 1243 638
f 638 1243 1476
f 638 1476 692
f 692 1476 1530
f 692 1530 707
f 707 1530 1545
f 707 1545 725
f 725 1545 1563
f 725 1563 740
f 740 1563 1578
f 740 1578 751
f 751 1578 1589
f 751 1589 775
f 775 1589 1613
f 775 1613 785
f 785 1613 1623
f 785 1623 805
f 805 1623 1643
f 805 1643 607
f 607 1643 1445
f 607 1445 555
f 555 1445 1393
f 555 1393 408
f 408 1393 1245
f 408 1245 409
f 409 1245 1247
f 409 1247 407
f 407 1247 1246
f 407 1246 411
f 411 1246 1249
f 411 1249 410
f 410 1249 1248
f 410 1248 413
f 413 1248 1251
f 413 1251 412
f 412 1251 1250
f 412 1250 415
f 415 1250 1253
f 415 1253 414
f 414 1253 1252
f 414 1252 417
f 417 1252 1255
f 417 1255 416
f 416 1255 1254
f 416 1254 578
f 578 1254 1416
f 578 1416 664
f 664 1416 1502
f 664 1502 693
f 693 1502 1531
f 693 1531 708
f 708 1531 1546
f 708 1546 776
f 776 1546 1614
f 776 1614 765
f 765 1614 1603
f 765 1603 752
f 752 1603 1590
f 752 1590 741
f 741 1590 1579
f 741 1579 419
f 419 1579 1256
f 419 1256 420
f 420 1256 1258
f 420 1258 418
f 418 1258 1257
f 418 1257 694
f 694 1257 1532
f 694 1532 665
f 665 1532 1503
f 665 1503 608
f 608 1503 1446
f 608 1446 422
f 422 1446 1259
f 422 1259 423
f 423 1259 1261
f 423 1261 421
f 421 1261 1260
f 421 1260 425
f 425 1260 1263
f 425 1263 424
f 424 1263 1262
f 424 1262 427
f 427 1262 1265
f 427 1265 426
f 426 1265 1264
f 426 1264 429
f 429 1264 1267
f 429 1267 428
f 428 1267 1266
f 428 1266 431
f 431 1266 1269
f 431 1269 430
f 430 1269 1268
f 430 1268 433
f 433 1268 1271
f 433 1271 432
f 432 1271 1270
f 432 1270 435
f 435 1270 1272
f 435 1272 436
f 436 1272 1274
f 436 1274 434
f 434 1274 1273
f 674 1512 647
f 647 1512 1485
f 647 1485 619
f 619 1485 1457
f 619 1457 588
f 588 1457 1426
f 588 1426 565
f 565 1426 1403
f 565 1403 32
f 32 1403 869
f 32 869 33
f 33 869 871
f 33 871 31
f 31 871 870
f 31 870 35
f 35 870 873
f 35 873 34
f 34 873 872
f 34 872 37
f 37 872 875
f 37 875 36
f 36 875 874
f 36 874 533
f 533 874 1371
f 533 1371 566
f 566 1371 1404
f 566 1404 648
f 648 1404 1486
f 648 1486 620
f 620 1486 1458
f 620 1458 589
f 589 1458 1427
f 589 1427 534
f 534 1427 1372
f 534 1372 39
f 39 1372 876
f 39 876 40
f 40 876 878
f 40 878 38
f 38 878 877
f 38 877 42
f 42 877 880
f 42 880 41
f 41 880 879
f 41 879 44
f 44 879 882
f 44 882 43
f 43 882 881
f 43 881 697
f 697 881 1535
f 697 1535 716
f 716 1535 1554
f 716 1554 732
f 732 1554 1570
f 732 1570 770
f 770 1570 1608
f 770 1608 819
f 819 1608 1657
f 819 1657 816
f 816 1657 1654
f 816 1654 46
f 46 1654 883
f 46 883 47
f 47 883 885
f 47 885 45
f 45 885 884
f 45 884 49
f 49 884 887
f 49 887 48
f 48 887 886
f 48 886 51
f 51 886 889
f 51 889 50
f 50 889 888
f 50 888 53
f 53 888 891
f 53 891 52
f 52 891 890
f 52 890 590
f 590 890 1428
f 590 1428 621
f 621 1428 1459
f 621 1459 649
f 649 1459 1487
f 649 1487 675
f 675 1487 1513
f 675 1513 698
f 698 1513 1536
f 698 1536 717
f 717 1536 1555
f 717 1555 801
f 801 1555 1639
f 801 1639 535
f 535 1639 1373
f 535 1373 55
f 55 1373 892
f 55 892 56
f 56 892 894
f 56 894 54
f 54 894 893
f 54 893 58
f 58 893 896
f 58 896 57
f 57 896 895
f 57 895 60
f 60 895 898
f 60 898 59
f 59 898 897
f 59 897 62
f 62 897 900
f 62 900 61
f 61 900 899
f 61 899 64
f 64 899 902
f 64 902 63
f 63 902 901
f 63 901 66
f 66 901 904
f 66 904 65
f 65 904 903
f 65 903 68
f 68 903 905
f 68 905 69
f 69 905 907
f 69 907 67
f 67 907 906
f 67 906 71
f 71 906 909
f 71 909 70
f 70 909 908
f 70 908 73
f 73 908 911
f 73 911 72
f 72 911 910
f 72 910 75
f 75 910 913
f 75 913 74
f 74 913 912
f 74 912 536
f 536 912 1374
f 536 1374 76
f 76 1374 914
f 76 914 3
f 3 914 841
f 3 841 1
f 1 841 840
f 1 840 531
f 531 840 1369
f 531 1369 563
f 563 1369 1401
f 563 1401 585
f 585 1401 1423
f 585 1423 617
f 617 1423 1455
f 617 1455 564
f 564 1455 1402
f 564 1402 5
f 5 1402 842
f 5 842 6
f 6 842 844
f 6 844 4
f 4 844 843
f 4 843 8
f 8 843 846
f 8 846 7
f 7 846 845
f 7 845 10
f 10 845 848
f 10 848 9
f 9 848 847
f 9 847 12
f 12 847 850
f 12 850 11
f 11 850 849
f 11 849 673
f 673 849 1511
f 673 1511 646
f 646 1511 1484
f 646 1484 618
f 618 1484 1456
f 618 1456 586
f 586 1456 1424
f 586 1424 14
f 14 1424 851
f 14 851 15
f 15 851 853
f 15 853 13
f 13 853 852
f 13 852 17
f 17 852 855
f 17 855 16
f 16 855 854
f 16 854 19
f 19 854 857
f 19 857 18
f 18 857 856
f 18 856 21
f 21 856 859
f 21 859 20
f 20 859 858
f 20 858 23
f 23 858 861
f 23 861 22
f 22 861 860
f 22 860 25
f 25 860 863
f 25 863 24
f 24 863 862
f 24 862 27
f 27 862 865
f 27 865 26
f 26 865 864
f 26 864 532
f 532 864 1370
f 532 1370 587
f 587 1370 1425
f 587 1425 714
f 714 1425 1552
f 714 1552 730
f 730 1552 1568
f 730 1568 29
f 29 1568 866
f 29 866 30
f 30 866 868
f 30 868 28
f 28 868 867
f 28 867 769
f 769 867 1607
f 769 1607 800
f 800 1607 1638
f 800 1638 807
f 807 1638 1645
f 807 1645 815
f 815 1645 1653
f 815 1653 822
f 822 1653 1660
f 822 1660 826
f 826 1660 1664
f 826 1664 827
f 827 1664 1665
f 827 1665 757
f 757 1665 1595
f 757 1595 731
f 731 1595 1569
f 731 1569 715
f 715 1569 1553
f 715 1553 674
f 674 1553 1512
