o 
v 39.76 0 -0.04
v 40.704 0 -0.012
v 40.276 0 -0.001
v 38.953 0 -0.172
v 39.357 0 -0.089
v 38.061 0 -0.461
v 38.528 0 -0.294
v 36.92 0 -0.96
v 37.532 0 -0.681
v 36.005 0 -1.394
v 36.446 0 -1.183
v 35.299 0 -1.746
v 35.616 0 -1.585
v 34.95 0 -1.94
v 35.07 0 -1.867
v 34.801 0 -2.559
v 34.834 0 -2.161
v 34.959 0 -3.674
v 34.845 0 -3.081
v 35.37 0 -4.86
v 35.136 0 -4.285
v 35.674 0 -5.407
v 35.51 0 -5.124
v 36.039 0 -5.967
v 35.854 0 -5.692
v 36.39 0 -6.42
v 36.221 0 -6.214
v 36.191 0 -9.893
v 36.95 0 -7.05
v 36.35 0 -9.29
v 35.926 0 -10.927
v 36.048 0 -10.446
v 35.772 0 -11.582
v 35.832 0 -11.314
v 35.768 0 -11.758
v 35.75 0 -11.71
v 35.894 0 -11.839
v 35.817 0 -11.801
v 36.11 0 -11.889
v 35.993 0 -11.869
v 36.88 0 -20.436
v 37.001 0 -16.061
v 36.92 0 -18.85
v 36.805 0 -23.296
v 36.84 0 -21.941
v 36.757 0 -25.293
v 36.776 0 -24.436
v 36.752 0 -26.273
v 36.75 0 -25.8
v 36.809 0 -26.789
v 36.767 0 -26.593
v 37.022 0 -26.928
v 36.889 0 -26.89
v 37.835 0 -28.947
v 37.92 0 -28.1
v 37.879 0 -28.443
v 37.748 0 -30.29
v 37.791 0 -29.575
v 37.67 0 -31.83
v 37.707 0 -31.054
v 37.251 0 -35.659
v 37.35 0 -35.25
v 37.293 0 -35.453
v 37.222 0 -36.068
v 37.228 0 -35.865
v 37.27 0 -36.45
v 37.236 0 -36.264
v 38.548 0 -54.218
v 38.82 0 -52.64
v 38.658 0 -53.528
v 38.472 0 -55.279
v 38.487 0 -54.779
v 38.56 0 -56.37
v 38.497 0 -55.786
v 38.921 0 -58.144
v 38.699 0 -57.325
v 39.756 0 -59.633
v 39.261 0 -58.891
v 41.35 0 -61.36
v 40.44 0 -60.434
v 43.591 0 -65.653
v 43.32 0 -64.45
v 43.459 0 -65.149
v 43.913 0 -66.217
v 43.735 0 -65.996
v 44.45 0 -66.44
v 44.144 0 -66.353
v 43.977 0 -68.308
v 44.437 0 -67.526
v 44.25 0 -67.84
v 42.719 0 -69.174
v 43.18 0 -69.079
v 42.92 0 -69.13
v 42.373 0 -69.313
v 42.536 0 -69.235
v 42.113 0 -69.511
v 42.231 0 -69.405
v 41.951 0 -69.736
v 42.02 0 -69.63
v 35.903 0 -62.58
v 35.92 0 -63.37
v 35.921 0 -62.904
v 35.747 0 -62.207
v 35.85 0 -62.36
v 35.33 0 -61.95
v 35.579 0 -62.083
v 35.308 0 -60.921
v 35.08 0 -61.01
v 35.216 0 -60.994
v 35.399 0 -60.462
v 35.366 0 -60.756
v 35.42 0 -59.34
v 35.414 0 -60.002
v 35.391 0 -58.244
v 35.413 0 -58.729
v 35.279 0 -57.523
v 35.347 0 -57.853
v 35.05 0 -56.92
v 35.182 0 -57.223
v 34.835 0 -56.539
v 34.945 0 -56.719
v 34.622 0 -56.271
v 34.725 0 -56.388
v 34.46 0 -56.17
v 34.531 0 -56.196
v 37.1 0 -52.89
v 35.72 0 -55.13
v 37.17 0 -54.71
v 37.009 0 -51.277
v 37.071 0 -52.033
v 36.647 0 -49.309
v 36.88 0 -50.432
v 35.73 0 -45.47
v 36.276 0 -47.718
v 34.388 0 -38.42
v 34.58 0 -39.68
v 34.488 0 -39.035
v 34.182 0 -37.387
v 34.284 0 -37.861
v 34.01 0 -36.8
v 34.089 0 -37.024
v 29.47 0 -22.66
v 30.74 0 -29.37
v 30.74 0 -26
v 26.36 0 -17.58
v 27.87 0 -18.45
v 27.55 0 -17.58
v 25.558 0 -17.612
v 25.909 0 -17.587
v 25.039 0 -17.744
v 25.278 0 -17.662
v 24.57 0 -18.03
v 24.812 0 -17.865
v 24.262 0 -18.249
v 24.409 0 -18.143
v 24.034 0 -18.414
v 24.135 0 -18.341
v 23.96 0 -18.631
v 23.967 0 -18.463
v 23.94 0 -18.48
v 24.13 0 -19.54
v 24.029 0 -19.012
v 24.367 0 -20.715
v 24.248 0 -20.135
v 23.473 0 -20.956
v 23.551 0 -21.273
v 23.51 0 -21.09
v 23.39 0 -20.734
v 23.432 0 -20.836
v 23.307 0 -20.602
v 23.348 0 -20.654
v 23.206 0 -20.602
v 23.27 0 -20.58
v 22.955 0 -20.765
v 23.098 0 -20.666
v 22.598 0 -21.048
v 22.786 0 -20.894
v 21.85 0 -33.05
v 22.4 0 -21.22
v 21.65 0 -21.85
v 23.44 0 -51.32
v 22.04 0 -44.22
v 25.015 0 -59.354
v 24.885 0 -58.658
v 24.96 0 -59.09
v 25.209 0 -59.731
v 25.091 0 -59.56
v 25.639 0 -60.059
v 25.385 0 -59.89
v 26.446 0 -60.511
v 25.99 0 -60.26
v 26.73 0 -66.82
v 26.63 0 -64.6
v 26.25 0 -64.94
v 27.049 0 -67.964
v 26.874 0 -67.371
v 27.445 0 -69.146
v 27.243 0 -68.566
v 27.83 0 -70.11
v 27.644 0 -69.671
v 28.268 0 -71.019
v 28.073 0 -70.638
v 28.592 0 -71.445
v 28.434 0 -71.279
v 28.97 0 -71.6
v 28.764 0 -71.543
v 35.88 0 -82.81
v 33.68 0 -78.13
v 33.8 0 -80.47
v 36.964 0 -83.996
v 36.442 0 -83.433
v 37.799 0 -84.854
v 37.424 0 -84.478
v 38.21 0 -85.2
v 38.069 0 -85.102
v 38.392 0 -85.19
v 38.292 0 -85.205
v 38.628 0 -85.11
v 38.506 0 -85.158
v 38.87 0 -84.98
v 38.751 0 -85.05
v 48.38 0 -89.71
v 44.758 0 -86.909
v 45.52 0 -87.5
v 48.818 0 -93.377
v 48.774 0 -92.335
v 48.78 0 -92.62
v 49.097 0 -94.915
v 48.927 0 -94.153
v 49.583 0 -96.253
v 49.319 0 -95.627
v 50.238 0 -97.21
v 49.88 0 -96.76
v 51.147 0 -98.1
v 50.661 0 -97.657
v 52.304 0 -98.964
v 51.696 0 -98.536
v 53.99 0 -100
v 52.97 0 -99.38
v 56.979 0 -99.447
v 55.45 0 -99.78
v 59.655 0 -98.076
v 58.371 0 -98.886
v 61.998 0 -95.628
v 60.855 0 -96.997
v 63.299 0 -93.605
v 63.11 0 -93.95
v 63.537 0 -93.025
v 63.439 0 -93.305
v 63.636 0 -92.431
v 63.601 0 -92.742
v 63.65 0 -91.08
v 63.65 0 -92.07
v 64.801 0 -91.072
v 64.48 0 -91.08
v 65.281 0 -90.976
v 65.06 0 -91.04
v 65.712 0 -90.711
v 65.49 0 -90.87
v 66.34 0 -90.076
v 65.97 0 -90.49
v 67.007 0 -88.925
v 66.693 0 -89.537
v 67.429 0 -87.681
v 67.26 0 -88.289
v 67.498 0 -86.936
v 67.49 0 -87.15
v 68.492 0 -86.002
v 67.836 0 -86.409
v 68.04 0 -86.3
v 69.942 0 -84.842
v 69.157 0 -85.49
v 71.506 0 -83.45
v 70.756 0 -84.136
v 72.304 0 -82.637
v 72.1 0 -82.86
v 72.757 0 -82.05
v 72.527 0 -82.361
v 73.191 0 -81.396
v 72.983 0 -81.722
v 76.161 0 -78.344
v 74.94 0 -79.34
v 75.57 0 -78.864
v 77.182 0 -77.229
v 76.702 0 -77.795
v 77.91 0 -76.1
v 77.589 0 -76.659
v 78.209 0 -75.369
v 78.088 0 -75.722
v 78.325 0 -74.374
v 78.284 0 -74.95
v 78.35 0 -72.39
v 78.343 0 -73.551
v 77.25 0 -68.63
v 78.35 0 -69.53
v 75.921 0 -67.764
v 76.556 0 -68.11
v 74.575 0 -67.559
v 75.283 0 -67.584
v 72.7 0 -67.94
v 73.736 0 -67.681
v 69.602 0 -68.913
v 70.954 0 -68.453
v 67.815 0 -69.807
v 68.577 0 -69.354
v 66.81 0 -70.88
v 67.248 0 -70.305
v 65.873 0 -65.487
v 65.67 0 -65.72
v 65.787 0 -65.62
v 65.967 0 -65.059
v 65.931 0 -65.306
v 65.99 0 -64.3
v 65.985 0 -64.729
v 67.33 0 -62.326
v 67.07 0 -62.35
v 67.194 0 -62.344
v 67.607 0 -62.264
v 67.47 0 -62.299
v 67.84 0 -62.18
v 67.733 0 -62.224
v 68.332 0 -61.648
v 68.097 0 -61.968
v 68.691 0 -60.779
v 68.534 0 -61.244
v 68.83 0 -59.76
v 68.793 0 -60.276
v 69.63 0 -56.12
v 69.24 0 -58.84
v 69.66 0 -58.84
v 69.581 0 -54.233
v 69.607 0 -54.995
v 69.472 0 -53.507
v 69.54 0 -53.761
v 69.21 0 -53.36
v 69.366 0 -53.397
v 69.711 0 -51.36
v 69.109 0 -52.261
v 69.39 0 -51.86
v 70.311 0 -49.649
v 70.013 0 -50.641
v 70.955 0 -46.614
v 70.62 0 -48.325
v 71.516 0 -43.308
v 71.33 0 -44.46
v 71.741 0 -41.459
v 71.651 0 -42.346
v 71.823 0 -39.446
v 71.796 0 -40.53
v 71.827 0 -36.689
v 71.83 0 -38.09
v 71.771 0 -34.967
v 71.81 0 -35.684
v 71.586 0 -33.973
v 71.7 0 -34.433
v 71.193 0 -32.819
v 71.42 0 -33.48
v 71.92 0 -29.22
v 71.52 0 -31.78
v 72.03 0 -31.78
v 70.86 0 -25.73
v 71.8 0 -26.68
v 75.511 0 -6.706
v 74.114 0 -7.567
v 74.81 0 -7.14
v 76.353 0 -6.122
v 76.015 0 -6.375
v 76.654 0 -5.746
v 76.555 0 -5.921
v 76.659 0 -5.435
v 76.68 0 -5.57
v 76.552 0 -5.168
v 76.617 0 -5.3
v 76.359 0 -4.92
v 76.467 0 -5.04
v 76.034 0 -4.691
v 76.23 0 -4.81
v 75.484 0 -4.566
v 75.806 0 -4.611
v 74.317 0 -4.565
v 75.008 0 -4.552
v 72.372 0 -4.651
v 73.35 0 -4.6
v 70.876 0 -4.814
v 71.581 0 -4.717
v 69.317 0 -5.173
v 70.155 0 -4.96
v 62.007 0 -6.243
v 63.5 0 -6.22
v 62.629 0 -6.224
v 61.213 0 -6.377
v 61.56 0 -6.29
v 60.52 0 -6.72
v 60.891 0 -6.516
v 59.903 0 -7.106
v 60.152 0 -6.936
v 59.67 0 -7.447
v 59.75 0 -7.265
v 59.64 0 -8.02
v 59.641 0 -7.688
v 59.676 0 -8.563
v 59.648 0 -8.32
v 59.818 0 -8.941
v 59.73 0 -8.764
v 60.12 0 -9.29
v 59.946 0 -9.111
v 59.381 0 -26.336
v 60.04 0 -22.87
v 59.638 0 -24.835
v 59.296 0 -28.154
v 59.268 0 -27.425
v 59.77 0 -28.74
v 59.464 0 -28.575
v 59.034 0 -31.01
v 59.537 0 -30.122
v 59.32 0 -30.49
v 58.594 0 -31.978
v 58.796 0 -31.494
v 58.244 0 -33.085
v 58.414 0 -32.496
v 57.728 0 -35.32
v 58.07 0 -33.78
v 57.239 0 -37.855
v 57.451 0 -36.675
v 56.999 0 -39.724
v 57.089 0 -38.868
v 56.97 0 -41.65
v 56.97 0 -40.43
v 55.914 0 -39.269
v 55.964 0 -40.457
v 55.96 0 -40.05
v 55.285 0 -37.65
v 55.719 0 -38.519
v 53.349 0 -34.964
v 54.524 0 -36.514
v 51.105 0 -32.154
v 51.67 0 -32.85
v 50.173 0 -31.077
v 50.603 0 -31.56
v 49.554 0 -30.475
v 49.82 0 -30.713
v 49.117 0 -30.276
v 49.38 0 -30.37
v 48.65 0 -26.26
v 49.35 0 -29.32
v 49.88 0 -28.85
v 44.368 0 -9.822
v 44.12 0 -9.98
v 44.268 0 -9.917
v 44.442 0 -9.384
v 44.424 0 -9.658
v 44.39 0 -8.36
v 44.429 0 -8.965
v 44.317 0 -7.579
v 44.359 0 -7.957
v 44.213 0 -6.961
v 44.268 0 -7.241
v 44.1 0 -6.64
v 44.156 0 -6.756
v 44.773 0 -3.679
v 44.35 0 -4.16
v 44.604 0 -3.891
v 44.907 0 -3.271
v 44.87 0 -3.485
v 44.85 0 -2.63
v 44.896 0 -2.999
v 43.3 0 -1.02
v 44.75 0 -1.71
v 41.649 0 -0.275
v 42.342 0 -0.575
v 41.132 0 -0.095
v 37.972 0 -27.659
v 37.581 0 -38.025
v 38.936 0 -51.993
v 43.03 0 -63.02
v 35.922 0 -63.84
v 34.862 0 -61.055
v 35.205 0 -55.284
v 33.884 0 -36.546
v 29.121 0 -21.75
v 28.002 0 -18.802
v 23.823 0 -53.228
v 26.743 0 -64.497
v 33.56 0 -75.79
v 74.6 0 -79.6
v 65.547 0 -65.833
v 69.074 0 -58.848
v 68.987 0 -53.28
v 71.256 0 -31.799
v 69.93 0 -24.78
v 64.369 0 -6.213
v 60.197 0 -22.092
v 59.733 0 -29.78
v 49.1 0 -29.568
v 44.112 0 -4.426
v 36.24 0 -11.9
v 37.22 0 -26.93
v 37.412 0 -34.99
v 34.402 0 -56.159
v 34.819 0 -55.412
v 34.696 0 -40.429
v 33.669 0 -36.078
v 28.784 0 -20.866
v 28.209 0 -19.35
v 24.47 0 -21.2
v 24.174 0 -54.99
v 24.719 0 -57.78
v 26.866 0 -64.373
v 29.631 0 -71.756
v 48.755 0 -92.013
v 67.689 0 -86.516
v 66.629 0 -71.139
v 66.731 0 -62.399
v 68.96 0 -58.885
v 68.928 0 -52.609
v 71.092 0 -31.879
v 60.303 0 -9.48
v 55.985 0 -40.749
v 48.951 0 -29.79
v 43.865 0 -10.176
v 37.637 0 -32.599
v 39.041 0 -51.334
v 44.579 0 -66.474
v 43.389 0 -68.998
v 35.954 0 -64.194
v 34.756 0 -61.176
v 34.546 0 -55.524
v 35.501 0 -44.475
v 28.475 0 -20.052
v 23.602 0 -21.406
v 24.478 0 -56.533
v 26.993 0 -64.234
v 48.725 0 -91.671
v 74.304 0 -79.858
v 66.463 0 -71.346
v 65.466 0 -66.017
v 68.889 0 -58.974
v 68.866 0 -53.124
v 71.061 0 -32.355
v 71.027 0 -32.052
v 73.491 0 -7.989
v 65.061 0 -6.181
v 60.323 0 -21.313
v 59.899 0 -29.476
v 48.904 0 -29.984
v 43.951 0 -4.639
v 36.597 0 -11.96
v 37.024 0 -14.137
v 37.591 0 -33.332
v 37.475 0 -34.561
v 39.13 0 -50.695
v 44.695 0 -66.506
v 41.877 0 -69.831
v 35.048 0 -61.759
v 34.371 0 -55.628
v 35.272 0 -43.418
v 34.858 0 -41.339
v 27.114 0 -64.087
v 30.163 0 -71.951
v 39.053 0 -84.874
v 67.528 0 -86.767
v 73.37 0 -81.09
v 74.043 0 -80.125
v 66.025 0 -63.68
v 66.461 0 -62.551
v 68.846 0 -52.899
v 72.902 0 -8.435
v 68.26 0 -5.47
v 65.685 0 -6.107
v 60.44 0 -9.67
v 60.425 0 -20.45
v 60.027 0 -29.227
v 56.034 0 -40.955
v 47.995 0 -24.843
v 43.757 0 -10.604
v 43.855 0 -4.83
v 36.836 0 -12.246
v 37.543 0 -26.946
v 37.536 0 -33.997
v 39.199 0 -50.11
v 44.792 0 -66.536
v 41.803 0 -69.912
v 36.042 0 -64.499
v 34.755 0 -61.349
v 35.054 0 -42.354
v 23.67 0 -21.497
v 27.222 0 -63.941
v 30.628 0 -72.231
v 39.249 0 -84.802
v 48.685 0 -91.327
v 67.589 0 -86.631
v 73.585 0 -80.73
v 66.112 0 -63.186
v 68.833 0 -59.39
v 68.85 0 -59.135
v 69.13 0 -20.3
v 60.51 0 -19.42
v 56.121 0 -41.104
v 47.417 0 -23.474
v 44.049 0 -6.553
v 36.974 0 -12.919
v 37.768 0 -27.007
v 44.869 0 -66.564
v 41.733 0 -69.975
v 34.854 0 -61.551
v 34.35 0 -56.129
v 34.278 0 -55.733
v 32.24 0 -32.85
v 23.765 0 -21.554
v 26.767 0 -60.729
v 27.31 0 -63.8
v 31.083 0 -72.639
v 39.482 0 -84.762
v 48.636 0 -90.997
v 73.806 0 -80.412
v 66.256 0 -62.811
v 72.309 0 -8.934
v 66.353 0 -5.976
v 59.867 0 -28.76
v 60.111 0 -29.047
v 46.87 0 -22.021
v 43.997 0 -6.42
v 43.812 0 -5.035
v 37.908 0 -27.132
v 39.244 0 -49.61
v 44.919 0 -66.588
v 41.674 0 -70.016
v 34.306 0 -56.081
v 34.25 0 -55.85
v 33.38 0 -35.436
v 32.649 0 -33.784
v 23.895 0 -21.582
v 26.987 0 -60.965
v 27.423 0 -63.612
v 31.591 0 -73.217
v 39.777 0 -84.751
v 48.58 0 -90.7
v 68.836 0 -18.591
v 71.671 0 -9.516
v 67.174 0 -5.769
v 59.955 0 -28.79
v 60.14 0 -28.95
v 48.959 0 -30.147
v 46.306 0 -20.353
v 43.947 0 -6.25
v 43.811 0 -5.287
v 37.995 0 -40.441
v 39.26 0 -49.23
v 44.94 0 -66.61
v 34.273 0 -56.017
v 33.034 0 -34.659
v 24.07 0 -21.59
v 27.143 0 -61.271
v 27.493 0 -63.438
v 32.21 0 -74.01
v 40.158 0 -84.765
v 68.627 0 -17.308
v 70.95 0 -10.21
v 60.586 0 -18.141
v 45.679 0 -18.336
v 43.903 0 -6.053
v 43.84 0 -5.62
v 37.972 0 -27.343
v 39.145 0 -48.092
v 34.254 0 -55.94
v 24.251 0 -21.581
v 40.65 0 -84.8
v 68.493 0 -16.349
v 70.418 0 -10.74
v 60.54 0 -9.885
v 60.03 0 -28.826
v 44.94 0 -15.84
v 43.866 0 -5.84
v 38.441 0 -43.234
v 38.849 0 -45.939
v 24.378 0 -21.558
v 27.524 0 -63.249
v 44.044 0 -86.362
v 66.31 0 -71.504
v 69.924 0 -11.246
v 60.613 0 -10.154
v 60.089 0 -28.867
v 44.386 0 -13.882
v 24.458 0 -21.515
v 27.517 0 -63.016
v 41.018 0 -84.84
v 43.411 0 -85.884
v 66.167 0 -71.614
v 69.491 0 -11.705
v 60.67 0 -10.503
v 60.126 0 -28.909
v 43.803 0 -11.324
v 24.497 0 -21.343
v 24.495 0 -21.446
v 27.475 0 -62.709
v 41.372 0 -84.887
v 42.893 0 -85.498
v 66.031 0 -71.679
v 65.421 0 -66.339
v 69.139 0 -12.094
v 60.72 0 -10.96
v 60.66 0 -16.53
v 44.01 0 -12.396
v 27.4 0 -62.3
v 41.696 0 -84.939
v 42.521 0 -85.228
v 65.9 0 -71.7
v 68.423 0 -15.612
v 68.888 0 -12.39
v 60.746 0 -11.431
v 27.269 0 -61.699
v 41.974 0 -84.993
v 42.33 0 -85.1
v 65.744 0 -71.683
v 68.409 0 -14.996
v 68.76 0 -12.57
v 60.756 0 -12.157
v 42.191 0 -85.048
v 68.44 0 -14.4
v 68.698 0 -12.731
v 60.75 0 -13.085
v 36.213 0 -64.819
v 68.635 0 -12.971
v 60.731 0 -14.159
v 36.49 0 -65.221
v 65.637 0 -71.582
v 68.574 0 -13.275
v 60.701 0 -15.326
v 36.9 0 -65.77
v 65.566 0 -71.32
v 68.519 0 -13.626
v 56.26 0 -41.226
v 37.526 0 -66.474
v 65.52 0 -70.821
v 68.473 0 -14.006
v 56.46 0 -41.35
v 38.429 0 -67.372
v 65.485 0 -70.01
v 39.449 0 -68.32
v 65.45 0 -68.81
v 44.919 0 -66.67
v 40.428 0 -69.174
v 65.418 0 -67.668
v 41.208 0 -69.792
v 65.407 0 -66.867
v 41.63 0 -70.03
v 44.852 0 -66.802
v 44.745 0 -66.996
v 43.574 0 -68.86
v 44.604 0 -67.241
v 43.761 0 -68.639
v 40.704 10 -0.012
v 39.76 10 -0.04
v 40.276 10 -0.001
v 38.953 10 -0.172
v 39.357 10 -0.089
v 38.061 10 -0.461
v 38.528 10 -0.294
v 36.92 10 -0.96
v 37.532 10 -0.681
v 36.005 10 -1.394
v 36.446 10 -1.183
v 35.299 10 -1.746
v 35.616 10 -1.585
v 34.95 10 -1.94
v 35.07 10 -1.867
v 34.801 10 -2.559
v 34.834 10 -2.161
v 34.959 10 -3.674
v 34.845 10 -3.081
v 35.37 10 -4.86
v 35.136 10 -4.285
v 35.674 10 -5.407
v 35.51 10 -5.124
v 36.039 10 -5.967
v 35.854 10 -5.692
v 36.39 10 -6.42
v 36.221 10 -6.214
v 36.95 10 -7.05
v 36.191 10 -9.893
v 36.35 10 -9.29
v 35.926 10 -10.927
v 36.048 10 -10.446
v 35.772 10 -11.582
v 35.832 10 -11.314
v 35.768 10 -11.758
v 35.75 10 -11.71
v 35.894 10 -11.839
v 35.817 10 -11.801
v 36.11 10 -11.889
v 35.993 10 -11.869
v 37.001 10 -16.061
v 36.88 10 -20.436
v 36.92 10 -18.85
v 36.805 10 -23.296
v 36.84 10 -21.941
v 36.757 10 -25.293
v 36.776 10 -24.436
v 36.752 10 -26.273
v 36.75 10 -25.8
v 36.809 10 -26.789
v 36.767 10 -26.593
v 37.022 10 -26.928
v 36.889 10 -26.89
v 37.92 10 -28.1
v 37.835 10 -28.947
v 37.879 10 -28.443
v 37.748 10 -30.29
v 37.791 10 -29.575
v 37.67 10 -31.83
v 37.707 10 -31.054
v 37.35 10 -35.25
v 37.251 10 -35.659
v 37.293 10 -35.453
v 37.222 10 -36.068
v 37.228 10 -35.865
v 37.27 10 -36.45
v 37.236 10 -36.264
v 38.82 10 -52.64
v 38.548 10 -54.218
v 38.658 10 -53.528
v 38.472 10 -55.279
v 38.487 10 -54.779
v 38.56 10 -56.37
v 38.497 10 -55.786
v 38.921 10 -58.144
v 38.699 10 -57.325
v 39.756 10 -59.633
v 39.261 10 -58.891
v 41.35 10 -61.36
v 40.44 10 -60.434
v 43.32 10 -64.45
v 43.591 10 -65.653
v 43.459 10 -65.149
v 43.913 10 -66.217
v 43.735 10 -65.996
v 44.45 10 -66.44
v 44.144 10 -66.353
v 44.437 10 -67.526
v 43.977 10 -68.308
v 44.25 10 -67.84
v 43.18 10 -69.079
v 42.719 10 -69.174
v 42.92 10 -69.13
v 42.373 10 -69.313
v 42.536 10 -69.235
v 42.113 10 -69.511
v 42.231 10 -69.405
v 41.951 10 -69.736
v 42.02 10 -69.63
v 35.92 10 -63.37
v 35.903 10 -62.58
v 35.921 10 -62.904
v 35.747 10 -62.207
v 35.85 10 -62.36
v 35.33 10 -61.95
v 35.579 10 -62.083
v 35.08 10 -61.01
v 35.308 10 -60.921
v 35.216 10 -60.994
v 35.399 10 -60.462
v 35.366 10 -60.756
v 35.42 10 -59.34
v 35.414 10 -60.002
v 35.391 10 -58.244
v 35.413 10 -58.729
v 35.279 10 -57.523
v 35.347 10 -57.853
v 35.05 10 -56.92
v 35.182 10 -57.223
v 34.835 10 -56.539
v 34.945 10 -56.719
v 34.622 10 -56.271
v 34.725 10 -56.388
v 34.46 10 -56.17
v 34.531 10 -56.196
v 35.72 10 -55.13
v 37.1 10 -52.89
v 37.17 10 -54.71
v 37.009 10 -51.277
v 37.071 10 -52.033
v 36.647 10 -49.309
v 36.88 10 -50.432
v 35.73 10 -45.47
v 36.276 10 -47.718
v 34.58 10 -39.68
v 34.388 10 -38.42
v 34.488 10 -39.035
v 34.182 10 -37.387
v 34.284 10 -37.861
v 34.01 10 -36.8
v 34.089 10 -37.024
v 30.74 10 -29.37
v 29.47 10 -22.66
v 30.74 10 -26
v 27.87 10 -18.45
v 26.36 10 -17.58
v 27.55 10 -17.58
v 25.558 10 -17.612
v 25.909 10 -17.587
v 25.039 10 -17.744
v 25.278 10 -17.662
v 24.57 10 -18.03
v 24.812 10 -17.865
v 24.262 10 -18.249
v 24.409 10 -18.143
v 24.034 10 -18.414
v 24.135 10 -18.341
v 23.967 10 -18.463
v 23.96 10 -18.631
v 23.94 10 -18.48
v 24.13 10 -19.54
v 24.029 10 -19.012
v 24.367 10 -20.715
v 24.248 10 -20.135
v 23.551 10 -21.273
v 23.473 10 -20.956
v 23.51 10 -21.09
v 23.39 10 -20.734
v 23.432 10 -20.836
v 23.307 10 -20.602
v 23.348 10 -20.654
v 23.206 10 -20.602
v 23.27 10 -20.58
v 22.955 10 -20.765
v 23.098 10 -20.666
v 22.598 10 -21.048
v 22.786 10 -20.894
v 22.4 10 -21.22
v 21.85 10 -33.05
v 21.65 10 -21.85
v 23.44 10 -51.32
v 22.04 10 -44.22
v 24.885 10 -58.658
v 25.015 10 -59.354
v 24.96 10 -59.09
v 25.209 10 -59.731
v 25.091 10 -59.56
v 25.639 10 -60.059
v 25.385 10 -59.89
v 26.446 10 -60.511
v 25.99 10 -60.26
v 26.63 10 -64.6
v 26.73 10 -66.82
v 26.25 10 -64.94
v 27.049 10 -67.964
v 26.874 10 -67.371
v 27.445 10 -69.146
v 27.243 10 -68.566
v 27.83 10 -70.11
v 27.644 10 -69.671
v 28.268 10 -71.019
v 28.073 10 -70.638
v 28.592 10 -71.445
v 28.434 10 -71.279
v 28.97 10 -71.6
v 28.764 10 -71.543
v 33.68 10 -78.13
v 35.88 10 -82.81
v 33.8 10 -80.47
v 36.964 10 -83.996
v 36.442 10 -83.433
v 37.799 10 -84.854
v 37.424 10 -84.478
v 38.21 10 -85.2
v 38.069 10 -85.102
v 38.392 10 -85.19
v 38.292 10 -85.205
v 38.628 10 -85.11
v 38.506 10 -85.158
v 38.87 10 -84.98
v 38.751 10 -85.05
v 44.758 10 -86.909
v 48.38 10 -89.71
v 45.52 10 -87.5
v 48.774 10 -92.335
v 48.818 10 -93.377
v 48.78 10 -92.62
v 49.097 10 -94.915
v 48.927 10 -94.153
v 49.583 10 -96.253
v 49.319 10 -95.627
v 50.238 10 -97.21
v 49.88 10 -96.76
v 51.147 10 -98.1
v 50.661 10 -97.657
v 52.304 10 -98.964
v 51.696 10 -98.536
v 53.99 10 -100
v 52.97 10 -99.38
v 56.979 10 -99.447
v 55.45 10 -99.78
v 59.655 10 -98.076
v 58.371 10 -98.886
v 61.998 10 -95.628
v 60.855 10 -96.997
v 63.299 10 -93.605
v 63.11 10 -93.95
v 63.537 10 -93.025
v 63.439 10 -93.305
v 63.636 10 -92.431
v 63.601 10 -92.742
v 63.65 10 -91.08
v 63.65 10 -92.07
v 64.801 10 -91.072
v 64.48 10 -91.08
v 65.281 10 -90.976
v 65.06 10 -91.04
v 65.712 10 -90.711
v 65.49 10 -90.87
v 66.34 10 -90.076
v 65.97 10 -90.49
v 67.007 10 -88.925
v 66.693 10 -89.537
v 67.429 10 -87.681
v 67.26 10 -88.289
v 67.498 10 -86.936
v 67.49 10 -87.15
v 67.836 10 -86.409
v 68.492 10 -86.002
v 68.04 10 -86.3
v 69.942 10 -84.842
v 69.157 10 -85.49
v 71.506 10 -83.45
v 70.756 10 -84.136
v 72.304 10 -82.637
v 72.1 10 -82.86
v 72.757 10 -82.05
v 72.527 10 -82.361
v 73.191 10 -81.396
v 72.983 10 -81.722
v 74.94 10 -79.34
v 76.161 10 -78.344
v 75.57 10 -78.864
v 77.182 10 -77.229
v 76.702 10 -77.795
v 77.91 10 -76.1
v 77.589 10 -76.659
v 78.209 10 -75.369
v 78.088 10 -75.722
v 78.325 10 -74.374
v 78.284 10 -74.95
v 78.35 10 -72.39
v 78.343 10 -73.551
v 77.25 10 -68.63
v 78.35 10 -69.53
v 75.921 10 -67.764
v 76.556 10 -68.11
v 74.575 10 -67.559
v 75.283 10 -67.584
v 72.7 10 -67.94
v 73.736 10 -67.681
v 69.602 10 -68.913
v 70.954 10 -68.453
v 67.815 10 -69.807
v 68.577 10 -69.354
v 66.81 10 -70.88
v 67.248 10 -70.305
v 65.67 10 -65.72
v 65.873 10 -65.487
v 65.787 10 -65.62
v 65.967 10 -65.059
v 65.931 10 -65.306
v 65.99 10 -64.3
v 65.985 10 -64.729
v 67.07 10 -62.35
v 67.33 10 -62.326
v 67.194 10 -62.344
v 67.607 10 -62.264
v 67.47 10 -62.299
v 67.84 10 -62.18
v 67.733 10 -62.224
v 68.332 10 -61.648
v 68.097 10 -61.968
v 68.691 10 -60.779
v 68.534 10 -61.244
v 68.83 10 -59.76
v 68.793 10 -60.276
v 69.24 10 -58.84
v 69.63 10 -56.12
v 69.66 10 -58.84
v 69.581 10 -54.233
v 69.607 10 -54.995
v 69.472 10 -53.507
v 69.54 10 -53.761
v 69.21 10 -53.36
v 69.366 10 -53.397
v 69.109 10 -52.261
v 69.711 10 -51.36
v 69.39 10 -51.86
v 70.311 10 -49.649
v 70.013 10 -50.641
v 70.955 10 -46.614
v 70.62 10 -48.325
v 71.516 10 -43.308
v 71.33 10 -44.46
v 71.741 10 -41.459
v 71.651 10 -42.346
v 71.823 10 -39.446
v 71.796 10 -40.53
v 71.827 10 -36.689
v 71.83 10 -38.09
v 71.771 10 -34.967
v 71.81 10 -35.684
v 71.586 10 -33.973
v 71.7 10 -34.433
v 71.193 10 -32.819
v 71.42 10 -33.48
v 71.52 10 -31.78
v 71.92 10 -29.22
v 72.03 10 -31.78
v 70.86 10 -25.73
v 71.8 10 -26.68
v 74.114 10 -7.567
v 75.511 10 -6.706
v 74.81 10 -7.14
v 76.353 10 -6.122
v 76.015 10 -6.375
v 76.654 10 -5.746
v 76.555 10 -5.921
v 76.659 10 -5.435
v 76.68 10 -5.57
v 76.552 10 -5.168
v 76.617 10 -5.3
v 76.359 10 -4.92
v 76.467 10 -5.04
v 76.034 10 -4.691
v 76.23 10 -4.81
v 75.484 10 -4.566
v 75.806 10 -4.611
v 74.317 10 -4.565
v 75.008 10 -4.552
v 72.372 10 -4.651
v 73.35 10 -4.6
v 70.876 10 -4.814
v 71.581 10 -4.717
v 69.317 10 -5.173
v 70.155 10 -4.96
v 63.5 10 -6.22
v 62.007 10 -6.243
v 62.629 10 -6.224
v 61.213 10 -6.377
v 61.56 10 -6.29
v 60.52 10 -6.72
v 60.891 10 -6.516
v 59.903 10 -7.106
v 60.152 10 -6.936
v 59.67 10 -7.447
v 59.75 10 -7.265
v 59.64 10 -8.02
v 59.641 10 -7.688
v 59.676 10 -8.563
v 59.648 10 -8.32
v 59.818 10 -8.941
v 59.73 10 -8.764
v 60.12 10 -9.29
v 59.946 10 -9.111
v 60.04 10 -22.87
v 59.381 10 -26.336
v 59.638 10 -24.835
v 59.296 10 -28.154
v 59.268 10 -27.425
v 59.77 10 -28.74
v 59.464 10 -28.575
v 59.537 10 -30.122
v 59.034 10 -31.01
v 59.32 10 -30.49
v 58.594 10 -31.978
v 58.796 10 -31.494
v 58.244 10 -33.085
v 58.414 10 -32.496
v 57.728 10 -35.32
v 58.07 10 -33.78
v 57.239 10 -37.855
v 57.451 10 -36.675
v 56.999 10 -39.724
v 57.089 10 -38.868
v 56.97 10 -41.65
v 56.97 10 -40.43
v 55.964 10 -40.457
v 55.914 10 -39.269
v 55.96 10 -40.05
v 55.285 10 -37.65
v 55.719 10 -38.519
v 53.349 10 -34.964
v 54.524 10 -36.514
v 51.105 10 -32.154
v 51.67 10 -32.85
v 50.173 10 -31.077
v 50.603 10 -31.56
v 49.554 10 -30.475
v 49.82 10 -30.713
v 49.117 10 -30.276
v 49.38 10 -30.37
v 49.35 10 -29.32
v 48.65 10 -26.26
v 49.88 10 -28.85
v 44.12 10 -9.98
v 44.368 10 -9.822
v 44.268 10 -9.917
v 44.442 10 -9.384
v 44.424 10 -9.658
v 44.39 10 -8.36
v 44.429 10 -8.965
v 44.317 10 -7.579
v 44.359 10 -7.957
v 44.213 10 -6.961
v 44.268 10 -7.241
v 44.1 10 -6.64
v 44.156 10 -6.756
v 44.35 10 -4.16
v 44.773 10 -3.679
v 44.604 10 -3.891
v 44.907 10 -3.271
v 44.87 10 -3.485
v 44.85 10 -2.63
v 44.896 10 -2.999
v 43.3 10 -1.02
v 44.75 10 -1.71
v 41.649 10 -0.275
v 42.342 10 -0.575
v 41.132 10 -0.095
v 37.972 10 -27.659
v 37.581 10 -38.025
v 38.936 10 -51.993
v 43.03 10 -63.02
v 35.922 10 -63.84
v 34.862 10 -61.055
v 35.205 10 -55.284
v 33.884 10 -36.546
v 29.121 10 -21.75
v 28.002 10 -18.802
v 23.823 10 -53.228
v 26.743 10 -64.497
v 33.56 10 -75.79
v 74.6 10 -79.6
v 65.547 10 -65.833
v 69.074 10 -58.848
v 68.987 10 -53.28
v 71.256 10 -31.799
v 69.93 10 -24.78
v 64.369 10 -6.213
v 60.197 10 -22.092
v 59.733 10 -29.78
v 49.1 10 -29.568
v 44.112 10 -4.426
v 36.24 10 -11.9
v 37.22 10 -26.93
v 37.412 10 -34.99
v 34.402 10 -56.159
v 34.819 10 -55.412
v 34.696 10 -40.429
v 33.669 10 -36.078
v 28.784 10 -20.866
v 28.209 10 -19.35
v 24.47 10 -21.2
v 24.174 10 -54.99
v 24.719 10 -57.78
v 26.866 10 -64.373
v 29.631 10 -71.756
v 48.755 10 -92.013
v 67.689 10 -86.516
v 66.629 10 -71.139
v 66.731 10 -62.399
v 68.96 10 -58.885
v 68.928 10 -52.609
v 71.092 10 -31.879
v 60.303 10 -9.48
v 55.985 10 -40.749
v 48.951 10 -29.79
v 43.865 10 -10.176
v 37.637 10 -32.599
v 39.041 10 -51.334
v 44.579 10 -66.474
v 43.389 10 -68.998
v 35.954 10 -64.194
v 34.756 10 -61.176
v 34.546 10 -55.524
v 35.501 10 -44.475
v 28.475 10 -20.052
v 23.602 10 -21.406
v 24.478 10 -56.533
v 26.993 10 -64.234
v 48.725 10 -91.671
v 74.304 10 -79.858
v 66.463 10 -71.346
v 65.466 10 -66.017
v 68.889 10 -58.974
v 68.866 10 -53.124
v 71.061 10 -32.355
v 71.027 10 -32.052
v 73.491 10 -7.989
v 65.061 10 -6.181
v 60.323 10 -21.313
v 59.899 10 -29.476
v 48.904 10 -29.984
v 43.951 10 -4.639
v 36.597 10 -11.96
v 37.024 10 -14.137
v 37.591 10 -33.332
v 37.475 10 -34.561
v 39.13 10 -50.695
v 44.695 10 -66.506
v 41.877 10 -69.831
v 35.048 10 -61.759
v 34.371 10 -55.628
v 35.272 10 -43.418
v 34.858 10 -41.339
v 27.114 10 -64.087
v 30.163 10 -71.951
v 39.053 10 -84.874
v 67.528 10 -86.767
v 73.37 10 -81.09
v 74.043 10 -80.125
v 66.025 10 -63.68
v 66.461 10 -62.551
v 68.846 10 -52.899
v 72.902 10 -8.435
v 68.26 10 -5.47
v 65.685 10 -6.107
v 60.44 10 -9.67
v 60.425 10 -20.45
v 60.027 10 -29.227
v 56.034 10 -40.955
v 47.995 10 -24.843
v 43.757 10 -10.604
v 43.855 10 -4.83
v 36.836 10 -12.246
v 37.543 10 -26.946
v 37.536 10 -33.997
v 39.199 10 -50.11
v 44.792 10 -66.536
v 41.803 10 -69.912
v 36.042 10 -64.499
v 34.755 10 -61.349
v 35.054 10 -42.354
v 23.67 10 -21.497
v 27.222 10 -63.941
v 30.628 10 -72.231
v 39.249 10 -84.802
v 48.685 10 -91.327
v 67.589 10 -86.631
v 73.585 10 -80.73
v 66.112 10 -63.186
v 68.833 10 -59.39
v 68.85 10 -59.135
v 69.13 10 -20.3
v 60.51 10 -19.42
v 56.121 10 -41.104
v 47.417 10 -23.474
v 44.049 10 -6.553
v 36.974 10 -12.919
v 37.768 10 -27.007
v 44.869 10 -66.564
v 41.733 10 -69.975
v 34.854 10 -61.551
v 34.35 10 -56.129
v 34.278 10 -55.733
v 32.24 10 -32.85
v 23.765 10 -21.554
v 26.767 10 -60.729
v 27.31 10 -63.8
v 31.083 10 -72.639
v 39.482 10 -84.762
v 48.636 10 -90.997
v 73.806 10 -80.412
v 66.256 10 -62.811
v 72.309 10 -8.934
v 66.353 10 -5.976
v 59.867 10 -28.76
v 60.111 10 -29.047
v 46.87 10 -22.021
v 43.997 10 -6.42
v 43.812 10 -5.035
v 37.908 10 -27.132
v 39.244 10 -49.61
v 44.919 10 -66.588
v 41.674 10 -70.016
v 34.306 10 -56.081
v 34.25 10 -55.85
v 33.38 10 -35.436
v 32.649 10 -33.784
v 23.895 10 -21.582
v 26.987 10 -60.965
v 27.423 10 -63.612
v 31.591 10 -73.217
v 39.777 10 -84.751
v 48.58 10 -90.7
v 68.836 10 -18.591
v 71.671 10 -9.516
v 67.174 10 -5.769
v 59.955 10 -28.79
v 60.14 10 -28.95
v 48.959 10 -30.147
v 46.306 10 -20.353
v 43.947 10 -6.25
v 43.811 10 -5.287
v 37.995 10 -40.441
v 39.26 10 -49.23
v 44.94 10 -66.61
v 34.273 10 -56.017
v 33.034 10 -34.659
v 24.07 10 -21.59
v 27.143 10 -61.271
v 27.493 10 -63.438
v 32.21 10 -74.01
v 40.158 10 -84.765
v 68.627 10 -17.308
v 70.95 10 -10.21
v 60.586 10 -18.141
v 45.679 10 -18.336
v 43.903 10 -6.053
v 43.84 10 -5.62
v 37.972 10 -27.343
v 39.145 10 -48.092
v 34.254 10 -55.94
v 24.251 10 -21.581
v 40.65 10 -84.8
v 68.493 10 -16.349
v 70.418 10 -10.74
v 60.54 10 -9.885
v 60.03 10 -28.826
v 44.94 10 -15.84
v 43.866 10 -5.84
v 38.441 10 -43.234
v 38.849 10 -45.939
v 24.378 10 -21.558
v 27.524 10 -63.249
v 44.044 10 -86.362
v 66.31 10 -71.504
v 69.924 10 -11.246
v 60.613 10 -10.154
v 60.089 10 -28.867
v 44.386 10 -13.882
v 24.458 10 -21.515
v 27.517 10 -63.016
v 41.018 10 -84.84
v 43.411 10 -85.884
v 66.167 10 -71.614
v 69.491 10 -11.705
v 60.67 10 -10.503
v 60.126 10 -28.909
v 43.803 10 -11.324
v 24.497 10 -21.343
v 24.495 10 -21.446
v 27.475 10 -62.709
v 41.372 10 -84.887
v 42.893 10 -85.498
v 66.031 10 -71.679
v 65.421 10 -66.339
v 69.139 10 -12.094
v 60.72 10 -10.96
v 60.66 10 -16.53
v 44.01 10 -12.396
v 27.4 10 -62.3
v 41.696 10 -84.939
v 42.521 10 -85.228
v 65.9 10 -71.7
v 68.423 10 -15.612
v 68.888 10 -12.39
v 60.746 10 -11.431
v 27.269 10 -61.699
v 41.974 10 -84.993
v 42.33 10 -85.1
v 65.744 10 -71.683
v 68.409 10 -14.996
v 68.76 10 -12.57
v 60.756 10 -12.157
v 42.191 10 -85.048
v 68.44 10 -14.4
v 68.698 10 -12.731
v 60.75 10 -13.085
v 36.213 10 -64.819
v 68.635 10 -12.971
v 60.731 10 -14.159
v 36.49 10 -65.221
v 65.637 10 -71.582
v 68.574 10 -13.275
v 60.701 10 -15.326
v 36.9 10 -65.77
v 65.566 10 -71.32
v 68.519 10 -13.626
v 56.26 10 -41.226
v 37.526 10 -66.474
v 65.52 10 -70.821
v 68.473 10 -14.006
v 56.46 10 -41.35
v 38.429 10 -67.372
v 65.485 10 -70.01
v 39.449 10 -68.32
v 65.45 10 -68.81
v 44.919 10 -66.67
v 40.428 10 -69.174
v 65.418 10 -67.668
v 41.208 10 -69.792
v 65.407 10 -66.867
v 41.63 10 -70.03
v 44.852 10 -66.802
v 44.745 10 -66.996
v 43.574 10 -68.86
v 44.604 10 -67.241
v 43.761 10 -68.639
f 1 2 3
f 4 1 5
f 6 4 7
f 8 6 9
f 10 8 11
f 12 10 13
f 14 12 15
f 16 14 17
f 18 16 19
f 20 18 21
f 22 20 23
f 24 22 25
f 26 24 27
f 28 29 30
f 31 28 32
f 33 31 34
f 35 33 36
f 37 35 38
f 39 37 40
f 41 42 43
f 44 41 45
f 46 44 47
f 48 46 49
f 50 48 51
f 52 50 53
f 54 55 56
f 57 54 58
f 59 57 60
f 61 62 63
f 64 61 65
f 66 64 67
f 68 69 70
f 71 68 72
f 73 71 74
f 75 73 76
f 77 75 78
f 79 77 80
f 81 82 83
f 84 81 85
f 86 84 87
f 88 89 90
f 91 92 93
f 94 91 95
f 96 94 97
f 98 96 99
f 100 101 102
f 103 100 104
f 105 103 106
f 107 108 109
f 110 107 111
f 112 110 113
f 114 112 115
f 116 114 117
f 118 116 119
f 120 118 121
f 122 120 123
f 124 122 125
f 126 127 128
f 129 126 130
f 131 129 132
f 133 131 134
f 135 136 137
f 138 135 139
f 140 138 141
f 142 143 144
f 145 146 147
f 148 145 149
f 150 148 151
f 152 150 153
f 154 152 155
f 156 154 157
f 158 159 160
f 161 158 162
f 163 161 164
f 165 166 167
f 168 165 169
f 170 168 171
f 172 170 173
f 174 172 175
f 176 174 177
f 178 179 180
f 181 178 182
f 183 184 185
f 186 183 187
f 188 186 189
f 190 188 191
f 192 193 194
f 195 192 196
f 197 195 198
f 199 197 200
f 201 199 202
f 203 201 204
f 205 203 206
f 207 208 209
f 210 207 211
f 212 210 213
f 214 212 215
f 216 214 217
f 218 216 219
f 220 218 221
f 222 223 224
f 225 226 227
f 228 225 229
f 230 228 231
f 232 230 233
f 234 232 235
f 236 234 237
f 238 236 239
f 240 238 241
f 242 240 243
f 244 242 245
f 246 244 247
f 248 246 249
f 250 248 251
f 252 250 253
f 254 252 255
f 256 254 257
f 258 256 259
f 260 258 261
f 262 260 263
f 264 262 265
f 266 264 267
f 268 269 270
f 271 268 272
f 273 271 274
f 275 273 276
f 277 275 278
f 279 277 280
f 281 282 283
f 284 281 285
f 286 284 287
f 288 286 289
f 290 288 291
f 292 290 293
f 294 292 295
f 296 294 297
f 298 296 299
f 300 298 301
f 302 300 303
f 304 302 305
f 306 304 307
f 308 309 310
f 311 308 312
f 313 311 314
f 315 316 317
f 318 315 319
f 320 318 321
f 322 320 323
f 324 322 325
f 326 324 327
f 328 329 330
f 331 328 332
f 333 331 334
f 335 333 336
f 337 338 339
f 340 337 341
f 342 340 343
f 344 342 345
f 346 344 347
f 348 346 349
f 350 348 351
f 352 350 353
f 354 352 355
f 356 354 357
f 358 359 360
f 361 358 362
f 363 364 365
f 366 363 367
f 368 366 369
f 370 368 371
f 372 370 373
f 374 372 375
f 376 374 377
f 378 376 379
f 380 378 381
f 382 380 383
f 384 382 385
f 386 384 387
f 388 389 390
f 391 388 392
f 393 391 394
f 395 393 396
f 397 395 398
f 399 397 400
f 401 399 402
f 403 401 404
f 405 403 406
f 407 408 409
f 410 407 411
f 412 410 413
f 414 415 416
f 417 414 418
f 419 417 420
f 421 419 422
f 423 421 424
f 425 423 426
f 427 425 428
f 429 430 431
f 432 429 433
f 434 432 435
f 436 434 437
f 438 436 439
f 440 438 441
f 442 440 443
f 444 445 446
f 447 448 449
f 450 447 451
f 452 450 453
f 454 452 455
f 456 454 457
f 458 456 459
f 460 461 462
f 463 460 464
f 465 463 466
f 467 465 468
f 469 467 470
f 2 469 471
f 4 2 1
f 8 4 6
f 12 8 10
f 16 12 14
f 20 16 18
f 24 20 22
f 29 24 26
f 31 29 28
f 35 31 33
f 39 35 37
f 44 42 41
f 48 44 46
f 52 48 50
f 54 472 55
f 59 54 57
f 64 62 61
f 473 64 66
f 68 474 69
f 73 68 71
f 77 73 75
f 475 77 79
f 81 475 82
f 86 81 84
f 94 92 91
f 98 94 96
f 100 476 101
f 105 100 103
f 107 477 108
f 112 107 110
f 116 112 114
f 120 116 118
f 124 120 122
f 126 478 127
f 131 126 129
f 138 136 135
f 479 138 140
f 480 143 142
f 145 481 146
f 150 145 148
f 154 150 152
f 158 156 159
f 163 158 161
f 168 166 165
f 172 168 170
f 176 172 174
f 178 176 179
f 482 178 181
f 186 184 183
f 190 186 188
f 192 483 193
f 197 192 195
f 201 197 199
f 205 201 203
f 207 484 208
f 212 207 210
f 216 212 214
f 220 216 218
f 228 226 225
f 232 228 230
f 236 232 234
f 240 236 238
f 244 240 242
f 248 244 246
f 252 248 250
f 256 252 254
f 260 256 258
f 264 260 262
f 271 269 268
f 275 271 273
f 279 275 277
f 281 485 282
f 286 281 284
f 290 286 288
f 294 290 292
f 298 294 296
f 302 298 300
f 306 302 304
f 308 486 309
f 313 308 311
f 318 316 315
f 322 318 320
f 326 322 324
f 328 487 329
f 333 328 331
f 488 333 335
f 340 338 337
f 344 340 342
f 348 344 346
f 352 348 350
f 356 352 354
f 358 489 359
f 490 358 361
f 366 364 363
f 370 366 368
f 374 370 372
f 378 374 376
f 382 378 380
f 386 382 384
f 388 491 389
f 393 388 391
f 397 393 395
f 401 397 399
f 405 401 403
f 407 492 408
f 412 407 410
f 414 493 415
f 419 414 417
f 423 419 421
f 427 423 425
f 432 430 429
f 436 432 434
f 440 436 438
f 444 494 445
f 450 448 447
f 454 450 452
f 458 454 456
f 460 495 461
f 465 460 463
f 469 465 467
f 4 469 2
f 12 4 8
f 20 12 16
f 29 20 24
f 35 29 31
f 496 35 39
f 48 42 44
f 497 48 52
f 59 472 54
f 64 498 62
f 73 474 68
f 475 73 77
f 86 475 81
f 98 92 94
f 105 476 100
f 112 477 107
f 120 112 116
f 499 120 124
f 126 500 478
f 133 126 131
f 138 501 136
f 502 138 479
f 503 143 480
f 145 504 481
f 154 145 150
f 158 154 156
f 505 158 163
f 172 166 168
f 178 172 176
f 506 178 482
f 186 507 184
f 192 508 483
f 201 192 197
f 509 201 205
f 212 484 207
f 220 212 216
f 228 510 226
f 236 228 232
f 244 236 240
f 252 244 248
f 260 252 256
f 266 260 264
f 271 511 269
f 279 271 275
f 286 485 281
f 294 286 290
f 302 294 298
f 512 302 306
f 313 486 308
f 318 513 316
f 326 318 322
f 328 514 487
f 488 328 333
f 340 515 338
f 348 340 344
f 356 348 352
f 358 516 489
f 370 364 366
f 378 370 374
f 386 378 382
f 393 491 388
f 401 393 397
f 517 401 405
f 412 492 407
f 419 493 414
f 427 419 423
f 432 518 430
f 440 432 436
f 444 519 494
f 450 520 448
f 458 450 454
f 465 495 460
f 4 465 469
f 20 4 12
f 496 29 35
f 497 42 48
f 521 472 59
f 473 498 64
f 73 522 474
f 523 475 86
f 98 524 92
f 105 525 476
f 112 526 477
f 499 112 120
f 126 527 500
f 528 126 133
f 502 501 138
f 529 143 503
f 145 529 504
f 158 145 154
f 172 530 166
f 506 172 178
f 186 531 507
f 192 532 508
f 509 192 201
f 220 484 212
f 228 533 510
f 244 228 236
f 266 252 260
f 279 511 271
f 286 534 485
f 302 286 294
f 535 302 512
f 313 536 486
f 326 513 318
f 328 537 514
f 538 328 488
f 348 515 340
f 539 348 356
f 358 540 516
f 370 541 364
f 386 370 378
f 393 542 491
f 517 393 401
f 412 543 492
f 419 544 493
f 440 518 432
f 444 545 519
f 458 520 450
f 465 546 495
f 20 465 4
f 547 29 496
f 497 548 42
f 549 472 521
f 473 550 498
f 73 551 522
f 552 475 523
f 553 524 98
f 554 525 105
f 499 526 112
f 126 555 527
f 556 126 528
f 502 557 501
f 145 143 529
f 505 145 158
f 506 530 172
f 186 506 531
f 192 558 532
f 559 192 509
f 560 484 220
f 244 533 228
f 561 252 266
f 562 511 279
f 286 563 534
f 535 286 302
f 564 536 313
f 326 565 513
f 538 537 328
f 348 566 515
f 540 348 539
f 490 540 358
f 370 567 541
f 568 370 386
f 393 569 542
f 570 393 517
f 412 571 543
f 419 572 544
f 440 573 518
f 574 545 444
f 458 575 520
f 465 576 546
f 29 465 20
f 577 29 547
f 578 548 497
f 473 579 550
f 73 580 551
f 581 475 552
f 582 524 553
f 554 583 525
f 499 584 526
f 556 555 126
f 502 585 557
f 505 143 145
f 506 586 530
f 190 506 186
f 192 587 558
f 588 192 559
f 589 484 560
f 244 590 533
f 591 252 561
f 592 511 562
f 535 563 286
f 593 536 564
f 594 565 326
f 538 595 537
f 540 566 348
f 596 540 490
f 568 567 370
f 570 569 393
f 412 597 571
f 427 572 419
f 440 598 573
f 599 545 574
f 600 575 458
f 29 576 465
f 601 29 577
f 602 548 578
f 473 549 579
f 475 580 73
f 603 475 581
f 604 524 582
f 605 583 554
f 606 584 499
f 556 607 555
f 502 556 585
f 505 608 143
f 506 609 586
f 610 506 190
f 192 611 587
f 612 192 588
f 613 484 589
f 244 614 590
f 511 252 591
f 615 511 592
f 535 615 563
f 594 616 565
f 538 594 595
f 596 566 540
f 568 617 567
f 570 618 569
f 619 597 412
f 427 620 572
f 442 598 440
f 621 545 599
f 622 575 600
f 29 623 576
f 548 29 601
f 624 548 602
f 473 472 549
f 475 625 580
f 626 475 603
f 627 524 604
f 584 583 605
f 628 584 606
f 556 629 607
f 630 556 502
f 505 631 608
f 506 632 609
f 633 506 610
f 192 634 611
f 635 192 612
f 636 484 613
f 244 637 614
f 535 511 615
f 538 616 594
f 638 566 596
f 568 639 617
f 570 640 618
f 641 597 619
f 427 642 620
f 643 598 442
f 644 545 621
f 645 575 622
f 29 646 623
f 624 29 548
f 647 472 473
f 475 648 625
f 649 475 626
f 650 584 628
f 630 629 556
f 505 651 631
f 506 652 632
f 653 506 633
f 192 654 634
f 655 192 635
f 656 484 636
f 244 222 637
f 535 252 511
f 538 593 616
f 657 566 638
f 568 658 639
f 570 568 640
f 641 659 597
f 660 545 644
f 661 575 645
f 29 662 646
f 663 29 624
f 647 663 472
f 475 664 648
f 665 584 650
f 630 665 629
f 505 630 651
f 506 666 652
f 655 654 192
f 667 484 656
f 244 223 222
f 535 244 252
f 566 593 538
f 668 566 657
f 568 669 658
f 670 568 570
f 671 659 641
f 672 545 660
f 673 575 661
f 29 673 662
f 674 663 647
f 475 675 664
f 505 665 630
f 506 676 666
f 655 677 654
f 667 655 484
f 244 678 223
f 679 244 535
f 668 593 566
f 568 680 669
f 681 568 670
f 682 659 671
f 683 545 672
f 29 575 673
f 675 663 674
f 649 675 475
f 505 584 665
f 506 684 676
f 655 685 677
f 686 655 667
f 244 687 678
f 688 244 679
f 668 536 593
f 568 689 680
f 690 568 681
f 691 659 682
f 29 692 575
f 649 663 675
f 693 584 505
f 506 694 684
f 655 695 685
f 696 655 686
f 244 697 687
f 698 244 688
f 668 699 536
f 568 700 689
f 701 568 690
f 691 702 659
f 29 703 692
f 649 29 663
f 694 584 693
f 653 694 506
f 655 704 695
f 705 655 696
f 244 706 697
f 707 244 698
f 708 699 668
f 568 709 700
f 710 568 701
f 642 702 691
f 29 683 703
f 653 584 694
f 655 711 704
f 712 655 705
f 244 713 706
f 714 244 707
f 715 699 708
f 568 716 709
f 717 568 710
f 29 545 683
f 653 583 584
f 655 653 711
f 718 655 712
f 714 713 244
f 719 699 715
f 568 720 716
f 721 568 717
f 29 643 545
f 653 722 583
f 718 653 655
f 714 718 713
f 568 723 720
f 724 568 721
f 649 643 29
f 653 725 722
f 726 718 714
f 568 727 723
f 728 568 724
f 649 598 643
f 653 729 725
f 730 718 726
f 568 731 727
f 702 568 728
f 649 732 598
f 653 733 729
f 734 718 730
f 568 735 731
f 642 568 702
f 649 736 732
f 653 737 733
f 738 718 734
f 568 719 735
f 427 568 642
f 649 427 736
f 653 739 737
f 740 718 738
f 568 699 719
f 741 427 649
f 653 742 739
f 743 718 740
f 427 699 568
f 653 744 742
f 745 718 743
f 427 745 699
f 718 744 653
f 427 718 745
f 718 746 744
f 741 718 427
f 718 627 746
f 747 718 741
f 718 524 627
f 748 718 747
f 718 749 524
f 750 718 748
f 718 751 749
f 89 718 750
f 718 88 751
f 88 718 89
f 752 753 754
f 753 755 756
f 755 757 758
f 757 759 760
f 759 761 762
f 761 763 764
f 763 765 766
f 765 767 768
f 767 769 770
f 769 771 772
f 771 773 774
f 773 775 776
f 775 777 778
f 779 780 781
f 780 782 783
f 782 784 785
f 784 786 787
f 786 788 789
f 788 790 791
f 792 793 794
f 793 795 796
f 795 797 798
f 797 799 800
f 799 801 802
f 801 803 804
f 805 806 807
f 806 808 809
f 808 810 811
f 812 813 814
f 813 815 816
f 815 817 818
f 819 820 821
f 820 822 823
f 822 824 825
f 824 826 827
f 826 828 829
f 828 830 831
f 832 833 834
f 833 835 836
f 835 837 838
f 839 840 841
f 842 843 844
f 843 845 846
f 845 847 848
f 847 849 850
f 851 852 853
f 852 854 855
f 854 856 857
f 858 859 860
f 859 861 862
f 861 863 864
f 863 865 866
f 865 867 868
f 867 869 870
f 869 871 872
f 871 873 874
f 873 875 876
f 877 878 879
f 878 880 881
f 880 882 883
f 882 884 885
f 886 887 888
f 887 889 890
f 889 891 892
f 893 894 895
f 896 897 898
f 897 899 900
f 899 901 902
f 901 903 904
f 903 905 906
f 905 907 908
f 909 910 911
f 910 912 913
f 912 914 915
f 916 917 918
f 917 919 920
f 919 921 922
f 921 923 924
f 923 925 926
f 925 927 928
f 929 930 931
f 930 932 933
f 934 935 936
f 935 937 938
f 937 939 940
f 939 941 942
f 943 944 945
f 944 946 947
f 946 948 949
f 948 950 951
f 950 952 953
f 952 954 955
f 954 956 957
f 958 959 960
f 959 961 962
f 961 963 964
f 963 965 966
f 965 967 968
f 967 969 970
f 969 971 972
f 973 974 975
f 976 977 978
f 977 979 980
f 979 981 982
f 981 983 984
f 983 985 986
f 985 987 988
f 987 989 990
f 989 991 992
f 991 993 994
f 993 995 996
f 995 997 998
f 997 999 1000
f 999 1001 1002
f 1001 1003 1004
f 1003 1005 1006
f 1005 1007 1008
f 1007 1009 1010
f 1009 1011 1012
f 1011 1013 1014
f 1013 1015 1016
f 1015 1017 1018
f 1019 1020 1021
f 1020 1022 1023
f 1022 1024 1025
f 1024 1026 1027
f 1026 1028 1029
f 1028 1030 1031
f 1032 1033 1034
f 1033 1035 1036
f 1035 1037 1038
f 1037 1039 1040
f 1039 1041 1042
f 1041 1043 1044
f 1043 1045 1046
f 1045 1047 1048
f 1047 1049 1050
f 1049 1051 1052
f 1051 1053 1054
f 1053 1055 1056
f 1055 1057 1058
f 1059 1060 1061
f 1060 1062 1063
f 1062 1064 1065
f 1066 1067 1068
f 1067 1069 1070
f 1069 1071 1072
f 1071 1073 1074
f 1073 1075 1076
f 1075 1077 1078
f 1079 1080 1081
f 1080 1082 1083
f 1082 1084 1085
f 1084 1086 1087
f 1088 1089 1090
f 1089 1091 1092
f 1091 1093 1094
f 1093 1095 1096
f 1095 1097 1098
f 1097 1099 1100
f 1099 1101 1102
f 1101 1103 1104
f 1103 1105 1106
f 1105 1107 1108
f 1109 1110 1111
f 1110 1112 1113
f 1114 1115 1116
f 1115 1117 1118
f 1117 1119 1120
f 1119 1121 1122
f 1121 1123 1124
f 1123 1125 1126
f 1125 1127 1128
f 1127 1129 1130
f 1129 1131 1132
f 1131 1133 1134
f 1133 1135 1136
f 1135 1137 1138
f 1139 1140 1141
f 1140 1142 1143
f 1142 1144 1145
f 1144 1146 1147
f 1146 1148 1149
f 1148 1150 1151
f 1150 1152 1153
f 1152 1154 1155
f 1154 1156 1157
f 1158 1159 1160
f 1159 1161 1162
f 1161 1163 1164
f 1165 1166 1167
f 1166 1168 1169
f 1168 1170 1171
f 1170 1172 1173
f 1172 1174 1175
f 1174 1176 1177
f 1176 1178 1179
f 1180 1181 1182
f 1181 1183 1184
f 1183 1185 1186
f 1185 1187 1188
f 1187 1189 1190
f 1189 1191 1192
f 1191 1193 1194
f 1195 1196 1197
f 1198 1199 1200
f 1199 1201 1202
f 1201 1203 1204
f 1203 1205 1206
f 1205 1207 1208
f 1207 1209 1210
f 1211 1212 1213
f 1212 1214 1215
f 1214 1216 1217
f 1216 1218 1219
f 1218 1220 1221
f 1220 752 1222
f 752 755 753
f 755 759 757
f 759 763 761
f 763 767 765
f 767 771 769
f 771 775 773
f 775 779 777
f 779 782 780
f 782 786 784
f 786 790 788
f 792 795 793
f 795 799 797
f 799 803 801
f 1223 806 805
f 806 810 808
f 812 815 813
f 815 1224 817
f 1225 820 819
f 820 824 822
f 824 828 826
f 828 1226 830
f 1226 833 832
f 833 837 835
f 842 845 843
f 845 849 847
f 1227 852 851
f 852 856 854
f 1228 859 858
f 859 863 861
f 863 867 865
f 867 871 869
f 871 875 873
f 1229 878 877
f 878 882 880
f 886 889 887
f 889 1230 891
f 893 1231 894
f 1232 897 896
f 897 901 899
f 901 905 903
f 907 910 909
f 910 914 912
f 916 919 917
f 919 923 921
f 923 927 925
f 927 930 929
f 930 1233 932
f 934 937 935
f 937 941 939
f 1234 944 943
f 944 948 946
f 948 952 950
f 952 956 954
f 1235 959 958
f 959 963 961
f 963 967 965
f 967 971 969
f 976 979 977
f 979 983 981
f 983 987 985
f 987 991 989
f 991 995 993
f 995 999 997
f 999 1003 1001
f 1003 1007 1005
f 1007 1011 1009
f 1011 1015 1013
f 1019 1022 1020
f 1022 1026 1024
f 1026 1030 1028
f 1236 1033 1032
f 1033 1037 1035
f 1037 1041 1039
f 1041 1045 1043
f 1045 1049 1047
f 1049 1053 1051
f 1053 1057 1055
f 1237 1060 1059
f 1060 1064 1062
f 1066 1069 1067
f 1069 1073 1071
f 1073 1077 1075
f 1238 1080 1079
f 1080 1084 1082
f 1084 1239 1086
f 1088 1091 1089
f 1091 1095 1093
f 1095 1099 1097
f 1099 1103 1101
f 1103 1107 1105
f 1240 1110 1109
f 1110 1241 1112
f 1114 1117 1115
f 1117 1121 1119
f 1121 1125 1123
f 1125 1129 1127
f 1129 1133 1131
f 1133 1137 1135
f 1242 1140 1139
f 1140 1144 1142
f 1144 1148 1146
f 1148 1152 1150
f 1152 1156 1154
f 1243 1159 1158
f 1159 1163 1161
f 1244 1166 1165
f 1166 1170 1168
f 1170 1174 1172
f 1174 1178 1176
f 1180 1183 1181
f 1183 1187 1185
f 1187 1191 1189
f 1245 1196 1195
f 1198 1201 1199
f 1201 1205 1203
f 1205 1209 1207
f 1246 1212 1211
f 1212 1216 1214
f 1216 1220 1218
f 1220 755 752
f 755 763 759
f 763 771 767
f 771 779 775
f 779 786 782
f 786 1247 790
f 792 799 795
f 799 1248 803
f 1223 810 806
f 1249 815 812
f 1225 824 820
f 824 1226 828
f 1226 837 833
f 842 849 845
f 1227 856 852
f 1228 863 859
f 863 871 867
f 871 1250 875
f 1251 878 1229
f 878 884 882
f 1252 889 886
f 889 1253 1230
f 893 1254 1231
f 1255 897 1232
f 897 905 901
f 905 910 907
f 910 1256 914
f 916 923 919
f 923 930 927
f 930 1257 1233
f 1258 937 934
f 1259 944 1234
f 944 952 948
f 952 1260 956
f 1235 963 959
f 963 971 967
f 1261 979 976
f 979 987 983
f 987 995 991
f 995 1003 999
f 1003 1011 1007
f 1011 1017 1015
f 1262 1022 1019
f 1022 1030 1026
f 1236 1037 1033
f 1037 1045 1041
f 1045 1053 1049
f 1053 1263 1057
f 1237 1064 1060
f 1264 1069 1066
f 1069 1077 1073
f 1265 1080 1238
f 1080 1239 1084
f 1266 1091 1088
f 1091 1099 1095
f 1099 1107 1103
f 1267 1110 1240
f 1114 1121 1117
f 1121 1129 1125
f 1129 1137 1133
f 1242 1144 1140
f 1144 1152 1148
f 1152 1268 1156
f 1243 1163 1159
f 1244 1170 1166
f 1170 1178 1174
f 1269 1183 1180
f 1183 1191 1187
f 1270 1196 1245
f 1271 1201 1198
f 1201 1209 1205
f 1246 1216 1212
f 1216 755 1220
f 755 771 763
f 779 1247 786
f 792 1248 799
f 1223 1272 810
f 1249 1224 815
f 1273 824 1225
f 1226 1274 837
f 1275 849 842
f 1276 856 1227
f 1277 863 1228
f 863 1250 871
f 1278 878 1251
f 878 1279 884
f 1252 1253 889
f 893 1280 1254
f 1280 897 1255
f 897 910 905
f 1281 923 916
f 923 1257 930
f 1282 937 1258
f 1283 944 1259
f 944 1260 952
f 1235 971 963
f 1284 979 1261
f 979 995 987
f 1003 1017 1011
f 1262 1030 1022
f 1285 1037 1236
f 1037 1053 1045
f 1053 1286 1263
f 1287 1064 1237
f 1264 1077 1069
f 1288 1080 1265
f 1080 1289 1239
f 1266 1099 1091
f 1099 1290 1107
f 1291 1110 1267
f 1292 1121 1114
f 1121 1137 1129
f 1293 1144 1242
f 1144 1268 1152
f 1294 1163 1243
f 1295 1170 1244
f 1269 1191 1183
f 1296 1196 1270
f 1271 1209 1201
f 1297 1216 1246
f 1216 771 755
f 779 1298 1247
f 1299 1248 792
f 1223 1300 1272
f 1301 1224 1249
f 1302 824 1273
f 1226 1303 1274
f 1275 1304 849
f 1276 1305 856
f 1277 1250 863
f 1306 878 1278
f 878 1307 1279
f 1308 1253 1252
f 893 897 1280
f 897 1256 910
f 1281 1257 923
f 1257 937 1282
f 1309 944 1283
f 944 1310 1260
f 1235 1311 971
f 1284 995 979
f 1003 1312 1017
f 1262 1313 1030
f 1314 1037 1285
f 1037 1286 1053
f 1287 1315 1064
f 1316 1077 1264
f 1288 1289 1080
f 1317 1099 1266
f 1099 1291 1290
f 1291 1241 1110
f 1318 1121 1292
f 1121 1319 1137
f 1320 1144 1293
f 1144 1321 1268
f 1322 1163 1294
f 1323 1170 1295
f 1324 1191 1269
f 1296 1325 1196
f 1326 1209 1271
f 1327 1216 1297
f 1216 779 771
f 779 1328 1298
f 1299 1329 1248
f 1330 1224 1301
f 1331 824 1302
f 1226 1332 1303
f 1275 1333 1304
f 1334 1305 1276
f 1335 1250 1277
f 1306 1307 878
f 1336 1253 1308
f 893 1256 897
f 1337 1257 1281
f 1257 941 937
f 1338 944 1309
f 944 1339 1310
f 1235 1340 1311
f 1341 995 1284
f 1003 1342 1312
f 1262 1343 1313
f 1314 1286 1037
f 1287 1344 1315
f 1316 1345 1077
f 1346 1289 1288
f 1317 1291 1099
f 1291 1347 1241
f 1318 1319 1121
f 1320 1321 1144
f 1348 1163 1322
f 1323 1178 1170
f 1349 1191 1324
f 1296 1350 1325
f 1326 1351 1209
f 1327 779 1216
f 779 1352 1328
f 1299 1353 1329
f 1300 1224 1330
f 1331 1226 824
f 1226 1354 1332
f 1275 1355 1333
f 1334 1356 1305
f 1335 1357 1250
f 1358 1307 1306
f 1307 1253 1336
f 1359 1256 893
f 1360 1257 1337
f 1257 1361 941
f 1362 944 1338
f 944 1363 1339
f 1235 1364 1340
f 1365 995 1341
f 1003 1262 1342
f 1262 1366 1343
f 1366 1286 1314
f 1367 1345 1316
f 1345 1289 1346
f 1317 1347 1291
f 1368 1319 1318
f 1369 1321 1320
f 1348 1370 1163
f 1371 1178 1323
f 1349 1193 1191
f 1296 1372 1350
f 1326 1373 1351
f 1374 779 1327
f 779 1299 1352
f 1299 1375 1353
f 1223 1224 1300
f 1376 1226 1331
f 1226 1377 1354
f 1275 1378 1355
f 1334 1335 1356
f 1335 1379 1357
f 1380 1307 1358
f 1307 1381 1253
f 1382 1256 1359
f 1383 1257 1360
f 1257 1384 1361
f 1385 944 1362
f 944 1386 1363
f 1235 1387 1364
f 1388 995 1365
f 1262 1286 1366
f 1367 1289 1345
f 1317 1389 1347
f 1390 1319 1368
f 1391 1321 1369
f 1348 1392 1370
f 1393 1178 1371
f 1349 1394 1193
f 1296 1395 1372
f 1326 1396 1373
f 1397 779 1374
f 779 1375 1299
f 1223 1398 1224
f 1399 1226 1376
f 1226 1400 1377
f 1335 1401 1379
f 1380 1381 1307
f 1402 1256 1382
f 1403 1257 1383
f 1257 1404 1384
f 1405 944 1385
f 944 1406 1386
f 1235 1407 1387
f 974 995 1388
f 1003 1286 1262
f 1344 1289 1367
f 1317 1408 1389
f 1409 1319 1390
f 1319 1321 1391
f 1410 1392 1348
f 1296 1411 1395
f 1326 1412 1396
f 1413 779 1397
f 779 1414 1375
f 1414 1398 1223
f 1415 1226 1399
f 1335 1416 1401
f 1416 1381 1380
f 1381 1256 1402
f 1417 1257 1403
f 1405 1406 944
f 1235 1418 1407
f 973 995 974
f 995 1286 1003
f 1344 1317 1289
f 1317 1419 1408
f 1420 1319 1409
f 1319 1421 1321
f 1410 1422 1392
f 1296 1423 1411
f 1326 1424 1412
f 1424 779 1413
f 1414 1425 1398
f 1426 1226 1415
f 1416 1256 1381
f 1427 1257 1417
f 1428 1406 1405
f 1406 1418 1235
f 1429 995 973
f 995 1430 1286
f 1344 1419 1317
f 1431 1319 1420
f 1319 1432 1421
f 1410 1433 1422
f 1296 1434 1423
f 1326 779 1424
f 1414 1426 1425
f 1426 1400 1226
f 1335 1256 1416
f 1435 1257 1427
f 1436 1406 1428
f 1406 1437 1418
f 1438 995 1429
f 995 1439 1430
f 1287 1419 1344
f 1440 1319 1431
f 1319 1441 1432
f 1410 1442 1433
f 1443 779 1326
f 1414 1400 1426
f 1335 1444 1256
f 1445 1257 1435
f 1446 1406 1436
f 1406 1447 1437
f 1448 995 1438
f 995 1449 1439
f 1450 1419 1287
f 1451 1319 1440
f 1319 1452 1441
f 1453 1442 1410
f 1454 779 1443
f 779 1400 1414
f 1335 1445 1444
f 1445 1404 1257
f 1455 1406 1446
f 1406 1456 1447
f 1457 995 1448
f 995 1458 1449
f 1450 1459 1419
f 1460 1319 1451
f 1319 1461 1452
f 1453 1393 1442
f 1434 779 1454
f 1335 1404 1445
f 1462 1406 1455
f 1406 1463 1456
f 1464 995 1457
f 995 1465 1458
f 1450 1466 1459
f 1467 1319 1460
f 1319 1468 1461
f 1296 779 1434
f 1334 1404 1335
f 1404 1406 1462
f 1406 1469 1463
f 1464 1465 995
f 1450 1470 1466
f 1471 1319 1467
f 1319 1472 1468
f 1394 779 1296
f 1473 1404 1334
f 1404 1469 1406
f 1469 1465 1464
f 1474 1319 1471
f 1319 1475 1472
f 1394 1400 779
f 1476 1404 1473
f 1469 1477 1465
f 1478 1319 1474
f 1319 1479 1475
f 1349 1400 1394
f 1480 1404 1476
f 1469 1481 1477
f 1482 1319 1478
f 1319 1453 1479
f 1483 1400 1349
f 1484 1404 1480
f 1469 1485 1481
f 1486 1319 1482
f 1319 1393 1453
f 1487 1400 1483
f 1488 1404 1484
f 1469 1489 1485
f 1470 1319 1486
f 1319 1178 1393
f 1178 1400 1487
f 1490 1404 1488
f 1469 1491 1489
f 1450 1319 1470
f 1178 1492 1400
f 1493 1404 1490
f 1469 1494 1491
f 1450 1178 1319
f 1495 1404 1493
f 1469 1496 1494
f 1496 1178 1450
f 1495 1469 1404
f 1469 1178 1496
f 1497 1469 1495
f 1469 1492 1178
f 1378 1469 1497
f 1469 1498 1492
f 1275 1469 1378
f 1469 1499 1498
f 1500 1469 1275
f 1469 1501 1499
f 1502 1469 1500
f 1469 839 1501
f 840 1469 1502
f 1469 840 839
f 1 753 5
f 5 753 756
f 5 756 4
f 4 756 755
f 4 755 7
f 7 755 758
f 7 758 6
f 6 758 757
f 6 757 9
f 9 757 760
f 9 760 8
f 8 760 759
f 8 759 11
f 11 759 762
f 11 762 10
f 10 762 761
f 10 761 13
f 13 761 764
f 13 764 12
f 12 764 763
f 12 763 15
f 15 763 766
f 15 766 14
f 14 766 765
f 14 765 17
f 17 765 768
f 17 768 16
f 16 768 767
f 16 767 19
f 19 767 770
f 19 770 18
f 18 770 769
f 18 769 21
f 21 769 772
f 21 772 20
f 20 772 771
f 20 771 23
f 23 771 774
f 23 774 22
f 22 774 773
f 22 773 25
f 25 773 776
f 25 776 24
f 24 776 775
f 24 775 27
f 27 775 778
f 27 778 26
f 26 778 777
f 26 777 29
f 29 777 779
f 29 779 30
f 30 779 781
f 30 781 28
f 28 781 780
f 28 780 32
f 32 780 783
f 32 783 31
f 31 783 782
f 31 782 34
f 34 782 785
f 34 785 33
f 33 785 784
f 33 784 36
f 36 784 787
f 36 787 35
f 35 787 786
f 35 786 38
f 38 786 789
f 38 789 37
f 37 789 788
f 37 788 40
f 40 788 791
f 40 791 39
f 39 791 790
f 39 790 496
f 496 790 1247
f 496 1247 547
f 547 1247 1298
f 547 1298 577
f 577 1298 1328
f 577 1328 601
f 601 1328 1352
f 601 1352 548
f 548 1352 1299
f 548 1299 42
f 42 1299 792
f 42 792 43
f 43 792 794
f 43 794 41
f 41 794 793
f 41 793 45
f 45 793 796
f 45 796 44
f 44 796 795
f 44 795 47
f 47 795 798
f 47 798 46
f 46 798 797
f 46 797 49
f 49 797 800
f 49 800 48
f 48 800 799
f 48 799 51
f 51 799 802
f 51 802 50
f 50 802 801
f 50 801 53
f 53 801 804
f 53 804 52
f 52 804 803
f 52 803 497
f 497 803 1248
f 497 1248 578
f 578 1248 1329
f 578 1329 602
f 602 1329 1353
f 602 1353 624
f 624 1353 1375
f 624 1375 663
f 663 1375 1414
f 663 1414 472
f 472 1414 1223
f 472 1223 55
f 55 1223 805
f 55 805 56
f 56 805 807
f 56 807 54
f 54 807 806
f 54 806 58
f 58 806 809
f 58 809 57
f 57 809 808
f 57 808 60
f 60 808 811
f 60 811 59
f 59 811 810
f 59 810 521
f 521 810 1272
f 521 1272 549
f 549 1272 1300
f 549 1300 579
f 579 1300 1330
f 579 1330 550
f 550 1330 1301
f 550 1301 498
f 498 1301 1249
f 498 1249 62
f 62 1249 812
f 62 812 63
f 63 812 814
f 63 814 61
f 61 814 813
f 61 813 65
f 65 813 816
f 65 816 64
f 64 816 815
f 64 815 67
f 67 815 818
f 67 818 66
f 66 818 817
f 66 817 473
f 473 817 1224
f 473 1224 647
f 647 1224 1398
f 647 1398 674
f 674 1398 1425
f 674 1425 675
f 675 1425 1426
f 675 1426 664
f 664 1426 1415
f 664 1415 648
f 648 1415 1399
f 648 1399 625
f 625 1399 1376
f 625 1376 580
f 580 1376 1331
f 580 1331 551
f 551 1331 1302
f 551 1302 522
f 522 1302 1273
f 522 1273 474
f 474 1273 1225
f 474 1225 69
f 69 1225 819
f 69 819 70
f 70 819 821
f 70 821 68
f 68 821 820
f 68 820 72
f 72 820 823
f 72 823 71
f 71 823 822
f 71 822 74
f 74 822 825
f 74 825 73
f 73 825 824
f 73 824 76
f 76 824 827
f 76 827 75
f 75 827 826
f 75 826 78
f 78 826 829
f 78 829 77
f 77 829 828
f 77 828 80
f 80 828 831
f 80 831 79
f 79 831 830
f 79 830 475
f 475 830 1226
f 475 1226 82
f 82 1226 832
f 82 832 83
f 83 832 834
f 83 834 81
f 81 834 833
f 81 833 85
f 85 833 836
f 85 836 84
f 84 836 835
f 84 835 87
f 87 835 838
f 87 838 86
f 86 838 837
f 86 837 523
f 523 837 1274
f 523 1274 552
f 552 1274 1303
f 552 1303 581
f 581 1303 1332
f 581 1332 603
f 603 1332 1354
f 603 1354 626
f 626 1354 1377
f 626 1377 649
f 649 1377 1400
f 649 1400 741
f 741 1400 1492
f 741 1492 747
f 747 1492 1498
f 747 1498 748
f 748 1498 1499
f 748 1499 750
f 750 1499 1501
f 750 1501 89
f 89 1501 839
f 89 839 90
f 90 839 841
f 90 841 88
f 88 841 840
f 88 840 751
f 751 840 1502
f 751 1502 749
f 749 1502 1500
f 749 1500 524
f 524 1500 1275
f 524 1275 92
f 92 1275 842
f 92 842 93
f 93 842 844
f 93 844 91
f 91 844 843
f 91 843 95
f 95 843 846
f 95 846 94
f 94 846 845
f 94 845 97
f 97 845 848
f 97 848 96
f 96 848 847
f 96 847 99
f 99 847 850
f 99 850 98
f 98 850 849
f 98 849 553
f 553 849 1304
f 553 1304 582
f 582 1304 1333
f 582 1333 604
f 604 1333 1355
f 604 1355 627
f 627 1355 1378
f 627 1378 746
f 746 1378 1497
f 746 1497 744
f 744 1497 1495
f 744 1495 742
f 742 1495 1493
f 742 1493 739
f 739 1493 1490
f 739 1490 737
f 737 1490 1488
f 737 1488 733
f 733 1488 1484
f 733 1484 729
f 729 1484 1480
f 729 1480 725
f 725 1480 1476
f 725 1476 722
f 722 1476 1473
f 722 1473 583
f 583 1473 1334
f 583 1334 525
f 525 1334 1276
f 525 1276 476
f 476 1276 1227
f 476 1227 101
f 101 1227 851
f 101 851 102
f 102 851 853
f 102 853 100
f 100 853 852
f 100 852 104
f 104 852 855
f 104 855 103
f 103 855 854
f 103 854 106
f 106 854 857
f 106 857 105
f 105 857 856
f 105 856 554
f 554 856 1305
f 554 1305 605
f 605 1305 1356
f 605 1356 584
f 584 1356 1335
f 584 1335 526
f 526 1335 1277
f 526 1277 477
f 477 1277 1228
f 477 1228 108
f 108 1228 858
f 108 858 109
f 109 858 860
f 109 860 107
f 107 860 859
f 107 859 111
f 111 859 862
f 111 862 110
f 110 862 861
f 110 861 113
f 113 861 864
f 113 864 112
f 112 864 863
f 112 863 115
f 115 863 866
f 115 866 114
f 114 866 865
f 114 865 117
f 117 865 868
f 117 868 116
f 116 868 867
f 116 867 119
f 119 867 870
f 119 870 118
f 118 870 869
f 118 869 121
f 121 869 872
f 121 872 120
f 120 872 871
f 120 871 123
f 123 871 874
f 123 874 122
f 122 874 873
f 122 873 125
f 125 873 876
f 125 876 124
f 124 876 875
f 124 875 499
f 499 875 1250
f 499 1250 606
f 606 1250 1357
f 606 1357 628
f 628 1357 1379
f 628 1379 650
f 650 1379 1401
f 650 1401 665
f 665 1401 1416
f 665 1416 629
f 629 1416 1380
f 629 1380 607
f 607 1380 1358
f 607 1358 555
f 555 1358 1306
f 555 1306 527
f 527 1306 1278
f 527 1278 500
f 500 1278 1251
f 500 1251 478
f 478 1251 1229
f 478 1229 127
f 127 1229 877
f 127 877 128
f 128 877 879
f 128 879 126
f 126 879 878
f 126 878 130
f 130 878 881
f 130 881 129
f 129 881 880
f 129 880 132
f 132 880 883
f 132 883 131
f 131 883 882
f 131 882 134
f 134 882 885
f 134 885 133
f 133 885 884
f 133 884 528
f 528 884 1279
f 528 1279 556
f 556 1279 1307
f 556 1307 585
f 585 1307 1336
f 585 1336 557
f 557 1336 1308
f 557 1308 501
f 501 1308 1252
f 501 1252 136
f 136 1252 886
f 136 886 137
f 137 886 888
f 137 888 135
f 135 888 887
f 135 887 139
f 139 887 890
f 139 890 138
f 138 890 889
f 138 889 141
f 141 889 892
f 141 892 140
f 140 892 891
f 140 891 479
f 479 891 1230
f 479 1230 502
f 502 1230 1253
f 502 1253 630
f 630 1253 1381
f 630 1381 651
f 651 1381 1402
f 651 1402 631
f 631 1402 1382
f 631 1382 608
f 608 1382 1359
f 608 1359 143
f 143 1359 893
f 143 893 144
f 144 893 895
f 144 895 142
f 142 895 894
f 142 894 480
f 480 894 1231
f 480 1231 503
f 503 1231 1254
f 503 1254 529
f 529 1254 1280
f 529 1280 504
f 504 1280 1255
f 504 1255 481
f 481 1255 1232
f 481 1232 146
f 146 1232 896
f 146 896 147
f 147 896 898
f 147 898 145
f 145 898 897
f 145 897 149
f 149 897 900
f 149 900 148
f 148 900 899
f 148 899 151
f 151 899 902
f 151 902 150
f 150 902 901
f 150 901 153
f 153 901 904
f 153 904 152
f 152 904 903
f 152 903 155
f 155 903 906
f 155 906 154
f 154 906 905
f 154 905 157
f 157 905 908
f 157 908 156
f 156 908 907
f 156 907 159
f 159 907 909
f 159 909 160
f 160 909 911
f 160 911 158
f 158 911 910
f 158 910 162
f 162 910 913
f 162 913 161
f 161 913 912
f 161 912 164
f 164 912 915
f 164 915 163
f 163 915 914
f 163 914 505
f 505 914 1256
f 505 1256 693
f 693 1256 1444
f 693 1444 694
f 694 1444 1445
f 694 1445 684
f 684 1445 1435
f 684 1435 676
f 676 1435 1427
f 676 1427 666
f 666 1427 1417
f 666 1417 652
f 652 1417 1403
f 652 1403 632
f 632 1403 1383
f 632 1383 609
f 609 1383 1360
f 609 1360 586
f 586 1360 1337
f 586 1337 530
f 530 1337 1281
f 530 1281 166
f 166 1281 916
f 166 916 167
f 167 916 918
f 167 918 165
f 165 918 917
f 165 917 169
f 169 917 920
f 169 920 168
f 168 920 919
f 168 919 171
f 171 919 922
f 171 922 170
f 170 922 921
f 170 921 173
f 173 921 924
f 173 924 172
f 172 924 923
f 172 923 175
f 175 923 926
f 175 926 174
f 174 926 925
f 174 925 177
f 177 925 928
f 177 928 176
f 176 928 927
f 176 927 179
f 179 927 929
f 179 929 180
f 180 929 931
f 180 931 178
f 178 931 930
f 178 930 182
f 182 930 933
f 182 933 181
f 181 933 932
f 181 932 482
f 482 932 1233
f 482 1233 506
f 506 1233 1257
f 506 1257 531
f 531 1257 1282
f 531 1282 507
f 507 1282 1258
f 507 1258 184
f 184 1258 934
f 184 934 185
f 185 934 936
f 185 936 183
f 183 936 935
f 183 935 187
f 187 935 938
f 187 938 186
f 186 938 937
f 186 937 189
f 189 937 940
f 189 940 188
f 188 940 939
f 188 939 191
f 191 939 942
f 191 942 190
f 190 942 941
f 190 941 610
f 610 941 1361
f 610 1361 633
f 633 1361 1384
f 633 1384 653
f 653 1384 1404
f 653 1404 711
f 711 1404 1462
f 711 1462 704
f 704 1462 1455
f 704 1455 695
f 695 1455 1446
f 695 1446 685
f 685 1446 1436
f 685 1436 677
f 677 1436 1428
f 677 1428 654
f 654 1428 1405
f 654 1405 634
f 634 1405 1385
f 634 1385 611
f 611 1385 1362
f 611 1362 587
f 587 1362 1338
f 587 1338 558
f 558 1338 1309
f 558 1309 532
f 532 1309 1283
f 532 1283 508
f 508 1283 1259
f 508 1259 483
f 483 1259 1234
f 483 1234 193
f 193 1234 943
f 193 943 194
f 194 943 945
f 194 945 192
f 192 945 944
f 192 944 196
f 196 944 947
f 196 947 195
f 195 947 946
f 195 946 198
f 198 946 949
f 198 949 197
f 197 949 948
f 197 948 200
f 200 948 951
f 200 951 199
f 199 951 950
f 199 950 202
f 202 950 953
f 202 953 201
f 201 953 952
f 201 952 204
f 204 952 955
f 204 955 203
f 203 955 954
f 203 954 206
f 206 954 957
f 206 957 205
f 205 957 956
f 205 956 509
f 509 956 1260
f 509 1260 559
f 559 1260 1310
f 559 1310 588
f 588 1310 1339
f 588 1339 612
f 612 1339 1363
f 612 1363 635
f 635 1363 1386
f 635 1386 655
f 655 1386 1406
f 655 1406 484
f 484 1406 1235
f 484 1235 208
f 208 1235 958
f 208 958 209
f 209 958 960
f 209 960 207
f 207 960 959
f 207 959 211
f 211 959 962
f 211 962 210
f 210 962 961
f 210 961 213
f 213 961 964
f 213 964 212
f 212 964 963
f 212 963 215
f 215 963 966
f 215 966 214
f 214 966 965
f 214 965 217
f 217 965 968
f 217 968 216
f 216 968 967
f 216 967 219
f 219 967 970
f 219 970 218
f 218 970 969
f 218 969 221
f 221 969 972
f 221 972 220
f 220 972 971
f 220 971 560
f 560 971 1311
f 560 1311 589
f 589 1311 1340
f 589 1340 613
f 613 1340 1364
f 613 1364 636
f 636 1364 1387
f 636 1387 656
f 656 1387 1407
f 656 1407 667
f 667 1407 1418
f 667 1418 686
f 686 1418 1437
f 686 1437 696
f 696 1437 1447
f 696 1447 705
f 705 1447 1456
f 705 1456 712
f 712 1456 1463
f 712 1463 718
f 718 1463 1469
f 718 1469 713
f 713 1469 1464
f 713 1464 706
f 706 1464 1457
f 706 1457 697
f 697 1457 1448
f 697 1448 687
f 687 1448 1438
f 687 1438 678
f 678 1438 1429
f 678 1429 223
f 223 1429 973
f 223 973 224
f 224 973 975
f 224 975 222
f 222 975 974
f 222 974 637
f 637 974 1388
f 637 1388 614
f 614 1388 1365
f 614 1365 590
f 590 1365 1341
f 590 1341 533
f 533 1341 1284
f 533 1284 510
f 510 1284 1261
f 510 1261 226
f 226 1261 976
f 226 976 227
f 227 976 978
f 227 978 225
f 225 978 977
f 225 977 229
f 229 977 980
f 229 980 228
f 228 980 979
f 228 979 231
f 231 979 982
f 231 982 230
f 230 982 981
f 230 981 233
f 233 981 984
f 233 984 232
f 232 984 983
f 232 983 235
f 235 983 986
f 235 986 234
f 234 986 985
f 234 985 237
f 237 985 988
f 237 988 236
f 236 988 987
f 236 987 239
f 239 987 990
f 239 990 238
f 238 990 989
f 238 989 241
f 241 989 992
f 241 992 240
f 240 992 991
f 240 991 243
f 243 991 994
f 243 994 242
f 242 994 993
f 242 993 245
f 245 993 996
f 245 996 244
f 244 996 995
f 244 995 247
f 247 995 998
f 247 998 246
f 246 998 997
f 246 997 249
f 249 997 1000
f 249 1000 248
f 248 1000 999
f 248 999 251
f 251 999 1002
f 251 1002 250
f 250 1002 1001
f 250 1001 253
f 253 1001 1004
f 253 1004 252
f 252 1004 1003
f 252 1003 255
f 255 1003 1006
f 255 1006 254
f 254 1006 1005
f 254 1005 257
f 257 1005 1008
f 257 1008 256
f 256 1008 1007
f 256 1007 259
f 259 1007 1010
f 259 1010 258
f 258 1010 1009
f 258 1009 261
f 261 1009 1012
f 261 1012 260
f 260 1012 1011
f 260 1011 263
f 263 1011 1014
f 263 1014 262
f 262 1014 1013
f 262 1013 265
f 265 1013 1016
f 265 1016 264
f 264 1016 1015
f 264 1015 267
f 267 1015 1018
f 267 1018 266
f 266 1018 1017
f 266 1017 561
f 561 1017 1312
f 561 1312 591
f 591 1312 1342
f 591 1342 511
f 511 1342 1262
f 511 1262 269
f 269 1262 1019
f 269 1019 270
f 270 1019 1021
f 270 1021 268
f 268 1021 1020
f 268 1020 272
f 272 1020 1023
f 272 1023 271
f 271 1023 1022
f 271 1022 274
f 274 1022 1025
f 274 1025 273
f 273 1025 1024
f 273 1024 276
f 276 1024 1027
f 276 1027 275
f 275 1027 1026
f 275 1026 278
f 278 1026 1029
f 278 1029 277
f 277 1029 1028
f 277 1028 280
f 280 1028 1031
f 280 1031 279
f 279 1031 1030
f 279 1030 562
f 562 1030 1313
f 562 1313 592
f 592 1313 1343
f 592 1343 615
f 615 1343 1366
f 615 1366 563
f 563 1366 1314
f 563 1314 534
f 534 1314 1285
f 534 1285 485
f 485 1285 1236
f 485 1236 282
f 282 1236 1032
f 282 1032 283
f 283 1032 1034
f 283 1034 281
f 281 1034 1033
f 281 1033 285
f 285 1033 1036
f 285 1036 284
f 284 1036 1035
f 284 1035 287
f 287 1035 1038
f 287 1038 286
f 286 1038 1037
f 286 1037 289
f 289 1037 1040
f 289 1040 288
f 288 1040 1039
f 288 1039 291
f 291 1039 1042
f 291 1042 290
f 290 1042 1041
f 290 1041 293
f 293 1041 1044
f 293 1044 292
f 292 1044 1043
f 292 1043 295
f 295 1043 1046
f 295 1046 294
f 294 1046 1045
f 294 1045 297
f 297 1045 1048
f 297 1048 296
f 296 1048 1047
f 296 1047 299
f 299 1047 1050
f 299 1050 298
f 298 1050 1049
f 298 1049 301
f 301 1049 1052
f 301 1052 300
f 300 1052 1051
f 300 1051 303
f 303 1051 1054
f 303 1054 302
f 302 1054 1053
f 302 1053 305
f 305 1053 1056
f 305 1056 304
f 304 1056 1055
f 304 1055 307
f 307 1055 1058
f 307 1058 306
f 306 1058 1057
f 306 1057 512
f 512 1057 1263
f 512 1263 535
f 535 1263 1286
f 535 1286 679
f 679 1286 1430
f 679 1430 688
f 688 1430 1439
f 688 1439 698
f 698 1439 1449
f 698 1449 707
f 707 1449 1458
f 707 1458 714
f 714 1458 1465
f 714 1465 726
f 726 1465 1477
f 726 1477 730
f 730 1477 1481
f 730 1481 734
f 734 1481 1485
f 734 1485 738
f 738 1485 1489
f 738 1489 740
f 740 1489 1491
f 740 1491 743
f 743 1491 1494
f 743 1494 745
f 745 1494 1496
f 745 1496 699
f 699 1496 1450
f 699 1450 536
f 536 1450 1287
f 536 1287 486
f 486 1287 1237
f 486 1237 309
f 309 1237 1059
f 309 1059 310
f 310 1059 1061
f 310 1061 308
f 308 1061 1060
f 308 1060 312
f 312 1060 1063
f 312 1063 311
f 311 1063 1062
f 311 1062 314
f 314 1062 1065
f 314 1065 313
f 313 1065 1064
f 313 1064 564
f 564 1064 1315
f 564 1315 593
f 593 1315 1344
f 593 1344 616
f 616 1344 1367
f 616 1367 565
f 565 1367 1316
f 565 1316 513
f 513 1316 1264
f 513 1264 316
f 316 1264 1066
f 316 1066 317
f 317 1066 1068
f 317 1068 315
f 315 1068 1067
f 315 1067 319
f 319 1067 1070
f 319 1070 318
f 318 1070 1069
f 318 1069 321
f 321 1069 1072
f 321 1072 320
f 320 1072 1071
f 320 1071 323
f 323 1071 1074
f 323 1074 322
f 322 1074 1073
f 322 1073 325
f 325 1073 1076
f 325 1076 324
f 324 1076 1075
f 324 1075 327
f 327 1075 1078
f 327 1078 326
f 326 1078 1077
f 326 1077 594
f 594 1077 1345
f 594 1345 595
f 595 1345 1346
f 595 1346 537
f 537 1346 1288
f 537 1288 514
f 514 1288 1265
f 514 1265 487
f 487 1265 1238
f 487 1238 329
f 329 1238 1079
f 329 1079 330
f 330 1079 1081
f 330 1081 328
f 328 1081 1080
f 328 1080 332
f 332 1080 1083
f 332 1083 331
f 331 1083 1082
f 331 1082 334
f 334 1082 1085
f 334 1085 333
f 333 1085 1084
f 333 1084 336
f 336 1084 1087
f 336 1087 335
f 335 1087 1086
f 335 1086 488
f 488 1086 1239
f 488 1239 538
f 538 1239 1289
f 538 1289 566
f 566 1289 1317
f 566 1317 515
f 515 1317 1266
f 515 1266 338
f 338 1266 1088
f 338 1088 339
f 339 1088 1090
f 339 1090 337
f 337 1090 1089
f 337 1089 341
f 341 1089 1092
f 341 1092 340
f 340 1092 1091
f 340 1091 343
f 343 1091 1094
f 343 1094 342
f 342 1094 1093
f 342 1093 345
f 345 1093 1096
f 345 1096 344
f 344 1096 1095
f 344 1095 347
f 347 1095 1098
f 347 1098 346
f 346 1098 1097
f 346 1097 349
f 349 1097 1100
f 349 1100 348
f 348 1100 1099
f 348 1099 351
f 351 1099 1102
f 351 1102 350
f 350 1102 1101
f 350 1101 353
f 353 1101 1104
f 353 1104 352
f 352 1104 1103
f 352 1103 355
f 355 1103 1106
f 355 1106 354
f 354 1106 1105
f 354 1105 357
f 357 1105 1108
f 357 1108 356
f 356 1108 1107
f 356 1107 539
f 539 1107 1290
f 539 1290 540
f 540 1290 1291
f 540 1291 516
f 516 1291 1267
f 516 1267 489
f 489 1267 1240
f 489 1240 359
f 359 1240 1109
f 359 1109 360
f 360 1109 1111
f 360 1111 358
f 358 1111 1110
f 358 1110 362
f 362 1110 1113
f 362 1113 361
f 361 1113 1112
f 361 1112 490
f 490 1112 1241
f 490 1241 596
f 596 1241 1347
f 596 1347 638
f 638 1347 1389
f 638 1389 657
f 657 1389 1408
f 657 1408 668
f 668 1408 1419
f 668 1419 708
f 708 1419 1459
f 708 1459 715
f 715 1459 1466
f 715 1466 719
f 719 1466 1470
f 719 1470 735
f 735 1470 1486
f 735 1486 731
f 731 1486 1482
f 731 1482 727
f 727 1482 1478
f 727 1478 723
f 723 1478 1474
f 723 1474 720
f 720 1474 1471
f 720 1471 716
f 716 1471 1467
f 716 1467 709
f 709 1467 1460
f 709 1460 700
f 700 1460 1451
f 700 1451 689
f 689 1451 1440
f 689 1440 680
f 680 1440 1431
f 680 1431 669
f 669 1431 1420
f 669 1420 658
f 658 1420 1409
f 658 1409 639
f 639 1409 1390
f 639 1390 617
f 617 1390 1368
f 617 1368 567
f 567 1368 1318
f 567 1318 541
f 541 1318 1292
f 541 1292 364
f 364 1292 1114
f 364 1114 365
f 365 1114 1116
f 365 1116 363
f 363 1116 1115
f 363 1115 367
f 367 1115 1118
f 367 1118 366
f 366 1118 1117
f 366 1117 369
f 369 1117 1120
f 369 1120 368
f 368 1120 1119
f 368 1119 371
f 371 1119 1122
f 371 1122 370
f 370 1122 1121
f 370 1121 373
f 373 1121 1124
f 373 1124 372
f 372 1124 1123
f 372 1123 375
f 375 1123 1126
f 375 1126 374
f 374 1126 1125
f 374 1125 377
f 377 1125 1128
f 377 1128 376
f 376 1128 1127
f 376 1127 379
f 379 1127 1130
f 379 1130 378
f 378 1130 1129
f 378 1129 381
f 381 1129 1132
f 381 1132 380
f 380 1132 1131
f 380 1131 383
f 383 1131 1134
f 383 1134 382
f 382 1134 1133
f 382 1133 385
f 385 1133 1136
f 385 1136 384
f 384 1136 1135
f 384 1135 387
f 387 1135 1138
f 387 1138 386
f 386 1138 1137
f 386 1137 568
f 568 1137 1319
f 568 1319 640
f 640 1319 1391
f 640 1391 618
f 618 1391 1369
f 618 1369 569
f 569 1369 1320
f 569 1320 542
f 542 1320 1293
f 542 1293 491
f 491 1293 1242
f 491 1242 389
f 389 1242 1139
f 389 1139 390
f 390 1139 1141
f 390 1141 388
f 388 1141 1140
f 388 1140 392
f 392 1140 1143
f 392 1143 391
f 391 1143 1142
f 391 1142 394
f 394 1142 1145
f 394 1145 393
f 393 1145 1144
f 393 1144 396
f 396 1144 1147
f 396 1147 395
f 395 1147 1146
f 395 1146 398
f 398 1146 1149
f 398 1149 397
f 397 1149 1148
f 397 1148 400
f 400 1148 1151
f 400 1151 399
f 399 1151 1150
f 399 1150 402
f 402 1150 1153
f 402 1153 401
f 401 1153 1152
f 401 1152 404
f 404 1152 1155
f 404 1155 403
f 403 1155 1154
f 403 1154 406
f 406 1154 1157
f 406 1157 405
f 405 1157 1156
f 405 1156 517
f 517 1156 1268
f 517 1268 570
f 570 1268 1321
f 570 1321 670
f 670 1321 1421
f 670 1421 681
f 681 1421 1432
f 681 1432 690
f 690 1432 1441
f 690 1441 701
f 701 1441 1452
f 701 1452 710
f 710 1452 1461
f 710 1461 717
f 717 1461 1468
f 717 1468 721
f 721 1468 1472
f 721 1472 724
f 724 1472 1475
f 724 1475 728
f 728 1475 1479
f 728 1479 702
f 702 1479 1453
f 702 1453 659
f 659 1453 1410
f 659 1410 597
f 597 1410 1348
f 597 1348 571
f 571 1348 1322
f 571 1322 543
f 543 1322 1294
f 543 1294 492
f 492 1294 1243
f 492 1243 408
f 408 1243 1158
f 408 1158 409
f 409 1158 1160
f 409 1160 407
f 407 1160 1159
f 407 1159 411
f 411 1159 1162
f 411 1162 410
f 410 1162 1161
f 410 1161 413
f 413 1161 1164
f 413 1164 412
f 412 1164 1163
f 412 1163 619
f 619 1163 1370
f 619 1370 641
f 641 1370 1392
f 641 1392 671
f 671 1392 1422
f 671 1422 682
f 682 1422 1433
f 682 1433 691
f 691 1433 1442
f 691 1442 642
f 642 1442 1393
f 642 1393 620
f 620 1393 1371
f 620 1371 572
f 572 1371 1323
f 572 1323 544
f 544 1323 1295
f 544 1295 493
f 493 1295 1244
f 493 1244 415
f 415 1244 1165
f 415 1165 416
f 416 1165 1167
f 416 1167 414
f 414 1167 1166
f 414 1166 418
f 418 1166 1169
f 418 1169 417
f 417 1169 1168
f 417 1168 420
f 420 1168 1171
f 420 1171 419
f 419 1171 1170
f 419 1170 422
f 422 1170 1173
f 422 1173 421
f 421 1173 1172
f 421 1172 424
f 424 1172 1175
f 424 1175 423
f 423 1175 1174
f 423 1174 426
f 426 1174 1177
f 426 1177 425
f 425 1177 1176
f 425 1176 428
f 428 1176 1179
f 428 1179 427
f 427 1179 1178
f 427 1178 736
f 736 1178 1487
f 736 1487 732
f 732 1487 1483
f 732 1483 598
f 598 1483 1349
f 598 1349 573
f 573 1349 1324
f 573 1324 518
f 518 1324 1269
f 518 1269 430
f 430 1269 1180
f 430 1180 431
f 431 1180 1182
f 431 1182 429
f 429 1182 1181
f 429 1181 433
f 433 1181 1184
f 433 1184 432
f 432 1184 1183
f 432 1183 435
f 435 1183 1186
f 435 1186 434
f 434 1186 1185
f 434 1185 437
f 437 1185 1188
f 437 1188 436
f 436 1188 1187
f 436 1187 439
f 439 1187 1190
f 439 1190 438
f 438 1190 1189
f 438 1189 441
f 441 1189 1192
f 441 1192 440
f 440 1192 1191
f 440 1191 443
f 443 1191 1194
f 443 1194 442
f 442 1194 1193
f 442 1193 643
f 643 1193 1394
f 643 1394 545
f 545 1394 1296
f 545 1296 519
f 519 1296 1270
f 519 1270 494
f 494 1270 1245
f 494 1245 445
f 445 1245 1195
f 445 1195 446
f 446 1195 1197
f 446 1197 444
f 444 1197 1196
f 444 1196 574
f 574 1196 1325
f 574 1325 599
f 599 1325 1350
f 599 1350 621
f 621 1350 1372
f 621 1372 644
f 644 1372 1395
f 644 1395 660
f 660 1395 1411
f 660 1411 672
f 672 1411 1423
f 672 1423 683
f 683 1423 1434
f 683 1434 703
f 703 1434 1454
f 703 1454 692
f 692 1454 1443
f 692 1443 575
f 575 1443 1326
f 575 1326 520
f 520 1326 1271
f 520 1271 448
f 448 1271 1198
f 448 1198 449
f 449 1198 1200
f 449 1200 447
f 447 1200 1199
f 447 1199 451
f 451 1199 1202
f 451 1202 450
f 450 1202 1201
f 450 1201 453
f 453 1201 1204
f 453 1204 452
f 452 1204 1203
f 452 1203 455
f 455 1203 1206
f 455 1206 454
f 454 1206 1205
f 454 1205 457
f 457 1205 1208
f 457 1208 456
f 456 1208 1207
f 456 1207 459
f 459 1207 1210
f 459 1210 458
f 458 1210 1209
f 458 1209 600
f 600 1209 1351
f 600 1351 622
f 622 1351 1373
f 622 1373 645
f 645 1373 1396
f 645 1396 661
f 661 1396 1412
f 661 1412 673
f 673 1412 1424
f 673 1424 662
f 662 1424 1413
f 662 1413 646
f 646 1413 1397
f 646 1397 623
f 623 1397 1374
f 623 1374 576
f 576 1374 1327
f 576 1327 546
f 546 1327 1297
f 546 1297 495
f 495 1297 1246
f 495 1246 461
f 461 1246 1211
f 461 1211 462
f 462 1211 1213
f 462 1213 460
f 460 1213 1212
f 460 1212 464
f 464 1212 1215
f 464 1215 463
f 463 1215 1214
f 463 1214 466
f 466 1214 1217
f 466 1217 465
f 465 1217 1216
f 465 1216 468
f 468 1216 1219
f 468 1219 467
f 467 1219 1218
f 467 1218 470
f 470 1218 1221
f 470 1221 469
f 469 1221 1220
f 469 1220 471
f 471 1220 1222
f 471 1222 2
f 2 1222 752
f 2 752 3
f 3 752 754
f 3 754 1
f 1 754 753
