o 
v 72.125 0 -75.432
v 71.602 0 -76.441
v 71.75 0 -76.17
v 73.256 0 -72.585
v 72.634 0 -74.217
v 74.751 0 -68.312
v 73.969 0 -70.597
v 78.015 0 -61.49
v 77.64 0 -60.46
v 77.92 0 -61.25
v 78.299 0 -62.072
v 78.144 0 -61.77
v 78.646 0 -62.675
v 78.469 0 -62.38
v 71.1 0 -80.2
v 76.503 0 -80.362
v 75.32 0 -80.32
v 30.856 0 -80.783
v 31.07 0 -80.58
v 14.93 0 -81.12
v 25.22 0 -80.99
v 22.95 0 -80.84
v 12.088 0 -77.326
v 12.17 0 -78.91
v 12.139 0 -77.994
v 11.835 0 -76.368
v 11.995 0 -76.814
v 11.22 0 -75.31
v 11.585 0 -75.897
v 10.654 0 -74.472
v 10.915 0 -74.835
v 10.21 0 -74.028
v 10.422 0 -74.208
v 9.79 0 -73.87
v 10.003 0 -73.92
v 9.21 0 -80.9
v 9.21 0 -73.81
v 5.197 0 -80.903
v 6.38 0 -80.9
v 3.79 0 -80.984
v 4.368 0 -80.925
v 2.97 0 -81.288
v 3.359 0 -81.099
v 2.206 0 -81.786
v 2.52 0 -81.57
v 1.765 0 -82.158
v 1.954 0 -81.982
v 1.577 0 -82.443
v 1.639 0 -82.311
v 1.621 0 -82.643
v 1.58 0 -82.55
v 1.771 0 -83.276
v 1.707 0 -83.077
v 1.71 0 -83.17
v 2.402 0 -83.41
v 1.986 0 -83.354
v 4.027 0 -83.464
v 3.067 0 -83.446
v 8.93 0 -83.47
v 5.33 0 -83.47
v 11.95 0 -91.83
v 9.21 0 -89.09
v 9.21 0 -91.83
v 12.055 0 -87.384
v 12.04 0 -88.32
v 35.46 0 -84.44
v 20.817 0 -84.54
v 23.89 0 -84.52
v 41.29 0 -87.33
v 35.53 0 -85.87
v 35.59 0 -87.33
v 42.82 0 -85.721
v 42.49 0 -86.07
v 43.359 0 -85.103
v 43.113 0 -85.394
v 43.668 0 -84.677
v 43.547 0 -84.859
v 47.149 0 -86.641
v 47.494 0 -86.145
v 47.38 0 -86.3
v 46.63 0 -87.909
v 46.896 0 -87.189
v 46.111 0 -89.72
v 46.364 0 -88.764
v 45.814 0 -91.134
v 45.88 0 -90.74
v 45.739 0 -92.111
v 45.767 0 -91.595
v 45.74 0 -93.252
v 45.73 0 -92.668
v 45.92 0 -95.8
v 45.77 0 -93.85
v 48.232 0 -98.07
v 47.57 0 -97.43
v 49.22 0 -98.876
v 48.761 0 -98.537
v 50.181 0 -99.339
v 49.672 0 -99.129
v 51.401 0 -99.71
v 50.81 0 -99.55
v 52.526 0 -99.918
v 51.961 0 -99.831
v 53.828 0 -99.999
v 53.136 0 -99.972
v 55.565 0 -99.985
v 54.64 0 -100
v 56.842 0 -99.857
v 56.266 0 -99.944
v 58.02 0 -99.457
v 57.394 0 -99.702
v 59.551 0 -98.762
v 58.82 0 -99.1
v 60.525 0 -98.214
v 60.105 0 -98.477
v 61.139 0 -97.622
v 60.855 0 -97.939
v 61.819 0 -96.447
v 61.42 0 -97.23
v 62.518 0 -94.214
v 62.192 0 -95.414
v 62.943 0 -91.644
v 62.775 0 -92.929
v 63 0 -88.83
v 63 0 -90.44
v 65.45 0 -87.85
v 65.3 0 -88.83
v 65.51 0 -87.223
v 65.48 0 -87.55
v 65.557 0 -86.554
v 65.536 0 -86.885
v 65.57 0 -85.98
v 65.569 0 -86.246
v 98.43 0 -85.34
v 65.57 0 -85.12
v 81.99 0 -85.23
v 98.201 0 -79.549
v 98.28 0 -81.78
v 98.245 0 -80.724
v 98.099 0 -77.108
v 98.151 0 -78.321
v 98 0 -74.99
v 98.048 0 -75.976
v 96.91 0 -71.6
v 97.87 0 -71.73
v 96.165 0 -71.54
v 96.584 0 -71.57
v 95.151 0 -71.49
v 95.679 0 -71.512
v 94.08 0 -71.47
v 94.61 0 -71.475
v 85.74 0 -71.19
v 89.904 0 -71.362
v 88.98 0 -71.32
v 82.658 0 -64.885
v 83.34 0 -67.08
v 83.034 0 -65.99
v 81.712 0 -62.668
v 82.216 0 -63.775
v 80.53 0 -60.5
v 81.149 0 -61.574
v 92.691 0 -26.857
v 90.58 0 -30.9
v 91.703 0 -28.768
v 94.119 0 -23.986
v 93.507 0 -25.24
v 94.59 0 -22.85
v 94.492 0 -23.166
v 94.12 0 -22.665
v 94.44 0 -22.775
v 93.077 0 -22.362
v 93.656 0 -22.525
v 91.68 0 -21.99
v 92.409 0 -22.181
v 79.429 0 -9.741
v 79.193 0 -10.174
v 79.31 0 -9.97
v 79.721 0 -8.889
v 79.569 0 -9.371
v 80.031 0 -7.7
v 79.878 0 -8.323
v 80.337 0 -6.126
v 80.17 0 -7.05
v 80.512 0 -4.689
v 80.449 0 -5.364
v 80.508 0 -3.302
v 80.531 0 -4.026
v 80.25 0 -0.21
v 80.45 0 -2.44
v 68.19 0 -0.9
v 68.25 0 -0.21
v 68.297 0 -1.609
v 68.207 0 -1.189
v 68.703 0 -2.847
v 68.463 0 -2.161
v 69.41 0 -4.63
v 69.018 0 -3.67
v 59.437 0 -11.142
v 62.64 0 -11.68
v 60.956 0 -11.394
v 57.14 0 -10.775
v 58.144 0 -10.933
v 56.25 0 -10.65
v 56.488 0 -10.678
v 55.339 0 -15.415
v 55.994 0 -11.98
v 53.404 0 -25.622
v 54.429 0 -20.21
v 51.58 0 -35.32
v 52.407 0 -30.906
v 38.89 0 -11.12
v 40.39 0 -19.48
v 40.52 0 -15.39
v 37.912 0 -8.568
v 38.416 0 -9.881
v 36.921 0 -5.999
v 37.405 0 -7.251
v 36.13 0 -3.96
v 36.487 0 -4.879
v 35.296 0 -1.82
v 35.827 0 -3.182
v 35.545 0 -2.458
v 34.942 0 -0.925
v 35.091 0 -1.299
v 34.611 0 -0.554
v 34.86 0 -0.73
v 32.78 0 -0.295
v 33.944 0 -0.411
v 28.655 0 -0.116
v 31.043 0 -0.199
v 22.48 0 0
v 25.54 0 -0.04
v 22.952 0 -1.879
v 22.6 0 -0.75
v 24.542 0 -5.32
v 23.63 0 -3.461
v 26.712 0 -9.174
v 25.6 0 -7.283
v 28.955 0 -12.512
v 27.79 0 -10.82
v 31.97 0 -24.9
v 30.96 0 -20.25
v 31.11 0 -23.96
v 32.549 0 -25.454
v 32.278 0 -25.215
v 33.031 0 -25.739
v 32.796 0 -25.626
v 33.51 0 -25.82
v 33.265 0 -25.801
v 34.889 0 -28.168
v 34.742 0 -26.952
v 34.82 0 -27.65
v 35.15 0 -29.656
v 35.002 0 -28.851
v 35.517 0 -31.455
v 35.324 0 -30.539
v 36.053 0 -33.695
v 35.72 0 -32.36
v 36.772 0 -35.91
v 36.377 0 -34.812
v 38.098 0 -38.845
v 37.319 0 -37.188
v 39.305 0 -47.373
v 40.71 0 -46.96
v 39.926 0 -47.176
v 38.018 0 -47.947
v 38.714 0 -47.61
v 35.78 0 -49.16
v 37.085 0 -48.444
v 33.617 0 -50.419
v 34.56 0 -49.842
v 31.886 0 -51.804
v 32.783 0 -51.028
v 29.23 0 -54.41
v 30.758 0 -52.886
v 27.066 0 -56.653
v 28.093 0 -55.572
v 25.368 0 -58.554
v 26.155 0 -57.649
v 24.19 0 -60.07
v 24.711 0 -59.363
v 22.327 0 -62.764
v 23.313 0 -61.339
v 22.82 0 -62.051
v 21.45 0 -64.04
v 21.861 0 -63.44
v 18.72 0 -69.027
v 20.102 0 -66.275
v 21.067 0 -71.213
v 17.415 0 -72.025
v 41.788 0 -50.044
v 42.75 0 -49.42
v 42.15 0 -49.78
v 41.458 0 -50.702
v 41.558 0 -50.342
v 41.627 0 -51.715
v 41.482 0 -51.151
v 42.479 0 -53.671
v 41.89 0 -52.42
v 43.722 0 -55.472
v 43.089 0 -54.688
v 45.079 0 -56.36
v 44.385 0 -56.029
v 46.122 0 -56.478
v 45.81 0 -56.47
v 34.07 0 -66.26
v 39.66 0 -68.07
v 36.53 0 -66.37
v 32.318 0 -66.226
v 33.052 0 -66.227
v 31.332 0 -66.367
v 31.775 0 -66.269
v 30.38 0 -66.78
v 30.898 0 -66.534
v 28.435 0 -65.591
v 28.656 0 -66.611
v 28.61 0 -66.33
v 27.618 0 -65.368
v 28.127 0 -65.258
v 25.726 0 -67.057
v 26.84 0 -65.955
v 23.438 0 -69.557
v 24.21 0 -68.71
v 21.071 0 -71.494
v 15.475 0 -77.669
v 16.297 0 -74.996
v 23.4 0 -79.96
v 42.04 0 -80.05
v 31.56 0 -80.05
v 75.58 0 -65.79
v 78.82 0 -62.94
v 77.676 0 -80.399
v 30.641 0 -80.929
v 25.873 0 -81.024
v 12.25 0 -81.12
v 1.654 0 -82.749
v 1.696 0 -82.971
v 9.205 0 -88.316
v 43.71 0 -84.57
v 93.468 0 -71.465
v 83.501 0 -67.646
v 87.26 0 -37.213
v 69.903 0 -5.8
v 40.26 0 -23.57
v 30.841 0 -18.12
v 33.954 0 -25.843
v 23.779 0 -60.666
v 21.077 0 -70.88
v 40.496 0 -68.515
v 30.041 0 -66.944
v 21.09 0 -71.711
v 15.06 0 -79.77
v 24.102 0 -78.758
v 26.568 0 -81.055
v 1.679 0 -82.86
v 9.191 0 -87.52
v 47.593 0 -85.964
v 64.329 0 -11.961
v 30.649 0 -16.485
v 39.19 0 -41.08
v 41.89 0 -46.61
v 41.272 0 -68.917
v 28.711 0 -66.865
v 22.733 0 -70.319
v 21.122 0 -71.851
v 24.971 0 -77.552
v 41.46 0 -79.02
v 71.476 0 -76.749
v 79.515 0 -64.075
v 78.783 0 -80.429
v 27.267 0 -81.081
v 9.169 0 -86.741
v 83.671 0 -68.141
v 84.567 0 -42.46
v 89.361 0 -21.345
v 79.083 0 -10.449
v 21.1 0 -70.51
v 41.955 0 -69.26
v 29.725 0 -67.092
v 28.772 0 -67.083
v 22.124 0 -70.965
v 21.17 0 -71.9
v 25.952 0 -76.401
v 40.741 0 -77.95
v 75.962 0 -64.634
v 79.767 0 -80.451
v 27.936 0 -81.102
v 9.139 0 -86.02
v 43.77 0 -84.5
v 47.675 0 -85.761
v 92.696 0 -71.451
v 80.227 0 -59.985
v 78.981 0 -10.784
v 70.256 0 -6.7
v 65.88 0 -12.215
v 30.316 0 -15.141
v 34.643 0 -26.456
v 21.164 0 -70.014
v 46.358 0 -56.507
v 42.511 0 -69.526
v 29.444 0 -67.217
v 28.835 0 -67.251
v 21.64 0 -71.464
v 26.993 0 -75.364
v 39.862 0 -76.946
v 76.329 0 -63.558
v 80.575 0 -80.465
v 28.535 0 -81.115
v 9.102 0 -85.397
v 43.948 0 -84.441
v 47.737 0 -85.543
v 91.811 0 -71.429
v 79.928 0 -59.449
v 82.452 0 -46.744
v 67.228 0 -12.433
v 45.32 0 -30.97
v 34.274 0 -25.934
v 21.253 0 -69.563
v 46.53 0 -56.563
v 42.907 0 -69.699
v 29.212 0 -67.315
v 28.896 0 -67.361
v 21.313 0 -71.786
v 38.849 0 -76.029
v 76.664 0 -62.607
v 81.15 0 -80.47
v 29.03 0 -81.12
v 9.06 0 -84.91
v 44.239 0 -84.394
v 90.864 0 -71.399
v 79.645 0 -58.919
v 80.866 0 -50.167
v 78.891 0 -11.168
v 68.303 0 -12.601
v 46.674 0 -32.941
v 34.495 0 -26.128
v 21.371 0 -69.137
v 46.652 0 -56.649
v 28.037 0 -74.501
v 37.728 0 -75.221
v 82.72 0 -80.47
v 44.639 0 -84.359
v 47.776 0 -85.314
v 83.866 0 -68.591
v 79.758 0 -52.831
v 78.813 0 -11.59
v 69.04 0 -12.711
v 47.911 0 -34.734
v 21.527 0 -68.717
v 46.738 0 -56.773
v 43.11 0 -69.76
v 28.95 0 -67.4
v 36.526 0 -74.544
v 30.388 0 -81.026
v 29.619 0 -81.113
v 47.79 0 -85.08
v 79.392 0 -58.421
v 79.08 0 -54.84
v 78.75 0 -12.04
v 69.37 0 -12.75
v 48.98 0 -36.275
v 21.728 0 -68.281
v 29.043 0 -67.378
v 29.03 0 -73.87
v 35.27 0 -74.02
v 30.059 0 -81.084
v 12.08 0 -86.533
v 45.144 0 -84.337
v 47.79 0 -84.33
v 79.183 0 -57.982
v 87.201 0 -20.6
v 78.704 0 -12.649
v 69.678 0 -12.59
v 49.829 0 -37.489
v 21.98 0 -67.81
v 29.805 0 -73.58
v 34.12 0 -73.685
v 12.11 0 -85.801
v 45.75 0 -84.33
v 78.6 0 -56.54
v 78.693 0 -13.118
v 51.348 0 -36.548
v 50.406 0 -38.302
v 22.998 0 -66.236
v 32.952 0 -73.472
v 12.144 0 -85.227
v 85.23 0 -19.768
v 78.73 0 -13.507
v 51.157 0 -37.463
v 50.66 0 -38.64
v 24.538 0 -64.137
v 43.289 0 -69.74
v 71.19 0 -78.54
v 12.178 0 -84.848
v 83.476 0 -18.86
v 78.827 0 -13.879
v 51 0 -38.097
v 29.774 0 -13.885
v 26.379 0 -61.785
v 30.748 0 -73.418
v 71.23 0 -77.99
v 12.21 0 -84.7
v 81.966 0 -17.89
v 78.996 0 -14.292
v 50.87 0 -38.484
v 28.302 0 -59.453
v 31.813 0 -73.382
v 71.291 0 -77.514
v 12.654 0 -84.668
v 80.73 0 -16.87
v 79.25 0 -14.81
v 50.759 0 -38.654
v 30.089 0 -57.414
v 71.372 0 -77.104
v 80.49 0 -16.609
v 79.457 0 -15.171
v 31.52 0 -55.94
v 13.849 0 -84.633
v 80.229 0 -16.289
v 79.698 0 -15.551
v 43.46 0 -69.544
v 15.684 0 -84.599
v 79.96 0 -15.93
v 43.69 0 -68.966
v 18.044 0 -84.567
v 70.493 0 -7.401
v 33.366 0 -54.356
v 44.047 0 -67.803
v 70.634 0 -7.977
v 35.39 0 -52.841
v 44.598 0 -65.849
v 37.434 0 -51.491
v 45.41 0 -62.9
v 70.702 0 -8.499
v 39.34 0 -50.406
v 45.83 0 -61.34
v 70.72 0 -9.04
v 40.951 0 -49.683
v 46.184 0 -59.964
v 70.662 0 -9.888
v 42.11 0 -49.42
v 46.465 0 -58.803
v 82.72 0 -76.98
v 70.503 0 -10.735
v 46.666 0 -57.89
v 82.71 0 -75.743
v 70.27 0 -11.514
v 46.78 0 -57.258
v 82.68 0 -74.698
v 69.987 0 -12.155
v 46.8 0 -56.94
v 82.625 0 -73.798
v 82.544 0 -72.992
v 82.433 0 -72.232
v 79.03 0 -57.63
v 76.951 0 -61.829
v 82.29 0 -71.47
v 77.175 0 -61.267
v 81.907 0 -69.952
v 77.32 0 -60.97
v 81.415 0 -68.396
v 80.836 0 -66.86
v 80.195 0 -65.4
v 84.099 0 -69.022
v 84.382 0 -69.46
v 84.73 0 -69.93
v 71.602 10 -76.441
v 72.125 10 -75.432
v 71.75 10 -76.17
v 73.256 10 -72.585
v 72.634 10 -74.217
v 74.751 10 -68.312
v 73.969 10 -70.597
v 77.64 10 -60.46
v 78.015 10 -61.49
v 77.92 10 -61.25
v 78.299 10 -62.072
v 78.144 10 -61.77
v 78.646 10 -62.675
v 78.469 10 -62.38
v 76.503 10 -80.362
v 71.1 10 -80.2
v 75.32 10 -80.32
v 30.856 10 -80.783
v 31.07 10 -80.58
v 25.22 10 -80.99
v 14.93 10 -81.12
v 22.95 10 -80.84
v 12.17 10 -78.91
v 12.088 10 -77.326
v 12.139 10 -77.994
v 11.835 10 -76.368
v 11.995 10 -76.814
v 11.22 10 -75.31
v 11.585 10 -75.897
v 10.654 10 -74.472
v 10.915 10 -74.835
v 10.21 10 -74.028
v 10.422 10 -74.208
v 9.79 10 -73.87
v 10.003 10 -73.92
v 9.21 10 -80.9
v 9.21 10 -73.81
v 5.197 10 -80.903
v 6.38 10 -80.9
v 3.79 10 -80.984
v 4.368 10 -80.925
v 2.97 10 -81.288
v 3.359 10 -81.099
v 2.206 10 -81.786
v 2.52 10 -81.57
v 1.765 10 -82.158
v 1.954 10 -81.982
v 1.577 10 -82.443
v 1.639 10 -82.311
v 1.621 10 -82.643
v 1.58 10 -82.55
v 1.707 10 -83.077
v 1.771 10 -83.276
v 1.71 10 -83.17
v 2.402 10 -83.41
v 1.986 10 -83.354
v 4.027 10 -83.464
v 3.067 10 -83.446
v 8.93 10 -83.47
v 5.33 10 -83.47
v 9.21 10 -89.09
v 11.95 10 -91.83
v 9.21 10 -91.83
v 12.055 10 -87.384
v 12.04 10 -88.32
v 20.817 10 -84.54
v 35.46 10 -84.44
v 23.89 10 -84.52
v 35.53 10 -85.87
v 41.29 10 -87.33
v 35.59 10 -87.33
v 42.82 10 -85.721
v 42.49 10 -86.07
v 43.359 10 -85.103
v 43.113 10 -85.394
v 43.668 10 -84.677
v 43.547 10 -84.859
v 47.494 10 -86.145
v 47.149 10 -86.641
v 47.38 10 -86.3
v 46.63 10 -87.909
v 46.896 10 -87.189
v 46.111 10 -89.72
v 46.364 10 -88.764
v 45.814 10 -91.134
v 45.88 10 -90.74
v 45.739 10 -92.111
v 45.767 10 -91.595
v 45.74 10 -93.252
v 45.73 10 -92.668
v 45.92 10 -95.8
v 45.77 10 -93.85
v 48.232 10 -98.07
v 47.57 10 -97.43
v 49.22 10 -98.876
v 48.761 10 -98.537
v 50.181 10 -99.339
v 49.672 10 -99.129
v 51.401 10 -99.71
v 50.81 10 -99.55
v 52.526 10 -99.918
v 51.961 10 -99.831
v 53.828 10 -99.999
v 53.136 10 -99.972
v 55.565 10 -99.985
v 54.64 10 -100
v 56.842 10 -99.857
v 56.266 10 -99.944
v 58.02 10 -99.457
v 57.394 10 -99.702
v 59.551 10 -98.762
v 58.82 10 -99.1
v 60.525 10 -98.214
v 60.105 10 -98.477
v 61.139 10 -97.622
v 60.855 10 -97.939
v 61.819 10 -96.447
v 61.42 10 -97.23
v 62.518 10 -94.214
v 62.192 10 -95.414
v 62.943 10 -91.644
v 62.775 10 -92.929
v 63 10 -88.83
v 63 10 -90.44
v 65.45 10 -87.85
v 65.3 10 -88.83
v 65.51 10 -87.223
v 65.48 10 -87.55
v 65.557 10 -86.554
v 65.536 10 -86.885
v 65.57 10 -85.98
v 65.569 10 -86.246
v 65.57 10 -85.12
v 98.43 10 -85.34
v 81.99 10 -85.23
v 98.28 10 -81.78
v 98.201 10 -79.549
v 98.245 10 -80.724
v 98.099 10 -77.108
v 98.151 10 -78.321
v 98 10 -74.99
v 98.048 10 -75.976
v 96.91 10 -71.6
v 97.87 10 -71.73
v 96.165 10 -71.54
v 96.584 10 -71.57
v 95.151 10 -71.49
v 95.679 10 -71.512
v 94.08 10 -71.47
v 94.61 10 -71.475
v 89.904 10 -71.362
v 85.74 10 -71.19
v 88.98 10 -71.32
v 83.34 10 -67.08
v 82.658 10 -64.885
v 83.034 10 -65.99
v 81.712 10 -62.668
v 82.216 10 -63.775
v 80.53 10 -60.5
v 81.149 10 -61.574
v 90.58 10 -30.9
v 92.691 10 -26.857
v 91.703 10 -28.768
v 94.119 10 -23.986
v 93.507 10 -25.24
v 94.59 10 -22.85
v 94.492 10 -23.166
v 94.12 10 -22.665
v 94.44 10 -22.775
v 93.077 10 -22.362
v 93.656 10 -22.525
v 91.68 10 -21.99
v 92.409 10 -22.181
v 79.193 10 -10.174
v 79.429 10 -9.741
v 79.31 10 -9.97
v 79.721 10 -8.889
v 79.569 10 -9.371
v 80.031 10 -7.7
v 79.878 10 -8.323
v 80.337 10 -6.126
v 80.17 10 -7.05
v 80.512 10 -4.689
v 80.449 10 -5.364
v 80.508 10 -3.302
v 80.531 10 -4.026
v 80.25 10 -0.21
v 80.45 10 -2.44
v 68.19 10 -0.9
v 68.25 10 -0.21
v 68.297 10 -1.609
v 68.207 10 -1.189
v 68.703 10 -2.847
v 68.463 10 -2.161
v 69.41 10 -4.63
v 69.018 10 -3.67
v 62.64 10 -11.68
v 59.437 10 -11.142
v 60.956 10 -11.394
v 57.14 10 -10.775
v 58.144 10 -10.933
v 56.25 10 -10.65
v 56.488 10 -10.678
v 55.339 10 -15.415
v 55.994 10 -11.98
v 53.404 10 -25.622
v 54.429 10 -20.21
v 51.58 10 -35.32
v 52.407 10 -30.906
v 40.39 10 -19.48
v 38.89 10 -11.12
v 40.52 10 -15.39
v 37.912 10 -8.568
v 38.416 10 -9.881
v 36.921 10 -5.999
v 37.405 10 -7.251
v 36.13 10 -3.96
v 36.487 10 -4.879
v 35.827 10 -3.182
v 35.296 10 -1.82
v 35.545 10 -2.458
v 34.942 10 -0.925
v 35.091 10 -1.299
v 34.611 10 -0.554
v 34.86 10 -0.73
v 32.78 10 -0.295
v 33.944 10 -0.411
v 28.655 10 -0.116
v 31.043 10 -0.199
v 22.48 10 0
v 25.54 10 -0.04
v 22.952 10 -1.879
v 22.6 10 -0.75
v 24.542 10 -5.32
v 23.63 10 -3.461
v 26.712 10 -9.174
v 25.6 10 -7.283
v 28.955 10 -12.512
v 27.79 10 -10.82
v 30.96 10 -20.25
v 31.97 10 -24.9
v 31.11 10 -23.96
v 32.549 10 -25.454
v 32.278 10 -25.215
v 33.031 10 -25.739
v 32.796 10 -25.626
v 33.51 10 -25.82
v 33.265 10 -25.801
v 34.742 10 -26.952
v 34.889 10 -28.168
v 34.82 10 -27.65
v 35.15 10 -29.656
v 35.002 10 -28.851
v 35.517 10 -31.455
v 35.324 10 -30.539
v 36.053 10 -33.695
v 35.72 10 -32.36
v 36.772 10 -35.91
v 36.377 10 -34.812
v 38.098 10 -38.845
v 37.319 10 -37.188
v 40.71 10 -46.96
v 39.305 10 -47.373
v 39.926 10 -47.176
v 38.018 10 -47.947
v 38.714 10 -47.61
v 35.78 10 -49.16
v 37.085 10 -48.444
v 33.617 10 -50.419
v 34.56 10 -49.842
v 31.886 10 -51.804
v 32.783 10 -51.028
v 29.23 10 -54.41
v 30.758 10 -52.886
v 27.066 10 -56.653
v 28.093 10 -55.572
v 25.368 10 -58.554
v 26.155 10 -57.649
v 24.19 10 -60.07
v 24.711 10 -59.363
v 23.313 10 -61.339
v 22.327 10 -62.764
v 22.82 10 -62.051
v 21.45 10 -64.04
v 21.861 10 -63.44
v 18.72 10 -69.027
v 20.102 10 -66.275
v 21.067 10 -71.213
v 17.415 10 -72.025
v 42.75 10 -49.42
v 41.788 10 -50.044
v 42.15 10 -49.78
v 41.458 10 -50.702
v 41.558 10 -50.342
v 41.627 10 -51.715
v 41.482 10 -51.151
v 42.479 10 -53.671
v 41.89 10 -52.42
v 43.722 10 -55.472
v 43.089 10 -54.688
v 45.079 10 -56.36
v 44.385 10 -56.029
v 46.122 10 -56.478
v 45.81 10 -56.47
v 39.66 10 -68.07
v 34.07 10 -66.26
v 36.53 10 -66.37
v 32.318 10 -66.226
v 33.052 10 -66.227
v 31.332 10 -66.367
v 31.775 10 -66.269
v 30.38 10 -66.78
v 30.898 10 -66.534
v 28.656 10 -66.611
v 28.435 10 -65.591
v 28.61 10 -66.33
v 27.618 10 -65.368
v 28.127 10 -65.258
v 25.726 10 -67.057
v 26.84 10 -65.955
v 23.438 10 -69.557
v 24.21 10 -68.71
v 21.071 10 -71.494
v 15.475 10 -77.669
v 16.297 10 -74.996
v 23.4 10 -79.96
v 42.04 10 -80.05
v 31.56 10 -80.05
v 75.58 10 -65.79
v 78.82 10 -62.94
v 77.676 10 -80.399
v 30.641 10 -80.929
v 25.873 10 -81.024
v 12.25 10 -81.12
v 1.654 10 -82.749
v 1.696 10 -82.971
v 9.205 10 -88.316
v 43.71 10 -84.57
v 93.468 10 -71.465
v 83.501 10 -67.646
v 87.26 10 -37.213
v 69.903 10 -5.8
v 40.26 10 -23.57
v 30.841 10 -18.12
v 33.954 10 -25.843
v 23.779 10 -60.666
v 21.077 10 -70.88
v 40.496 10 -68.515
v 30.041 10 -66.944
v 21.09 10 -71.711
v 15.06 10 -79.77
v 24.102 10 -78.758
v 26.568 10 -81.055
v 1.679 10 -82.86
v 9.191 10 -87.52
v 47.593 10 -85.964
v 64.329 10 -11.961
v 30.649 10 -16.485
v 39.19 10 -41.08
v 41.89 10 -46.61
v 41.272 10 -68.917
v 28.711 10 -66.865
v 22.733 10 -70.319
v 21.122 10 -71.851
v 24.971 10 -77.552
v 41.46 10 -79.02
v 71.476 10 -76.749
v 79.515 10 -64.075
v 78.783 10 -80.429
v 27.267 10 -81.081
v 9.169 10 -86.741
v 83.671 10 -68.141
v 84.567 10 -42.46
v 89.361 10 -21.345
v 79.083 10 -10.449
v 21.1 10 -70.51
v 41.955 10 -69.26
v 29.725 10 -67.092
v 28.772 10 -67.083
v 22.124 10 -70.965
v 21.17 10 -71.9
v 25.952 10 -76.401
v 40.741 10 -77.95
v 75.962 10 -64.634
v 79.767 10 -80.451
v 27.936 10 -81.102
v 9.139 10 -86.02
v 43.77 10 -84.5
v 47.675 10 -85.761
v 92.696 10 -71.451
v 80.227 10 -59.985
v 78.981 10 -10.784
v 70.256 10 -6.7
v 65.88 10 -12.215
v 30.316 10 -15.141
v 34.643 10 -26.456
v 21.164 10 -70.014
v 46.358 10 -56.507
v 42.511 10 -69.526
v 29.444 10 -67.217
v 28.835 10 -67.251
v 21.64 10 -71.464
v 26.993 10 -75.364
v 39.862 10 -76.946
v 76.329 10 -63.558
v 80.575 10 -80.465
v 28.535 10 -81.115
v 9.102 10 -85.397
v 43.948 10 -84.441
v 47.737 10 -85.543
v 91.811 10 -71.429
v 79.928 10 -59.449
v 82.452 10 -46.744
v 67.228 10 -12.433
v 45.32 10 -30.97
v 34.274 10 -25.934
v 21.253 10 -69.563
v 46.53 10 -56.563
v 42.907 10 -69.699
v 29.212 10 -67.315
v 28.896 10 -67.361
v 21.313 10 -71.786
v 38.849 10 -76.029
v 76.664 10 -62.607
v 81.15 10 -80.47
v 29.03 10 -81.12
v 9.06 10 -84.91
v 44.239 10 -84.394
v 90.864 10 -71.399
v 79.645 10 -58.919
v 80.866 10 -50.167
v 78.891 10 -11.168
v 68.303 10 -12.601
v 46.674 10 -32.941
v 34.495 10 -26.128
v 21.371 10 -69.137
v 46.652 10 -56.649
v 28.037 10 -74.501
v 37.728 10 -75.221
v 82.72 10 -80.47
v 44.639 10 -84.359
v 47.776 10 -85.314
v 83.866 10 -68.591
v 79.758 10 -52.831
v 78.813 10 -11.59
v 69.04 10 -12.711
v 47.911 10 -34.734
v 21.527 10 -68.717
v 46.738 10 -56.773
v 43.11 10 -69.76
v 28.95 10 -67.4
v 36.526 10 -74.544
v 30.388 10 -81.026
v 29.619 10 -81.113
v 47.79 10 -85.08
v 79.392 10 -58.421
v 79.08 10 -54.84
v 78.75 10 -12.04
v 69.37 10 -12.75
v 48.98 10 -36.275
v 21.728 10 -68.281
v 29.043 10 -67.378
v 29.03 10 -73.87
v 35.27 10 -74.02
v 30.059 10 -81.084
v 12.08 10 -86.533
v 45.144 10 -84.337
v 47.79 10 -84.33
v 79.183 10 -57.982
v 87.201 10 -20.6
v 78.704 10 -12.649
v 69.678 10 -12.59
v 49.829 10 -37.489
v 21.98 10 -67.81
v 29.805 10 -73.58
v 34.12 10 -73.685
v 12.11 10 -85.801
v 45.75 10 -84.33
v 78.6 10 -56.54
v 78.693 10 -13.118
v 51.348 10 -36.548
v 50.406 10 -38.302
v 22.998 10 -66.236
v 32.952 10 -73.472
v 12.144 10 -85.227
v 85.23 10 -19.768
v 78.73 10 -13.507
v 51.157 10 -37.463
v 50.66 10 -38.64
v 24.538 10 -64.137
v 43.289 10 -69.74
v 71.19 10 -78.54
v 12.178 10 -84.848
v 83.476 10 -18.86
v 78.827 10 -13.879
v 51 10 -38.097
v 29.774 10 -13.885
v 26.379 10 -61.785
v 30.748 10 -73.418
v 71.23 10 -77.99
v 12.21 10 -84.7
v 81.966 10 -17.89
v 78.996 10 -14.292
v 50.87 10 -38.484
v 28.302 10 -59.453
v 31.813 10 -73.382
v 71.291 10 -77.514
v 12.654 10 -84.668
v 80.73 10 -16.87
v 79.25 10 -14.81
v 50.759 10 -38.654
v 30.089 10 -57.414
v 71.372 10 -77.104
v 80.49 10 -16.609
v 79.457 10 -15.171
v 31.52 10 -55.94
v 13.849 10 -84.633
v 80.229 10 -16.289
v 79.698 10 -15.551
v 43.46 10 -69.544
v 15.684 10 -84.599
v 79.96 10 -15.93
v 43.69 10 -68.966
v 18.044 10 -84.567
v 70.493 10 -7.401
v 33.366 10 -54.356
v 44.047 10 -67.803
v 70.634 10 -7.977
v 35.39 10 -52.841
v 44.598 10 -65.849
v 37.434 10 -51.491
v 45.41 10 -62.9
v 70.702 10 -8.499
v 39.34 10 -50.406
v 45.83 10 -61.34
v 70.72 10 -9.04
v 40.951 10 -49.683
v 46.184 10 -59.964
v 70.662 10 -9.888
v 42.11 10 -49.42
v 46.465 10 -58.803
v 82.72 10 -76.98
v 70.503 10 -10.735
v 46.666 10 -57.89
v 82.71 10 -75.743
v 70.27 10 -11.514
v 46.78 10 -57.258
v 82.68 10 -74.698
v 69.987 10 -12.155
v 46.8 10 -56.94
v 82.625 10 -73.798
v 82.544 10 -72.992
v 82.433 10 -72.232
v 79.03 10 -57.63
v 76.951 10 -61.829
v 82.29 10 -71.47
v 77.175 10 -61.267
v 81.907 10 -69.952
v 77.32 10 -60.97
v 81.415 10 -68.396
v 80.836 10 -66.86
v 80.195 10 -65.4
v 84.099 10 -69.022
v 84.382 10 -69.46
v 84.73 10 -69.93
f 1 2 3
f 4 1 5
f 6 4 7
f 8 9 10
f 11 8 12
f 13 11 14
f 15 16 17
f 18 15 19
f 20 21 22
f 23 24 25
f 26 23 27
f 28 26 29
f 30 28 31
f 32 30 33
f 34 32 35
f 36 34 37
f 38 36 39
f 40 38 41
f 42 40 43
f 44 42 45
f 46 44 47
f 48 46 49
f 50 48 51
f 52 53 54
f 55 52 56
f 57 55 58
f 59 57 60
f 61 62 63
f 64 61 65
f 66 67 68
f 69 70 71
f 72 69 73
f 74 72 75
f 76 74 77
f 78 79 80
f 81 78 82
f 83 81 84
f 85 83 86
f 87 85 88
f 89 87 90
f 91 89 92
f 93 91 94
f 95 93 96
f 97 95 98
f 99 97 100
f 101 99 102
f 103 101 104
f 105 103 106
f 107 105 108
f 109 107 110
f 111 109 112
f 113 111 114
f 115 113 116
f 117 115 118
f 119 117 120
f 121 119 122
f 123 121 124
f 125 123 126
f 127 125 128
f 129 127 130
f 131 129 132
f 133 134 135
f 136 137 138
f 139 136 140
f 141 139 142
f 143 141 144
f 145 143 146
f 147 145 148
f 149 147 150
f 151 152 153
f 154 155 156
f 157 154 158
f 159 157 160
f 161 162 163
f 164 161 165
f 166 164 167
f 168 166 169
f 170 168 171
f 172 170 173
f 174 175 176
f 177 174 178
f 179 177 180
f 181 179 182
f 183 181 184
f 185 183 186
f 187 185 188
f 189 187 190
f 191 189 192
f 193 191 194
f 195 193 196
f 197 198 199
f 200 197 201
f 202 200 203
f 204 202 205
f 206 204 207
f 208 206 209
f 210 211 212
f 213 210 214
f 215 213 216
f 217 215 218
f 219 220 221
f 222 219 223
f 224 222 225
f 226 224 227
f 228 226 229
f 230 228 231
f 232 230 233
f 234 232 235
f 236 234 237
f 238 236 239
f 240 241 242
f 243 240 244
f 245 243 246
f 247 245 248
f 249 250 251
f 252 249 253
f 254 252 255
f 256 254 257
f 258 256 259
f 260 258 261
f 262 263 264
f 265 262 266
f 267 265 268
f 269 267 270
f 271 269 272
f 273 271 274
f 275 273 276
f 277 275 278
f 279 277 280
f 281 282 283
f 284 281 285
f 286 284 287
f 288 286 289
f 290 291 292
f 293 290 294
f 295 293 296
f 297 295 298
f 299 297 300
f 301 299 302
f 303 301 304
f 305 306 307
f 308 305 309
f 310 308 311
f 312 310 313
f 314 315 316
f 317 314 318
f 319 317 320
f 321 319 322
f 289 323 288
f 324 289 325
f 326 20 22
f 19 327 328
f 4 2 1
f 329 4 6
f 11 9 8
f 330 11 13
f 15 331 16
f 332 15 18
f 20 333 21
f 23 334 24
f 28 23 26
f 32 28 30
f 36 32 34
f 40 36 38
f 44 40 42
f 48 44 46
f 335 48 50
f 52 336 53
f 57 52 55
f 61 337 62
f 69 66 70
f 74 69 72
f 338 74 76
f 81 79 78
f 85 81 83
f 89 85 87
f 93 89 91
f 97 93 95
f 101 97 99
f 105 101 103
f 109 105 107
f 113 109 111
f 117 113 115
f 121 117 119
f 127 123 125
f 131 127 129
f 137 134 133
f 139 137 136
f 143 139 141
f 147 143 145
f 339 147 149
f 154 340 155
f 159 154 157
f 161 341 162
f 166 161 164
f 170 166 168
f 177 175 174
f 181 177 179
f 185 181 183
f 189 185 187
f 193 189 191
f 342 193 195
f 200 198 197
f 204 200 202
f 208 204 206
f 210 343 211
f 215 210 213
f 220 215 217
f 222 220 219
f 226 222 224
f 230 226 228
f 234 230 232
f 238 234 236
f 240 344 241
f 245 240 243
f 345 245 247
f 252 250 249
f 256 252 254
f 260 256 258
f 265 263 262
f 269 265 267
f 273 269 271
f 277 273 275
f 346 277 279
f 284 282 281
f 347 286 288
f 293 291 290
f 297 293 295
f 301 297 299
f 305 348 306
f 310 305 308
f 349 310 312
f 317 315 314
f 321 317 319
f 289 350 323
f 351 289 324
f 352 20 326
f 15 327 19
f 329 2 4
f 330 9 11
f 332 331 15
f 20 353 333
f 28 334 23
f 36 28 32
f 44 36 40
f 335 44 48
f 52 354 336
f 59 52 57
f 61 355 337
f 74 66 69
f 81 356 79
f 89 81 85
f 97 89 93
f 105 97 101
f 113 105 109
f 121 113 117
f 131 123 127
f 139 134 137
f 147 139 143
f 159 340 154
f 166 341 161
f 172 166 170
f 181 175 177
f 189 181 185
f 342 189 193
f 200 357 198
f 208 200 204
f 215 343 210
f 222 215 220
f 230 222 226
f 238 230 234
f 240 358 344
f 345 240 245
f 256 250 252
f 359 256 260
f 265 360 263
f 273 265 269
f 346 273 277
f 284 346 282
f 347 284 286
f 297 291 293
f 303 297 301
f 305 361 348
f 349 305 310
f 317 362 315
f 363 317 321
f 289 364 350
f 365 20 352
f 15 366 327
f 329 367 2
f 368 9 330
f 332 369 331
f 20 370 353
f 36 334 28
f 335 36 44
f 59 354 52
f 61 371 355
f 338 66 74
f 89 356 81
f 105 89 97
f 121 105 113
f 134 123 131
f 339 139 147
f 159 372 340
f 166 373 341
f 374 166 172
f 181 375 175
f 342 181 189
f 208 357 200
f 222 343 215
f 238 222 230
f 345 358 240
f 359 250 256
f 273 360 265
f 284 273 346
f 376 284 347
f 303 291 297
f 305 377 361
f 378 305 349
f 317 379 362
f 380 317 363
f 289 381 364
f 382 20 365
f 15 383 366
f 384 367 329
f 332 385 369
f 20 386 370
f 335 334 36
f 59 335 354
f 61 387 371
f 388 66 338
f 89 389 356
f 121 89 105
f 390 139 339
f 391 372 159
f 374 373 166
f 181 392 375
f 393 181 342
f 208 394 357
f 238 343 222
f 345 395 358
f 359 396 250
f 284 360 273
f 397 284 376
f 398 291 303
f 305 399 377
f 400 305 378
f 317 401 379
f 402 317 380
f 351 381 289
f 403 20 382
f 15 404 383
f 405 367 384
f 332 406 385
f 20 407 386
f 335 20 334
f 61 408 387
f 409 66 388
f 89 410 389
f 123 89 121
f 411 139 390
f 412 372 391
f 374 413 373
f 393 392 181
f 208 414 394
f 238 415 343
f 416 395 345
f 360 396 359
f 417 284 397
f 418 291 398
f 305 419 399
f 420 305 400
f 317 421 401
f 351 422 381
f 403 351 20
f 15 423 404
f 424 367 405
f 332 425 406
f 20 426 407
f 59 20 335
f 61 427 408
f 428 66 409
f 123 410 89
f 429 139 411
f 430 372 412
f 374 431 413
f 393 432 392
f 208 433 414
f 238 434 415
f 435 395 416
f 436 284 417
f 437 291 418
f 420 419 305
f 402 421 317
f 351 402 422
f 438 351 403
f 15 439 423
f 332 440 425
f 59 426 20
f 61 59 427
f 441 66 428
f 123 442 410
f 152 139 429
f 430 443 372
f 374 444 431
f 393 445 432
f 208 446 433
f 238 447 434
f 396 395 435
f 448 284 436
f 449 291 437
f 420 450 419
f 402 451 421
f 438 402 351
f 15 452 439
f 453 440 332
f 59 454 426
f 64 59 61
f 441 67 66
f 123 455 442
f 151 139 152
f 456 443 430
f 374 457 444
f 393 458 445
f 208 459 446
f 238 460 447
f 461 284 448
f 462 450 420
f 402 462 451
f 463 402 438
f 15 464 452
f 465 440 453
f 59 465 454
f 466 59 64
f 467 67 441
f 123 468 455
f 469 443 456
f 470 457 374
f 393 471 458
f 208 472 459
f 238 473 460
f 474 284 461
f 402 450 462
f 475 402 463
f 15 476 464
f 59 440 465
f 477 59 466
f 478 67 467
f 134 468 123
f 470 479 457
f 393 480 471
f 481 472 208
f 238 482 473
f 483 284 474
f 475 450 402
f 15 484 476
f 485 59 477
f 486 479 470
f 393 487 480
f 488 472 481
f 238 489 482
f 490 284 483
f 475 491 450
f 492 484 15
f 493 59 485
f 494 479 486
f 393 495 487
f 496 472 488
f 497 489 238
f 498 284 490
f 499 491 475
f 500 484 492
f 501 59 493
f 502 479 494
f 393 503 495
f 504 472 496
f 395 489 497
f 505 284 498
f 506 491 499
f 507 484 500
f 508 59 501
f 509 479 502
f 393 510 503
f 511 472 504
f 396 489 395
f 512 284 505
f 484 491 506
f 513 484 507
f 508 440 59
f 514 479 509
f 393 515 510
f 360 489 396
f 516 284 512
f 513 491 484
f 517 440 508
f 518 479 514
f 393 519 515
f 360 511 489
f 516 360 284
f 513 520 491
f 521 440 517
f 522 479 518
f 393 522 519
f 516 511 360
f 513 523 520
f 524 440 521
f 525 522 393
f 526 511 516
f 513 527 523
f 67 440 524
f 528 522 525
f 529 511 526
f 513 530 527
f 478 440 67
f 528 479 522
f 531 511 529
f 513 532 530
f 468 440 478
f 533 479 528
f 534 511 531
f 513 535 532
f 134 440 468
f 536 479 533
f 537 511 534
f 513 538 535
f 139 440 134
f 539 479 536
f 540 511 537
f 513 541 538
f 139 542 440
f 543 479 539
f 291 511 540
f 513 544 541
f 139 545 542
f 546 479 543
f 449 511 291
f 513 547 544
f 139 548 545
f 549 479 546
f 449 472 511
f 513 550 547
f 139 551 548
f 472 479 549
f 550 472 449
f 367 550 513
f 139 552 551
f 550 479 472
f 424 550 367
f 139 553 552
f 550 554 479
f 555 550 424
f 139 556 553
f 550 469 554
f 557 550 555
f 139 558 556
f 559 550 557
f 151 558 139
f 559 469 550
f 151 560 558
f 9 469 559
f 151 561 560
f 9 443 469
f 151 562 561
f 9 563 443
f 151 368 562
f 9 564 563
f 565 368 151
f 9 565 564
f 565 9 368
f 566 567 568
f 567 569 570
f 569 571 572
f 573 574 575
f 574 576 577
f 576 578 579
f 580 581 582
f 581 583 584
f 585 586 587
f 588 589 590
f 589 591 592
f 591 593 594
f 593 595 596
f 595 597 598
f 597 599 600
f 599 601 602
f 601 603 604
f 603 605 606
f 605 607 608
f 607 609 610
f 609 611 612
f 611 613 614
f 613 615 616
f 617 618 619
f 618 620 621
f 620 622 623
f 622 624 625
f 626 627 628
f 627 629 630
f 631 632 633
f 634 635 636
f 635 637 638
f 637 639 640
f 639 641 642
f 643 644 645
f 644 646 647
f 646 648 649
f 648 650 651
f 650 652 653
f 652 654 655
f 654 656 657
f 656 658 659
f 658 660 661
f 660 662 663
f 662 664 665
f 664 666 667
f 666 668 669
f 668 670 671
f 670 672 673
f 672 674 675
f 674 676 677
f 676 678 679
f 678 680 681
f 680 682 683
f 682 684 685
f 684 686 687
f 686 688 689
f 688 690 691
f 690 692 693
f 692 694 695
f 694 696 697
f 698 699 700
f 701 702 703
f 702 704 705
f 704 706 707
f 706 708 709
f 708 710 711
f 710 712 713
f 712 714 715
f 716 717 718
f 719 720 721
f 720 722 723
f 722 724 725
f 726 727 728
f 727 729 730
f 729 731 732
f 731 733 734
f 733 735 736
f 735 737 738
f 739 740 741
f 740 742 743
f 742 744 745
f 744 746 747
f 746 748 749
f 748 750 751
f 750 752 753
f 752 754 755
f 754 756 757
f 756 758 759
f 758 760 761
f 762 763 764
f 763 765 766
f 765 767 768
f 767 769 770
f 769 771 772
f 771 773 774
f 775 776 777
f 776 778 779
f 778 780 781
f 780 782 783
f 784 785 786
f 785 787 788
f 787 789 790
f 789 791 792
f 791 793 794
f 793 795 796
f 795 797 798
f 797 799 800
f 799 801 802
f 801 803 804
f 805 806 807
f 806 808 809
f 808 810 811
f 810 812 813
f 814 815 816
f 815 817 818
f 817 819 820
f 819 821 822
f 821 823 824
f 823 825 826
f 827 828 829
f 828 830 831
f 830 832 833
f 832 834 835
f 834 836 837
f 836 838 839
f 838 840 841
f 840 842 843
f 842 844 845
f 846 847 848
f 847 849 850
f 849 851 852
f 851 853 854
f 855 856 857
f 856 858 859
f 858 860 861
f 860 862 863
f 862 864 865
f 864 866 867
f 866 868 869
f 870 871 872
f 871 873 874
f 873 875 876
f 875 877 878
f 879 880 881
f 880 882 883
f 882 884 885
f 884 886 887
f 888 854 853
f 854 889 890
f 586 891 587
f 892 584 893
f 566 569 567
f 569 894 571
f 573 576 574
f 576 895 578
f 896 581 580
f 581 897 583
f 898 586 585
f 899 589 588
f 589 593 591
f 593 597 595
f 597 601 599
f 601 605 603
f 605 609 607
f 609 613 611
f 613 900 615
f 901 618 617
f 618 622 620
f 902 627 626
f 632 635 634
f 635 639 637
f 639 903 641
f 643 646 644
f 646 650 648
f 650 654 652
f 654 658 656
f 658 662 660
f 662 666 664
f 666 670 668
f 670 674 672
f 674 678 676
f 678 682 680
f 682 686 684
f 688 692 690
f 692 696 694
f 698 701 699
f 701 704 702
f 704 708 706
f 708 712 710
f 712 904 714
f 905 720 719
f 720 724 722
f 906 727 726
f 727 731 729
f 731 735 733
f 739 742 740
f 742 746 744
f 746 750 748
f 750 754 752
f 754 758 756
f 758 907 760
f 762 765 763
f 765 769 767
f 769 773 771
f 908 776 775
f 776 780 778
f 780 784 782
f 784 787 785
f 787 791 789
f 791 795 793
f 795 799 797
f 799 803 801
f 909 806 805
f 806 810 808
f 810 910 812
f 814 817 815
f 817 821 819
f 821 825 823
f 827 830 828
f 830 834 832
f 834 838 836
f 838 842 840
f 842 911 844
f 846 849 847
f 851 912 853
f 855 858 856
f 858 862 860
f 862 866 864
f 913 871 870
f 871 875 873
f 875 914 877
f 879 882 880
f 882 886 884
f 915 854 888
f 854 916 889
f 586 917 891
f 892 581 584
f 566 894 569
f 573 895 576
f 896 897 581
f 918 586 898
f 899 593 589
f 593 601 597
f 601 609 605
f 609 900 613
f 919 618 901
f 618 624 622
f 920 627 902
f 632 639 635
f 921 646 643
f 646 654 650
f 654 662 658
f 662 670 666
f 670 678 674
f 678 686 682
f 688 696 692
f 698 704 701
f 704 712 708
f 905 724 720
f 906 731 727
f 731 737 735
f 739 746 742
f 746 754 750
f 754 907 758
f 922 765 762
f 765 773 769
f 908 780 776
f 780 787 784
f 787 795 791
f 795 803 799
f 923 806 909
f 806 910 810
f 814 821 817
f 821 924 825
f 925 830 827
f 830 838 834
f 838 911 842
f 911 849 846
f 849 912 851
f 855 862 858
f 862 868 866
f 926 871 913
f 871 914 875
f 927 882 879
f 882 928 886
f 929 854 915
f 586 930 917
f 931 581 892
f 932 894 566
f 573 933 895
f 934 897 896
f 935 586 918
f 899 601 593
f 601 900 609
f 919 624 618
f 936 627 920
f 632 903 639
f 921 654 646
f 654 670 662
f 670 686 678
f 688 698 696
f 704 904 712
f 937 724 905
f 938 731 906
f 731 939 737
f 940 746 739
f 746 907 754
f 922 773 765
f 908 787 780
f 787 803 795
f 923 910 806
f 814 924 821
f 925 838 830
f 838 849 911
f 849 941 912
f 855 868 862
f 942 871 926
f 871 943 914
f 944 882 927
f 882 945 928
f 946 854 929
f 586 947 930
f 948 581 931
f 932 949 894
f 950 897 934
f 951 586 935
f 899 900 601
f 900 624 919
f 952 627 936
f 632 953 903
f 954 654 921
f 654 686 670
f 704 955 904
f 937 956 724
f 938 939 731
f 957 746 940
f 746 958 907
f 959 773 922
f 908 803 787
f 960 910 923
f 961 924 814
f 925 849 838
f 849 962 941
f 855 963 868
f 964 871 942
f 871 965 943
f 966 882 944
f 882 967 945
f 946 916 854
f 586 968 947
f 969 581 948
f 932 970 949
f 971 897 950
f 972 586 951
f 586 900 899
f 973 627 952
f 632 974 953
f 975 654 954
f 654 688 686
f 704 976 955
f 937 977 956
f 978 939 938
f 957 958 746
f 979 773 959
f 980 803 908
f 960 981 910
f 961 925 924
f 849 982 962
f 855 983 963
f 984 871 964
f 871 985 965
f 986 882 966
f 987 916 946
f 916 968 586
f 988 581 969
f 932 989 970
f 990 897 971
f 991 586 972
f 586 624 900
f 992 627 973
f 632 993 974
f 975 688 654
f 704 994 976
f 937 995 977
f 996 939 978
f 997 958 957
f 998 773 979
f 999 803 980
f 960 1000 981
f 849 1001 982
f 855 1002 983
f 984 985 871
f 986 967 882
f 967 916 987
f 916 1003 968
f 1004 581 988
f 1005 897 990
f 991 624 586
f 624 627 992
f 632 1006 993
f 1007 688 975
f 704 716 994
f 1008 995 937
f 1009 939 996
f 1010 958 997
f 1011 773 998
f 1012 803 999
f 960 961 1000
f 849 1013 1001
f 855 1014 1002
f 1015 985 984
f 1016 967 986
f 967 1003 916
f 1017 581 1004
f 1005 1018 897
f 1019 624 991
f 624 629 627
f 631 1006 632
f 1020 688 1007
f 704 717 716
f 1008 1021 995
f 1022 939 1009
f 1023 958 1010
f 1024 773 1011
f 1025 803 1012
f 849 1026 1013
f 1015 1027 985
f 1027 967 1016
f 967 1028 1003
f 1029 581 1017
f 1005 1030 1018
f 1030 624 1019
f 624 1031 629
f 631 1032 1006
f 1033 688 1020
f 1008 1034 1021
f 1022 1035 939
f 1036 958 1023
f 1037 773 1024
f 1038 803 1025
f 849 1039 1026
f 1015 967 1027
f 967 1040 1028
f 1041 581 1029
f 1005 624 1030
f 624 1042 1031
f 631 1043 1032
f 1033 698 688
f 1044 1035 1022
f 1045 958 1036
f 1037 1046 773
f 1047 803 1038
f 849 1048 1039
f 1015 1040 967
f 1049 581 1041
f 624 1050 1042
f 1044 1051 1035
f 1052 958 1045
f 1037 1053 1046
f 1054 803 1047
f 849 1055 1048
f 1056 1040 1015
f 1049 1057 581
f 624 1058 1050
f 1044 1059 1051
f 1060 958 1052
f 1037 1061 1053
f 1054 1062 803
f 849 1063 1055
f 1056 1064 1040
f 1049 1065 1057
f 624 1066 1058
f 1044 1067 1059
f 1068 958 1060
f 1037 1069 1061
f 1054 960 1062
f 849 1070 1063
f 1056 1071 1064
f 1049 1072 1065
f 624 1073 1066
f 1044 1074 1067
f 1075 958 1068
f 1037 1076 1069
f 1054 961 960
f 849 1077 1070
f 1056 1049 1071
f 1049 1078 1072
f 1005 1073 624
f 1044 1079 1074
f 1080 958 1075
f 1054 925 961
f 849 1081 1077
f 1056 1078 1049
f 1005 1082 1073
f 1044 1083 1079
f 1084 958 1080
f 1076 925 1054
f 925 1081 849
f 1085 1078 1056
f 1005 1086 1082
f 1044 1087 1083
f 1087 958 1084
f 1076 1081 925
f 1088 1078 1085
f 1005 1089 1086
f 1087 1090 958
f 1076 1091 1081
f 1092 1078 1088
f 1005 631 1089
f 1087 1093 1090
f 1076 1094 1091
f 1095 1078 1092
f 1005 1043 631
f 1044 1093 1087
f 1076 1096 1094
f 1097 1078 1095
f 1005 1033 1043
f 1044 1098 1093
f 1076 1099 1096
f 1100 1078 1097
f 1005 698 1033
f 1044 1101 1098
f 1076 1102 1099
f 1103 1078 1100
f 1005 704 698
f 1044 1104 1101
f 1076 1105 1102
f 1106 1078 1103
f 1107 704 1005
f 1044 1108 1104
f 1076 855 1105
f 1109 1078 1106
f 1110 704 1107
f 1044 1111 1108
f 1076 1014 855
f 1112 1078 1109
f 1113 704 1110
f 1044 1114 1111
f 1037 1014 1076
f 1115 1078 1112
f 1116 704 1113
f 1044 1037 1114
f 1037 1115 1014
f 1115 932 1078
f 1117 704 1116
f 1044 1115 1037
f 1115 989 932
f 1118 704 1117
f 1119 1115 1044
f 1115 1120 989
f 1121 704 1118
f 1034 1115 1119
f 1115 1122 1120
f 1123 704 1121
f 1115 1124 1122
f 1123 717 704
f 1034 1124 1115
f 1125 717 1123
f 1034 573 1124
f 1126 717 1125
f 1008 573 1034
f 1127 717 1126
f 1128 573 1008
f 933 717 1127
f 1129 573 1128
f 933 1130 717
f 1130 573 1129
f 573 1130 933
f 233 798 232
f 232 798 797
f 232 797 235
f 235 797 800
f 235 800 234
f 234 800 799
f 234 799 237
f 237 799 802
f 237 802 236
f 236 802 801
f 236 801 239
f 239 801 804
f 239 804 238
f 238 804 803
f 238 803 497
f 497 803 1062
f 497 1062 395
f 395 1062 960
f 395 960 358
f 358 960 923
f 358 923 344
f 344 923 909
f 344 909 241
f 241 909 805
f 241 805 242
f 242 805 807
f 242 807 240
f 240 807 806
f 240 806 244
f 244 806 809
f 244 809 243
f 243 809 808
f 243 808 246
f 246 808 811
f 246 811 245
f 245 811 810
f 245 810 248
f 248 810 813
f 248 813 247
f 247 813 812
f 247 812 345
f 345 812 910
f 345 910 416
f 416 910 981
f 416 981 435
f 435 981 1000
f 435 1000 396
f 396 1000 961
f 396 961 250
f 250 961 814
f 250 814 251
f 251 814 816
f 251 816 249
f 249 816 815
f 249 815 253
f 253 815 818
f 253 818 252
f 252 818 817
f 252 817 255
f 255 817 820
f 255 820 254
f 254 820 819
f 254 819 257
f 257 819 822
f 257 822 256
f 256 822 821
f 256 821 259
f 259 821 824
f 259 824 258
f 258 824 823
f 258 823 261
f 261 823 826
f 261 826 260
f 260 826 825
f 260 825 359
f 359 825 924
f 359 924 360
f 360 924 925
f 360 925 263
f 263 925 827
f 263 827 264
f 264 827 829
f 264 829 262
f 262 829 828
f 262 828 266
f 266 828 831
f 266 831 265
f 265 831 830
f 265 830 268
f 268 830 833
f 268 833 267
f 267 833 832
f 267 832 270
f 270 832 835
f 270 835 269
f 269 835 834
f 269 834 272
f 272 834 837
f 272 837 271
f 271 837 836
f 271 836 274
f 274 836 839
f 274 839 273
f 273 839 838
f 273 838 276
f 276 838 841
f 276 841 275
f 275 841 840
f 275 840 278
f 278 840 843
f 278 843 277
f 277 843 842
f 277 842 280
f 280 842 845
f 280 845 279
f 279 845 844
f 279 844 346
f 346 844 911
f 346 911 282
f 282 911 846
f 282 846 283
f 283 846 848
f 283 848 281
f 281 848 847
f 281 847 285
f 285 847 850
f 285 850 284
f 284 850 849
f 284 849 287
f 287 849 852
f 287 852 286
f 286 852 851
f 286 851 289
f 289 851 854
f 289 854 325
f 325 854 890
f 325 890 324
f 324 890 889
f 324 889 351
f 351 889 916
f 351 916 20
f 20 916 586
f 20 586 334
f 334 586 899
f 334 899 24
f 24 899 588
f 24 588 25
f 25 588 590
f 25 590 23
f 23 590 589
f 23 589 27
f 27 589 592
f 27 592 26
f 26 592 591
f 26 591 29
f 29 591 594
f 29 594 28
f 28 594 593
f 28 593 31
f 31 593 596
f 31 596 30
f 30 596 595
f 30 595 33
f 33 595 598
f 33 598 32
f 32 598 597
f 32 597 35
f 35 597 600
f 35 600 34
f 34 600 599
f 34 599 37
f 37 599 602
f 37 602 36
f 36 602 601
f 36 601 39
f 39 601 604
f 39 604 38
f 38 604 603
f 38 603 41
f 41 603 606
f 41 606 40
f 40 606 605
f 40 605 43
f 43 605 608
f 43 608 42
f 42 608 607
f 42 607 45
f 45 607 610
f 45 610 44
f 44 610 609
f 44 609 47
f 47 609 612
f 47 612 46
f 46 612 611
f 46 611 49
f 49 611 614
f 49 614 48
f 48 614 613
f 48 613 51
f 51 613 616
f 51 616 50
f 50 616 615
f 50 615 335
f 335 615 900
f 335 900 354
f 354 900 919
f 354 919 336
f 336 919 901
f 336 901 53
f 53 901 617
f 53 617 54
f 54 617 619
f 54 619 52
f 52 619 618
f 52 618 56
f 56 618 621
f 56 621 55
f 55 621 620
f 55 620 58
f 58 620 623
f 58 623 57
f 57 623 622
f 57 622 60
f 60 622 625
f 60 625 59
f 59 625 624
f 59 624 427
f 427 624 992
f 427 992 408
f 408 992 973
f 408 973 387
f 387 973 952
f 387 952 371
f 371 952 936
f 371 936 355
f 355 936 920
f 355 920 337
f 337 920 902
f 337 902 62
f 62 902 626
f 62 626 63
f 63 626 628
f 63 628 61
f 61 628 627
f 61 627 65
f 65 627 630
f 65 630 64
f 64 630 629
f 64 629 466
f 466 629 1031
f 466 1031 477
f 477 1031 1042
f 477 1042 485
f 485 1042 1050
f 485 1050 493
f 493 1050 1058
f 493 1058 501
f 501 1058 1066
f 501 1066 508
f 508 1066 1073
f 508 1073 517
f 517 1073 1082
f 517 1082 521
f 521 1082 1086
f 521 1086 524
f 524 1086 1089
f 524 1089 67
f 67 1089 631
f 67 631 68
f 68 631 633
f 68 633 66
f 66 633 632
f 66 632 70
f 70 632 634
f 70 634 71
f 71 634 636
f 71 636 69
f 69 636 635
f 69 635 73
f 73 635 638
f 73 638 72
f 72 638 637
f 72 637 75
f 75 637 640
f 75 640 74
f 74 640 639
f 74 639 77
f 77 639 642
f 77 642 76
f 76 642 641
f 76 641 338
f 338 641 903
f 338 903 388
f 388 903 953
f 388 953 409
f 409 953 974
f 409 974 428
f 428 974 993
f 428 993 441
f 441 993 1006
f 441 1006 467
f 467 1006 1032
f 467 1032 478
f 478 1032 1043
f 478 1043 468
f 468 1043 1033
f 468 1033 455
f 455 1033 1020
f 455 1020 442
f 442 1020 1007
f 442 1007 410
f 410 1007 975
f 410 975 389
f 389 975 954
f 389 954 356
f 356 954 921
f 356 921 79
f 79 921 643
f 79 643 80
f 80 643 645
f 80 645 78
f 78 645 644
f 78 644 82
f 82 644 647
f 82 647 81
f 81 647 646
f 81 646 84
f 84 646 649
f 84 649 83
f 83 649 648
f 83 648 86
f 86 648 651
f 86 651 85
f 85 651 650
f 85 650 88
f 88 650 653
f 88 653 87
f 87 653 652
f 87 652 90
f 90 652 655
f 90 655 89
f 89 655 654
f 89 654 92
f 92 654 657
f 92 657 91
f 91 657 656
f 91 656 94
f 94 656 659
f 94 659 93
f 93 659 658
f 93 658 96
f 96 658 661
f 96 661 95
f 95 661 660
f 95 660 98
f 98 660 663
f 98 663 97
f 97 663 662
f 97 662 100
f 100 662 665
f 100 665 99
f 99 665 664
f 99 664 102
f 102 664 667
f 102 667 101
f 101 667 666
f 101 666 104
f 104 666 669
f 104 669 103
f 103 669 668
f 103 668 106
f 106 668 671
f 106 671 105
f 105 671 670
f 105 670 108
f 108 670 673
f 108 673 107
f 107 673 672
f 107 672 110
f 110 672 675
f 110 675 109
f 109 675 674
f 109 674 112
f 112 674 677
f 112 677 111
f 111 677 676
f 111 676 114
f 114 676 679
f 114 679 113
f 113 679 678
f 113 678 116
f 116 678 681
f 116 681 115
f 115 681 680
f 115 680 118
f 118 680 683
f 118 683 117
f 117 683 682
f 117 682 120
f 120 682 685
f 120 685 119
f 119 685 684
f 119 684 122
f 122 684 687
f 122 687 121
f 121 687 686
f 121 686 124
f 124 686 689
f 124 689 123
f 123 689 688
f 123 688 126
f 126 688 691
f 126 691 125
f 125 691 690
f 125 690 128
f 128 690 693
f 128 693 127
f 127 693 692
f 127 692 130
f 130 692 695
f 130 695 129
f 129 695 694
f 129 694 132
f 132 694 697
f 132 697 131
f 131 697 696
f 131 696 134
f 134 696 698
f 134 698 135
f 135 698 700
f 135 700 133
f 133 700 699
f 133 699 137
f 137 699 701
f 137 701 138
f 138 701 703
f 138 703 136
f 136 703 702
f 136 702 140
f 140 702 705
f 140 705 139
f 139 705 704
f 139 704 142
f 142 704 707
f 142 707 141
f 141 707 706
f 141 706 144
f 144 706 709
f 144 709 143
f 143 709 708
f 143 708 146
f 146 708 711
f 146 711 145
f 145 711 710
f 145 710 148
f 148 710 713
f 148 713 147
f 147 713 712
f 147 712 150
f 150 712 715
f 150 715 149
f 149 715 714
f 149 714 339
f 339 714 904
f 339 904 390
f 390 904 955
f 390 955 411
f 411 955 976
f 411 976 429
f 429 976 994
f 429 994 152
f 152 994 716
f 152 716 153
f 153 716 718
f 153 718 151
f 151 718 717
f 151 717 565
f 565 717 1130
f 565 1130 564
f 564 1130 1129
f 564 1129 563
f 563 1129 1128
f 563 1128 443
f 443 1128 1008
f 443 1008 372
f 372 1008 937
f 372 937 340
f 340 937 905
f 340 905 155
f 155 905 719
f 155 719 156
f 156 719 721
f 156 721 154
f 154 721 720
f 154 720 158
f 158 720 723
f 158 723 157
f 157 723 722
f 157 722 160
f 160 722 725
f 160 725 159
f 159 725 724
f 159 724 391
f 391 724 956
f 391 956 412
f 412 956 977
f 412 977 430
f 430 977 995
f 430 995 456
f 456 995 1021
f 456 1021 469
f 469 1021 1034
f 469 1034 554
f 554 1034 1119
f 554 1119 479
f 479 1119 1044
f 479 1044 457
f 457 1044 1022
f 457 1022 444
f 444 1022 1009
f 444 1009 431
f 431 1009 996
f 431 996 413
f 413 996 978
f 413 978 373
f 373 978 938
f 373 938 341
f 341 938 906
f 341 906 162
f 162 906 726
f 162 726 163
f 163 726 728
f 163 728 161
f 161 728 727
f 161 727 165
f 165 727 730
f 165 730 164
f 164 730 729
f 164 729 167
f 167 729 732
f 167 732 166
f 166 732 731
f 166 731 169
f 169 731 734
f 169 734 168
f 168 734 733
f 168 733 171
f 171 733 736
f 171 736 170
f 170 736 735
f 170 735 173
f 173 735 738
f 173 738 172
f 172 738 737
f 172 737 374
f 374 737 939
f 374 939 470
f 470 939 1035
f 470 1035 486
f 486 1035 1051
f 486 1051 494
f 494 1051 1059
f 494 1059 502
f 502 1059 1067
f 502 1067 509
f 509 1067 1074
f 509 1074 514
f 514 1074 1079
f 514 1079 518
f 518 1079 1083
f 518 1083 522
f 522 1083 1087
f 522 1087 519
f 519 1087 1084
f 519 1084 515
f 515 1084 1080
f 515 1080 510
f 510 1080 1075
f 510 1075 503
f 503 1075 1068
f 503 1068 495
f 495 1068 1060
f 495 1060 487
f 487 1060 1052
f 487 1052 480
f 480 1052 1045
f 480 1045 471
f 471 1045 1036
f 471 1036 458
f 458 1036 1023
f 458 1023 445
f 445 1023 1010
f 445 1010 432
f 432 1010 997
f 432 997 392
f 392 997 957
f 392 957 375
f 375 957 940
f 375 940 175
f 175 940 739
f 175 739 176
f 176 739 741
f 176 741 174
f 174 741 740
f 174 740 178
f 178 740 743
f 178 743 177
f 177 743 742
f 177 742 180
f 180 742 745
f 180 745 179
f 179 745 744
f 179 744 182
f 182 744 747
f 182 747 181
f 181 747 746
f 181 746 184
f 184 746 749
f 184 749 183
f 183 749 748
f 183 748 186
f 186 748 751
f 186 751 185
f 185 751 750
f 185 750 188
f 188 750 753
f 188 753 187
f 187 753 752
f 187 752 190
f 190 752 755
f 190 755 189
f 189 755 754
f 189 754 192
f 192 754 757
f 192 757 191
f 191 757 756
f 191 756 194
f 194 756 759
f 194 759 193
f 193 759 758
f 193 758 196
f 196 758 761
f 196 761 195
f 195 761 760
f 195 760 342
f 342 760 907
f 342 907 393
f 393 907 958
f 393 958 525
f 525 958 1090
f 525 1090 528
f 528 1090 1093
f 528 1093 533
f 533 1093 1098
f 533 1098 536
f 536 1098 1101
f 536 1101 539
f 539 1101 1104
f 539 1104 543
f 543 1104 1108
f 543 1108 546
f 546 1108 1111
f 546 1111 549
f 549 1111 1114
f 549 1114 472
f 472 1114 1037
f 472 1037 459
f 459 1037 1024
f 459 1024 446
f 446 1024 1011
f 446 1011 433
f 433 1011 998
f 433 998 414
f 414 998 979
f 414 979 394
f 394 979 959
f 394 959 357
f 357 959 922
f 357 922 198
f 198 922 762
f 198 762 199
f 199 762 764
f 199 764 197
f 197 764 763
f 197 763 201
f 201 763 766
f 201 766 200
f 200 766 765
f 200 765 203
f 203 765 768
f 203 768 202
f 202 768 767
f 202 767 205
f 205 767 770
f 205 770 204
f 204 770 769
f 204 769 207
f 207 769 772
f 207 772 206
f 206 772 771
f 206 771 209
f 209 771 774
f 209 774 208
f 208 774 773
f 208 773 481
f 481 773 1046
f 481 1046 488
f 488 1046 1053
f 488 1053 496
f 496 1053 1061
f 496 1061 504
f 504 1061 1069
f 504 1069 511
f 511 1069 1076
f 511 1076 489
f 489 1076 1054
f 489 1054 482
f 482 1054 1047
f 482 1047 473
f 473 1047 1038
f 473 1038 460
f 460 1038 1025
f 460 1025 447
f 447 1025 1012
f 447 1012 434
f 434 1012 999
f 434 999 415
f 415 999 980
f 415 980 343
f 343 980 908
f 343 908 211
f 211 908 775
f 211 775 212
f 212 775 777
f 212 777 210
f 210 777 776
f 210 776 214
f 214 776 779
f 214 779 213
f 213 779 778
f 213 778 216
f 216 778 781
f 216 781 215
f 215 781 780
f 215 780 218
f 218 780 783
f 218 783 217
f 217 783 782
f 217 782 220
f 220 782 784
f 220 784 221
f 221 784 786
f 221 786 219
f 219 786 785
f 219 785 223
f 223 785 788
f 223 788 222
f 222 788 787
f 222 787 225
f 225 787 790
f 225 790 224
f 224 790 789
f 224 789 227
f 227 789 792
f 227 792 226
f 226 792 791
f 226 791 229
f 229 791 794
f 229 794 228
f 228 794 793
f 228 793 231
f 231 793 796
f 231 796 230
f 230 796 795
f 230 795 233
f 233 795 798
f 292 857 290
f 290 857 856
f 290 856 294
f 294 856 859
f 294 859 293
f 293 859 858
f 293 858 296
f 296 858 861
f 296 861 295
f 295 861 860
f 295 860 298
f 298 860 863
f 298 863 297
f 297 863 862
f 297 862 300
f 300 862 865
f 300 865 299
f 299 865 864
f 299 864 302
f 302 864 867
f 302 867 301
f 301 867 866
f 301 866 304
f 304 866 869
f 304 869 303
f 303 869 868
f 303 868 398
f 398 868 963
f 398 963 418
f 418 963 983
f 418 983 437
f 437 983 1002
f 437 1002 449
f 449 1002 1014
f 449 1014 550
f 550 1014 1115
f 550 1115 547
f 547 1115 1112
f 547 1112 544
f 544 1112 1109
f 544 1109 541
f 541 1109 1106
f 541 1106 538
f 538 1106 1103
f 538 1103 535
f 535 1103 1100
f 535 1100 532
f 532 1100 1097
f 532 1097 530
f 530 1097 1095
f 530 1095 527
f 527 1095 1092
f 527 1092 523
f 523 1092 1088
f 523 1088 520
f 520 1088 1085
f 520 1085 491
f 491 1085 1056
f 491 1056 450
f 450 1056 1015
f 450 1015 419
f 419 1015 984
f 419 984 399
f 399 984 964
f 399 964 377
f 377 964 942
f 377 942 361
f 361 942 926
f 361 926 348
f 348 926 913
f 348 913 306
f 306 913 870
f 306 870 307
f 307 870 872
f 307 872 305
f 305 872 871
f 305 871 309
f 309 871 874
f 309 874 308
f 308 874 873
f 308 873 311
f 311 873 876
f 311 876 310
f 310 876 875
f 310 875 313
f 313 875 878
f 313 878 312
f 312 878 877
f 312 877 349
f 349 877 914
f 349 914 378
f 378 914 943
f 378 943 400
f 400 943 965
f 400 965 420
f 420 965 985
f 420 985 462
f 462 985 1027
f 462 1027 451
f 451 1027 1016
f 451 1016 421
f 421 1016 986
f 421 986 401
f 401 986 966
f 401 966 379
f 379 966 944
f 379 944 362
f 362 944 927
f 362 927 315
f 315 927 879
f 315 879 316
f 316 879 881
f 316 881 314
f 314 881 880
f 314 880 318
f 318 880 883
f 318 883 317
f 317 883 882
f 317 882 320
f 320 882 885
f 320 885 319
f 319 885 884
f 319 884 322
f 322 884 887
f 322 887 321
f 321 887 886
f 321 886 363
f 363 886 928
f 363 928 380
f 380 928 945
f 380 945 402
f 402 945 967
f 402 967 422
f 422 967 987
f 422 987 381
f 381 987 946
f 381 946 364
f 364 946 929
f 364 929 350
f 350 929 915
f 350 915 323
f 323 915 888
f 323 888 288
f 288 888 853
f 288 853 347
f 347 853 912
f 347 912 376
f 376 912 941
f 376 941 397
f 397 941 962
f 397 962 417
f 417 962 982
f 417 982 436
f 436 982 1001
f 436 1001 448
f 448 1001 1013
f 448 1013 461
f 461 1013 1026
f 461 1026 474
f 474 1026 1039
f 474 1039 483
f 483 1039 1048
f 483 1048 490
f 490 1048 1055
f 490 1055 498
f 498 1055 1063
f 498 1063 505
f 505 1063 1070
f 505 1070 512
f 512 1070 1077
f 512 1077 516
f 516 1077 1081
f 516 1081 526
f 526 1081 1091
f 526 1091 529
f 529 1091 1094
f 529 1094 531
f 531 1094 1096
f 531 1096 534
f 534 1096 1099
f 534 1099 537
f 537 1099 1102
f 537 1102 540
f 540 1102 1105
f 540 1105 291
f 291 1105 855
f 291 855 292
f 292 855 857
f 330 895 368
f 368 895 933
f 368 933 562
f 562 933 1127
f 562 1127 561
f 561 1127 1126
f 561 1126 560
f 560 1126 1125
f 560 1125 558
f 558 1125 1123
f 558 1123 556
f 556 1123 1121
f 556 1121 553
f 553 1121 1118
f 553 1118 552
f 552 1118 1117
f 552 1117 551
f 551 1117 1116
f 551 1116 548
f 548 1116 1113
f 548 1113 545
f 545 1113 1110
f 545 1110 542
f 542 1110 1107
f 542 1107 440
f 440 1107 1005
f 440 1005 425
f 425 1005 990
f 425 990 406
f 406 990 971
f 406 971 385
f 385 971 950
f 385 950 369
f 369 950 934
f 369 934 331
f 331 934 896
f 331 896 16
f 16 896 580
f 16 580 17
f 17 580 582
f 17 582 15
f 15 582 581
f 15 581 492
f 492 581 1057
f 492 1057 500
f 500 1057 1065
f 500 1065 507
f 507 1065 1072
f 507 1072 513
f 513 1072 1078
f 513 1078 367
f 367 1078 932
f 367 932 2
f 2 932 566
f 2 566 3
f 3 566 568
f 3 568 1
f 1 568 567
f 1 567 5
f 5 567 570
f 5 570 4
f 4 570 569
f 4 569 7
f 7 569 572
f 7 572 6
f 6 572 571
f 6 571 329
f 329 571 894
f 329 894 384
f 384 894 949
f 384 949 405
f 405 949 970
f 405 970 424
f 424 970 989
f 424 989 555
f 555 989 1120
f 555 1120 557
f 557 1120 1122
f 557 1122 559
f 559 1122 1124
f 559 1124 9
f 9 1124 573
f 9 573 10
f 10 573 575
f 10 575 8
f 8 575 574
f 8 574 12
f 12 574 577
f 12 577 11
f 11 577 576
f 11 576 14
f 14 576 579
f 14 579 13
f 13 579 578
f 13 578 330
f 330 578 895
f 464 1029 452
f 452 1029 1017
f 452 1017 439
f 439 1017 1004
f 439 1004 423
f 423 1004 988
f 423 988 404
f 404 988 969
f 404 969 383
f 383 969 948
f 383 948 366
f 366 948 931
f 366 931 327
f 327 931 892
f 327 892 328
f 328 892 893
f 328 893 19
f 19 893 584
f 19 584 18
f 18 584 583
f 18 583 332
f 332 583 897
f 332 897 453
f 453 897 1018
f 453 1018 465
f 465 1018 1030
f 465 1030 454
f 454 1030 1019
f 454 1019 426
f 426 1019 991
f 426 991 407
f 407 991 972
f 407 972 386
f 386 972 951
f 386 951 370
f 370 951 935
f 370 935 353
f 353 935 918
f 353 918 333
f 333 918 898
f 333 898 21
f 21 898 585
f 21 585 22
f 22 585 587
f 22 587 326
f 326 587 891
f 326 891 352
f 352 891 917
f 352 917 365
f 365 917 930
f 365 930 382
f 382 930 947
f 382 947 403
f 403 947 968
f 403 968 438
f 438 968 1003
f 438 1003 463
f 463 1003 1028
f 463 1028 475
f 475 1028 1040
f 475 1040 499
f 499 1040 1064
f 499 1064 506
f 506 1064 1071
f 506 1071 484
f 484 1071 1049
f 484 1049 476
f 476 1049 1041
f 476 1041 464
f 464 1041 1029
