o 
v 27.381 0 -53.164
v 18.813 0 -53.444
v 26.75 0 -53.37
v 29.274 0 -52.561
v 28.012 0 -52.962
v 28.644 0 -52.763
v 30.53 0 -52.14
v 29.903 0 -52.355
v 30.733 0 -52.063
v 30.65 0 -52.117
v 30.804 0 -51.887
v 30.782 0 -51.984
v 30.78 0 -51.67
v 30.802 0 -51.781
v 30.258 0 -50.467
v 30.528 0 -51.065
v 29.682 0 -49.283
v 29.974 0 -49.874
v 30.864 0 -45.957
v 29.1 0 -48.1
v 29.983 0 -47.029
v 38.78 0 -58.5
v 37.337 0 -52.9
v 38.057 0 -55.7
v 36.51 0 -68.32
v 36.71 0 -67.45
v 28.367 0 -55.865
v 18.635 0 -55.39
v 18.724 0 -54.417
v 18.47 0 -57.336
v 18.55 0 -56.363
v 20.14 0 -59.4
v 18.4 0 -58.31
v 20.35 0 -59.5
v 20.25 0 -59.485
v 20.53 0 -59.393
v 20.442 0 -59.464
v 21.217 0 -58.722
v 20.7 0 -59.22
v 20.96 0 -58.976
v 26.4 0 -63.03
v 25.448 0 -61.493
v 25.921 0 -62.265
v 25.676 0 -66.955
v 25.49 0 -66.68
v 26.052 0 -67.503
v 25.863 0 -67.229
v 26.436 0 -68.043
v 26.243 0 -67.774
v 26.923 0 -68.736
v 26.63 0 -68.31
v 26.772 0 -68.526
v 27.253 0 -69.134
v 27.084 0 -68.939
v 27.618 0 -69.5
v 27.432 0 -69.321
v 28.015 0 -69.831
v 27.813 0 -69.67
v 28.44 0 -70.125
v 28.224 0 -69.983
v 28.89 0 -70.38
v 28.662 0 -70.258
v 31.985 0 -76.955
v 32.383 0 -74.985
v 32.184 0 -75.97
v 31.6 0 -78.925
v 31.79 0 -77.94
v 31.339 0 -80.41
v 31.42 0 -79.91
v 31.202 0 -81.427
v 31.26 0 -80.917
v 31.233 0 -82.438
v 31.187 0 -81.936
v 31.513 0 -83.217
v 31.36 0 -82.93
v 31.999 0 -83.603
v 31.731 0 -83.44
v 32.614 0 -83.755
v 32.299 0 -83.706
v 33.544 0 -83.667
v 32.93 0 -83.75
v 34.741 0 -83.369
v 34.147 0 -83.536
v 35.915 0 -82.974
v 35.33 0 -83.177
v 37.433 0 -82.426
v 36.5 0 -82.77
v 39.292 0 -81.704
v 38.364 0 -82.069
v 46.12 0 -82.19
v 44.772 0 -81.663
v 45.446 0 -81.928
v 46.162 0 -87.746
v 46.16 0 -87.63
v 45.684 0 -88.091
v 46.067 0 -88.093
v 45.94 0 -88.08
v 45.248 0 -88.308
v 45.454 0 -88.172
v 44.898 0 -88.678
v 45.063 0 -88.481
v 44.41 0 -89.48
v 44.75 0 -88.88
v 43.866 0 -90.753
v 44.12 0 -90.107
v 43.406 0 -92.071
v 43.633 0 -91.41
v 43.201 0 -92.848
v 43.17 0 -92.73
v 43.307 0 -93.079
v 43.249 0 -92.964
v 43.968 0 -94.392
v 43.434 0 -93.306
v 43.49 0 -93.42
v 45.4 0 -99.59
v 44.92 0 -97.484
v 45.159 0 -98.539
v 45.444 0 -99.827
v 45.413 0 -99.718
v 45.573 0 -99.973
v 45.496 0 -99.914
v 45.81 0 -99.99
v 45.676 0 -100
v 46.577 0 -99.949
v 46.194 0 -99.972
v 47.343 0 -99.891
v 46.96 0 -99.921
v 49.288 0 -99.733
v 47.726 0 -99.861
v 48.11 0 -99.83
v 51.647 0 -99.533
v 50.468 0 -99.641
v 53.987 0 -99.192
v 52.822 0 -99.389
v 55.519 0 -98.812
v 55.14 0 -98.92
v 56.175 0 -98.414
v 55.862 0 -98.638
v 56.737 0 -97.879
v 56.464 0 -98.156
v 56.2 0 -93.62
v 57 0 -97.6
v 55.7 0 -91.442
v 55.966 0 -92.527
v 55.043 0 -89.311
v 55.395 0 -90.369
v 54.17 0 -87.26
v 54.637 0 -88.273
v 62.204 0 -83.469
v 59.886 0 -82.919
v 61.044 0 -83.201
v 63.647 0 -83.729
v 63.37 0 -83.7
v 64.223 0 -83.764
v 63.934 0 -83.756
v 64.778 0 -83.662
v 64.506 0 -83.738
v 65.198 0 -83.375
v 65.03 0 -83.52
v 65.376 0 -82.994
v 65.31 0 -83.196
v 65.411 0 -82.556
v 65.406 0 -82.777
v 65.294 0 -81.424
v 65.4 0 -82.34
v 65.009 0 -79.609
v 65.161 0 -80.514
v 64.68 0 -77.804
v 64.846 0 -78.706
v 65.652 0 -74.875
v 64.52 0 -76.9
v 65.087 0 -75.888
v 72.2 0 -61.83
v 71.456 0 -66.762
v 72.2 0 -65.99
v 74.082 0 -58.499
v 72.83 0 -60.722
v 73.461 0 -59.613
v 75.249 0 -56.233
v 74.682 0 -57.374
v 75.903 0 -54.73
v 75.77 0 -55.07
v 76.073 0 -54.022
v 76.003 0 -54.38
v 76.129 0 -53.295
v 76.114 0 -53.66
v 77.204 0 -52.929
v 76.481 0 -52.929
v 76.842 0 -52.931
v 77.923 0 -52.885
v 77.564 0 -52.916
v 78.548 0 -52.76
v 78.28 0 -52.83
v 79.014 0 -52.44
v 78.8 0 -52.627
v 79.249 0 -51.947
v 79.17 0 -52.21
v 79.053 0 -51.209
v 79.23 0 -51.66
v 78.497 0 -50.434
v 78.801 0 -50.806
v 78.843 0 -41.217
v 78.187 0 -45.283
v 78.516 0 -43.25
v 79.47 0 -37.15
v 79.162 0 -39.184
v 80.267 0 -31.604
v 79.883 0 -34.378
v 80.963 0 -26.046
v 80.625 0 -28.826
v 81.6 0 -20.48
v 81.287 0 -23.264
v 81.269 0 -18.943
v 81.437 0 -19.711
v 80.927 0 -17.407
v 81.099 0 -18.175
v 80.538 0 -15.686
v 80.757 0 -16.639
v 80.59 0 -15.87
v 80.419 0 -15.129
v 80.501 0 -15.497
v 80.466 0 -15.31
v 80.23 0 -14.81
v 80.345 0 -14.961
v 80.074 0 -14.647
v 80.153 0 -14.683
v 79.909 0 -14.757
v 79.993 0 -14.679
v 79.74 0 -14.96
v 79.825 0 -14.858
v 79.572 0 -15.519
v 79.651 0 -15.237
v 79.431 0 -16.088
v 79.5 0 -15.802
v 78.268 0 -20.801
v 79.362 0 -16.374
v 79.29 0 -16.66
v 70.34 0 -48.298
v 70.595 0 -48.298
v 70.467 0 -48.296
v 68.99 0 -48.4
v 69.816 0 -48.333
v 69.402 0 -48.356
v 68.217 0 -48.641
v 68.591 0 -48.488
v 67.716 0 -49.052
v 67.88 0 -48.88
v 67.591 0 -49.484
v 67.621 0 -49.259
v 67.71 0 -49.925
v 67.622 0 -49.711
v 68 0 -50.286
v 67.85 0 -50.11
v 68.393 0 -50.49
v 68.184 0 -50.409
v 68.845 0 -50.561
v 68.616 0 -50.537
v 68.69 0 -57.14
v 68.822 0 -54.95
v 68.756 0 -56.045
v 68.32 0 -57.87
v 68.498 0 -57.647
v 68.406 0 -57.758
v 66.591 0 -60.133
v 67.447 0 -58.995
v 64.945 0 -62.454
v 65.756 0 -61.285
v 63.41 0 -64.85
v 64.162 0 -63.641
v 62.57 0 -66.241
v 62.986 0 -65.541
v 60.721 0 -69.114
v 60.82 0 -69
v 60.775 0 -69.047
v 60.03 0 -67.59
v 60.144 0 -68.143
v 60.09 0 -67.868
v 58.751 0 -59.256
v 59.243 0 -62.59
v 58.997 0 -60.923
v 60.496 0 -50.639
v 58.5 0 -57.59
v 59.519 0 -54.122
v 62.337 0 -43.637
v 61.435 0 -47.144
v 64.04 0 -36.6
v 63.205 0 -40.122
v 64.644 0 -36.142
v 64.342 0 -36.371
v 65.219 0 -35.655
v 64.939 0 -35.905
v 65.71 0 -35.09
v 65.479 0 -35.385
v 66.396 0 -33.71
v 66.096 0 -34.418
v 66.817 0 -32.223
v 66.63 0 -32.975
v 67.13 0 -30.71
v 66.978 0 -31.465
v 67.243 0 -30.094
v 67.16 0 -30.508
v 67.202 0 -30.302
v 67.265 0 -29.676
v 67.268 0 -29.885
v 67.015 0 -29.293
v 67.22 0 -29.47
v 66.558 0 -28.979
v 66.79 0 -29.133
v 68.544 0 -27.526
v 67.674 0 -27.516
v 68.109 0 -27.521
v 68.98 0 -9.97
v 68.98 0 -27.52
v 71.124 0 -5.231
v 70.05 0 -7.602
v 70.588 0 -6.418
v 72.18 0 -2.85
v 71.655 0 -4.043
v 70.976 0 -1.956
v 71.778 0 -2.554
v 71.379 0 -2.252
v 70.138 0 -1.429
v 70.564 0 -1.678
v 68.894 0 -0.987
v 69.69 0 -1.22
v 67.257 0 -0.731
v 68.081 0 -0.825
v 65.601 0 -0.732
v 66.429 0 -0.701
v 64.321 0 -0.905
v 64.78 0 -0.82
v 63.461 0 -1.246
v 63.883 0 -1.052
v 62.658 0 -1.724
v 63.054 0 -1.475
v 62.245 0 -4.256
v 62.27 0 -1.98
v 62.197 0 -8.81
v 62.22 0 -6.533
v 62.17 0 -13.364
v 62.18 0 -11.087
v 60.05 0 -22.401
v 62.17 0 -15.64
v 61.108 0 -19.021
v 40.918 0 -29.99
v 40.774 0 -30.174
v 40.847 0 -30.081
v 41.795 0 -28.81
v 40.98 0 -29.9
v 41.391 0 -29.358
v 42.578 0 -27.696
v 42.191 0 -28.256
v 43.329 0 -26.56
v 42.958 0 -27.131
v 44.047 0 -25.404
v 43.692 0 -25.985
v 44.73 0 -24.226
v 44.393 0 -24.817
v 45.38 0 -23.03
v 45.06 0 -23.631
v 46.116 0 -21.638
v 45.752 0 -22.336
v 46.818 0 -20.229
v 46.471 0 -20.936
v 47.488 0 -18.804
v 47.157 0 -19.519
v 48.123 0 -17.364
v 47.809 0 -18.086
v 48.724 0 -15.909
v 48.427 0 -16.638
v 49.29 0 -14.44
v 49.011 0 -15.176
v 49.612 0 -13.399
v 49.4 0 -14.098
v 49.511 0 -13.75
v 49.739 0 -12.683
v 49.692 0 -13.043
v 49.693 0 -12.135
v 49.74 0 -12.32
v 49.432 0 -11.899
v 49.584 0 -11.993
v 49.072 0 -11.873
v 49.256 0 -11.857
v 48.552 0 -12.205
v 48.9 0 -11.95
v 47.914 0 -12.78
v 48.226 0 -12.484
v 47.312 0 -13.395
v 47.611 0 -13.086
v 45.783 0 -15.027
v 47.01 0 -13.7
v 43.412 0 -17.755
v 44.584 0 -16.379
v 41.155 0 -20.576
v 42.269 0 -19.154
v 39.742 0 -22.45
v 40.07 0 -22.02
v 39.904 0 -22.23
v 36.98 0 -15.972
v 37.545 0 -18.402
v 37.263 0 -17.187
v 36.66 0 -9.56
v 36.69 0 -14.76
v 37.89 0 -11.52
v 37.042 0 -7.492
v 36.852 0 -8.526
v 37.398 0 -5.421
v 37.226 0 -6.457
v 37.68 0 -3.34
v 37.551 0 -4.383
v 37.746 0 -2.351
v 37.722 0 -2.851
v 37.657 0 -1.362
v 37.731 0 -1.851
v 37.25 0 -0.46
v 37.503 0 -0.895
v 36.872 0 -0.126
v 37.081 0 -0.261
v 36.378 0 -0.01
v 36.634 0 -0.046
v 35.86 0 -0.03
v 36.116 0 -0.008
v 34.281 0 -0.251
v 35.07 0 -0.135
v 32.706 0 -0.519
v 33.493 0 -0.379
v 31.14 0 -0.84
v 31.922 0 -0.672
v 30.167 0 -1.111
v 30.656 0 -0.965
v 29.243 0 -1.529
v 29.69 0 -1.294
v 28.51 0 -2.22
v 28.844 0 -1.832
v 28.163 0 -2.993
v 28.3 0 -2.595
v 28.064 0 -3.833
v 28.087 0 -3.409
v 28.13 0 -4.68
v 28.082 0 -4.26
v 28.499 0 -7.019
v 28.301 0 -5.852
v 28.938 0 -9.341
v 28.714 0 -8.181
v 28.94 0 -20.75
v 29.094 0 -17.716
v 29.016 0 -19.232
v 28.826 0 -23.01
v 28.88 0 -21.88
v 31.66 0 -27.52
v 28.645 0 -26.394
v 28.56 0 -27.52
v 32.506 0 -33.673
v 32.47 0 -33.54
v 31.346 0 -35.1
v 32.307 0 -34.093
v 32.21 0 -34.18
v 29.714 0 -37.022
v 30.514 0 -36.048
v 28.212 0 -39.045
v 28.946 0 -38.022
v 26.968 0 -40.918
v 27.51 0 -40.09
v 25.919 0 -42.592
v 26.442 0 -41.755
v 22.261 0 -45.075
v 22.535 0 -45.432
v 22.401 0 -45.251
v 21.798 0 -44.689
v 22.1 0 -44.92
v 21.093 0 -44.432
v 21.458 0 -44.53
v 20.327 0 -44.382
v 20.712 0 -44.387
v 19.815 0 -44.43
v 19.95 0 -44.41
v 19.601 0 -44.496
v 19.693 0 -44.457
v 19.577 0 -44.645
v 19.557 0 -44.557
v 20.095 0 -45.291
v 19.68 0 -44.77
v 19.874 0 -45.041
v 18.9 0 -52.47
v 19.584 0 -51.717
v 19.238 0 -52.09
v 29.389 0 -48.693
v 36.616 0 -50.101
v 29.989 0 -58.359
v 20.615 0 -59.306
v 21.476 0 -58.47
v 24.971 0 -60.722
v 40.219 0 -81.338
v 44.099 0 -81.399
v 46.17 0 -87.864
v 70.719 0 -67.542
v 78.169 0 -50.078
v 77.25 0 -24.944
v 70.22 0 -48.31
v 69.07 0 -50.57
v 68.691 0 -57.286
v 62.153 0 -66.944
v 60.661 0 -69.183
v 69.513 0 -8.786
v 29.171 0 -16.201
v 28.772 0 -24.139
v 28.714 0 -25.267
v 20.33 0 -45.533
v 19.929 0 -51.341
v 31.615 0 -60.853
v 29.077 0 -70.411
v 32.58 0 -74
v 53.886 0 -86.668
v 58.726 0 -82.646
v 69.999 0 -68.338
v 76.12 0 -52.93
v 77.842 0 -49.722
v 77.86 0 -47.316
v 76.229 0 -29.086
v 70.72 0 -48.294
v 68.887 0 -53.855
v 67.241 0 -27.522
v 32.393 0 -34.001
v 22.676 0 -45.606
v 33.244 0 -63.344
v 29.257 0 -70.463
v 46.137 0 -88.052
v 43.371 0 -93.192
v 44.659 0 -96.434
v 69.304 0 -69.154
v 68.951 0 -52.76
v 68.584 0 -57.535
v 66.33 0 -28.817
v 66.813 0 -27.55
v 29.163 0 -10.501
v 20.565 0 -45.775
v 20.263 0 -50.957
v 34.876 0 -65.833
v 53.601 0 -86.069
v 57.558 0 -82.405
v 68.645 0 -70
v 77.54 0 -49.35
v 70.837 0 -48.277
v 66.39 0 -27.61
v 40.707 0 -30.269
v 39.575 0 -22.669
v 29.246 0 -14.688
v 25.385 0 -43.422
v 22.836 0 -45.757
v 20.786 0 -46.031
v 20.577 0 -50.555
v 21.747 0 -58.231
v 29.43 0 -70.534
v 32.241 0 -73.535
v 44.35 0 -95.4
v 53.338 0 -85.46
v 56.38 0 -82.22
v 68.03 0 -70.88
v 61.727 0 -67.642
v 66.12 0 -28.635
v 66.223 0 -27.678
v 29.316 0 -13.174
v 24.826 0 -44.234
v 23.03 0 -45.87
v 20.86 0 -50.13
v 22.035 0 -58.017
v 29.597 0 -70.62
v 31.901 0 -73.071
v 53.119 0 -84.838
v 55.905 0 -82.169
v 67.405 0 -71.863
v 70.94 0 -48.24
v 61.285 0 -68.329
v 66.067 0 -27.787
v 40.653 0 -30.367
v 29.38 0 -11.66
v 21.14 0 -49.532
v 22.35 0 -57.84
v 29.757 0 -70.72
v 31.555 0 -72.611
v 46.166 0 -87.971
v 66.804 0 -72.859
v 69.013 0 -51.665
v 65.94 0 -28.42
v 65.94 0 -27.925
v 58.989 0 -25.781
v 37.83 0 -19.616
v 20.98 0 -46.31
v 21.333 0 -48.891
v 22.574 0 -57.821
v 29.91 0 -70.83
v 31.199 0 -72.159
v 55.424 0 -82.129
v 66.223 0 -73.864
v 75.2 0 -33.226
v 65.857 0 -28.252
v 65.863 0 -28.083
v 57.92 0 -29.159
v 40.62 0 -30.47
v 38.123 0 -20.826
v 23.28 0 -45.831
v 21.426 0 -48.228
v 22.777 0 -57.882
v 30.003 0 -70.901
v 30.829 0 -71.718
v 54.943 0 -82.115
v 74.159 0 -37.361
v 39.394 0 -22.873
v 38.43 0 -22.03
v 21.262 0 -46.917
v 21.407 0 -47.563
v 22.961 0 -58
v 30.101 0 -70.98
v 30.44 0 -71.29
v 54.466 0 -82.144
v 73.1 0 -41.49
v 71.404 0 -47.155
v 39.192 0 -23.051
v 38.494 0 -22.237
v 23.503 0 -45.727
v 30.198 0 -71.064
v 41.145 0 -80.978
v 54 0 -82.234
v 71.807 0 -46.046
v 56.839 0 -32.532
v 38.96 0 -23.19
v 38.559 0 -22.444
v 23.13 0 -58.155
v 30.289 0 -71.146
v 30.372 0 -71.223
v 43.424 0 -81.137
v 53.55 0 -82.4
v 72.794 0 -42.633
v 72.162 0 -44.917
v 55.74 0 -35.9
v 38.826 0 -23.025
v 38.631 0 -22.647
v 23.705 0 -45.576
v 23.285 0 -58.325
v 42.07 0 -80.63
v 52.969 0 -84.199
v 72.487 0 -43.778
v 55.208 0 -37.477
v 38.718 0 -22.843
v 23.89 0 -45.396
v 23.43 0 -58.49
v 42.748 0 -80.88
v 24.063 0 -45.204
v 23.972 0 -59.214
v 68.652 0 -57.416
v 59.493 0 -64.257
v 41.282 0 -32.358
v 24.23 0 -45.02
v 24.482 0 -59.96
v 52.91 0 -83.54
v 59.754 0 -65.924
v 41.947 0 -34.244
v 52.904 0 -83.308
v 54.666 0 -39.047
v 42.618 0 -36.127
v 52.951 0 -83.084
v 53.352 0 -82.528
v 43.293 0 -38.009
v 53.182 0 -82.689
v 54.106 0 -40.609
v 43.973 0 -39.89
v 32.46 0 -33.901
v 53.046 0 -82.876
v 44.66 0 -41.77
v 32.5 0 -33.793
v 35.893 0 -47.303
v 60.202 0 -68.414
v 45.001 0 -42.658
v 35.165 0 -44.506
v 53.521 0 -42.159
v 45.349 0 -43.541
v 31.746 0 -44.886
v 34.43 0 -41.71
v 52.901 0 -43.697
v 45.71 0 -44.419
v 32.633 0 -43.82
v 60.599 0 -69.233
v 60.272 0 -68.68
v 46.091 0 -45.289
v 60.538 0 -69.245
v 52.24 0 -45.22
v 46.499 0 -46.149
v 33.526 0 -42.76
v 60.48 0 -69.2
v 60.362 0 -68.943
v 51.946 0 -45.832
v 51.644 0 -46.442
v 46.94 0 -47
v 51.325 0 -47.042
v 47.167 0 -47.39
v 50.976 0 -47.624
v 47.405 0 -47.78
v 50.584 0 -48.18
v 47.662 0 -48.158
v 50.14 0 -48.7
v 49.939 0 -48.887
v 47.948 0 -48.51
v 49.704 0 -49.032
v 48.271 0 -48.825
v 49.446 0 -49.131
v 48.64 0 -49.09
v 49.176 0 -49.178
v 48.903 0 -49.166
v 18.813 10 -53.444
v 27.381 10 -53.164
v 26.75 10 -53.37
v 28.012 10 -52.962
v 29.274 10 -52.561
v 28.644 10 -52.763
v 30.53 10 -52.14
v 29.903 10 -52.355
v 30.733 10 -52.063
v 30.65 10 -52.117
v 30.804 10 -51.887
v 30.782 10 -51.984
v 30.78 10 -51.67
v 30.802 10 -51.781
v 30.258 10 -50.467
v 30.528 10 -51.065
v 29.682 10 -49.283
v 29.974 10 -49.874
v 29.1 10 -48.1
v 30.864 10 -45.957
v 29.983 10 -47.029
v 37.337 10 -52.9
v 38.78 10 -58.5
v 38.057 10 -55.7
v 36.51 10 -68.32
v 36.71 10 -67.45
v 28.367 10 -55.865
v 18.635 10 -55.39
v 18.724 10 -54.417
v 18.47 10 -57.336
v 18.55 10 -56.363
v 20.14 10 -59.4
v 18.4 10 -58.31
v 20.35 10 -59.5
v 20.25 10 -59.485
v 20.53 10 -59.393
v 20.442 10 -59.464
v 20.7 10 -59.22
v 21.217 10 -58.722
v 20.96 10 -58.976
v 25.448 10 -61.493
v 26.4 10 -63.03
v 25.921 10 -62.265
v 25.676 10 -66.955
v 25.49 10 -66.68
v 26.052 10 -67.503
v 25.863 10 -67.229
v 26.436 10 -68.043
v 26.243 10 -67.774
v 26.63 10 -68.31
v 26.923 10 -68.736
v 26.772 10 -68.526
v 27.253 10 -69.134
v 27.084 10 -68.939
v 27.618 10 -69.5
v 27.432 10 -69.321
v 28.015 10 -69.831
v 27.813 10 -69.67
v 28.44 10 -70.125
v 28.224 10 -69.983
v 28.89 10 -70.38
v 28.662 10 -70.258
v 32.383 10 -74.985
v 31.985 10 -76.955
v 32.184 10 -75.97
v 31.6 10 -78.925
v 31.79 10 -77.94
v 31.339 10 -80.41
v 31.42 10 -79.91
v 31.202 10 -81.427
v 31.26 10 -80.917
v 31.233 10 -82.438
v 31.187 10 -81.936
v 31.513 10 -83.217
v 31.36 10 -82.93
v 31.999 10 -83.603
v 31.731 10 -83.44
v 32.614 10 -83.755
v 32.299 10 -83.706
v 33.544 10 -83.667
v 32.93 10 -83.75
v 34.741 10 -83.369
v 34.147 10 -83.536
v 35.915 10 -82.974
v 35.33 10 -83.177
v 37.433 10 -82.426
v 36.5 10 -82.77
v 39.292 10 -81.704
v 38.364 10 -82.069
v 44.772 10 -81.663
v 46.12 10 -82.19
v 45.446 10 -81.928
v 46.162 10 -87.746
v 46.16 10 -87.63
v 46.067 10 -88.093
v 45.684 10 -88.091
v 45.94 10 -88.08
v 45.248 10 -88.308
v 45.454 10 -88.172
v 44.898 10 -88.678
v 45.063 10 -88.481
v 44.41 10 -89.48
v 44.75 10 -88.88
v 43.866 10 -90.753
v 44.12 10 -90.107
v 43.406 10 -92.071
v 43.633 10 -91.41
v 43.201 10 -92.848
v 43.17 10 -92.73
v 43.307 10 -93.079
v 43.249 10 -92.964
v 43.434 10 -93.306
v 43.968 10 -94.392
v 43.49 10 -93.42
v 44.92 10 -97.484
v 45.4 10 -99.59
v 45.159 10 -98.539
v 45.444 10 -99.827
v 45.413 10 -99.718
v 45.573 10 -99.973
v 45.496 10 -99.914
v 45.81 10 -99.99
v 45.676 10 -100
v 46.577 10 -99.949
v 46.194 10 -99.972
v 47.343 10 -99.891
v 46.96 10 -99.921
v 47.726 10 -99.861
v 49.288 10 -99.733
v 48.11 10 -99.83
v 51.647 10 -99.533
v 50.468 10 -99.641
v 53.987 10 -99.192
v 52.822 10 -99.389
v 55.519 10 -98.812
v 55.14 10 -98.92
v 56.175 10 -98.414
v 55.862 10 -98.638
v 56.737 10 -97.879
v 56.464 10 -98.156
v 56.2 10 -93.62
v 57 10 -97.6
v 55.7 10 -91.442
v 55.966 10 -92.527
v 55.043 10 -89.311
v 55.395 10 -90.369
v 54.17 10 -87.26
v 54.637 10 -88.273
v 59.886 10 -82.919
v 62.204 10 -83.469
v 61.044 10 -83.201
v 63.647 10 -83.729
v 63.37 10 -83.7
v 64.223 10 -83.764
v 63.934 10 -83.756
v 64.778 10 -83.662
v 64.506 10 -83.738
v 65.198 10 -83.375
v 65.03 10 -83.52
v 65.376 10 -82.994
v 65.31 10 -83.196
v 65.411 10 -82.556
v 65.406 10 -82.777
v 65.294 10 -81.424
v 65.4 10 -82.34
v 65.009 10 -79.609
v 65.161 10 -80.514
v 64.68 10 -77.804
v 64.846 10 -78.706
v 64.52 10 -76.9
v 65.652 10 -74.875
v 65.087 10 -75.888
v 71.456 10 -66.762
v 72.2 10 -61.83
v 72.2 10 -65.99
v 72.83 10 -60.722
v 74.082 10 -58.499
v 73.461 10 -59.613
v 75.249 10 -56.233
v 74.682 10 -57.374
v 75.903 10 -54.73
v 75.77 10 -55.07
v 76.073 10 -54.022
v 76.003 10 -54.38
v 76.129 10 -53.295
v 76.114 10 -53.66
v 76.481 10 -52.929
v 77.204 10 -52.929
v 76.842 10 -52.931
v 77.923 10 -52.885
v 77.564 10 -52.916
v 78.548 10 -52.76
v 78.28 10 -52.83
v 79.014 10 -52.44
v 78.8 10 -52.627
v 79.249 10 -51.947
v 79.17 10 -52.21
v 79.053 10 -51.209
v 79.23 10 -51.66
v 78.497 10 -50.434
v 78.801 10 -50.806
v 78.187 10 -45.283
v 78.843 10 -41.217
v 78.516 10 -43.25
v 79.47 10 -37.15
v 79.162 10 -39.184
v 80.267 10 -31.604
v 79.883 10 -34.378
v 80.963 10 -26.046
v 80.625 10 -28.826
v 81.6 10 -20.48
v 81.287 10 -23.264
v 81.269 10 -18.943
v 81.437 10 -19.711
v 80.927 10 -17.407
v 81.099 10 -18.175
v 80.757 10 -16.639
v 80.538 10 -15.686
v 80.59 10 -15.87
v 80.501 10 -15.497
v 80.419 10 -15.129
v 80.466 10 -15.31
v 80.23 10 -14.81
v 80.345 10 -14.961
v 80.074 10 -14.647
v 80.153 10 -14.683
v 79.909 10 -14.757
v 79.993 10 -14.679
v 79.74 10 -14.96
v 79.825 10 -14.858
v 79.572 10 -15.519
v 79.651 10 -15.237
v 79.431 10 -16.088
v 79.5 10 -15.802
v 79.362 10 -16.374
v 78.268 10 -20.801
v 79.29 10 -16.66
v 70.595 10 -48.298
v 70.34 10 -48.298
v 70.467 10 -48.296
v 69.816 10 -48.333
v 68.99 10 -48.4
v 69.402 10 -48.356
v 68.217 10 -48.641
v 68.591 10 -48.488
v 67.716 10 -49.052
v 67.88 10 -48.88
v 67.591 10 -49.484
v 67.621 10 -49.259
v 67.71 10 -49.925
v 67.622 10 -49.711
v 68 10 -50.286
v 67.85 10 -50.11
v 68.393 10 -50.49
v 68.184 10 -50.409
v 68.845 10 -50.561
v 68.616 10 -50.537
v 68.822 10 -54.95
v 68.69 10 -57.14
v 68.756 10 -56.045
v 68.498 10 -57.647
v 68.32 10 -57.87
v 68.406 10 -57.758
v 66.591 10 -60.133
v 67.447 10 -58.995
v 64.945 10 -62.454
v 65.756 10 -61.285
v 63.41 10 -64.85
v 64.162 10 -63.641
v 62.57 10 -66.241
v 62.986 10 -65.541
v 60.82 10 -69
v 60.721 10 -69.114
v 60.775 10 -69.047
v 60.144 10 -68.143
v 60.03 10 -67.59
v 60.09 10 -67.868
v 59.243 10 -62.59
v 58.751 10 -59.256
v 58.997 10 -60.923
v 58.5 10 -57.59
v 60.496 10 -50.639
v 59.519 10 -54.122
v 62.337 10 -43.637
v 61.435 10 -47.144
v 64.04 10 -36.6
v 63.205 10 -40.122
v 64.644 10 -36.142
v 64.342 10 -36.371
v 65.219 10 -35.655
v 64.939 10 -35.905
v 65.71 10 -35.09
v 65.479 10 -35.385
v 66.396 10 -33.71
v 66.096 10 -34.418
v 66.817 10 -32.223
v 66.63 10 -32.975
v 67.13 10 -30.71
v 66.978 10 -31.465
v 67.16 10 -30.508
v 67.243 10 -30.094
v 67.202 10 -30.302
v 67.265 10 -29.676
v 67.268 10 -29.885
v 67.015 10 -29.293
v 67.22 10 -29.47
v 66.558 10 -28.979
v 66.79 10 -29.133
v 67.674 10 -27.516
v 68.544 10 -27.526
v 68.109 10 -27.521
v 68.98 10 -9.97
v 68.98 10 -27.52
v 70.05 10 -7.602
v 71.124 10 -5.231
v 70.588 10 -6.418
v 72.18 10 -2.85
v 71.655 10 -4.043
v 71.778 10 -2.554
v 70.976 10 -1.956
v 71.379 10 -2.252
v 70.138 10 -1.429
v 70.564 10 -1.678
v 68.894 10 -0.987
v 69.69 10 -1.22
v 67.257 10 -0.731
v 68.081 10 -0.825
v 65.601 10 -0.732
v 66.429 10 -0.701
v 64.321 10 -0.905
v 64.78 10 -0.82
v 63.461 10 -1.246
v 63.883 10 -1.052
v 62.658 10 -1.724
v 63.054 10 -1.475
v 62.245 10 -4.256
v 62.27 10 -1.98
v 62.197 10 -8.81
v 62.22 10 -6.533
v 62.17 10 -13.364
v 62.18 10 -11.087
v 62.17 10 -15.64
v 60.05 10 -22.401
v 61.108 10 -19.021
v 40.774 10 -30.174
v 40.918 10 -29.99
v 40.847 10 -30.081
v 40.98 10 -29.9
v 41.795 10 -28.81
v 41.391 10 -29.358
v 42.578 10 -27.696
v 42.191 10 -28.256
v 43.329 10 -26.56
v 42.958 10 -27.131
v 44.047 10 -25.404
v 43.692 10 -25.985
v 44.73 10 -24.226
v 44.393 10 -24.817
v 45.38 10 -23.03
v 45.06 10 -23.631
v 46.116 10 -21.638
v 45.752 10 -22.336
v 46.818 10 -20.229
v 46.471 10 -20.936
v 47.488 10 -18.804
v 47.157 10 -19.519
v 48.123 10 -17.364
v 47.809 10 -18.086
v 48.724 10 -15.909
v 48.427 10 -16.638
v 49.29 10 -14.44
v 49.011 10 -15.176
v 49.4 10 -14.098
v 49.612 10 -13.399
v 49.511 10 -13.75
v 49.739 10 -12.683
v 49.692 10 -13.043
v 49.693 10 -12.135
v 49.74 10 -12.32
v 49.432 10 -11.899
v 49.584 10 -11.993
v 49.072 10 -11.873
v 49.256 10 -11.857
v 48.552 10 -12.205
v 48.9 10 -11.95
v 47.914 10 -12.78
v 48.226 10 -12.484
v 47.312 10 -13.395
v 47.611 10 -13.086
v 45.783 10 -15.027
v 47.01 10 -13.7
v 43.412 10 -17.755
v 44.584 10 -16.379
v 41.155 10 -20.576
v 42.269 10 -19.154
v 40.07 10 -22.02
v 39.742 10 -22.45
v 39.904 10 -22.23
v 37.545 10 -18.402
v 36.98 10 -15.972
v 37.263 10 -17.187
v 36.69 10 -14.76
v 36.66 10 -9.56
v 37.89 10 -11.52
v 37.042 10 -7.492
v 36.852 10 -8.526
v 37.398 10 -5.421
v 37.226 10 -6.457
v 37.68 10 -3.34
v 37.551 10 -4.383
v 37.746 10 -2.351
v 37.722 10 -2.851
v 37.657 10 -1.362
v 37.731 10 -1.851
v 37.25 10 -0.46
v 37.503 10 -0.895
v 36.872 10 -0.126
v 37.081 10 -0.261
v 36.378 10 -0.01
v 36.634 10 -0.046
v 35.86 10 -0.03
v 36.116 10 -0.008
v 34.281 10 -0.251
v 35.07 10 -0.135
v 32.706 10 -0.519
v 33.493 10 -0.379
v 31.14 10 -0.84
v 31.922 10 -0.672
v 30.167 10 -1.111
v 30.656 10 -0.965
v 29.243 10 -1.529
v 29.69 10 -1.294
v 28.51 10 -2.22
v 28.844 10 -1.832
v 28.163 10 -2.993
v 28.3 10 -2.595
v 28.064 10 -3.833
v 28.087 10 -3.409
v 28.13 10 -4.68
v 28.082 10 -4.26
v 28.499 10 -7.019
v 28.301 10 -5.852
v 28.938 10 -9.341
v 28.714 10 -8.181
v 29.094 10 -17.716
v 28.94 10 -20.75
v 29.016 10 -19.232
v 28.826 10 -23.01
v 28.88 10 -21.88
v 28.645 10 -26.394
v 31.66 10 -27.52
v 28.56 10 -27.52
v 32.506 10 -33.673
v 32.47 10 -33.54
v 32.307 10 -34.093
v 31.346 10 -35.1
v 32.21 10 -34.18
v 29.714 10 -37.022
v 30.514 10 -36.048
v 28.212 10 -39.045
v 28.946 10 -38.022
v 26.968 10 -40.918
v 27.51 10 -40.09
v 25.919 10 -42.592
v 26.442 10 -41.755
v 22.535 10 -45.432
v 22.261 10 -45.075
v 22.401 10 -45.251
v 21.798 10 -44.689
v 22.1 10 -44.92
v 21.093 10 -44.432
v 21.458 10 -44.53
v 20.327 10 -44.382
v 20.712 10 -44.387
v 19.815 10 -44.43
v 19.95 10 -44.41
v 19.601 10 -44.496
v 19.693 10 -44.457
v 19.577 10 -44.645
v 19.557 10 -44.557
v 19.68 10 -44.77
v 20.095 10 -45.291
v 19.874 10 -45.041
v 19.584 10 -51.717
v 18.9 10 -52.47
v 19.238 10 -52.09
v 29.389 10 -48.693
v 36.616 10 -50.101
v 29.989 10 -58.359
v 20.615 10 -59.306
v 21.476 10 -58.47
v 24.971 10 -60.722
v 40.219 10 -81.338
v 44.099 10 -81.399
v 46.17 10 -87.864
v 70.719 10 -67.542
v 78.169 10 -50.078
v 77.25 10 -24.944
v 70.22 10 -48.31
v 69.07 10 -50.57
v 68.691 10 -57.286
v 62.153 10 -66.944
v 60.661 10 -69.183
v 69.513 10 -8.786
v 29.171 10 -16.201
v 28.772 10 -24.139
v 28.714 10 -25.267
v 20.33 10 -45.533
v 19.929 10 -51.341
v 31.615 10 -60.853
v 29.077 10 -70.411
v 32.58 10 -74
v 53.886 10 -86.668
v 58.726 10 -82.646
v 69.999 10 -68.338
v 76.12 10 -52.93
v 77.842 10 -49.722
v 77.86 10 -47.316
v 76.229 10 -29.086
v 70.72 10 -48.294
v 68.887 10 -53.855
v 67.241 10 -27.522
v 32.393 10 -34.001
v 22.676 10 -45.606
v 33.244 10 -63.344
v 29.257 10 -70.463
v 46.137 10 -88.052
v 43.371 10 -93.192
v 44.659 10 -96.434
v 69.304 10 -69.154
v 68.951 10 -52.76
v 68.584 10 -57.535
v 66.33 10 -28.817
v 66.813 10 -27.55
v 29.163 10 -10.501
v 20.565 10 -45.775
v 20.263 10 -50.957
v 34.876 10 -65.833
v 53.601 10 -86.069
v 57.558 10 -82.405
v 68.645 10 -70
v 77.54 10 -49.35
v 70.837 10 -48.277
v 66.39 10 -27.61
v 40.707 10 -30.269
v 39.575 10 -22.669
v 29.246 10 -14.688
v 25.385 10 -43.422
v 22.836 10 -45.757
v 20.786 10 -46.031
v 20.577 10 -50.555
v 21.747 10 -58.231
v 29.43 10 -70.534
v 32.241 10 -73.535
v 44.35 10 -95.4
v 53.338 10 -85.46
v 56.38 10 -82.22
v 68.03 10 -70.88
v 61.727 10 -67.642
v 66.12 10 -28.635
v 66.223 10 -27.678
v 29.316 10 -13.174
v 24.826 10 -44.234
v 23.03 10 -45.87
v 20.86 10 -50.13
v 22.035 10 -58.017
v 29.597 10 -70.62
v 31.901 10 -73.071
v 53.119 10 -84.838
v 55.905 10 -82.169
v 67.405 10 -71.863
v 70.94 10 -48.24
v 61.285 10 -68.329
v 66.067 10 -27.787
v 40.653 10 -30.367
v 29.38 10 -11.66
v 21.14 10 -49.532
v 22.35 10 -57.84
v 29.757 10 -70.72
v 31.555 10 -72.611
v 46.166 10 -87.971
v 66.804 10 -72.859
v 69.013 10 -51.665
v 65.94 10 -28.42
v 65.94 10 -27.925
v 58.989 10 -25.781
v 37.83 10 -19.616
v 20.98 10 -46.31
v 21.333 10 -48.891
v 22.574 10 -57.821
v 29.91 10 -70.83
v 31.199 10 -72.159
v 55.424 10 -82.129
v 66.223 10 -73.864
v 75.2 10 -33.226
v 65.857 10 -28.252
v 65.863 10 -28.083
v 57.92 10 -29.159
v 40.62 10 -30.47
v 38.123 10 -20.826
v 23.28 10 -45.831
v 21.426 10 -48.228
v 22.777 10 -57.882
v 30.003 10 -70.901
v 30.829 10 -71.718
v 54.943 10 -82.115
v 74.159 10 -37.361
v 39.394 10 -22.873
v 38.43 10 -22.03
v 21.262 10 -46.917
v 21.407 10 -47.563
v 22.961 10 -58
v 30.101 10 -70.98
v 30.44 10 -71.29
v 54.466 10 -82.144
v 73.1 10 -41.49
v 71.404 10 -47.155
v 39.192 10 -23.051
v 38.494 10 -22.237
v 23.503 10 -45.727
v 30.198 10 -71.064
v 41.145 10 -80.978
v 54 10 -82.234
v 71.807 10 -46.046
v 56.839 10 -32.532
v 38.96 10 -23.19
v 38.559 10 -22.444
v 23.13 10 -58.155
v 30.289 10 -71.146
v 30.372 10 -71.223
v 43.424 10 -81.137
v 53.55 10 -82.4
v 72.794 10 -42.633
v 72.162 10 -44.917
v 55.74 10 -35.9
v 38.826 10 -23.025
v 38.631 10 -22.647
v 23.705 10 -45.576
v 23.285 10 -58.325
v 42.07 10 -80.63
v 52.969 10 -84.199
v 72.487 10 -43.778
v 55.208 10 -37.477
v 38.718 10 -22.843
v 23.89 10 -45.396
v 23.43 10 -58.49
v 42.748 10 -80.88
v 24.063 10 -45.204
v 23.972 10 -59.214
v 68.652 10 -57.416
v 59.493 10 -64.257
v 41.282 10 -32.358
v 24.23 10 -45.02
v 24.482 10 -59.96
v 52.91 10 -83.54
v 59.754 10 -65.924
v 41.947 10 -34.244
v 52.904 10 -83.308
v 54.666 10 -39.047
v 42.618 10 -36.127
v 52.951 10 -83.084
v 53.352 10 -82.528
v 43.293 10 -38.009
v 53.182 10 -82.689
v 54.106 10 -40.609
v 43.973 10 -39.89
v 32.46 10 -33.901
v 53.046 10 -82.876
v 44.66 10 -41.77
v 32.5 10 -33.793
v 35.893 10 -47.303
v 60.202 10 -68.414
v 45.001 10 -42.658
v 35.165 10 -44.506
v 53.521 10 -42.159
v 45.349 10 -43.541
v 31.746 10 -44.886
v 34.43 10 -41.71
v 52.901 10 -43.697
v 45.71 10 -44.419
v 32.633 10 -43.82
v 60.599 10 -69.233
v 60.272 10 -68.68
v 46.091 10 -45.289
v 60.538 10 -69.245
v 52.24 10 -45.22
v 46.499 10 -46.149
v 33.526 10 -42.76
v 60.48 10 -69.2
v 60.362 10 -68.943
v 51.946 10 -45.832
v 51.644 10 -46.442
v 46.94 10 -47
v 51.325 10 -47.042
v 47.167 10 -47.39
v 50.976 10 -47.624
v 47.405 10 -47.78
v 50.584 10 -48.18
v 47.662 10 -48.158
v 50.14 10 -48.7
v 49.939 10 -48.887
v 47.948 10 -48.51
v 49.704 10 -49.032
v 48.271 10 -48.825
v 49.446 10 -49.131
v 48.64 10 -49.09
v 49.176 10 -49.178
v 48.903 10 -49.166
f 1 2 3
f 4 5 6
f 7 4 8
f 9 7 10
f 11 9 12
f 13 11 14
f 15 13 16
f 17 15 18
f 19 20 21
f 22 23 24
f 25 22 26
f 2 27 3
f 28 2 29
f 30 28 31
f 32 30 33
f 34 32 35
f 36 34 37
f 38 39 40
f 41 42 43
f 44 41 45
f 46 44 47
f 48 46 49
f 50 51 52
f 53 50 54
f 55 53 56
f 57 55 58
f 59 57 60
f 61 59 62
f 63 64 65
f 66 63 67
f 68 66 69
f 70 68 71
f 72 70 73
f 74 72 75
f 76 74 77
f 78 76 79
f 80 78 81
f 82 80 83
f 84 82 85
f 86 84 87
f 88 86 89
f 90 91 92
f 93 90 94
f 95 96 97
f 98 95 99
f 100 98 101
f 102 100 103
f 104 102 105
f 106 104 107
f 108 106 109
f 110 108 111
f 112 113 114
f 115 116 117
f 118 115 119
f 120 118 121
f 122 120 123
f 124 122 125
f 126 124 127
f 128 129 130
f 131 128 132
f 133 131 134
f 135 133 136
f 137 135 138
f 139 137 140
f 141 139 142
f 143 141 144
f 145 143 146
f 147 145 148
f 149 150 151
f 152 149 153
f 154 152 155
f 156 154 157
f 158 156 159
f 160 158 161
f 162 160 163
f 164 162 165
f 166 164 167
f 168 166 169
f 170 171 172
f 173 174 175
f 176 177 178
f 179 176 180
f 181 179 182
f 183 181 184
f 185 183 186
f 187 188 189
f 190 187 191
f 192 190 193
f 194 192 195
f 196 194 197
f 198 196 199
f 200 198 201
f 202 203 204
f 205 202 206
f 207 205 208
f 209 207 210
f 211 209 212
f 213 211 214
f 215 213 216
f 217 218 219
f 220 221 222
f 223 220 224
f 225 223 226
f 227 225 228
f 229 227 230
f 231 229 232
f 233 231 234
f 235 236 237
f 238 239 240
f 241 242 243
f 244 241 245
f 246 244 247
f 248 246 249
f 250 248 251
f 252 250 253
f 254 252 255
f 256 254 257
f 258 259 260
f 261 262 263
f 264 261 265
f 266 264 267
f 268 266 269
f 270 268 271
f 272 273 274
f 275 276 277
f 278 279 280
f 281 282 283
f 284 281 285
f 286 284 287
f 288 286 289
f 290 288 291
f 292 290 293
f 294 292 295
f 296 294 297
f 298 296 299
f 300 301 302
f 303 300 304
f 305 303 306
f 307 305 308
f 309 310 311
f 312 309 313
f 314 315 316
f 317 314 318
f 319 320 321
f 322 319 323
f 324 322 325
f 326 324 327
f 328 326 329
f 330 328 331
f 332 330 333
f 334 332 335
f 336 334 337
f 338 336 339
f 340 338 341
f 342 343 344
f 345 346 347
f 348 349 350
f 351 348 352
f 353 351 354
f 355 353 356
f 357 355 358
f 359 357 360
f 361 359 362
f 363 361 364
f 365 363 366
f 367 365 368
f 369 367 370
f 371 369 372
f 373 374 375
f 376 373 377
f 378 376 379
f 380 378 381
f 382 380 383
f 384 382 385
f 386 384 387
f 388 386 389
f 390 388 391
f 392 390 393
f 394 392 395
f 396 397 398
f 399 400 401
f 402 403 404
f 405 402 406
f 407 405 408
f 409 407 410
f 411 409 412
f 413 411 414
f 415 413 416
f 417 415 418
f 419 417 420
f 421 419 422
f 423 421 424
f 425 423 426
f 427 425 428
f 429 427 430
f 431 429 432
f 433 431 434
f 435 433 436
f 437 435 438
f 439 437 440
f 441 439 442
f 443 441 444
f 445 446 447
f 448 445 449
f 450 451 452
f 453 450 454
f 455 456 457
f 458 455 459
f 460 458 461
f 462 460 463
f 464 462 465
f 466 467 468
f 469 466 470
f 471 469 472
f 473 471 474
f 475 473 476
f 477 475 478
f 479 477 480
f 481 482 483
f 484 485 486
f 1 484 2
f 7 5 4
f 11 7 9
f 15 11 13
f 487 15 17
f 22 488 23
f 2 489 27
f 30 2 28
f 34 30 32
f 490 34 36
f 491 39 38
f 41 492 42
f 46 41 44
f 51 46 48
f 53 51 50
f 57 53 55
f 61 57 59
f 66 64 63
f 70 66 68
f 74 70 72
f 78 74 76
f 82 78 80
f 86 82 84
f 493 86 88
f 90 494 91
f 495 90 93
f 98 96 95
f 102 98 100
f 106 102 104
f 110 106 108
f 120 115 118
f 124 120 122
f 129 124 126
f 131 129 128
f 135 131 133
f 139 135 137
f 143 139 141
f 147 143 145
f 152 150 149
f 156 152 154
f 160 156 158
f 164 160 162
f 168 164 166
f 173 496 174
f 176 173 177
f 181 176 179
f 185 181 183
f 190 188 187
f 194 190 192
f 198 194 196
f 497 198 200
f 205 203 202
f 209 205 207
f 213 209 211
f 217 215 218
f 220 217 221
f 225 220 223
f 229 225 227
f 233 229 231
f 498 236 235
f 499 239 238
f 241 499 242
f 246 241 244
f 250 246 248
f 254 250 252
f 500 254 256
f 501 259 258
f 264 262 261
f 268 264 266
f 502 268 270
f 503 273 272
f 282 279 278
f 284 282 281
f 290 286 288
f 294 290 292
f 298 294 296
f 303 301 300
f 307 303 305
f 312 310 309
f 314 504 315
f 320 314 317
f 322 320 319
f 326 322 324
f 330 326 328
f 334 330 332
f 338 334 336
f 343 338 340
f 349 346 345
f 351 349 348
f 355 351 353
f 359 355 357
f 363 359 361
f 367 363 365
f 371 367 369
f 373 371 374
f 378 373 376
f 382 378 380
f 386 382 384
f 390 386 388
f 394 390 392
f 403 400 399
f 407 402 405
f 411 407 409
f 415 411 413
f 419 415 417
f 423 419 421
f 427 423 425
f 431 427 429
f 435 431 433
f 439 435 437
f 443 439 441
f 445 505 446
f 506 445 448
f 450 507 451
f 458 456 455
f 462 458 460
f 469 467 466
f 473 469 471
f 477 473 475
f 482 477 479
f 508 482 481
f 484 509 485
f 5 484 1
f 11 5 7
f 487 11 15
f 2 510 489
f 34 2 30
f 39 34 490
f 51 41 46
f 57 51 53
f 511 57 61
f 66 512 64
f 74 66 70
f 82 74 78
f 493 82 86
f 102 96 98
f 110 102 106
f 120 116 115
f 129 120 124
f 135 129 131
f 143 135 139
f 513 143 147
f 152 514 150
f 160 152 156
f 168 160 164
f 173 515 496
f 181 173 176
f 516 181 185
f 190 516 188
f 198 190 194
f 517 198 497
f 205 518 203
f 213 205 209
f 217 213 215
f 225 217 220
f 233 225 229
f 519 236 498
f 499 520 239
f 246 499 241
f 254 246 250
f 501 521 259
f 268 262 264
f 286 282 284
f 294 286 290
f 301 294 298
f 307 301 303
f 312 522 310
f 320 504 314
f 326 320 322
f 334 326 330
f 343 334 338
f 351 346 349
f 359 351 355
f 367 359 363
f 373 367 371
f 382 373 378
f 390 382 386
f 397 390 394
f 411 402 407
f 419 411 415
f 427 419 423
f 435 427 431
f 443 435 439
f 506 505 445
f 450 506 507
f 458 523 456
f 464 458 462
f 469 524 467
f 477 469 473
f 508 477 482
f 5 509 484
f 487 5 11
f 2 525 510
f 39 2 34
f 57 41 51
f 526 57 511
f 74 512 66
f 493 74 82
f 102 527 96
f 528 102 110
f 120 529 116
f 135 120 129
f 513 135 143
f 160 514 152
f 171 160 168
f 173 530 515
f 516 173 181
f 198 516 190
f 213 518 205
f 225 213 217
f 236 225 233
f 246 520 499
f 500 246 254
f 501 531 521
f 268 532 262
f 301 286 294
f 533 301 307
f 312 534 522
f 320 312 504
f 334 320 326
f 359 346 351
f 373 359 367
f 390 373 382
f 396 390 397
f 419 402 411
f 435 419 427
f 535 435 443
f 450 505 506
f 464 523 458
f 477 524 469
f 536 477 508
f 5 537 509
f 20 5 487
f 2 538 525
f 491 2 39
f 526 41 57
f 493 512 74
f 528 527 102
f 135 529 120
f 539 135 513
f 160 540 514
f 173 541 530
f 517 516 198
f 213 542 518
f 236 213 225
f 246 543 520
f 502 532 268
f 533 286 301
f 312 544 534
f 334 312 320
f 359 545 346
f 390 359 373
f 546 390 396
f 419 403 402
f 535 419 435
f 450 547 505
f 548 523 464
f 477 549 524
f 550 477 536
f 5 551 537
f 2 25 538
f 552 2 491
f 553 41 526
f 493 554 512
f 113 527 528
f 135 555 529
f 556 135 539
f 160 557 540
f 173 558 541
f 542 516 517
f 236 542 213
f 500 543 246
f 559 532 502
f 560 286 533
f 312 561 544
f 343 312 334
f 390 545 359
f 535 403 419
f 450 562 547
f 563 523 548
f 477 564 549
f 5 565 551
f 566 2 552
f 567 41 553
f 493 568 554
f 112 527 113
f 135 112 555
f 569 135 556
f 160 570 557
f 173 571 558
f 542 173 516
f 519 542 236
f 500 572 543
f 573 532 559
f 560 282 286
f 312 574 561
f 342 312 343
f 390 575 545
f 535 400 403
f 450 576 562
f 550 564 477
f 5 577 565
f 578 2 566
f 579 41 567
f 493 580 568
f 112 581 527
f 569 112 135
f 171 570 160
f 173 582 571
f 519 173 542
f 583 572 500
f 584 282 560
f 312 585 574
f 586 312 342
f 546 575 390
f 535 587 400
f 588 564 550
f 5 589 577
f 590 2 578
f 591 41 579
f 493 592 580
f 569 581 112
f 171 593 570
f 173 594 582
f 595 173 519
f 531 572 583
f 596 282 584
f 312 597 585
f 598 312 586
f 546 599 575
f 535 600 587
f 588 601 564
f 5 602 589
f 603 2 590
f 604 41 591
f 493 605 592
f 569 495 581
f 171 606 593
f 173 170 594
f 607 173 595
f 501 572 531
f 597 282 596
f 598 597 312
f 608 599 546
f 535 609 600
f 610 601 588
f 5 611 602
f 612 2 603
f 613 41 604
f 493 614 605
f 569 90 495
f 171 615 606
f 173 171 170
f 616 173 607
f 501 617 572
f 598 282 597
f 618 599 608
f 535 619 609
f 610 620 601
f 5 610 611
f 612 25 2
f 621 41 613
f 622 614 493
f 569 494 90
f 171 623 615
f 616 171 173
f 501 624 617
f 625 282 598
f 626 599 618
f 535 627 619
f 5 620 610
f 628 25 612
f 629 41 621
f 622 630 614
f 569 631 494
f 171 632 623
f 633 171 616
f 501 634 624
f 635 282 625
f 636 599 626
f 535 637 627
f 5 638 620
f 639 25 628
f 630 41 629
f 640 630 622
f 641 631 569
f 642 171 633
f 501 642 634
f 643 282 635
f 644 599 636
f 535 644 637
f 5 645 638
f 646 25 639
f 640 41 630
f 641 647 631
f 501 171 642
f 643 279 282
f 535 599 644
f 5 648 645
f 649 25 646
f 640 492 41
f 641 640 647
f 650 171 501
f 643 651 279
f 535 652 599
f 5 653 648
f 654 25 649
f 640 654 492
f 655 640 641
f 532 171 650
f 643 656 651
f 535 657 652
f 5 563 653
f 640 25 654
f 658 640 655
f 532 632 171
f 659 656 643
f 535 660 657
f 20 563 5
f 640 22 25
f 661 640 658
f 532 662 632
f 659 275 656
f 535 663 660
f 20 523 563
f 661 22 640
f 532 664 662
f 665 275 659
f 535 666 663
f 20 667 523
f 661 488 22
f 532 668 664
f 665 276 275
f 535 669 666
f 20 670 667
f 661 671 488
f 573 668 532
f 665 672 276
f 535 673 669
f 19 670 20
f 661 674 671
f 273 668 573
f 675 672 665
f 535 676 673
f 677 670 19
f 661 678 674
f 503 668 273
f 679 672 675
f 535 680 676
f 681 670 677
f 668 678 661
f 682 668 503
f 679 683 672
f 535 684 680
f 681 453 670
f 685 668 682
f 686 683 679
f 535 687 684
f 688 453 681
f 689 668 685
f 686 690 683
f 576 687 535
f 678 453 688
f 689 678 668
f 691 690 686
f 450 687 576
f 678 450 453
f 690 678 689
f 692 690 691
f 450 693 687
f 690 450 678
f 694 690 692
f 450 695 693
f 696 690 694
f 450 697 695
f 698 690 696
f 450 699 697
f 700 690 698
f 690 699 450
f 701 690 700
f 690 702 699
f 703 690 701
f 690 704 702
f 705 690 703
f 690 706 704
f 707 690 705
f 690 708 706
f 708 690 707
f 709 710 711
f 712 713 714
f 713 715 716
f 715 717 718
f 717 719 720
f 719 721 722
f 721 723 724
f 723 725 726
f 727 728 729
f 730 731 732
f 731 733 734
f 735 709 711
f 709 736 737
f 736 738 739
f 738 740 741
f 740 742 743
f 742 744 745
f 746 747 748
f 749 750 751
f 750 752 753
f 752 754 755
f 754 756 757
f 758 759 760
f 759 761 762
f 761 763 764
f 763 765 766
f 765 767 768
f 767 769 770
f 771 772 773
f 772 774 775
f 774 776 777
f 776 778 779
f 778 780 781
f 780 782 783
f 782 784 785
f 784 786 787
f 786 788 789
f 788 790 791
f 790 792 793
f 792 794 795
f 794 796 797
f 798 799 800
f 799 801 802
f 803 804 805
f 804 806 807
f 806 808 809
f 808 810 811
f 810 812 813
f 812 814 815
f 814 816 817
f 816 818 819
f 820 821 822
f 823 824 825
f 824 826 827
f 826 828 829
f 828 830 831
f 830 832 833
f 832 834 835
f 836 837 838
f 837 839 840
f 839 841 842
f 841 843 844
f 843 845 846
f 845 847 848
f 847 849 850
f 849 851 852
f 851 853 854
f 853 855 856
f 857 858 859
f 858 860 861
f 860 862 863
f 862 864 865
f 864 866 867
f 866 868 869
f 868 870 871
f 870 872 873
f 872 874 875
f 874 876 877
f 878 879 880
f 881 882 883
f 884 885 886
f 885 887 888
f 887 889 890
f 889 891 892
f 891 893 894
f 895 896 897
f 896 898 899
f 898 900 901
f 900 902 903
f 902 904 905
f 904 906 907
f 906 908 909
f 910 911 912
f 911 913 914
f 913 915 916
f 915 917 918
f 917 919 920
f 919 921 922
f 921 923 924
f 925 926 927
f 928 929 930
f 929 931 932
f 931 933 934
f 933 935 936
f 935 937 938
f 937 939 940
f 939 941 942
f 943 944 945
f 946 947 948
f 949 950 951
f 950 952 953
f 952 954 955
f 954 956 957
f 956 958 959
f 958 960 961
f 960 962 963
f 962 964 965
f 966 967 968
f 969 970 971
f 970 972 973
f 972 974 975
f 974 976 977
f 976 978 979
f 980 981 982
f 983 984 985
f 986 987 988
f 989 990 991
f 990 992 993
f 992 994 995
f 994 996 997
f 996 998 999
f 998 1000 1001
f 1000 1002 1003
f 1002 1004 1005
f 1004 1006 1007
f 1008 1009 1010
f 1009 1011 1012
f 1011 1013 1014
f 1013 1015 1016
f 1017 1018 1019
f 1018 1020 1021
f 1022 1023 1024
f 1023 1025 1026
f 1027 1028 1029
f 1028 1030 1031
f 1030 1032 1033
f 1032 1034 1035
f 1034 1036 1037
f 1036 1038 1039
f 1038 1040 1041
f 1040 1042 1043
f 1042 1044 1045
f 1044 1046 1047
f 1046 1048 1049
f 1050 1051 1052
f 1053 1054 1055
f 1056 1057 1058
f 1057 1059 1060
f 1059 1061 1062
f 1061 1063 1064
f 1063 1065 1066
f 1065 1067 1068
f 1067 1069 1070
f 1069 1071 1072
f 1071 1073 1074
f 1073 1075 1076
f 1075 1077 1078
f 1077 1079 1080
f 1081 1082 1083
f 1082 1084 1085
f 1084 1086 1087
f 1086 1088 1089
f 1088 1090 1091
f 1090 1092 1093
f 1092 1094 1095
f 1094 1096 1097
f 1096 1098 1099
f 1098 1100 1101
f 1100 1102 1103
f 1104 1105 1106
f 1107 1108 1109
f 1110 1111 1112
f 1111 1113 1114
f 1113 1115 1116
f 1115 1117 1118
f 1117 1119 1120
f 1119 1121 1122
f 1121 1123 1124
f 1123 1125 1126
f 1125 1127 1128
f 1127 1129 1130
f 1129 1131 1132
f 1131 1133 1134
f 1133 1135 1136
f 1135 1137 1138
f 1137 1139 1140
f 1139 1141 1142
f 1141 1143 1144
f 1143 1145 1146
f 1145 1147 1148
f 1147 1149 1150
f 1149 1151 1152
f 1153 1154 1155
f 1154 1156 1157
f 1158 1159 1160
f 1159 1161 1162
f 1163 1164 1165
f 1164 1166 1167
f 1166 1168 1169
f 1168 1170 1171
f 1170 1172 1173
f 1174 1175 1176
f 1175 1177 1178
f 1177 1179 1180
f 1179 1181 1182
f 1181 1183 1184
f 1183 1185 1186
f 1185 1187 1188
f 1189 1190 1191
f 1192 1193 1194
f 1193 710 709
f 712 715 713
f 715 719 717
f 719 723 721
f 723 1195 725
f 1196 731 730
f 1197 709 735
f 709 738 736
f 738 742 740
f 742 1198 744
f 746 1199 747
f 1200 750 749
f 750 754 752
f 754 758 756
f 758 761 759
f 761 765 763
f 765 769 767
f 771 774 772
f 774 778 776
f 778 782 780
f 782 786 784
f 786 790 788
f 790 794 792
f 794 1201 796
f 1202 799 798
f 799 1203 801
f 803 806 804
f 806 810 808
f 810 814 812
f 814 818 816
f 824 828 826
f 828 832 830
f 832 836 834
f 836 839 837
f 839 843 841
f 843 847 845
f 847 851 849
f 851 855 853
f 857 860 858
f 860 864 862
f 864 868 866
f 868 872 870
f 872 876 874
f 1204 882 881
f 882 885 884
f 885 889 887
f 889 893 891
f 895 898 896
f 898 902 900
f 902 906 904
f 906 1205 908
f 910 913 911
f 913 917 915
f 917 921 919
f 923 926 925
f 926 929 928
f 929 933 931
f 933 937 935
f 937 941 939
f 943 1206 944
f 946 1207 947
f 1207 950 949
f 950 954 952
f 954 958 956
f 958 962 960
f 962 1208 964
f 966 1209 967
f 969 972 970
f 972 976 974
f 976 1210 978
f 980 1211 981
f 986 989 987
f 989 992 990
f 994 998 996
f 998 1002 1000
f 1002 1006 1004
f 1008 1011 1009
f 1011 1015 1013
f 1017 1020 1018
f 1212 1023 1022
f 1023 1027 1025
f 1027 1030 1028
f 1030 1034 1032
f 1034 1038 1036
f 1038 1042 1040
f 1042 1046 1044
f 1046 1050 1048
f 1053 1056 1054
f 1056 1059 1057
f 1059 1063 1061
f 1063 1067 1065
f 1067 1071 1069
f 1071 1075 1073
f 1075 1079 1077
f 1079 1082 1081
f 1082 1086 1084
f 1086 1090 1088
f 1090 1094 1092
f 1094 1098 1096
f 1098 1102 1100
f 1107 1110 1108
f 1111 1115 1113
f 1115 1119 1117
f 1119 1123 1121
f 1123 1127 1125
f 1127 1131 1129
f 1131 1135 1133
f 1135 1139 1137
f 1139 1143 1141
f 1143 1147 1145
f 1147 1151 1149
f 1213 1154 1153
f 1154 1214 1156
f 1215 1159 1158
f 1163 1166 1164
f 1166 1170 1168
f 1174 1177 1175
f 1177 1181 1179
f 1181 1185 1183
f 1185 1189 1187
f 1189 1216 1190
f 1217 1193 1192
f 1193 712 710
f 712 719 715
f 719 1195 723
f 1218 709 1197
f 709 742 738
f 742 746 1198
f 750 758 754
f 758 765 761
f 765 1219 769
f 1220 774 771
f 774 782 778
f 782 790 786
f 790 1201 794
f 803 810 806
f 810 818 814
f 823 828 824
f 828 836 832
f 836 843 839
f 843 851 847
f 851 1221 855
f 1222 860 857
f 860 868 864
f 868 876 872
f 1223 882 1204
f 882 889 885
f 889 1224 893
f 1224 898 895
f 898 906 902
f 906 1225 1205
f 1226 913 910
f 913 921 917
f 921 926 923
f 926 933 929
f 933 941 937
f 943 1227 1206
f 1228 1207 946
f 1207 954 950
f 954 962 958
f 1229 1209 966
f 969 976 972
f 989 994 992
f 994 1002 998
f 1002 1008 1006
f 1008 1015 1011
f 1230 1020 1017
f 1212 1027 1023
f 1027 1034 1030
f 1034 1042 1038
f 1042 1050 1046
f 1053 1059 1056
f 1059 1067 1063
f 1067 1075 1071
f 1075 1082 1079
f 1082 1090 1086
f 1090 1098 1094
f 1098 1104 1102
f 1111 1119 1115
f 1119 1127 1123
f 1127 1135 1131
f 1135 1143 1139
f 1143 1151 1147
f 1213 1214 1154
f 1214 1159 1215
f 1231 1166 1163
f 1166 1172 1170
f 1232 1177 1174
f 1177 1185 1181
f 1185 1216 1189
f 1217 712 1193
f 712 1195 719
f 1233 709 1218
f 709 746 742
f 750 765 758
f 765 1234 1219
f 1220 782 774
f 782 1201 790
f 1235 810 803
f 810 1236 818
f 1237 828 823
f 828 843 836
f 843 1221 851
f 1222 868 860
f 868 878 876
f 1238 882 1223
f 882 1224 889
f 1224 906 898
f 1226 921 913
f 921 933 926
f 933 943 941
f 1228 954 1207
f 954 1208 962
f 1239 1209 1229
f 1240 976 969
f 994 1008 1002
f 1008 1241 1015
f 1242 1020 1230
f 1020 1027 1212
f 1027 1042 1034
f 1053 1067 1059
f 1067 1082 1075
f 1082 1098 1090
f 1098 1105 1104
f 1111 1127 1119
f 1127 1143 1135
f 1143 1243 1151
f 1213 1159 1214
f 1231 1172 1166
f 1232 1185 1177
f 1185 1244 1216
f 1245 712 1217
f 712 727 1195
f 1246 709 1233
f 709 1199 746
f 750 1234 765
f 1220 1201 782
f 1235 1236 810
f 1237 843 828
f 843 1247 1221
f 1248 868 1222
f 1249 882 1238
f 1224 1225 906
f 1250 921 1226
f 921 943 933
f 1251 954 1228
f 1240 1210 976
f 994 1241 1008
f 1252 1020 1242
f 1020 1042 1027
f 1253 1067 1053
f 1067 1098 1082
f 1098 1254 1105
f 1110 1127 1111
f 1127 1243 1143
f 1255 1159 1213
f 1231 1256 1172
f 1257 1185 1232
f 1185 1258 1244
f 1259 712 1245
f 733 709 1246
f 709 1260 1199
f 750 1261 1234
f 1262 1201 1220
f 1235 820 1236
f 1263 843 1237
f 843 1264 1247
f 1265 868 1248
f 1266 882 1249
f 1224 1250 1225
f 1250 943 921
f 1251 1208 954
f 1240 1267 1210
f 994 1268 1241
f 1269 1020 1252
f 1020 1050 1042
f 1253 1098 1067
f 1110 1243 1127
f 1270 1159 1255
f 1231 1271 1256
f 1272 1185 1257
f 1273 712 1259
f 709 1274 1260
f 750 1275 1261
f 1276 1201 1262
f 1235 821 820
f 821 843 1263
f 843 1277 1264
f 1278 868 1265
f 1279 882 1266
f 882 1250 1224
f 1250 1227 943
f 1280 1208 1251
f 1240 1281 1267
f 989 1268 994
f 1282 1020 1269
f 1020 1051 1050
f 1283 1098 1253
f 1107 1243 1110
f 1284 1159 1270
f 1272 1258 1185
f 1285 712 1273
f 709 1286 1274
f 750 1287 1275
f 1288 1201 1276
f 1289 821 1235
f 821 1277 843
f 1278 878 868
f 1290 882 1279
f 882 1227 1250
f 1280 1291 1208
f 989 1292 1268
f 1293 1020 1282
f 1020 1294 1051
f 1283 1254 1098
f 1295 1243 1107
f 1272 1296 1258
f 1297 712 1285
f 709 1298 1286
f 750 1299 1287
f 1300 1201 1288
f 1289 1277 821
f 1301 878 1278
f 1302 882 1290
f 882 1303 1227
f 1280 1239 1291
f 989 1304 1292
f 1305 1020 1293
f 1020 1306 1294
f 1307 1254 1283
f 1308 1243 1295
f 1309 1296 1272
f 1310 712 1297
f 709 1311 1298
f 750 1312 1299
f 1313 1201 1300
f 1203 1277 1289
f 1314 878 1301
f 879 882 1302
f 882 1315 1303
f 1280 1209 1239
f 989 1305 1304
f 1305 1306 1020
f 1307 1316 1254
f 1317 1243 1308
f 1309 1318 1296
f 1319 712 1310
f 709 1320 1311
f 750 1321 1312
f 1322 1201 1313
f 799 1277 1203
f 1323 878 1314
f 878 882 879
f 882 1324 1315
f 1325 1209 1280
f 989 1306 1305
f 1307 1326 1316
f 1327 1243 1317
f 1328 1318 1309
f 1318 712 1319
f 733 1320 709
f 750 1329 1321
f 1322 1330 1201
f 1202 1277 799
f 1331 878 1323
f 878 1324 882
f 1332 1209 1325
f 989 1333 1306
f 1307 1334 1326
f 1335 1243 1327
f 1328 712 1318
f 733 1336 1320
f 750 1337 1329
f 1338 1330 1322
f 1339 1277 1202
f 1340 878 1331
f 878 1341 1324
f 1342 1209 1332
f 989 1343 1333
f 1307 1344 1334
f 1345 1243 1335
f 1346 712 1328
f 733 1347 1336
f 750 1338 1337
f 1338 1348 1330
f 1339 1349 1277
f 878 1350 1341
f 1350 1209 1342
f 989 1351 1343
f 1307 1352 1344
f 1352 1243 1345
f 1353 712 1346
f 733 1354 1347
f 750 1348 1338
f 1355 1349 1339
f 878 1209 1350
f 986 1351 989
f 1307 1243 1352
f 1356 712 1353
f 733 1357 1354
f 1200 1348 750
f 1348 1349 1355
f 878 1358 1209
f 1359 1351 986
f 1360 1243 1307
f 1361 712 1356
f 733 1362 1357
f 1362 1348 1200
f 1348 1363 1349
f 878 1240 1358
f 1364 1351 1359
f 1365 1243 1360
f 1271 712 1361
f 733 1348 1362
f 1348 1366 1363
f 1340 1240 878
f 1364 1367 1351
f 1368 1243 1365
f 1271 727 712
f 731 1348 733
f 1348 1369 1366
f 1370 1240 1340
f 984 1367 1364
f 1371 1243 1368
f 1231 727 1271
f 731 1369 1348
f 1372 1240 1370
f 984 1373 1367
f 1374 1243 1371
f 1375 727 1231
f 1196 1369 731
f 1376 1240 1372
f 983 1373 984
f 1377 1243 1374
f 1378 727 1375
f 1379 1369 1196
f 1376 1281 1240
f 1380 1373 983
f 1381 1243 1377
f 1378 728 727
f 1382 1369 1379
f 1376 980 1281
f 1380 1383 1373
f 1384 1243 1381
f 1378 1385 728
f 1386 1369 1382
f 1376 1211 980
f 1380 1387 1383
f 1388 1243 1384
f 1378 1389 1385
f 1386 1376 1369
f 1376 1390 1211
f 1391 1387 1380
f 1392 1243 1388
f 1161 1389 1378
f 1376 1393 1390
f 1391 1394 1387
f 1395 1243 1392
f 1161 1396 1389
f 1376 1397 1393
f 1398 1394 1391
f 1395 1284 1243
f 1161 1386 1396
f 1386 1397 1376
f 1398 1399 1394
f 1395 1159 1284
f 1159 1386 1161
f 1386 1398 1397
f 1398 1400 1399
f 1401 1159 1395
f 1159 1398 1386
f 1398 1402 1400
f 1403 1159 1401
f 1398 1404 1402
f 1405 1159 1403
f 1398 1406 1404
f 1407 1159 1405
f 1398 1408 1406
f 1407 1398 1159
f 1398 1409 1408
f 1410 1398 1407
f 1398 1411 1409
f 1412 1398 1410
f 1398 1413 1411
f 1414 1398 1412
f 1398 1415 1413
f 1416 1398 1414
f 1398 1416 1415
f 122 830 125
f 125 830 833
f 125 833 124
f 124 833 832
f 124 832 127
f 127 832 835
f 127 835 126
f 126 835 834
f 126 834 129
f 129 834 836
f 129 836 130
f 130 836 838
f 130 838 128
f 128 838 837
f 128 837 132
f 132 837 840
f 132 840 131
f 131 840 839
f 131 839 134
f 134 839 842
f 134 842 133
f 133 842 841
f 133 841 136
f 136 841 844
f 136 844 135
f 135 844 843
f 135 843 138
f 138 843 846
f 138 846 137
f 137 846 845
f 137 845 140
f 140 845 848
f 140 848 139
f 139 848 847
f 139 847 142
f 142 847 850
f 142 850 141
f 141 850 849
f 141 849 144
f 144 849 852
f 144 852 143
f 143 852 851
f 143 851 146
f 146 851 854
f 146 854 145
f 145 854 853
f 145 853 148
f 148 853 856
f 148 856 147
f 147 856 855
f 147 855 513
f 513 855 1221
f 513 1221 539
f 539 1221 1247
f 539 1247 556
f 556 1247 1264
f 556 1264 569
f 569 1264 1277
f 569 1277 641
f 641 1277 1349
f 641 1349 655
f 655 1349 1363
f 655 1363 658
f 658 1363 1366
f 658 1366 661
f 661 1366 1369
f 661 1369 668
f 668 1369 1376
f 668 1376 664
f 664 1376 1372
f 664 1372 662
f 662 1372 1370
f 662 1370 632
f 632 1370 1340
f 632 1340 623
f 623 1340 1331
f 623 1331 615
f 615 1331 1323
f 615 1323 606
f 606 1323 1314
f 606 1314 593
f 593 1314 1301
f 593 1301 570
f 570 1301 1278
f 570 1278 557
f 557 1278 1265
f 557 1265 540
f 540 1265 1248
f 540 1248 514
f 514 1248 1222
f 514 1222 150
f 150 1222 857
f 150 857 151
f 151 857 859
f 151 859 149
f 149 859 858
f 149 858 153
f 153 858 861
f 153 861 152
f 152 861 860
f 152 860 155
f 155 860 863
f 155 863 154
f 154 863 862
f 154 862 157
f 157 862 865
f 157 865 156
f 156 865 864
f 156 864 159
f 159 864 867
f 159 867 158
f 158 867 866
f 158 866 161
f 161 866 869
f 161 869 160
f 160 869 868
f 160 868 163
f 163 868 871
f 163 871 162
f 162 871 870
f 162 870 165
f 165 870 873
f 165 873 164
f 164 873 872
f 164 872 167
f 167 872 875
f 167 875 166
f 166 875 874
f 166 874 169
f 169 874 877
f 169 877 168
f 168 877 876
f 168 876 171
f 171 876 878
f 171 878 172
f 172 878 880
f 172 880 170
f 170 880 879
f 170 879 594
f 594 879 1302
f 594 1302 582
f 582 1302 1290
f 582 1290 571
f 571 1290 1279
f 571 1279 558
f 558 1279 1266
f 558 1266 541
f 541 1266 1249
f 541 1249 530
f 530 1249 1238
f 530 1238 515
f 515 1238 1223
f 515 1223 496
f 496 1223 1204
f 496 1204 174
f 174 1204 881
f 174 881 175
f 175 881 883
f 175 883 173
f 173 883 882
f 173 882 177
f 177 882 884
f 177 884 178
f 178 884 886
f 178 886 176
f 176 886 885
f 176 885 180
f 180 885 888
f 180 888 179
f 179 888 887
f 179 887 182
f 182 887 890
f 182 890 181
f 181 890 889
f 181 889 184
f 184 889 892
f 184 892 183
f 183 892 891
f 183 891 186
f 186 891 894
f 186 894 185
f 185 894 893
f 185 893 516
f 516 893 1224
f 516 1224 188
f 188 1224 895
f 188 895 189
f 189 895 897
f 189 897 187
f 187 897 896
f 187 896 191
f 191 896 899
f 191 899 190
f 190 899 898
f 190 898 193
f 193 898 901
f 193 901 192
f 192 901 900
f 192 900 195
f 195 900 903
f 195 903 194
f 194 903 902
f 194 902 197
f 197 902 905
f 197 905 196
f 196 905 904
f 196 904 199
f 199 904 907
f 199 907 198
f 198 907 906
f 198 906 201
f 201 906 909
f 201 909 200
f 200 909 908
f 200 908 497
f 497 908 1205
f 497 1205 517
f 517 1205 1225
f 517 1225 542
f 542 1225 1250
f 542 1250 518
f 518 1250 1226
f 518 1226 203
f 203 1226 910
f 203 910 204
f 204 910 912
f 204 912 202
f 202 912 911
f 202 911 206
f 206 911 914
f 206 914 205
f 205 914 913
f 205 913 208
f 208 913 916
f 208 916 207
f 207 916 915
f 207 915 210
f 210 915 918
f 210 918 209
f 209 918 917
f 209 917 212
f 212 917 920
f 212 920 211
f 211 920 919
f 211 919 214
f 214 919 922
f 214 922 213
f 213 922 921
f 213 921 216
f 216 921 924
f 216 924 215
f 215 924 923
f 215 923 218
f 218 923 925
f 218 925 219
f 219 925 927
f 219 927 217
f 217 927 926
f 217 926 221
f 221 926 928
f 221 928 222
f 222 928 930
f 222 930 220
f 220 930 929
f 220 929 224
f 224 929 932
f 224 932 223
f 223 932 931
f 223 931 226
f 226 931 934
f 226 934 225
f 225 934 933
f 225 933 228
f 228 933 936
f 228 936 227
f 227 936 935
f 227 935 230
f 230 935 938
f 230 938 229
f 229 938 937
f 229 937 232
f 232 937 940
f 232 940 231
f 231 940 939
f 231 939 234
f 234 939 942
f 234 942 233
f 233 942 941
f 233 941 236
f 236 941 943
f 236 943 237
f 237 943 945
f 237 945 235
f 235 945 944
f 235 944 498
f 498 944 1206
f 498 1206 519
f 519 1206 1227
f 519 1227 595
f 595 1227 1303
f 595 1303 607
f 607 1303 1315
f 607 1315 616
f 616 1315 1324
f 616 1324 633
f 633 1324 1341
f 633 1341 642
f 642 1341 1350
f 642 1350 634
f 634 1350 1342
f 634 1342 624
f 624 1342 1332
f 624 1332 617
f 617 1332 1325
f 617 1325 572
f 572 1325 1280
f 572 1280 543
f 543 1280 1251
f 543 1251 520
f 520 1251 1228
f 520 1228 239
f 239 1228 946
f 239 946 240
f 240 946 948
f 240 948 238
f 238 948 947
f 238 947 499
f 499 947 1207
f 499 1207 242
f 242 1207 949
f 242 949 243
f 243 949 951
f 243 951 241
f 241 951 950
f 241 950 245
f 245 950 953
f 245 953 244
f 244 953 952
f 244 952 247
f 247 952 955
f 247 955 246
f 246 955 954
f 246 954 249
f 249 954 957
f 249 957 248
f 248 957 956
f 248 956 251
f 251 956 959
f 251 959 250
f 250 959 958
f 250 958 253
f 253 958 961
f 253 961 252
f 252 961 960
f 252 960 255
f 255 960 963
f 255 963 254
f 254 963 962
f 254 962 257
f 257 962 965
f 257 965 256
f 256 965 964
f 256 964 500
f 500 964 1208
f 500 1208 583
f 583 1208 1291
f 583 1291 531
f 531 1291 1239
f 531 1239 521
f 521 1239 1229
f 521 1229 259
f 259 1229 966
f 259 966 260
f 260 966 968
f 260 968 258
f 258 968 967
f 258 967 501
f 501 967 1209
f 501 1209 650
f 650 1209 1358
f 650 1358 532
f 532 1358 1240
f 532 1240 262
f 262 1240 969
f 262 969 263
f 263 969 971
f 263 971 261
f 261 971 970
f 261 970 265
f 265 970 973
f 265 973 264
f 264 973 972
f 264 972 267
f 267 972 975
f 267 975 266
f 266 975 974
f 266 974 269
f 269 974 977
f 269 977 268
f 268 977 976
f 268 976 271
f 271 976 979
f 271 979 270
f 270 979 978
f 270 978 502
f 502 978 1210
f 502 1210 559
f 559 1210 1267
f 559 1267 573
f 573 1267 1281
f 573 1281 273
f 273 1281 980
f 273 980 274
f 274 980 982
f 274 982 272
f 272 982 981
f 272 981 503
f 503 981 1211
f 503 1211 682
f 682 1211 1390
f 682 1390 685
f 685 1390 1393
f 685 1393 689
f 689 1393 1397
f 689 1397 690
f 690 1397 1398
f 690 1398 683
f 683 1398 1391
f 683 1391 672
f 672 1391 1380
f 672 1380 276
f 276 1380 983
f 276 983 277
f 277 983 985
f 277 985 275
f 275 985 984
f 275 984 656
f 656 984 1364
f 656 1364 651
f 651 1364 1359
f 651 1359 279
f 279 1359 986
f 279 986 280
f 280 986 988
f 280 988 278
f 278 988 987
f 278 987 282
f 282 987 989
f 282 989 283
f 283 989 991
f 283 991 281
f 281 991 990
f 281 990 285
f 285 990 993
f 285 993 284
f 284 993 992
f 284 992 287
f 287 992 995
f 287 995 286
f 286 995 994
f 286 994 289
f 289 994 997
f 289 997 288
f 288 997 996
f 288 996 291
f 291 996 999
f 291 999 290
f 290 999 998
f 290 998 293
f 293 998 1001
f 293 1001 292
f 292 1001 1000
f 292 1000 295
f 295 1000 1003
f 295 1003 294
f 294 1003 1002
f 294 1002 297
f 297 1002 1005
f 297 1005 296
f 296 1005 1004
f 296 1004 299
f 299 1004 1007
f 299 1007 298
f 298 1007 1006
f 298 1006 301
f 301 1006 1008
f 301 1008 302
f 302 1008 1010
f 302 1010 300
f 300 1010 1009
f 300 1009 304
f 304 1009 1012
f 304 1012 303
f 303 1012 1011
f 303 1011 306
f 306 1011 1014
f 306 1014 305
f 305 1014 1013
f 305 1013 308
f 308 1013 1016
f 308 1016 307
f 307 1016 1015
f 307 1015 533
f 533 1015 1241
f 533 1241 560
f 560 1241 1268
f 560 1268 584
f 584 1268 1292
f 584 1292 596
f 596 1292 1304
f 596 1304 597
f 597 1304 1305
f 597 1305 585
f 585 1305 1293
f 585 1293 574
f 574 1293 1282
f 574 1282 561
f 561 1282 1269
f 561 1269 544
f 544 1269 1252
f 544 1252 534
f 534 1252 1242
f 534 1242 522
f 522 1242 1230
f 522 1230 310
f 310 1230 1017
f 310 1017 311
f 311 1017 1019
f 311 1019 309
f 309 1019 1018
f 309 1018 313
f 313 1018 1021
f 313 1021 312
f 312 1021 1020
f 312 1020 504
f 504 1020 1212
f 504 1212 315
f 315 1212 1022
f 315 1022 316
f 316 1022 1024
f 316 1024 314
f 314 1024 1023
f 314 1023 318
f 318 1023 1026
f 318 1026 317
f 317 1026 1025
f 317 1025 320
f 320 1025 1027
f 320 1027 321
f 321 1027 1029
f 321 1029 319
f 319 1029 1028
f 319 1028 323
f 323 1028 1031
f 323 1031 322
f 322 1031 1030
f 322 1030 325
f 325 1030 1033
f 325 1033 324
f 324 1033 1032
f 324 1032 327
f 327 1032 1035
f 327 1035 326
f 326 1035 1034
f 326 1034 329
f 329 1034 1037
f 329 1037 328
f 328 1037 1036
f 328 1036 331
f 331 1036 1039
f 331 1039 330
f 330 1039 1038
f 330 1038 333
f 333 1038 1041
f 333 1041 332
f 332 1041 1040
f 332 1040 335
f 335 1040 1043
f 335 1043 334
f 334 1043 1042
f 334 1042 337
f 337 1042 1045
f 337 1045 336
f 336 1045 1044
f 336 1044 339
f 339 1044 1047
f 339 1047 338
f 338 1047 1046
f 338 1046 341
f 341 1046 1049
f 341 1049 340
f 340 1049 1048
f 340 1048 343
f 343 1048 1050
f 343 1050 344
f 344 1050 1052
f 344 1052 342
f 342 1052 1051
f 342 1051 586
f 586 1051 1294
f 586 1294 598
f 598 1294 1306
f 598 1306 625
f 625 1306 1333
f 625 1333 635
f 635 1333 1343
f 635 1343 643
f 643 1343 1351
f 643 1351 659
f 659 1351 1367
f 659 1367 665
f 665 1367 1373
f 665 1373 675
f 675 1373 1383
f 675 1383 679
f 679 1383 1387
f 679 1387 686
f 686 1387 1394
f 686 1394 691
f 691 1394 1399
f 691 1399 692
f 692 1399 1400
f 692 1400 694
f 694 1400 1402
f 694 1402 696
f 696 1402 1404
f 696 1404 698
f 698 1404 1406
f 698 1406 700
f 700 1406 1408
f 700 1408 701
f 701 1408 1409
f 701 1409 703
f 703 1409 1411
f 703 1411 705
f 705 1411 1413
f 705 1413 707
f 707 1413 1415
f 707 1415 708
f 708 1415 1416
f 708 1416 706
f 706 1416 1414
f 706 1414 704
f 704 1414 1412
f 704 1412 702
f 702 1412 1410
f 702 1410 699
f 699 1410 1407
f 699 1407 697
f 697 1407 1405
f 697 1405 695
f 695 1405 1403
f 695 1403 693
f 693 1403 1401
f 693 1401 687
f 687 1401 1395
f 687 1395 684
f 684 1395 1392
f 684 1392 680
f 680 1392 1388
f 680 1388 676
f 676 1388 1384
f 676 1384 673
f 673 1384 1381
f 673 1381 669
f 669 1381 1377
f 669 1377 666
f 666 1377 1374
f 666 1374 663
f 663 1374 1371
f 663 1371 660
f 660 1371 1368
f 660 1368 657
f 657 1368 1365
f 657 1365 652
f 652 1365 1360
f 652 1360 599
f 599 1360 1307
f 599 1307 575
f 575 1307 1283
f 575 1283 545
f 545 1283 1253
f 545 1253 346
f 346 1253 1053
f 346 1053 347
f 347 1053 1055
f 347 1055 345
f 345 1055 1054
f 345 1054 349
f 349 1054 1056
f 349 1056 350
f 350 1056 1058
f 350 1058 348
f 348 1058 1057
f 348 1057 352
f 352 1057 1060
f 352 1060 351
f 351 1060 1059
f 351 1059 354
f 354 1059 1062
f 354 1062 353
f 353 1062 1061
f 353 1061 356
f 356 1061 1064
f 356 1064 355
f 355 1064 1063
f 355 1063 358
f 358 1063 1066
f 358 1066 357
f 357 1066 1065
f 357 1065 360
f 360 1065 1068
f 360 1068 359
f 359 1068 1067
f 359 1067 362
f 362 1067 1070
f 362 1070 361
f 361 1070 1069
f 361 1069 364
f 364 1069 1072
f 364 1072 363
f 363 1072 1071
f 363 1071 366
f 366 1071 1074
f 366 1074 365
f 365 1074 1073
f 365 1073 368
f 368 1073 1076
f 368 1076 367
f 367 1076 1075
f 367 1075 370
f 370 1075 1078
f 370 1078 369
f 369 1078 1077
f 369 1077 372
f 372 1077 1080
f 372 1080 371
f 371 1080 1079
f 371 1079 374
f 374 1079 1081
f 374 1081 375
f 375 1081 1083
f 375 1083 373
f 373 1083 1082
f 373 1082 377
f 377 1082 1085
f 377 1085 376
f 376 1085 1084
f 376 1084 379
f 379 1084 1087
f 379 1087 378
f 378 1087 1086
f 378 1086 381
f 381 1086 1089
f 381 1089 380
f 380 1089 1088
f 380 1088 383
f 383 1088 1091
f 383 1091 382
f 382 1091 1090
f 382 1090 385
f 385 1090 1093
f 385 1093 384
f 384 1093 1092
f 384 1092 387
f 387 1092 1095
f 387 1095 386
f 386 1095 1094
f 386 1094 389
f 389 1094 1097
f 389 1097 388
f 388 1097 1096
f 388 1096 391
f 391 1096 1099
f 391 1099 390
f 390 1099 1098
f 390 1098 393
f 393 1098 1101
f 393 1101 392
f 392 1101 1100
f 392 1100 395
f 395 1100 1103
f 395 1103 394
f 394 1103 1102
f 394 1102 397
f 397 1102 1104
f 397 1104 398
f 398 1104 1106
f 398 1106 396
f 396 1106 1105
f 396 1105 546
f 546 1105 1254
f 546 1254 608
f 608 1254 1316
f 608 1316 618
f 618 1316 1326
f 618 1326 626
f 626 1326 1334
f 626 1334 636
f 636 1334 1344
f 636 1344 644
f 644 1344 1352
f 644 1352 637
f 637 1352 1345
f 637 1345 627
f 627 1345 1335
f 627 1335 619
f 619 1335 1327
f 619 1327 609
f 609 1327 1317
f 609 1317 600
f 600 1317 1308
f 600 1308 587
f 587 1308 1295
f 587 1295 400
f 400 1295 1107
f 400 1107 401
f 401 1107 1109
f 401 1109 399
f 399 1109 1108
f 399 1108 403
f 403 1108 1110
f 403 1110 404
f 404 1110 1112
f 404 1112 402
f 402 1112 1111
f 402 1111 406
f 406 1111 1114
f 406 1114 405
f 405 1114 1113
f 405 1113 408
f 408 1113 1116
f 408 1116 407
f 407 1116 1115
f 407 1115 410
f 410 1115 1118
f 410 1118 409
f 409 1118 1117
f 409 1117 412
f 412 1117 1120
f 412 1120 411
f 411 1120 1119
f 411 1119 414
f 414 1119 1122
f 414 1122 413
f 413 1122 1121
f 413 1121 416
f 416 1121 1124
f 416 1124 415
f 415 1124 1123
f 415 1123 418
f 418 1123 1126
f 418 1126 417
f 417 1126 1125
f 417 1125 420
f 420 1125 1128
f 420 1128 419
f 419 1128 1127
f 419 1127 422
f 422 1127 1130
f 422 1130 421
f 421 1130 1129
f 421 1129 424
f 424 1129 1132
f 424 1132 423
f 423 1132 1131
f 423 1131 426
f 426 1131 1134
f 426 1134 425
f 425 1134 1133
f 425 1133 428
f 428 1133 1136
f 428 1136 427
f 427 1136 1135
f 427 1135 430
f 430 1135 1138
f 430 1138 429
f 429 1138 1137
f 429 1137 432
f 432 1137 1140
f 432 1140 431
f 431 1140 1139
f 431 1139 434
f 434 1139 1142
f 434 1142 433
f 433 1142 1141
f 433 1141 436
f 436 1141 1144
f 436 1144 435
f 435 1144 1143
f 435 1143 438
f 438 1143 1146
f 438 1146 437
f 437 1146 1145
f 437 1145 440
f 440 1145 1148
f 440 1148 439
f 439 1148 1147
f 439 1147 442
f 442 1147 1150
f 442 1150 441
f 441 1150 1149
f 441 1149 444
f 444 1149 1152
f 444 1152 443
f 443 1152 1151
f 443 1151 535
f 535 1151 1243
f 535 1243 576
f 576 1243 1284
f 576 1284 562
f 562 1284 1270
f 562 1270 547
f 547 1270 1255
f 547 1255 505
f 505 1255 1213
f 505 1213 446
f 446 1213 1153
f 446 1153 447
f 447 1153 1155
f 447 1155 445
f 445 1155 1154
f 445 1154 449
f 449 1154 1157
f 449 1157 448
f 448 1157 1156
f 448 1156 506
f 506 1156 1214
f 506 1214 507
f 507 1214 1215
f 507 1215 451
f 451 1215 1158
f 451 1158 452
f 452 1158 1160
f 452 1160 450
f 450 1160 1159
f 450 1159 454
f 454 1159 1162
f 454 1162 453
f 453 1162 1161
f 453 1161 670
f 670 1161 1378
f 670 1378 667
f 667 1378 1375
f 667 1375 523
f 523 1375 1231
f 523 1231 456
f 456 1231 1163
f 456 1163 457
f 457 1163 1165
f 457 1165 455
f 455 1165 1164
f 455 1164 459
f 459 1164 1167
f 459 1167 458
f 458 1167 1166
f 458 1166 461
f 461 1166 1169
f 461 1169 460
f 460 1169 1168
f 460 1168 463
f 463 1168 1171
f 463 1171 462
f 462 1171 1170
f 462 1170 465
f 465 1170 1173
f 465 1173 464
f 464 1173 1172
f 464 1172 548
f 548 1172 1256
f 548 1256 563
f 563 1256 1271
f 563 1271 653
f 653 1271 1361
f 653 1361 648
f 648 1361 1356
f 648 1356 645
f 645 1356 1353
f 645 1353 638
f 638 1353 1346
f 638 1346 620
f 620 1346 1328
f 620 1328 601
f 601 1328 1309
f 601 1309 564
f 564 1309 1272
f 564 1272 549
f 549 1272 1257
f 549 1257 524
f 524 1257 1232
f 524 1232 467
f 467 1232 1174
f 467 1174 468
f 468 1174 1176
f 468 1176 466
f 466 1176 1175
f 466 1175 470
f 470 1175 1178
f 470 1178 469
f 469 1178 1177
f 469 1177 472
f 472 1177 1180
f 472 1180 471
f 471 1180 1179
f 471 1179 474
f 474 1179 1182
f 474 1182 473
f 473 1182 1181
f 473 1181 476
f 476 1181 1184
f 476 1184 475
f 475 1184 1183
f 475 1183 478
f 478 1183 1186
f 478 1186 477
f 477 1186 1185
f 477 1185 480
f 480 1185 1188
f 480 1188 479
f 479 1188 1187
f 479 1187 482
f 482 1187 1189
f 482 1189 483
f 483 1189 1191
f 483 1191 481
f 481 1191 1190
f 481 1190 508
f 508 1190 1216
f 508 1216 536
f 536 1216 1244
f 536 1244 550
f 550 1244 1258
f 550 1258 588
f 588 1258 1296
f 588 1296 610
f 610 1296 1318
f 610 1318 611
f 611 1318 1319
f 611 1319 602
f 602 1319 1310
f 602 1310 589
f 589 1310 1297
f 589 1297 577
f 577 1297 1285
f 577 1285 565
f 565 1285 1273
f 565 1273 551
f 551 1273 1259
f 551 1259 537
f 537 1259 1245
f 537 1245 509
f 509 1245 1217
f 509 1217 485
f 485 1217 1192
f 485 1192 486
f 486 1192 1194
f 486 1194 484
f 484 1194 1193
f 484 1193 2
f 2 1193 709
f 2 709 29
f 29 709 737
f 29 737 28
f 28 737 736
f 28 736 31
f 31 736 739
f 31 739 30
f 30 739 738
f 30 738 33
f 33 738 741
f 33 741 32
f 32 741 740
f 32 740 35
f 35 740 743
f 35 743 34
f 34 743 742
f 34 742 37
f 37 742 745
f 37 745 36
f 36 745 744
f 36 744 490
f 490 744 1198
f 490 1198 39
f 39 1198 746
f 39 746 40
f 40 746 748
f 40 748 38
f 38 748 747
f 38 747 491
f 491 747 1199
f 491 1199 552
f 552 1199 1260
f 552 1260 566
f 566 1260 1274
f 566 1274 578
f 578 1274 1286
f 578 1286 590
f 590 1286 1298
f 590 1298 603
f 603 1298 1311
f 603 1311 612
f 612 1311 1320
f 612 1320 628
f 628 1320 1336
f 628 1336 639
f 639 1336 1347
f 639 1347 646
f 646 1347 1354
f 646 1354 649
f 649 1354 1357
f 649 1357 654
f 654 1357 1362
f 654 1362 492
f 492 1362 1200
f 492 1200 42
f 42 1200 749
f 42 749 43
f 43 749 751
f 43 751 41
f 41 751 750
f 41 750 45
f 45 750 753
f 45 753 44
f 44 753 752
f 44 752 47
f 47 752 755
f 47 755 46
f 46 755 754
f 46 754 49
f 49 754 757
f 49 757 48
f 48 757 756
f 48 756 51
f 51 756 758
f 51 758 52
f 52 758 760
f 52 760 50
f 50 760 759
f 50 759 54
f 54 759 762
f 54 762 53
f 53 762 761
f 53 761 56
f 56 761 764
f 56 764 55
f 55 764 763
f 55 763 58
f 58 763 766
f 58 766 57
f 57 766 765
f 57 765 60
f 60 765 768
f 60 768 59
f 59 768 767
f 59 767 62
f 62 767 770
f 62 770 61
f 61 770 769
f 61 769 511
f 511 769 1219
f 511 1219 526
f 526 1219 1234
f 526 1234 553
f 553 1234 1261
f 553 1261 567
f 567 1261 1275
f 567 1275 579
f 579 1275 1287
f 579 1287 591
f 591 1287 1299
f 591 1299 604
f 604 1299 1312
f 604 1312 613
f 613 1312 1321
f 613 1321 621
f 621 1321 1329
f 621 1329 629
f 629 1329 1337
f 629 1337 630
f 630 1337 1338
f 630 1338 614
f 614 1338 1322
f 614 1322 605
f 605 1322 1313
f 605 1313 592
f 592 1313 1300
f 592 1300 580
f 580 1300 1288
f 580 1288 568
f 568 1288 1276
f 568 1276 554
f 554 1276 1262
f 554 1262 512
f 512 1262 1220
f 512 1220 64
f 64 1220 771
f 64 771 65
f 65 771 773
f 65 773 63
f 63 773 772
f 63 772 67
f 67 772 775
f 67 775 66
f 66 775 774
f 66 774 69
f 69 774 777
f 69 777 68
f 68 777 776
f 68 776 71
f 71 776 779
f 71 779 70
f 70 779 778
f 70 778 73
f 73 778 781
f 73 781 72
f 72 781 780
f 72 780 75
f 75 780 783
f 75 783 74
f 74 783 782
f 74 782 77
f 77 782 785
f 77 785 76
f 76 785 784
f 76 784 79
f 79 784 787
f 79 787 78
f 78 787 786
f 78 786 81
f 81 786 789
f 81 789 80
f 80 789 788
f 80 788 83
f 83 788 791
f 83 791 82
f 82 791 790
f 82 790 85
f 85 790 793
f 85 793 84
f 84 793 792
f 84 792 87
f 87 792 795
f 87 795 86
f 86 795 794
f 86 794 89
f 89 794 797
f 89 797 88
f 88 797 796
f 88 796 493
f 493 796 1201
f 493 1201 622
f 622 1201 1330
f 622 1330 640
f 640 1330 1348
f 640 1348 647
f 647 1348 1355
f 647 1355 631
f 631 1355 1339
f 631 1339 494
f 494 1339 1202
f 494 1202 91
f 91 1202 798
f 91 798 92
f 92 798 800
f 92 800 90
f 90 800 799
f 90 799 94
f 94 799 802
f 94 802 93
f 93 802 801
f 93 801 495
f 495 801 1203
f 495 1203 581
f 581 1203 1289
f 581 1289 527
f 527 1289 1235
f 527 1235 96
f 96 1235 803
f 96 803 97
f 97 803 805
f 97 805 95
f 95 805 804
f 95 804 99
f 99 804 807
f 99 807 98
f 98 807 806
f 98 806 101
f 101 806 809
f 101 809 100
f 100 809 808
f 100 808 103
f 103 808 811
f 103 811 102
f 102 811 810
f 102 810 105
f 105 810 813
f 105 813 104
f 104 813 812
f 104 812 107
f 107 812 815
f 107 815 106
f 106 815 814
f 106 814 109
f 109 814 817
f 109 817 108
f 108 817 816
f 108 816 111
f 111 816 819
f 111 819 110
f 110 819 818
f 110 818 528
f 528 818 1236
f 528 1236 113
f 113 1236 820
f 113 820 114
f 114 820 822
f 114 822 112
f 112 822 821
f 112 821 555
f 555 821 1263
f 555 1263 529
f 529 1263 1237
f 529 1237 116
f 116 1237 823
f 116 823 117
f 117 823 825
f 117 825 115
f 115 825 824
f 115 824 119
f 119 824 827
f 119 827 118
f 118 827 826
f 118 826 121
f 121 826 829
f 121 829 120
f 120 829 828
f 120 828 123
f 123 828 831
f 123 831 122
f 122 831 830
f 26 734 25
f 25 734 733
f 25 733 538
f 538 733 1246
f 538 1246 525
f 525 1246 1233
f 525 1233 510
f 510 1233 1218
f 510 1218 489
f 489 1218 1197
f 489 1197 27
f 27 1197 735
f 27 735 3
f 3 735 711
f 3 711 1
f 1 711 710
f 1 710 5
f 5 710 712
f 5 712 6
f 6 712 714
f 6 714 4
f 4 714 713
f 4 713 8
f 8 713 716
f 8 716 7
f 7 716 715
f 7 715 10
f 10 715 718
f 10 718 9
f 9 718 717
f 9 717 12
f 12 717 720
f 12 720 11
f 11 720 719
f 11 719 14
f 14 719 722
f 14 722 13
f 13 722 721
f 13 721 16
f 16 721 724
f 16 724 15
f 15 724 723
f 15 723 18
f 18 723 726
f 18 726 17
f 17 726 725
f 17 725 487
f 487 725 1195
f 487 1195 20
f 20 1195 727
f 20 727 21
f 21 727 729
f 21 729 19
f 19 729 728
f 19 728 677
f 677 728 1385
f 677 1385 681
f 681 1385 1389
f 681 1389 688
f 688 1389 1396
f 688 1396 678
f 678 1396 1386
f 678 1386 674
f 674 1386 1382
f 674 1382 671
f 671 1382 1379
f 671 1379 488
f 488 1379 1196
f 488 1196 23
f 23 1196 730
f 23 730 24
f 24 730 732
f 24 732 22
f 22 732 731
f 22 731 26
f 26 731 734
