o 
v 27.827 0 -39.671
v 15.334 0 -39.824
v 27.79 0 -39.85
v 29.517 0 -38.605
v 28.399 0 -39.164
v 28.67 0 -39.06
v 32.202 0 -36.729
v 30.782 0 -37.763
v 34.455 0 -34.876
v 33.514 0 -35.701
v 34.759 0 -34.418
v 34.76 0 -34.45
v 36.14 0 -45.43
v 35.978 0 -39.46
v 36.01 0 -40.74
v 31.572 0 -43.526
v 32.633 0 -44.534
v 32.01 0 -43.94
v 30.558 0 -42.626
v 31.079 0 -43.08
v 29.549 0 -41.797
v 30.038 0 -42.19
v 27.793 0 -40.062
v 17.141 0 -42.287
v 16.07 0 -40.86
v 19.134 0 -44.764
v 18.146 0 -43.569
v 21.257 0 -47.13
v 20.154 0 -45.931
v 23.547 0 -49.511
v 22.49 0 -48.42
v 25.614 0 -53.652
v 25.27 0 -52.19
v 25.411 0 -52.959
v 26.223 0 -54.834
v 25.884 0 -54.275
v 27.12 0 -55.79
v 26.634 0 -55.337
v 28.29 0 -56.641
v 27.735 0 -56.271
v 29.324 0 -57.109
v 28.81 0 -56.916
v 30.44 0 -57.3
v 29.858 0 -57.232
v 31.436 0 -57.746
v 31.47 0 -57.53
v 31.452 0 -57.608
v 31.414 0 -58.157
v 31.424 0 -57.932
v 31.4 0 -58.68
v 31.406 0 -58.41
v 30.124 0 -59.429
v 30.61 0 -59.52
v 30.374 0 -59.474
v 29.636 0 -59.344
v 29.874 0 -59.385
v 29.25 0 -59.28
v 29.424 0 -59.309
v 28.681 0 -59.172
v 29.029 0 -59.237
v 23.271 0 -58.138
v 27.148 0 -58.878
v 26.56 0 -58.76
v 19.305 0 -57.621
v 20.92 0 -57.76
v 17.472 0 -58.041
v 18.223 0 -57.716
v 16.24 0 -59.19
v 16.85 0 -58.59
v 16.874 0 -66.723
v 16.61 0 -63.67
v 22.57 0 -64.96
v 22.57 0 -67.68
v 23.822 0 -65.189
v 23.28 0 -65.09
v 23.512 0 -65.138
v 24.598 0 -65.291
v 24.191 0 -65.241
v 25.44 0 -65.37
v 25.021 0 -65.335
v 22.581 0 -68.395
v 17.417 0 -72.56
v 17.15 0 -69.761
v 17.835 0 -76.544
v 17.653 0 -74.896
v 18.198 0 -77.751
v 17.94 0 -77.28
v 19.434 0 -78.874
v 18.688 0 -78.277
v 21.786 0 -80.353
v 20.459 0 -79.56
v 27.31 0 -83.36
v 23.44 0 -81.27
v 22.598 0 -88.277
v 25.493 0 -87.394
v 24.17 0 -87.79
v 20.865 0 -89.124
v 21.524 0 -88.693
v 20.452 0 -90.368
v 20.536 0 -89.654
v 20.738 0 -92.654
v 20.53 0 -91.35
v 21.484 0 -95.034
v 21.058 0 -93.887
v 22.626 0 -97.01
v 22.009 0 -96.08
v 23.536 0 -97.989
v 23.33 0 -97.81
v 24.161 0 -98.426
v 23.82 0 -98.199
v 24.937 0 -98.88
v 24.54 0 -98.657
v 26.349 0 -99.487
v 25.33 0 -99.08
v 28.879 0 -99.948
v 27.539 0 -99.776
v 31.912 0 -99.935
v 30.344 0 -100.001
v 34.46 0 -99.603
v 33.56 0 -99.75
v 35.671 0 -99.31
v 35.139 0 -99.465
v 36.593 0 -98.844
v 36.131 0 -99.111
v 37.989 0 -97.814
v 37.13 0 -98.48
v 39.541 0 -96.342
v 38.81 0 -97.082
v 40.524 0 -95.065
v 40.13 0 -95.651
v 40.603 0 -94.307
v 40.67 0 -94.64
v 40.09 0 -93.783
v 40.407 0 -94.02
v 39.124 0 -93.465
v 39.66 0 -93.596
v 37.35 0 -93.33
v 38.49 0 -93.39
v 37.95 0 -88.85
v 38.02 0 -89.95
v 38.58 0 -89.37
v 39.311 0 -85.671
v 37.48 0 -85.68
v 38.68 0 -85.68
v 42.015 0 -85.61
v 40.454 0 -85.647
v 46.025 0 -85.509
v 43.903 0 -85.563
v 56.67 0 -85.21
v 48.29 0 -85.45
v 58.169 0 -86.667
v 57.66 0 -86.2
v 59.036 0 -87.139
v 58.611 0 -86.976
v 60.04 0 -87.074
v 59.496 0 -87.167
v 70.245 0 -88.06
v 70.974 0 -87.597
v 70.71 0 -87.75
v 69.948 0 -88.776
v 69.99 0 -88.397
v 70.51 0 -89.709
v 70.12 0 -89.209
v 71.557 0 -90.648
v 71.12 0 -90.29
v 72.23 0 -91.092
v 71.918 0 -90.911
v 72.823 0 -91.264
v 72.522 0 -91.206
v 73.491 0 -91.289
v 73.16 0 -91.28
v 74.654 0 -92.365
v 74.37 0 -91.93
v 74.511 0 -92.186
v 75.069 0 -92.545
v 74.83 0 -92.48
v 75.86 0 -92.58
v 75.402 0 -92.574
v 76.682 0 -92.531
v 76.327 0 -92.572
v 77.261 0 -92.242
v 76.976 0 -92.43
v 78.01 0 -91.5
v 77.589 0 -91.941
v 81.574 0 -91.4
v 81.507 0 -90.924
v 81.54 0 -91.2
v 81.715 0 -91.802
v 81.634 0 -91.604
v 81.922 0 -92.145
v 81.813 0 -91.986
v 82.209 0 -92.412
v 82.04 0 -92.27
v 82.45 0 -92.522
v 82.339 0 -92.496
v 82.691 0 -92.4
v 82.561 0 -92.491
v 82.984 0 -92.118
v 82.86 0 -92.25
v 83.188 0 -91.743
v 83.094 0 -91.947
v 83.318 0 -91.253
v 83.263 0 -91.509
v 83.42 0 -90.1
v 83.35 0 -90.98
v 85.265 0 -89.998
v 84.77 0 -90.03
v 85.868 0 -89.9
v 85.624 0 -89.957
v 86.09 0 -89.709
v 86.016 0 -89.82
v 86.091 0 -89.411
v 86.11 0 -89.56
v 85.871 0 -89.22
v 86.018 0 -89.3
v 85.269 0 -89.122
v 85.629 0 -89.163
v 83.42 0 -89.02
v 84.77 0 -89.09
v 83.5 0 -87.788
v 83.48 0 -88.14
v 83.442 0 -87.369
v 83.491 0 -87.538
v 83.179 0 -87.186
v 83.342 0 -87.259
v 82.618 0 -87.084
v 82.94 0 -87.13
v 82.202 0 -87.128
v 82.375 0 -87.081
v 82.034 0 -87.391
v 82.092 0 -87.229
v 80.686 0 -86.94
v 80.733 0 -87.542
v 80.72 0 -87.3
v 80.361 0 -86.333
v 80.573 0 -86.624
v 79.573 0 -85.732
v 80.034 0 -86.042
v 77.939 0 -83.443
v 78.05 0 -84.02
v 78.006 0 -83.738
v 77.758 0 -82.873
v 77.854 0 -83.15
v 77.56 0 -82.43
v 77.658 0 -82.628
v 77.246 0 -82.011
v 77.403 0 -82.183
v 76.781 0 -81.842
v 77.051 0 -81.902
v 75.86 0 -81.81
v 76.396 0 -81.816
v 74.916 0 -81.858
v 75.329 0 -81.82
v 74.261 0 -82.072
v 74.575 0 -81.938
v 73.53 0 -82.56
v 73.928 0 -82.275
v 71.445 0 -82.389
v 71.79 0 -82.9
v 71.668 0 -82.636
v 70.542 0 -81.851
v 71.082 0 -82.135
v 68.77 0 -81.1
v 69.784 0 -81.514
v 66.643 0 -80.348
v 67.683 0 -80.69
v 64.463 0 -79.802
v 65.59 0 -80.058
v 61.75 0 -79.33
v 63.203 0 -79.565
v 59.031 0 -79.031
v 60.241 0 -79.138
v 57.356 0 -79.079
v 58.081 0 -79.011
v 56.43 0 -79.48
v 56.818 0 -79.235
v 55.397 0 -79.313
v 55.94 0 -79.98
v 55.57 0 -79.5
v 54.776 0 -79.063
v 55.154 0 -79.171
v 53.359 0 -78.886
v 54.2 0 -78.972
v 51.348 0 -78.734
v 52.19 0 -78.79
v 48.999 0 -78.576
v 50.508 0 -78.677
v 49.711 0 -78.624
v 47.99 0 -78.51
v 48.412 0 -78.537
v 46.773 0 -77.582
v 46.8 0 -77.91
v 46.794 0 -77.721
v 46.661 0 -77.441
v 46.73 0 -77.49
v 46.42 0 -77.46
v 46.559 0 -77.432
v 46.691 0 -69.037
v 46.336 0 -73.456
v 46.61 0 -70.18
v 46.821 0 -66.67
v 46.763 0 -67.847
v 46.888 0 -64.597
v 46.864 0 -65.567
v 46.87 0 -61.45
v 46.89 0 -63.82
v 48.291 0 -61.169
v 47.77 0 -61.3
v 49.364 0 -60.638
v 48.813 0 -60.954
v 50.66 0 -59.633
v 49.97 0 -60.203
v 52.423 0 -57.962
v 51.46 0 -58.91
v 54.303 0 -55.865
v 53.4 0 -56.91
v 55.522 0 -54.235
v 55.04 0 -54.937
v 55.637 0 -53.792
v 55.66 0 -53.87
v 55.882 0 -53.686
v 55.677 0 -53.658
v 55.72 0 -53.68
v 56.463 0 -53.14
v 56.122 0 -53.514
v 57.53 0 -51.674
v 56.924 0 -52.536
v 58.879 0 -49.653
v 58.3 0 -50.53
v 59.568 0 -48.467
v 59.292 0 -48.984
v 59.81 0 -47.662
v 59.731 0 -48.046
v 59.82 0 -46.922
v 59.83 0 -47.26
v 59.737 0 -46.441
v 59.79 0 -46.653
v 59.555 0 -46.15
v 59.66 0 -46.277
v 59.071 0 -45.927
v 59.42 0 -46.05
v 58.165 0 -45.844
v 58.643 0 -45.858
v 57.179 0 -45.984
v 57.667 0 -45.886
v 55.624 0 -46.716
v 56.73 0 -46.14
v 53.099 0 -48.583
v 54.385 0 -47.555
v 50.73 0 -50.909
v 51.851 0 -49.725
v 49.409 0 -52.627
v 49.82 0 -52.06
v 47.396 0 -49.296
v 47.56 0 -53.49
v 47.47 0 -50.69
v 47.114 0 -46.528
v 47.28 0 -47.923
v 46.601 0 -43.486
v 46.89 0 -45.063
v 45.911 0 -40.362
v 46.24 0 -41.75
v 45.138 0 -37.73
v 45.531 0 -38.983
v 44.464 0 -36.058
v 44.769 0 -36.717
v 44.204 0 -35.892
v 44.26 0 -35.87
v 44.227 0 -35.636
v 44.164 0 -35.817
v 44.2 0 -35.76
v 44.181 0 -35.088
v 44.22 0 -35.405
v 44.019 0 -34.266
v 44.113 0 -34.701
v 45.69 0 -28.719
v 44.13 0 -30.07
v 44.915 0 -29.457
v 48.037 0 -25.857
v 46.661 0 -27.604
v 52.83 0 -19.46
v 50.024 0 -23.227
v 56.593 0 -13.901
v 54.871 0 -16.581
v 58.777 0 -9.712
v 57.92 0 -11.564
v 58.78 0 -8.04
v 59.089 0 -8.489
v 59.062 0 -5.204
v 58.82 0 -5.74
v 58.965 0 -5.485
v 59.131 0 -4.33
v 59.116 0 -4.838
v 59.06 0 -2.66
v 59.111 0 -3.623
v 55.63 0 -0.18
v 58.91 0 -0.18
v 49.862 0 0.001
v 50.74 0 -0.05
v 50.272 0 -0.015
v 49.258 0 -0.024
v 49.521 0 -0.003
v 49 0 -0.12
v 49.081 0 -0.063
v 48.927 0 -0.397
v 48.959 0 -0.224
v 48.89 0 -0.903
v 48.904 0 -0.628
v 48.89 0 -1.54
v 48.885 0 -1.211
v 48.965 0 -2.382
v 48.916 0 -2.015
v 49.182 0 -2.928
v 49.049 0 -2.675
v 49.65 0 -3.45
v 49.378 0 -3.175
v 45.349 0 -13.342
v 47.08 0 -11.34
v 46.189 0 -12.37
v 43.077 0 -15.979
v 43.512 0 -15.469
v 43.25 0 -15.77
v 41.659 0 -17.613
v 42.13 0 -17.078
v 41.89 0 -17.35
v 41.327 0 -18.076
v 41.47 0 -17.857
v 41.202 0 -18.409
v 41.237 0 -18.263
v 41.265 0 -18.576
v 41.23 0 -18.51
v 40.833 0 -18.714
v 41.205 0 -18.65
v 41.14 0 -18.62
v 39.796 0 -19.754
v 40.351 0 -19.134
v 38.883 0 -21.097
v 39.273 0 -20.45
v 38.735 0 -21.729
v 38.73 0 -21.57
v 38.774 0 -21.969
v 38.75 0 -21.864
v 38.849 0 -22.072
v 38.807 0 -22.04
v 36.558 0 -22.993
v 36.575 0 -23.927
v 36.57 0 -23.48
v 36.474 0 -21.967
v 36.525 0 -22.48
v 36.333 0 -21.055
v 36.409 0 -21.484
v 36.117 0 -20.296
v 36.25 0 -20.71
v 35.836 0 -19.755
v 35.986 0 -19.986
v 35.398 0 -19.428
v 35.647 0 -19.577
v 34.731 0 -19.151
v 35.07 0 -19.28
v 34.156 0 -19.049
v 34.439 0 -19.075
v 33.465 0 -19.143
v 33.844 0 -19.072
v 32.601 0 -19.366
v 32.98 0 -19.26
v 31.931 0 -19.634
v 32.249 0 -19.492
v 31.425 0 -19.951
v 31.654 0 -19.788
v 31.05 0 -20.368
v 31.25 0 -20.12
v 30.825 0 -21.039
v 30.912 0 -20.647
v 30.76 0 -22.493
v 30.778 0 -21.627
v 30.776 0 -24.737
v 30.76 0 -23.72
v 30.849 0 -26.214
v 30.805 0 -25.562
v 30.985 0 -27.073
v 30.908 0 -26.711
v 31.263 0 -27.66
v 31.08 0 -27.32
v 21.787 0 -30.863
v 23.67 0 -30.66
v 22.729 0 -30.755
v 20.08 0 -31.09
v 20.889 0 -30.978
v 18.91 0 -31.28
v 19.405 0 -31.194
v 17.04 0 -31.843
v 17.952 0 -31.526
v 15.467 0 -32.63
v 16.201 0 -32.216
v 14.43 0 -33.52
v 14.867 0 -33.07
v 14.063 0 -34.096
v 14.215 0 -33.82
v 13.91 0 -34.724
v 13.965 0 -34.385
v 13.89 0 -35.7
v 13.888 0 -35.15
v 14.095 0 -37.316
v 13.943 0 -36.532
v 14.771 0 -38.918
v 14.365 0 -38.096
v 28.184 0 -39.271
v 29.12 0 -41.47
v 27.864 0 -40.27
v 25.184 0 -51.736
v 30.727 0 -57.325
v 31.4 0 -59.67
v 28.235 0 -59.088
v 27.715 0 -58.988
v 22.601 0 -69.04
v 37.818 0 -90.179
v 60.72 0 -86.87
v 74.235 0 -91.687
v 78.452 0 -91.037
v 78.96 0 -85.38
v 78.109 0 -84.373
v 71.907 0 -83.146
v 46.814 0 -78.129
v 55.627 0 -53.73
v 44.167 0 -35.897
v 44.147 0 -35.86
v 58.614 0 -6.157
v 54.7 0 -0.175
v 51.282 0 -0.084
v 44.599 0 -14.211
v 43.974 0 -14.935
v 41.25 0 -18.66
v 38.9 0 -22.06
v 28.016 0 -40.495
v 22.63 0 -69.59
v 26.38 0 -87.071
v 37.666 0 -90.414
v 71.17 0 -87.452
v 82.02 0 -87.62
v 80.767 0 -87.733
v 78.668 0 -85.206
v 73.025 0 -82.926
v 46.167 0 -75.585
v 55.647 0 -53.66
v 49.087 0 -53.032
v 43.789 0 -30.394
v 53.753 0 -0.162
v 49.942 0 -3.746
v 42.866 0 -16.229
v 42.38 0 -16.791
v 41.28 0 -18.623
v 36.59 0 -24.329
v 28.629 0 -41.075
v 28.266 0 -40.757
v 24.28 0 -50.302
v 25.034 0 -51.328
v 30.98 0 -57.36
v 22.666 0 -70.016
v 37.557 0 -90.681
v 61.145 0 -86.766
v 71.305 0 -87.306
v 74.099 0 -91.513
v 78.787 0 -90.728
v 81.446 0 -90.733
v 78.186 0 -84.646
v 72.077 0 -83.274
v 46.864 0 -78.283
v 44.147 0 -35.886
v 58.487 0 -6.652
v 52.836 0 -0.141
v 51.997 0 -0.115
v 42.63 0 -16.504
v 41.275 0 -18.651
v 38.941 0 -22.069
v 25.316 0 -30.46
v 28.02 0 -39.388
v 33.094 0 -44.934
v 25.824 0 -65.405
v 22.706 0 -70.292
v 26.917 0 -86.745
v 37.484 0 -91.006
v 61.775 0 -86.672
v 73.941 0 -91.395
v 79.076 0 -90.545
v 80.825 0 -87.879
v 47.514 0 -78.487
v 46.232 0 -77.505
v 46.099 0 -76.809
v 55.63 0 -53.685
v 43.9 0 -33.8
v 58.586 0 -7.919
v 50.141 0 -4.002
v 36.612 0 -24.669
v 26.737 0 -30.224
v 27.903 0 -39.519
v 34.791 0 -34.384
v 24.754 0 -50.879
v 26.169 0 -65.449
v 22.75 0 -70.39
v 27.194 0 -86.335
v 37.41 0 -91.93
v 37.703 0 -88.625
v 62.62 0 -86.589
v 71.387 0 -87.151
v 81.325 0 -90.609
v 82 0 -87.849
v 78.451 0 -85.041
v 78.295 0 -84.861
v 43.646 0 -32.713
v 58.473 0 -7.601
v 58.44 0 -7.156
v 38.972 0 -22.133
v 36.64 0 -24.931
v 31.355 0 -27.921
v 33.466 0 -45.179
v 37.437 0 -91.413
v 63.688 0 -86.514
v 71.423 0 -86.979
v 73.745 0 -91.324
v 81.11 0 -90.534
v 81.936 0 -88.019
v 80.913 0 -87.987
v 47.186 0 -78.45
v 43.504 0 -31.88
v 50.36 0 -7.5
v 38.994 0 -22.245
v 36.67 0 -25.1
v 31.349 0 -28.135
v 27.959 0 -29.948
v 33.826 0 -45.31
v 26.46 0 -65.499
v 23.15 0 -70.061
v 27.295 0 -85.763
v 37.534 0 -88.421
v 64.989 0 -86.448
v 71.42 0 -86.78
v 80.77 0 -90.491
v 81.827 0 -88.129
v 48.829 0 -53.301
v 50.264 0 -4.279
v 39.004 0 -22.401
v 29.003 0 -29.622
v 26.684 0 -65.551
v 23.941 0 -69.232
v 27.31 0 -84.95
v 66.53 0 -86.39
v 71.38 0 -86.22
v 79.38 0 -90.459
v 80.27 0 -90.46
v 81.67 0 -88.181
v 72.623 0 -83.166
v 48.606 0 -53.458
v 50.329 0 -4.634
v 36.7 0 -25.16
v 29.892 0 -29.242
v 34.249 0 -45.367
v 26.829 0 -65.602
v 24.916 0 -68.14
v 37.43 0 -88.199
v 79.757 0 -90.44
v 81.462 0 -88.178
v 81.037 0 -88.066
v 48.392 0 -53.526
v 50.355 0 -5.128
v 39.003 0 -22.594
v 36.779 0 -25.133
v 30.65 0 -28.8
v 34.81 0 -45.39
v 26.88 0 -65.65
v 25.869 0 -67.021
v 72.311 0 -83.281
v 48.16 0 -53.53
v 50.36 0 -5.82
v 38.99 0 -22.82
v 36.919 0 -25.057
v 31.005 0 -28.543
v 26.593 0 -66.112
v 37.38 0 -87.915
v 38.937 0 -23.14
v 31.235 0 -28.332
v 31.191 0 -57.4
v 37.37 0 -87.529
v 81.2 0 -88.12
v 38.855 0 -23.406
v 31.35 0 -57.444
v 43.573 0 -30.77
v 38.726 0 -23.641
v 37.109 0 -24.939
v 31.446 0 -57.488
v 46.123 0 -77.368
v 37.338 0 -24.787
v 37.39 0 -87
v 43.479 0 -31.249
v 37.595 0 -24.608
v 37.87 0 -24.41
v 46.979 0 -78.386
v 38.252 0 -24.119
v 35.942 0 -38.247
v 38.531 0 -23.871
v 34.855 0 -34.353
v 35.905 0 -37.155
v 34.945 0 -34.326
v 35.868 0 -36.24
v 35.058 0 -34.307
v 35.832 0 -35.557
v 35.19 0 -34.3
v 35.8 0 -35.16
v 35.378 0 -34.296
v 35.753 0 -34.826
v 35.519 0 -34.334
v 35.697 0 -34.586
v 35.623 0 -34.426
v 15.334 10 -39.824
v 27.827 10 -39.671
v 27.79 10 -39.85
v 28.399 10 -39.164
v 29.517 10 -38.605
v 28.67 10 -39.06
v 32.202 10 -36.729
v 30.782 10 -37.763
v 34.455 10 -34.876
v 33.514 10 -35.701
v 34.759 10 -34.418
v 34.76 10 -34.45
v 35.978 10 -39.46
v 36.14 10 -45.43
v 36.01 10 -40.74
v 32.633 10 -44.534
v 31.572 10 -43.526
v 32.01 10 -43.94
v 30.558 10 -42.626
v 31.079 10 -43.08
v 29.549 10 -41.797
v 30.038 10 -42.19
v 27.793 10 -40.062
v 17.141 10 -42.287
v 16.07 10 -40.86
v 19.134 10 -44.764
v 18.146 10 -43.569
v 21.257 10 -47.13
v 20.154 10 -45.931
v 23.547 10 -49.511
v 22.49 10 -48.42
v 25.27 10 -52.19
v 25.614 10 -53.652
v 25.411 10 -52.959
v 26.223 10 -54.834
v 25.884 10 -54.275
v 27.12 10 -55.79
v 26.634 10 -55.337
v 28.29 10 -56.641
v 27.735 10 -56.271
v 29.324 10 -57.109
v 28.81 10 -56.916
v 30.44 10 -57.3
v 29.858 10 -57.232
v 31.47 10 -57.53
v 31.436 10 -57.746
v 31.452 10 -57.608
v 31.414 10 -58.157
v 31.424 10 -57.932
v 31.4 10 -58.68
v 31.406 10 -58.41
v 30.61 10 -59.52
v 30.124 10 -59.429
v 30.374 10 -59.474
v 29.636 10 -59.344
v 29.874 10 -59.385
v 29.25 10 -59.28
v 29.424 10 -59.309
v 28.681 10 -59.172
v 29.029 10 -59.237
v 27.148 10 -58.878
v 23.271 10 -58.138
v 26.56 10 -58.76
v 19.305 10 -57.621
v 20.92 10 -57.76
v 17.472 10 -58.041
v 18.223 10 -57.716
v 16.24 10 -59.19
v 16.85 10 -58.59
v 16.874 10 -66.723
v 16.61 10 -63.67
v 22.57 10 -64.96
v 22.57 10 -67.68
v 23.28 10 -65.09
v 23.822 10 -65.189
v 23.512 10 -65.138
v 24.598 10 -65.291
v 24.191 10 -65.241
v 25.44 10 -65.37
v 25.021 10 -65.335
v 22.581 10 -68.395
v 17.417 10 -72.56
v 17.15 10 -69.761
v 17.835 10 -76.544
v 17.653 10 -74.896
v 18.198 10 -77.751
v 17.94 10 -77.28
v 19.434 10 -78.874
v 18.688 10 -78.277
v 21.786 10 -80.353
v 20.459 10 -79.56
v 27.31 10 -83.36
v 23.44 10 -81.27
v 25.493 10 -87.394
v 22.598 10 -88.277
v 24.17 10 -87.79
v 20.865 10 -89.124
v 21.524 10 -88.693
v 20.452 10 -90.368
v 20.536 10 -89.654
v 20.738 10 -92.654
v 20.53 10 -91.35
v 21.484 10 -95.034
v 21.058 10 -93.887
v 22.626 10 -97.01
v 22.009 10 -96.08
v 23.536 10 -97.989
v 23.33 10 -97.81
v 24.161 10 -98.426
v 23.82 10 -98.199
v 24.937 10 -98.88
v 24.54 10 -98.657
v 26.349 10 -99.487
v 25.33 10 -99.08
v 28.879 10 -99.948
v 27.539 10 -99.776
v 31.912 10 -99.935
v 30.344 10 -100.001
v 34.46 10 -99.603
v 33.56 10 -99.75
v 35.671 10 -99.31
v 35.139 10 -99.465
v 36.593 10 -98.844
v 36.131 10 -99.111
v 37.989 10 -97.814
v 37.13 10 -98.48
v 39.541 10 -96.342
v 38.81 10 -97.082
v 40.524 10 -95.065
v 40.13 10 -95.651
v 40.603 10 -94.307
v 40.67 10 -94.64
v 40.09 10 -93.783
v 40.407 10 -94.02
v 39.124 10 -93.465
v 39.66 10 -93.596
v 37.35 10 -93.33
v 38.49 10 -93.39
v 38.02 10 -89.95
v 37.95 10 -88.85
v 38.58 10 -89.37
v 37.48 10 -85.68
v 39.311 10 -85.671
v 38.68 10 -85.68
v 42.015 10 -85.61
v 40.454 10 -85.647
v 46.025 10 -85.509
v 43.903 10 -85.563
v 56.67 10 -85.21
v 48.29 10 -85.45
v 58.169 10 -86.667
v 57.66 10 -86.2
v 59.036 10 -87.139
v 58.611 10 -86.976
v 60.04 10 -87.074
v 59.496 10 -87.167
v 70.974 10 -87.597
v 70.245 10 -88.06
v 70.71 10 -87.75
v 69.948 10 -88.776
v 69.99 10 -88.397
v 70.51 10 -89.709
v 70.12 10 -89.209
v 71.557 10 -90.648
v 71.12 10 -90.29
v 72.23 10 -91.092
v 71.918 10 -90.911
v 72.823 10 -91.264
v 72.522 10 -91.206
v 73.491 10 -91.289
v 73.16 10 -91.28
v 74.37 10 -91.93
v 74.654 10 -92.365
v 74.511 10 -92.186
v 75.069 10 -92.545
v 74.83 10 -92.48
v 75.86 10 -92.58
v 75.402 10 -92.574
v 76.682 10 -92.531
v 76.327 10 -92.572
v 77.261 10 -92.242
v 76.976 10 -92.43
v 78.01 10 -91.5
v 77.589 10 -91.941
v 81.507 10 -90.924
v 81.574 10 -91.4
v 81.54 10 -91.2
v 81.715 10 -91.802
v 81.634 10 -91.604
v 81.922 10 -92.145
v 81.813 10 -91.986
v 82.209 10 -92.412
v 82.04 10 -92.27
v 82.45 10 -92.522
v 82.339 10 -92.496
v 82.691 10 -92.4
v 82.561 10 -92.491
v 82.984 10 -92.118
v 82.86 10 -92.25
v 83.188 10 -91.743
v 83.094 10 -91.947
v 83.318 10 -91.253
v 83.263 10 -91.509
v 83.42 10 -90.1
v 83.35 10 -90.98
v 85.265 10 -89.998
v 84.77 10 -90.03
v 85.868 10 -89.9
v 85.624 10 -89.957
v 86.09 10 -89.709
v 86.016 10 -89.82
v 86.091 10 -89.411
v 86.11 10 -89.56
v 85.871 10 -89.22
v 86.018 10 -89.3
v 85.269 10 -89.122
v 85.629 10 -89.163
v 83.42 10 -89.02
v 84.77 10 -89.09
v 83.5 10 -87.788
v 83.48 10 -88.14
v 83.442 10 -87.369
v 83.491 10 -87.538
v 83.179 10 -87.186
v 83.342 10 -87.259
v 82.618 10 -87.084
v 82.94 10 -87.13
v 82.202 10 -87.128
v 82.375 10 -87.081
v 82.034 10 -87.391
v 82.092 10 -87.229
v 80.733 10 -87.542
v 80.686 10 -86.94
v 80.72 10 -87.3
v 80.361 10 -86.333
v 80.573 10 -86.624
v 79.573 10 -85.732
v 80.034 10 -86.042
v 78.05 10 -84.02
v 77.939 10 -83.443
v 78.006 10 -83.738
v 77.758 10 -82.873
v 77.854 10 -83.15
v 77.56 10 -82.43
v 77.658 10 -82.628
v 77.246 10 -82.011
v 77.403 10 -82.183
v 76.781 10 -81.842
v 77.051 10 -81.902
v 75.86 10 -81.81
v 76.396 10 -81.816
v 74.916 10 -81.858
v 75.329 10 -81.82
v 74.261 10 -82.072
v 74.575 10 -81.938
v 73.53 10 -82.56
v 73.928 10 -82.275
v 71.79 10 -82.9
v 71.445 10 -82.389
v 71.668 10 -82.636
v 70.542 10 -81.851
v 71.082 10 -82.135
v 68.77 10 -81.1
v 69.784 10 -81.514
v 66.643 10 -80.348
v 67.683 10 -80.69
v 64.463 10 -79.802
v 65.59 10 -80.058
v 61.75 10 -79.33
v 63.203 10 -79.565
v 59.031 10 -79.031
v 60.241 10 -79.138
v 57.356 10 -79.079
v 58.081 10 -79.011
v 56.43 10 -79.48
v 56.818 10 -79.235
v 55.94 10 -79.98
v 55.397 10 -79.313
v 55.57 10 -79.5
v 54.776 10 -79.063
v 55.154 10 -79.171
v 53.359 10 -78.886
v 54.2 10 -78.972
v 51.348 10 -78.734
v 52.19 10 -78.79
v 50.508 10 -78.677
v 48.999 10 -78.576
v 49.711 10 -78.624
v 47.99 10 -78.51
v 48.412 10 -78.537
v 46.8 10 -77.91
v 46.773 10 -77.582
v 46.794 10 -77.721
v 46.661 10 -77.441
v 46.73 10 -77.49
v 46.42 10 -77.46
v 46.559 10 -77.432
v 46.336 10 -73.456
v 46.691 10 -69.037
v 46.61 10 -70.18
v 46.821 10 -66.67
v 46.763 10 -67.847
v 46.888 10 -64.597
v 46.864 10 -65.567
v 46.87 10 -61.45
v 46.89 10 -63.82
v 48.291 10 -61.169
v 47.77 10 -61.3
v 49.364 10 -60.638
v 48.813 10 -60.954
v 50.66 10 -59.633
v 49.97 10 -60.203
v 52.423 10 -57.962
v 51.46 10 -58.91
v 54.303 10 -55.865
v 53.4 10 -56.91
v 55.522 10 -54.235
v 55.04 10 -54.937
v 55.637 10 -53.792
v 55.66 10 -53.87
v 55.677 10 -53.658
v 55.882 10 -53.686
v 55.72 10 -53.68
v 56.463 10 -53.14
v 56.122 10 -53.514
v 57.53 10 -51.674
v 56.924 10 -52.536
v 58.879 10 -49.653
v 58.3 10 -50.53
v 59.568 10 -48.467
v 59.292 10 -48.984
v 59.81 10 -47.662
v 59.731 10 -48.046
v 59.82 10 -46.922
v 59.83 10 -47.26
v 59.737 10 -46.441
v 59.79 10 -46.653
v 59.555 10 -46.15
v 59.66 10 -46.277
v 59.071 10 -45.927
v 59.42 10 -46.05
v 58.165 10 -45.844
v 58.643 10 -45.858
v 57.179 10 -45.984
v 57.667 10 -45.886
v 55.624 10 -46.716
v 56.73 10 -46.14
v 53.099 10 -48.583
v 54.385 10 -47.555
v 50.73 10 -50.909
v 51.851 10 -49.725
v 49.409 10 -52.627
v 49.82 10 -52.06
v 47.56 10 -53.49
v 47.396 10 -49.296
v 47.47 10 -50.69
v 47.114 10 -46.528
v 47.28 10 -47.923
v 46.601 10 -43.486
v 46.89 10 -45.063
v 45.911 10 -40.362
v 46.24 10 -41.75
v 45.138 10 -37.73
v 45.531 10 -38.983
v 44.464 10 -36.058
v 44.769 10 -36.717
v 44.204 10 -35.892
v 44.26 10 -35.87
v 44.164 10 -35.817
v 44.227 10 -35.636
v 44.2 10 -35.76
v 44.181 10 -35.088
v 44.22 10 -35.405
v 44.019 10 -34.266
v 44.113 10 -34.701
v 44.13 10 -30.07
v 45.69 10 -28.719
v 44.915 10 -29.457
v 48.037 10 -25.857
v 46.661 10 -27.604
v 52.83 10 -19.46
v 50.024 10 -23.227
v 56.593 10 -13.901
v 54.871 10 -16.581
v 58.777 10 -9.712
v 57.92 10 -11.564
v 58.78 10 -8.04
v 59.089 10 -8.489
v 58.82 10 -5.74
v 59.062 10 -5.204
v 58.965 10 -5.485
v 59.131 10 -4.33
v 59.116 10 -4.838
v 59.06 10 -2.66
v 59.111 10 -3.623
v 55.63 10 -0.18
v 58.91 10 -0.18
v 50.74 10 -0.05
v 49.862 10 0.001
v 50.272 10 -0.015
v 49.258 10 -0.024
v 49.521 10 -0.003
v 49 10 -0.12
v 49.081 10 -0.063
v 48.927 10 -0.397
v 48.959 10 -0.224
v 48.89 10 -0.903
v 48.904 10 -0.628
v 48.89 10 -1.54
v 48.885 10 -1.211
v 48.965 10 -2.382
v 48.916 10 -2.015
v 49.182 10 -2.928
v 49.049 10 -2.675
v 49.65 10 -3.45
v 49.378 10 -3.175
v 47.08 10 -11.34
v 45.349 10 -13.342
v 46.189 10 -12.37
v 43.512 10 -15.469
v 43.077 10 -15.979
v 43.25 10 -15.77
v 42.13 10 -17.078
v 41.659 10 -17.613
v 41.89 10 -17.35
v 41.327 10 -18.076
v 41.47 10 -17.857
v 41.202 10 -18.409
v 41.237 10 -18.263
v 41.265 10 -18.576
v 41.23 10 -18.51
v 41.205 10 -18.65
v 40.833 10 -18.714
v 41.14 10 -18.62
v 39.796 10 -19.754
v 40.351 10 -19.134
v 38.883 10 -21.097
v 39.273 10 -20.45
v 38.735 10 -21.729
v 38.73 10 -21.57
v 38.774 10 -21.969
v 38.75 10 -21.864
v 38.849 10 -22.072
v 38.807 10 -22.04
v 36.575 10 -23.927
v 36.558 10 -22.993
v 36.57 10 -23.48
v 36.474 10 -21.967
v 36.525 10 -22.48
v 36.333 10 -21.055
v 36.409 10 -21.484
v 36.117 10 -20.296
v 36.25 10 -20.71
v 35.836 10 -19.755
v 35.986 10 -19.986
v 35.398 10 -19.428
v 35.647 10 -19.577
v 34.731 10 -19.151
v 35.07 10 -19.28
v 34.156 10 -19.049
v 34.439 10 -19.075
v 33.465 10 -19.143
v 33.844 10 -19.072
v 32.601 10 -19.366
v 32.98 10 -19.26
v 31.931 10 -19.634
v 32.249 10 -19.492
v 31.425 10 -19.951
v 31.654 10 -19.788
v 31.05 10 -20.368
v 31.25 10 -20.12
v 30.825 10 -21.039
v 30.912 10 -20.647
v 30.76 10 -22.493
v 30.778 10 -21.627
v 30.776 10 -24.737
v 30.76 10 -23.72
v 30.849 10 -26.214
v 30.805 10 -25.562
v 30.985 10 -27.073
v 30.908 10 -26.711
v 31.263 10 -27.66
v 31.08 10 -27.32
v 23.67 10 -30.66
v 21.787 10 -30.863
v 22.729 10 -30.755
v 20.08 10 -31.09
v 20.889 10 -30.978
v 18.91 10 -31.28
v 19.405 10 -31.194
v 17.04 10 -31.843
v 17.952 10 -31.526
v 15.467 10 -32.63
v 16.201 10 -32.216
v 14.43 10 -33.52
v 14.867 10 -33.07
v 14.063 10 -34.096
v 14.215 10 -33.82
v 13.91 10 -34.724
v 13.965 10 -34.385
v 13.89 10 -35.7
v 13.888 10 -35.15
v 14.095 10 -37.316
v 13.943 10 -36.532
v 14.771 10 -38.918
v 14.365 10 -38.096
v 28.184 10 -39.271
v 29.12 10 -41.47
v 27.864 10 -40.27
v 25.184 10 -51.736
v 30.727 10 -57.325
v 31.4 10 -59.67
v 28.235 10 -59.088
v 27.715 10 -58.988
v 22.601 10 -69.04
v 37.818 10 -90.179
v 60.72 10 -86.87
v 74.235 10 -91.687
v 78.452 10 -91.037
v 78.96 10 -85.38
v 78.109 10 -84.373
v 71.907 10 -83.146
v 46.814 10 -78.129
v 55.627 10 -53.73
v 44.167 10 -35.897
v 44.147 10 -35.86
v 58.614 10 -6.157
v 54.7 10 -0.175
v 51.282 10 -0.084
v 44.599 10 -14.211
v 43.974 10 -14.935
v 41.25 10 -18.66
v 38.9 10 -22.06
v 28.016 10 -40.495
v 22.63 10 -69.59
v 26.38 10 -87.071
v 37.666 10 -90.414
v 71.17 10 -87.452
v 82.02 10 -87.62
v 80.767 10 -87.733
v 78.668 10 -85.206
v 73.025 10 -82.926
v 46.167 10 -75.585
v 55.647 10 -53.66
v 49.087 10 -53.032
v 43.789 10 -30.394
v 53.753 10 -0.162
v 49.942 10 -3.746
v 42.866 10 -16.229
v 42.38 10 -16.791
v 41.28 10 -18.623
v 36.59 10 -24.329
v 28.629 10 -41.075
v 28.266 10 -40.757
v 24.28 10 -50.302
v 25.034 10 -51.328
v 30.98 10 -57.36
v 22.666 10 -70.016
v 37.557 10 -90.681
v 61.145 10 -86.766
v 71.305 10 -87.306
v 74.099 10 -91.513
v 78.787 10 -90.728
v 81.446 10 -90.733
v 78.186 10 -84.646
v 72.077 10 -83.274
v 46.864 10 -78.283
v 44.147 10 -35.886
v 58.487 10 -6.652
v 52.836 10 -0.141
v 51.997 10 -0.115
v 42.63 10 -16.504
v 41.275 10 -18.651
v 38.941 10 -22.069
v 25.316 10 -30.46
v 28.02 10 -39.388
v 33.094 10 -44.934
v 25.824 10 -65.405
v 22.706 10 -70.292
v 26.917 10 -86.745
v 37.484 10 -91.006
v 61.775 10 -86.672
v 73.941 10 -91.395
v 79.076 10 -90.545
v 80.825 10 -87.879
v 47.514 10 -78.487
v 46.232 10 -77.505
v 46.099 10 -76.809
v 55.63 10 -53.685
v 43.9 10 -33.8
v 58.586 10 -7.919
v 50.141 10 -4.002
v 36.612 10 -24.669
v 26.737 10 -30.224
v 27.903 10 -39.519
v 34.791 10 -34.384
v 24.754 10 -50.879
v 26.169 10 -65.449
v 22.75 10 -70.39
v 27.194 10 -86.335
v 37.41 10 -91.93
v 37.703 10 -88.625
v 62.62 10 -86.589
v 71.387 10 -87.151
v 81.325 10 -90.609
v 82 10 -87.849
v 78.451 10 -85.041
v 78.295 10 -84.861
v 43.646 10 -32.713
v 58.473 10 -7.601
v 58.44 10 -7.156
v 38.972 10 -22.133
v 36.64 10 -24.931
v 31.355 10 -27.921
v 33.466 10 -45.179
v 37.437 10 -91.413
v 63.688 10 -86.514
v 71.423 10 -86.979
v 73.745 10 -91.324
v 81.11 10 -90.534
v 81.936 10 -88.019
v 80.913 10 -87.987
v 47.186 10 -78.45
v 43.504 10 -31.88
v 50.36 10 -7.5
v 38.994 10 -22.245
v 36.67 10 -25.1
v 31.349 10 -28.135
v 27.959 10 -29.948
v 33.826 10 -45.31
v 26.46 10 -65.499
v 23.15 10 -70.061
v 27.295 10 -85.763
v 37.534 10 -88.421
v 64.989 10 -86.448
v 71.42 10 -86.78
v 80.77 10 -90.491
v 81.827 10 -88.129
v 48.829 10 -53.301
v 50.264 10 -4.279
v 39.004 10 -22.401
v 29.003 10 -29.622
v 26.684 10 -65.551
v 23.941 10 -69.232
v 27.31 10 -84.95
v 66.53 10 -86.39
v 71.38 10 -86.22
v 79.38 10 -90.459
v 80.27 10 -90.46
v 81.67 10 -88.181
v 72.623 10 -83.166
v 48.606 10 -53.458
v 50.329 10 -4.634
v 36.7 10 -25.16
v 29.892 10 -29.242
v 34.249 10 -45.367
v 26.829 10 -65.602
v 24.916 10 -68.14
v 37.43 10 -88.199
v 79.757 10 -90.44
v 81.462 10 -88.178
v 81.037 10 -88.066
v 48.392 10 -53.526
v 50.355 10 -5.128
v 39.003 10 -22.594
v 36.779 10 -25.133
v 30.65 10 -28.8
v 34.81 10 -45.39
v 26.88 10 -65.65
v 25.869 10 -67.021
v 72.311 10 -83.281
v 48.16 10 -53.53
v 50.36 10 -5.82
v 38.99 10 -22.82
v 36.919 10 -25.057
v 31.005 10 -28.543
v 26.593 10 -66.112
v 37.38 10 -87.915
v 38.937 10 -23.14
v 31.235 10 -28.332
v 31.191 10 -57.4
v 37.37 10 -87.529
v 81.2 10 -88.12
v 38.855 10 -23.406
v 31.35 10 -57.444
v 43.573 10 -30.77
v 38.726 10 -23.641
v 37.109 10 -24.939
v 31.446 10 -57.488
v 46.123 10 -77.368
v 37.338 10 -24.787
v 37.39 10 -87
v 43.479 10 -31.249
v 37.595 10 -24.608
v 37.87 10 -24.41
v 46.979 10 -78.386
v 38.252 10 -24.119
v 35.942 10 -38.247
v 38.531 10 -23.871
v 34.855 10 -34.353
v 35.905 10 -37.155
v 34.945 10 -34.326
v 35.868 10 -36.24
v 35.058 10 -34.307
v 35.832 10 -35.557
v 35.19 10 -34.3
v 35.8 10 -35.16
v 35.378 10 -34.296
v 35.753 10 -34.826
v 35.519 10 -34.334
v 35.697 10 -34.586
v 35.623 10 -34.426
f 1 2 3
f 4 5 6
f 7 4 8
f 9 7 10
f 11 9 12
f 13 14 15
f 16 17 18
f 19 16 20
f 21 19 22
f 2 23 3
f 24 2 25
f 26 24 27
f 28 26 29
f 30 28 31
f 32 33 34
f 35 32 36
f 37 35 38
f 39 37 40
f 41 39 42
f 43 41 44
f 45 46 47
f 48 45 49
f 50 48 51
f 52 53 54
f 55 52 56
f 57 55 58
f 59 57 60
f 61 62 63
f 64 61 65
f 66 64 67
f 68 66 69
f 70 68 71
f 72 70 73
f 74 75 76
f 77 74 78
f 79 77 80
f 70 81 73
f 82 70 83
f 84 82 85
f 86 84 87
f 88 86 89
f 90 88 91
f 92 90 93
f 94 95 96
f 97 94 98
f 99 97 100
f 101 99 102
f 103 101 104
f 105 103 106
f 107 105 108
f 109 107 110
f 111 109 112
f 113 111 114
f 115 113 116
f 117 115 118
f 119 117 120
f 121 119 122
f 123 121 124
f 125 123 126
f 127 125 128
f 129 127 130
f 131 129 132
f 133 131 134
f 135 133 136
f 137 135 138
f 139 140 141
f 142 143 144
f 145 142 146
f 147 145 148
f 149 147 150
f 151 149 152
f 153 151 154
f 155 153 156
f 157 158 159
f 160 157 161
f 162 160 163
f 164 162 165
f 166 164 167
f 168 166 169
f 170 168 171
f 172 173 174
f 175 172 176
f 177 175 178
f 179 177 180
f 181 179 182
f 183 181 184
f 185 186 187
f 188 185 189
f 190 188 191
f 192 190 193
f 194 192 195
f 196 194 197
f 198 196 199
f 200 198 201
f 202 200 203
f 204 202 205
f 206 204 207
f 208 206 209
f 210 208 211
f 212 210 213
f 214 212 215
f 216 214 217
f 218 216 219
f 220 218 221
f 222 220 223
f 224 222 225
f 226 224 227
f 228 226 229
f 230 228 231
f 232 233 234
f 235 232 236
f 237 235 238
f 239 240 241
f 242 239 243
f 244 242 245
f 246 244 247
f 248 246 249
f 250 248 251
f 252 250 253
f 254 252 255
f 256 254 257
f 258 259 260
f 261 258 262
f 263 261 264
f 265 263 266
f 267 265 268
f 269 267 270
f 271 269 272
f 273 271 274
f 275 273 276
f 277 278 279
f 280 277 281
f 282 280 283
f 284 282 285
f 286 287 288
f 289 286 290
f 291 292 293
f 294 291 295
f 296 294 297
f 298 299 300
f 301 298 302
f 303 301 304
f 305 303 306
f 307 305 308
f 309 307 310
f 311 309 312
f 313 311 314
f 315 313 316
f 317 315 318
f 319 317 320
f 321 322 323
f 324 321 325
f 326 324 327
f 328 326 329
f 330 328 331
f 332 330 333
f 334 332 335
f 336 334 337
f 338 336 339
f 340 338 341
f 342 340 343
f 344 342 345
f 346 344 347
f 348 346 349
f 350 348 351
f 352 350 353
f 354 355 356
f 357 354 358
f 359 357 360
f 361 359 362
f 363 361 364
f 365 363 366
f 367 365 368
f 369 370 371
f 372 369 373
f 374 372 375
f 376 377 378
f 379 376 380
f 381 379 382
f 383 381 384
f 385 383 386
f 387 385 388
f 389 390 391
f 392 389 393
f 394 392 395
f 396 394 397
f 398 399 400
f 401 398 402
f 403 401 404
f 405 403 406
f 407 405 408
f 409 407 410
f 411 409 412
f 413 411 414
f 415 413 416
f 417 418 419
f 420 421 422
f 423 424 425
f 426 423 427
f 428 426 429
f 430 428 431
f 432 433 434
f 435 432 436
f 437 435 438
f 439 437 440
f 441 439 442
f 443 441 444
f 445 446 447
f 448 445 449
f 450 448 451
f 452 450 453
f 454 452 455
f 456 454 457
f 458 456 459
f 460 458 461
f 462 460 463
f 464 462 465
f 466 464 467
f 468 466 469
f 470 468 471
f 472 470 473
f 474 472 475
f 476 474 477
f 478 476 479
f 480 478 481
f 482 480 483
f 484 485 486
f 487 484 488
f 489 487 490
f 491 489 492
f 493 491 494
f 495 493 496
f 497 495 498
f 499 497 500
f 501 499 502
f 503 501 504
f 505 503 506
f 1 505 2
f 4 507 5
f 9 4 7
f 19 17 16
f 508 19 21
f 2 509 23
f 26 2 24
f 30 26 28
f 32 510 33
f 37 32 35
f 41 37 39
f 511 41 43
f 48 46 45
f 512 48 50
f 52 512 53
f 57 52 55
f 513 57 59
f 61 514 62
f 66 61 64
f 70 66 68
f 74 72 75
f 79 74 77
f 70 515 81
f 84 70 82
f 88 84 86
f 92 88 90
f 97 95 94
f 101 97 99
f 105 101 103
f 109 105 107
f 113 109 111
f 117 113 115
f 121 117 119
f 125 121 123
f 129 125 127
f 133 129 131
f 137 133 135
f 139 516 140
f 145 143 142
f 149 145 147
f 153 149 151
f 517 153 155
f 160 158 157
f 164 160 162
f 168 164 166
f 172 518 173
f 177 172 175
f 181 177 179
f 519 181 183
f 188 186 185
f 192 188 190
f 196 192 194
f 200 196 198
f 204 200 202
f 208 204 206
f 212 208 210
f 216 212 214
f 222 218 220
f 226 222 224
f 230 226 228
f 235 233 232
f 520 235 237
f 239 521 240
f 244 239 242
f 248 244 246
f 252 248 250
f 256 252 254
f 258 522 259
f 263 258 261
f 267 263 265
f 271 267 269
f 275 271 273
f 280 278 277
f 284 280 282
f 289 287 286
f 291 523 292
f 296 291 294
f 301 299 298
f 305 301 303
f 309 305 307
f 313 309 311
f 317 313 315
f 524 317 319
f 324 322 321
f 328 324 326
f 332 328 330
f 336 332 334
f 340 336 338
f 344 340 342
f 348 344 346
f 352 348 350
f 357 355 354
f 361 357 359
f 365 361 363
f 525 365 367
f 369 526 370
f 374 369 372
f 379 377 376
f 383 379 381
f 387 383 385
f 389 527 390
f 394 389 392
f 528 394 396
f 398 529 399
f 403 398 401
f 407 403 405
f 411 407 409
f 415 411 413
f 530 418 417
f 420 531 421
f 426 424 423
f 430 426 428
f 432 532 433
f 437 432 435
f 441 437 439
f 533 441 443
f 448 446 445
f 452 448 450
f 456 452 454
f 460 456 458
f 464 460 462
f 468 464 466
f 472 468 470
f 476 472 474
f 480 476 478
f 487 485 484
f 491 487 489
f 495 491 493
f 499 495 497
f 503 499 501
f 1 503 505
f 9 507 4
f 508 17 19
f 2 534 509
f 30 2 26
f 37 510 32
f 511 37 41
f 512 46 48
f 57 512 52
f 66 514 61
f 72 66 70
f 79 72 74
f 70 535 515
f 88 70 84
f 97 536 95
f 105 97 101
f 113 105 109
f 121 113 117
f 129 121 125
f 137 129 133
f 139 537 516
f 149 143 145
f 517 149 153
f 160 538 158
f 168 160 164
f 177 518 172
f 519 177 181
f 192 186 188
f 200 192 196
f 212 204 208
f 218 212 216
f 226 218 222
f 539 226 230
f 235 540 233
f 541 235 520
f 244 521 239
f 252 244 248
f 542 252 256
f 263 522 258
f 271 263 267
f 278 271 275
f 284 278 280
f 289 284 287
f 296 523 291
f 301 543 299
f 313 305 309
f 524 313 317
f 324 544 322
f 332 324 328
f 340 332 336
f 348 340 344
f 545 348 352
f 361 355 357
f 525 361 365
f 374 526 369
f 379 546 377
f 387 379 383
f 394 527 389
f 547 394 528
f 403 529 398
f 411 403 407
f 548 411 415
f 531 418 530
f 549 531 420
f 426 550 424
f 551 426 430
f 437 532 432
f 533 437 441
f 448 552 446
f 456 448 452
f 464 456 460
f 472 464 468
f 480 472 476
f 491 485 487
f 499 491 495
f 1 499 503
f 11 507 9
f 553 17 508
f 2 554 534
f 555 2 30
f 37 556 510
f 557 37 511
f 66 513 514
f 79 66 72
f 70 558 535
f 92 70 88
f 105 536 97
f 121 105 113
f 137 121 129
f 139 559 537
f 560 149 517
f 160 561 538
f 170 160 168
f 177 562 518
f 563 177 519
f 192 564 186
f 204 192 200
f 218 204 212
f 539 218 226
f 541 540 235
f 244 565 521
f 542 244 252
f 263 566 522
f 278 263 271
f 289 278 284
f 296 567 523
f 305 543 301
f 524 305 313
f 332 544 324
f 348 332 340
f 525 355 361
f 374 568 526
f 387 546 379
f 394 569 527
f 570 394 547
f 403 571 529
f 548 403 411
f 549 418 531
f 426 572 550
f 437 573 532
f 574 437 533
f 456 552 448
f 472 456 464
f 482 472 480
f 491 575 485
f 1 491 499
f 11 576 507
f 553 577 17
f 2 553 554
f 557 556 37
f 66 57 513
f 578 66 79
f 70 579 558
f 105 580 536
f 137 105 121
f 139 581 559
f 582 149 560
f 170 561 160
f 177 583 562
f 584 177 563
f 204 564 192
f 539 204 218
f 541 585 540
f 542 565 244
f 278 566 263
f 586 278 289
f 587 567 296
f 305 588 543
f 589 305 524
f 348 544 332
f 568 355 525
f 590 568 374
f 591 546 387
f 570 569 394
f 403 570 571
f 592 403 548
f 572 418 549
f 551 572 426
f 574 573 437
f 456 593 552
f 482 456 472
f 491 594 575
f 595 491 1
f 596 576 11
f 2 577 553
f 557 597 556
f 66 512 57
f 598 66 578
f 70 599 579
f 105 600 580
f 601 105 137
f 602 581 139
f 603 149 582
f 170 604 561
f 584 583 177
f 204 605 564
f 606 204 539
f 607 585 541
f 542 608 565
f 586 566 278
f 544 305 589
f 545 544 348
f 609 568 590
f 610 546 591
f 570 611 569
f 592 570 403
f 551 418 572
f 612 573 574
f 456 613 593
f 614 456 482
f 595 594 491
f 2 615 577
f 557 555 597
f 598 512 66
f 92 599 70
f 601 600 105
f 602 616 581
f 617 149 603
f 170 618 604
f 584 619 583
f 204 620 605
f 621 204 606
f 607 622 585
f 542 607 608
f 623 566 586
f 545 305 544
f 624 568 609
f 611 546 610
f 592 611 570
f 551 625 418
f 626 573 612
f 456 627 613
f 628 456 614
f 595 629 594
f 2 630 615
f 557 2 555
f 631 512 598
f 92 632 599
f 601 633 600
f 634 616 602
f 635 149 617
f 170 636 618
f 584 170 619
f 204 637 620
f 638 204 621
f 542 622 607
f 639 305 545
f 640 611 592
f 573 625 551
f 641 573 626
f 628 627 456
f 595 642 629
f 557 630 2
f 643 512 631
f 92 644 632
f 601 645 633
f 634 601 616
f 646 149 635
f 170 647 636
f 648 170 584
f 204 649 637
f 650 204 638
f 651 622 542
f 652 305 639
f 653 611 640
f 641 625 573
f 628 654 627
f 595 655 642
f 557 656 630
f 657 512 643
f 92 658 644
f 601 92 645
f 659 601 634
f 647 149 646
f 648 647 170
f 204 660 649
f 661 204 650
f 651 662 622
f 663 305 652
f 664 611 653
f 665 625 641
f 628 666 654
f 595 667 655
f 557 668 656
f 669 512 657
f 92 670 658
f 659 92 601
f 660 647 648
f 661 660 204
f 671 662 651
f 672 305 663
f 673 611 664
f 674 625 665
f 628 675 666
f 595 676 667
f 557 13 668
f 677 512 669
f 92 677 670
f 678 92 659
f 661 647 660
f 566 662 671
f 355 305 672
f 625 611 673
f 679 625 674
f 680 675 628
f 595 680 676
f 681 13 557
f 92 512 677
f 682 92 678
f 683 647 661
f 623 662 566
f 568 305 355
f 625 546 611
f 684 625 679
f 595 675 680
f 685 13 681
f 682 512 92
f 662 647 683
f 568 588 305
f 625 686 546
f 687 625 684
f 595 688 675
f 689 13 685
f 682 46 512
f 623 647 662
f 568 690 588
f 687 686 625
f 595 691 688
f 46 13 689
f 692 46 682
f 623 149 647
f 624 690 568
f 687 693 686
f 595 694 691
f 692 13 46
f 623 143 149
f 687 624 693
f 595 695 694
f 692 14 13
f 696 143 623
f 687 690 624
f 595 697 695
f 692 698 14
f 567 143 696
f 699 690 687
f 595 699 697
f 143 698 692
f 587 143 567
f 576 699 595
f 690 143 587
f 596 699 576
f 690 698 143
f 700 699 596
f 690 701 698
f 702 699 700
f 690 703 701
f 704 699 702
f 690 705 703
f 706 699 704
f 690 707 705
f 708 699 706
f 690 709 707
f 710 699 708
f 690 711 709
f 712 699 710
f 699 711 690
f 711 699 712
f 713 714 715
f 716 717 718
f 717 719 720
f 719 721 722
f 721 723 724
f 725 726 727
f 728 729 730
f 729 731 732
f 731 733 734
f 735 713 715
f 713 736 737
f 736 738 739
f 738 740 741
f 740 742 743
f 744 745 746
f 745 747 748
f 747 749 750
f 749 751 752
f 751 753 754
f 753 755 756
f 757 758 759
f 758 760 761
f 760 762 763
f 764 765 766
f 765 767 768
f 767 769 770
f 769 771 772
f 773 774 775
f 774 776 777
f 776 778 779
f 778 780 781
f 780 782 783
f 782 784 785
f 786 787 788
f 787 789 790
f 789 791 792
f 793 782 785
f 782 794 795
f 794 796 797
f 796 798 799
f 798 800 801
f 800 802 803
f 802 804 805
f 806 807 808
f 807 809 810
f 809 811 812
f 811 813 814
f 813 815 816
f 815 817 818
f 817 819 820
f 819 821 822
f 821 823 824
f 823 825 826
f 825 827 828
f 827 829 830
f 829 831 832
f 831 833 834
f 833 835 836
f 835 837 838
f 837 839 840
f 839 841 842
f 841 843 844
f 843 845 846
f 845 847 848
f 847 849 850
f 851 852 853
f 854 855 856
f 855 857 858
f 857 859 860
f 859 861 862
f 861 863 864
f 863 865 866
f 865 867 868
f 869 870 871
f 870 872 873
f 872 874 875
f 874 876 877
f 876 878 879
f 878 880 881
f 880 882 883
f 884 885 886
f 885 887 888
f 887 889 890
f 889 891 892
f 891 893 894
f 893 895 896
f 897 898 899
f 898 900 901
f 900 902 903
f 902 904 905
f 904 906 907
f 906 908 909
f 908 910 911
f 910 912 913
f 912 914 915
f 914 916 917
f 916 918 919
f 918 920 921
f 920 922 923
f 922 924 925
f 924 926 927
f 926 928 929
f 928 930 931
f 930 932 933
f 932 934 935
f 934 936 937
f 936 938 939
f 938 940 941
f 940 942 943
f 944 945 946
f 945 947 948
f 947 949 950
f 951 952 953
f 952 954 955
f 954 956 957
f 956 958 959
f 958 960 961
f 960 962 963
f 962 964 965
f 964 966 967
f 966 968 969
f 970 971 972
f 971 973 974
f 973 975 976
f 975 977 978
f 977 979 980
f 979 981 982
f 981 983 984
f 983 985 986
f 985 987 988
f 989 990 991
f 990 992 993
f 992 994 995
f 994 996 997
f 998 999 1000
f 999 1001 1002
f 1003 1004 1005
f 1004 1006 1007
f 1006 1008 1009
f 1010 1011 1012
f 1011 1013 1014
f 1013 1015 1016
f 1015 1017 1018
f 1017 1019 1020
f 1019 1021 1022
f 1021 1023 1024
f 1023 1025 1026
f 1025 1027 1028
f 1027 1029 1030
f 1029 1031 1032
f 1033 1034 1035
f 1034 1036 1037
f 1036 1038 1039
f 1038 1040 1041
f 1040 1042 1043
f 1042 1044 1045
f 1044 1046 1047
f 1046 1048 1049
f 1048 1050 1051
f 1050 1052 1053
f 1052 1054 1055
f 1054 1056 1057
f 1056 1058 1059
f 1058 1060 1061
f 1060 1062 1063
f 1062 1064 1065
f 1066 1067 1068
f 1067 1069 1070
f 1069 1071 1072
f 1071 1073 1074
f 1073 1075 1076
f 1075 1077 1078
f 1077 1079 1080
f 1081 1082 1083
f 1082 1084 1085
f 1084 1086 1087
f 1088 1089 1090
f 1089 1091 1092
f 1091 1093 1094
f 1093 1095 1096
f 1095 1097 1098
f 1097 1099 1100
f 1101 1102 1103
f 1102 1104 1105
f 1104 1106 1107
f 1106 1108 1109
f 1110 1111 1112
f 1111 1113 1114
f 1113 1115 1116
f 1115 1117 1118
f 1117 1119 1120
f 1119 1121 1122
f 1121 1123 1124
f 1123 1125 1126
f 1125 1127 1128
f 1129 1130 1131
f 1132 1133 1134
f 1135 1136 1137
f 1136 1138 1139
f 1138 1140 1141
f 1140 1142 1143
f 1144 1145 1146
f 1145 1147 1148
f 1147 1149 1150
f 1149 1151 1152
f 1151 1153 1154
f 1153 1155 1156
f 1157 1158 1159
f 1158 1160 1161
f 1160 1162 1163
f 1162 1164 1165
f 1164 1166 1167
f 1166 1168 1169
f 1168 1170 1171
f 1170 1172 1173
f 1172 1174 1175
f 1174 1176 1177
f 1176 1178 1179
f 1178 1180 1181
f 1180 1182 1183
f 1182 1184 1185
f 1184 1186 1187
f 1186 1188 1189
f 1188 1190 1191
f 1190 1192 1193
f 1192 1194 1195
f 1196 1197 1198
f 1197 1199 1200
f 1199 1201 1202
f 1201 1203 1204
f 1203 1205 1206
f 1205 1207 1208
f 1207 1209 1210
f 1209 1211 1212
f 1211 1213 1214
f 1213 1215 1216
f 1215 1217 1218
f 1217 714 713
f 1219 717 716
f 717 721 719
f 728 731 729
f 731 1220 733
f 1221 713 735
f 713 738 736
f 738 742 740
f 1222 745 744
f 745 749 747
f 749 753 751
f 753 1223 755
f 757 760 758
f 760 1224 762
f 1224 765 764
f 765 769 767
f 769 1225 771
f 1226 774 773
f 774 778 776
f 778 782 780
f 784 787 786
f 787 791 789
f 1227 782 793
f 782 796 794
f 796 800 798
f 800 804 802
f 806 809 807
f 809 813 811
f 813 817 815
f 817 821 819
f 821 825 823
f 825 829 827
f 829 833 831
f 833 837 835
f 837 841 839
f 841 845 843
f 845 849 847
f 1228 852 851
f 854 857 855
f 857 861 859
f 861 865 863
f 865 1229 867
f 869 872 870
f 872 876 874
f 876 880 878
f 1230 885 884
f 885 889 887
f 889 893 891
f 893 1231 895
f 897 900 898
f 900 904 902
f 904 908 906
f 908 912 910
f 912 916 914
f 916 920 918
f 920 924 922
f 924 928 926
f 930 934 932
f 934 938 936
f 938 942 940
f 944 947 945
f 947 1232 949
f 1233 952 951
f 952 956 954
f 956 960 958
f 960 964 962
f 964 968 966
f 1234 971 970
f 971 975 973
f 975 979 977
f 979 983 981
f 983 987 985
f 989 992 990
f 992 996 994
f 998 1001 999
f 1235 1004 1003
f 1004 1008 1006
f 1010 1013 1011
f 1013 1017 1015
f 1017 1021 1019
f 1021 1025 1023
f 1025 1029 1027
f 1029 1236 1031
f 1033 1036 1034
f 1036 1040 1038
f 1040 1044 1042
f 1044 1048 1046
f 1048 1052 1050
f 1052 1056 1054
f 1056 1060 1058
f 1060 1064 1062
f 1066 1069 1067
f 1069 1073 1071
f 1073 1077 1075
f 1077 1237 1079
f 1238 1082 1081
f 1082 1086 1084
f 1088 1091 1089
f 1091 1095 1093
f 1095 1099 1097
f 1239 1102 1101
f 1102 1106 1104
f 1106 1240 1108
f 1241 1111 1110
f 1111 1115 1113
f 1115 1119 1117
f 1119 1123 1121
f 1123 1127 1125
f 1129 1242 1130
f 1243 1133 1132
f 1135 1138 1136
f 1138 1142 1140
f 1244 1145 1144
f 1145 1149 1147
f 1149 1153 1151
f 1153 1245 1155
f 1157 1160 1158
f 1160 1164 1162
f 1164 1168 1166
f 1168 1172 1170
f 1172 1176 1174
f 1176 1180 1178
f 1180 1184 1182
f 1184 1188 1186
f 1188 1192 1190
f 1196 1199 1197
f 1199 1203 1201
f 1203 1207 1205
f 1207 1211 1209
f 1211 1215 1213
f 1215 714 1217
f 1219 721 717
f 728 1220 731
f 1246 713 1221
f 713 742 738
f 1222 749 745
f 749 1223 753
f 757 1224 760
f 1224 769 765
f 1226 778 774
f 778 784 782
f 784 791 787
f 1247 782 1227
f 782 800 796
f 1248 809 806
f 809 817 813
f 817 825 821
f 825 833 829
f 833 841 837
f 841 849 845
f 1249 852 1228
f 854 861 857
f 861 1229 865
f 1250 872 869
f 872 880 876
f 1230 889 885
f 889 1231 893
f 897 904 900
f 904 912 908
f 916 924 920
f 924 930 928
f 930 938 934
f 938 1251 942
f 1252 947 944
f 947 1253 1232
f 1233 956 952
f 956 964 960
f 964 1254 968
f 1234 975 971
f 975 983 979
f 983 989 987
f 989 996 992
f 996 1001 998
f 1235 1008 1004
f 1255 1013 1010
f 1017 1025 1021
f 1025 1236 1029
f 1256 1036 1033
f 1036 1044 1040
f 1044 1052 1048
f 1052 1060 1056
f 1060 1257 1064
f 1066 1073 1069
f 1073 1237 1077
f 1238 1086 1082
f 1258 1091 1088
f 1091 1099 1095
f 1239 1106 1102
f 1106 1259 1240
f 1241 1115 1111
f 1115 1123 1119
f 1123 1260 1127
f 1129 1243 1242
f 1243 1261 1133
f 1262 1138 1135
f 1138 1263 1142
f 1244 1149 1145
f 1149 1245 1153
f 1264 1160 1157
f 1160 1168 1164
f 1168 1176 1172
f 1176 1184 1180
f 1184 1192 1188
f 1196 1203 1199
f 1203 1211 1207
f 1211 714 1215
f 1219 723 721
f 728 1265 1220
f 1266 713 1246
f 713 1267 742
f 1268 749 1222
f 749 1269 1223
f 1225 778 1226
f 778 791 784
f 1270 782 1247
f 782 804 800
f 1248 817 809
f 817 833 825
f 833 849 841
f 1271 852 1249
f 861 1272 1229
f 1273 872 1250
f 872 882 880
f 1274 889 1230
f 889 1275 1231
f 1276 904 897
f 904 916 912
f 916 930 924
f 930 1251 938
f 1252 1253 947
f 1277 956 1233
f 956 1254 964
f 1278 975 1234
f 975 989 983
f 989 1001 996
f 1279 1008 1235
f 1255 1017 1013
f 1017 1236 1025
f 1256 1044 1036
f 1044 1060 1052
f 1066 1237 1073
f 1280 1086 1238
f 1258 1099 1091
f 1281 1106 1239
f 1106 1282 1259
f 1283 1115 1241
f 1115 1260 1123
f 1129 1261 1243
f 1284 1138 1262
f 1285 1149 1244
f 1149 1286 1245
f 1264 1168 1160
f 1168 1184 1176
f 1184 1194 1192
f 1287 1203 1196
f 1203 714 1211
f 1288 723 1219
f 1289 1265 728
f 1265 713 1266
f 1268 1269 749
f 769 778 1225
f 778 1290 791
f 1291 782 1270
f 1292 817 1248
f 817 849 833
f 1293 852 1271
f 861 1294 1272
f 1273 882 872
f 1295 889 1274
f 889 1296 1275
f 1276 916 904
f 916 1251 930
f 1297 1253 1252
f 1277 1254 956
f 1278 989 975
f 989 1298 1001
f 1279 1299 1008
f 1300 1017 1255
f 1017 1301 1236
f 1256 1060 1044
f 1066 1280 1237
f 1280 1302 1086
f 1258 1303 1099
f 1281 1282 1106
f 1282 1115 1283
f 1115 1304 1260
f 1129 1284 1261
f 1284 1263 1138
f 1285 1286 1149
f 1305 1168 1264
f 1168 1194 1184
f 1306 1203 1287
f 1203 1307 714
f 1288 1308 723
f 1289 713 1265
f 1309 1269 1268
f 1224 778 769
f 778 1310 1290
f 1311 782 1291
f 1312 817 1292
f 817 1313 849
f 1293 1314 852
f 861 1315 1294
f 1316 882 1273
f 1295 1296 889
f 1317 916 1276
f 916 1318 1251
f 1297 1319 1253
f 1320 1254 1277
f 1278 1298 989
f 1017 1256 1301
f 1256 1257 1060
f 1280 1321 1302
f 1258 1322 1303
f 1323 1282 1281
f 1282 1304 1115
f 1129 1263 1284
f 1285 1324 1286
f 1325 1168 1305
f 1168 1326 1194
f 1306 1307 1203
f 1327 713 1289
f 1267 1269 1309
f 1224 1310 778
f 1311 804 782
f 1312 1313 817
f 1328 1314 1293
f 861 1329 1315
f 1330 882 1316
f 1331 1296 1295
f 1332 916 1317
f 916 1333 1318
f 1334 1319 1297
f 1319 1254 1320
f 1278 1335 1298
f 1017 1257 1256
f 1280 1336 1321
f 1258 1323 1322
f 1323 1304 1282
f 1337 1263 1129
f 1285 1338 1324
f 1339 1168 1325
f 1168 1340 1326
f 1341 1307 1306
f 1342 713 1327
f 713 1269 1267
f 1224 1343 1310
f 1344 804 1311
f 1345 1313 1312
f 1328 1346 1314
f 861 1347 1329
f 1348 882 1330
f 882 1296 1331
f 1349 916 1332
f 916 1350 1333
f 1334 1254 1319
f 1017 1351 1257
f 1323 1352 1304
f 1337 1285 1263
f 1285 1353 1338
f 1339 1340 1168
f 1354 1307 1341
f 1342 1269 713
f 1224 1355 1343
f 1356 804 1344
f 1357 1313 1345
f 1313 1346 1328
f 861 1358 1347
f 1359 882 1348
f 882 1360 1296
f 1361 916 1349
f 916 1362 1350
f 1334 1363 1254
f 1017 1364 1351
f 1323 1365 1352
f 1337 1353 1285
f 1366 1340 1339
f 1367 1307 1354
f 1368 1269 1342
f 1224 1369 1355
f 1370 804 1356
f 804 1313 1357
f 1313 1371 1346
f 861 1359 1358
f 1359 1360 882
f 1372 916 1361
f 916 1373 1362
f 1374 1363 1334
f 1017 1375 1364
f 1323 1376 1365
f 1337 1377 1353
f 1378 1340 1366
f 1379 1307 1367
f 1380 1269 1368
f 1224 1381 1369
f 1382 804 1370
f 804 1371 1313
f 1359 1372 1360
f 1372 1373 916
f 1374 1383 1363
f 1017 1384 1375
f 1323 1385 1376
f 1337 1386 1377
f 1387 1340 1378
f 1388 1307 1379
f 726 1269 1380
f 1224 1389 1381
f 1389 804 1382
f 804 1390 1371
f 1359 1373 1372
f 1374 1278 1383
f 1017 1066 1384
f 1323 1337 1385
f 1337 1391 1386
f 1387 1392 1340
f 1392 1307 1388
f 726 1393 1269
f 1224 804 1389
f 804 1394 1390
f 1359 1395 1373
f 1374 1335 1278
f 1017 1280 1066
f 1258 1337 1323
f 1337 1396 1391
f 1387 1307 1392
f 726 1397 1393
f 1224 1394 804
f 1359 1374 1395
f 1300 1280 1017
f 1398 1337 1258
f 1337 1399 1396
f 1400 1307 1387
f 726 1401 1397
f 757 1394 1224
f 1359 1335 1374
f 1402 1280 1300
f 1398 1399 1337
f 1403 1307 1400
f 726 757 1401
f 757 1404 1394
f 861 1335 1359
f 1402 1336 1280
f 1405 1399 1398
f 1406 1307 1403
f 726 1404 757
f 854 1335 861
f 1336 1399 1405
f 1407 1307 1406
f 725 1404 726
f 854 1408 1335
f 1402 1399 1336
f 1409 1307 1407
f 1410 1404 725
f 854 1279 1408
f 1402 1411 1399
f 1411 1307 1409
f 1410 854 1404
f 854 1299 1279
f 1411 1288 1307
f 854 1402 1299
f 1411 1308 1288
f 1410 1402 854
f 1411 1412 1308
f 1413 1402 1410
f 1411 1414 1412
f 1415 1402 1413
f 1411 1416 1414
f 1417 1402 1415
f 1411 1418 1416
f 1419 1402 1417
f 1411 1420 1418
f 1421 1402 1419
f 1411 1422 1420
f 1423 1402 1421
f 1411 1424 1422
f 1423 1411 1402
f 1411 1423 1424
f 403 1115 406
f 406 1115 1118
f 406 1118 405
f 405 1118 1117
f 405 1117 408
f 408 1117 1120
f 408 1120 407
f 407 1120 1119
f 407 1119 410
f 410 1119 1122
f 410 1122 409
f 409 1122 1121
f 409 1121 412
f 412 1121 1124
f 412 1124 411
f 411 1124 1123
f 411 1123 414
f 414 1123 1126
f 414 1126 413
f 413 1126 1125
f 413 1125 416
f 416 1125 1128
f 416 1128 415
f 415 1128 1127
f 415 1127 548
f 548 1127 1260
f 548 1260 592
f 592 1260 1304
f 592 1304 640
f 640 1304 1352
f 640 1352 653
f 653 1352 1365
f 653 1365 664
f 664 1365 1376
f 664 1376 673
f 673 1376 1385
f 673 1385 625
f 625 1385 1337
f 625 1337 418
f 418 1337 1129
f 418 1129 419
f 419 1129 1131
f 419 1131 417
f 417 1131 1130
f 417 1130 530
f 530 1130 1242
f 530 1242 531
f 531 1242 1243
f 531 1243 421
f 421 1243 1132
f 421 1132 422
f 422 1132 1134
f 422 1134 420
f 420 1134 1133
f 420 1133 549
f 549 1133 1261
f 549 1261 572
f 572 1261 1284
f 572 1284 550
f 550 1284 1262
f 550 1262 424
f 424 1262 1135
f 424 1135 425
f 425 1135 1137
f 425 1137 423
f 423 1137 1136
f 423 1136 427
f 427 1136 1139
f 427 1139 426
f 426 1139 1138
f 426 1138 429
f 429 1138 1141
f 429 1141 428
f 428 1141 1140
f 428 1140 431
f 431 1140 1143
f 431 1143 430
f 430 1143 1142
f 430 1142 551
f 551 1142 1263
f 551 1263 573
f 573 1263 1285
f 573 1285 532
f 532 1285 1244
f 532 1244 433
f 433 1244 1144
f 433 1144 434
f 434 1144 1146
f 434 1146 432
f 432 1146 1145
f 432 1145 436
f 436 1145 1148
f 436 1148 435
f 435 1148 1147
f 435 1147 438
f 438 1147 1150
f 438 1150 437
f 437 1150 1149
f 437 1149 440
f 440 1149 1152
f 440 1152 439
f 439 1152 1151
f 439 1151 442
f 442 1151 1154
f 442 1154 441
f 441 1154 1153
f 441 1153 444
f 444 1153 1156
f 444 1156 443
f 443 1156 1155
f 443 1155 533
f 533 1155 1245
f 533 1245 574
f 574 1245 1286
f 574 1286 612
f 612 1286 1324
f 612 1324 626
f 626 1324 1338
f 626 1338 641
f 641 1338 1353
f 641 1353 665
f 665 1353 1377
f 665 1377 674
f 674 1377 1386
f 674 1386 679
f 679 1386 1391
f 679 1391 684
f 684 1391 1396
f 684 1396 687
f 687 1396 1399
f 687 1399 699
f 699 1399 1411
f 699 1411 697
f 697 1411 1409
f 697 1409 695
f 695 1409 1407
f 695 1407 694
f 694 1407 1406
f 694 1406 691
f 691 1406 1403
f 691 1403 688
f 688 1403 1400
f 688 1400 675
f 675 1400 1387
f 675 1387 666
f 666 1387 1378
f 666 1378 654
f 654 1378 1366
f 654 1366 627
f 627 1366 1339
f 627 1339 613
f 613 1339 1325
f 613 1325 593
f 593 1325 1305
f 593 1305 552
f 552 1305 1264
f 552 1264 446
f 446 1264 1157
f 446 1157 447
f 447 1157 1159
f 447 1159 445
f 445 1159 1158
f 445 1158 449
f 449 1158 1161
f 449 1161 448
f 448 1161 1160
f 448 1160 451
f 451 1160 1163
f 451 1163 450
f 450 1163 1162
f 450 1162 453
f 453 1162 1165
f 453 1165 452
f 452 1165 1164
f 452 1164 455
f 455 1164 1167
f 455 1167 454
f 454 1167 1166
f 454 1166 457
f 457 1166 1169
f 457 1169 456
f 456 1169 1168
f 456 1168 459
f 459 1168 1171
f 459 1171 458
f 458 1171 1170
f 458 1170 461
f 461 1170 1173
f 461 1173 460
f 460 1173 1172
f 460 1172 463
f 463 1172 1175
f 463 1175 462
f 462 1175 1174
f 462 1174 465
f 465 1174 1177
f 465 1177 464
f 464 1177 1176
f 464 1176 467
f 467 1176 1179
f 467 1179 466
f 466 1179 1178
f 466 1178 469
f 469 1178 1181
f 469 1181 468
f 468 1181 1180
f 468 1180 471
f 471 1180 1183
f 471 1183 470
f 470 1183 1182
f 470 1182 473
f 473 1182 1185
f 473 1185 472
f 472 1185 1184
f 472 1184 475
f 475 1184 1187
f 475 1187 474
f 474 1187 1186
f 474 1186 477
f 477 1186 1189
f 477 1189 476
f 476 1189 1188
f 476 1188 479
f 479 1188 1191
f 479 1191 478
f 478 1191 1190
f 478 1190 481
f 481 1190 1193
f 481 1193 480
f 480 1193 1192
f 480 1192 483
f 483 1192 1195
f 483 1195 482
f 482 1195 1194
f 482 1194 614
f 614 1194 1326
f 614 1326 628
f 628 1326 1340
f 628 1340 680
f 680 1340 1392
f 680 1392 676
f 676 1392 1388
f 676 1388 667
f 667 1388 1379
f 667 1379 655
f 655 1379 1367
f 655 1367 642
f 642 1367 1354
f 642 1354 629
f 629 1354 1341
f 629 1341 594
f 594 1341 1306
f 594 1306 575
f 575 1306 1287
f 575 1287 485
f 485 1287 1196
f 485 1196 486
f 486 1196 1198
f 486 1198 484
f 484 1198 1197
f 484 1197 488
f 488 1197 1200
f 488 1200 487
f 487 1200 1199
f 487 1199 490
f 490 1199 1202
f 490 1202 489
f 489 1202 1201
f 489 1201 492
f 492 1201 1204
f 492 1204 491
f 491 1204 1203
f 491 1203 494
f 494 1203 1206
f 494 1206 493
f 493 1206 1205
f 493 1205 496
f 496 1205 1208
f 496 1208 495
f 495 1208 1207
f 495 1207 498
f 498 1207 1210
f 498 1210 497
f 497 1210 1209
f 497 1209 500
f 500 1209 1212
f 500 1212 499
f 499 1212 1211
f 499 1211 502
f 502 1211 1214
f 502 1214 501
f 501 1214 1213
f 501 1213 504
f 504 1213 1216
f 504 1216 503
f 503 1216 1215
f 503 1215 506
f 506 1215 1218
f 506 1218 505
f 505 1218 1217
f 505 1217 2
f 2 1217 713
f 2 713 25
f 25 713 737
f 25 737 24
f 24 737 736
f 24 736 27
f 27 736 739
f 27 739 26
f 26 739 738
f 26 738 29
f 29 738 741
f 29 741 28
f 28 741 740
f 28 740 31
f 31 740 743
f 31 743 30
f 30 743 742
f 30 742 555
f 555 742 1267
f 555 1267 597
f 597 1267 1309
f 597 1309 556
f 556 1309 1268
f 556 1268 510
f 510 1268 1222
f 510 1222 33
f 33 1222 744
f 33 744 34
f 34 744 746
f 34 746 32
f 32 746 745
f 32 745 36
f 36 745 748
f 36 748 35
f 35 748 747
f 35 747 38
f 38 747 750
f 38 750 37
f 37 750 749
f 37 749 40
f 40 749 752
f 40 752 39
f 39 752 751
f 39 751 42
f 42 751 754
f 42 754 41
f 41 754 753
f 41 753 44
f 44 753 756
f 44 756 43
f 43 756 755
f 43 755 511
f 511 755 1223
f 511 1223 557
f 557 1223 1269
f 557 1269 681
f 681 1269 1393
f 681 1393 685
f 685 1393 1397
f 685 1397 689
f 689 1397 1401
f 689 1401 46
f 46 1401 757
f 46 757 47
f 47 757 759
f 47 759 45
f 45 759 758
f 45 758 49
f 49 758 761
f 49 761 48
f 48 761 760
f 48 760 51
f 51 760 763
f 51 763 50
f 50 763 762
f 50 762 512
f 512 762 1224
f 512 1224 53
f 53 1224 764
f 53 764 54
f 54 764 766
f 54 766 52
f 52 766 765
f 52 765 56
f 56 765 768
f 56 768 55
f 55 768 767
f 55 767 58
f 58 767 770
f 58 770 57
f 57 770 769
f 57 769 60
f 60 769 772
f 60 772 59
f 59 772 771
f 59 771 513
f 513 771 1225
f 513 1225 514
f 514 1225 1226
f 514 1226 62
f 62 1226 773
f 62 773 63
f 63 773 775
f 63 775 61
f 61 775 774
f 61 774 65
f 65 774 777
f 65 777 64
f 64 777 776
f 64 776 67
f 67 776 779
f 67 779 66
f 66 779 778
f 66 778 69
f 69 778 781
f 69 781 68
f 68 781 780
f 68 780 71
f 71 780 783
f 71 783 70
f 70 783 782
f 70 782 83
f 83 782 795
f 83 795 82
f 82 795 794
f 82 794 85
f 85 794 797
f 85 797 84
f 84 797 796
f 84 796 87
f 87 796 799
f 87 799 86
f 86 799 798
f 86 798 89
f 89 798 801
f 89 801 88
f 88 801 800
f 88 800 91
f 91 800 803
f 91 803 90
f 90 803 802
f 90 802 93
f 93 802 805
f 93 805 92
f 92 805 804
f 92 804 645
f 645 804 1357
f 645 1357 633
f 633 1357 1345
f 633 1345 600
f 600 1345 1312
f 600 1312 580
f 580 1312 1292
f 580 1292 536
f 536 1292 1248
f 536 1248 95
f 95 1248 806
f 95 806 96
f 96 806 808
f 96 808 94
f 94 808 807
f 94 807 98
f 98 807 810
f 98 810 97
f 97 810 809
f 97 809 100
f 100 809 812
f 100 812 99
f 99 812 811
f 99 811 102
f 102 811 814
f 102 814 101
f 101 814 813
f 101 813 104
f 104 813 816
f 104 816 103
f 103 816 815
f 103 815 106
f 106 815 818
f 106 818 105
f 105 818 817
f 105 817 108
f 108 817 820
f 108 820 107
f 107 820 819
f 107 819 110
f 110 819 822
f 110 822 109
f 109 822 821
f 109 821 112
f 112 821 824
f 112 824 111
f 111 824 823
f 111 823 114
f 114 823 826
f 114 826 113
f 113 826 825
f 113 825 116
f 116 825 828
f 116 828 115
f 115 828 827
f 115 827 118
f 118 827 830
f 118 830 117
f 117 830 829
f 117 829 120
f 120 829 832
f 120 832 119
f 119 832 831
f 119 831 122
f 122 831 834
f 122 834 121
f 121 834 833
f 121 833 124
f 124 833 836
f 124 836 123
f 123 836 835
f 123 835 126
f 126 835 838
f 126 838 125
f 125 838 837
f 125 837 128
f 128 837 840
f 128 840 127
f 127 840 839
f 127 839 130
f 130 839 842
f 130 842 129
f 129 842 841
f 129 841 132
f 132 841 844
f 132 844 131
f 131 844 843
f 131 843 134
f 134 843 846
f 134 846 133
f 133 846 845
f 133 845 136
f 136 845 848
f 136 848 135
f 135 848 847
f 135 847 138
f 138 847 850
f 138 850 137
f 137 850 849
f 137 849 601
f 601 849 1313
f 601 1313 616
f 616 1313 1328
f 616 1328 581
f 581 1328 1293
f 581 1293 559
f 559 1293 1271
f 559 1271 537
f 537 1271 1249
f 537 1249 516
f 516 1249 1228
f 516 1228 140
f 140 1228 851
f 140 851 141
f 141 851 853
f 141 853 139
f 139 853 852
f 139 852 602
f 602 852 1314
f 602 1314 634
f 634 1314 1346
f 634 1346 659
f 659 1346 1371
f 659 1371 678
f 678 1371 1390
f 678 1390 682
f 682 1390 1394
f 682 1394 692
f 692 1394 1404
f 692 1404 143
f 143 1404 854
f 143 854 144
f 144 854 856
f 144 856 142
f 142 856 855
f 142 855 146
f 146 855 858
f 146 858 145
f 145 858 857
f 145 857 148
f 148 857 860
f 148 860 147
f 147 860 859
f 147 859 150
f 150 859 862
f 150 862 149
f 149 862 861
f 149 861 152
f 152 861 864
f 152 864 151
f 151 864 863
f 151 863 154
f 154 863 866
f 154 866 153
f 153 866 865
f 153 865 156
f 156 865 868
f 156 868 155
f 155 868 867
f 155 867 517
f 517 867 1229
f 517 1229 560
f 560 1229 1272
f 560 1272 582
f 582 1272 1294
f 582 1294 603
f 603 1294 1315
f 603 1315 617
f 617 1315 1329
f 617 1329 635
f 635 1329 1347
f 635 1347 646
f 646 1347 1358
f 646 1358 647
f 647 1358 1359
f 647 1359 636
f 636 1359 1348
f 636 1348 618
f 618 1348 1330
f 618 1330 604
f 604 1330 1316
f 604 1316 561
f 561 1316 1273
f 561 1273 538
f 538 1273 1250
f 538 1250 158
f 158 1250 869
f 158 869 159
f 159 869 871
f 159 871 157
f 157 871 870
f 157 870 161
f 161 870 873
f 161 873 160
f 160 873 872
f 160 872 163
f 163 872 875
f 163 875 162
f 162 875 874
f 162 874 165
f 165 874 877
f 165 877 164
f 164 877 876
f 164 876 167
f 167 876 879
f 167 879 166
f 166 879 878
f 166 878 169
f 169 878 881
f 169 881 168
f 168 881 880
f 168 880 171
f 171 880 883
f 171 883 170
f 170 883 882
f 170 882 619
f 619 882 1331
f 619 1331 583
f 583 1331 1295
f 583 1295 562
f 562 1295 1274
f 562 1274 518
f 518 1274 1230
f 518 1230 173
f 173 1230 884
f 173 884 174
f 174 884 886
f 174 886 172
f 172 886 885
f 172 885 176
f 176 885 888
f 176 888 175
f 175 888 887
f 175 887 178
f 178 887 890
f 178 890 177
f 177 890 889
f 177 889 180
f 180 889 892
f 180 892 179
f 179 892 891
f 179 891 182
f 182 891 894
f 182 894 181
f 181 894 893
f 181 893 184
f 184 893 896
f 184 896 183
f 183 896 895
f 183 895 519
f 519 895 1231
f 519 1231 563
f 563 1231 1275
f 563 1275 584
f 584 1275 1296
f 584 1296 648
f 648 1296 1360
f 648 1360 660
f 660 1360 1372
f 660 1372 649
f 649 1372 1361
f 649 1361 637
f 637 1361 1349
f 637 1349 620
f 620 1349 1332
f 620 1332 605
f 605 1332 1317
f 605 1317 564
f 564 1317 1276
f 564 1276 186
f 186 1276 897
f 186 897 187
f 187 897 899
f 187 899 185
f 185 899 898
f 185 898 189
f 189 898 901
f 189 901 188
f 188 901 900
f 188 900 191
f 191 900 903
f 191 903 190
f 190 903 902
f 190 902 193
f 193 902 905
f 193 905 192
f 192 905 904
f 192 904 195
f 195 904 907
f 195 907 194
f 194 907 906
f 194 906 197
f 197 906 909
f 197 909 196
f 196 909 908
f 196 908 199
f 199 908 911
f 199 911 198
f 198 911 910
f 198 910 201
f 201 910 913
f 201 913 200
f 200 913 912
f 200 912 203
f 203 912 915
f 203 915 202
f 202 915 914
f 202 914 205
f 205 914 917
f 205 917 204
f 204 917 916
f 204 916 207
f 207 916 919
f 207 919 206
f 206 919 918
f 206 918 209
f 209 918 921
f 209 921 208
f 208 921 920
f 208 920 211
f 211 920 923
f 211 923 210
f 210 923 922
f 210 922 213
f 213 922 925
f 213 925 212
f 212 925 924
f 212 924 215
f 215 924 927
f 215 927 214
f 214 927 926
f 214 926 217
f 217 926 929
f 217 929 216
f 216 929 928
f 216 928 219
f 219 928 931
f 219 931 218
f 218 931 930
f 218 930 221
f 221 930 933
f 221 933 220
f 220 933 932
f 220 932 223
f 223 932 935
f 223 935 222
f 222 935 934
f 222 934 225
f 225 934 937
f 225 937 224
f 224 937 936
f 224 936 227
f 227 936 939
f 227 939 226
f 226 939 938
f 226 938 229
f 229 938 941
f 229 941 228
f 228 941 940
f 228 940 231
f 231 940 943
f 231 943 230
f 230 943 942
f 230 942 539
f 539 942 1251
f 539 1251 606
f 606 1251 1318
f 606 1318 621
f 621 1318 1333
f 621 1333 638
f 638 1333 1350
f 638 1350 650
f 650 1350 1362
f 650 1362 661
f 661 1362 1373
f 661 1373 683
f 683 1373 1395
f 683 1395 662
f 662 1395 1374
f 662 1374 622
f 622 1374 1334
f 622 1334 585
f 585 1334 1297
f 585 1297 540
f 540 1297 1252
f 540 1252 233
f 233 1252 944
f 233 944 234
f 234 944 946
f 234 946 232
f 232 946 945
f 232 945 236
f 236 945 948
f 236 948 235
f 235 948 947
f 235 947 238
f 238 947 950
f 238 950 237
f 237 950 949
f 237 949 520
f 520 949 1232
f 520 1232 541
f 541 1232 1253
f 541 1253 607
f 607 1253 1319
f 607 1319 608
f 608 1319 1320
f 608 1320 565
f 565 1320 1277
f 565 1277 521
f 521 1277 1233
f 521 1233 240
f 240 1233 951
f 240 951 241
f 241 951 953
f 241 953 239
f 239 953 952
f 239 952 243
f 243 952 955
f 243 955 242
f 242 955 954
f 242 954 245
f 245 954 957
f 245 957 244
f 244 957 956
f 244 956 247
f 247 956 959
f 247 959 246
f 246 959 958
f 246 958 249
f 249 958 961
f 249 961 248
f 248 961 960
f 248 960 251
f 251 960 963
f 251 963 250
f 250 963 962
f 250 962 253
f 253 962 965
f 253 965 252
f 252 965 964
f 252 964 255
f 255 964 967
f 255 967 254
f 254 967 966
f 254 966 257
f 257 966 969
f 257 969 256
f 256 969 968
f 256 968 542
f 542 968 1254
f 542 1254 651
f 651 1254 1363
f 651 1363 671
f 671 1363 1383
f 671 1383 566
f 566 1383 1278
f 566 1278 522
f 522 1278 1234
f 522 1234 259
f 259 1234 970
f 259 970 260
f 260 970 972
f 260 972 258
f 258 972 971
f 258 971 262
f 262 971 974
f 262 974 261
f 261 974 973
f 261 973 264
f 264 973 976
f 264 976 263
f 263 976 975
f 263 975 266
f 266 975 978
f 266 978 265
f 265 978 977
f 265 977 268
f 268 977 980
f 268 980 267
f 267 980 979
f 267 979 270
f 270 979 982
f 270 982 269
f 269 982 981
f 269 981 272
f 272 981 984
f 272 984 271
f 271 984 983
f 271 983 274
f 274 983 986
f 274 986 273
f 273 986 985
f 273 985 276
f 276 985 988
f 276 988 275
f 275 988 987
f 275 987 278
f 278 987 989
f 278 989 279
f 279 989 991
f 279 991 277
f 277 991 990
f 277 990 281
f 281 990 993
f 281 993 280
f 280 993 992
f 280 992 283
f 283 992 995
f 283 995 282
f 282 995 994
f 282 994 285
f 285 994 997
f 285 997 284
f 284 997 996
f 284 996 287
f 287 996 998
f 287 998 288
f 288 998 1000
f 288 1000 286
f 286 1000 999
f 286 999 290
f 290 999 1002
f 290 1002 289
f 289 1002 1001
f 289 1001 586
f 586 1001 1298
f 586 1298 623
f 623 1298 1335
f 623 1335 696
f 696 1335 1408
f 696 1408 567
f 567 1408 1279
f 567 1279 523
f 523 1279 1235
f 523 1235 292
f 292 1235 1003
f 292 1003 293
f 293 1003 1005
f 293 1005 291
f 291 1005 1004
f 291 1004 295
f 295 1004 1007
f 295 1007 294
f 294 1007 1006
f 294 1006 297
f 297 1006 1009
f 297 1009 296
f 296 1009 1008
f 296 1008 587
f 587 1008 1299
f 587 1299 690
f 690 1299 1402
f 690 1402 588
f 588 1402 1300
f 588 1300 543
f 543 1300 1255
f 543 1255 299
f 299 1255 1010
f 299 1010 300
f 300 1010 1012
f 300 1012 298
f 298 1012 1011
f 298 1011 302
f 302 1011 1014
f 302 1014 301
f 301 1014 1013
f 301 1013 304
f 304 1013 1016
f 304 1016 303
f 303 1016 1015
f 303 1015 306
f 306 1015 1018
f 306 1018 305
f 305 1018 1017
f 305 1017 308
f 308 1017 1020
f 308 1020 307
f 307 1020 1019
f 307 1019 310
f 310 1019 1022
f 310 1022 309
f 309 1022 1021
f 309 1021 312
f 312 1021 1024
f 312 1024 311
f 311 1024 1023
f 311 1023 314
f 314 1023 1026
f 314 1026 313
f 313 1026 1025
f 313 1025 316
f 316 1025 1028
f 316 1028 315
f 315 1028 1027
f 315 1027 318
f 318 1027 1030
f 318 1030 317
f 317 1030 1029
f 317 1029 320
f 320 1029 1032
f 320 1032 319
f 319 1032 1031
f 319 1031 524
f 524 1031 1236
f 524 1236 589
f 589 1236 1301
f 589 1301 544
f 544 1301 1256
f 544 1256 322
f 322 1256 1033
f 322 1033 323
f 323 1033 1035
f 323 1035 321
f 321 1035 1034
f 321 1034 325
f 325 1034 1037
f 325 1037 324
f 324 1037 1036
f 324 1036 327
f 327 1036 1039
f 327 1039 326
f 326 1039 1038
f 326 1038 329
f 329 1038 1041
f 329 1041 328
f 328 1041 1040
f 328 1040 331
f 331 1040 1043
f 331 1043 330
f 330 1043 1042
f 330 1042 333
f 333 1042 1045
f 333 1045 332
f 332 1045 1044
f 332 1044 335
f 335 1044 1047
f 335 1047 334
f 334 1047 1046
f 334 1046 337
f 337 1046 1049
f 337 1049 336
f 336 1049 1048
f 336 1048 339
f 339 1048 1051
f 339 1051 338
f 338 1051 1050
f 338 1050 341
f 341 1050 1053
f 341 1053 340
f 340 1053 1052
f 340 1052 343
f 343 1052 1055
f 343 1055 342
f 342 1055 1054
f 342 1054 345
f 345 1054 1057
f 345 1057 344
f 344 1057 1056
f 344 1056 347
f 347 1056 1059
f 347 1059 346
f 346 1059 1058
f 346 1058 349
f 349 1058 1061
f 349 1061 348
f 348 1061 1060
f 348 1060 351
f 351 1060 1063
f 351 1063 350
f 350 1063 1062
f 350 1062 353
f 353 1062 1065
f 353 1065 352
f 352 1065 1064
f 352 1064 545
f 545 1064 1257
f 545 1257 639
f 639 1257 1351
f 639 1351 652
f 652 1351 1364
f 652 1364 663
f 663 1364 1375
f 663 1375 672
f 672 1375 1384
f 672 1384 355
f 355 1384 1066
f 355 1066 356
f 356 1066 1068
f 356 1068 354
f 354 1068 1067
f 354 1067 358
f 358 1067 1070
f 358 1070 357
f 357 1070 1069
f 357 1069 360
f 360 1069 1072
f 360 1072 359
f 359 1072 1071
f 359 1071 362
f 362 1071 1074
f 362 1074 361
f 361 1074 1073
f 361 1073 364
f 364 1073 1076
f 364 1076 363
f 363 1076 1075
f 363 1075 366
f 366 1075 1078
f 366 1078 365
f 365 1078 1077
f 365 1077 368
f 368 1077 1080
f 368 1080 367
f 367 1080 1079
f 367 1079 525
f 525 1079 1237
f 525 1237 568
f 568 1237 1280
f 568 1280 526
f 526 1280 1238
f 526 1238 370
f 370 1238 1081
f 370 1081 371
f 371 1081 1083
f 371 1083 369
f 369 1083 1082
f 369 1082 373
f 373 1082 1085
f 373 1085 372
f 372 1085 1084
f 372 1084 375
f 375 1084 1087
f 375 1087 374
f 374 1087 1086
f 374 1086 590
f 590 1086 1302
f 590 1302 609
f 609 1302 1321
f 609 1321 624
f 624 1321 1336
f 624 1336 693
f 693 1336 1405
f 693 1405 686
f 686 1405 1398
f 686 1398 546
f 546 1398 1258
f 546 1258 377
f 377 1258 1088
f 377 1088 378
f 378 1088 1090
f 378 1090 376
f 376 1090 1089
f 376 1089 380
f 380 1089 1092
f 380 1092 379
f 379 1092 1091
f 379 1091 382
f 382 1091 1094
f 382 1094 381
f 381 1094 1093
f 381 1093 384
f 384 1093 1096
f 384 1096 383
f 383 1096 1095
f 383 1095 386
f 386 1095 1098
f 386 1098 385
f 385 1098 1097
f 385 1097 388
f 388 1097 1100
f 388 1100 387
f 387 1100 1099
f 387 1099 591
f 591 1099 1303
f 591 1303 610
f 610 1303 1322
f 610 1322 611
f 611 1322 1323
f 611 1323 569
f 569 1323 1281
f 569 1281 527
f 527 1281 1239
f 527 1239 390
f 390 1239 1101
f 390 1101 391
f 391 1101 1103
f 391 1103 389
f 389 1103 1102
f 389 1102 393
f 393 1102 1105
f 393 1105 392
f 392 1105 1104
f 392 1104 395
f 395 1104 1107
f 395 1107 394
f 394 1107 1106
f 394 1106 397
f 397 1106 1109
f 397 1109 396
f 396 1109 1108
f 396 1108 528
f 528 1108 1240
f 528 1240 547
f 547 1240 1259
f 547 1259 570
f 570 1259 1282
f 570 1282 571
f 571 1282 1283
f 571 1283 529
f 529 1283 1241
f 529 1241 399
f 399 1241 1110
f 399 1110 400
f 400 1110 1112
f 400 1112 398
f 398 1112 1111
f 398 1111 402
f 402 1111 1114
f 402 1114 401
f 401 1114 1113
f 401 1113 404
f 404 1113 1116
f 404 1116 403
f 403 1116 1115
f 707 1419 705
f 705 1419 1417
f 705 1417 703
f 703 1417 1415
f 703 1415 701
f 701 1415 1413
f 701 1413 698
f 698 1413 1410
f 698 1410 14
f 14 1410 725
f 14 725 15
f 15 725 727
f 15 727 13
f 13 727 726
f 13 726 668
f 668 726 1380
f 668 1380 656
f 656 1380 1368
f 656 1368 630
f 630 1368 1342
f 630 1342 615
f 615 1342 1327
f 615 1327 577
f 577 1327 1289
f 577 1289 17
f 17 1289 728
f 17 728 18
f 18 728 730
f 18 730 16
f 16 730 729
f 16 729 20
f 20 729 732
f 20 732 19
f 19 732 731
f 19 731 22
f 22 731 734
f 22 734 21
f 21 734 733
f 21 733 508
f 508 733 1220
f 508 1220 553
f 553 1220 1265
f 553 1265 554
f 554 1265 1266
f 554 1266 534
f 534 1266 1246
f 534 1246 509
f 509 1246 1221
f 509 1221 23
f 23 1221 735
f 23 735 3
f 3 735 715
f 3 715 1
f 1 715 714
f 1 714 595
f 595 714 1307
f 595 1307 576
f 576 1307 1288
f 576 1288 507
f 507 1288 1219
f 507 1219 5
f 5 1219 716
f 5 716 6
f 6 716 718
f 6 718 4
f 4 718 717
f 4 717 8
f 8 717 720
f 8 720 7
f 7 720 719
f 7 719 10
f 10 719 722
f 10 722 9
f 9 722 721
f 9 721 12
f 12 721 724
f 12 724 11
f 11 724 723
f 11 723 596
f 596 723 1308
f 596 1308 700
f 700 1308 1412
f 700 1412 702
f 702 1412 1414
f 702 1414 704
f 704 1414 1416
f 704 1416 706
f 706 1416 1418
f 706 1418 708
f 708 1418 1420
f 708 1420 710
f 710 1420 1422
f 710 1422 712
f 712 1422 1424
f 712 1424 711
f 711 1424 1423
f 711 1423 709
f 709 1423 1421
f 709 1421 707
f 707 1421 1419
f 79 791 578
f 578 791 1290
f 578 1290 598
f 598 1290 1310
f 598 1310 631
f 631 1310 1343
f 631 1343 643
f 643 1343 1355
f 643 1355 657
f 657 1355 1369
f 657 1369 669
f 669 1369 1381
f 669 1381 677
f 677 1381 1389
f 677 1389 670
f 670 1389 1382
f 670 1382 658
f 658 1382 1370
f 658 1370 644
f 644 1370 1356
f 644 1356 632
f 632 1356 1344
f 632 1344 599
f 599 1344 1311
f 599 1311 579
f 579 1311 1291
f 579 1291 558
f 558 1291 1270
f 558 1270 535
f 535 1270 1247
f 535 1247 515
f 515 1247 1227
f 515 1227 81
f 81 1227 793
f 81 793 73
f 73 793 785
f 73 785 72
f 72 785 784
f 72 784 75
f 75 784 786
f 75 786 76
f 76 786 788
f 76 788 74
f 74 788 787
f 74 787 78
f 78 787 790
f 78 790 77
f 77 790 789
f 77 789 80
f 80 789 792
f 80 792 79
f 79 792 791
