o 
v 69.85 0 -44.36
v 68.99 0 -47.08
v 69.43 0 -45.72
v 71.1 0 -40.25
v 70.27 0 -42.99
v 70.69 0 -41.62
v 71.9 0 -37.5
v 71.5 0 -38.88
v 72.66 0 -34.74
v 72.29 0 -36.12
v 73.39 0 -31.97
v 73.03 0 -33.36
v 74.08 0 -29.2
v 73.74 0 -30.59
v 74.74 0 -26.41
v 74.42 0 -27.81
v 75.37 0 -23.62
v 75.06 0 -25.02
v 77.06 0 -23.45
v 76.63 0 -23.5
v 76.84 0 -23.48
v 77.48 0 -23.42
v 77.27 0 -23.44
v 78.76 0 -23.29
v 78.33 0 -23.33
v 78.55 0 -23.31
v 79.08 0 -22.14
v 78.97 0 -23.27
v 79.43 0 -18.74
v 79.2 0 -21
v 79.32 0 -19.87
v 79.66 0 -16.47
v 79.55 0 -17.6
v 79.87 0 -14.21
v 79.77 0 -15.34
v 80.19 0 -10.81
v 79.98 0 -13.08
v 80.09 0 -11.95
v 80.39 0 -8.54
v 80.29 0 -9.68
v 80.58 0 -6.27
v 80.49 0 -7.41
v 80.77 0 -4
v 80.68 0 -5.14
v 78.65 0 -2.92
v 79.71 0 -3.45
v 74.32 0 -0.92
v 76.48 0 -1.92
v 75.4 0 -1.41
v 72.01 0 -0.34
v 73.19 0 -0.53
v 69.64 0 -0.35
v 70.83 0 -0.33
v 66.07 0 -0.03
v 68.44 0 -0.28
v 67.26 0 -0.15
v 63.69 0 -0.1
v 64.88 0 0
v 61.37 0 -0.63
v 62.53 0 -0.33
v 62.36 0 -1.6
v 61.86 0 -1.12
v 63.83 0 -3.06
v 62.85 0 -2.09
v 63.34 0 -2.58
v 65.32 0 -4.51
v 64.32 0 -3.54
v 64.82 0 -4.03
v 66.81 0 -5.95
v 65.82 0 -4.99
v 66.31 0 -5.47
v 67.8 0 -6.91
v 67.3 0 -6.43
v 69.8 0 -8.82
v 68.8 0 -7.86
v 69.3 0 -8.35
v 69.3 0 -10.18
v 69.54 0 -9.5
v 68.82 0 -11.54
v 69.05 0 -10.86
v 68.35 0 -12.92
v 68.58 0 -12.23
v 67.9 0 -14.3
v 68.12 0 -13.6
v 67.47 0 -15.68
v 67.68 0 -14.99
v 67.05 0 -17.07
v 67.26 0 -16.37
v 66.65 0 -18.46
v 66.85 0 -17.76
v 66.08 0 -20.56
v 66.46 0 -19.15
v 66.26 0 -19.85
v 64.82 0 -20.44
v 65.24 0 -20.49
v 65.03 0 -20.46
v 64.41 0 -20.36
v 64.62 0 -20.4
v 64 0 -20.28
v 64.21 0 -20.32
v 63.39 0 -20.12
v 63.79 0 -20.23
v 63.59 0 -20.17
v 62.99 0 -19.99
v 63.19 0 -20.05
v 62.42 0 -20.45
v 62.79 0 -19.93
v 62.6 0 -19.85
v 59.75 0 -26.66
v 60.33 0 -25.58
v 60.03 0 -26.11
v 59.34 0 -27.83
v 59.51 0 -27.23
v 59.19 0 -29.05
v 59.24 0 -28.43
v 59.28 0 -29.74
v 59.2 0 -29.67
v 59.96 0 -30.54
v 59.34 0 -29.82
v 60.1 0 -30.71
v 60.02 0 -30.62
v 59.52 0 -32.77
v 60.37 0 -31.03
v 59.94 0 -31.89
v 58.72 0 -34.53
v 59.11 0 -33.64
v 57.97 0 -36.32
v 58.34 0 -35.42
v 57.26 0 -38.12
v 57.61 0 -37.21
v 56.61 0 -39.95
v 56.93 0 -39.03
v 56 0 -41.79
v 56.3 0 -40.86
v 55.45 0 -43.64
v 55.72 0 -42.71
v 54.94 0 -45.5
v 55.18 0 -44.57
v 53.25 0 -44.5
v 54.22 0 -45.8
v 53.74 0 -45.15
v 51.82 0 -42.53
v 52.77 0 -43.85
v 52.3 0 -43.19
v 50.89 0 -41.2
v 51.36 0 -41.87
v 48.62 0 -37.84
v 49.52 0 -39.19
v 49.07 0 -38.51
v 49.33 0 -34.97
v 48.64 0 -34.99
v 49.2 0 -34.98
v 50.3 0 -34.95
v 50.16 0 -34.96
v 50.97 0 -33.95
v 50.99 0 -34.94
v 52.61 0 -17.64
v 52.29 0 -18.12
v 52.45 0 -17.89
v 52.86 0 -17.13
v 52.74 0 -17.39
v 53.06 0 -16.58
v 52.97 0 -16.86
v 53.19 0 -16.02
v 53.13 0 -16.31
v 53.23 0 -15.44
v 53.23 0 -15.74
v 53.2 0 -14.87
v 53.23 0 -15.16
v 53.07 0 -14.31
v 53.14 0 -14.59
v 52.87 0 -13.77
v 52.98 0 -14.03
v 51.62 0 -13.52
v 52.74 0 -13.5
v 40.59 0 -11.73
v 42.77 0 -12.25
v 41.69 0 -11.97
v 38.37 0 -11.43
v 39.49 0 -11.54
v 36.14 0 -11.58
v 37.25 0 -11.44
v 33.98 0 -12.19
v 35.05 0 -11.85
v 34.85 0 -13.25
v 34.41 0 -12.72
v 35.73 0 -14.28
v 35.28 0 -13.77
v 37.1 0 -15.81
v 36.19 0 -14.79
v 36.63 0 -15.3
v 38.02 0 -16.8
v 37.55 0 -16.31
v 38.97 0 -17.79
v 38.49 0 -17.29
v 39.93 0 -18.74
v 39.45 0 -18.27
v 40.92 0 -19.69
v 40.42 0 -19.22
v 41.41 0 -22.09
v 41.91 0 -20.62
v 41.65 0 -21.36
v 40.92 0 -23.56
v 41.16 0 -22.82
v 40.19 0 -25.78
v 40.67 0 -24.3
v 40.42 0 -25.04
v 39.71 0 -27.25
v 39.95 0 -26.51
v 39.02 0 -29.48
v 39.48 0 -27.99
v 39.25 0 -28.73
v 38.56 0 -30.96
v 38.79 0 -30.21
v 37.9 0 -33.18
v 38.35 0 -31.7
v 38.12 0 -32.45
v 37.61 0 -33.24
v 37.75 0 -33.21
v 37.16 0 -33.32
v 37.45 0 -33.27
v 37.31 0 -33.29
v 36.57 0 -33.43
v 36.86 0 -33.38
v 36.72 0 -33.4
v 35.98 0 -33.54
v 36.42 0 -33.46
v 36.12 0 -33.51
v 35.38 0 -33.65
v 35.83 0 -33.57
v 35.68 0 -33.59
v 35.28 0 -35.24
v 35.32 0 -34.44
v 35.28 0 -36.84
v 35.27 0 -36.04
v 35.36 0 -38.43
v 35.3 0 -37.63
v 35.54 0 -40.02
v 35.43 0 -39.23
v 35.81 0 -41.59
v 35.67 0 -40.8
v 36.2 0 -43.13
v 36 0 -42.37
v 36.66 0 -44.67
v 36.41 0 -43.91
v 37.22 0 -46.16
v 36.92 0 -45.41
v 37.9 0 -46.91
v 37.53 0 -46.9
v 38.28 0 -46.92
v 38.09 0 -46.92
v 39.78 0 -46.99
v 39.03 0 -46.95
v 39.59 0 -46.98
v 41.39 0 -48.26
v 40.72 0 -47.03
v 41.04 0 -47.64
v 42.09 0 -49.47
v 41.74 0 -48.87
v 42.84 0 -50.66
v 42.46 0 -50.07
v 43.61 0 -51.84
v 43.22 0 -51.25
v 44.83 0 -53.55
v 44.01 0 -52.41
v 44.41 0 -52.98
v 46.14 0 -55.21
v 45.26 0 -54.1
v 45.69 0 -54.66
v 47.04 0 -56.28
v 46.58 0 -55.74
v 47.04 0 -57.88
v 47.34 0 -57.17
v 47.18 0 -57.52
v 46.75 0 -58.6
v 46.89 0 -58.24
v 46.48 0 -59.33
v 46.61 0 -58.97
v 46.12 0 -60.44
v 46.36 0 -59.7
v 46.23 0 -60.07
v 45.89 0 -61.18
v 46 0 -60.81
v 45.6 0 -62.31
v 45.79 0 -61.56
v 45.69 0 -61.94
v 45.43 0 -63.07
v 45.51 0 -62.7
v 43.87 0 -61.17
v 44.66 0 -62.11
v 42.21 0 -59.34
v 43.06 0 -60.25
v 40.46 0 -57.6
v 41.34 0 -58.47
v 35.1 0 -52.51
v 36.89 0 -54.21
v 36 0 -53.35
v 33.18 0 -50.97
v 34.16 0 -51.71
v 31.05 0 -49.74
v 32.14 0 -50.31
v 31.08 0 -48.38
v 30.524 0 -48.523
v 30.806 0 -48.465
v 31.522 0 -48.06
v 31.321 0 -48.245
v 31.791 0 -47.587
v 31.68 0 -47.836
v 31.86 0 -47.06
v 31.852 0 -47.324
v 31.714 0 -46.551
v 31.809 0 -46.801
v 31.43 0 -46.073
v 31.584 0 -46.309
v 31.09 0 -45.61
v 31.262 0 -45.84
v 29.988 0 -44.029
v 30.15 0 -44.26
v 29.642 0 -43.585
v 29.82 0 -43.802
v 29.25 0 -43.207
v 29.454 0 -43.384
v 28.789 0 -42.949
v 29.03 0 -43.06
v 28.257 0 -42.83
v 28.53 0 -42.874
v 27.692 0 -42.817
v 27.977 0 -42.813
v 27.136 0 -42.881
v 27.41 0 -42.84
v 26.595 0 -42.995
v 26.864 0 -42.934
v 26.067 0 -43.135
v 26.329 0 -43.063
v 23.625 0 -43.806
v 24.21 0 -43.64
v 23.916 0 -43.718
v 23.105 0 -44.03
v 23.35 0 -43.909
v 22.76 0 -44.35
v 22.904 0 -44.176
v 22.675 0 -44.787
v 22.685 0 -44.555
v 22.828 0 -45.297
v 22.725 0 -45.036
v 23.17 0 -45.82
v 22.979 0 -45.56
v 23.635 0 -46.304
v 23.398 0 -46.069
v 22.96 0 -47.84
v 23.495 0 -47.585
v 23.223 0 -47.707
v 22.509 0 -48.149
v 22.718 0 -47.985
v 22.181 0 -48.531
v 22.331 0 -48.331
v 21.95 0 -48.98
v 22.055 0 -48.748
v 21.798 0 -49.496
v 21.869 0 -49.232
v 20.609 0 -51.632
v 20.959 0 -51.204
v 20.779 0 -51.416
v 20.34 0 -52.106
v 20.46 0 -51.86
v 20.183 0 -52.63
v 20.249 0 -52.364
v 20.111 0 -53.18
v 20.138 0 -52.903
v 20.111 0 -53.738
v 20.1 0 -53.46
v 20.164 0 -54.287
v 20.132 0 -54.014
v 20.253 0 -54.83
v 20.204 0 -54.559
v 19.48 0 -54.86
v 20.31 0 -55.1
v 19.9 0 -54.97
v 18.64 0 -54.68
v 19.07 0 -54.76
v 17.79 0 -54.54
v 18.22 0 -54.61
v 16.93 0 -54.47
v 17.36 0 -54.5
v 16.07 0 -54.45
v 16.51 0 -54.45
v 15.21 0 -54.49
v 15.64 0 -54.46
v 14.36 0 -54.59
v 14.78 0 -54.53
v 13.52 0 -54.74
v 13.94 0 -54.66
v 13.37 0 -55.18
v 13.1 0 -54.84
v 13.97 0 -55.84
v 13.66 0 -55.52
v 14.62 0 -56.44
v 14.29 0 -56.14
v 15.31 0 -56.98
v 14.96 0 -56.71
v 16.04 0 -57.47
v 15.67 0 -57.23
v 16.82 0 -57.89
v 16.42 0 -57.69
v 17.63 0 -58.24
v 17.22 0 -58.08
v 18.46 0 -58.53
v 18.05 0 -58.4
v 19.31 0 -58.75
v 18.88 0 -58.65
v 17.77 0 -63.51
v 18.47 0 -61.11
v 16.79 0 -68.41
v 17.21 0 -65.95
v 16.39 0 -73.4
v 16.51 0 -70.9
v 16.6 0 -78.4
v 16.41 0 -75.9
v 17.44 0 -83.33
v 16.93 0 -80.87
v 18.94 0 -88.1
v 18.11 0 -85.74
v 21.08 0 -92.62
v 19.92 0 -90.4
v 23.85 0 -96.78
v 22.39 0 -94.75
v 25.01 0 -96.5
v 25.45 0 -98.71
v 27.44 0 -61.28
v 25.93 0 -61.13
v 26.31 0 -61.17
v 28.58 0 -61.4
v 27.82 0 -61.32
v 28.21 0 -61.37
v 29.72 0 -61.52
v 29.33 0 -61.48
v 31.61 0 -61.71
v 30.47 0 -61.59
v 30.86 0 -61.64
v 31.25 0 -60.91
v 32 0 -61.75
v 32.37 0 -61.79
v 28.72 0 -58.92
v 30.97 0 -60.68
v 27.7 0 -57.97
v 27.59 0 -58.03
v 27.65 0 -58
v 27.87 0 -57.86
v 27.76 0 -57.93
v 27.81 0 -57.9
v 27.98 0 -57.79
v 27.92 0 -57.83
v 28.09 0 -57.72
v 28.03 0 -57.76
v 28.26 0 -57.62
v 28.14 0 -57.69
v 28.2 0 -57.66
v 28.48 0 -57.49
v 28.31 0 -57.59
v 28.37 0 -57.56
v 38.79 0 -70.76
v 37.85 0 -68.05
v 38.31 0 -69.41
v 40.07 0 -73.32
v 39.37 0 -72.07
v 41.79 0 -75.61
v 40.89 0 -74.5
v 41.28 0 -78
v 42.75 0 -76.67
v 41.92 0 -77.23
v 40.861 0 -79.082
v 40.9 0 -78.92
v 40.82 0 -79.411
v 40.834 0 -79.246
v 40.832 0 -79.744
v 40.819 0 -79.578
v 40.902 0 -80.068
v 40.86 0 -79.91
v 41.028 0 -80.372
v 40.959 0 -80.223
v 41.199 0 -80.657
v 41.108 0 -80.517
v 42.04 0 -81.46
v 41.3 0 -80.79
v 43.92 0 -82.05
v 42.95 0 -81.88
v 45.93 0 -82.11
v 44.92 0 -82.1
v 48.92 0 -82.21
v 46.93 0 -82.14
v 47.93 0 -82.18
v 50.93 0 -82.21
v 49.93 0 -82.22
v 52.92 0 -82.1
v 51.93 0 -82.18
v 52.91 0 -82.69
v 52.92 0 -82.36
v 52.91 0 -82.49
v 52.9 0 -82.94
v 52.9 0 -82.75
v 52.89 0 -83.21
v 52.89 0 -83.08
v 51.52 0 -83.16
v 52.3 0 -83.19
v 51.71 0 -83.16
v 50.74 0 -83.13
v 51.32 0 -83.15
v 49.57 0 -83.09
v 50.35 0 -83.12
v 49.76 0 -83.09
v 49.51 0 -84.84
v 49.55 0 -83.67
v 49.44 0 -86.6
v 49.48 0 -85.42
v 49.33 0 -89.51
v 49.42 0 -87.18
v 49.35 0 -88.93
v 49.24 0 -91.85
v 49.29 0 -90.69
v 49.26 0 -91.27
v 48.69 0 -93.14
v 49.2 0 -93.02
v 48.94 0 -93.08
v 48.19 0 -93.31
v 48.43 0 -93.22
v 47.71 0 -93.55
v 47.95 0 -93.42
v 47.28 0 -93.84
v 47.49 0 -93.69
v 46.9 0 -94.21
v 47.08 0 -94.02
v 46.62 0 -94.65
v 46.75 0 -94.42
v 46.45 0 -95.15
v 46.52 0 -94.9
v 46.36 0 -95.67
v 46.39 0 -95.41
v 46.5 0 -95.97
v 46.36 0 -95.94
v 46.95 0 -96.06
v 46.65 0 -96
v 46.79 0 -96.04
v 47.38 0 -96.16
v 47.24 0 -96.13
v 47.83 0 -96.26
v 47.54 0 -96.19
v 47.69 0 -96.23
v 48.58 0 -96.42
v 48.13 0 -96.32
v 48.28 0 -96.36
v 48.87 0 -96.48
v 48.72 0 -96.46
v 48.41 0 -96.68
v 48.63 0 -96.57
v 47.96 0 -96.9
v 48.18 0 -96.78
v 47.52 0 -97.15
v 47.73 0 -97.02
v 47.09 0 -97.43
v 47.3 0 -97.28
v 46.5 0 -97.9
v 46.89 0 -97.58
v 46.69 0 -97.73
v 46.13 0 -98.23
v 46.31 0 -98.06
v 45.78 0 -98.6
v 45.95 0 -98.41
v 47.24 0 -99.54
v 45.62 0 -98.79
v 45.45 0 -98.98
v 50.95 0 -99.85
v 49.08 0 -99.81
v 56.55 0 -100
v 52.82 0 -99.85
v 54.68 0 -99.94
v 58.728 0 -99.813
v 58.42 0 -99.86
v 59.337 0 -99.68
v 59.034 0 -99.753
v 59.933 0 -99.496
v 59.637 0 -99.594
v 60.511 0 -99.262
v 60.224 0 -99.385
v 61.066 0 -98.979
v 60.791 0 -99.127
v 61.596 0 -98.651
v 61.335 0 -98.821
v 62.096 0 -98.279
v 61.85 0 -98.47
v 62.559 0 -97.864
v 62.333 0 -98.077
v 62.98 0 -97.405
v 62.775 0 -97.639
v 63.355 0 -96.908
v 63.174 0 -97.161
v 63.681 0 -96.378
v 63.524 0 -96.647
v 63.954 0 -95.819
v 63.824 0 -96.102
v 64.184 0 -95.238
v 64.07 0 -95.53
v 64.38 0 -94.646
v 64.287 0 -94.944
v 64.536 0 -94.044
v 64.463 0 -94.346
v 64.79 0 -91.88
v 64.6 0 -93.74
v 64.773 0 -91.257
v 64.787 0 -91.569
v 64.713 0 -90.637
v 64.748 0 -90.947
v 64.611 0 -90.023
v 64.667 0 -90.329
v 64.468 0 -89.416
v 64.545 0 -89.718
v 64.284 0 -88.821
v 64.381 0 -89.117
v 64.06 0 -88.24
v 64.177 0 -88.529
v 62.16 0 -85.03
v 63.22 0 -86.57
v 63.81 0 -83.79
v 62.16 0 -83.74
v 62.98 0 -83.78
v 65.46 0 -83.73
v 64.64 0 -83.77
v 67.11 0 -83.6
v 66.29 0 -83.67
v 68.76 0 -83.44
v 67.94 0 -83.52
v 70.39 0 -83.17
v 69.58 0 -83.33
v 71.96 0 -82.66
v 71.19 0 -82.96
v 73.33 0 -81.75
v 72.68 0 -82.26
v 74.43 0 -80.52
v 73.92 0 -81.17
v 74.69 0 -79.56
v 74.88 0 -79.82
v 74.33 0 -79.03
v 74.51 0 -79.3
v 74.42 0 -79.16
v 73.95 0 -78.51
v 74.23 0 -78.91
v 74.05 0 -78.64
v 73.67 0 -78.11
v 73.86 0 -78.38
v 73.4 0 -77.72
v 73.58 0 -77.99
v 73.49 0 -77.85
v 74.6 0 -76.45
v 74.05 0 -76.87
v 74.33 0 -76.66
v 78.52 0 -75.21
v 78.45 0 -75.02
v 78.48 0 -75.12
v 78.65 0 -75.58
v 78.55 0 -75.3
v 78.58 0 -75.4
v 78.72 0 -75.77
v 78.68 0 -75.67
v 78.82 0 -76.05
v 78.75 0 -75.86
v 78.78 0 -75.95
v 78.92 0 -76.34
v 78.86 0 -76.15
v 78.88 0 -76.24
v 79.77 0 -76.3
v 78.96 0 -76.43
v 81.35 0 -75.82
v 80.57 0 -76.09
v 82.79 0 -75.02
v 82.1 0 -75.46
v 83.99 0 -73.87
v 83.43 0 -74.49
v 84.9 0 -72.49
v 84.47 0 -73.2
v 85.61 0 -71.01
v 85.27 0 -71.75
v 86.2 0 -69.46
v 85.92 0 -70.23
v 86.64 0 -67.86
v 86.44 0 -68.67
v 86.9 0 -66.22
v 86.79 0 -67.04
v 86.58 0 -65.95
v 86.79 0 -66.13
v 86.69 0 -66.04
v 86.27 0 -65.67
v 86.48 0 -65.86
v 86.38 0 -65.76
v 86.06 0 -65.49
v 86.17 0 -65.58
v 85.64 0 -65.11
v 85.85 0 -65.3
v 85.75 0 -65.2
v 85.33 0 -64.84
v 85.54 0 -65.02
v 85.44 0 -64.93
v 85.13 0 -64.65
v 85.23 0 -64.74
v 85.13 0 -62.83
v 85.12 0 -64.05
v 85.13 0 -63.44
v 85.17 0 -60.42
v 85.15 0 -61.63
v 85.16 0 -61.03
v 85.16 0 -59.22
v 85.17 0 -59.82
v 85.94 0 -46.92
v 85.71 0 -55.05
v 85.94 0 -54.49
v 85.89 0 -46.486
v 85.921 0 -46.709
v 85.773 0 -46.044
v 85.842 0 -46.26
v 85.55 0 -45.69
v 85.677 0 -45.851
v 85.191 0 -45.47
v 85.383 0 -45.565
v 84.769 0 -45.323
v 84.982 0 -45.394
v 83.38 0 -43.715
v 83.59 0 -44.11
v 83.485 0 -43.911
v 83.16 0 -43.335
v 83.272 0 -43.522
v 82.91 0 -42.98
v 83.04 0 -43.154
v 82.606 0 -42.666
v 82.763 0 -42.818
v 82.265 0 -42.391
v 82.44 0 -42.523
v 81.894 0 -42.16
v 82.083 0 -42.27
v 81.496 0 -41.976
v 81.698 0 -42.062
v 81.08 0 -41.842
v 81.29 0 -41.903
v 80.65 0 -41.76
v 80.866 0 -41.794
v 80.196 0 -41.777
v 80.423 0 -41.759
v 79.771 0 -41.883
v 79.976 0 -41.818
v 79.43 0 -42.1
v 79.586 0 -41.976
v 79.198 0 -42.438
v 79.301 0 -42.256
v 79.046 0 -42.856
v 79.115 0 -42.64
v 78.92 0 -43.3
v 78.983 0 -43.078
v 77.074 0 -45.955
v 77.412 0 -45.667
v 77.242 0 -45.811
v 76.758 0 -46.256
v 76.911 0 -46.102
v 76.498 0 -46.601
v 76.62 0 -46.42
v 76.304 0 -46.996
v 76.393 0 -46.794
v 76.173 0 -47.421
v 76.23 0 -47.206
v 76.101 0 -47.859
v 76.13 0 -47.64
v 76.08 0 -48.295
v 76.085 0 -48.077
v 76.099 0 -48.731
v 76.085 0 -48.513
v 76.39 0 -50.23
v 76.12 0 -48.95
v 77.49 0 -52.61
v 76.82 0 -51.48
v 78.08 0 -55.35
v 78.29 0 -54.15
v 78.18 0 -54.75
v 77.89 0 -56.56
v 77.98 0 -55.95
v 77.71 0 -57.76
v 77.79 0 -57.16
v 77.46 0 -59.57
v 77.63 0 -58.36
v 77.54 0 -58.97
v 77.21 0 -62
v 77.33 0 -60.78
v 77.26 0 -61.38
v 77.1 0 -63.21
v 77.14 0 -62.61
v 76.04 0 -64.04
v 77.05 0 -63.82
v 76.54 0 -63.92
v 75.06 0 -64.3
v 75.55 0 -64.16
v 74.08 0 -64.63
v 74.56 0 -64.46
v 73.13 0 -65
v 73.6 0 -64.81
v 72.2 0 -65.44
v 72.65 0 -65.21
v 70.85 0 -66.19
v 71.74 0 -65.68
v 71.28 0 -65.92
v 69.57 0 -67.05
v 70.42 0 -66.47
v 69.99 0 -66.75
v 67.6 0 -61.89
v 68.6 0 -65.37
v 68.46 0 -64.87
v 66.76 0 -58.89
v 67.47 0 -61.38
v 71.84 0 -57.82
v 71.52 0 -58.27
v 71.81 0 -58.39
v 71.93 0 -56.12
v 71.86 0 -57.25
v 71.9 0 -56.68
v 72 0 -54.98
v 71.97 0 -55.55
v 72.1 0 -53.85
v 72.06 0 -54.41
v 72.35 0 -51.59
v 72.22 0 -52.72
v 72.29 0 -52.15
v 72.58 0 -49.9
v 72.42 0 -51.03
v 72.51 0 -50.46
v 72.76 0 -48.77
v 72.67 0 -49.34
v 71.14 0 -48.23
v 71.59 0 -48.41
v 71.37 0 -48.32
v 70.25 0 -47.83
v 70.69 0 -48.04
v 70.46 0 -47.93
v 69.82 0 -47.59
v 70.04 0 -47.71
v 69.19 0 -47.22
v 69.61 0 -47.47
v 69.4 0 -47.34
v 76.42 0 -23.52
v 77.7 0 -23.39
v 68.31 0 -7.39
v 62.24 0 -21.04
v 60.63 0 -25.04
v 60.16 0 -30.78
v 50.5 0 -13.5
v 43.86 0 -12.52
v 41.41 0 -20.15
v 40.52 0 -47.02
v 47.5 0 -56.81
v 39.57 0 -56.76
v 37.78 0 -55.06
v 25.81 0 -43.21
v 23.753 0 -47.467
v 21.138 0 -50.991
v 24.62 0 -94.29
v 28.53 0 -57.45
v 52.5 0 -83.2
v 50.55 0 -83.13
v 49.22 0 -92.44
v 47.98 0 -96.29
v 74.6 0 -79.43
v 73.31 0 -77.59
v 78.42 0 -74.92
v 85.14 0 -62.23
v 85.51 0 -55.62
v 83.696 0 -44.31
v 78.4 0 -53.55
v 77.4 0 -60.17
v 69.16 0 -67.36
v 71.22 0 -58.17
v 72.52 0 -48.71
v 70.91 0 -48.14
v 76.21 0 -23.54
v 77.91 0 -23.37
v 78.12 0 -23.35
v 77.56 0 -2.42
v 49.38 0 -13.45
v 38.84 0 -46.94
v 38.67 0 -55.91
v 29.93 0 -49.24
v 30.265 0 -48.592
v 21.73 0 -49.764
v 24.27 0 -92.06
v 37.31 0 -66.72
v 85.36 0 -56.21
v 77.58 0 -45.52
v 70.92 0 -58.09
v 76 0 -23.56
v 60.92 0 -24.49
v 50.97 0 -32.96
v 48.27 0 -13.35
v 44.95 0 -12.77
v 23.972 0 -47.348
v 21.655 0 -50.031
v 21.305 0 -50.772
v 23.96 0 -89.83
v 85.26 0 -56.8
v 83.806 0 -44.506
v 78.859 0 -43.51
v 70.61 0 -58.01
v 75.79 0 -23.58
v 61.18 0 -23.94
v 54.71 0 -46.45
v 50.98 0 -31.96
v 52.12 0 -19.11
v 46.05 0 -13
v 30.059 0 -48.71
v 23.858 0 -46.525
v 21.45 0 -50.54
v 36.66 0 -65.45
v 85.16 0 -58.61
v 85.2 0 -57.4
v 84.562 0 -45.246
v 78.787 0 -43.717
v 77.737 0 -45.368
v 70.3 0 -57.97
v 75.58 0 -23.6
v 61.43 0 -23.36
v 48.12 0 -35.61
v 51.96 0 -20.08
v 47.16 0 -13.19
v 29.937 0 -48.914
v 24.129 0 -47.221
v 23.69 0 -87.6
v 28.43 0 -58.7
v 78.38 0 -74.83
v 83.924 0 -44.694
v 78.706 0 -43.921
v 77.887 0 -45.208
v 69.99 0 -57.93
v 72.16 0 -53.28
v 51 0 -30.97
v 21.565 0 -50.292
v 23.45 0 -85.37
v 35.86 0 -64.26
v 85.17 0 -58
v 84.054 0 -44.867
v 78.616 0 -44.12
v 78.03 0 -45.042
v 69.67 0 -57.9
v 61.64 0 -22.79
v 51.03 0 -29.98
v 51.82 0 -21.07
v 34.96 0 -63.14
v 73.54 0 -77.34
v 78.05 0 -74.9
v 84.202 0 -45.021
v 78.516 0 -44.315
v 78.164 0 -44.869
v 69.36 0 -57.9
v 65.45 0 -20.51
v 61.85 0 -22.21
v 51.08 0 -28.98
v 51.69 0 -22.05
v 24.2 0 -47.08
v 23.25 0 -83.13
v 33.98 0 -62.1
v 73.8 0 -77.1
v 77.71 0 -74.98
v 84.37 0 -45.15
v 78.29 0 -44.69
v 72.29 0 -48.65
v 65.66 0 -20.53
v 62.05 0 -21.62
v 48.061 0 -35.732
v 51.57 0 -23.04
v 24.042 0 -46.729
v 23.09 0 -80.88
v 77.37 0 -75.08
v 69.04 0 -57.92
v 65.87 0 -20.55
v 51.13 0 -27.99
v 51.46 0 -24.03
v 24.164 0 -46.914
v 22.99 0 -78.63
v 52.92 0 -82.3
v 77.04 0 -75.18
v 78.408 0 -44.505
v 68.73 0 -57.97
v 72.05 0 -48.57
v 51.19 0 -27
v 51.36 0 -25.02
v 22.95 0 -76.38
v 52.92 0 -82.22
v 74.88 0 -76.25
v 76.72 0 -75.3
v 68.42 0 -58.03
v 71.82 0 -48.49
v 48.014 0 -35.859
v 51.27 0 -26
v 22.97 0 -74.14
v 75.18 0 -76.06
v 76.4 0 -75.43
v 75.47 0 -75.88
v 76.09 0 -75.56
v 68.11 0 -58.11
v 23.08 0 -71.89
v 32.95 0 -61.1
v 75.78 0 -75.72
v 67.82 0 -58.22
v 47.979 0 -35.988
v 23.28 0 -69.65
v 67.54 0 -58.36
v 47.956 0 -36.118
v 23.6 0 -67.43
v 31.89 0 -60.14
v 67.27 0 -58.52
v 47.947 0 -36.249
v 24.13 0 -65.24
v 30.8 0 -59.21
v 67 0 -58.7
v 24.9 0 -63.13
v 47.95 0 -36.38
v 29.69 0 -58.31
v 47.971 0 -36.51
v 48.004 0 -36.64
v 48.046 0 -36.769
v 48.096 0 -36.897
v 48.151 0 -37.024
v 48.21 0 -37.15
v 49.97 0 -39.86
v 50.43 0 -40.54
v 68.99 10 -47.08
v 69.85 10 -44.36
v 69.43 10 -45.72
v 70.27 10 -42.99
v 71.1 10 -40.25
v 70.69 10 -41.62
v 71.9 10 -37.5
v 71.5 10 -38.88
v 72.66 10 -34.74
v 72.29 10 -36.12
v 73.39 10 -31.97
v 73.03 10 -33.36
v 74.08 10 -29.2
v 73.74 10 -30.59
v 74.74 10 -26.41
v 74.42 10 -27.81
v 75.37 10 -23.62
v 75.06 10 -25.02
v 76.63 10 -23.5
v 77.06 10 -23.45
v 76.84 10 -23.48
v 77.48 10 -23.42
v 77.27 10 -23.44
v 78.33 10 -23.33
v 78.76 10 -23.29
v 78.55 10 -23.31
v 79.08 10 -22.14
v 78.97 10 -23.27
v 79.2 10 -21
v 79.43 10 -18.74
v 79.32 10 -19.87
v 79.66 10 -16.47
v 79.55 10 -17.6
v 79.87 10 -14.21
v 79.77 10 -15.34
v 79.98 10 -13.08
v 80.19 10 -10.81
v 80.09 10 -11.95
v 80.39 10 -8.54
v 80.29 10 -9.68
v 80.58 10 -6.27
v 80.49 10 -7.41
v 80.77 10 -4
v 80.68 10 -5.14
v 78.65 10 -2.92
v 79.71 10 -3.45
v 76.48 10 -1.92
v 74.32 10 -0.92
v 75.4 10 -1.41
v 72.01 10 -0.34
v 73.19 10 -0.53
v 69.64 10 -0.35
v 70.83 10 -0.33
v 68.44 10 -0.28
v 66.07 10 -0.03
v 67.26 10 -0.15
v 63.69 10 -0.1
v 64.88 10 0
v 61.37 10 -0.63
v 62.53 10 -0.33
v 62.36 10 -1.6
v 61.86 10 -1.12
v 62.85 10 -2.09
v 63.83 10 -3.06
v 63.34 10 -2.58
v 64.32 10 -3.54
v 65.32 10 -4.51
v 64.82 10 -4.03
v 65.82 10 -4.99
v 66.81 10 -5.95
v 66.31 10 -5.47
v 67.8 10 -6.91
v 67.3 10 -6.43
v 68.8 10 -7.86
v 69.8 10 -8.82
v 69.3 10 -8.35
v 69.3 10 -10.18
v 69.54 10 -9.5
v 68.82 10 -11.54
v 69.05 10 -10.86
v 68.35 10 -12.92
v 68.58 10 -12.23
v 67.9 10 -14.3
v 68.12 10 -13.6
v 67.47 10 -15.68
v 67.68 10 -14.99
v 67.05 10 -17.07
v 67.26 10 -16.37
v 66.65 10 -18.46
v 66.85 10 -17.76
v 66.46 10 -19.15
v 66.08 10 -20.56
v 66.26 10 -19.85
v 65.24 10 -20.49
v 64.82 10 -20.44
v 65.03 10 -20.46
v 64.41 10 -20.36
v 64.62 10 -20.4
v 64 10 -20.28
v 64.21 10 -20.32
v 63.79 10 -20.23
v 63.39 10 -20.12
v 63.59 10 -20.17
v 62.99 10 -19.99
v 63.19 10 -20.05
v 62.79 10 -19.93
v 62.42 10 -20.45
v 62.6 10 -19.85
v 60.33 10 -25.58
v 59.75 10 -26.66
v 60.03 10 -26.11
v 59.34 10 -27.83
v 59.51 10 -27.23
v 59.19 10 -29.05
v 59.24 10 -28.43
v 59.28 10 -29.74
v 59.2 10 -29.67
v 59.96 10 -30.54
v 59.34 10 -29.82
v 60.1 10 -30.71
v 60.02 10 -30.62
v 60.37 10 -31.03
v 59.52 10 -32.77
v 59.94 10 -31.89
v 58.72 10 -34.53
v 59.11 10 -33.64
v 57.97 10 -36.32
v 58.34 10 -35.42
v 57.26 10 -38.12
v 57.61 10 -37.21
v 56.61 10 -39.95
v 56.93 10 -39.03
v 56 10 -41.79
v 56.3 10 -40.86
v 55.45 10 -43.64
v 55.72 10 -42.71
v 54.94 10 -45.5
v 55.18 10 -44.57
v 54.22 10 -45.8
v 53.25 10 -44.5
v 53.74 10 -45.15
v 52.77 10 -43.85
v 51.82 10 -42.53
v 52.3 10 -43.19
v 50.89 10 -41.2
v 51.36 10 -41.87
v 49.52 10 -39.19
v 48.62 10 -37.84
v 49.07 10 -38.51
v 48.64 10 -34.99
v 49.33 10 -34.97
v 49.2 10 -34.98
v 50.3 10 -34.95
v 50.16 10 -34.96
v 50.97 10 -33.95
v 50.99 10 -34.94
v 52.29 10 -18.12
v 52.61 10 -17.64
v 52.45 10 -17.89
v 52.86 10 -17.13
v 52.74 10 -17.39
v 53.06 10 -16.58
v 52.97 10 -16.86
v 53.19 10 -16.02
v 53.13 10 -16.31
v 53.23 10 -15.44
v 53.23 10 -15.74
v 53.2 10 -14.87
v 53.23 10 -15.16
v 53.07 10 -14.31
v 53.14 10 -14.59
v 52.87 10 -13.77
v 52.98 10 -14.03
v 51.62 10 -13.52
v 52.74 10 -13.5
v 42.77 10 -12.25
v 40.59 10 -11.73
v 41.69 10 -11.97
v 38.37 10 -11.43
v 39.49 10 -11.54
v 36.14 10 -11.58
v 37.25 10 -11.44
v 33.98 10 -12.19
v 35.05 10 -11.85
v 34.85 10 -13.25
v 34.41 10 -12.72
v 35.73 10 -14.28
v 35.28 10 -13.77
v 36.19 10 -14.79
v 37.1 10 -15.81
v 36.63 10 -15.3
v 38.02 10 -16.8
v 37.55 10 -16.31
v 38.97 10 -17.79
v 38.49 10 -17.29
v 39.93 10 -18.74
v 39.45 10 -18.27
v 40.92 10 -19.69
v 40.42 10 -19.22
v 41.91 10 -20.62
v 41.41 10 -22.09
v 41.65 10 -21.36
v 40.92 10 -23.56
v 41.16 10 -22.82
v 40.67 10 -24.3
v 40.19 10 -25.78
v 40.42 10 -25.04
v 39.71 10 -27.25
v 39.95 10 -26.51
v 39.48 10 -27.99
v 39.02 10 -29.48
v 39.25 10 -28.73
v 38.56 10 -30.96
v 38.79 10 -30.21
v 38.35 10 -31.7
v 37.9 10 -33.18
v 38.12 10 -32.45
v 37.61 10 -33.24
v 37.75 10 -33.21
v 37.45 10 -33.27
v 37.16 10 -33.32
v 37.31 10 -33.29
v 36.86 10 -33.38
v 36.57 10 -33.43
v 36.72 10 -33.4
v 36.42 10 -33.46
v 35.98 10 -33.54
v 36.12 10 -33.51
v 35.83 10 -33.57
v 35.38 10 -33.65
v 35.68 10 -33.59
v 35.28 10 -35.24
v 35.32 10 -34.44
v 35.28 10 -36.84
v 35.27 10 -36.04
v 35.36 10 -38.43
v 35.3 10 -37.63
v 35.54 10 -40.02
v 35.43 10 -39.23
v 35.81 10 -41.59
v 35.67 10 -40.8
v 36.2 10 -43.13
v 36 10 -42.37
v 36.66 10 -44.67
v 36.41 10 -43.91
v 37.22 10 -46.16
v 36.92 10 -45.41
v 37.9 10 -46.91
v 37.53 10 -46.9
v 38.28 10 -46.92
v 38.09 10 -46.92
v 39.03 10 -46.95
v 39.78 10 -46.99
v 39.59 10 -46.98
v 40.72 10 -47.03
v 41.39 10 -48.26
v 41.04 10 -47.64
v 42.09 10 -49.47
v 41.74 10 -48.87
v 42.84 10 -50.66
v 42.46 10 -50.07
v 43.61 10 -51.84
v 43.22 10 -51.25
v 44.01 10 -52.41
v 44.83 10 -53.55
v 44.41 10 -52.98
v 45.26 10 -54.1
v 46.14 10 -55.21
v 45.69 10 -54.66
v 47.04 10 -56.28
v 46.58 10 -55.74
v 47.34 10 -57.17
v 47.04 10 -57.88
v 47.18 10 -57.52
v 46.75 10 -58.6
v 46.89 10 -58.24
v 46.48 10 -59.33
v 46.61 10 -58.97
v 46.36 10 -59.7
v 46.12 10 -60.44
v 46.23 10 -60.07
v 45.89 10 -61.18
v 46 10 -60.81
v 45.79 10 -61.56
v 45.6 10 -62.31
v 45.69 10 -61.94
v 45.43 10 -63.07
v 45.51 10 -62.7
v 43.87 10 -61.17
v 44.66 10 -62.11
v 42.21 10 -59.34
v 43.06 10 -60.25
v 40.46 10 -57.6
v 41.34 10 -58.47
v 36.89 10 -54.21
v 35.1 10 -52.51
v 36 10 -53.35
v 33.18 10 -50.97
v 34.16 10 -51.71
v 31.05 10 -49.74
v 32.14 10 -50.31
v 30.524 10 -48.523
v 31.08 10 -48.38
v 30.806 10 -48.465
v 31.522 10 -48.06
v 31.321 10 -48.245
v 31.791 10 -47.587
v 31.68 10 -47.836
v 31.86 10 -47.06
v 31.852 10 -47.324
v 31.714 10 -46.551
v 31.809 10 -46.801
v 31.43 10 -46.073
v 31.584 10 -46.309
v 31.09 10 -45.61
v 31.262 10 -45.84
v 29.988 10 -44.029
v 30.15 10 -44.26
v 29.642 10 -43.585
v 29.82 10 -43.802
v 29.25 10 -43.207
v 29.454 10 -43.384
v 28.789 10 -42.949
v 29.03 10 -43.06
v 28.257 10 -42.83
v 28.53 10 -42.874
v 27.692 10 -42.817
v 27.977 10 -42.813
v 27.136 10 -42.881
v 27.41 10 -42.84
v 26.595 10 -42.995
v 26.864 10 -42.934
v 26.067 10 -43.135
v 26.329 10 -43.063
v 24.21 10 -43.64
v 23.625 10 -43.806
v 23.916 10 -43.718
v 23.105 10 -44.03
v 23.35 10 -43.909
v 22.76 10 -44.35
v 22.904 10 -44.176
v 22.675 10 -44.787
v 22.685 10 -44.555
v 22.828 10 -45.297
v 22.725 10 -45.036
v 23.17 10 -45.82
v 22.979 10 -45.56
v 23.635 10 -46.304
v 23.398 10 -46.069
v 23.495 10 -47.585
v 22.96 10 -47.84
v 23.223 10 -47.707
v 22.509 10 -48.149
v 22.718 10 -47.985
v 22.181 10 -48.531
v 22.331 10 -48.331
v 21.95 10 -48.98
v 22.055 10 -48.748
v 21.798 10 -49.496
v 21.869 10 -49.232
v 20.959 10 -51.204
v 20.609 10 -51.632
v 20.779 10 -51.416
v 20.34 10 -52.106
v 20.46 10 -51.86
v 20.183 10 -52.63
v 20.249 10 -52.364
v 20.111 10 -53.18
v 20.138 10 -52.903
v 20.111 10 -53.738
v 20.1 10 -53.46
v 20.164 10 -54.287
v 20.132 10 -54.014
v 20.253 10 -54.83
v 20.204 10 -54.559
v 20.31 10 -55.1
v 19.48 10 -54.86
v 19.9 10 -54.97
v 18.64 10 -54.68
v 19.07 10 -54.76
v 17.79 10 -54.54
v 18.22 10 -54.61
v 16.93 10 -54.47
v 17.36 10 -54.5
v 16.07 10 -54.45
v 16.51 10 -54.45
v 15.21 10 -54.49
v 15.64 10 -54.46
v 14.36 10 -54.59
v 14.78 10 -54.53
v 13.52 10 -54.74
v 13.94 10 -54.66
v 13.37 10 -55.18
v 13.1 10 -54.84
v 13.97 10 -55.84
v 13.66 10 -55.52
v 14.62 10 -56.44
v 14.29 10 -56.14
v 15.31 10 -56.98
v 14.96 10 -56.71
v 16.04 10 -57.47
v 15.67 10 -57.23
v 16.82 10 -57.89
v 16.42 10 -57.69
v 17.63 10 -58.24
v 17.22 10 -58.08
v 18.46 10 -58.53
v 18.05 10 -58.4
v 19.31 10 -58.75
v 18.88 10 -58.65
v 17.77 10 -63.51
v 18.47 10 -61.11
v 16.79 10 -68.41
v 17.21 10 -65.95
v 16.39 10 -73.4
v 16.51 10 -70.9
v 16.6 10 -78.4
v 16.41 10 -75.9
v 17.44 10 -83.33
v 16.93 10 -80.87
v 18.94 10 -88.1
v 18.11 10 -85.74
v 21.08 10 -92.62
v 19.92 10 -90.4
v 23.85 10 -96.78
v 22.39 10 -94.75
v 25.01 10 -96.5
v 25.45 10 -98.71
v 25.93 10 -61.13
v 27.44 10 -61.28
v 26.31 10 -61.17
v 27.82 10 -61.32
v 28.58 10 -61.4
v 28.21 10 -61.37
v 29.72 10 -61.52
v 29.33 10 -61.48
v 30.47 10 -61.59
v 31.61 10 -61.71
v 30.86 10 -61.64
v 32 10 -61.75
v 31.25 10 -60.91
v 32.37 10 -61.79
v 28.72 10 -58.92
v 30.97 10 -60.68
v 27.59 10 -58.03
v 27.7 10 -57.97
v 27.65 10 -58
v 27.76 10 -57.93
v 27.87 10 -57.86
v 27.81 10 -57.9
v 27.98 10 -57.79
v 27.92 10 -57.83
v 28.09 10 -57.72
v 28.03 10 -57.76
v 28.14 10 -57.69
v 28.26 10 -57.62
v 28.2 10 -57.66
v 28.31 10 -57.59
v 28.48 10 -57.49
v 28.37 10 -57.56
v 37.85 10 -68.05
v 38.79 10 -70.76
v 38.31 10 -69.41
v 40.07 10 -73.32
v 39.37 10 -72.07
v 41.79 10 -75.61
v 40.89 10 -74.5
v 42.75 10 -76.67
v 41.28 10 -78
v 41.92 10 -77.23
v 40.861 10 -79.082
v 40.9 10 -78.92
v 40.82 10 -79.411
v 40.834 10 -79.246
v 40.832 10 -79.744
v 40.819 10 -79.578
v 40.902 10 -80.068
v 40.86 10 -79.91
v 41.028 10 -80.372
v 40.959 10 -80.223
v 41.199 10 -80.657
v 41.108 10 -80.517
v 42.04 10 -81.46
v 41.3 10 -80.79
v 43.92 10 -82.05
v 42.95 10 -81.88
v 45.93 10 -82.11
v 44.92 10 -82.1
v 46.93 10 -82.14
v 48.92 10 -82.21
v 47.93 10 -82.18
v 50.93 10 -82.21
v 49.93 10 -82.22
v 52.92 10 -82.1
v 51.93 10 -82.18
v 52.92 10 -82.36
v 52.91 10 -82.69
v 52.91 10 -82.49
v 52.9 10 -82.94
v 52.9 10 -82.75
v 52.89 10 -83.21
v 52.89 10 -83.08
v 52.3 10 -83.19
v 51.52 10 -83.16
v 51.71 10 -83.16
v 50.74 10 -83.13
v 51.32 10 -83.15
v 50.35 10 -83.12
v 49.57 10 -83.09
v 49.76 10 -83.09
v 49.51 10 -84.84
v 49.55 10 -83.67
v 49.44 10 -86.6
v 49.48 10 -85.42
v 49.42 10 -87.18
v 49.33 10 -89.51
v 49.35 10 -88.93
v 49.29 10 -90.69
v 49.24 10 -91.85
v 49.26 10 -91.27
v 49.2 10 -93.02
v 48.69 10 -93.14
v 48.94 10 -93.08
v 48.19 10 -93.31
v 48.43 10 -93.22
v 47.71 10 -93.55
v 47.95 10 -93.42
v 47.28 10 -93.84
v 47.49 10 -93.69
v 46.9 10 -94.21
v 47.08 10 -94.02
v 46.62 10 -94.65
v 46.75 10 -94.42
v 46.45 10 -95.15
v 46.52 10 -94.9
v 46.36 10 -95.67
v 46.39 10 -95.41
v 46.5 10 -95.97
v 46.36 10 -95.94
v 46.65 10 -96
v 46.95 10 -96.06
v 46.79 10 -96.04
v 47.38 10 -96.16
v 47.24 10 -96.13
v 47.54 10 -96.19
v 47.83 10 -96.26
v 47.69 10 -96.23
v 48.13 10 -96.32
v 48.58 10 -96.42
v 48.28 10 -96.36
v 48.87 10 -96.48
v 48.72 10 -96.46
v 48.41 10 -96.68
v 48.63 10 -96.57
v 47.96 10 -96.9
v 48.18 10 -96.78
v 47.52 10 -97.15
v 47.73 10 -97.02
v 47.09 10 -97.43
v 47.3 10 -97.28
v 46.89 10 -97.58
v 46.5 10 -97.9
v 46.69 10 -97.73
v 46.13 10 -98.23
v 46.31 10 -98.06
v 45.78 10 -98.6
v 45.95 10 -98.41
v 45.62 10 -98.79
v 47.24 10 -99.54
v 45.45 10 -98.98
v 50.95 10 -99.85
v 49.08 10 -99.81
v 52.82 10 -99.85
v 56.55 10 -100
v 54.68 10 -99.94
v 58.728 10 -99.813
v 58.42 10 -99.86
v 59.337 10 -99.68
v 59.034 10 -99.753
v 59.933 10 -99.496
v 59.637 10 -99.594
v 60.511 10 -99.262
v 60.224 10 -99.385
v 61.066 10 -98.979
v 60.791 10 -99.127
v 61.596 10 -98.651
v 61.335 10 -98.821
v 62.096 10 -98.279
v 61.85 10 -98.47
v 62.559 10 -97.864
v 62.333 10 -98.077
v 62.98 10 -97.405
v 62.775 10 -97.639
v 63.355 10 -96.908
v 63.174 10 -97.161
v 63.681 10 -96.378
v 63.524 10 -96.647
v 63.954 10 -95.819
v 63.824 10 -96.102
v 64.184 10 -95.238
v 64.07 10 -95.53
v 64.38 10 -94.646
v 64.287 10 -94.944
v 64.536 10 -94.044
v 64.463 10 -94.346
v 64.79 10 -91.88
v 64.6 10 -93.74
v 64.773 10 -91.257
v 64.787 10 -91.569
v 64.713 10 -90.637
v 64.748 10 -90.947
v 64.611 10 -90.023
v 64.667 10 -90.329
v 64.468 10 -89.416
v 64.545 10 -89.718
v 64.284 10 -88.821
v 64.381 10 -89.117
v 64.06 10 -88.24
v 64.177 10 -88.529
v 62.16 10 -85.03
v 63.22 10 -86.57
v 62.16 10 -83.74
v 63.81 10 -83.79
v 62.98 10 -83.78
v 65.46 10 -83.73
v 64.64 10 -83.77
v 67.11 10 -83.6
v 66.29 10 -83.67
v 68.76 10 -83.44
v 67.94 10 -83.52
v 70.39 10 -83.17
v 69.58 10 -83.33
v 71.96 10 -82.66
v 71.19 10 -82.96
v 73.33 10 -81.75
v 72.68 10 -82.26
v 74.43 10 -80.52
v 73.92 10 -81.17
v 74.69 10 -79.56
v 74.88 10 -79.82
v 74.51 10 -79.3
v 74.33 10 -79.03
v 74.42 10 -79.16
v 74.23 10 -78.91
v 73.95 10 -78.51
v 74.05 10 -78.64
v 73.67 10 -78.11
v 73.86 10 -78.38
v 73.58 10 -77.99
v 73.4 10 -77.72
v 73.49 10 -77.85
v 74.05 10 -76.87
v 74.6 10 -76.45
v 74.33 10 -76.66
v 78.45 10 -75.02
v 78.52 10 -75.21
v 78.48 10 -75.12
v 78.55 10 -75.3
v 78.65 10 -75.58
v 78.58 10 -75.4
v 78.72 10 -75.77
v 78.68 10 -75.67
v 78.75 10 -75.86
v 78.82 10 -76.05
v 78.78 10 -75.95
v 78.86 10 -76.15
v 78.92 10 -76.34
v 78.88 10 -76.24
v 79.77 10 -76.3
v 78.96 10 -76.43
v 81.35 10 -75.82
v 80.57 10 -76.09
v 82.79 10 -75.02
v 82.1 10 -75.46
v 83.99 10 -73.87
v 83.43 10 -74.49
v 84.9 10 -72.49
v 84.47 10 -73.2
v 85.61 10 -71.01
v 85.27 10 -71.75
v 86.2 10 -69.46
v 85.92 10 -70.23
v 86.64 10 -67.86
v 86.44 10 -68.67
v 86.9 10 -66.22
v 86.79 10 -67.04
v 86.79 10 -66.13
v 86.58 10 -65.95
v 86.69 10 -66.04
v 86.48 10 -65.86
v 86.27 10 -65.67
v 86.38 10 -65.76
v 86.06 10 -65.49
v 86.17 10 -65.58
v 85.85 10 -65.3
v 85.64 10 -65.11
v 85.75 10 -65.2
v 85.54 10 -65.02
v 85.33 10 -64.84
v 85.44 10 -64.93
v 85.13 10 -64.65
v 85.23 10 -64.74
v 85.12 10 -64.05
v 85.13 10 -62.83
v 85.13 10 -63.44
v 85.15 10 -61.63
v 85.17 10 -60.42
v 85.16 10 -61.03
v 85.16 10 -59.22
v 85.17 10 -59.82
v 85.71 10 -55.05
v 85.94 10 -46.92
v 85.94 10 -54.49
v 85.89 10 -46.486
v 85.921 10 -46.709
v 85.773 10 -46.044
v 85.842 10 -46.26
v 85.55 10 -45.69
v 85.677 10 -45.851
v 85.191 10 -45.47
v 85.383 10 -45.565
v 84.769 10 -45.323
v 84.982 10 -45.394
v 83.59 10 -44.11
v 83.38 10 -43.715
v 83.485 10 -43.911
v 83.16 10 -43.335
v 83.272 10 -43.522
v 82.91 10 -42.98
v 83.04 10 -43.154
v 82.606 10 -42.666
v 82.763 10 -42.818
v 82.265 10 -42.391
v 82.44 10 -42.523
v 81.894 10 -42.16
v 82.083 10 -42.27
v 81.496 10 -41.976
v 81.698 10 -42.062
v 81.08 10 -41.842
v 81.29 10 -41.903
v 80.65 10 -41.76
v 80.866 10 -41.794
v 80.196 10 -41.777
v 80.423 10 -41.759
v 79.771 10 -41.883
v 79.976 10 -41.818
v 79.43 10 -42.1
v 79.586 10 -41.976
v 79.198 10 -42.438
v 79.301 10 -42.256
v 79.046 10 -42.856
v 79.115 10 -42.64
v 78.92 10 -43.3
v 78.983 10 -43.078
v 77.412 10 -45.667
v 77.074 10 -45.955
v 77.242 10 -45.811
v 76.758 10 -46.256
v 76.911 10 -46.102
v 76.498 10 -46.601
v 76.62 10 -46.42
v 76.304 10 -46.996
v 76.393 10 -46.794
v 76.173 10 -47.421
v 76.23 10 -47.206
v 76.101 10 -47.859
v 76.13 10 -47.64
v 76.08 10 -48.295
v 76.085 10 -48.077
v 76.099 10 -48.731
v 76.085 10 -48.513
v 76.39 10 -50.23
v 76.12 10 -48.95
v 77.49 10 -52.61
v 76.82 10 -51.48
v 78.29 10 -54.15
v 78.08 10 -55.35
v 78.18 10 -54.75
v 77.89 10 -56.56
v 77.98 10 -55.95
v 77.71 10 -57.76
v 77.79 10 -57.16
v 77.63 10 -58.36
v 77.46 10 -59.57
v 77.54 10 -58.97
v 77.33 10 -60.78
v 77.21 10 -62
v 77.26 10 -61.38
v 77.1 10 -63.21
v 77.14 10 -62.61
v 77.05 10 -63.82
v 76.04 10 -64.04
v 76.54 10 -63.92
v 75.06 10 -64.3
v 75.55 10 -64.16
v 74.08 10 -64.63
v 74.56 10 -64.46
v 73.13 10 -65
v 73.6 10 -64.81
v 72.2 10 -65.44
v 72.65 10 -65.21
v 71.74 10 -65.68
v 70.85 10 -66.19
v 71.28 10 -65.92
v 70.42 10 -66.47
v 69.57 10 -67.05
v 69.99 10 -66.75
v 68.6 10 -65.37
v 67.6 10 -61.89
v 68.46 10 -64.87
v 66.76 10 -58.89
v 67.47 10 -61.38
v 71.52 10 -58.27
v 71.84 10 -57.82
v 71.81 10 -58.39
v 71.86 10 -57.25
v 71.93 10 -56.12
v 71.9 10 -56.68
v 72 10 -54.98
v 71.97 10 -55.55
v 72.1 10 -53.85
v 72.06 10 -54.41
v 72.22 10 -52.72
v 72.35 10 -51.59
v 72.29 10 -52.15
v 72.42 10 -51.03
v 72.58 10 -49.9
v 72.51 10 -50.46
v 72.76 10 -48.77
v 72.67 10 -49.34
v 71.59 10 -48.41
v 71.14 10 -48.23
v 71.37 10 -48.32
v 70.69 10 -48.04
v 70.25 10 -47.83
v 70.46 10 -47.93
v 69.82 10 -47.59
v 70.04 10 -47.71
v 69.61 10 -47.47
v 69.19 10 -47.22
v 69.4 10 -47.34
v 76.42 10 -23.52
v 77.7 10 -23.39
v 68.31 10 -7.39
v 62.24 10 -21.04
v 60.63 10 -25.04
v 60.16 10 -30.78
v 50.5 10 -13.5
v 43.86 10 -12.52
v 41.41 10 -20.15
v 40.52 10 -47.02
v 47.5 10 -56.81
v 39.57 10 -56.76
v 37.78 10 -55.06
v 25.81 10 -43.21
v 23.753 10 -47.467
v 21.138 10 -50.991
v 24.62 10 -94.29
v 28.53 10 -57.45
v 52.5 10 -83.2
v 50.55 10 -83.13
v 49.22 10 -92.44
v 47.98 10 -96.29
v 74.6 10 -79.43
v 73.31 10 -77.59
v 78.42 10 -74.92
v 85.14 10 -62.23
v 85.51 10 -55.62
v 83.696 10 -44.31
v 78.4 10 -53.55
v 77.4 10 -60.17
v 69.16 10 -67.36
v 71.22 10 -58.17
v 72.52 10 -48.71
v 70.91 10 -48.14
v 76.21 10 -23.54
v 77.91 10 -23.37
v 78.12 10 -23.35
v 77.56 10 -2.42
v 49.38 10 -13.45
v 38.84 10 -46.94
v 38.67 10 -55.91
v 29.93 10 -49.24
v 30.265 10 -48.592
v 21.73 10 -49.764
v 24.27 10 -92.06
v 37.31 10 -66.72
v 85.36 10 -56.21
v 77.58 10 -45.52
v 70.92 10 -58.09
v 76 10 -23.56
v 60.92 10 -24.49
v 50.97 10 -32.96
v 48.27 10 -13.35
v 44.95 10 -12.77
v 23.972 10 -47.348
v 21.655 10 -50.031
v 21.305 10 -50.772
v 23.96 10 -89.83
v 85.26 10 -56.8
v 83.806 10 -44.506
v 78.859 10 -43.51
v 70.61 10 -58.01
v 75.79 10 -23.58
v 61.18 10 -23.94
v 54.71 10 -46.45
v 50.98 10 -31.96
v 52.12 10 -19.11
v 46.05 10 -13
v 30.059 10 -48.71
v 23.858 10 -46.525
v 21.45 10 -50.54
v 36.66 10 -65.45
v 85.16 10 -58.61
v 85.2 10 -57.4
v 84.562 10 -45.246
v 78.787 10 -43.717
v 77.737 10 -45.368
v 70.3 10 -57.97
v 75.58 10 -23.6
v 61.43 10 -23.36
v 48.12 10 -35.61
v 51.96 10 -20.08
v 47.16 10 -13.19
v 29.937 10 -48.914
v 24.129 10 -47.221
v 23.69 10 -87.6
v 28.43 10 -58.7
v 78.38 10 -74.83
v 83.924 10 -44.694
v 78.706 10 -43.921
v 77.887 10 -45.208
v 69.99 10 -57.93
v 72.16 10 -53.28
v 51 10 -30.97
v 21.565 10 -50.292
v 23.45 10 -85.37
v 35.86 10 -64.26
v 85.17 10 -58
v 84.054 10 -44.867
v 78.616 10 -44.12
v 78.03 10 -45.042
v 69.67 10 -57.9
v 61.64 10 -22.79
v 51.03 10 -29.98
v 51.82 10 -21.07
v 34.96 10 -63.14
v 73.54 10 -77.34
v 78.05 10 -74.9
v 84.202 10 -45.021
v 78.516 10 -44.315
v 78.164 10 -44.869
v 69.36 10 -57.9
v 65.45 10 -20.51
v 61.85 10 -22.21
v 51.08 10 -28.98
v 51.69 10 -22.05
v 24.2 10 -47.08
v 23.25 10 -83.13
v 33.98 10 -62.1
v 73.8 10 -77.1
v 77.71 10 -74.98
v 84.37 10 -45.15
v 78.29 10 -44.69
v 72.29 10 -48.65
v 65.66 10 -20.53
v 62.05 10 -21.62
v 48.061 10 -35.732
v 51.57 10 -23.04
v 24.042 10 -46.729
v 23.09 10 -80.88
v 77.37 10 -75.08
v 69.04 10 -57.92
v 65.87 10 -20.55
v 51.13 10 -27.99
v 51.46 10 -24.03
v 24.164 10 -46.914
v 22.99 10 -78.63
v 52.92 10 -82.3
v 77.04 10 -75.18
v 78.408 10 -44.505
v 68.73 10 -57.97
v 72.05 10 -48.57
v 51.19 10 -27
v 51.36 10 -25.02
v 22.95 10 -76.38
v 52.92 10 -82.22
v 74.88 10 -76.25
v 76.72 10 -75.3
v 68.42 10 -58.03
v 71.82 10 -48.49
v 48.014 10 -35.859
v 51.27 10 -26
v 22.97 10 -74.14
v 75.18 10 -76.06
v 76.4 10 -75.43
v 75.47 10 -75.88
v 76.09 10 -75.56
v 68.11 10 -58.11
v 23.08 10 -71.89
v 32.95 10 -61.1
v 75.78 10 -75.72
v 67.82 10 -58.22
v 47.979 10 -35.988
v 23.28 10 -69.65
v 67.54 10 -58.36
v 47.956 10 -36.118
v 23.6 10 -67.43
v 31.89 10 -60.14
v 67.27 10 -58.52
v 47.947 10 -36.249
v 24.13 10 -65.24
v 30.8 10 -59.21
v 67 10 -58.7
v 24.9 10 -63.13
v 47.95 10 -36.38
v 29.69 10 -58.31
v 47.971 10 -36.51
v 48.004 10 -36.64
v 48.046 10 -36.769
v 48.096 10 -36.897
v 48.151 10 -37.024
v 48.21 10 -37.15
v 49.97 10 -39.86
v 50.43 10 -40.54
f 1 2 3
f 4 5 6
f 7 4 8
f 9 7 10
f 11 9 12
f 13 11 14
f 15 13 16
f 17 15 18
f 19 20 21
f 22 19 23
f 24 25 26
f 27 24 28
f 29 30 31
f 32 29 33
f 34 32 35
f 36 37 38
f 39 36 40
f 41 39 42
f 43 41 44
f 45 43 46
f 47 48 49
f 50 47 51
f 52 50 53
f 54 55 56
f 57 54 58
f 59 57 60
f 61 59 62
f 63 64 65
f 66 67 68
f 69 70 71
f 72 69 73
f 74 75 76
f 77 74 78
f 79 77 80
f 81 79 82
f 83 81 84
f 85 83 86
f 87 85 88
f 89 87 90
f 91 92 93
f 94 95 96
f 97 94 98
f 99 97 100
f 101 102 103
f 104 101 105
f 106 107 108
f 109 110 111
f 112 109 113
f 114 112 115
f 116 114 117
f 118 116 119
f 120 118 121
f 122 123 124
f 125 122 126
f 127 125 128
f 129 127 130
f 131 129 132
f 133 131 134
f 135 133 136
f 137 135 138
f 139 140 141
f 142 143 144
f 145 142 146
f 147 148 149
f 150 151 152
f 153 150 154
f 155 153 156
f 157 158 159
f 160 157 161
f 162 160 163
f 164 162 165
f 166 164 167
f 168 166 169
f 170 168 171
f 172 170 173
f 174 172 175
f 176 177 178
f 179 176 180
f 181 179 182
f 183 181 184
f 185 183 186
f 187 185 188
f 189 190 191
f 192 189 193
f 194 192 195
f 196 194 197
f 198 196 199
f 200 201 202
f 203 200 204
f 205 206 207
f 208 205 209
f 210 211 212
f 213 210 214
f 215 216 217
f 218 215 219
f 220 221 222
f 223 224 225
f 226 227 228
f 229 230 231
f 232 229 233
f 234 232 235
f 236 234 237
f 238 236 239
f 240 238 241
f 242 240 243
f 244 242 245
f 246 244 247
f 248 246 249
f 250 248 251
f 252 253 254
f 255 256 257
f 258 255 259
f 260 258 261
f 262 260 263
f 264 265 266
f 267 268 269
f 270 267 271
f 272 273 274
f 275 272 276
f 277 275 278
f 279 280 281
f 282 279 283
f 284 285 286
f 287 284 288
f 289 287 290
f 291 289 292
f 293 291 294
f 295 296 297
f 298 295 299
f 300 298 301
f 302 303 304
f 305 302 306
f 307 305 308
f 309 307 310
f 311 309 312
f 313 311 314
f 315 313 316
f 317 315 318
f 319 317 320
f 321 319 322
f 323 321 324
f 325 323 326
f 327 325 328
f 329 327 330
f 331 329 332
f 333 331 334
f 335 336 337
f 338 335 339
f 340 338 341
f 342 340 343
f 344 342 345
f 346 344 347
f 348 346 349
f 350 351 352
f 353 350 354
f 355 353 356
f 357 355 358
f 359 357 360
f 361 362 363
f 364 361 365
f 366 364 367
f 368 366 369
f 370 368 371
f 372 370 373
f 374 372 375
f 376 377 378
f 379 376 380
f 381 379 382
f 383 381 384
f 385 383 386
f 387 385 388
f 389 387 390
f 391 389 392
f 393 391 394
f 395 393 396
f 397 395 398
f 399 397 400
f 401 399 402
f 403 401 404
f 405 403 406
f 407 405 408
f 409 407 410
f 411 409 412
f 413 411 414
f 415 413 416
f 417 415 418
f 419 417 420
f 421 419 422
f 423 421 424
f 425 423 426
f 427 425 428
f 429 430 431
f 432 433 434
f 435 432 436
f 437 438 439
f 440 441 442
f 443 440 444
f 445 446 447
f 448 449 450
f 451 448 452
f 453 451 454
f 455 456 457
f 458 459 460
f 461 462 463
f 464 461 465
f 466 464 467
f 468 469 470
f 471 468 472
f 473 471 474
f 475 473 476
f 477 475 478
f 479 477 480
f 481 479 482
f 483 481 484
f 485 483 486
f 487 485 488
f 489 490 491
f 492 489 493
f 494 492 495
f 496 497 498
f 499 496 500
f 501 499 502
f 503 504 505
f 506 503 507
f 508 509 510
f 511 508 512
f 513 511 514
f 515 516 517
f 518 519 520
f 521 522 523
f 524 521 525
f 526 524 527
f 528 526 529
f 530 528 531
f 532 530 533
f 534 532 535
f 536 534 537
f 538 536 539
f 540 541 542
f 543 540 544
f 545 546 547
f 548 549 550
f 551 548 552
f 553 551 554
f 555 553 556
f 557 555 558
f 559 557 560
f 561 562 563
f 564 561 565
f 566 564 567
f 568 569 570
f 571 568 572
f 573 574 575
f 576 573 577
f 578 576 579
f 580 578 581
f 582 580 583
f 584 582 585
f 586 584 587
f 588 586 589
f 590 588 591
f 592 590 593
f 594 592 595
f 596 594 597
f 598 596 599
f 600 598 601
f 602 600 603
f 604 602 605
f 606 604 607
f 608 606 609
f 610 608 611
f 612 610 613
f 614 612 615
f 616 614 617
f 618 616 619
f 620 618 621
f 622 623 624
f 625 622 626
f 627 625 628
f 629 627 630
f 631 629 632
f 633 631 634
f 635 633 636
f 637 635 638
f 639 637 640
f 641 642 643
f 644 645 646
f 647 644 648
f 649 650 651
f 652 653 654
f 655 656 657
f 658 659 660
f 661 658 662
f 663 664 665
f 666 667 668
f 669 666 670
f 671 669 672
f 673 671 674
f 675 673 676
f 677 675 678
f 679 677 680
f 681 679 682
f 683 681 684
f 685 683 686
f 687 688 689
f 690 691 692
f 693 690 694
f 695 696 697
f 698 699 700
f 701 698 702
f 703 704 705
f 706 707 708
f 709 706 710
f 711 712 713
f 714 711 715
f 716 714 717
f 718 716 719
f 720 718 721
f 722 720 723
f 724 725 726
f 727 724 728
f 729 727 730
f 731 729 732
f 733 731 734
f 735 733 736
f 737 735 738
f 739 737 740
f 741 739 742
f 743 741 744
f 745 743 746
f 747 745 748
f 749 747 750
f 751 749 752
f 753 751 754
f 755 756 757
f 758 755 759
f 760 758 761
f 762 760 763
f 764 762 765
f 766 764 767
f 768 766 769
f 770 768 771
f 772 770 773
f 774 772 775
f 776 777 778
f 779 776 780
f 781 779 782
f 783 784 785
f 786 787 788
f 789 786 790
f 791 792 793
f 794 791 795
f 796 794 797
f 798 796 799
f 800 798 801
f 802 803 804
f 805 806 807
f 808 809 810
f 811 808 812
f 813 814 815
f 816 817 818
f 819 816 820
f 821 819 822
f 823 824 825
f 826 827 828
f 829 826 830
f 831 832 833
f 834 835 836
f 837 834 838
f 839 840 841
f 5 2 1
f 7 5 4
f 11 7 9
f 15 11 13
f 19 842 20
f 843 19 22
f 27 25 24
f 29 27 30
f 34 29 32
f 36 34 37
f 41 36 39
f 45 41 43
f 50 48 47
f 57 55 54
f 61 57 59
f 63 61 64
f 66 63 67
f 844 69 72
f 79 74 77
f 83 79 81
f 87 83 85
f 92 87 89
f 107 101 104
f 845 107 106
f 109 846 110
f 114 109 112
f 118 114 116
f 847 118 120
f 125 123 122
f 129 125 127
f 133 129 131
f 137 133 135
f 155 150 153
f 160 158 157
f 164 160 162
f 168 164 166
f 172 168 170
f 848 172 174
f 176 849 177
f 181 176 179
f 185 181 183
f 190 185 187
f 192 190 189
f 196 192 194
f 850 196 198
f 203 201 200
f 205 203 206
f 211 205 208
f 216 210 213
f 224 221 220
f 227 224 223
f 230 227 226
f 232 230 229
f 236 232 234
f 240 236 238
f 244 240 242
f 248 244 246
f 851 253 252
f 258 256 255
f 262 258 260
f 264 262 265
f 267 264 268
f 852 267 270
f 272 852 273
f 277 272 275
f 282 280 279
f 284 282 285
f 291 287 289
f 853 291 293
f 295 854 296
f 300 295 298
f 305 303 302
f 309 305 307
f 313 309 311
f 319 315 317
f 323 319 321
f 327 323 325
f 331 327 329
f 855 331 333
f 335 855 336
f 340 335 338
f 344 340 342
f 348 344 346
f 350 856 351
f 355 350 353
f 359 355 357
f 361 857 362
f 366 361 364
f 370 366 368
f 374 370 372
f 379 377 376
f 383 379 381
f 387 383 385
f 391 387 389
f 395 391 393
f 399 395 397
f 403 399 401
f 407 403 405
f 413 409 411
f 417 413 415
f 421 417 419
f 425 421 423
f 858 425 427
f 432 429 433
f 438 432 435
f 441 438 437
f 443 441 440
f 449 446 445
f 459 456 455
f 859 459 458
f 464 462 461
f 469 464 466
f 471 469 468
f 475 471 473
f 479 475 477
f 483 479 481
f 487 483 485
f 492 490 489
f 501 496 499
f 503 860 504
f 861 503 506
f 508 861 509
f 516 511 513
f 519 516 515
f 862 519 518
f 524 522 521
f 528 524 526
f 532 528 530
f 536 532 534
f 541 536 538
f 546 540 543
f 863 546 545
f 551 549 548
f 555 551 553
f 559 555 557
f 561 559 562
f 566 561 564
f 568 566 569
f 574 568 571
f 576 574 573
f 580 576 578
f 584 580 582
f 588 584 586
f 592 588 590
f 596 592 594
f 600 596 598
f 604 600 602
f 608 604 606
f 612 608 610
f 616 612 614
f 620 616 618
f 625 623 622
f 629 625 627
f 633 629 631
f 637 633 635
f 864 637 639
f 645 642 641
f 650 644 647
f 865 650 649
f 655 866 656
f 658 655 659
f 663 661 664
f 669 667 666
f 673 669 671
f 677 673 675
f 681 677 679
f 685 681 683
f 693 691 690
f 699 696 695
f 706 867 707
f 711 868 712
f 716 711 714
f 720 716 718
f 724 869 725
f 729 724 727
f 733 729 731
f 737 733 735
f 741 737 739
f 745 741 743
f 749 745 747
f 753 749 751
f 758 756 755
f 762 758 760
f 766 762 764
f 770 766 768
f 774 770 772
f 776 870 777
f 781 776 779
f 871 784 783
f 786 871 787
f 792 786 789
f 794 792 791
f 798 794 796
f 803 798 800
f 806 803 802
f 872 806 805
f 808 872 809
f 813 873 814
f 819 817 816
f 874 826 829
f 875 832 831
f 7 2 5
f 15 7 11
f 19 876 842
f 877 19 843
f 27 878 25
f 34 27 29
f 41 34 36
f 879 41 45
f 50 879 48
f 57 52 55
f 63 57 61
f 70 63 66
f 844 70 69
f 83 74 79
f 92 83 87
f 845 101 107
f 114 846 109
f 847 114 118
f 129 123 125
f 137 129 133
f 155 151 150
f 164 158 160
f 172 164 168
f 880 172 848
f 181 849 176
f 190 181 185
f 196 190 192
f 201 196 850
f 205 201 203
f 210 205 211
f 230 224 227
f 236 230 232
f 244 236 240
f 250 244 248
f 851 881 253
f 262 256 258
f 267 262 264
f 277 852 272
f 282 277 280
f 287 282 284
f 853 287 291
f 295 882 854
f 883 295 300
f 305 884 303
f 313 305 309
f 323 315 319
f 331 323 327
f 340 855 335
f 348 340 344
f 355 856 350
f 885 355 359
f 366 857 361
f 374 366 370
f 383 377 379
f 391 383 387
f 399 391 395
f 407 399 403
f 417 409 413
f 425 417 421
f 886 425 858
f 438 429 432
f 443 438 441
f 448 446 449
f 859 456 459
f 464 887 462
f 475 469 471
f 483 475 479
f 490 483 487
f 494 490 492
f 861 860 503
f 511 861 508
f 519 511 516
f 522 519 862
f 528 522 524
f 536 528 532
f 540 536 541
f 549 546 863
f 559 551 555
f 566 559 561
f 574 566 568
f 580 574 576
f 588 580 584
f 596 588 592
f 604 596 600
f 612 604 608
f 620 612 616
f 629 623 625
f 637 629 633
f 642 637 864
f 650 645 644
f 658 866 655
f 667 661 663
f 673 667 669
f 681 673 677
f 688 681 685
f 693 687 691
f 699 693 696
f 706 703 867
f 711 888 868
f 720 711 716
f 729 869 724
f 737 729 733
f 745 737 741
f 753 745 749
f 758 889 756
f 766 758 762
f 774 766 770
f 781 870 776
f 871 781 784
f 792 871 786
f 798 792 794
f 806 798 803
f 813 890 873
f 874 827 826
f 15 2 7
f 19 891 876
f 878 19 877
f 34 878 27
f 879 34 41
f 52 879 50
f 63 52 57
f 844 63 70
f 92 74 83
f 845 102 101
f 114 892 846
f 123 114 847
f 137 123 129
f 893 151 155
f 172 158 164
f 894 172 880
f 181 895 849
f 196 181 190
f 210 201 205
f 236 224 230
f 250 236 244
f 267 256 262
f 282 852 277
f 882 287 853
f 883 882 295
f 313 884 305
f 323 313 315
f 855 323 331
f 348 855 340
f 355 896 856
f 897 355 885
f 366 898 857
f 377 366 374
f 391 377 383
f 407 391 399
f 425 409 417
f 899 425 886
f 443 429 438
f 451 446 448
f 859 453 456
f 469 887 464
f 483 469 475
f 494 483 490
f 511 860 861
f 536 522 528
f 546 536 540
f 551 546 549
f 566 551 559
f 580 566 574
f 596 580 588
f 612 596 604
f 637 623 629
f 645 637 642
f 661 866 658
f 673 661 667
f 688 673 681
f 698 693 699
f 709 703 706
f 711 900 888
f 722 711 720
f 729 901 869
f 745 729 737
f 902 745 753
f 766 889 758
f 870 766 774
f 871 870 781
f 806 792 798
f 813 903 890
f 874 823 827
f 17 2 15
f 19 904 891
f 34 19 878
f 52 34 879
f 844 52 63
f 91 74 92
f 845 99 102
f 114 905 892
f 906 123 137
f 907 151 893
f 172 908 158
f 181 909 895
f 201 181 196
f 216 201 210
f 236 221 224
f 881 236 250
f 852 256 267
f 287 852 282
f 883 287 882
f 313 910 884
f 855 313 323
f 911 855 348
f 897 896 355
f 366 912 898
f 407 377 391
f 899 409 425
f 443 430 429
f 453 446 451
f 469 913 887
f 494 469 483
f 511 501 860
f 546 522 536
f 580 551 566
f 612 580 596
f 645 623 637
f 673 866 661
f 687 673 688
f 914 703 709
f 711 915 900
f 916 711 722
f 745 901 729
f 917 745 902
f 766 918 889
f 792 870 871
f 872 792 806
f 813 919 903
f 874 824 823
f 19 920 904
f 52 19 34
f 75 52 844
f 845 97 99
f 114 921 905
f 907 922 151
f 172 923 908
f 181 924 909
f 215 201 216
f 236 218 221
f 851 236 881
f 313 925 910
f 911 313 855
f 897 926 896
f 377 912 366
f 409 377 407
f 927 409 899
f 928 430 443
f 494 913 469
f 519 501 511
f 551 522 546
f 612 551 580
f 650 623 645
f 673 929 866
f 693 673 687
f 914 704 703
f 916 915 711
f 745 930 901
f 931 745 917
f 766 932 918
f 813 933 919
f 874 934 824
f 19 17 920
f 74 52 75
f 845 94 97
f 123 921 114
f 935 922 907
f 894 923 172
f 201 924 181
f 236 215 218
f 256 236 851
f 911 925 313
f 936 926 897
f 377 936 912
f 937 409 927
f 446 430 928
f 494 938 913
f 522 501 519
f 612 522 551
f 865 623 650
f 693 929 673
f 916 939 915
f 745 940 930
f 941 745 931
f 766 942 932
f 813 943 933
f 874 821 934
f 52 17 19
f 845 95 94
f 123 944 921
f 945 922 935
f 894 946 923
f 201 894 924
f 256 215 236
f 911 883 925
f 377 926 936
f 937 377 409
f 494 947 938
f 612 501 522
f 948 623 865
f 693 949 929
f 916 914 939
f 745 950 940
f 951 745 941
f 766 952 942
f 813 953 943
f 874 819 821
f 74 17 52
f 845 954 95
f 123 955 944
f 956 922 945
f 894 957 946
f 215 894 201
f 852 215 256
f 911 287 883
f 377 958 926
f 959 377 937
f 494 960 947
f 612 496 501
f 961 623 948
f 693 962 949
f 916 704 914
f 745 963 950
f 766 964 952
f 817 953 813
f 965 819 874
f 74 2 17
f 845 966 954
f 123 967 955
f 956 968 922
f 894 969 957
f 852 894 215
f 970 287 911
f 971 377 959
f 612 497 496
f 653 623 961
f 693 972 962
f 916 701 704
f 951 963 745
f 870 964 766
f 817 973 953
f 965 817 819
f 91 2 74
f 845 974 966
f 123 845 967
f 975 968 956
f 894 976 969
f 977 287 970
f 978 377 971
f 612 979 497
f 652 623 653
f 693 980 972
f 963 701 916
f 981 963 951
f 870 981 964
f 817 982 973
f 983 817 965
f 974 2 91
f 123 974 845
f 984 968 975
f 894 985 976
f 958 287 977
f 986 377 978
f 612 987 979
f 988 623 652
f 693 989 980
f 981 701 963
f 817 990 982
f 991 817 983
f 123 2 974
f 984 992 968
f 894 993 985
f 994 377 986
f 612 494 987
f 995 623 988
f 693 996 989
f 870 701 981
f 991 990 817
f 906 2 123
f 993 992 984
f 994 958 377
f 612 960 494
f 997 623 995
f 693 998 996
f 792 701 870
f 991 999 990
f 906 839 2
f 894 992 993
f 1000 958 994
f 612 1001 960
f 693 1002 998
f 792 698 701
f 991 1003 999
f 906 840 839
f 894 1004 992
f 1005 958 1000
f 620 1001 612
f 693 997 1002
f 792 693 698
f 991 1006 1003
f 906 837 840
f 894 1007 1004
f 1008 958 1005
f 620 1009 1001
f 693 623 997
f 872 693 792
f 991 1010 1006
f 906 834 837
f 894 1011 1007
f 1012 958 1008
f 620 1013 1009
f 872 623 693
f 991 1014 1010
f 906 835 834
f 852 1011 894
f 1015 958 1012
f 623 1013 620
f 808 623 872
f 991 811 1014
f 906 875 835
f 852 1016 1011
f 430 958 1015
f 623 1017 1013
f 811 623 808
f 832 811 991
f 906 832 875
f 852 1018 1016
f 446 958 430
f 906 811 832
f 852 1019 1018
f 453 958 446
f 906 623 811
f 852 1020 1019
f 859 958 453
f 140 623 906
f 852 1021 1020
f 859 287 958
f 139 623 140
f 852 1022 1021
f 1017 287 859
f 143 623 139
f 852 1023 1022
f 623 287 1017
f 142 623 143
f 852 147 1023
f 623 852 287
f 145 623 142
f 852 148 147
f 145 852 623
f 852 1024 148
f 1025 852 145
f 852 1025 1024
f 1026 1027 1028
f 1029 1030 1031
f 1030 1032 1033
f 1032 1034 1035
f 1034 1036 1037
f 1036 1038 1039
f 1038 1040 1041
f 1040 1042 1043
f 1044 1045 1046
f 1045 1047 1048
f 1049 1050 1051
f 1050 1052 1053
f 1054 1055 1056
f 1055 1057 1058
f 1057 1059 1060
f 1061 1062 1063
f 1062 1064 1065
f 1064 1066 1067
f 1066 1068 1069
f 1068 1070 1071
f 1072 1073 1074
f 1073 1075 1076
f 1075 1077 1078
f 1079 1080 1081
f 1080 1082 1083
f 1082 1084 1085
f 1084 1086 1087
f 1088 1089 1090
f 1091 1092 1093
f 1094 1095 1096
f 1095 1097 1098
f 1099 1100 1101
f 1100 1102 1103
f 1102 1104 1105
f 1104 1106 1107
f 1106 1108 1109
f 1108 1110 1111
f 1110 1112 1113
f 1112 1114 1115
f 1116 1117 1118
f 1119 1120 1121
f 1120 1122 1123
f 1122 1124 1125
f 1126 1127 1128
f 1127 1129 1130
f 1131 1132 1133
f 1134 1135 1136
f 1135 1137 1138
f 1137 1139 1140
f 1139 1141 1142
f 1141 1143 1144
f 1143 1145 1146
f 1147 1148 1149
f 1148 1150 1151
f 1150 1152 1153
f 1152 1154 1155
f 1154 1156 1157
f 1156 1158 1159
f 1158 1160 1161
f 1160 1162 1163
f 1164 1165 1166
f 1167 1168 1169
f 1168 1170 1171
f 1172 1173 1174
f 1175 1176 1177
f 1176 1178 1179
f 1178 1180 1181
f 1182 1183 1184
f 1183 1185 1186
f 1185 1187 1188
f 1187 1189 1190
f 1189 1191 1192
f 1191 1193 1194
f 1193 1195 1196
f 1195 1197 1198
f 1197 1199 1200
f 1201 1202 1203
f 1202 1204 1205
f 1204 1206 1207
f 1206 1208 1209
f 1208 1210 1211
f 1210 1212 1213
f 1214 1215 1216
f 1215 1217 1218
f 1217 1219 1220
f 1219 1221 1222
f 1221 1223 1224
f 1225 1226 1227
f 1226 1228 1229
f 1230 1231 1232
f 1231 1233 1234
f 1235 1236 1237
f 1236 1238 1239
f 1240 1241 1242
f 1241 1243 1244
f 1245 1246 1247
f 1248 1249 1250
f 1251 1252 1253
f 1254 1255 1256
f 1255 1257 1258
f 1257 1259 1260
f 1259 1261 1262
f 1261 1263 1264
f 1263 1265 1266
f 1265 1267 1268
f 1267 1269 1270
f 1269 1271 1272
f 1271 1273 1274
f 1273 1275 1276
f 1277 1278 1279
f 1280 1281 1282
f 1281 1283 1284
f 1283 1285 1286
f 1285 1287 1288
f 1289 1290 1291
f 1292 1293 1294
f 1293 1295 1296
f 1297 1298 1299
f 1298 1300 1301
f 1300 1302 1303
f 1304 1305 1306
f 1305 1307 1308
f 1309 1310 1311
f 1310 1312 1313
f 1312 1314 1315
f 1314 1316 1317
f 1316 1318 1319
f 1320 1321 1322
f 1321 1323 1324
f 1323 1325 1326
f 1327 1328 1329
f 1328 1330 1331
f 1330 1332 1333
f 1332 1334 1335
f 1334 1336 1337
f 1336 1338 1339
f 1338 1340 1341
f 1340 1342 1343
f 1342 1344 1345
f 1344 1346 1347
f 1346 1348 1349
f 1348 1350 1351
f 1350 1352 1353
f 1352 1354 1355
f 1354 1356 1357
f 1356 1358 1359
f 1360 1361 1362
f 1361 1363 1364
f 1363 1365 1366
f 1365 1367 1368
f 1367 1369 1370
f 1369 1371 1372
f 1371 1373 1374
f 1375 1376 1377
f 1376 1378 1379
f 1378 1380 1381
f 1380 1382 1383
f 1382 1384 1385
f 1386 1387 1388
f 1387 1389 1390
f 1389 1391 1392
f 1391 1393 1394
f 1393 1395 1396
f 1395 1397 1398
f 1397 1399 1400
f 1401 1402 1403
f 1402 1404 1405
f 1404 1406 1407
f 1406 1408 1409
f 1408 1410 1411
f 1410 1412 1413
f 1412 1414 1415
f 1414 1416 1417
f 1416 1418 1419
f 1418 1420 1421
f 1420 1422 1423
f 1422 1424 1425
f 1424 1426 1427
f 1426 1428 1429
f 1428 1430 1431
f 1430 1432 1433
f 1432 1434 1435
f 1434 1436 1437
f 1436 1438 1439
f 1438 1440 1441
f 1440 1442 1443
f 1442 1444 1445
f 1444 1446 1447
f 1446 1448 1449
f 1448 1450 1451
f 1450 1452 1453
f 1454 1455 1456
f 1457 1458 1459
f 1458 1460 1461
f 1462 1463 1464
f 1465 1466 1467
f 1466 1468 1469
f 1470 1471 1472
f 1473 1474 1475
f 1474 1476 1477
f 1476 1478 1479
f 1480 1481 1482
f 1483 1484 1485
f 1486 1487 1488
f 1487 1489 1490
f 1489 1491 1492
f 1493 1494 1495
f 1494 1496 1497
f 1496 1498 1499
f 1498 1500 1501
f 1500 1502 1503
f 1502 1504 1505
f 1504 1506 1507
f 1506 1508 1509
f 1508 1510 1511
f 1510 1512 1513
f 1514 1515 1516
f 1515 1517 1518
f 1517 1519 1520
f 1521 1522 1523
f 1522 1524 1525
f 1524 1526 1527
f 1528 1529 1530
f 1529 1531 1532
f 1533 1534 1535
f 1534 1536 1537
f 1536 1538 1539
f 1540 1541 1542
f 1543 1544 1545
f 1546 1547 1548
f 1547 1549 1550
f 1549 1551 1552
f 1551 1553 1554
f 1553 1555 1556
f 1555 1557 1558
f 1557 1559 1560
f 1559 1561 1562
f 1561 1563 1564
f 1565 1566 1567
f 1566 1568 1569
f 1570 1571 1572
f 1573 1574 1575
f 1574 1576 1577
f 1576 1578 1579
f 1578 1580 1581
f 1580 1582 1583
f 1582 1584 1585
f 1586 1587 1588
f 1587 1589 1590
f 1589 1591 1592
f 1593 1594 1595
f 1594 1596 1597
f 1598 1599 1600
f 1599 1601 1602
f 1601 1603 1604
f 1603 1605 1606
f 1605 1607 1608
f 1607 1609 1610
f 1609 1611 1612
f 1611 1613 1614
f 1613 1615 1616
f 1615 1617 1618
f 1617 1619 1620
f 1619 1621 1622
f 1621 1623 1624
f 1623 1625 1626
f 1625 1627 1628
f 1627 1629 1630
f 1629 1631 1632
f 1631 1633 1634
f 1633 1635 1636
f 1635 1637 1638
f 1637 1639 1640
f 1639 1641 1642
f 1641 1643 1644
f 1643 1645 1646
f 1647 1648 1649
f 1648 1650 1651
f 1650 1652 1653
f 1652 1654 1655
f 1654 1656 1657
f 1656 1658 1659
f 1658 1660 1661
f 1660 1662 1663
f 1662 1664 1665
f 1666 1667 1668
f 1669 1670 1671
f 1670 1672 1673
f 1674 1675 1676
f 1677 1678 1679
f 1680 1681 1682
f 1683 1684 1685
f 1684 1686 1687
f 1688 1689 1690
f 1691 1692 1693
f 1692 1694 1695
f 1694 1696 1697
f 1696 1698 1699
f 1698 1700 1701
f 1700 1702 1703
f 1702 1704 1705
f 1704 1706 1707
f 1706 1708 1709
f 1708 1710 1711
f 1712 1713 1714
f 1715 1716 1717
f 1716 1718 1719
f 1720 1721 1722
f 1723 1724 1725
f 1724 1726 1727
f 1728 1729 1730
f 1731 1732 1733
f 1732 1734 1735
f 1736 1737 1738
f 1737 1739 1740
f 1739 1741 1742
f 1741 1743 1744
f 1743 1745 1746
f 1745 1747 1748
f 1749 1750 1751
f 1750 1752 1753
f 1752 1754 1755
f 1754 1756 1757
f 1756 1758 1759
f 1758 1760 1761
f 1760 1762 1763
f 1762 1764 1765
f 1764 1766 1767
f 1766 1768 1769
f 1768 1770 1771
f 1770 1772 1773
f 1772 1774 1775
f 1774 1776 1777
f 1776 1778 1779
f 1780 1781 1782
f 1781 1783 1784
f 1783 1785 1786
f 1785 1787 1788
f 1787 1789 1790
f 1789 1791 1792
f 1791 1793 1794
f 1793 1795 1796
f 1795 1797 1798
f 1797 1799 1800
f 1801 1802 1803
f 1802 1804 1805
f 1804 1806 1807
f 1808 1809 1810
f 1811 1812 1813
f 1812 1814 1815
f 1816 1817 1818
f 1817 1819 1820
f 1819 1821 1822
f 1821 1823 1824
f 1823 1825 1826
f 1827 1828 1829
f 1830 1831 1832
f 1833 1834 1835
f 1834 1836 1837
f 1838 1839 1840
f 1841 1842 1843
f 1842 1844 1845
f 1844 1846 1847
f 1848 1849 1850
f 1851 1852 1853
f 1852 1854 1855
f 1856 1857 1858
f 1859 1860 1861
f 1860 1862 1863
f 1864 1865 1866
f 1026 1029 1027
f 1029 1032 1030
f 1032 1036 1034
f 1036 1040 1038
f 1867 1045 1044
f 1045 1868 1047
f 1049 1052 1050
f 1052 1055 1054
f 1055 1059 1057
f 1059 1062 1061
f 1062 1066 1064
f 1066 1070 1068
f 1072 1075 1073
f 1079 1082 1080
f 1082 1086 1084
f 1086 1089 1088
f 1089 1092 1091
f 1095 1869 1097
f 1100 1104 1102
f 1104 1108 1106
f 1108 1112 1110
f 1112 1116 1114
f 1127 1131 1129
f 1131 1870 1132
f 1871 1135 1134
f 1135 1139 1137
f 1139 1143 1141
f 1143 1872 1145
f 1147 1150 1148
f 1150 1154 1152
f 1154 1158 1156
f 1158 1162 1160
f 1176 1180 1178
f 1182 1185 1183
f 1185 1189 1187
f 1189 1193 1191
f 1193 1197 1195
f 1197 1873 1199
f 1874 1202 1201
f 1202 1206 1204
f 1206 1210 1208
f 1210 1214 1212
f 1214 1217 1215
f 1217 1221 1219
f 1221 1875 1223
f 1225 1228 1226
f 1228 1231 1230
f 1231 1235 1233
f 1236 1240 1238
f 1245 1248 1246
f 1248 1251 1249
f 1251 1254 1252
f 1254 1257 1255
f 1257 1261 1259
f 1261 1265 1263
f 1265 1269 1267
f 1269 1273 1271
f 1277 1876 1278
f 1280 1283 1281
f 1283 1287 1285
f 1287 1290 1289
f 1290 1293 1292
f 1293 1877 1295
f 1877 1298 1297
f 1298 1302 1300
f 1304 1307 1305
f 1307 1310 1309
f 1312 1316 1314
f 1316 1878 1318
f 1879 1321 1320
f 1321 1325 1323
f 1327 1330 1328
f 1330 1334 1332
f 1334 1338 1336
f 1340 1344 1342
f 1344 1348 1346
f 1348 1352 1350
f 1352 1356 1354
f 1356 1880 1358
f 1880 1361 1360
f 1361 1365 1363
f 1365 1369 1367
f 1369 1373 1371
f 1881 1376 1375
f 1376 1380 1378
f 1380 1384 1382
f 1882 1387 1386
f 1387 1391 1389
f 1391 1395 1393
f 1395 1399 1397
f 1401 1404 1402
f 1404 1408 1406
f 1408 1412 1410
f 1412 1416 1414
f 1416 1420 1418
f 1420 1424 1422
f 1424 1428 1426
f 1428 1432 1430
f 1434 1438 1436
f 1438 1442 1440
f 1442 1446 1444
f 1446 1450 1448
f 1450 1883 1452
f 1455 1458 1457
f 1458 1462 1460
f 1462 1465 1463
f 1465 1468 1466
f 1470 1473 1471
f 1480 1483 1481
f 1483 1884 1484
f 1486 1489 1487
f 1489 1493 1491
f 1493 1496 1494
f 1496 1500 1498
f 1500 1504 1502
f 1504 1508 1506
f 1508 1512 1510
f 1514 1517 1515
f 1522 1526 1524
f 1885 1529 1528
f 1529 1886 1531
f 1886 1534 1533
f 1536 1540 1538
f 1540 1543 1541
f 1543 1887 1544
f 1546 1549 1547
f 1549 1553 1551
f 1553 1557 1555
f 1557 1561 1559
f 1561 1565 1563
f 1566 1570 1568
f 1570 1888 1571
f 1573 1576 1574
f 1576 1580 1578
f 1580 1584 1582
f 1584 1587 1586
f 1587 1591 1589
f 1591 1594 1593
f 1594 1598 1596
f 1598 1601 1599
f 1601 1605 1603
f 1605 1609 1607
f 1609 1613 1611
f 1613 1617 1615
f 1617 1621 1619
f 1621 1625 1623
f 1625 1629 1627
f 1629 1633 1631
f 1633 1637 1635
f 1637 1641 1639
f 1641 1645 1643
f 1647 1650 1648
f 1650 1654 1652
f 1654 1658 1656
f 1658 1662 1660
f 1662 1889 1664
f 1666 1669 1667
f 1670 1674 1672
f 1674 1890 1675
f 1891 1681 1680
f 1681 1684 1683
f 1686 1689 1688
f 1691 1694 1692
f 1694 1698 1696
f 1698 1702 1700
f 1702 1706 1704
f 1706 1710 1708
f 1715 1718 1716
f 1720 1723 1721
f 1892 1732 1731
f 1893 1737 1736
f 1737 1741 1739
f 1741 1745 1743
f 1894 1750 1749
f 1750 1754 1752
f 1754 1758 1756
f 1758 1762 1760
f 1762 1766 1764
f 1766 1770 1768
f 1770 1774 1772
f 1774 1778 1776
f 1780 1783 1781
f 1783 1787 1785
f 1787 1791 1789
f 1791 1795 1793
f 1795 1799 1797
f 1895 1802 1801
f 1802 1806 1804
f 1808 1896 1809
f 1896 1812 1811
f 1812 1816 1814
f 1816 1819 1817
f 1819 1823 1821
f 1823 1827 1825
f 1827 1830 1828
f 1830 1897 1831
f 1897 1834 1833
f 1898 1839 1838
f 1841 1844 1842
f 1852 1899 1854
f 1856 1900 1857
f 1026 1032 1029
f 1032 1040 1036
f 1901 1045 1867
f 1045 1902 1868
f 1903 1052 1049
f 1052 1059 1055
f 1059 1066 1062
f 1066 1904 1070
f 1904 1075 1072
f 1077 1082 1079
f 1082 1089 1086
f 1089 1094 1092
f 1094 1869 1095
f 1100 1108 1104
f 1108 1116 1112
f 1127 1870 1131
f 1871 1139 1135
f 1139 1872 1143
f 1147 1154 1150
f 1154 1162 1158
f 1175 1180 1176
f 1182 1189 1185
f 1189 1197 1193
f 1197 1905 1873
f 1874 1206 1202
f 1206 1214 1210
f 1214 1221 1217
f 1221 1225 1875
f 1225 1231 1228
f 1231 1236 1235
f 1248 1254 1251
f 1254 1261 1257
f 1261 1269 1265
f 1269 1275 1273
f 1906 1876 1277
f 1280 1287 1283
f 1287 1293 1290
f 1877 1302 1298
f 1302 1307 1304
f 1307 1312 1310
f 1312 1878 1316
f 1907 1321 1879
f 1321 1908 1325
f 1909 1330 1327
f 1330 1338 1334
f 1340 1348 1344
f 1348 1356 1352
f 1880 1365 1361
f 1365 1373 1369
f 1881 1380 1376
f 1380 1910 1384
f 1882 1391 1387
f 1391 1399 1395
f 1401 1408 1404
f 1408 1416 1412
f 1416 1424 1420
f 1424 1432 1428
f 1434 1442 1438
f 1442 1450 1446
f 1450 1911 1883
f 1455 1462 1458
f 1462 1468 1465
f 1470 1474 1473
f 1480 1884 1483
f 1912 1489 1486
f 1493 1500 1496
f 1500 1508 1504
f 1508 1514 1512
f 1514 1519 1517
f 1885 1886 1529
f 1886 1536 1534
f 1536 1543 1540
f 1543 1546 1887
f 1546 1553 1549
f 1553 1561 1557
f 1561 1566 1565
f 1570 1573 1888
f 1576 1584 1580
f 1584 1591 1587
f 1591 1598 1594
f 1598 1605 1601
f 1605 1613 1609
f 1613 1621 1617
f 1621 1629 1625
f 1629 1637 1633
f 1637 1645 1641
f 1647 1654 1650
f 1654 1662 1658
f 1662 1666 1889
f 1669 1674 1670
f 1891 1684 1681
f 1686 1691 1689
f 1691 1698 1694
f 1698 1706 1702
f 1706 1712 1710
f 1713 1718 1715
f 1718 1723 1720
f 1729 1732 1892
f 1913 1737 1893
f 1737 1745 1741
f 1894 1754 1750
f 1754 1762 1758
f 1762 1770 1766
f 1770 1778 1774
f 1914 1783 1780
f 1783 1791 1787
f 1791 1799 1795
f 1895 1806 1802
f 1806 1896 1808
f 1896 1816 1812
f 1816 1823 1819
f 1823 1830 1827
f 1915 1839 1898
f 1851 1899 1852
f 1026 1040 1032
f 1916 1045 1901
f 1045 1903 1902
f 1903 1059 1052
f 1059 1904 1066
f 1904 1077 1075
f 1077 1089 1082
f 1089 1869 1094
f 1100 1116 1108
f 1126 1870 1127
f 1917 1139 1871
f 1139 1147 1872
f 1147 1162 1154
f 1175 1918 1180
f 1182 1197 1189
f 1197 1919 1905
f 1920 1206 1874
f 1206 1221 1214
f 1225 1236 1231
f 1248 1261 1254
f 1261 1275 1269
f 1280 1293 1287
f 1877 1307 1302
f 1312 1907 1878
f 1907 1908 1321
f 1909 1338 1330
f 1338 1348 1340
f 1348 1880 1356
f 1880 1373 1365
f 1921 1380 1881
f 1380 1922 1910
f 1923 1391 1882
f 1391 1401 1399
f 1401 1416 1408
f 1416 1432 1424
f 1434 1450 1442
f 1450 1924 1911
f 1455 1468 1462
f 1470 1476 1474
f 1478 1884 1480
f 1912 1493 1489
f 1493 1508 1500
f 1508 1519 1514
f 1885 1536 1886
f 1546 1561 1553
f 1561 1570 1566
f 1570 1576 1573
f 1576 1591 1584
f 1591 1605 1598
f 1605 1621 1613
f 1621 1637 1629
f 1647 1662 1654
f 1662 1669 1666
f 1891 1686 1684
f 1686 1698 1691
f 1698 1712 1706
f 1718 1724 1723
f 1729 1734 1732
f 1925 1737 1913
f 1737 1747 1745
f 1926 1754 1894
f 1754 1770 1762
f 1770 1927 1778
f 1914 1791 1783
f 1791 1895 1799
f 1895 1896 1806
f 1816 1830 1823
f 1928 1839 1915
f 1849 1899 1851
f 1026 1042 1040
f 1929 1045 1916
f 1045 1059 1903
f 1059 1077 1904
f 1077 1869 1089
f 1100 1117 1116
f 1124 1870 1126
f 1930 1139 1917
f 1147 1931 1162
f 1175 1932 1918
f 1933 1197 1182
f 1934 1206 1920
f 1206 1225 1221
f 1225 1240 1236
f 1245 1261 1248
f 1261 1906 1275
f 1280 1877 1293
f 1877 1312 1307
f 1312 1908 1907
f 1935 1338 1909
f 1338 1880 1348
f 1880 1936 1373
f 1921 1922 1380
f 1937 1391 1923
f 1401 1432 1416
f 1434 1924 1450
f 1454 1468 1455
f 1470 1478 1476
f 1938 1493 1912
f 1493 1519 1508
f 1526 1536 1885
f 1546 1570 1561
f 1576 1605 1591
f 1605 1637 1621
f 1647 1669 1662
f 1891 1698 1686
f 1698 1713 1712
f 1729 1939 1734
f 1940 1737 1925
f 1737 1941 1747
f 1926 1770 1754
f 1770 1942 1927
f 1943 1791 1914
f 1895 1816 1896
f 1816 1897 1830
f 1944 1839 1928
f 1848 1899 1849
f 1945 1045 1929
f 1045 1077 1059
f 1077 1099 1869
f 1122 1870 1124
f 1946 1139 1930
f 1947 1932 1175
f 1948 1197 1933
f 1949 1206 1934
f 1225 1241 1240
f 1243 1261 1245
f 1261 1876 1906
f 1950 1338 1935
f 1338 1936 1880
f 1951 1922 1921
f 1937 1401 1391
f 1401 1434 1432
f 1434 1952 1924
f 1454 1953 1468
f 1938 1519 1493
f 1526 1543 1536
f 1546 1576 1570
f 1576 1637 1605
f 1647 1674 1669
f 1954 1698 1891
f 1698 1718 1713
f 1728 1939 1729
f 1940 1941 1737
f 1955 1770 1926
f 1770 1956 1942
f 1957 1791 1943
f 1958 1839 1944
f 1959 1899 1848
f 1042 1045 1945
f 1077 1100 1099
f 1120 1870 1122
f 1946 1147 1139
f 1947 1960 1932
f 1948 1919 1197
f 1949 1225 1206
f 1241 1261 1243
f 1261 1280 1876
f 1950 1936 1338
f 1951 1961 1922
f 1961 1401 1937
f 1434 1962 1952
f 1454 1470 1953
f 1963 1519 1938
f 1526 1546 1543
f 1546 1637 1576
f 1647 1890 1674
f 1954 1718 1698
f 1964 1941 1940
f 1965 1770 1955
f 1770 1966 1956
f 1967 1791 1957
f 1968 1839 1958
f 1846 1899 1959
f 1042 1077 1045
f 1119 1870 1120
f 1969 1147 1946
f 1947 1970 1960
f 1971 1919 1948
f 1919 1225 1949
f 1241 1280 1261
f 1908 1936 1950
f 1951 1401 1961
f 1401 1962 1434
f 1972 1519 1963
f 1526 1637 1546
f 1647 1973 1890
f 1974 1718 1954
f 1939 1941 1964
f 1975 1770 1965
f 1770 1976 1966
f 1977 1791 1967
f 1978 1839 1968
f 1844 1899 1846
f 1042 1100 1077
f 1979 1870 1119
f 1980 1147 1969
f 1947 1981 1970
f 1982 1919 1971
f 1919 1241 1225
f 1241 1877 1280
f 1312 1936 1908
f 1983 1401 1951
f 1401 1984 1962
f 1985 1519 1972
f 1522 1637 1526
f 1647 1986 1973
f 1987 1718 1974
f 1728 1941 1939
f 1988 1770 1975
f 1989 1791 1977
f 1978 1841 1839
f 1844 1990 1899
f 1026 1100 1042
f 1991 1870 1979
f 1992 1147 1980
f 1993 1981 1947
f 1994 1919 1982
f 1919 1877 1241
f 1312 1995 1936
f 1401 1996 1984
f 1521 1637 1522
f 1647 1677 1986
f 1997 1718 1987
f 1726 1941 1728
f 1988 1976 1770
f 1989 1895 1791
f 1998 1841 1978
f 1841 1990 1844
f 1026 1117 1100
f 1999 1870 1991
f 1870 1147 1992
f 1993 2000 1981
f 2001 1919 1994
f 1312 2002 1995
f 1401 2003 1996
f 2004 1637 1521
f 1647 1678 1677
f 2005 1718 1997
f 1726 1988 1941
f 1988 2006 1976
f 2006 1895 1989
f 2007 1841 1998
f 1841 2008 1990
f 1026 1999 1117
f 1999 1147 1870
f 1993 2009 2000
f 2010 1919 2001
f 1312 1983 2002
f 1401 2011 2003
f 2012 1637 2004
f 1647 2013 1678
f 2014 1718 2005
f 1726 2006 1988
f 2015 1841 2007
f 1841 2016 2008
f 1026 1147 1999
f 2017 2009 1993
f 2018 1919 2010
f 1401 2019 2011
f 1519 1637 2012
f 1647 2020 2013
f 2021 1718 2014
f 1726 1895 2006
f 2015 2016 1841
f 1026 1931 1147
f 2017 2018 2009
f 1983 2019 1401
f 1985 1637 1519
f 1647 2022 2020
f 2023 1718 2021
f 1726 1816 1895
f 2024 2016 2015
f 1865 1931 1026
f 2017 1919 2018
f 1983 2025 2019
f 2026 1637 1985
f 2027 1718 2023
f 1724 1816 1726
f 2028 2016 2024
f 1864 1931 1865
f 2029 1919 2017
f 1983 2030 2025
f 2026 1645 1637
f 2022 1718 2027
f 1718 1816 1724
f 2031 2016 2028
f 1862 1931 1864
f 2032 1919 2029
f 1983 2033 2030
f 2034 1645 2026
f 1647 1718 2022
f 1718 1897 1816
f 2035 2016 2031
f 1860 1931 1862
f 2036 1919 2032
f 1983 2037 2033
f 2038 1645 2034
f 1647 1897 1718
f 2039 2016 2035
f 1859 1931 1860
f 2036 1877 1919
f 1983 2040 2037
f 2038 1647 1645
f 1647 1834 1897
f 1836 2016 2039
f 1900 1931 1859
f 2041 1877 2036
f 1983 1454 2040
f 2042 1647 2038
f 1647 1836 1834
f 1836 1856 2016
f 1856 1931 1900
f 2043 1877 2041
f 1983 1470 1454
f 1836 1931 1856
f 2044 1877 2043
f 1983 1478 1470
f 1647 1931 1836
f 2045 1877 2044
f 1983 1884 1478
f 1647 1164 1931
f 2046 1877 2045
f 1312 1884 1983
f 1647 1165 1164
f 2047 1877 2046
f 1312 2042 1884
f 1647 1167 1165
f 2048 1877 2047
f 1312 1647 2042
f 1647 1168 1167
f 1173 1877 2048
f 1877 1647 1312
f 1647 1170 1168
f 1172 1877 1173
f 1877 1170 1647
f 2049 1877 1172
f 1877 2050 1170
f 2050 1877 2049
f 3 1028 1
f 1 1028 1027
f 1 1027 5
f 5 1027 1029
f 5 1029 6
f 6 1029 1031
f 6 1031 4
f 4 1031 1030
f 4 1030 8
f 8 1030 1033
f 8 1033 7
f 7 1033 1032
f 7 1032 10
f 10 1032 1035
f 10 1035 9
f 9 1035 1034
f 9 1034 12
f 12 1034 1037
f 12 1037 11
f 11 1037 1036
f 11 1036 14
f 14 1036 1039
f 14 1039 13
f 13 1039 1038
f 13 1038 16
f 16 1038 1041
f 16 1041 15
f 15 1041 1040
f 15 1040 18
f 18 1040 1043
f 18 1043 17
f 17 1043 1042
f 17 1042 920
f 920 1042 1945
f 920 1945 904
f 904 1945 1929
f 904 1929 891
f 891 1929 1916
f 891 1916 876
f 876 1916 1901
f 876 1901 842
f 842 1901 1867
f 842 1867 20
f 20 1867 1044
f 20 1044 21
f 21 1044 1046
f 21 1046 19
f 19 1046 1045
f 19 1045 23
f 23 1045 1048
f 23 1048 22
f 22 1048 1047
f 22 1047 843
f 843 1047 1868
f 843 1868 877
f 877 1868 1902
f 877 1902 878
f 878 1902 1903
f 878 1903 25
f 25 1903 1049
f 25 1049 26
f 26 1049 1051
f 26 1051 24
f 24 1051 1050
f 24 1050 28
f 28 1050 1053
f 28 1053 27
f 27 1053 1052
f 27 1052 30
f 30 1052 1054
f 30 1054 31
f 31 1054 1056
f 31 1056 29
f 29 1056 1055
f 29 1055 33
f 33 1055 1058
f 33 1058 32
f 32 1058 1057
f 32 1057 35
f 35 1057 1060
f 35 1060 34
f 34 1060 1059
f 34 1059 37
f 37 1059 1061
f 37 1061 38
f 38 1061 1063
f 38 1063 36
f 36 1063 1062
f 36 1062 40
f 40 1062 1065
f 40 1065 39
f 39 1065 1064
f 39 1064 42
f 42 1064 1067
f 42 1067 41
f 41 1067 1066
f 41 1066 44
f 44 1066 1069
f 44 1069 43
f 43 1069 1068
f 43 1068 46
f 46 1068 1071
f 46 1071 45
f 45 1071 1070
f 45 1070 879
f 879 1070 1904
f 879 1904 48
f 48 1904 1072
f 48 1072 49
f 49 1072 1074
f 49 1074 47
f 47 1074 1073
f 47 1073 51
f 51 1073 1076
f 51 1076 50
f 50 1076 1075
f 50 1075 53
f 53 1075 1078
f 53 1078 52
f 52 1078 1077
f 52 1077 55
f 55 1077 1079
f 55 1079 56
f 56 1079 1081
f 56 1081 54
f 54 1081 1080
f 54 1080 58
f 58 1080 1083
f 58 1083 57
f 57 1083 1082
f 57 1082 60
f 60 1082 1085
f 60 1085 59
f 59 1085 1084
f 59 1084 62
f 62 1084 1087
f 62 1087 61
f 61 1087 1086
f 61 1086 64
f 64 1086 1088
f 64 1088 65
f 65 1088 1090
f 65 1090 63
f 63 1090 1089
f 63 1089 67
f 67 1089 1091
f 67 1091 68
f 68 1091 1093
f 68 1093 66
f 66 1093 1092
f 66 1092 70
f 70 1092 1094
f 70 1094 71
f 71 1094 1096
f 71 1096 69
f 69 1096 1095
f 69 1095 73
f 73 1095 1098
f 73 1098 72
f 72 1098 1097
f 72 1097 844
f 844 1097 1869
f 844 1869 75
f 75 1869 1099
f 75 1099 76
f 76 1099 1101
f 76 1101 74
f 74 1101 1100
f 74 1100 78
f 78 1100 1103
f 78 1103 77
f 77 1103 1102
f 77 1102 80
f 80 1102 1105
f 80 1105 79
f 79 1105 1104
f 79 1104 82
f 82 1104 1107
f 82 1107 81
f 81 1107 1106
f 81 1106 84
f 84 1106 1109
f 84 1109 83
f 83 1109 1108
f 83 1108 86
f 86 1108 1111
f 86 1111 85
f 85 1111 1110
f 85 1110 88
f 88 1110 1113
f 88 1113 87
f 87 1113 1112
f 87 1112 90
f 90 1112 1115
f 90 1115 89
f 89 1115 1114
f 89 1114 92
f 92 1114 1116
f 92 1116 93
f 93 1116 1118
f 93 1118 91
f 91 1118 1117
f 91 1117 974
f 974 1117 1999
f 974 1999 966
f 966 1999 1991
f 966 1991 954
f 954 1991 1979
f 954 1979 95
f 95 1979 1119
f 95 1119 96
f 96 1119 1121
f 96 1121 94
f 94 1121 1120
f 94 1120 98
f 98 1120 1123
f 98 1123 97
f 97 1123 1122
f 97 1122 100
f 100 1122 1125
f 100 1125 99
f 99 1125 1124
f 99 1124 102
f 102 1124 1126
f 102 1126 103
f 103 1126 1128
f 103 1128 101
f 101 1128 1127
f 101 1127 105
f 105 1127 1130
f 105 1130 104
f 104 1130 1129
f 104 1129 107
f 107 1129 1131
f 107 1131 108
f 108 1131 1133
f 108 1133 106
f 106 1133 1132
f 106 1132 845
f 845 1132 1870
f 845 1870 967
f 967 1870 1992
f 967 1992 955
f 955 1992 1980
f 955 1980 944
f 944 1980 1969
f 944 1969 921
f 921 1969 1946
f 921 1946 905
f 905 1946 1930
f 905 1930 892
f 892 1930 1917
f 892 1917 846
f 846 1917 1871
f 846 1871 110
f 110 1871 1134
f 110 1134 111
f 111 1134 1136
f 111 1136 109
f 109 1136 1135
f 109 1135 113
f 113 1135 1138
f 113 1138 112
f 112 1138 1137
f 112 1137 115
f 115 1137 1140
f 115 1140 114
f 114 1140 1139
f 114 1139 117
f 117 1139 1142
f 117 1142 116
f 116 1142 1141
f 116 1141 119
f 119 1141 1144
f 119 1144 118
f 118 1144 1143
f 118 1143 121
f 121 1143 1146
f 121 1146 120
f 120 1146 1145
f 120 1145 847
f 847 1145 1872
f 847 1872 123
f 123 1872 1147
f 123 1147 124
f 124 1147 1149
f 124 1149 122
f 122 1149 1148
f 122 1148 126
f 126 1148 1151
f 126 1151 125
f 125 1151 1150
f 125 1150 128
f 128 1150 1153
f 128 1153 127
f 127 1153 1152
f 127 1152 130
f 130 1152 1155
f 130 1155 129
f 129 1155 1154
f 129 1154 132
f 132 1154 1157
f 132 1157 131
f 131 1157 1156
f 131 1156 134
f 134 1156 1159
f 134 1159 133
f 133 1159 1158
f 133 1158 136
f 136 1158 1161
f 136 1161 135
f 135 1161 1160
f 135 1160 138
f 138 1160 1163
f 138 1163 137
f 137 1163 1162
f 137 1162 906
f 906 1162 1931
f 906 1931 140
f 140 1931 1164
f 140 1164 141
f 141 1164 1166
f 141 1166 139
f 139 1166 1165
f 139 1165 143
f 143 1165 1167
f 143 1167 144
f 144 1167 1169
f 144 1169 142
f 142 1169 1168
f 142 1168 146
f 146 1168 1171
f 146 1171 145
f 145 1171 1170
f 145 1170 1025
f 1025 1170 2050
f 1025 2050 1024
f 1024 2050 2049
f 1024 2049 148
f 148 2049 1172
f 148 1172 149
f 149 1172 1174
f 149 1174 147
f 147 1174 1173
f 147 1173 1023
f 1023 1173 2048
f 1023 2048 1022
f 1022 2048 2047
f 1022 2047 1021
f 1021 2047 2046
f 1021 2046 1020
f 1020 2046 2045
f 1020 2045 1019
f 1019 2045 2044
f 1019 2044 1018
f 1018 2044 2043
f 1018 2043 1016
f 1016 2043 2041
f 1016 2041 1011
f 1011 2041 2036
f 1011 2036 1007
f 1007 2036 2032
f 1007 2032 1004
f 1004 2032 2029
f 1004 2029 992
f 992 2029 2017
f 992 2017 968
f 968 2017 1993
f 968 1993 922
f 922 1993 1947
f 922 1947 151
f 151 1947 1175
f 151 1175 152
f 152 1175 1177
f 152 1177 150
f 150 1177 1176
f 150 1176 154
f 154 1176 1179
f 154 1179 153
f 153 1179 1178
f 153 1178 156
f 156 1178 1181
f 156 1181 155
f 155 1181 1180
f 155 1180 893
f 893 1180 1918
f 893 1918 907
f 907 1918 1932
f 907 1932 935
f 935 1932 1960
f 935 1960 945
f 945 1960 1970
f 945 1970 956
f 956 1970 1981
f 956 1981 975
f 975 1981 2000
f 975 2000 984
f 984 2000 2009
f 984 2009 993
f 993 2009 2018
f 993 2018 985
f 985 2018 2010
f 985 2010 976
f 976 2010 2001
f 976 2001 969
f 969 2001 1994
f 969 1994 957
f 957 1994 1982
f 957 1982 946
f 946 1982 1971
f 946 1971 923
f 923 1971 1948
f 923 1948 908
f 908 1948 1933
f 908 1933 158
f 158 1933 1182
f 158 1182 159
f 159 1182 1184
f 159 1184 157
f 157 1184 1183
f 157 1183 161
f 161 1183 1186
f 161 1186 160
f 160 1186 1185
f 160 1185 163
f 163 1185 1188
f 163 1188 162
f 162 1188 1187
f 162 1187 165
f 165 1187 1190
f 165 1190 164
f 164 1190 1189
f 164 1189 167
f 167 1189 1192
f 167 1192 166
f 166 1192 1191
f 166 1191 169
f 169 1191 1194
f 169 1194 168
f 168 1194 1193
f 168 1193 171
f 171 1193 1196
f 171 1196 170
f 170 1196 1195
f 170 1195 173
f 173 1195 1198
f 173 1198 172
f 172 1198 1197
f 172 1197 175
f 175 1197 1200
f 175 1200 174
f 174 1200 1199
f 174 1199 848
f 848 1199 1873
f 848 1873 880
f 880 1873 1905
f 880 1905 894
f 894 1905 1919
f 894 1919 924
f 924 1919 1949
f 924 1949 909
f 909 1949 1934
f 909 1934 895
f 895 1934 1920
f 895 1920 849
f 849 1920 1874
f 849 1874 177
f 177 1874 1201
f 177 1201 178
f 178 1201 1203
f 178 1203 176
f 176 1203 1202
f 176 1202 180
f 180 1202 1205
f 180 1205 179
f 179 1205 1204
f 179 1204 182
f 182 1204 1207
f 182 1207 181
f 181 1207 1206
f 181 1206 184
f 184 1206 1209
f 184 1209 183
f 183 1209 1208
f 183 1208 186
f 186 1208 1211
f 186 1211 185
f 185 1211 1210
f 185 1210 188
f 188 1210 1213
f 188 1213 187
f 187 1213 1212
f 187 1212 190
f 190 1212 1214
f 190 1214 191
f 191 1214 1216
f 191 1216 189
f 189 1216 1215
f 189 1215 193
f 193 1215 1218
f 193 1218 192
f 192 1218 1217
f 192 1217 195
f 195 1217 1220
f 195 1220 194
f 194 1220 1219
f 194 1219 197
f 197 1219 1222
f 197 1222 196
f 196 1222 1221
f 196 1221 199
f 199 1221 1224
f 199 1224 198
f 198 1224 1223
f 198 1223 850
f 850 1223 1875
f 850 1875 201
f 201 1875 1225
f 201 1225 202
f 202 1225 1227
f 202 1227 200
f 200 1227 1226
f 200 1226 204
f 204 1226 1229
f 204 1229 203
f 203 1229 1228
f 203 1228 206
f 206 1228 1230
f 206 1230 207
f 207 1230 1232
f 207 1232 205
f 205 1232 1231
f 205 1231 209
f 209 1231 1234
f 209 1234 208
f 208 1234 1233
f 208 1233 211
f 211 1233 1235
f 211 1235 212
f 212 1235 1237
f 212 1237 210
f 210 1237 1236
f 210 1236 214
f 214 1236 1239
f 214 1239 213
f 213 1239 1238
f 213 1238 216
f 216 1238 1240
f 216 1240 217
f 217 1240 1242
f 217 1242 215
f 215 1242 1241
f 215 1241 219
f 219 1241 1244
f 219 1244 218
f 218 1244 1243
f 218 1243 221
f 221 1243 1245
f 221 1245 222
f 222 1245 1247
f 222 1247 220
f 220 1247 1246
f 220 1246 224
f 224 1246 1248
f 224 1248 225
f 225 1248 1250
f 225 1250 223
f 223 1250 1249
f 223 1249 227
f 227 1249 1251
f 227 1251 228
f 228 1251 1253
f 228 1253 226
f 226 1253 1252
f 226 1252 230
f 230 1252 1254
f 230 1254 231
f 231 1254 1256
f 231 1256 229
f 229 1256 1255
f 229 1255 233
f 233 1255 1258
f 233 1258 232
f 232 1258 1257
f 232 1257 235
f 235 1257 1260
f 235 1260 234
f 234 1260 1259
f 234 1259 237
f 237 1259 1262
f 237 1262 236
f 236 1262 1261
f 236 1261 239
f 239 1261 1264
f 239 1264 238
f 238 1264 1263
f 238 1263 241
f 241 1263 1266
f 241 1266 240
f 240 1266 1265
f 240 1265 243
f 243 1265 1268
f 243 1268 242
f 242 1268 1267
f 242 1267 245
f 245 1267 1270
f 245 1270 244
f 244 1270 1269
f 244 1269 247
f 247 1269 1272
f 247 1272 246
f 246 1272 1271
f 246 1271 249
f 249 1271 1274
f 249 1274 248
f 248 1274 1273
f 248 1273 251
f 251 1273 1276
f 251 1276 250
f 250 1276 1275
f 250 1275 881
f 881 1275 1906
f 881 1906 253
f 253 1906 1277
f 253 1277 254
f 254 1277 1279
f 254 1279 252
f 252 1279 1278
f 252 1278 851
f 851 1278 1876
f 851 1876 256
f 256 1876 1280
f 256 1280 257
f 257 1280 1282
f 257 1282 255
f 255 1282 1281
f 255 1281 259
f 259 1281 1284
f 259 1284 258
f 258 1284 1283
f 258 1283 261
f 261 1283 1286
f 261 1286 260
f 260 1286 1285
f 260 1285 263
f 263 1285 1288
f 263 1288 262
f 262 1288 1287
f 262 1287 265
f 265 1287 1289
f 265 1289 266
f 266 1289 1291
f 266 1291 264
f 264 1291 1290
f 264 1290 268
f 268 1290 1292
f 268 1292 269
f 269 1292 1294
f 269 1294 267
f 267 1294 1293
f 267 1293 271
f 271 1293 1296
f 271 1296 270
f 270 1296 1295
f 270 1295 852
f 852 1295 1877
f 852 1877 273
f 273 1877 1297
f 273 1297 274
f 274 1297 1299
f 274 1299 272
f 272 1299 1298
f 272 1298 276
f 276 1298 1301
f 276 1301 275
f 275 1301 1300
f 275 1300 278
f 278 1300 1303
f 278 1303 277
f 277 1303 1302
f 277 1302 280
f 280 1302 1304
f 280 1304 281
f 281 1304 1306
f 281 1306 279
f 279 1306 1305
f 279 1305 283
f 283 1305 1308
f 283 1308 282
f 282 1308 1307
f 282 1307 285
f 285 1307 1309
f 285 1309 286
f 286 1309 1311
f 286 1311 284
f 284 1311 1310
f 284 1310 288
f 288 1310 1313
f 288 1313 287
f 287 1313 1312
f 287 1312 290
f 290 1312 1315
f 290 1315 289
f 289 1315 1314
f 289 1314 292
f 292 1314 1317
f 292 1317 291
f 291 1317 1316
f 291 1316 294
f 294 1316 1319
f 294 1319 293
f 293 1319 1318
f 293 1318 853
f 853 1318 1878
f 853 1878 882
f 882 1878 1907
f 882 1907 854
f 854 1907 1879
f 854 1879 296
f 296 1879 1320
f 296 1320 297
f 297 1320 1322
f 297 1322 295
f 295 1322 1321
f 295 1321 299
f 299 1321 1324
f 299 1324 298
f 298 1324 1323
f 298 1323 301
f 301 1323 1326
f 301 1326 300
f 300 1326 1325
f 300 1325 883
f 883 1325 1908
f 883 1908 925
f 925 1908 1950
f 925 1950 910
f 910 1950 1935
f 910 1935 884
f 884 1935 1909
f 884 1909 303
f 303 1909 1327
f 303 1327 304
f 304 1327 1329
f 304 1329 302
f 302 1329 1328
f 302 1328 306
f 306 1328 1331
f 306 1331 305
f 305 1331 1330
f 305 1330 308
f 308 1330 1333
f 308 1333 307
f 307 1333 1332
f 307 1332 310
f 310 1332 1335
f 310 1335 309
f 309 1335 1334
f 309 1334 312
f 312 1334 1337
f 312 1337 311
f 311 1337 1336
f 311 1336 314
f 314 1336 1339
f 314 1339 313
f 313 1339 1338
f 313 1338 316
f 316 1338 1341
f 316 1341 315
f 315 1341 1340
f 315 1340 318
f 318 1340 1343
f 318 1343 317
f 317 1343 1342
f 317 1342 320
f 320 1342 1345
f 320 1345 319
f 319 1345 1344
f 319 1344 322
f 322 1344 1347
f 322 1347 321
f 321 1347 1346
f 321 1346 324
f 324 1346 1349
f 324 1349 323
f 323 1349 1348
f 323 1348 326
f 326 1348 1351
f 326 1351 325
f 325 1351 1350
f 325 1350 328
f 328 1350 1353
f 328 1353 327
f 327 1353 1352
f 327 1352 330
f 330 1352 1355
f 330 1355 329
f 329 1355 1354
f 329 1354 332
f 332 1354 1357
f 332 1357 331
f 331 1357 1356
f 331 1356 334
f 334 1356 1359
f 334 1359 333
f 333 1359 1358
f 333 1358 855
f 855 1358 1880
f 855 1880 336
f 336 1880 1360
f 336 1360 337
f 337 1360 1362
f 337 1362 335
f 335 1362 1361
f 335 1361 339
f 339 1361 1364
f 339 1364 338
f 338 1364 1363
f 338 1363 341
f 341 1363 1366
f 341 1366 340
f 340 1366 1365
f 340 1365 343
f 343 1365 1368
f 343 1368 342
f 342 1368 1367
f 342 1367 345
f 345 1367 1370
f 345 1370 344
f 344 1370 1369
f 344 1369 347
f 347 1369 1372
f 347 1372 346
f 346 1372 1371
f 346 1371 349
f 349 1371 1374
f 349 1374 348
f 348 1374 1373
f 348 1373 911
f 911 1373 1936
f 911 1936 970
f 970 1936 1995
f 970 1995 977
f 977 1995 2002
f 977 2002 958
f 958 2002 1983
f 958 1983 926
f 926 1983 1951
f 926 1951 896
f 896 1951 1921
f 896 1921 856
f 856 1921 1881
f 856 1881 351
f 351 1881 1375
f 351 1375 352
f 352 1375 1377
f 352 1377 350
f 350 1377 1376
f 350 1376 354
f 354 1376 1379
f 354 1379 353
f 353 1379 1378
f 353 1378 356
f 356 1378 1381
f 356 1381 355
f 355 1381 1380
f 355 1380 358
f 358 1380 1383
f 358 1383 357
f 357 1383 1382
f 357 1382 360
f 360 1382 1385
f 360 1385 359
f 359 1385 1384
f 359 1384 885
f 885 1384 1910
f 885 1910 897
f 897 1910 1922
f 897 1922 936
f 936 1922 1961
f 936 1961 912
f 912 1961 1937
f 912 1937 898
f 898 1937 1923
f 898 1923 857
f 857 1923 1882
f 857 1882 362
f 362 1882 1386
f 362 1386 363
f 363 1386 1388
f 363 1388 361
f 361 1388 1387
f 361 1387 365
f 365 1387 1390
f 365 1390 364
f 364 1390 1389
f 364 1389 367
f 367 1389 1392
f 367 1392 366
f 366 1392 1391
f 366 1391 369
f 369 1391 1394
f 369 1394 368
f 368 1394 1393
f 368 1393 371
f 371 1393 1396
f 371 1396 370
f 370 1396 1395
f 370 1395 373
f 373 1395 1398
f 373 1398 372
f 372 1398 1397
f 372 1397 375
f 375 1397 1400
f 375 1400 374
f 374 1400 1399
f 374 1399 377
f 377 1399 1401
f 377 1401 378
f 378 1401 1403
f 378 1403 376
f 376 1403 1402
f 376 1402 380
f 380 1402 1405
f 380 1405 379
f 379 1405 1404
f 379 1404 382
f 382 1404 1407
f 382 1407 381
f 381 1407 1406
f 381 1406 384
f 384 1406 1409
f 384 1409 383
f 383 1409 1408
f 383 1408 386
f 386 1408 1411
f 386 1411 385
f 385 1411 1410
f 385 1410 388
f 388 1410 1413
f 388 1413 387
f 387 1413 1412
f 387 1412 390
f 390 1412 1415
f 390 1415 389
f 389 1415 1414
f 389 1414 392
f 392 1414 1417
f 392 1417 391
f 391 1417 1416
f 391 1416 394
f 394 1416 1419
f 394 1419 393
f 393 1419 1418
f 393 1418 396
f 396 1418 1421
f 396 1421 395
f 395 1421 1420
f 395 1420 398
f 398 1420 1423
f 398 1423 397
f 397 1423 1422
f 397 1422 400
f 400 1422 1425
f 400 1425 399
f 399 1425 1424
f 399 1424 402
f 402 1424 1427
f 402 1427 401
f 401 1427 1426
f 401 1426 404
f 404 1426 1429
f 404 1429 403
f 403 1429 1428
f 403 1428 406
f 406 1428 1431
f 406 1431 405
f 405 1431 1430
f 405 1430 408
f 408 1430 1433
f 408 1433 407
f 407 1433 1432
f 407 1432 410
f 410 1432 1435
f 410 1435 409
f 409 1435 1434
f 409 1434 412
f 412 1434 1437
f 412 1437 411
f 411 1437 1436
f 411 1436 414
f 414 1436 1439
f 414 1439 413
f 413 1439 1438
f 413 1438 416
f 416 1438 1441
f 416 1441 415
f 415 1441 1440
f 415 1440 418
f 418 1440 1443
f 418 1443 417
f 417 1443 1442
f 417 1442 420
f 420 1442 1445
f 420 1445 419
f 419 1445 1444
f 419 1444 422
f 422 1444 1447
f 422 1447 421
f 421 1447 1446
f 421 1446 424
f 424 1446 1449
f 424 1449 423
f 423 1449 1448
f 423 1448 426
f 426 1448 1451
f 426 1451 425
f 425 1451 1450
f 425 1450 428
f 428 1450 1453
f 428 1453 427
f 427 1453 1452
f 427 1452 858
f 858 1452 1883
f 858 1883 886
f 886 1883 1911
f 886 1911 899
f 899 1911 1924
f 899 1924 927
f 927 1924 1952
f 927 1952 937
f 937 1952 1962
f 937 1962 959
f 959 1962 1984
f 959 1984 971
f 971 1984 1996
f 971 1996 978
f 978 1996 2003
f 978 2003 986
f 986 2003 2011
f 986 2011 994
f 994 2011 2019
f 994 2019 1000
f 1000 2019 2025
f 1000 2025 1005
f 1005 2025 2030
f 1005 2030 1008
f 1008 2030 2033
f 1008 2033 1012
f 1012 2033 2037
f 1012 2037 1015
f 1015 2037 2040
f 1015 2040 430
f 430 2040 1454
f 430 1454 431
f 431 1454 1456
f 431 1456 429
f 429 1456 1455
f 429 1455 433
f 433 1455 1457
f 433 1457 434
f 434 1457 1459
f 434 1459 432
f 432 1459 1458
f 432 1458 436
f 436 1458 1461
f 436 1461 435
f 435 1461 1460
f 435 1460 438
f 438 1460 1462
f 438 1462 439
f 439 1462 1464
f 439 1464 437
f 437 1464 1463
f 437 1463 441
f 441 1463 1465
f 441 1465 442
f 442 1465 1467
f 442 1467 440
f 440 1467 1466
f 440 1466 444
f 444 1466 1469
f 444 1469 443
f 443 1469 1468
f 443 1468 928
f 928 1468 1953
f 928 1953 446
f 446 1953 1470
f 446 1470 447
f 447 1470 1472
f 447 1472 445
f 445 1472 1471
f 445 1471 449
f 449 1471 1473
f 449 1473 450
f 450 1473 1475
f 450 1475 448
f 448 1475 1474
f 448 1474 452
f 452 1474 1477
f 452 1477 451
f 451 1477 1476
f 451 1476 454
f 454 1476 1479
f 454 1479 453
f 453 1479 1478
f 453 1478 456
f 456 1478 1480
f 456 1480 457
f 457 1480 1482
f 457 1482 455
f 455 1482 1481
f 455 1481 459
f 459 1481 1483
f 459 1483 460
f 460 1483 1485
f 460 1485 458
f 458 1485 1484
f 458 1484 859
f 859 1484 1884
f 859 1884 1017
f 1017 1884 2042
f 1017 2042 1013
f 1013 2042 2038
f 1013 2038 1009
f 1009 2038 2034
f 1009 2034 1001
f 1001 2034 2026
f 1001 2026 960
f 960 2026 1985
f 960 1985 947
f 947 1985 1972
f 947 1972 938
f 938 1972 1963
f 938 1963 913
f 913 1963 1938
f 913 1938 887
f 887 1938 1912
f 887 1912 462
f 462 1912 1486
f 462 1486 463
f 463 1486 1488
f 463 1488 461
f 461 1488 1487
f 461 1487 465
f 465 1487 1490
f 465 1490 464
f 464 1490 1489
f 464 1489 467
f 467 1489 1492
f 467 1492 466
f 466 1492 1491
f 466 1491 469
f 469 1491 1493
f 469 1493 470
f 470 1493 1495
f 470 1495 468
f 468 1495 1494
f 468 1494 472
f 472 1494 1497
f 472 1497 471
f 471 1497 1496
f 471 1496 474
f 474 1496 1499
f 474 1499 473
f 473 1499 1498
f 473 1498 476
f 476 1498 1501
f 476 1501 475
f 475 1501 1500
f 475 1500 478
f 478 1500 1503
f 478 1503 477
f 477 1503 1502
f 477 1502 480
f 480 1502 1505
f 480 1505 479
f 479 1505 1504
f 479 1504 482
f 482 1504 1507
f 482 1507 481
f 481 1507 1506
f 481 1506 484
f 484 1506 1509
f 484 1509 483
f 483 1509 1508
f 483 1508 486
f 486 1508 1511
f 486 1511 485
f 485 1511 1510
f 485 1510 488
f 488 1510 1513
f 488 1513 487
f 487 1513 1512
f 487 1512 490
f 490 1512 1514
f 490 1514 491
f 491 1514 1516
f 491 1516 489
f 489 1516 1515
f 489 1515 493
f 493 1515 1518
f 493 1518 492
f 492 1518 1517
f 492 1517 495
f 495 1517 1520
f 495 1520 494
f 494 1520 1519
f 494 1519 987
f 987 1519 2012
f 987 2012 979
f 979 2012 2004
f 979 2004 497
f 497 2004 1521
f 497 1521 498
f 498 1521 1523
f 498 1523 496
f 496 1523 1522
f 496 1522 500
f 500 1522 1525
f 500 1525 499
f 499 1525 1524
f 499 1524 502
f 502 1524 1527
f 502 1527 501
f 501 1527 1526
f 501 1526 860
f 860 1526 1885
f 860 1885 504
f 504 1885 1528
f 504 1528 505
f 505 1528 1530
f 505 1530 503
f 503 1530 1529
f 503 1529 507
f 507 1529 1532
f 507 1532 506
f 506 1532 1531
f 506 1531 861
f 861 1531 1886
f 861 1886 509
f 509 1886 1533
f 509 1533 510
f 510 1533 1535
f 510 1535 508
f 508 1535 1534
f 508 1534 512
f 512 1534 1537
f 512 1537 511
f 511 1537 1536
f 511 1536 514
f 514 1536 1539
f 514 1539 513
f 513 1539 1538
f 513 1538 516
f 516 1538 1540
f 516 1540 517
f 517 1540 1542
f 517 1542 515
f 515 1542 1541
f 515 1541 519
f 519 1541 1543
f 519 1543 520
f 520 1543 1545
f 520 1545 518
f 518 1545 1544
f 518 1544 862
f 862 1544 1887
f 862 1887 522
f 522 1887 1546
f 522 1546 523
f 523 1546 1548
f 523 1548 521
f 521 1548 1547
f 521 1547 525
f 525 1547 1550
f 525 1550 524
f 524 1550 1549
f 524 1549 527
f 527 1549 1552
f 527 1552 526
f 526 1552 1551
f 526 1551 529
f 529 1551 1554
f 529 1554 528
f 528 1554 1553
f 528 1553 531
f 531 1553 1556
f 531 1556 530
f 530 1556 1555
f 530 1555 533
f 533 1555 1558
f 533 1558 532
f 532 1558 1557
f 532 1557 535
f 535 1557 1560
f 535 1560 534
f 534 1560 1559
f 534 1559 537
f 537 1559 1562
f 537 1562 536
f 536 1562 1561
f 536 1561 539
f 539 1561 1564
f 539 1564 538
f 538 1564 1563
f 538 1563 541
f 541 1563 1565
f 541 1565 542
f 542 1565 1567
f 542 1567 540
f 540 1567 1566
f 540 1566 544
f 544 1566 1569
f 544 1569 543
f 543 1569 1568
f 543 1568 546
f 546 1568 1570
f 546 1570 547
f 547 1570 1572
f 547 1572 545
f 545 1572 1571
f 545 1571 863
f 863 1571 1888
f 863 1888 549
f 549 1888 1573
f 549 1573 550
f 550 1573 1575
f 550 1575 548
f 548 1575 1574
f 548 1574 552
f 552 1574 1577
f 552 1577 551
f 551 1577 1576
f 551 1576 554
f 554 1576 1579
f 554 1579 553
f 553 1579 1578
f 553 1578 556
f 556 1578 1581
f 556 1581 555
f 555 1581 1580
f 555 1580 558
f 558 1580 1583
f 558 1583 557
f 557 1583 1582
f 557 1582 560
f 560 1582 1585
f 560 1585 559
f 559 1585 1584
f 559 1584 562
f 562 1584 1586
f 562 1586 563
f 563 1586 1588
f 563 1588 561
f 561 1588 1587
f 561 1587 565
f 565 1587 1590
f 565 1590 564
f 564 1590 1589
f 564 1589 567
f 567 1589 1592
f 567 1592 566
f 566 1592 1591
f 566 1591 569
f 569 1591 1593
f 569 1593 570
f 570 1593 1595
f 570 1595 568
f 568 1595 1594
f 568 1594 572
f 572 1594 1597
f 572 1597 571
f 571 1597 1596
f 571 1596 574
f 574 1596 1598
f 574 1598 575
f 575 1598 1600
f 575 1600 573
f 573 1600 1599
f 573 1599 577
f 577 1599 1602
f 577 1602 576
f 576 1602 1601
f 576 1601 579
f 579 1601 1604
f 579 1604 578
f 578 1604 1603
f 578 1603 581
f 581 1603 1606
f 581 1606 580
f 580 1606 1605
f 580 1605 583
f 583 1605 1608
f 583 1608 582
f 582 1608 1607
f 582 1607 585
f 585 1607 1610
f 585 1610 584
f 584 1610 1609
f 584 1609 587
f 587 1609 1612
f 587 1612 586
f 586 1612 1611
f 586 1611 589
f 589 1611 1614
f 589 1614 588
f 588 1614 1613
f 588 1613 591
f 591 1613 1616
f 591 1616 590
f 590 1616 1615
f 590 1615 593
f 593 1615 1618
f 593 1618 592
f 592 1618 1617
f 592 1617 595
f 595 1617 1620
f 595 1620 594
f 594 1620 1619
f 594 1619 597
f 597 1619 1622
f 597 1622 596
f 596 1622 1621
f 596 1621 599
f 599 1621 1624
f 599 1624 598
f 598 1624 1623
f 598 1623 601
f 601 1623 1626
f 601 1626 600
f 600 1626 1625
f 600 1625 603
f 603 1625 1628
f 603 1628 602
f 602 1628 1627
f 602 1627 605
f 605 1627 1630
f 605 1630 604
f 604 1630 1629
f 604 1629 607
f 607 1629 1632
f 607 1632 606
f 606 1632 1631
f 606 1631 609
f 609 1631 1634
f 609 1634 608
f 608 1634 1633
f 608 1633 611
f 611 1633 1636
f 611 1636 610
f 610 1636 1635
f 610 1635 613
f 613 1635 1638
f 613 1638 612
f 612 1638 1637
f 612 1637 615
f 615 1637 1640
f 615 1640 614
f 614 1640 1639
f 614 1639 617
f 617 1639 1642
f 617 1642 616
f 616 1642 1641
f 616 1641 619
f 619 1641 1644
f 619 1644 618
f 618 1644 1643
f 618 1643 621
f 621 1643 1646
f 621 1646 620
f 620 1646 1645
f 620 1645 623
f 623 1645 1647
f 623 1647 624
f 624 1647 1649
f 624 1649 622
f 622 1649 1648
f 622 1648 626
f 626 1648 1651
f 626 1651 625
f 625 1651 1650
f 625 1650 628
f 628 1650 1653
f 628 1653 627
f 627 1653 1652
f 627 1652 630
f 630 1652 1655
f 630 1655 629
f 629 1655 1654
f 629 1654 632
f 632 1654 1657
f 632 1657 631
f 631 1657 1656
f 631 1656 634
f 634 1656 1659
f 634 1659 633
f 633 1659 1658
f 633 1658 636
f 636 1658 1661
f 636 1661 635
f 635 1661 1660
f 635 1660 638
f 638 1660 1663
f 638 1663 637
f 637 1663 1662
f 637 1662 640
f 640 1662 1665
f 640 1665 639
f 639 1665 1664
f 639 1664 864
f 864 1664 1889
f 864 1889 642
f 642 1889 1666
f 642 1666 643
f 643 1666 1668
f 643 1668 641
f 641 1668 1667
f 641 1667 645
f 645 1667 1669
f 645 1669 646
f 646 1669 1671
f 646 1671 644
f 644 1671 1670
f 644 1670 648
f 648 1670 1673
f 648 1673 647
f 647 1673 1672
f 647 1672 650
f 650 1672 1674
f 650 1674 651
f 651 1674 1676
f 651 1676 649
f 649 1676 1675
f 649 1675 865
f 865 1675 1890
f 865 1890 948
f 948 1890 1973
f 948 1973 961
f 961 1973 1986
f 961 1986 653
f 653 1986 1677
f 653 1677 654
f 654 1677 1679
f 654 1679 652
f 652 1679 1678
f 652 1678 988
f 988 1678 2013
f 988 2013 995
f 995 2013 2020
f 995 2020 997
f 997 2020 2022
f 997 2022 1002
f 1002 2022 2027
f 1002 2027 998
f 998 2027 2023
f 998 2023 996
f 996 2023 2021
f 996 2021 989
f 989 2021 2014
f 989 2014 980
f 980 2014 2005
f 980 2005 972
f 972 2005 1997
f 972 1997 962
f 962 1997 1987
f 962 1987 949
f 949 1987 1974
f 949 1974 929
f 929 1974 1954
f 929 1954 866
f 866 1954 1891
f 866 1891 656
f 656 1891 1680
f 656 1680 657
f 657 1680 1682
f 657 1682 655
f 655 1682 1681
f 655 1681 659
f 659 1681 1683
f 659 1683 660
f 660 1683 1685
f 660 1685 658
f 658 1685 1684
f 658 1684 662
f 662 1684 1687
f 662 1687 661
f 661 1687 1686
f 661 1686 664
f 664 1686 1688
f 664 1688 665
f 665 1688 1690
f 665 1690 663
f 663 1690 1689
f 663 1689 667
f 667 1689 1691
f 667 1691 668
f 668 1691 1693
f 668 1693 666
f 666 1693 1692
f 666 1692 670
f 670 1692 1695
f 670 1695 669
f 669 1695 1694
f 669 1694 672
f 672 1694 1697
f 672 1697 671
f 671 1697 1696
f 671 1696 674
f 674 1696 1699
f 674 1699 673
f 673 1699 1698
f 673 1698 676
f 676 1698 1701
f 676 1701 675
f 675 1701 1700
f 675 1700 678
f 678 1700 1703
f 678 1703 677
f 677 1703 1702
f 677 1702 680
f 680 1702 1705
f 680 1705 679
f 679 1705 1704
f 679 1704 682
f 682 1704 1707
f 682 1707 681
f 681 1707 1706
f 681 1706 684
f 684 1706 1709
f 684 1709 683
f 683 1709 1708
f 683 1708 686
f 686 1708 1711
f 686 1711 685
f 685 1711 1710
f 685 1710 688
f 688 1710 1712
f 688 1712 689
f 689 1712 1714
f 689 1714 687
f 687 1714 1713
f 687 1713 691
f 691 1713 1715
f 691 1715 692
f 692 1715 1717
f 692 1717 690
f 690 1717 1716
f 690 1716 694
f 694 1716 1719
f 694 1719 693
f 693 1719 1718
f 693 1718 696
f 696 1718 1720
f 696 1720 697
f 697 1720 1722
f 697 1722 695
f 695 1722 1721
f 695 1721 699
f 699 1721 1723
f 699 1723 700
f 700 1723 1725
f 700 1725 698
f 698 1725 1724
f 698 1724 702
f 702 1724 1727
f 702 1727 701
f 701 1727 1726
f 701 1726 704
f 704 1726 1728
f 704 1728 705
f 705 1728 1730
f 705 1730 703
f 703 1730 1729
f 703 1729 867
f 867 1729 1892
f 867 1892 707
f 707 1892 1731
f 707 1731 708
f 708 1731 1733
f 708 1733 706
f 706 1733 1732
f 706 1732 710
f 710 1732 1735
f 710 1735 709
f 709 1735 1734
f 709 1734 914
f 914 1734 1939
f 914 1939 939
f 939 1939 1964
f 939 1964 915
f 915 1964 1940
f 915 1940 900
f 900 1940 1925
f 900 1925 888
f 888 1925 1913
f 888 1913 868
f 868 1913 1893
f 868 1893 712
f 712 1893 1736
f 712 1736 713
f 713 1736 1738
f 713 1738 711
f 711 1738 1737
f 711 1737 715
f 715 1737 1740
f 715 1740 714
f 714 1740 1739
f 714 1739 717
f 717 1739 1742
f 717 1742 716
f 716 1742 1741
f 716 1741 719
f 719 1741 1744
f 719 1744 718
f 718 1744 1743
f 718 1743 721
f 721 1743 1746
f 721 1746 720
f 720 1746 1745
f 720 1745 723
f 723 1745 1748
f 723 1748 722
f 722 1748 1747
f 722 1747 916
f 916 1747 1941
f 916 1941 963
f 963 1941 1988
f 963 1988 950
f 950 1988 1975
f 950 1975 940
f 940 1975 1965
f 940 1965 930
f 930 1965 1955
f 930 1955 901
f 901 1955 1926
f 901 1926 869
f 869 1926 1894
f 869 1894 725
f 725 1894 1749
f 725 1749 726
f 726 1749 1751
f 726 1751 724
f 724 1751 1750
f 724 1750 728
f 728 1750 1753
f 728 1753 727
f 727 1753 1752
f 727 1752 730
f 730 1752 1755
f 730 1755 729
f 729 1755 1754
f 729 1754 732
f 732 1754 1757
f 732 1757 731
f 731 1757 1756
f 731 1756 734
f 734 1756 1759
f 734 1759 733
f 733 1759 1758
f 733 1758 736
f 736 1758 1761
f 736 1761 735
f 735 1761 1760
f 735 1760 738
f 738 1760 1763
f 738 1763 737
f 737 1763 1762
f 737 1762 740
f 740 1762 1765
f 740 1765 739
f 739 1765 1764
f 739 1764 742
f 742 1764 1767
f 742 1767 741
f 741 1767 1766
f 741 1766 744
f 744 1766 1769
f 744 1769 743
f 743 1769 1768
f 743 1768 746
f 746 1768 1771
f 746 1771 745
f 745 1771 1770
f 745 1770 748
f 748 1770 1773
f 748 1773 747
f 747 1773 1772
f 747 1772 750
f 750 1772 1775
f 750 1775 749
f 749 1775 1774
f 749 1774 752
f 752 1774 1777
f 752 1777 751
f 751 1777 1776
f 751 1776 754
f 754 1776 1779
f 754 1779 753
f 753 1779 1778
f 753 1778 902
f 902 1778 1927
f 902 1927 917
f 917 1927 1942
f 917 1942 931
f 931 1942 1956
f 931 1956 941
f 941 1956 1966
f 941 1966 951
f 951 1966 1976
f 951 1976 981
f 981 1976 2006
f 981 2006 964
f 964 2006 1989
f 964 1989 952
f 952 1989 1977
f 952 1977 942
f 942 1977 1967
f 942 1967 932
f 932 1967 1957
f 932 1957 918
f 918 1957 1943
f 918 1943 889
f 889 1943 1914
f 889 1914 756
f 756 1914 1780
f 756 1780 757
f 757 1780 1782
f 757 1782 755
f 755 1782 1781
f 755 1781 759
f 759 1781 1784
f 759 1784 758
f 758 1784 1783
f 758 1783 761
f 761 1783 1786
f 761 1786 760
f 760 1786 1785
f 760 1785 763
f 763 1785 1788
f 763 1788 762
f 762 1788 1787
f 762 1787 765
f 765 1787 1790
f 765 1790 764
f 764 1790 1789
f 764 1789 767
f 767 1789 1792
f 767 1792 766
f 766 1792 1791
f 766 1791 769
f 769 1791 1794
f 769 1794 768
f 768 1794 1793
f 768 1793 771
f 771 1793 1796
f 771 1796 770
f 770 1796 1795
f 770 1795 773
f 773 1795 1798
f 773 1798 772
f 772 1798 1797
f 772 1797 775
f 775 1797 1800
f 775 1800 774
f 774 1800 1799
f 774 1799 870
f 870 1799 1895
f 870 1895 777
f 777 1895 1801
f 777 1801 778
f 778 1801 1803
f 778 1803 776
f 776 1803 1802
f 776 1802 780
f 780 1802 1805
f 780 1805 779
f 779 1805 1804
f 779 1804 782
f 782 1804 1807
f 782 1807 781
f 781 1807 1806
f 781 1806 784
f 784 1806 1808
f 784 1808 785
f 785 1808 1810
f 785 1810 783
f 783 1810 1809
f 783 1809 871
f 871 1809 1896
f 871 1896 787
f 787 1896 1811
f 787 1811 788
f 788 1811 1813
f 788 1813 786
f 786 1813 1812
f 786 1812 790
f 790 1812 1815
f 790 1815 789
f 789 1815 1814
f 789 1814 792
f 792 1814 1816
f 792 1816 793
f 793 1816 1818
f 793 1818 791
f 791 1818 1817
f 791 1817 795
f 795 1817 1820
f 795 1820 794
f 794 1820 1819
f 794 1819 797
f 797 1819 1822
f 797 1822 796
f 796 1822 1821
f 796 1821 799
f 799 1821 1824
f 799 1824 798
f 798 1824 1823
f 798 1823 801
f 801 1823 1826
f 801 1826 800
f 800 1826 1825
f 800 1825 803
f 803 1825 1827
f 803 1827 804
f 804 1827 1829
f 804 1829 802
f 802 1829 1828
f 802 1828 806
f 806 1828 1830
f 806 1830 807
f 807 1830 1832
f 807 1832 805
f 805 1832 1831
f 805 1831 872
f 872 1831 1897
f 872 1897 809
f 809 1897 1833
f 809 1833 810
f 810 1833 1835
f 810 1835 808
f 808 1835 1834
f 808 1834 812
f 812 1834 1837
f 812 1837 811
f 811 1837 1836
f 811 1836 1014
f 1014 1836 2039
f 1014 2039 1010
f 1010 2039 2035
f 1010 2035 1006
f 1006 2035 2031
f 1006 2031 1003
f 1003 2031 2028
f 1003 2028 999
f 999 2028 2024
f 999 2024 990
f 990 2024 2015
f 990 2015 982
f 982 2015 2007
f 982 2007 973
f 973 2007 1998
f 973 1998 953
f 953 1998 1978
f 953 1978 943
f 943 1978 1968
f 943 1968 933
f 933 1968 1958
f 933 1958 919
f 919 1958 1944
f 919 1944 903
f 903 1944 1928
f 903 1928 890
f 890 1928 1915
f 890 1915 873
f 873 1915 1898
f 873 1898 814
f 814 1898 1838
f 814 1838 815
f 815 1838 1840
f 815 1840 813
f 813 1840 1839
f 813 1839 817
f 817 1839 1841
f 817 1841 818
f 818 1841 1843
f 818 1843 816
f 816 1843 1842
f 816 1842 820
f 820 1842 1845
f 820 1845 819
f 819 1845 1844
f 819 1844 822
f 822 1844 1847
f 822 1847 821
f 821 1847 1846
f 821 1846 934
f 934 1846 1959
f 934 1959 824
f 824 1959 1848
f 824 1848 825
f 825 1848 1850
f 825 1850 823
f 823 1850 1849
f 823 1849 827
f 827 1849 1851
f 827 1851 828
f 828 1851 1853
f 828 1853 826
f 826 1853 1852
f 826 1852 830
f 830 1852 1855
f 830 1855 829
f 829 1855 1854
f 829 1854 874
f 874 1854 1899
f 874 1899 965
f 965 1899 1990
f 965 1990 983
f 983 1990 2008
f 983 2008 991
f 991 2008 2016
f 991 2016 832
f 832 2016 1856
f 832 1856 833
f 833 1856 1858
f 833 1858 831
f 831 1858 1857
f 831 1857 875
f 875 1857 1900
f 875 1900 835
f 835 1900 1859
f 835 1859 836
f 836 1859 1861
f 836 1861 834
f 834 1861 1860
f 834 1860 838
f 838 1860 1863
f 838 1863 837
f 837 1863 1862
f 837 1862 840
f 840 1862 1864
f 840 1864 841
f 841 1864 1866
f 841 1866 839
f 839 1866 1865
f 839 1865 2
f 2 1865 1026
f 2 1026 3
f 3 1026 1028
