<svg data-authored="svg-authoring traced" xmlns="http://www.w3.org/2000/svg" id="root" viewBox="133 36 195 356">
  <path fill-rule="evenodd" d="M 285.540 38.500 C 287.278 46.711, 287.989 53.285, 287.994 61.183 L 288 69.865 285.931 70.522 L 283.862 71.179 281.935 74.339 L 280.007 77.500 280.008 80 C 280.008 81.375, 278.398 90.600, 276.431 100.500 L 272.855 118.500 265.224 132 L 257.592 145.500 256.896 143 C 256.513 141.625, 256.145 138.700, 256.078 136.500 L 255.956 132.500 254.087 128.384 L 252.218 124.268 248.537 121.460 L 244.856 118.653 239.488 118.207 L 234.119 117.762 229.685 120.241 L 225.250 122.719 223.739 121.874 L 222.228 121.028 215.005 134.198 L 207.781 147.367 209.582 148.683 L 211.382 150 209.191 150 L 207 150 207 151.826 L 207 153.651 188.250 162.244 C 177.938 166.969, 167.925 171.490, 166 172.289 C 161.164 174.297, 159.618 176.254, 148.454 194.500 C 143.070 203.300, 137.830 211.440, 136.809 212.590 C 135.788 213.739, 134.587 215.989, 134.140 217.590 L 133.328 220.500 134.176 223.687 L 135.025 226.874 137.647 228.937 L 140.270 231 144.412 231 L 148.555 231 150.819 229.414 C 152.064 228.542, 154.246 225.986, 155.668 223.734 C 157.089 221.482, 162.463 214.340, 167.609 207.863 L 176.965 196.087 181.232 194.963 C 183.580 194.346, 189.213 192.806, 193.750 191.543 L 202 189.245 202 190.948 L 202 192.651 204.314 194.826 C 205.587 196.022, 207.321 197, 208.166 197 L 209.704 197 210.346 205.250 C 210.699 209.787, 210.991 219.451, 210.994 226.725 L 211 239.950 208.199 239.390 L 205.398 238.830 198.537 260.665 C 194.763 272.674, 189.565 289.033, 186.986 297.018 L 182.297 311.536 181.595 324.518 C 181.209 331.658, 180.662 338.288, 180.379 339.250 L 179.865 341 177.433 341 L 175 341 175 343.500 L 175 346 175.757 346 L 176.514 346 175.423 361.195 L 174.332 376.389 173.416 376.705 C 172.912 376.878, 169.749 378.765, 166.386 380.898 L 160.273 384.777 159.588 387.506 C 159.211 389.008, 159.037 390.365, 159.201 390.524 C 159.546 390.855, 187.005 391.273, 197.750 391.110 L 205 391 204.986 384.750 L 204.972 378.500 207.635 365.500 L 210.298 352.500 211.649 351.390 L 213 350.280 213 348.046 L 213 345.813 211 345.290 L 209 344.767 209 343.521 C 209 342.836, 210.125 336.751, 211.500 330 C 212.875 323.249, 214 317.590, 214 317.424 C 214 317.259, 215.364 315.633, 217.031 313.812 C 218.699 311.990, 224.436 304.784, 229.781 297.798 C 235.127 290.812, 239.725 285.099, 240 285.102 C 240.275 285.104, 245.450 291.592, 251.500 299.518 L 262.500 313.930 264.667 313.965 L 266.835 314 268.402 318.250 C 269.669 321.683, 276 343.644, 276 344.604 C 276 344.745, 274.988 345.005, 273.750 345.180 L 271.500 345.500 271.849 347.962 C 272.041 349.316, 272.794 350.891, 273.523 351.462 L 274.849 352.500 278.424 365.598 L 282 378.696 282 383.848 L 282 389 288.250 389.159 C 295.292 389.339, 327.382 388.872, 327.717 388.585 C 327.836 388.483, 327.599 387.148, 327.190 385.618 L 326.446 382.836 319.473 378.593 L 312.500 374.350 310.236 358.993 L 307.972 343.635 308.948 343.032 L 309.925 342.428 309.346 340.214 L 308.767 338 306.451 338 L 304.135 338 303.618 336.250 C 303.334 335.288, 302.370 329.100, 301.477 322.500 L 299.853 310.500 287.328 275 C 280.439 255.475, 274.446 239.121, 274.009 238.657 L 273.215 237.815 270.944 239.030 L 268.674 240.245 269.343 215.729 L 270.011 191.214 272.339 185.022 L 274.666 178.831 277.281 176.060 L 279.896 173.290 288.556 150.395 L 297.216 127.500 299.041 108 C 300.045 97.275, 301.186 85.688, 301.576 82.252 L 302.284 76.004 298.786 72.705 L 295.288 69.406 294.552 64.497 C 293.485 57.380, 289.284 43.414, 286.932 39.163 L 284.906 35.500 285.540 38.500 M 219.990 149.512 C 218.386 151.445, 218.862 151.836, 221.883 151.070 L 224.265 150.465 222.765 149.220 L 221.265 147.975 219.990 149.512"/>
</svg>
