<svg data-authored="svg-authoring derived-monochrome-ink" id="root" xmlns="http://www.w3.org/2000/svg" viewBox="0 0 187.9 150.7">
  <path d="M79.625 13.33L80.308 13.431L81.058 13.616L81.462 13.745L81.888 13.9L82.335 14.083L82.806 14.296L83.301 14.541L83.823 14.819L84.373 15.132L84.951 15.482L85.56 15.871L86.2 16.3L86.68 16.629L87.128 16.906L87.546 17.133L87.935 17.312L88.298 17.447L88.635 17.54L88.95 17.593L89.244 17.609L89.518 17.591L89.775 17.542L90.016 17.463L90.243 17.358L90.663 17.079L91.05 16.725L91.418 16.317L91.782 15.876L92.157 15.423L92.556 14.978L92.996 14.563L93.49 14.197L94.053 13.903L94.365 13.789L94.7 13.7L95.344 13.574L95.932 13.495L96.47 13.464L96.964 13.483L97.421 13.551L97.848 13.67L98.251 13.84L98.638 14.063L99.013 14.337L99.385 14.666L99.759 15.048L100.142 15.486L100.541 15.979L100.963 16.529L101.414 17.135L101.9 17.8L102.144 18.138L102.389 18.441L102.635 18.71L102.881 18.947L103.127 19.151L103.372 19.325L103.859 19.586L104.341 19.738L104.814 19.792L105.277 19.755L105.725 19.638L106.157 19.449L106.57 19.197L106.961 18.893L107.328 18.545L107.668 18.163L107.979 17.755L108.257 17.331L108.5 16.9L108.757 16.531L109.073 16.243L109.442 16.029L109.858 15.881L110.314 15.792L110.804 15.754L111.323 15.759L111.863 15.8L112.981 15.959L114.111 16.169L115.201 16.37L115.715 16.447L116.2 16.5L116.679 16.497L117.212 16.456L117.796 16.38L118.427 16.277L119.1 16.15L119.812 16.006L120.559 15.85L121.338 15.688L122.971 15.364L124.68 15.08L126.433 14.877L127.317 14.82L128.2 14.8L128.663 14.81L129.169 14.841L129.715 14.891L130.296 14.959L130.911 15.045L131.554 15.148L132.916 15.4L134.353 15.708L135.839 16.066L137.348 16.465L138.85 16.9L140.32 17.363L141.729 17.847L143.052 18.345L143.672 18.597L144.259 18.85L144.812 19.103L145.325 19.355L145.797 19.605L146.222 19.853L146.599 20.097L146.923 20.337L147.191 20.572L147.4 20.8L147.696 21.28L147.913 21.815L148.055 22.397L148.128 23.017L148.137 23.667L148.086 24.338L147.98 25.023L147.825 25.713L147.625 26.398L147.386 27.072L147.113 27.726L146.809 28.352L146.481 28.94L146.134 29.483L145.772 29.972L145.4 30.4L145.067 30.827L144.778 31.281L144.53 31.757L144.322 32.252L144.15 32.761L144.011 33.281L143.825 34.338L143.742 35.389L143.741 36.405L143.8 37.352L143.847 37.791L143.9 38.2L143.992 38.576L144.157 38.919L144.392 39.23L144.698 39.509L145.074 39.76L145.519 39.982L146.032 40.179L146.613 40.35L147.26 40.498L147.973 40.624L148.752 40.729L149.595 40.816L150.503 40.884L151.473 40.937L152.506 40.975L153.6 41L154.149 41.034L154.67 41.081L155.633 41.211L156.49 41.384L157.244 41.598L157.897 41.849L158.452 42.134L158.91 42.448L159.275 42.788L159.548 43.15L159.733 43.53L159.83 43.926L159.844 44.333L159.775 44.747L159.627 45.166L159.401 45.585L159.1 46L158.957 46.204L158.845 46.403L158.712 46.787L158.69 47.152L158.77 47.497L158.942 47.822L159.197 48.127L159.523 48.411L159.913 48.675L160.354 48.918L160.839 49.139L161.357 49.338L161.898 49.516L163.012 49.804L163.564 49.913L164.1 50L164.633 50.068L165.145 50.194L165.634 50.377L166.102 50.616L166.546 50.906L166.967 51.248L167.364 51.638L167.738 52.075L168.086 52.556L168.41 53.08L168.708 53.644L168.98 54.247L169.225 54.886L169.444 55.559L169.636 56.264L169.8 57L169.886 57.767L169.887 58.529L169.813 59.288L169.673 60.044L169.477 60.797L169.232 61.549L168.949 62.3L168.638 63.05L167.963 64.551L167.283 66.056L166.671 67.571L166.413 68.333L166.2 69.1L165.97 69.84L165.664 70.522L165.293 71.149L164.872 71.72L164.412 72.239L163.925 72.705L163.426 73.121L162.925 73.488L162.436 73.806L161.971 74.078L161.544 74.304L161.166 74.486L160.85 74.625L160.608 74.723L160.454 74.781L160.4 74.8L160.371 74.815L160.285 74.857L160.146 74.926L159.957 75.019L159.721 75.134L159.442 75.27L159.122 75.424L158.766 75.595L158.375 75.781L157.955 75.98L157.036 76.408L156.034 76.866L154.975 77.338L152.793 78.262L151.721 78.685L150.697 79.061L149.747 79.376L149.307 79.505L148.896 79.614L148.517 79.7L148.172 79.76L147.865 79.794L147.6 79.8L147.088 79.706L146.566 79.51L146.036 79.227L145.5 78.87L144.959 78.456L144.415 77.998L143.325 77.013L142.245 76.031L141.712 75.58L141.188 75.173L140.672 74.828L140.168 74.557L139.677 74.376L139.2 74.3L138.742 74.277L138.304 74.285L137.88 74.326L137.467 74.403L137.061 74.519L136.656 74.676L136.25 74.877L135.837 75.125L135.414 75.422L134.976 75.771L134.519 76.174L134.039 76.634L133.531 77.155L132.992 77.737L132.416 78.385L131.8 79.1L131.475 79.459L131.155 79.768L130.84 80.03L130.532 80.247L130.23 80.42L129.935 80.553L129.646 80.646L129.364 80.702L129.089 80.722L128.822 80.71L128.562 80.668L128.311 80.596L127.832 80.374L127.387 80.063L126.979 79.677L126.61 79.234L126.28 78.75L125.992 78.242L125.748 77.727L125.551 77.22L125.4 76.739L125.3 76.3L125.18 75.909L125.008 75.561L124.789 75.252L124.523 74.981L124.215 74.745L123.867 74.542L123.482 74.37L123.062 74.225L122.611 74.106L122.131 74.011L121.625 73.937L121.095 73.881L119.978 73.817L118.8 73.8L118.245 73.814L117.705 73.854L117.184 73.917L116.681 74.003L115.741 74.232L115.308 74.372L114.9 74.525L114.521 74.69L114.171 74.864L113.853 75.047L113.569 75.234L113.319 75.426L113.107 75.618L112.933 75.81L112.8 76L112.617 76.186L112.338 76.369L111.969 76.547L111.52 76.72L110.999 76.887L110.415 77.046L109.775 77.196L109.087 77.338L108.362 77.468L107.606 77.587L106.036 77.786L104.445 77.926L102.9 78L102.8 78L102.3 97.8L105 100.3L106.635 100.34L108.24 100.385L109.812 100.436L111.351 100.491L112.855 100.551L114.323 100.615L115.753 100.684L117.144 100.758L118.494 100.836L119.803 100.917L121.069 101.003L122.29 101.093L123.465 101.186L124.592 101.283L125.671 101.384L126.7 101.488L127.677 101.595L128.601 101.705L129.471 101.818L130.285 101.934L131.042 102.052L131.741 102.174L132.379 102.297L132.956 102.423L133.471 102.552L133.921 102.682L134.306 102.814L134.624 102.948L134.874 103.084L135.054 103.221L135.163 103.36L135.2 103.5L135.162 103.648L135.047 103.792L134.858 103.931L134.596 104.066L134.261 104.197L133.857 104.323L133.383 104.444L132.841 104.561L132.232 104.673L131.559 104.78L130.821 104.882L130.021 104.978L129.161 105.07L128.24 105.156L127.261 105.237L126.225 105.313L125.133 105.382L123.987 105.447L122.788 105.505L121.538 105.558L120.237 105.604L118.887 105.645L117.49 105.679L116.047 105.708L114.559 105.73L113.027 105.745L111.453 105.755L109.839 105.757L108.185 105.753L106.493 105.742L104.764 105.725L103 105.7L98.7 108.9L98.9 117.9L105.4 118.2L105.6 121L104 124L107.7 128.4L110.7 128.6L114.2 125.6L114.9 123.2L119.2 124L121 128.1L124.5 130.1L128.6 130.1L132.6 127.1L135.4 129.6L132 134.5L134 137.2L137.8 137.2L139.4 138.7L143.8 138.9L145 137.3L145.3 135.3L148.6 133.9L149.1 138.6L152.6 140.7L154.6 140.7L156.6 139.7L158 137.3L161.3 137.2L160.5 141.6L154.7 145.2L153.2 147.7L146.6 142.5L131.4 142.4L128.8 140.1L123.5 140.1L121.3 144.1L118.6 143.9L117.2 142.4L111.1 141.5L105.7 139.5L102.5 139.5L95.5 143.9L90.7 143.6L90.2 140.6L80.2 140.5L75.2 141.1L73 137.3L64.6 137L62.3 143.3L59.4 143.5L57.9 138.6L54.3 138.6L48.4 140.6L44.8 144L39 144L36 140L22.3 142.4L19.8 140L21.1 135.5L33.3 135.9L35 133.9L35 126.5L38.3 126.5L47.8 134L50.1 134L50.4 129.3L52.6 127L57.5 127.4L57.3 118.1L65.8 118.1L65.8 123.1L69.8 128.4L72.3 128.4L74.5 125.7L74.8 120.7L78.2 118.7L78.1 109L75.9 106L70.2 105.1L67.453 105.063L64.805 105.027L62.268 104.989L61.044 104.969L59.852 104.948L58.692 104.926L57.567 104.902L56.478 104.876L55.426 104.849L54.412 104.819L53.437 104.786L52.504 104.751L51.612 104.712L50.765 104.671L49.963 104.626L49.206 104.577L48.498 104.525L47.838 104.468L47.229 104.407L46.672 104.341L46.167 104.27L45.717 104.194L45.323 104.113L44.985 104.026L44.706 103.934L44.487 103.835L44.328 103.73L44.232 103.618L44.2 103.5L44.24 103.351L44.36 103.204L44.557 103.058L44.83 102.915L45.177 102.774L45.597 102.636L46.089 102.499L46.65 102.366L47.279 102.235L47.974 102.106L48.735 101.981L49.558 101.858L50.443 101.739L51.387 101.623L52.39 101.51L53.45 101.4L54.565 101.294L55.733 101.192L56.953 101.093L58.223 100.998L59.542 100.907L60.908 100.82L62.32 100.738L63.775 100.659L65.272 100.585L66.81 100.516L68.387 100.451L70.002 100.391L71.652 100.336L73.336 100.285L75.052 100.24L76.8 100.2L79.7 97.5L79.8 89.9L78.2 81.3L75.6 78L74.158 77.051L72.675 76.167L71.155 75.35L69.6 74.6L68.854 74.308L68.153 74.104L67.493 73.98L66.872 73.931L66.287 73.95L65.736 74.03L65.216 74.166L64.725 74.35L64.259 74.576L63.817 74.838L63.395 75.13L62.991 75.444L62.225 76.115L61.5 76.8L61.086 77.142L60.564 77.49L59.945 77.842L59.241 78.194L58.463 78.544L57.622 78.888L56.731 79.225L55.8 79.55L53.865 80.155L51.909 80.681L50.952 80.907L50.024 81.104L49.136 81.269L48.3 81.4L47.497 81.508L46.705 81.566L45.929 81.568L45.175 81.508L44.449 81.381L43.758 81.18L43.106 80.901L42.5 80.537L41.946 80.084L41.448 79.534L41.223 79.221L41.015 78.882L40.823 78.517L40.65 78.123L40.495 77.702L40.36 77.251L40.245 76.771L40.152 76.261L40.079 75.719L40.029 75.145L40.003 74.539L40 73.9L40 73.259L39.982 72.65L39.946 72.071L39.894 71.523L39.825 71.004L39.741 70.514L39.641 70.052L39.527 69.619L39.398 69.213L39.257 68.834L38.937 68.155L38.57 67.579L38.162 67.1L37.719 66.715L37.243 66.42L36.741 66.21L36.217 66.081L35.676 66.03L35.123 66.052L34.563 66.144L34 66.3L33.416 66.442L32.796 66.53L32.15 66.565L31.489 66.547L30.824 66.476L30.166 66.353L29.525 66.177L28.912 65.95L28.338 65.671L27.813 65.341L27.349 64.96L26.955 64.528L26.642 64.046L26.422 63.514L26.349 63.229L26.304 62.932L26.287 62.622L26.3 62.3L26.342 61.624L26.35 60.949L26.315 60.284L26.23 59.633L26.085 59.004L25.873 58.403L25.585 57.837L25.212 57.312L24.748 56.836L24.478 56.618L24.182 56.414L23.858 56.226L23.507 56.054L23.126 55.898L22.714 55.761L22.271 55.642L21.795 55.543L21.286 55.463L20.742 55.405L20.163 55.369L19.547 55.356L18.893 55.366L18.2 55.4L17.51 55.436L16.864 55.434L16.262 55.396L15.7 55.323L15.179 55.218L14.696 55.083L14.25 54.919L13.839 54.73L13.463 54.516L13.119 54.28L12.807 54.024L12.524 53.749L12.27 53.459L12.042 53.155L11.662 52.512L11.373 51.838L11.162 51.149L11.018 50.46L10.93 49.789L10.885 49.151L10.873 48.563L10.882 48.04L10.9 47.6L11.563 45.681L12.273 43.78L13.029 41.898L13.832 40.036L14.681 38.194L15.576 36.374L16.515 34.575L17.5 32.8L17.678 32.517L17.89 32.25L18.136 31.999L18.414 31.763L18.721 31.542L19.057 31.337L19.805 30.972L20.643 30.666L21.559 30.42L22.537 30.231L23.562 30.1L24.622 30.025L25.702 30.005L26.787 30.04L27.864 30.128L28.918 30.269L29.935 30.462L30.9 30.706L31.8 31L32.235 31.132L32.678 31.21L33.127 31.237L33.581 31.217L34.039 31.151L34.498 31.042L34.959 30.893L35.419 30.708L35.877 30.488L36.332 30.236L37.228 29.648L38.096 28.966L38.925 28.213L39.705 27.408L40.425 26.575L41.075 25.736L41.644 24.911L42.121 24.123L42.322 23.75L42.497 23.394L42.643 23.059L42.76 22.746L42.846 22.459L42.9 22.2L43.025 21.697L43.209 21.209L43.45 20.748L43.744 20.328L44.087 19.96L44.475 19.658L44.906 19.434L45.375 19.3L45.879 19.269L46.144 19.297L46.416 19.354L46.694 19.444L46.98 19.568L47.271 19.726L47.569 19.922L47.871 20.156L48.179 20.43L48.491 20.745L48.806 21.104L49.126 21.507L49.448 21.956L49.773 22.453L50.1 23L50.428 23.526L50.775 23.962L51.139 24.313L51.519 24.583L51.913 24.776L52.32 24.897L52.738 24.95L53.166 24.939L53.602 24.868L54.046 24.742L54.495 24.565L54.948 24.341L55.404 24.075L55.862 23.77L56.319 23.431L56.775 23.063L57.677 22.253L58.555 21.376L59.399 20.465L60.197 19.555L60.937 18.679L61.609 17.872L61.915 17.505L62.2 17.167L62.462 16.864L62.7 16.6L62.954 16.356L63.247 16.128L63.576 15.917L63.937 15.721L64.329 15.539L64.749 15.372L65.661 15.077L66.652 14.829L67.701 14.622L68.787 14.452L69.888 14.313L70.983 14.197L72.051 14.101L73.07 14.018L74.02 13.942L74.88 13.868L75.268 13.83L75.627 13.79L75.952 13.748L76.241 13.703L76.491 13.654L76.7 13.6L77.167 13.511L77.663 13.413L78.177 13.333L78.7 13.3L79 13.3ZM85 118.6L86.1 126.5L81.2 122.1L78.7 122.4L82.9 127.9L82.8 129.3L75.9 129.6L78.4 132L72.7 135L76.7 136L83.3 132.7L80.3 136.9L82.6 137.9L86.1 133.8L88.7 137.3L88.7 133.5L103.1 135.9L106.7 135.2L101.4 132.1L91.8 131.3L93.2 129.7L101.7 125.7L100 124.4L90.7 128.2L90.1 125.5L91.8 123.8L92.1 118.2L88.7 122.2L88.2 117.5L85.9 107ZM12.495 119.714L12.777 119.756L13.042 119.827L13.287 119.925L13.51 120.052L13.705 120.206L13.869 120.389L14 120.6L14.132 120.996L14.156 121.427L14.077 121.878L13.9 122.337L13.629 122.792L13.269 123.23L12.824 123.637L12.3 124L11.731 124.258L11.158 124.431L10.597 124.52L10.062 124.525L9.571 124.445L9.136 124.281L8.774 124.033L8.625 123.877L8.5 123.7L8.368 123.304L8.344 122.873L8.423 122.422L8.6 121.963L8.871 121.508L9.231 121.07L9.676 120.663L10.2 120.3L10.667 120.051L11.16 119.867L11.673 119.749L12.2 119.7ZM166.288 83.05L166.844 83.194L167.352 83.422L167.8 83.725L168.173 84.094L168.456 84.519L168.56 84.749L168.637 84.991L168.684 85.241L168.7 85.5L168.684 85.759L168.637 86.009L168.56 86.251L168.456 86.481L168.173 86.906L167.8 87.275L167.352 87.578L166.844 87.806L166.288 87.95L165.7 88L165.112 87.95L164.556 87.806L164.048 87.578L163.6 87.275L163.227 86.906L162.944 86.481L162.84 86.251L162.763 86.009L162.716 85.759L162.7 85.5L162.716 85.241L162.763 84.991L162.84 84.749L162.944 84.519L163.227 84.094L163.6 83.725L164.048 83.422L164.556 83.194L165.112 83.05L165.7 83ZM3.533 76.115L3.854 76.159L4.164 76.231L4.459 76.328L5.004 76.596L5.475 76.95L5.862 77.379L6.153 77.872L6.259 78.138L6.336 78.416L6.384 78.704L6.4 79L6.375 79.303L6.32 79.599L6.237 79.887L6.125 80.165L5.986 80.43L5.821 80.681L5.631 80.915L5.416 81.13L5.181 81.322L4.929 81.489L4.664 81.628L4.386 81.74L4.099 81.825L3.804 81.88L3.504 81.905L3.2 81.9L2.867 81.885L2.546 81.841L1.941 81.673L1.396 81.41L0.925 81.063L0.538 80.645L0.247 80.17L0.141 79.915L0.064 79.651L0.016 79.379L0 79.1L0.016 78.786L0.064 78.483L0.141 78.192L0.247 77.914L0.38 77.651L0.538 77.404L0.925 76.963L1.396 76.601L1.941 76.33L2.236 76.231L2.546 76.159L2.867 76.115L3.2 76.1ZM184.67 70.62L185.029 70.677L185.375 70.77L185.706 70.897L186.021 71.055L186.318 71.243L186.595 71.459L186.85 71.7L187.082 71.965L187.288 72.25L187.468 72.556L187.619 72.878L187.739 73.216L187.827 73.567L187.882 73.929L187.9 74.3L187.882 74.688L187.827 75.062L187.739 75.421L187.619 75.764L187.468 76.089L187.288 76.394L187.082 76.677L186.85 76.938L186.595 77.173L186.318 77.383L186.021 77.565L185.706 77.717L185.375 77.839L185.029 77.927L184.67 77.982L184.3 78L183.93 77.98L183.571 77.923L183.225 77.83L182.894 77.703L182.579 77.545L182.282 77.357L182.005 77.141L181.75 76.9L181.518 76.635L181.312 76.35L181.132 76.044L180.981 75.722L180.861 75.384L180.773 75.033L180.718 74.671L180.7 74.3L180.718 73.929L180.773 73.567L180.861 73.216L180.981 72.878L181.132 72.556L181.312 72.25L181.518 71.965L181.75 71.7L182.005 71.459L182.282 71.243L182.579 71.055L182.894 70.897L183.225 70.77L183.571 70.677L183.93 70.62L184.3 70.6ZM77 38L76.5 39.7L66.8 30.7L72.3 45L71.7 46.1L66.9 41.8L68.9 50.3L67.2 51.1L56.2 41.4L59.5 49L41.2 47.3L53.6 53.2L42.2 57.2L58.6 55.6L60.3 56.4L52.7 64L73.7 53.3L76.4 54.9L71.5 59.9L80.2 56.9L76.2 66.6L83 61.1L86 77.8L89 64L94.5 70.4L90.3 58.4L91.1 55L103.5 68.7L100 58.2L111.4 60.5L105.1 55.4L114 56L115.8 63.1L116.8 55.5L119.3 60.1L120.6 53.6L122.3 55.2L126.8 66.8L124.6 55.1L139.1 59.7L128.1 52.7L140.7 49.3L128.1 48.3L133.5 41L122 48L120.3 46.6L124.3 34.4L119 42L116.5 43L117.4 29.8L112.9 44.8L112.6 38.3L107 45.2L104.6 46.8L107.2 40.8L109.2 30.6L102.8 40.1L100.3 29.1L94.6 44.6L92.3 46.8L86.2 27.9L85 39.9L84.3 41.5L75 25.5ZM16.098 67.823L16.466 67.891L16.8 68L17.1 68.15L17.362 68.337L17.584 68.559L17.764 68.814L17.9 69.1L17.995 69.347L18.056 69.599L18.084 69.856L18.08 70.114L18.044 70.373L17.979 70.631L17.763 71.138L17.438 71.621L17.014 72.067L16.499 72.465L15.9 72.8L15.261 73.012L14.628 73.123L14.019 73.139L13.45 73.063L12.937 72.897L12.497 72.645L12.309 72.489L12.146 72.312L12.009 72.116L11.9 71.9L11.805 71.653L11.744 71.401L11.716 71.144L11.72 70.886L11.756 70.627L11.821 70.369L12.037 69.863L12.362 69.379L12.786 68.933L13.301 68.535L13.9 68.2L14.33 68.022L14.777 67.895L15.235 67.821L15.7 67.8ZM165.948 7.62L166.388 7.687L166.808 7.811L167.2 8L167.724 8.302L168.167 8.673L168.524 9.099L168.788 9.563L168.953 10.05L169.014 10.545L168.965 11.034L168.897 11.271L168.8 11.5L168.675 11.716L168.526 11.912L168.164 12.244L167.729 12.491L167.238 12.65L166.703 12.715L166.142 12.681L165.569 12.545L165 12.3L164.476 11.998L164.033 11.627L163.676 11.201L163.413 10.737L163.247 10.25L163.186 9.755L163.235 9.266L163.303 9.029L163.4 8.8L163.535 8.519L163.714 8.275L163.933 8.069L164.188 7.9L164.475 7.769L164.792 7.675L165.135 7.619L165.5 7.6ZM150.615 1.903L150.924 1.955L151.221 2.054L151.5 2.2L151.708 2.401L151.88 2.628L152.019 2.879L152.125 3.15L152.198 3.44L152.238 3.747L152.247 4.068L152.225 4.4L152.172 4.742L152.09 5.091L151.837 5.8L151.473 6.509L151 7.2L150.417 7.822L149.802 8.336L149.17 8.735L148.853 8.889L148.538 9.013L148.226 9.104L147.919 9.164L147.62 9.19L147.33 9.183L147.051 9.141L146.785 9.063L146.534 8.95L146.3 8.8L146.109 8.615L145.948 8.401L145.818 8.159L145.719 7.894L145.65 7.607L145.611 7.302L145.603 6.982L145.625 6.65L145.678 6.308L145.761 5.96L145.875 5.608L146.019 5.256L146.193 4.906L146.398 4.562L146.634 4.225L146.9 3.9L147.255 3.441L147.642 3.039L148.055 2.696L148.488 2.413L148.934 2.19L149.389 2.03L149.846 1.933L150.3 1.9Z" fill-rule="nonzero"/>
</svg>
