o 
v 49.09 0 -13.08
v 49.465 0 -12.751
v 49.271 0 -12.904
v 48.342 0 -14.044
v 48.812 0 -13.429
v 46.971 0 -15.876
v 47.716 0 -14.876
v 45.27 0 -18.18
v 46.144 0 -16.993
v 41.63 0 -23.199
v 43.423 0 -20.728
v 42.495 0 -22.006
v 40.29 0 -25.06
v 40.878 0 -24.239
v 37.851 0 -28.415
v 38.919 0 -26.934
v 36.529 0 -30.328
v 37.063 0 -29.536
v 36.13 0 -31.05
v 36.226 0 -30.822
v 36.55 0 -31.7
v 36.24 0 -31.249
v 37.65 0 -33.194
v 37.03 0 -32.361
v 39.19 0 -35.21
v 38.38 0 -34.157
v 32.727 0 -43.179
v 33.78 0 -44.43
v 33.26 0 -43.807
v 31.736 0 -42.037
v 32.21 0 -42.579
v 31.03 0 -41.26
v 31.334 0 -41.587
v 30.315 0 -40.457
v 30.731 0 -40.924
v 29.242 0 -39.26
v 29.809 0 -39.891
v 28.04 0 -37.93
v 28.643 0 -38.595
v 26.887 0 -36.636
v 27.457 0 -37.274
v 25.893 0 -35.528
v 26.356 0 -36.044
v 25.051 0 -34.586
v 25.525 0 -35.117
v 25.28 0 -34.84
v 22.84 0 -32.09
v 23.841 0 -33.223
v 23.344 0 -32.66
v 21.405 0 -30.516
v 22.22 0 -31.397
v 19.408 0 -28.417
v 20.45 0 -29.504
v 17.28 0 -26.25
v 18.334 0 -27.314
v 14.787 0 -23.865
v 15.889 0 -24.891
v 13.153 0 -22.562
v 13.9 0 -23.109
v 11.78 0 -21.85
v 12.471 0 -22.163
v 4.742 0 -19.235
v 7.752 0 -20.334
v 1.201 0 -18.105
v 2.606 0 -18.507
v 0.01 0 -18.09
v 0.384 0 -17.981
v 0.071 0 -18.636
v 0.004 0 -18.254
v 0.383 0 -19.917
v 0.2 0 -19.201
v 0.87 0 -21.67
v 0.609 0 -20.751
v 12.699 0 -62.736
v 7.289 0 -43.834
v 9.27 0 -50.76
v 16.823 0 -77.012
v 15.157 0 -71.285
v 18.499 0 -82.416
v 17.877 0 -80.521
v 19.561 0 -84.375
v 18.87 0 -83.3
v 21.496 0 -85.967
v 20.428 0 -85.26
v 24.329 0 -86.9
v 22.789 0 -86.51
v 27.422 0 -87.215
v 26.14 0 -87.15
v 29.116 0 -86.89
v 28.389 0 -87.143
v 30.161 0 -85.671
v 29.681 0 -86.414
v 31.371 0 -82.934
v 30.63 0 -84.62
v 42.764 0 -83.045
v 43.47 0 -82.69
v 43.101 0 -82.873
v 42.239 0 -83.325
v 42.472 0 -83.199
v 42 0 -83.46
v 42.077 0 -83.415
v 42.077 0 -83.947
v 41.956 0 -83.65
v 42.653 0 -84.673
v 42.322 0 -84.304
v 43.41 0 -85.26
v 43.029 0 -85.008
v 46.585 0 -86.066
v 44.827 0 -85.766
v 50.258 0 -86.051
v 48.467 0 -86.16
v 52.7 0 -85.23
v 51.741 0 -85.741
v 53.377 0 -83.496
v 53.008 0 -84.648
v 54.283 0 -79.568
v 53.804 0 -81.795
v 55.38 0 -73.62
v 54.81 0 -76.836
v 68.921 0 -85.2
v 68.04 0 -83.46
v 68.486 0 -84.359
v 69.685 0 -86.563
v 69.327 0 -85.948
v 70.18 0 -87.25
v 69.976 0 -87.01
v 70.876 0 -87.521
v 70.472 0 -87.426
v 72.31 0 -87.449
v 71.465 0 -87.53
v 75.06 0 -87
v 73.485 0 -87.274
v 77.21 0 -86.434
v 76.221 0 -86.753
v 78.76 0 -85.53
v 78.049 0 -86.03
v 79.89 0 -84.19
v 79.366 0 -84.92
v 80.531 0 -82.801
v 80.169 0 -83.649
v 81.403 0 -80.446
v 80.95 0 -81.711
v 82.31 0 -77.65
v 81.864 0 -79.07
v 87.129 0 -61.65
v 85.94 0 -65.58
v 86.53 0 -63.633
v 88.231 0 -57.97
v 87.706 0 -59.729
v 89 0 -55.34
v 88.673 0 -56.474
v 94.1 0 -38.23
v 91.889 0 -45.608
v 92.974 0 -41.99
v 97.327 0 -27.43
v 95.863 0 -32.333
v 99.319 0 -20.717
v 98.482 0 -23.549
v 100 0 -18.31
v 99.828 0 -18.961
v 98.436 0 -18.516
v 99.591 0 -18.252
v 94.324 0 -19.864
v 96.644 0 -19.065
v 88.54 0 -22.07
v 91.587 0 -20.878
v 85.797 0 -23.435
v 87.098 0 -22.697
v 83.063 0 -25.711
v 84.499 0 -24.401
v 79.22 0 -29.83
v 81.35 0 -27.482
v 75.786 0 -33.555
v 76.29 0 -33.04
v 76.071 0 -33.257
v 75.087 0 -34.319
v 75.452 0 -33.915
v 74.33 0 -35.18
v 74.707 0 -34.746
v 68.318 0 -41.808
v 70.05 0 -39.91
v 69.204 0 -40.836
v 66.609 0 -43.689
v 67.438 0 -42.776
v 62.111 0 -33.469
v 60.55 0 -35.48
v 61.373 0 -34.435
v 63.219 0 -31.941
v 62.736 0 -32.624
v 63.64 0 -31.23
v 63.53 0 -31.462
v 63.363 0 -30.519
v 63.588 0 -30.962
v 62 0 -28.498
v 62.868 0 -29.747
v 58.75 0 -23.96
v 60.661 0 -26.619
v 52.189 0 -14.808
v 53.5 0 -16.62
v 52.79 0 -15.62
v 51.111 0 -13.438
v 51.621 0 -14.07
v 50.357 0 -12.607
v 50.682 0 -12.94
v 50.021 0 -12.479
v 50.16 0 -12.47
v 49.662 0 -12.625
v 49.851 0 -12.533
v 44.365 0 -19.431
v 1.414 0 -23.501
v 85.332 0 -67.591
v 76.545 0 -32.782
v 70.879 0 -39.003
v 65.877 0 -44.494
v 54.402 0 -17.884
v 24.308 0 -33.75
v 5.43 0 -37.363
v 67.157 0 -81.754
v 82.798 0 -76.023
v 90.897 0 -48.919
v 59.719 0 -36.555
v 55.436 0 -19.332
v 24.719 0 -34.214
v 2.41 0 -26.914
v 32.166 0 -81.396
v 44.297 0 -82.26
v 55.492 0 -72.976
v 84.679 0 -69.756
v 78.594 0 -30.534
v 76.932 0 -32.37
v 65.29 0 -45.14
v 58.94 0 -37.579
v 57.669 0 -22.452
v 56.545 0 -20.882
v 40.891 0 -37.416
v 3.776 0 -31.629
v 33.036 0 -79.98
v 44.929 0 -81.866
v 55.616 0 -72.429
v 66.242 0 -80.216
v 83.378 0 -74.087
v 84.016 0 -71.96
v 90.051 0 -51.755
v 77.985 0 -31.213
v 73.872 0 -35.696
v 55.746 0 -71.988
v 65.272 0 -78.817
v 89.401 0 -53.951
v 77.421 0 -31.836
v 73.256 0 -36.382
v 58.246 0 -38.506
v 34 0 -78.657
v 45.388 0 -81.493
v 64.224 0 -77.531
v 57.674 0 -39.291
v 42.034 0 -39.025
v 34.984 0 -45.764
v 35.078 0 -77.4
v 45.691 0 -81.12
v 63.075 0 -76.328
v 72.524 0 -37.193
v 57.257 0 -39.888
v 42.72 0 -40.263
v 36.097 0 -46.812
v 36.29 0 -76.18
v 45.858 0 -80.732
v 61.8 0 -75.18
v 57.03 0 -40.25
v 43.053 0 -41.355
v 37.162 0 -47.601
v 37.34 0 -75.292
v 45.91 0 -80.31
v 56.834 0 -40.824
v 43.135 0 -42.529
v 38.227 0 -48.158
v 38.8 0 -74.204
v 45.852 0 -79.677
v 60.74 0 -74.316
v 56.699 0 -41.621
v 43.07 0 -44.01
v 45.687 0 -78.5
v 59.583 0 -73.451
v 56.625 0 -42.619
v 43.007 0 -44.784
v 39.334 0 -48.509
v 45.443 0 -76.949
v 58.435 0 -72.655
v 40.53 0 -48.68
v 45.146 0 -75.194
v 57.404 0 -71.999
v 56.614 0 -43.796
v 42.46 0 -48.83
v 44.826 0 -73.404
v 56.596 0 -71.554
v 56.669 0 -45.13
v 42.67 0 -47.83
v 44.51 0 -71.75
v 56.12 0 -71.39
v 56.79 0 -46.6
v 42.733 0 -47.452
v 44.459 0 -71.575
v 56.003 0 -71.459
v 56.936 0 -47.596
v 40.428 0 -73.079
v 55.877 0 -71.661
v 57.157 0 -48.291
v 42.8 0 -46.922
v 44.38 0 -71.416
v 71.717 0 -38.081
v 57.502 0 -48.724
v 42.87 0 -46.276
v 44.279 0 -71.28
v 58.023 0 -48.932
v 42.94 0 -45.551
v 44.16 0 -71.174
v 41.98 0 -72.076
v 44.028 0 -71.105
v 43.89 0 -71.08
v 64.196 0 -46.304
v 58.769 0 -48.954
v 59.79 0 -48.83
v 43.215 0 -71.356
v 60.734 0 -48.625
v 61.585 0 -48.311
v 63.255 0 -47.192
v 62.405 0 -47.847
v 49.465 10 -12.751
v 49.09 10 -13.08
v 49.271 10 -12.904
v 48.342 10 -14.044
v 48.812 10 -13.429
v 46.971 10 -15.876
v 47.716 10 -14.876
v 45.27 10 -18.18
v 46.144 10 -16.993
v 43.423 10 -20.728
v 41.63 10 -23.199
v 42.495 10 -22.006
v 40.29 10 -25.06
v 40.878 10 -24.239
v 37.851 10 -28.415
v 38.919 10 -26.934
v 36.529 10 -30.328
v 37.063 10 -29.536
v 36.13 10 -31.05
v 36.226 10 -30.822
v 36.55 10 -31.7
v 36.24 10 -31.249
v 37.65 10 -33.194
v 37.03 10 -32.361
v 39.19 10 -35.21
v 38.38 10 -34.157
v 33.78 10 -44.43
v 32.727 10 -43.179
v 33.26 10 -43.807
v 31.736 10 -42.037
v 32.21 10 -42.579
v 31.03 10 -41.26
v 31.334 10 -41.587
v 30.315 10 -40.457
v 30.731 10 -40.924
v 29.242 10 -39.26
v 29.809 10 -39.891
v 28.04 10 -37.93
v 28.643 10 -38.595
v 26.887 10 -36.636
v 27.457 10 -37.274
v 25.893 10 -35.528
v 26.356 10 -36.044
v 25.525 10 -35.117
v 25.051 10 -34.586
v 25.28 10 -34.84
v 23.841 10 -33.223
v 22.84 10 -32.09
v 23.344 10 -32.66
v 21.405 10 -30.516
v 22.22 10 -31.397
v 19.408 10 -28.417
v 20.45 10 -29.504
v 17.28 10 -26.25
v 18.334 10 -27.314
v 14.787 10 -23.865
v 15.889 10 -24.891
v 13.153 10 -22.562
v 13.9 10 -23.109
v 11.78 10 -21.85
v 12.471 10 -22.163
v 4.742 10 -19.235
v 7.752 10 -20.334
v 1.201 10 -18.105
v 2.606 10 -18.507
v 0.01 10 -18.09
v 0.384 10 -17.981
v 0.071 10 -18.636
v 0.004 10 -18.254
v 0.383 10 -19.917
v 0.2 10 -19.201
v 0.87 10 -21.67
v 0.609 10 -20.751
v 7.289 10 -43.834
v 12.699 10 -62.736
v 9.27 10 -50.76
v 16.823 10 -77.012
v 15.157 10 -71.285
v 18.499 10 -82.416
v 17.877 10 -80.521
v 19.561 10 -84.375
v 18.87 10 -83.3
v 21.496 10 -85.967
v 20.428 10 -85.26
v 24.329 10 -86.9
v 22.789 10 -86.51
v 27.422 10 -87.215
v 26.14 10 -87.15
v 29.116 10 -86.89
v 28.389 10 -87.143
v 30.161 10 -85.671
v 29.681 10 -86.414
v 31.371 10 -82.934
v 30.63 10 -84.62
v 43.47 10 -82.69
v 42.764 10 -83.045
v 43.101 10 -82.873
v 42.239 10 -83.325
v 42.472 10 -83.199
v 42 10 -83.46
v 42.077 10 -83.415
v 42.077 10 -83.947
v 41.956 10 -83.65
v 42.653 10 -84.673
v 42.322 10 -84.304
v 43.41 10 -85.26
v 43.029 10 -85.008
v 46.585 10 -86.066
v 44.827 10 -85.766
v 50.258 10 -86.051
v 48.467 10 -86.16
v 52.7 10 -85.23
v 51.741 10 -85.741
v 53.377 10 -83.496
v 53.008 10 -84.648
v 54.283 10 -79.568
v 53.804 10 -81.795
v 55.38 10 -73.62
v 54.81 10 -76.836
v 68.04 10 -83.46
v 68.921 10 -85.2
v 68.486 10 -84.359
v 69.685 10 -86.563
v 69.327 10 -85.948
v 70.18 10 -87.25
v 69.976 10 -87.01
v 70.876 10 -87.521
v 70.472 10 -87.426
v 72.31 10 -87.449
v 71.465 10 -87.53
v 75.06 10 -87
v 73.485 10 -87.274
v 77.21 10 -86.434
v 76.221 10 -86.753
v 78.76 10 -85.53
v 78.049 10 -86.03
v 79.89 10 -84.19
v 79.366 10 -84.92
v 80.531 10 -82.801
v 80.169 10 -83.649
v 81.403 10 -80.446
v 80.95 10 -81.711
v 82.31 10 -77.65
v 81.864 10 -79.07
v 85.94 10 -65.58
v 87.129 10 -61.65
v 86.53 10 -63.633
v 88.231 10 -57.97
v 87.706 10 -59.729
v 89 10 -55.34
v 88.673 10 -56.474
v 91.889 10 -45.608
v 94.1 10 -38.23
v 92.974 10 -41.99
v 97.327 10 -27.43
v 95.863 10 -32.333
v 99.319 10 -20.717
v 98.482 10 -23.549
v 100 10 -18.31
v 99.828 10 -18.961
v 98.436 10 -18.516
v 99.591 10 -18.252
v 94.324 10 -19.864
v 96.644 10 -19.065
v 88.54 10 -22.07
v 91.587 10 -20.878
v 85.797 10 -23.435
v 87.098 10 -22.697
v 83.063 10 -25.711
v 84.499 10 -24.401
v 79.22 10 -29.83
v 81.35 10 -27.482
v 76.29 10 -33.04
v 75.786 10 -33.555
v 76.071 10 -33.257
v 75.087 10 -34.319
v 75.452 10 -33.915
v 74.33 10 -35.18
v 74.707 10 -34.746
v 70.05 10 -39.91
v 68.318 10 -41.808
v 69.204 10 -40.836
v 66.609 10 -43.689
v 67.438 10 -42.776
v 60.55 10 -35.48
v 62.111 10 -33.469
v 61.373 10 -34.435
v 63.219 10 -31.941
v 62.736 10 -32.624
v 63.64 10 -31.23
v 63.53 10 -31.462
v 63.363 10 -30.519
v 63.588 10 -30.962
v 62 10 -28.498
v 62.868 10 -29.747
v 58.75 10 -23.96
v 60.661 10 -26.619
v 53.5 10 -16.62
v 52.189 10 -14.808
v 52.79 10 -15.62
v 51.111 10 -13.438
v 51.621 10 -14.07
v 50.357 10 -12.607
v 50.682 10 -12.94
v 50.021 10 -12.479
v 50.16 10 -12.47
v 49.662 10 -12.625
v 49.851 10 -12.533
v 44.365 10 -19.431
v 1.414 10 -23.501
v 85.332 10 -67.591
v 76.545 10 -32.782
v 70.879 10 -39.003
v 65.877 10 -44.494
v 54.402 10 -17.884
v 24.308 10 -33.75
v 5.43 10 -37.363
v 67.157 10 -81.754
v 82.798 10 -76.023
v 90.897 10 -48.919
v 59.719 10 -36.555
v 55.436 10 -19.332
v 24.719 10 -34.214
v 2.41 10 -26.914
v 32.166 10 -81.396
v 44.297 10 -82.26
v 55.492 10 -72.976
v 84.679 10 -69.756
v 78.594 10 -30.534
v 76.932 10 -32.37
v 65.29 10 -45.14
v 58.94 10 -37.579
v 57.669 10 -22.452
v 56.545 10 -20.882
v 40.891 10 -37.416
v 3.776 10 -31.629
v 33.036 10 -79.98
v 44.929 10 -81.866
v 55.616 10 -72.429
v 66.242 10 -80.216
v 83.378 10 -74.087
v 84.016 10 -71.96
v 90.051 10 -51.755
v 77.985 10 -31.213
v 73.872 10 -35.696
v 55.746 10 -71.988
v 65.272 10 -78.817
v 89.401 10 -53.951
v 77.421 10 -31.836
v 73.256 10 -36.382
v 58.246 10 -38.506
v 34 10 -78.657
v 45.388 10 -81.493
v 64.224 10 -77.531
v 57.674 10 -39.291
v 42.034 10 -39.025
v 34.984 10 -45.764
v 35.078 10 -77.4
v 45.691 10 -81.12
v 63.075 10 -76.328
v 72.524 10 -37.193
v 57.257 10 -39.888
v 42.72 10 -40.263
v 36.097 10 -46.812
v 36.29 10 -76.18
v 45.858 10 -80.732
v 61.8 10 -75.18
v 57.03 10 -40.25
v 43.053 10 -41.355
v 37.162 10 -47.601
v 37.34 10 -75.292
v 45.91 10 -80.31
v 56.834 10 -40.824
v 43.135 10 -42.529
v 38.227 10 -48.158
v 38.8 10 -74.204
v 45.852 10 -79.677
v 60.74 10 -74.316
v 56.699 10 -41.621
v 43.07 10 -44.01
v 45.687 10 -78.5
v 59.583 10 -73.451
v 56.625 10 -42.619
v 43.007 10 -44.784
v 39.334 10 -48.509
v 45.443 10 -76.949
v 58.435 10 -72.655
v 40.53 10 -48.68
v 45.146 10 -75.194
v 57.404 10 -71.999
v 56.614 10 -43.796
v 42.46 10 -48.83
v 44.826 10 -73.404
v 56.596 10 -71.554
v 56.669 10 -45.13
v 42.67 10 -47.83
v 44.51 10 -71.75
v 56.12 10 -71.39
v 56.79 10 -46.6
v 42.733 10 -47.452
v 44.459 10 -71.575
v 56.003 10 -71.459
v 56.936 10 -47.596
v 40.428 10 -73.079
v 55.877 10 -71.661
v 57.157 10 -48.291
v 42.8 10 -46.922
v 44.38 10 -71.416
v 71.717 10 -38.081
v 57.502 10 -48.724
v 42.87 10 -46.276
v 44.279 10 -71.28
v 58.023 10 -48.932
v 42.94 10 -45.551
v 44.16 10 -71.174
v 41.98 10 -72.076
v 44.028 10 -71.105
v 43.89 10 -71.08
v 64.196 10 -46.304
v 58.769 10 -48.954
v 59.79 10 -48.83
v 43.215 10 -71.356
v 60.734 10 -48.625
v 61.585 10 -48.311
v 63.255 10 -47.192
v 62.405 10 -47.847
f 1 2 3
f 4 1 5
f 6 4 7
f 8 6 9
f 10 11 12
f 13 10 14
f 15 13 16
f 17 15 18
f 19 17 20
f 21 19 22
f 23 21 24
f 25 23 26
f 27 28 29
f 30 27 31
f 32 30 33
f 34 32 35
f 36 34 37
f 38 36 39
f 40 38 41
f 42 40 43
f 44 45 46
f 47 48 49
f 50 47 51
f 52 50 53
f 54 52 55
f 56 54 57
f 58 56 59
f 60 58 61
f 62 60 63
f 64 62 65
f 66 64 67
f 68 66 69
f 70 68 71
f 72 70 73
f 74 75 76
f 77 74 78
f 79 77 80
f 81 79 82
f 83 81 84
f 85 83 86
f 87 85 88
f 89 87 90
f 91 89 92
f 93 91 94
f 95 96 97
f 98 95 99
f 100 98 101
f 102 100 103
f 104 102 105
f 106 104 107
f 108 106 109
f 110 108 111
f 112 110 113
f 114 112 115
f 116 114 117
f 118 116 119
f 120 121 122
f 123 120 124
f 125 123 126
f 127 125 128
f 129 127 130
f 131 129 132
f 133 131 134
f 135 133 136
f 137 135 138
f 139 137 140
f 141 139 142
f 143 141 144
f 145 146 147
f 148 145 149
f 150 148 151
f 152 153 154
f 155 152 156
f 157 155 158
f 159 157 160
f 161 159 162
f 163 161 164
f 165 163 166
f 167 165 168
f 169 167 170
f 171 169 172
f 173 174 175
f 176 173 177
f 178 176 179
f 180 181 182
f 183 180 184
f 185 186 187
f 188 185 189
f 190 188 191
f 192 190 193
f 194 192 195
f 196 194 197
f 198 199 200
f 201 198 202
f 203 201 204
f 205 203 206
f 207 205 208
f 1 207 2
f 6 1 4
f 209 6 8
f 13 11 10
f 17 13 15
f 21 17 19
f 25 21 23
f 30 28 27
f 36 32 34
f 42 38 40
f 50 48 47
f 54 50 52
f 58 54 56
f 62 58 60
f 66 62 64
f 70 66 68
f 210 70 72
f 77 75 74
f 81 77 79
f 85 81 83
f 89 85 87
f 93 89 91
f 98 96 95
f 102 98 100
f 106 102 104
f 110 106 108
f 114 110 112
f 118 114 116
f 123 121 120
f 127 123 125
f 131 127 129
f 135 131 133
f 139 135 137
f 143 139 141
f 145 211 146
f 150 145 148
f 155 153 152
f 159 155 157
f 163 159 161
f 167 163 165
f 171 167 169
f 173 212 174
f 178 173 176
f 180 213 181
f 214 180 183
f 188 186 185
f 192 188 190
f 196 192 194
f 198 215 199
f 203 198 201
f 207 203 205
f 6 207 1
f 11 6 209
f 17 11 13
f 25 17 21
f 32 28 30
f 38 32 36
f 45 38 42
f 50 216 48
f 58 50 54
f 66 58 62
f 210 66 70
f 77 217 75
f 85 77 81
f 93 85 89
f 102 96 98
f 110 102 106
f 118 110 114
f 123 218 121
f 131 123 127
f 139 131 135
f 219 139 143
f 150 211 145
f 155 220 153
f 163 155 159
f 171 163 167
f 178 212 173
f 214 213 180
f 188 221 186
f 196 188 192
f 198 222 215
f 207 198 203
f 11 207 6
f 25 11 17
f 38 28 32
f 44 38 45
f 50 223 216
f 66 50 58
f 224 66 210
f 85 217 77
f 225 85 93
f 102 226 96
f 227 110 118
f 131 218 123
f 219 131 139
f 150 228 211
f 163 220 155
f 229 163 171
f 178 230 212
f 231 213 214
f 188 232 221
f 233 188 196
f 198 234 222
f 11 198 207
f 235 11 25
f 44 28 38
f 50 44 223
f 224 50 66
f 85 236 217
f 237 85 225
f 102 238 226
f 239 110 227
f 131 240 218
f 241 131 219
f 150 242 228
f 163 243 220
f 244 163 229
f 245 230 178
f 233 232 188
f 198 233 234
f 235 198 11
f 50 28 44
f 236 50 224
f 237 236 85
f 110 238 102
f 246 110 239
f 131 247 240
f 242 131 241
f 248 242 150
f 163 248 243
f 249 163 244
f 250 230 245
f 233 251 232
f 235 233 198
f 236 28 50
f 252 236 237
f 110 253 238
f 131 254 247
f 248 131 242
f 249 248 163
f 250 249 230
f 233 255 251
f 256 233 235
f 236 257 28
f 258 236 252
f 110 259 253
f 131 260 254
f 249 131 248
f 261 249 250
f 233 262 255
f 263 233 256
f 236 264 257
f 265 236 258
f 110 266 259
f 131 267 260
f 261 131 249
f 233 268 262
f 269 233 263
f 236 270 264
f 271 236 265
f 110 272 266
f 261 267 131
f 233 273 268
f 274 233 269
f 236 275 270
f 276 236 271
f 110 277 272
f 261 278 267
f 233 279 273
f 280 233 274
f 276 275 236
f 110 281 277
f 261 282 278
f 233 283 279
f 284 233 280
f 276 285 275
f 110 286 281
f 261 287 282
f 284 283 233
f 276 288 285
f 110 289 286
f 261 290 287
f 284 291 283
f 276 292 288
f 110 293 289
f 261 294 290
f 284 295 291
f 276 296 292
f 110 297 293
f 261 298 294
f 284 299 295
f 276 300 296
f 110 301 297
f 261 302 298
f 284 303 299
f 304 300 276
f 246 301 110
f 261 305 302
f 284 306 303
f 304 307 300
f 246 308 301
f 309 305 261
f 284 310 306
f 304 311 307
f 246 312 308
f 213 305 309
f 284 313 310
f 304 314 311
f 246 315 312
f 231 305 213
f 314 313 284
f 316 314 304
f 246 317 315
f 231 246 305
f 316 313 314
f 246 318 317
f 319 246 231
f 316 320 313
f 319 318 246
f 316 321 320
f 319 322 318
f 316 323 321
f 319 316 322
f 316 324 323
f 325 316 319
f 316 326 324
f 326 316 325
f 327 328 329
f 328 330 331
f 330 332 333
f 332 334 335
f 336 337 338
f 337 339 340
f 339 341 342
f 341 343 344
f 343 345 346
f 345 347 348
f 347 349 350
f 349 351 352
f 353 354 355
f 354 356 357
f 356 358 359
f 358 360 361
f 360 362 363
f 362 364 365
f 364 366 367
f 366 368 369
f 370 371 372
f 373 374 375
f 374 376 377
f 376 378 379
f 378 380 381
f 380 382 383
f 382 384 385
f 384 386 387
f 386 388 389
f 388 390 391
f 390 392 393
f 392 394 395
f 394 396 397
f 396 398 399
f 400 401 402
f 401 403 404
f 403 405 406
f 405 407 408
f 407 409 410
f 409 411 412
f 411 413 414
f 413 415 416
f 415 417 418
f 417 419 420
f 421 422 423
f 422 424 425
f 424 426 427
f 426 428 429
f 428 430 431
f 430 432 433
f 432 434 435
f 434 436 437
f 436 438 439
f 438 440 441
f 440 442 443
f 442 444 445
f 446 447 448
f 447 449 450
f 449 451 452
f 451 453 454
f 453 455 456
f 455 457 458
f 457 459 460
f 459 461 462
f 461 463 464
f 463 465 466
f 465 467 468
f 467 469 470
f 471 472 473
f 472 474 475
f 474 476 477
f 478 479 480
f 479 481 482
f 481 483 484
f 483 485 486
f 485 487 488
f 487 489 490
f 489 491 492
f 491 493 494
f 493 495 496
f 495 497 498
f 499 500 501
f 500 502 503
f 502 504 505
f 506 507 508
f 507 509 510
f 511 512 513
f 512 514 515
f 514 516 517
f 516 518 519
f 518 520 521
f 520 522 523
f 524 525 526
f 525 527 528
f 527 529 530
f 529 531 532
f 531 533 534
f 533 328 327
f 328 332 330
f 332 535 334
f 336 339 337
f 339 343 341
f 343 347 345
f 347 351 349
f 353 356 354
f 358 362 360
f 364 368 366
f 373 376 374
f 376 380 378
f 380 384 382
f 384 388 386
f 388 392 390
f 392 396 394
f 396 536 398
f 400 403 401
f 403 407 405
f 407 411 409
f 411 415 413
f 415 419 417
f 421 424 422
f 424 428 426
f 428 432 430
f 432 436 434
f 436 440 438
f 440 444 442
f 446 449 447
f 449 453 451
f 453 457 455
f 457 461 459
f 461 465 463
f 465 469 467
f 537 472 471
f 472 476 474
f 478 481 479
f 481 485 483
f 485 489 487
f 489 493 491
f 493 497 495
f 538 500 499
f 500 504 502
f 539 507 506
f 507 540 509
f 511 514 512
f 514 518 516
f 518 522 520
f 541 525 524
f 525 529 527
f 529 533 531
f 533 332 328
f 332 336 535
f 336 343 339
f 343 351 347
f 353 358 356
f 358 364 362
f 364 370 368
f 542 376 373
f 376 384 380
f 384 392 388
f 392 536 396
f 543 403 400
f 403 411 407
f 411 419 415
f 421 428 424
f 428 436 432
f 436 444 440
f 544 449 446
f 449 457 453
f 457 465 461
f 465 545 469
f 537 476 472
f 546 481 478
f 481 489 485
f 489 497 493
f 538 504 500
f 539 540 507
f 547 514 511
f 514 522 518
f 548 525 541
f 525 533 529
f 533 336 332
f 336 351 343
f 353 364 358
f 364 371 370
f 549 376 542
f 376 392 384
f 392 550 536
f 543 411 403
f 411 551 419
f 552 428 421
f 436 553 444
f 544 457 449
f 457 545 465
f 554 476 537
f 546 489 481
f 489 555 497
f 556 504 538
f 539 557 540
f 558 514 547
f 514 559 522
f 560 525 548
f 525 336 533
f 336 561 351
f 353 371 364
f 371 376 549
f 376 550 392
f 562 411 543
f 411 563 551
f 564 428 552
f 436 565 553
f 566 457 544
f 457 567 545
f 568 476 554
f 569 489 546
f 489 570 555
f 556 571 504
f 558 559 514
f 559 525 560
f 525 561 336
f 353 376 371
f 376 562 550
f 562 563 411
f 564 436 428
f 436 572 565
f 573 457 566
f 457 568 567
f 568 574 476
f 574 489 569
f 489 575 570
f 556 576 571
f 577 559 558
f 559 561 525
f 353 562 376
f 562 578 563
f 579 436 564
f 580 457 573
f 457 574 568
f 574 575 489
f 575 576 556
f 581 559 577
f 559 582 561
f 583 562 353
f 562 584 578
f 585 436 579
f 586 457 580
f 457 575 574
f 575 587 576
f 588 559 581
f 559 589 582
f 590 562 583
f 562 591 584
f 592 436 585
f 593 457 586
f 457 587 575
f 594 559 588
f 559 595 589
f 596 562 590
f 562 597 591
f 598 436 592
f 593 587 457
f 599 559 594
f 559 600 595
f 601 562 596
f 562 602 597
f 603 436 598
f 604 587 593
f 605 559 599
f 559 606 600
f 601 602 562
f 607 436 603
f 608 587 604
f 609 559 605
f 559 610 606
f 611 602 601
f 612 436 607
f 613 587 608
f 609 610 559
f 614 602 611
f 615 436 612
f 616 587 613
f 617 610 609
f 618 602 614
f 619 436 615
f 620 587 616
f 621 610 617
f 622 602 618
f 623 436 619
f 624 587 620
f 625 610 621
f 626 602 622
f 627 436 623
f 628 587 624
f 629 610 625
f 626 630 602
f 627 572 436
f 631 587 628
f 632 610 629
f 633 630 626
f 634 572 627
f 631 635 587
f 636 610 632
f 637 630 633
f 638 572 634
f 631 539 635
f 639 610 636
f 640 630 637
f 641 572 638
f 631 557 539
f 639 640 610
f 640 642 630
f 643 572 641
f 572 557 631
f 639 642 640
f 644 572 643
f 572 645 557
f 646 642 639
f 644 645 572
f 647 642 646
f 648 645 644
f 649 642 647
f 642 645 648
f 650 642 649
f 642 651 645
f 652 642 650
f 642 652 651
f 1 328 5
f 5 328 331
f 5 331 4
f 4 331 330
f 4 330 7
f 7 330 333
f 7 333 6
f 6 333 332
f 6 332 9
f 9 332 335
f 9 335 8
f 8 335 334
f 8 334 209
f 209 334 535
f 209 535 11
f 11 535 336
f 11 336 12
f 12 336 338
f 12 338 10
f 10 338 337
f 10 337 14
f 14 337 340
f 14 340 13
f 13 340 339
f 13 339 16
f 16 339 342
f 16 342 15
f 15 342 341
f 15 341 18
f 18 341 344
f 18 344 17
f 17 344 343
f 17 343 20
f 20 343 346
f 20 346 19
f 19 346 345
f 19 345 22
f 22 345 348
f 22 348 21
f 21 348 347
f 21 347 24
f 24 347 350
f 24 350 23
f 23 350 349
f 23 349 26
f 26 349 352
f 26 352 25
f 25 352 351
f 25 351 235
f 235 351 561
f 235 561 256
f 256 561 582
f 256 582 263
f 263 582 589
f 263 589 269
f 269 589 595
f 269 595 274
f 274 595 600
f 274 600 280
f 280 600 606
f 280 606 284
f 284 606 610
f 284 610 314
f 314 610 640
f 314 640 311
f 311 640 637
f 311 637 307
f 307 637 633
f 307 633 300
f 300 633 626
f 300 626 296
f 296 626 622
f 296 622 292
f 292 622 618
f 292 618 288
f 288 618 614
f 288 614 285
f 285 614 611
f 285 611 275
f 275 611 601
f 275 601 270
f 270 601 596
f 270 596 264
f 264 596 590
f 264 590 257
f 257 590 583
f 257 583 28
f 28 583 353
f 28 353 29
f 29 353 355
f 29 355 27
f 27 355 354
f 27 354 31
f 31 354 357
f 31 357 30
f 30 357 356
f 30 356 33
f 33 356 359
f 33 359 32
f 32 359 358
f 32 358 35
f 35 358 361
f 35 361 34
f 34 361 360
f 34 360 37
f 37 360 363
f 37 363 36
f 36 363 362
f 36 362 39
f 39 362 365
f 39 365 38
f 38 365 364
f 38 364 41
f 41 364 367
f 41 367 40
f 40 367 366
f 40 366 43
f 43 366 369
f 43 369 42
f 42 369 368
f 42 368 45
f 45 368 370
f 45 370 46
f 46 370 372
f 46 372 44
f 44 372 371
f 44 371 223
f 223 371 549
f 223 549 216
f 216 549 542
f 216 542 48
f 48 542 373
f 48 373 49
f 49 373 375
f 49 375 47
f 47 375 374
f 47 374 51
f 51 374 377
f 51 377 50
f 50 377 376
f 50 376 53
f 53 376 379
f 53 379 52
f 52 379 378
f 52 378 55
f 55 378 381
f 55 381 54
f 54 381 380
f 54 380 57
f 57 380 383
f 57 383 56
f 56 383 382
f 56 382 59
f 59 382 385
f 59 385 58
f 58 385 384
f 58 384 61
f 61 384 387
f 61 387 60
f 60 387 386
f 60 386 63
f 63 386 389
f 63 389 62
f 62 389 388
f 62 388 65
f 65 388 391
f 65 391 64
f 64 391 390
f 64 390 67
f 67 390 393
f 67 393 66
f 66 393 392
f 66 392 69
f 69 392 395
f 69 395 68
f 68 395 394
f 68 394 71
f 71 394 397
f 71 397 70
f 70 397 396
f 70 396 73
f 73 396 399
f 73 399 72
f 72 399 398
f 72 398 210
f 210 398 536
f 210 536 224
f 224 536 550
f 224 550 236
f 236 550 562
f 236 562 217
f 217 562 543
f 217 543 75
f 75 543 400
f 75 400 76
f 76 400 402
f 76 402 74
f 74 402 401
f 74 401 78
f 78 401 404
f 78 404 77
f 77 404 403
f 77 403 80
f 80 403 406
f 80 406 79
f 79 406 405
f 79 405 82
f 82 405 408
f 82 408 81
f 81 408 407
f 81 407 84
f 84 407 410
f 84 410 83
f 83 410 409
f 83 409 86
f 86 409 412
f 86 412 85
f 85 412 411
f 85 411 88
f 88 411 414
f 88 414 87
f 87 414 413
f 87 413 90
f 90 413 416
f 90 416 89
f 89 416 415
f 89 415 92
f 92 415 418
f 92 418 91
f 91 418 417
f 91 417 94
f 94 417 420
f 94 420 93
f 93 420 419
f 93 419 225
f 225 419 551
f 225 551 237
f 237 551 563
f 237 563 252
f 252 563 578
f 252 578 258
f 258 578 584
f 258 584 265
f 265 584 591
f 265 591 271
f 271 591 597
f 271 597 276
f 276 597 602
f 276 602 304
f 304 602 630
f 304 630 316
f 316 630 642
f 316 642 322
f 322 642 648
f 322 648 318
f 318 648 644
f 318 644 317
f 317 644 643
f 317 643 315
f 315 643 641
f 315 641 312
f 312 641 638
f 312 638 308
f 308 638 634
f 308 634 301
f 301 634 627
f 301 627 297
f 297 627 623
f 297 623 293
f 293 623 619
f 293 619 289
f 289 619 615
f 289 615 286
f 286 615 612
f 286 612 281
f 281 612 607
f 281 607 277
f 277 607 603
f 277 603 272
f 272 603 598
f 272 598 266
f 266 598 592
f 266 592 259
f 259 592 585
f 259 585 253
f 253 585 579
f 253 579 238
f 238 579 564
f 238 564 226
f 226 564 552
f 226 552 96
f 96 552 421
f 96 421 97
f 97 421 423
f 97 423 95
f 95 423 422
f 95 422 99
f 99 422 425
f 99 425 98
f 98 425 424
f 98 424 101
f 101 424 427
f 101 427 100
f 100 427 426
f 100 426 103
f 103 426 429
f 103 429 102
f 102 429 428
f 102 428 105
f 105 428 431
f 105 431 104
f 104 431 430
f 104 430 107
f 107 430 433
f 107 433 106
f 106 433 432
f 106 432 109
f 109 432 435
f 109 435 108
f 108 435 434
f 108 434 111
f 111 434 437
f 111 437 110
f 110 437 436
f 110 436 113
f 113 436 439
f 113 439 112
f 112 439 438
f 112 438 115
f 115 438 441
f 115 441 114
f 114 441 440
f 114 440 117
f 117 440 443
f 117 443 116
f 116 443 442
f 116 442 119
f 119 442 445
f 119 445 118
f 118 445 444
f 118 444 227
f 227 444 553
f 227 553 239
f 239 553 565
f 239 565 246
f 246 565 572
f 246 572 305
f 305 572 631
f 305 631 302
f 302 631 628
f 302 628 298
f 298 628 624
f 298 624 294
f 294 624 620
f 294 620 290
f 290 620 616
f 290 616 287
f 287 616 613
f 287 613 282
f 282 613 608
f 282 608 278
f 278 608 604
f 278 604 267
f 267 604 593
f 267 593 260
f 260 593 586
f 260 586 254
f 254 586 580
f 254 580 247
f 247 580 573
f 247 573 240
f 240 573 566
f 240 566 218
f 218 566 544
f 218 544 121
f 121 544 446
f 121 446 122
f 122 446 448
f 122 448 120
f 120 448 447
f 120 447 124
f 124 447 450
f 124 450 123
f 123 450 449
f 123 449 126
f 126 449 452
f 126 452 125
f 125 452 451
f 125 451 128
f 128 451 454
f 128 454 127
f 127 454 453
f 127 453 130
f 130 453 456
f 130 456 129
f 129 456 455
f 129 455 132
f 132 455 458
f 132 458 131
f 131 458 457
f 131 457 134
f 134 457 460
f 134 460 133
f 133 460 459
f 133 459 136
f 136 459 462
f 136 462 135
f 135 462 461
f 135 461 138
f 138 461 464
f 138 464 137
f 137 464 463
f 137 463 140
f 140 463 466
f 140 466 139
f 139 466 465
f 139 465 142
f 142 465 468
f 142 468 141
f 141 468 467
f 141 467 144
f 144 467 470
f 144 470 143
f 143 470 469
f 143 469 219
f 219 469 545
f 219 545 241
f 241 545 567
f 241 567 242
f 242 567 568
f 242 568 228
f 228 568 554
f 228 554 211
f 211 554 537
f 211 537 146
f 146 537 471
f 146 471 147
f 147 471 473
f 147 473 145
f 145 473 472
f 145 472 149
f 149 472 475
f 149 475 148
f 148 475 474
f 148 474 151
f 151 474 477
f 151 477 150
f 150 477 476
f 150 476 248
f 248 476 574
f 248 574 243
f 243 574 569
f 243 569 220
f 220 569 546
f 220 546 153
f 153 546 478
f 153 478 154
f 154 478 480
f 154 480 152
f 152 480 479
f 152 479 156
f 156 479 482
f 156 482 155
f 155 482 481
f 155 481 158
f 158 481 484
f 158 484 157
f 157 484 483
f 157 483 160
f 160 483 486
f 160 486 159
f 159 486 485
f 159 485 162
f 162 485 488
f 162 488 161
f 161 488 487
f 161 487 164
f 164 487 490
f 164 490 163
f 163 490 489
f 163 489 166
f 166 489 492
f 166 492 165
f 165 492 491
f 165 491 168
f 168 491 494
f 168 494 167
f 167 494 493
f 167 493 170
f 170 493 496
f 170 496 169
f 169 496 495
f 169 495 172
f 172 495 498
f 172 498 171
f 171 498 497
f 171 497 229
f 229 497 555
f 229 555 244
f 244 555 570
f 244 570 249
f 249 570 575
f 249 575 230
f 230 575 556
f 230 556 212
f 212 556 538
f 212 538 174
f 174 538 499
f 174 499 175
f 175 499 501
f 175 501 173
f 173 501 500
f 173 500 177
f 177 500 503
f 177 503 176
f 176 503 502
f 176 502 179
f 179 502 505
f 179 505 178
f 178 505 504
f 178 504 245
f 245 504 571
f 245 571 250
f 250 571 576
f 250 576 261
f 261 576 587
f 261 587 309
f 309 587 635
f 309 635 213
f 213 635 539
f 213 539 181
f 181 539 506
f 181 506 182
f 182 506 508
f 182 508 180
f 180 508 507
f 180 507 184
f 184 507 510
f 184 510 183
f 183 510 509
f 183 509 214
f 214 509 540
f 214 540 231
f 231 540 557
f 231 557 319
f 319 557 645
f 319 645 325
f 325 645 651
f 325 651 326
f 326 651 652
f 326 652 324
f 324 652 650
f 324 650 323
f 323 650 649
f 323 649 321
f 321 649 647
f 321 647 320
f 320 647 646
f 320 646 313
f 313 646 639
f 313 639 310
f 310 639 636
f 310 636 306
f 306 636 632
f 306 632 303
f 303 632 629
f 303 629 299
f 299 629 625
f 299 625 295
f 295 625 621
f 295 621 291
f 291 621 617
f 291 617 283
f 283 617 609
f 283 609 279
f 279 609 605
f 279 605 273
f 273 605 599
f 273 599 268
f 268 599 594
f 268 594 262
f 262 594 588
f 262 588 255
f 255 588 581
f 255 581 251
f 251 581 577
f 251 577 232
f 232 577 558
f 232 558 221
f 221 558 547
f 221 547 186
f 186 547 511
f 186 511 187
f 187 511 513
f 187 513 185
f 185 513 512
f 185 512 189
f 189 512 515
f 189 515 188
f 188 515 514
f 188 514 191
f 191 514 517
f 191 517 190
f 190 517 516
f 190 516 193
f 193 516 519
f 193 519 192
f 192 519 518
f 192 518 195
f 195 518 521
f 195 521 194
f 194 521 520
f 194 520 197
f 197 520 523
f 197 523 196
f 196 523 522
f 196 522 233
f 233 522 559
f 233 559 234
f 234 559 560
f 234 560 222
f 222 560 548
f 222 548 215
f 215 548 541
f 215 541 199
f 199 541 524
f 199 524 200
f 200 524 526
f 200 526 198
f 198 526 525
f 198 525 202
f 202 525 528
f 202 528 201
f 201 528 527
f 201 527 204
f 204 527 530
f 204 530 203
f 203 530 529
f 203 529 206
f 206 529 532
f 206 532 205
f 205 532 531
f 205 531 208
f 208 531 534
f 208 534 207
f 207 534 533
f 207 533 2
f 2 533 327
f 2 327 3
f 3 327 329
f 3 329 1
f 1 329 328
