o 
v 31.28 0 -0.23
v 31.515 0 -0.007
v 31.376 0 -0.081
v 22.043 0 -3.909
v 28.29 0 -1.51
v 24.993 0 -2.714
v 16.88 0 -6.418
v 19.364 0 -5.131
v 12.2 0 -9.33
v 14.518 0 -7.806
v 7.972 0 -12.286
v 9.744 0 -11.029
v 5.978 0 -13.877
v 6.759 0 -13.201
v 5.21 0 -14.92
v 5.503 0 -14.416
v 4.904 0 -15.794
v 5.018 0 -15.36
v 4.912 0 -17.036
v 4.869 0 -16.32
v 5.24 0 -19.43
v 5.036 0 -18.04
v 5.76 0 -22.189
v 5.501 0 -21.029
v 6.436 0 -23.505
v 6.059 0 -22.988
v 7.59 0 -24.01
v 6.933 0 -23.819
v 9.69 0 -29.203
v 9.21 0 -26.7
v 9.402 0 -27.869
v 10.443 0 -31.994
v 10.046 0 -30.609
v 11.25 0 -34.33
v 10.854 0 -33.266
v 13.465 0 -38.12
v 12.214 0 -36.238
v 16.691 0 -41.663
v 14.969 0 -39.94
v 20.66 0 -44.68
v 18.6 0 -43.255
v 24.216 0 -52.694
v 24.47 0 -50.36
v 24.266 0 -51.749
v 25.001 0 -53.909
v 24.425 0 -53.36
v 27.68 0 -55.31
v 26.051 0 -54.504
v 31.425 0 -56.902
v 29.806 0 -56.321
v 34.121 0 -56.698
v 32.783 0 -57.034
v 37.72 0 -54.55
v 35.686 0 -55.876
v 41.028 0 -52.119
v 39.199 0 -53.496
v 44.732 0 -49.185
v 42.956 0 -50.615
v 46.82 0 -47.34
v 46.104 0 -48.027
v 47.141 0 -46.781
v 47.032 0 -47.033
v 46.999 0 -46.256
v 47.134 0 -46.537
v 46.3 0 -45.39
v 46.725 0 -45.889
v 46.901 0 -41.635
v 45.829 0 -43.018
v 46.3 0 -42.42
v 47.06 0 -40.359
v 47.171 0 -40.981
v 45.499 0 -38.799
v 46.519 0 -39.665
v 42.485 0 -36.639
v 43.95 0 -37.66
v 40.653 0 -35.628
v 41.446 0 -35.98
v 39.067 0 -35.622
v 39.92 0 -35.527
v 33.27 0 -6.24
v 31.01 0 -15.25
v 33.33 0 -11.43
v 33.189 0 -2.694
v 33.237 0 -4.153
v 32.984 0 -1.133
v 33.11 0 -1.731
v 32.53 0 -0.5
v 32.796 0 -0.766
v 31.928 0 -0.09
v 32.205 0 -0.253
v 31.699 0 -0.009
v 29.061 0 -1.224
v 8.05 0 -24.142
v 9.055 0 -25.814
v 22.056 0 -45.61
v 29.354 0 -18.062
v 24.524 0 -49.288
v 45.829 0 -44.809
v 45.547 0 -43.499
v 28.26 0 -20.177
v 31.159 0 -0.337
v 29.765 0 -0.954
v 30.845 0 -0.5
v 30.37 0 -0.709
v 8.883 0 -25.151
v 24.331 0 -48.31
v 45.547 0 -44.338
v 45.452 0 -43.92
v 27.677 0 -21.817
v 8.674 0 -24.676
v 23.87 0 -47.393
v 37.91 0 -35.86
v 8.403 0 -24.352
v 23.119 0 -46.504
v 37.518 0 -35.909
v 27.553 0 -23.206
v 37.137 0 -35.836
v 27.835 0 -24.566
v 28.47 0 -26.12
v 36.682 0 -35.576
v 28.96 0 -27.075
v 36.069 0 -35.067
v 29.527 0 -27.99
v 35.213 0 -34.246
v 30.245 0 -28.955
v 34.03 0 -33.05
v 31.186 0 -30.06
v 32.424 0 -31.395
v 31.515 10 -0.007
v 31.28 10 -0.23
v 31.376 10 -0.081
v 28.29 10 -1.51
v 22.043 10 -3.909
v 24.993 10 -2.714
v 16.88 10 -6.418
v 19.364 10 -5.131
v 12.2 10 -9.33
v 14.518 10 -7.806
v 7.972 10 -12.286
v 9.744 10 -11.029
v 5.978 10 -13.877
v 6.759 10 -13.201
v 5.21 10 -14.92
v 5.503 10 -14.416
v 4.904 10 -15.794
v 5.018 10 -15.36
v 4.912 10 -17.036
v 4.869 10 -16.32
v 5.24 10 -19.43
v 5.036 10 -18.04
v 5.76 10 -22.189
v 5.501 10 -21.029
v 6.436 10 -23.505
v 6.059 10 -22.988
v 7.59 10 -24.01
v 6.933 10 -23.819
v 9.21 10 -26.7
v 9.69 10 -29.203
v 9.402 10 -27.869
v 10.443 10 -31.994
v 10.046 10 -30.609
v 11.25 10 -34.33
v 10.854 10 -33.266
v 13.465 10 -38.12
v 12.214 10 -36.238
v 16.691 10 -41.663
v 14.969 10 -39.94
v 20.66 10 -44.68
v 18.6 10 -43.255
v 24.47 10 -50.36
v 24.216 10 -52.694
v 24.266 10 -51.749
v 25.001 10 -53.909
v 24.425 10 -53.36
v 27.68 10 -55.31
v 26.051 10 -54.504
v 31.425 10 -56.902
v 29.806 10 -56.321
v 34.121 10 -56.698
v 32.783 10 -57.034
v 37.72 10 -54.55
v 35.686 10 -55.876
v 41.028 10 -52.119
v 39.199 10 -53.496
v 44.732 10 -49.185
v 42.956 10 -50.615
v 46.82 10 -47.34
v 46.104 10 -48.027
v 47.141 10 -46.781
v 47.032 10 -47.033
v 46.999 10 -46.256
v 47.134 10 -46.537
v 46.3 10 -45.39
v 46.725 10 -45.889
v 45.829 10 -43.018
v 46.901 10 -41.635
v 46.3 10 -42.42
v 47.06 10 -40.359
v 47.171 10 -40.981
v 45.499 10 -38.799
v 46.519 10 -39.665
v 42.485 10 -36.639
v 43.95 10 -37.66
v 40.653 10 -35.628
v 41.446 10 -35.98
v 39.067 10 -35.622
v 39.92 10 -35.527
v 31.01 10 -15.25
v 33.27 10 -6.24
v 33.33 10 -11.43
v 33.189 10 -2.694
v 33.237 10 -4.153
v 32.984 10 -1.133
v 33.11 10 -1.731
v 32.53 10 -0.5
v 32.796 10 -0.766
v 31.928 10 -0.09
v 32.205 10 -0.253
v 31.699 10 -0.009
v 29.061 10 -1.224
v 8.05 10 -24.142
v 9.055 10 -25.814
v 22.056 10 -45.61
v 29.354 10 -18.062
v 24.524 10 -49.288
v 45.829 10 -44.809
v 45.547 10 -43.499
v 28.26 10 -20.177
v 31.159 10 -0.337
v 29.765 10 -0.954
v 30.845 10 -0.5
v 30.37 10 -0.709
v 8.883 10 -25.151
v 24.331 10 -48.31
v 45.547 10 -44.338
v 45.452 10 -43.92
v 27.677 10 -21.817
v 8.674 10 -24.676
v 23.87 10 -47.393
v 37.91 10 -35.86
v 8.403 10 -24.352
v 23.119 10 -46.504
v 37.518 10 -35.909
v 27.553 10 -23.206
v 37.137 10 -35.836
v 27.835 10 -24.566
v 28.47 10 -26.12
v 36.682 10 -35.576
v 28.96 10 -27.075
v 36.069 10 -35.067
v 29.527 10 -27.99
v 35.213 10 -34.246
v 30.245 10 -28.955
v 34.03 10 -33.05
v 31.186 10 -30.06
v 32.424 10 -31.395
f 1 2 3
f 4 5 6
f 7 4 8
f 9 7 10
f 11 9 12
f 13 11 14
f 15 13 16
f 17 15 18
f 19 17 20
f 21 19 22
f 23 21 24
f 25 23 26
f 27 25 28
f 29 30 31
f 32 29 33
f 34 32 35
f 36 34 37
f 38 36 39
f 40 38 41
f 42 43 44
f 45 42 46
f 47 45 48
f 49 47 50
f 51 49 52
f 53 51 54
f 55 53 56
f 57 55 58
f 59 57 60
f 61 59 62
f 63 61 64
f 65 63 66
f 67 68 69
f 70 67 71
f 72 70 73
f 74 72 75
f 76 74 77
f 78 76 79
f 80 81 82
f 83 80 84
f 85 83 86
f 87 85 88
f 89 87 90
f 2 89 91
f 4 92 5
f 9 4 7
f 13 9 11
f 17 13 15
f 21 17 19
f 25 21 23
f 93 25 27
f 29 94 30
f 34 29 32
f 38 34 36
f 95 38 40
f 45 43 42
f 49 45 47
f 53 49 51
f 57 53 55
f 61 57 59
f 65 61 63
f 70 68 67
f 74 70 72
f 78 74 76
f 80 96 81
f 85 80 83
f 89 85 87
f 1 89 2
f 9 92 4
f 17 9 13
f 25 17 21
f 34 94 29
f 95 34 38
f 45 97 43
f 53 45 49
f 61 53 57
f 98 61 65
f 70 99 68
f 78 70 74
f 80 100 96
f 89 80 85
f 101 89 1
f 9 102 92
f 25 9 17
f 95 94 34
f 53 97 45
f 98 53 61
f 78 99 70
f 89 100 80
f 103 89 101
f 9 104 102
f 93 9 25
f 95 105 94
f 53 106 97
f 107 53 98
f 78 108 99
f 89 109 100
f 104 89 103
f 93 104 9
f 95 110 105
f 53 111 106
f 108 53 107
f 112 108 78
f 104 109 89
f 113 104 93
f 114 110 95
f 53 114 111
f 112 53 108
f 113 109 104
f 53 110 114
f 115 53 112
f 113 116 109
f 53 113 110
f 117 53 115
f 113 118 116
f 117 113 53
f 113 119 118
f 120 113 117
f 113 121 119
f 122 113 120
f 113 123 121
f 124 113 122
f 113 125 123
f 126 113 124
f 113 127 125
f 128 113 126
f 113 128 127
f 129 130 131
f 132 133 134
f 133 135 136
f 135 137 138
f 137 139 140
f 139 141 142
f 141 143 144
f 143 145 146
f 145 147 148
f 147 149 150
f 149 151 152
f 151 153 154
f 153 155 156
f 157 158 159
f 158 160 161
f 160 162 163
f 162 164 165
f 164 166 167
f 166 168 169
f 170 171 172
f 171 173 174
f 173 175 176
f 175 177 178
f 177 179 180
f 179 181 182
f 181 183 184
f 183 185 186
f 185 187 188
f 187 189 190
f 189 191 192
f 191 193 194
f 195 196 197
f 196 198 199
f 198 200 201
f 200 202 203
f 202 204 205
f 204 206 207
f 208 209 210
f 209 211 212
f 211 213 214
f 213 215 216
f 215 217 218
f 217 129 219
f 220 133 132
f 133 137 135
f 137 141 139
f 141 145 143
f 145 149 147
f 149 153 151
f 153 221 155
f 222 158 157
f 158 162 160
f 162 166 164
f 166 223 168
f 170 173 171
f 173 177 175
f 177 181 179
f 181 185 183
f 185 189 187
f 189 193 191
f 195 198 196
f 198 202 200
f 202 206 204
f 224 209 208
f 209 213 211
f 213 217 215
f 217 130 129
f 220 137 133
f 137 145 141
f 145 153 149
f 222 162 158
f 162 223 166
f 225 173 170
f 173 181 177
f 181 189 185
f 189 226 193
f 227 198 195
f 198 206 202
f 228 209 224
f 209 217 213
f 217 229 130
f 230 137 220
f 137 153 145
f 222 223 162
f 225 181 173
f 181 226 189
f 227 206 198
f 228 217 209
f 217 231 229
f 232 137 230
f 137 221 153
f 233 223 222
f 234 181 225
f 181 235 226
f 236 206 227
f 237 217 228
f 217 232 231
f 232 221 137
f 238 223 233
f 239 181 234
f 181 236 235
f 236 240 206
f 237 232 217
f 232 241 221
f 238 242 223
f 242 181 239
f 181 240 236
f 237 241 232
f 238 181 242
f 181 243 240
f 244 241 237
f 241 181 238
f 181 245 243
f 246 241 244
f 241 245 181
f 247 241 246
f 241 248 245
f 249 241 247
f 241 250 248
f 251 241 249
f 241 252 250
f 253 241 251
f 241 254 252
f 255 241 253
f 241 256 254
f 256 241 255
f 1 130 101
f 101 130 229
f 101 229 103
f 103 229 231
f 103 231 104
f 104 231 232
f 104 232 102
f 102 232 230
f 102 230 92
f 92 230 220
f 92 220 5
f 5 220 132
f 5 132 6
f 6 132 134
f 6 134 4
f 4 134 133
f 4 133 8
f 8 133 136
f 8 136 7
f 7 136 135
f 7 135 10
f 10 135 138
f 10 138 9
f 9 138 137
f 9 137 12
f 12 137 140
f 12 140 11
f 11 140 139
f 11 139 14
f 14 139 142
f 14 142 13
f 13 142 141
f 13 141 16
f 16 141 144
f 16 144 15
f 15 144 143
f 15 143 18
f 18 143 146
f 18 146 17
f 17 146 145
f 17 145 20
f 20 145 148
f 20 148 19
f 19 148 147
f 19 147 22
f 22 147 150
f 22 150 21
f 21 150 149
f 21 149 24
f 24 149 152
f 24 152 23
f 23 152 151
f 23 151 26
f 26 151 154
f 26 154 25
f 25 154 153
f 25 153 28
f 28 153 156
f 28 156 27
f 27 156 155
f 27 155 93
f 93 155 221
f 93 221 113
f 113 221 241
f 113 241 110
f 110 241 238
f 110 238 105
f 105 238 233
f 105 233 94
f 94 233 222
f 94 222 30
f 30 222 157
f 30 157 31
f 31 157 159
f 31 159 29
f 29 159 158
f 29 158 33
f 33 158 161
f 33 161 32
f 32 161 160
f 32 160 35
f 35 160 163
f 35 163 34
f 34 163 162
f 34 162 37
f 37 162 165
f 37 165 36
f 36 165 164
f 36 164 39
f 39 164 167
f 39 167 38
f 38 167 166
f 38 166 41
f 41 166 169
f 41 169 40
f 40 169 168
f 40 168 95
f 95 168 223
f 95 223 114
f 114 223 242
f 114 242 111
f 111 242 239
f 111 239 106
f 106 239 234
f 106 234 97
f 97 234 225
f 97 225 43
f 43 225 170
f 43 170 44
f 44 170 172
f 44 172 42
f 42 172 171
f 42 171 46
f 46 171 174
f 46 174 45
f 45 174 173
f 45 173 48
f 48 173 176
f 48 176 47
f 47 176 175
f 47 175 50
f 50 175 178
f 50 178 49
f 49 178 177
f 49 177 52
f 52 177 180
f 52 180 51
f 51 180 179
f 51 179 54
f 54 179 182
f 54 182 53
f 53 182 181
f 53 181 56
f 56 181 184
f 56 184 55
f 55 184 183
f 55 183 58
f 58 183 186
f 58 186 57
f 57 186 185
f 57 185 60
f 60 185 188
f 60 188 59
f 59 188 187
f 59 187 62
f 62 187 190
f 62 190 61
f 61 190 189
f 61 189 64
f 64 189 192
f 64 192 63
f 63 192 191
f 63 191 66
f 66 191 194
f 66 194 65
f 65 194 193
f 65 193 98
f 98 193 226
f 98 226 107
f 107 226 235
f 107 235 108
f 108 235 236
f 108 236 99
f 99 236 227
f 99 227 68
f 68 227 195
f 68 195 69
f 69 195 197
f 69 197 67
f 67 197 196
f 67 196 71
f 71 196 199
f 71 199 70
f 70 199 198
f 70 198 73
f 73 198 201
f 73 201 72
f 72 201 200
f 72 200 75
f 75 200 203
f 75 203 74
f 74 203 202
f 74 202 77
f 77 202 205
f 77 205 76
f 76 205 204
f 76 204 79
f 79 204 207
f 79 207 78
f 78 207 206
f 78 206 112
f 112 206 240
f 112 240 115
f 115 240 243
f 115 243 117
f 117 243 245
f 117 245 120
f 120 245 248
f 120 248 122
f 122 248 250
f 122 250 124
f 124 250 252
f 124 252 126
f 126 252 254
f 126 254 128
f 128 254 256
f 128 256 127
f 127 256 255
f 127 255 125
f 125 255 253
f 125 253 123
f 123 253 251
f 123 251 121
f 121 251 249
f 121 249 119
f 119 249 247
f 119 247 118
f 118 247 246
f 118 246 116
f 116 246 244
f 116 244 109
f 109 244 237
f 109 237 100
f 100 237 228
f 100 228 96
f 96 228 224
f 96 224 81
f 81 224 208
f 81 208 82
f 82 208 210
f 82 210 80
f 80 210 209
f 80 209 84
f 84 209 212
f 84 212 83
f 83 212 211
f 83 211 86
f 86 211 214
f 86 214 85
f 85 214 213
f 85 213 88
f 88 213 216
f 88 216 87
f 87 216 215
f 87 215 90
f 90 215 218
f 90 218 89
f 89 218 217
f 89 217 91
f 91 217 219
f 91 219 2
f 2 219 129
f 2 129 3
f 3 129 131
f 3 131 1
f 1 131 130
o 
v 68.29 0 -0.2
v 68.319 0 -0.032
v 68.297 0 -0.098
v 67.626 0 -0.7
v 67.979 0 -0.585
v 67.86 0 -0.6
v 67.269 0 -1.78
v 67.434 0 -1.062
v 66.962 0 -4.66
v 67.116 0 -2.948
v 66.55 0 -10.82
v 66.79 0 -7.01
v 67.781 0 -13.058
v 67.46 0 -12.5
v 68.707 0 -14.619
v 68.206 0 -13.78
v 69.827 0 -16.456
v 69.257 0 -15.527
v 61.282 0 -35.487
v 63.68 0 -35.55
v 61.81 0 -35.49
v 60.252 0 -35.548
v 60.754 0 -35.507
v 59.43 0 -35.681
v 59.803 0 -35.606
v 58.195 0 -36.282
v 59.16 0 -35.77
v 55.539 0 -38.202
v 56.915 0 -37.152
v 53.373 0 -40.143
v 54.285 0 -39.258
v 53.059 0 -40.874
v 53.02 0 -40.68
v 53.338 0 -41.446
v 53.169 0 -41.136
v 53.809 0 -42.141
v 53.555 0 -41.787
v 28.176 0 -64.489
v 36.69 0 -58.94
v 32.022 0 -61.952
v 22.681 0 -68.338
v 25.084 0 -66.601
v 19.68 0 -70.88
v 20.902 0 -69.748
v 16.136 0 -75.294
v 17.772 0 -73.028
v 13.67 0 -80.206
v 14.77 0 -77.685
v 12.26 0 -85.66
v 12.835 0 -82.862
v 11.667 0 -90.862
v 11.955 0 -88.017
v 11.256 0 -96.498
v 11.425 0 -93.816
v 11.25 0 -99.52
v 11.189 0 -98.526
v 11.429 0 -99.873
v 11.34 0 -99.724
v 11.591 0 -100
v 11.514 0 -99.966
v 11.71 0 -99.88
v 11.657 0 -99.972
v 12.482 0 -99.434
v 12.125 0 -99.531
v 12.23 0 -99.52
v 13.605 0 -98.43
v 12.906 0 -99.106
v 16.235 0 -95.613
v 14.68 0 -97.301
v 48.701 0 -71.458
v 43.796 0 -74.122
v 45.82 0 -73.08
v 55.022 0 -67.107
v 51.784 0 -69.455
v 61.777 0 -61.524
v 58.369 0 -64.452
v 68.125 0 -56.979
v 67.165 0 -57.107
v 67.52 0 -57.08
v 70.262 0 -56.237
v 69.057 0 -56.691
v 73.286 0 -54.916
v 71.69 0 -55.639
v 75.483 0 -53.849
v 75 0 -54.09
v 75.959 0 -53.221
v 75.793 0 -53.609
v 75.978 0 -51.41
v 76.01 0 -52.537
v 82.786 0 -42.122
v 78.502 0 -45.249
v 79.83 0 -44.32
v 87.29 0 -36.946
v 85.263 0 -39.68
v 90.114 0 -30.427
v 88.897 0 -33.877
v 91.133 0 -25.607
v 90.97 0 -26.55
v 93.072 0 -23.874
v 91.951 0 -24.175
v 92.38 0 -24.07
v 93.967 0 -23.109
v 93.587 0 -23.577
v 94.496 0 -21.367
v 94.256 0 -22.396
v 94.991 0 -17.958
v 94.73 0 -19.95
v 95.103 0 -15.571
v 95.121 0 -16.549
v 94.541 0 -14.295
v 94.915 0 -14.871
v 92.912 0 -12.854
v 93.96 0 -13.69
v 88.896 0 -9.979
v 91.085 0 -11.52
v 85.097 0 -7.433
v 86.761 0 -8.52
v 84.237 0 -6.978
v 84.32 0 -7.01
v 81.34 0 -5.426
v 83.121 0 -6.373
v 82.73 0 -6.15
v 77.131 0 -3.526
v 79.39 0 -4.515
v 72.699 0 -1.75
v 74.817 0 -2.569
v 70.419 0 -0.99
v 71.03 0 -1.18
v 68.401 0 -0.018
v 68.53 0 -0.17
v 68.46 0 -0.072
v 68.354 0 -0.005
v 68.276 0 -0.303
v 70.39 0 -17.36
v 54.09 0 -42.49
v 18.37 0 -93.26
v 41.944 0 -75.111
v 83.484 0 -6.577
v 68.083 0 -0.543
v 71.141 0 -18.571
v 54.59 0 -43.115
v 39.304 0 -57.194
v 11.765 0 -99.79
v 12.022 0 -99.569
v 66.819 0 -57.194
v 77.466 0 -46.132
v 91.276 0 -24.965
v 91.648 0 -24.315
v 83.802 0 -6.753
v 68.67 0 -0.285
v 68.169 0 -0.479
v 11.925 0 -99.629
v 40.174 0 -76.098
v 84.059 0 -6.889
v 68.234 0 -0.397
v 71.681 0 -19.512
v 42.082 0 -55.199
v 11.838 0 -99.704
v 38.396 0 -77.133
v 66.465 0 -57.353
v 76.705 0 -46.994
v 91.435 0 -24.556
v 69.853 0 -0.796
v 68.954 0 -0.434
v 54.86 0 -43.613
v 44.946 0 -53.014
v 21.292 0 -90.108
v 36.522 0 -78.267
v 75.89 0 -49.69
v 69.356 0 -0.607
v 54.88 0 -44.065
v 47.818 0 -50.701
v 34.46 0 -79.55
v 66.088 0 -57.593
v 72.049 0 -20.269
v 65.75 0 -33.57
v 50.619 0 -48.323
v 23.804 0 -87.57
v 31.234 0 -81.635
v 65.672 0 -57.925
v 76.2 0 -47.858
v 54.634 0 -44.55
v 53.27 0 -45.94
v 26.141 0 -85.445
v 65.2 0 -58.36
v 75.935 0 -48.748
v 72.282 0 -20.928
v 67.13 0 -32.211
v 54.103 0 -45.148
v 28.54 0 -83.533
v 72.419 0 -21.576
v 72.5 0 -22.3
v 72.538 0 -22.982
v 68.359 0 -30.887
v 72.525 0 -23.566
v 69.435 0 -29.601
v 72.45 0 -24.105
v 70.358 0 -28.356
v 72.301 0 -24.654
v 72.069 0 -25.268
v 71.127 0 -27.154
v 71.74 0 -26
v 68.319 10 -0.032
v 68.29 10 -0.2
v 68.297 10 -0.098
v 67.979 10 -0.585
v 67.626 10 -0.7
v 67.86 10 -0.6
v 67.269 10 -1.78
v 67.434 10 -1.062
v 66.962 10 -4.66
v 67.116 10 -2.948
v 66.55 10 -10.82
v 66.79 10 -7.01
v 67.781 10 -13.058
v 67.46 10 -12.5
v 68.707 10 -14.619
v 68.206 10 -13.78
v 69.827 10 -16.456
v 69.257 10 -15.527
v 63.68 10 -35.55
v 61.282 10 -35.487
v 61.81 10 -35.49
v 60.252 10 -35.548
v 60.754 10 -35.507
v 59.43 10 -35.681
v 59.803 10 -35.606
v 58.195 10 -36.282
v 59.16 10 -35.77
v 55.539 10 -38.202
v 56.915 10 -37.152
v 53.373 10 -40.143
v 54.285 10 -39.258
v 53.059 10 -40.874
v 53.02 10 -40.68
v 53.338 10 -41.446
v 53.169 10 -41.136
v 53.809 10 -42.141
v 53.555 10 -41.787
v 36.69 10 -58.94
v 28.176 10 -64.489
v 32.022 10 -61.952
v 22.681 10 -68.338
v 25.084 10 -66.601
v 19.68 10 -70.88
v 20.902 10 -69.748
v 16.136 10 -75.294
v 17.772 10 -73.028
v 13.67 10 -80.206
v 14.77 10 -77.685
v 12.26 10 -85.66
v 12.835 10 -82.862
v 11.667 10 -90.862
v 11.955 10 -88.017
v 11.256 10 -96.498
v 11.425 10 -93.816
v 11.25 10 -99.52
v 11.189 10 -98.526
v 11.429 10 -99.873
v 11.34 10 -99.724
v 11.591 10 -100
v 11.514 10 -99.966
v 11.71 10 -99.88
v 11.657 10 -99.972
v 12.125 10 -99.531
v 12.482 10 -99.434
v 12.23 10 -99.52
v 13.605 10 -98.43
v 12.906 10 -99.106
v 16.235 10 -95.613
v 14.68 10 -97.301
v 43.796 10 -74.122
v 48.701 10 -71.458
v 45.82 10 -73.08
v 55.022 10 -67.107
v 51.784 10 -69.455
v 61.777 10 -61.524
v 58.369 10 -64.452
v 67.165 10 -57.107
v 68.125 10 -56.979
v 67.52 10 -57.08
v 70.262 10 -56.237
v 69.057 10 -56.691
v 73.286 10 -54.916
v 71.69 10 -55.639
v 75.483 10 -53.849
v 75 10 -54.09
v 75.959 10 -53.221
v 75.793 10 -53.609
v 75.978 10 -51.41
v 76.01 10 -52.537
v 78.502 10 -45.249
v 82.786 10 -42.122
v 79.83 10 -44.32
v 87.29 10 -36.946
v 85.263 10 -39.68
v 90.114 10 -30.427
v 88.897 10 -33.877
v 91.133 10 -25.607
v 90.97 10 -26.55
v 91.951 10 -24.175
v 93.072 10 -23.874
v 92.38 10 -24.07
v 93.967 10 -23.109
v 93.587 10 -23.577
v 94.496 10 -21.367
v 94.256 10 -22.396
v 94.991 10 -17.958
v 94.73 10 -19.95
v 95.103 10 -15.571
v 95.121 10 -16.549
v 94.541 10 -14.295
v 94.915 10 -14.871
v 92.912 10 -12.854
v 93.96 10 -13.69
v 88.896 10 -9.979
v 91.085 10 -11.52
v 85.097 10 -7.433
v 86.761 10 -8.52
v 84.237 10 -6.978
v 84.32 10 -7.01
v 83.121 10 -6.373
v 81.34 10 -5.426
v 82.73 10 -6.15
v 77.131 10 -3.526
v 79.39 10 -4.515
v 72.699 10 -1.75
v 74.817 10 -2.569
v 70.419 10 -0.99
v 71.03 10 -1.18
v 68.53 10 -0.17
v 68.401 10 -0.018
v 68.46 10 -0.072
v 68.354 10 -0.005
v 68.276 10 -0.303
v 70.39 10 -17.36
v 54.09 10 -42.49
v 18.37 10 -93.26
v 41.944 10 -75.111
v 83.484 10 -6.577
v 68.083 10 -0.543
v 71.141 10 -18.571
v 54.59 10 -43.115
v 39.304 10 -57.194
v 11.765 10 -99.79
v 12.022 10 -99.569
v 66.819 10 -57.194
v 77.466 10 -46.132
v 91.276 10 -24.965
v 91.648 10 -24.315
v 83.802 10 -6.753
v 68.67 10 -0.285
v 68.169 10 -0.479
v 11.925 10 -99.629
v 40.174 10 -76.098
v 84.059 10 -6.889
v 68.234 10 -0.397
v 71.681 10 -19.512
v 42.082 10 -55.199
v 11.838 10 -99.704
v 38.396 10 -77.133
v 66.465 10 -57.353
v 76.705 10 -46.994
v 91.435 10 -24.556
v 69.853 10 -0.796
v 68.954 10 -0.434
v 54.86 10 -43.613
v 44.946 10 -53.014
v 21.292 10 -90.108
v 36.522 10 -78.267
v 75.89 10 -49.69
v 69.356 10 -0.607
v 54.88 10 -44.065
v 47.818 10 -50.701
v 34.46 10 -79.55
v 66.088 10 -57.593
v 72.049 10 -20.269
v 65.75 10 -33.57
v 50.619 10 -48.323
v 23.804 10 -87.57
v 31.234 10 -81.635
v 65.672 10 -57.925
v 76.2 10 -47.858
v 54.634 10 -44.55
v 53.27 10 -45.94
v 26.141 10 -85.445
v 65.2 10 -58.36
v 75.935 10 -48.748
v 72.282 10 -20.928
v 67.13 10 -32.211
v 54.103 10 -45.148
v 28.54 10 -83.533
v 72.419 10 -21.576
v 72.5 10 -22.3
v 72.538 10 -22.982
v 68.359 10 -30.887
v 72.525 10 -23.566
v 69.435 10 -29.601
v 72.45 10 -24.105
v 70.358 10 -28.356
v 72.301 10 -24.654
v 72.069 10 -25.268
v 71.127 10 -27.154
v 71.74 10 -26
f 257 258 259
f 260 261 262
f 263 260 264
f 265 263 266
f 267 265 268
f 269 267 270
f 271 269 272
f 273 271 274
f 275 276 277
f 278 275 279
f 280 278 281
f 282 280 283
f 284 282 285
f 286 284 287
f 288 286 289
f 290 288 291
f 292 290 293
f 294 295 296
f 297 294 298
f 299 297 300
f 301 299 302
f 303 301 304
f 305 303 306
f 307 305 308
f 309 307 310
f 311 309 312
f 313 311 314
f 315 313 316
f 317 315 318
f 319 320 321
f 322 319 323
f 324 322 325
f 326 327 328
f 329 326 330
f 331 329 332
f 333 334 335
f 336 333 337
f 338 336 339
f 340 338 341
f 342 340 343
f 344 342 345
f 346 347 348
f 349 346 350
f 351 349 352
f 353 351 354
f 355 356 357
f 358 355 359
f 360 358 361
f 362 360 363
f 364 362 365
f 366 364 367
f 368 366 369
f 370 368 371
f 372 370 373
f 374 372 375
f 376 377 378
f 379 376 380
f 381 379 382
f 383 381 384
f 385 386 387
f 258 385 388
f 389 258 257
f 263 261 260
f 267 263 265
f 271 267 269
f 390 271 273
f 278 276 275
f 282 278 280
f 286 282 284
f 290 286 288
f 391 290 292
f 297 295 294
f 301 297 299
f 305 301 303
f 309 305 307
f 313 309 311
f 317 313 315
f 322 320 319
f 392 322 324
f 326 393 327
f 331 326 329
f 336 334 333
f 340 336 338
f 344 340 342
f 349 347 346
f 353 349 351
f 358 356 355
f 362 358 360
f 366 362 364
f 370 366 368
f 374 370 372
f 376 394 377
f 381 376 379
f 258 386 385
f 263 395 261
f 271 263 267
f 396 271 390
f 282 276 278
f 290 282 286
f 397 290 391
f 297 398 295
f 305 297 301
f 313 305 309
f 399 313 317
f 322 400 320
f 331 393 326
f 336 401 334
f 344 336 340
f 349 402 347
f 403 349 353
f 358 404 356
f 366 358 362
f 374 366 370
f 376 405 394
f 383 376 381
f 258 406 386
f 263 407 395
f 396 263 271
f 290 276 282
f 305 398 297
f 399 305 313
f 322 408 400
f 331 409 393
f 344 401 336
f 403 402 349
f 366 404 358
f 410 366 374
f 383 405 376
f 389 406 258
f 263 411 407
f 412 263 396
f 397 276 290
f 305 413 398
f 414 305 399
f 392 408 322
f 331 415 409
f 344 416 401
f 403 417 402
f 366 418 404
f 405 366 410
f 419 405 383
f 389 420 406
f 412 411 263
f 421 276 397
f 305 422 413
f 408 305 414
f 423 408 392
f 331 424 415
f 425 416 344
f 418 417 403
f 405 418 366
f 426 405 419
f 389 426 420
f 412 389 411
f 427 276 421
f 305 428 422
f 423 305 408
f 331 429 424
f 425 430 416
f 405 417 418
f 389 405 426
f 431 389 412
f 427 432 276
f 305 433 428
f 434 305 423
f 331 435 429
f 425 436 430
f 405 437 417
f 431 405 389
f 438 432 427
f 305 439 433
f 440 305 434
f 441 435 331
f 442 436 425
f 405 442 437
f 443 405 431
f 438 444 432
f 305 445 439
f 446 305 440
f 436 435 441
f 405 436 442
f 447 405 443
f 445 444 438
f 446 445 305
f 448 405 447
f 446 444 445
f 449 405 448
f 446 450 444
f 451 405 449
f 446 452 450
f 453 405 451
f 435 452 446
f 453 436 405
f 435 454 452
f 455 436 453
f 436 454 435
f 456 436 455
f 436 457 454
f 458 436 456
f 436 458 457
f 459 460 461
f 462 463 464
f 463 465 466
f 465 467 468
f 467 469 470
f 469 471 472
f 471 473 474
f 473 475 476
f 477 478 479
f 478 480 481
f 480 482 483
f 482 484 485
f 484 486 487
f 486 488 489
f 488 490 491
f 490 492 493
f 492 494 495
f 496 497 498
f 497 499 500
f 499 501 502
f 501 503 504
f 503 505 506
f 505 507 508
f 507 509 510
f 509 511 512
f 511 513 514
f 513 515 516
f 515 517 518
f 517 519 520
f 521 522 523
f 522 524 525
f 524 526 527
f 528 529 530
f 529 531 532
f 531 533 534
f 535 536 537
f 536 538 539
f 538 540 541
f 540 542 543
f 542 544 545
f 544 546 547
f 548 549 550
f 549 551 552
f 551 553 554
f 553 555 556
f 557 558 559
f 558 560 561
f 560 562 563
f 562 564 565
f 564 566 567
f 566 568 569
f 568 570 571
f 570 572 573
f 572 574 575
f 574 576 577
f 578 579 580
f 579 581 582
f 581 583 584
f 583 585 586
f 587 588 589
f 588 459 590
f 459 591 460
f 462 465 463
f 465 469 467
f 469 473 471
f 473 592 475
f 477 480 478
f 480 484 482
f 484 488 486
f 488 492 490
f 492 593 494
f 496 499 497
f 499 503 501
f 503 507 505
f 507 511 509
f 511 515 513
f 515 519 517
f 521 524 522
f 524 594 526
f 595 529 528
f 529 533 531
f 535 538 536
f 538 542 540
f 542 546 544
f 548 551 549
f 551 555 553
f 557 560 558
f 560 564 562
f 564 568 566
f 568 572 570
f 572 576 574
f 596 579 578
f 579 583 581
f 587 459 588
f 597 465 462
f 465 473 469
f 473 598 592
f 477 484 480
f 484 492 488
f 492 599 593
f 600 499 496
f 499 507 503
f 507 515 511
f 515 601 519
f 602 524 521
f 595 533 529
f 603 538 535
f 538 546 542
f 604 551 548
f 551 605 555
f 606 560 557
f 560 568 564
f 568 576 572
f 607 579 596
f 579 585 583
f 608 459 587
f 609 465 597
f 465 598 473
f 477 492 484
f 600 507 499
f 507 601 515
f 610 524 602
f 611 533 595
f 603 546 538
f 604 605 551
f 606 568 560
f 568 612 576
f 607 585 579
f 608 591 459
f 613 465 609
f 465 614 598
f 477 599 492
f 615 507 600
f 507 616 601
f 610 594 524
f 617 533 611
f 618 546 603
f 619 605 604
f 620 568 606
f 568 607 612
f 607 621 585
f 622 591 608
f 613 614 465
f 477 623 599
f 624 507 615
f 507 610 616
f 610 625 594
f 626 533 617
f 618 627 546
f 619 620 605
f 620 607 568
f 607 628 621
f 628 591 622
f 591 614 613
f 477 629 623
f 630 507 624
f 507 625 610
f 631 533 626
f 632 627 618
f 619 607 620
f 607 591 628
f 591 633 614
f 634 629 477
f 635 507 630
f 507 636 625
f 637 533 631
f 638 627 632
f 639 607 619
f 607 633 591
f 634 640 629
f 641 507 635
f 507 642 636
f 637 643 533
f 638 644 627
f 644 607 639
f 607 645 633
f 646 640 634
f 647 507 641
f 507 648 642
f 637 638 643
f 638 607 644
f 607 649 645
f 646 647 640
f 647 648 507
f 607 650 649
f 646 648 647
f 607 651 650
f 652 648 646
f 607 653 651
f 654 648 652
f 607 655 653
f 654 637 648
f 638 655 607
f 656 637 654
f 638 657 655
f 656 638 637
f 638 658 657
f 659 638 656
f 638 660 658
f 660 638 659
f 257 460 389
f 389 460 591
f 389 591 411
f 411 591 613
f 411 613 407
f 407 613 609
f 407 609 395
f 395 609 597
f 395 597 261
f 261 597 462
f 261 462 262
f 262 462 464
f 262 464 260
f 260 464 463
f 260 463 264
f 264 463 466
f 264 466 263
f 263 466 465
f 263 465 266
f 266 465 468
f 266 468 265
f 265 468 467
f 265 467 268
f 268 467 470
f 268 470 267
f 267 470 469
f 267 469 270
f 270 469 472
f 270 472 269
f 269 472 471
f 269 471 272
f 272 471 474
f 272 474 271
f 271 474 473
f 271 473 274
f 274 473 476
f 274 476 273
f 273 476 475
f 273 475 390
f 390 475 592
f 390 592 396
f 396 592 598
f 396 598 412
f 412 598 614
f 412 614 431
f 431 614 633
f 431 633 443
f 443 633 645
f 443 645 447
f 447 645 649
f 447 649 448
f 448 649 650
f 448 650 449
f 449 650 651
f 449 651 451
f 451 651 653
f 451 653 453
f 453 653 655
f 453 655 455
f 455 655 657
f 455 657 456
f 456 657 658
f 456 658 458
f 458 658 660
f 458 660 457
f 457 660 659
f 457 659 454
f 454 659 656
f 454 656 452
f 452 656 654
f 452 654 450
f 450 654 652
f 450 652 444
f 444 652 646
f 444 646 432
f 432 646 634
f 432 634 276
f 276 634 477
f 276 477 277
f 277 477 479
f 277 479 275
f 275 479 478
f 275 478 279
f 279 478 481
f 279 481 278
f 278 481 480
f 278 480 281
f 281 480 483
f 281 483 280
f 280 483 482
f 280 482 283
f 283 482 485
f 283 485 282
f 282 485 484
f 282 484 285
f 285 484 487
f 285 487 284
f 284 487 486
f 284 486 287
f 287 486 489
f 287 489 286
f 286 489 488
f 286 488 289
f 289 488 491
f 289 491 288
f 288 491 490
f 288 490 291
f 291 490 493
f 291 493 290
f 290 493 492
f 290 492 293
f 293 492 495
f 293 495 292
f 292 495 494
f 292 494 391
f 391 494 593
f 391 593 397
f 397 593 599
f 397 599 421
f 421 599 623
f 421 623 427
f 427 623 629
f 427 629 438
f 438 629 640
f 438 640 445
f 445 640 647
f 445 647 439
f 439 647 641
f 439 641 433
f 433 641 635
f 433 635 428
f 428 635 630
f 428 630 422
f 422 630 624
f 422 624 413
f 413 624 615
f 413 615 398
f 398 615 600
f 398 600 295
f 295 600 496
f 295 496 296
f 296 496 498
f 296 498 294
f 294 498 497
f 294 497 298
f 298 497 500
f 298 500 297
f 297 500 499
f 297 499 300
f 300 499 502
f 300 502 299
f 299 502 501
f 299 501 302
f 302 501 504
f 302 504 301
f 301 504 503
f 301 503 304
f 304 503 506
f 304 506 303
f 303 506 505
f 303 505 306
f 306 505 508
f 306 508 305
f 305 508 507
f 305 507 308
f 308 507 510
f 308 510 307
f 307 510 509
f 307 509 310
f 310 509 512
f 310 512 309
f 309 512 511
f 309 511 312
f 312 511 514
f 312 514 311
f 311 514 513
f 311 513 314
f 314 513 516
f 314 516 313
f 313 516 515
f 313 515 316
f 316 515 518
f 316 518 315
f 315 518 517
f 315 517 318
f 318 517 520
f 318 520 317
f 317 520 519
f 317 519 399
f 399 519 601
f 399 601 414
f 414 601 616
f 414 616 408
f 408 616 610
f 408 610 400
f 400 610 602
f 400 602 320
f 320 602 521
f 320 521 321
f 321 521 523
f 321 523 319
f 319 523 522
f 319 522 323
f 323 522 525
f 323 525 322
f 322 525 524
f 322 524 325
f 325 524 527
f 325 527 324
f 324 527 526
f 324 526 392
f 392 526 594
f 392 594 423
f 423 594 625
f 423 625 434
f 434 625 636
f 434 636 440
f 440 636 642
f 440 642 446
f 446 642 648
f 446 648 435
f 435 648 637
f 435 637 429
f 429 637 631
f 429 631 424
f 424 631 626
f 424 626 415
f 415 626 617
f 415 617 409
f 409 617 611
f 409 611 393
f 393 611 595
f 393 595 327
f 327 595 528
f 327 528 328
f 328 528 530
f 328 530 326
f 326 530 529
f 326 529 330
f 330 529 532
f 330 532 329
f 329 532 531
f 329 531 332
f 332 531 534
f 332 534 331
f 331 534 533
f 331 533 441
f 441 533 643
f 441 643 436
f 436 643 638
f 436 638 430
f 430 638 632
f 430 632 416
f 416 632 618
f 416 618 401
f 401 618 603
f 401 603 334
f 334 603 535
f 334 535 335
f 335 535 537
f 335 537 333
f 333 537 536
f 333 536 337
f 337 536 539
f 337 539 336
f 336 539 538
f 336 538 339
f 339 538 541
f 339 541 338
f 338 541 540
f 338 540 341
f 341 540 543
f 341 543 340
f 340 543 542
f 340 542 343
f 343 542 545
f 343 545 342
f 342 545 544
f 342 544 345
f 345 544 547
f 345 547 344
f 344 547 546
f 344 546 425
f 425 546 627
f 425 627 442
f 442 627 644
f 442 644 437
f 437 644 639
f 437 639 417
f 417 639 619
f 417 619 402
f 402 619 604
f 402 604 347
f 347 604 548
f 347 548 348
f 348 548 550
f 348 550 346
f 346 550 549
f 346 549 350
f 350 549 552
f 350 552 349
f 349 552 551
f 349 551 352
f 352 551 554
f 352 554 351
f 351 554 553
f 351 553 354
f 354 553 556
f 354 556 353
f 353 556 555
f 353 555 403
f 403 555 605
f 403 605 418
f 418 605 620
f 418 620 404
f 404 620 606
f 404 606 356
f 356 606 557
f 356 557 357
f 357 557 559
f 357 559 355
f 355 559 558
f 355 558 359
f 359 558 561
f 359 561 358
f 358 561 560
f 358 560 361
f 361 560 563
f 361 563 360
f 360 563 562
f 360 562 363
f 363 562 565
f 363 565 362
f 362 565 564
f 362 564 365
f 365 564 567
f 365 567 364
f 364 567 566
f 364 566 367
f 367 566 569
f 367 569 366
f 366 569 568
f 366 568 369
f 369 568 571
f 369 571 368
f 368 571 570
f 368 570 371
f 371 570 573
f 371 573 370
f 370 573 572
f 370 572 373
f 373 572 575
f 373 575 372
f 372 575 574
f 372 574 375
f 375 574 577
f 375 577 374
f 374 577 576
f 374 576 410
f 410 576 612
f 410 612 405
f 405 612 607
f 405 607 394
f 394 607 596
f 394 596 377
f 377 596 578
f 377 578 378
f 378 578 580
f 378 580 376
f 376 580 579
f 376 579 380
f 380 579 582
f 380 582 379
f 379 582 581
f 379 581 382
f 382 581 584
f 382 584 381
f 381 584 583
f 381 583 384
f 384 583 586
f 384 586 383
f 383 586 585
f 383 585 419
f 419 585 621
f 419 621 426
f 426 621 628
f 426 628 420
f 420 628 622
f 420 622 406
f 406 622 608
f 406 608 386
f 386 608 587
f 386 587 387
f 387 587 589
f 387 589 385
f 385 589 588
f 385 588 388
f 388 588 590
f 388 590 258
f 258 590 459
f 258 459 259
f 259 459 461
f 259 461 257
f 257 461 460
o 
v 65.23 0 -62.67
v 65.847 0 -62.164
v 65.532 0 -62.404
v 54.819 0 -71.296
v 56.38 0 -70.12
v 55.486 0 -70.754
v 54.128 0 -72.147
v 54.369 0 -71.756
v 54.24 0 -72.77
v 54.088 0 -72.481
v 54.797 0 -73.205
v 54.43 0 -72.949
v 55.933 0 -73.882
v 55.309 0 -73.521
v 57.39 0 -74.67
v 56.638 0 -74.27
v 85.177 0 -96.884
v 82.94 0 -94.33
v 84.067 0 -95.659
v 87.093 0 -98.779
v 86.206 0 -97.945
v 88.19 0 -99.52
v 87.775 0 -99.324
v 88.766 0 -99.01
v 88.531 0 -99.402
v 88.937 0 -97.184
v 88.9 0 -98.289
v 88.74 0 -93.6
v 88.883 0 -95.639
v 88.039 0 -86.762
v 88.405 0 -89.804
v 87.031 0 -82.088
v 87.596 0 -84.261
v 85.35 0 -77.87
v 86.298 0 -80.029
v 83.791 0 -74.922
v 84.557 0 -76.283
v 82.126 0 -72.585
v 82.999 0 -73.714
v 79.92 0 -70.27
v 81.117 0 -71.461
v 75.666 0 -66.98
v 78.16 0 -68.806
v 70.181 0 -63.363
v 72.864 0 -65.072
v 66.88 0 -61.66
v 68.044 0 -62.132
v 66.443 0 -61.8
v 66.69 0 -61.697
v 66.156 0 -61.959
v 63.86 0 -63.914
v 57.329 0 -69.41
v 59.332 0 -75.688
v 81.17 0 -92.319
v 58.741 0 -68.275
v 61.403 0 -76.843
v 62.196 0 -65.368
v 60.426 0 -66.875
v 79.042 0 -90.142
v 76.662 0 -87.894
v 74.138 0 -85.671
v 63.509 0 -78.079
v 71.575 0 -83.571
v 65.554 0 -79.337
v 69.08 0 -81.69
v 67.443 0 -80.56
v 65.847 10 -62.164
v 65.23 10 -62.67
v 65.532 10 -62.404
v 56.38 10 -70.12
v 54.819 10 -71.296
v 55.486 10 -70.754
v 54.128 10 -72.147
v 54.369 10 -71.756
v 54.24 10 -72.77
v 54.088 10 -72.481
v 54.797 10 -73.205
v 54.43 10 -72.949
v 55.933 10 -73.882
v 55.309 10 -73.521
v 57.39 10 -74.67
v 56.638 10 -74.27
v 82.94 10 -94.33
v 85.177 10 -96.884
v 84.067 10 -95.659
v 87.093 10 -98.779
v 86.206 10 -97.945
v 88.19 10 -99.52
v 87.775 10 -99.324
v 88.766 10 -99.01
v 88.531 10 -99.402
v 88.937 10 -97.184
v 88.9 10 -98.289
v 88.74 10 -93.6
v 88.883 10 -95.639
v 88.039 10 -86.762
v 88.405 10 -89.804
v 87.031 10 -82.088
v 87.596 10 -84.261
v 85.35 10 -77.87
v 86.298 10 -80.029
v 83.791 10 -74.922
v 84.557 10 -76.283
v 82.126 10 -72.585
v 82.999 10 -73.714
v 79.92 10 -70.27
v 81.117 10 -71.461
v 75.666 10 -66.98
v 78.16 10 -68.806
v 70.181 10 -63.363
v 72.864 10 -65.072
v 66.88 10 -61.66
v 68.044 10 -62.132
v 66.443 10 -61.8
v 66.69 10 -61.697
v 66.156 10 -61.959
v 63.86 10 -63.914
v 57.329 10 -69.41
v 59.332 10 -75.688
v 81.17 10 -92.319
v 58.741 10 -68.275
v 61.403 10 -76.843
v 62.196 10 -65.368
v 60.426 10 -66.875
v 79.042 10 -90.142
v 76.662 10 -87.894
v 74.138 10 -85.671
v 63.509 10 -78.079
v 71.575 10 -83.571
v 65.554 10 -79.337
v 69.08 10 -81.69
v 67.443 10 -80.56
f 661 662 663
f 664 665 666
f 667 664 668
f 669 667 670
f 671 669 672
f 673 671 674
f 675 673 676
f 677 678 679
f 680 677 681
f 682 680 683
f 684 682 685
f 686 684 687
f 688 686 689
f 690 688 691
f 692 690 693
f 694 692 695
f 696 694 697
f 698 696 699
f 700 698 701
f 702 700 703
f 704 702 705
f 706 704 707
f 708 706 709
f 662 708 710
f 711 662 661
f 664 712 665
f 669 664 667
f 673 669 671
f 713 673 675
f 680 678 677
f 684 680 682
f 688 684 686
f 692 688 690
f 696 692 694
f 700 696 698
f 704 700 702
f 708 704 706
f 711 708 662
f 669 712 664
f 713 669 673
f 680 714 678
f 688 680 684
f 696 688 692
f 704 696 700
f 711 704 708
f 669 715 712
f 716 669 713
f 688 714 680
f 704 688 696
f 717 704 711
f 669 718 715
f 688 719 714
f 717 688 704
f 669 717 718
f 688 720 719
f 716 717 669
f 688 721 720
f 722 717 716
f 688 723 721
f 724 717 722
f 688 725 723
f 724 688 717
f 688 726 725
f 726 688 724
f 727 728 729
f 730 731 732
f 731 733 734
f 733 735 736
f 735 737 738
f 737 739 740
f 739 741 742
f 743 744 745
f 744 746 747
f 746 748 749
f 748 750 751
f 750 752 753
f 752 754 755
f 754 756 757
f 756 758 759
f 758 760 761
f 760 762 763
f 762 764 765
f 764 766 767
f 766 768 769
f 768 770 771
f 770 772 773
f 772 774 775
f 774 727 776
f 727 777 728
f 778 731 730
f 731 735 733
f 735 739 737
f 739 779 741
f 743 746 744
f 746 750 748
f 750 754 752
f 754 758 756
f 758 762 760
f 762 766 764
f 766 770 768
f 770 774 772
f 774 777 727
f 778 735 731
f 735 779 739
f 780 746 743
f 746 754 750
f 754 762 758
f 762 770 766
f 770 777 774
f 781 735 778
f 735 782 779
f 780 754 746
f 754 770 762
f 770 783 777
f 784 735 781
f 785 754 780
f 754 783 770
f 783 735 784
f 786 754 785
f 783 782 735
f 787 754 786
f 783 788 782
f 789 754 787
f 783 790 788
f 791 754 789
f 754 790 783
f 792 754 791
f 754 792 790
f 661 728 711
f 711 728 777
f 711 777 717
f 717 777 783
f 717 783 718
f 718 783 784
f 718 784 715
f 715 784 781
f 715 781 712
f 712 781 778
f 712 778 665
f 665 778 730
f 665 730 666
f 666 730 732
f 666 732 664
f 664 732 731
f 664 731 668
f 668 731 734
f 668 734 667
f 667 734 733
f 667 733 670
f 670 733 736
f 670 736 669
f 669 736 735
f 669 735 672
f 672 735 738
f 672 738 671
f 671 738 737
f 671 737 674
f 674 737 740
f 674 740 673
f 673 740 739
f 673 739 676
f 676 739 742
f 676 742 675
f 675 742 741
f 675 741 713
f 713 741 779
f 713 779 716
f 716 779 782
f 716 782 722
f 722 782 788
f 722 788 724
f 724 788 790
f 724 790 726
f 726 790 792
f 726 792 725
f 725 792 791
f 725 791 723
f 723 791 789
f 723 789 721
f 721 789 787
f 721 787 720
f 720 787 786
f 720 786 719
f 719 786 785
f 719 785 714
f 714 785 780
f 714 780 678
f 678 780 743
f 678 743 679
f 679 743 745
f 679 745 677
f 677 745 744
f 677 744 681
f 681 744 747
f 681 747 680
f 680 747 746
f 680 746 683
f 683 746 749
f 683 749 682
f 682 749 748
f 682 748 685
f 685 748 751
f 685 751 684
f 684 751 750
f 684 750 687
f 687 750 753
f 687 753 686
f 686 753 752
f 686 752 689
f 689 752 755
f 689 755 688
f 688 755 754
f 688 754 691
f 691 754 757
f 691 757 690
f 690 757 756
f 690 756 693
f 693 756 759
f 693 759 692
f 692 759 758
f 692 758 695
f 695 758 761
f 695 761 694
f 694 761 760
f 694 760 697
f 697 760 763
f 697 763 696
f 696 763 762
f 696 762 699
f 699 762 765
f 699 765 698
f 698 765 764
f 698 764 701
f 701 764 767
f 701 767 700
f 700 767 766
f 700 766 703
f 703 766 769
f 703 769 702
f 702 769 768
f 702 768 705
f 705 768 771
f 705 771 704
f 704 771 770
f 704 770 707
f 707 770 773
f 707 773 706
f 706 773 772
f 706 772 709
f 709 772 775
f 709 775 708
f 708 775 774
f 708 774 710
f 710 774 776
f 710 776 662
f 662 776 727
f 662 727 663
f 663 727 729
f 663 729 661
f 661 729 728
