o 
v 76.063 0 -47.452
v 58.368 0 -51.606
v 75.746 0 -50.354
v 76.454 0 -53.211
v 24.373 0 -48.748
v 41.806 0 -50.744
v 41.73 0 -49.71
v -0.107 0 -49.836
v 7.709 0 -51.085
v 7.632 0 -49.926
v 1.735 0 -57.748
v 0.307 0 -53.91
v 7.202 0 -63.755
v 4.083 0 -61.101
v 14.905 0 -66.331
v 10.889 0 -65.536
v 22.886 0 -64.821
v 18.993 0 -66.087
v 29.116 0 -59.609
v 26.335 0 -62.614
v 31.541 0 -54.975
v 31.05 0 -56
v 35.611 0 -56.68
v 34.835 0 -54.823
v 34.97 0 -55.17
v 37.325 0 -59.472
v 36.399 0 -58.119
v 39.556 0 -61.872
v 38.381 0 -60.728
v 42.217 0 -63.785
v 40.839 0 -62.895
v 45.202 0 -65.136
v 43.676 0 -64.535
v 48.395 0 -65.873
v 46.78 0 -65.584
v 53.268 0 -65.67
v 50.03 0 -66
v 59.116 0 -63.201
v 56.324 0 -64.719
v 63.568 0 -58.696
v 61.559 0 -61.175
v 65.9 0 -53.66
v 65.06 0 -55.82
v 69.834 0 -57.062
v 68.734 0 -54.341
v 68.89 0 -54.8
v 72.688 0 -61.031
v 71.109 0 -59.155
v 76.601 0 -63.96
v 74.533 0 -62.645
v 81.213 0 -65.581
v 78.845 0 -64.947
v 86.099 0 -65.744
v 83.65 0 -65.849
v 90.808 0 -64.435
v 88.504 0 -65.269
v 93.961 0 -62.572
v 92.96 0 -63.26
v 95.779 0 -60.966
v 94.902 0 -61.806
v 97.315 0 -59.088
v 96.585 0 -60.058
v 98.529 0 -56.987
v 97.965 0 -58.062
v 99.39 0 -54.718
v 99.005 0 -55.87
v 99.873 0 -52.34
v 99.68 0 -53.539
v 99.928 0 -48.159
v 99.97 0 -51.13
v 98.518 0 -42.806
v 99.44 0 -45.375
v 95.42 0 -38.43
v 97.174 0 -40.482
v 91.886 0 -35.815
v 93.27 0 -36.68
v 89.147 0 -34.658
v 90.533 0 -35.146
v 86.029 0 -34.147
v 87.667 0 -34.33
v 82.9 0 -34.089
v 84.17 0 -34.09
v 81.022 0 -34.201
v 81.876 0 -34.123
v 79.512 0 -34.53
v 80.26 0 -34.334
v 77.659 0 -35.234
v 78.7 0 -34.8
v 75.678 0 -36.31
v 76.65 0 -35.738
v 73.862 0 -37.646
v 74.747 0 -36.947
v 72.245 0 -39.217
v 73.027 0 -38.404
v 70.857 0 -40.993
v 71.521 0 -40.081
v 69.724 0 -42.942
v 70.257 0 -41.948
v 68.889 0 -44.857
v 69.26 0 -43.97
v 63.995 0 -41.938
v 64.769 0 -43.48
v 64.48 0 -42.85
v 62.855 0 -40.218
v 63.452 0 -41.06
v 61.503 0 -38.657
v 62.204 0 -39.416
v 59.963 0 -37.282
v 60.755 0 -37.945
v 58.26 0 -36.117
v 59.13 0 -36.672
v 56.421 0 -35.179
v 57.355 0 -35.618
v 53.963 0 -34.375
v 55.46 0 -34.8
v 50.245 0 -34.035
v 52.18 0 -34.12
v 46.447 0 -34.375
v 48.29 0 -34.12
v 42.574 0 -35.773
v 44.85 0 -34.8
v 38.821 0 -38.565
v 40.576 0 -37.017
v 35.911 0 -42.717
v 37.277 0 -40.453
v 30.684 0 -43.1
v 31.23 0 -44.77
v 31.086 0 -44.04
v 29.289 0 -40.88
v 30.07 0 -42.022
v 27.41 0 -38.69
v 28.387 0 -39.745
v 25.51 0 -37.009
v 26.495 0 -37.81
v 23.36 0 -35.662
v 24.463 0 -36.291
v 21.017 0 -34.689
v 22.208 0 -35.127
v 18.546 0 -34.113
v 19.793 0 -34.35
v 16.014 0 -33.952
v 17.283 0 -33.98
v 13.49 0 -34.21
v 14.747 0 -34.029
v 10.53 0 -34.975
v 11.992 0 -34.522
v 7.768 0 -36.286
v 9.118 0 -35.564
v 5.305 0 -38.096
v 6.494 0 -37.132
v 3.228 0 -40.339
v 4.213 0 -39.168
v 1.614 0 -42.935
v 2.359 0 -41.599
v 0.52 0 -45.79
v 0.999 0 -44.337
v 24.181 0 -47.62
v 58.52 0 -49.95
v 78.165 0 -55.728
v 42.031 0 -51.818
v 7.949 0 -52.222
v 65.047 0 -44.08
v 34.69 0 -45.39
v 31.313 0 -45.137
v 7.72 0 -48.768
v 23.86 0 -46.65
v 58.359 0 -48.29
v 42.39 0 -52.888
v 8.348 0 -53.313
v 31.945 0 -54.28
v 34.682 0 -54.523
v 68.579 0 -54.024
v 68.601 0 -45.456
v 65.301 0 -44.623
v 7.971 0 -47.634
v 23.373 0 -45.809
v 57.895 0 -46.726
v 42.866 0 -53.909
v 8.897 0 -54.336
v 65.52 0 -45.08
v 34.547 0 -45.7
v 8.381 0 -46.547
v 22.724 0 -44.946
v 57.153 0 -45.296
v 43.441 0 -54.837
v 9.586 0 -55.272
v 34.513 0 -54.272
v 68.389 0 -53.825
v 68.341 0 -45.822
v 34.39 0 -45.929
v 31.54 0 -45.483
v 8.94 0 -45.529
v 21.958 0 -44.107
v 44.1 0 -55.63
v 10.4 0 -56.1
v 34.328 0 -54.074
v 65.69 0 -45.425
v 31.882 0 -45.787
v 9.638 0 -44.6
v 21.119 0 -43.341
v 45.341 0 -56.738
v 11.265 0 -56.822
v 65.8 0 -45.63
v 20.255 0 -42.693
v 46.778 0 -57.576
v 12.117 0 -57.396
v 65.893 0 -45.762
v 10.46 0 -43.78
v 19.41 0 -42.21
v 24.438 0 -49.955
v 66.049 0 -45.876
v 10.864 0 -43.45
v 18.527 0 -41.907
v 12.985 0 -57.829
v 11.319 0 -43.12
v 13.896 0 -58.131
v 11.797 0 -42.806
v 14.879 0 -58.312
v 12.275 0 -42.523
v 15.96 0 -58.38
v 12.724 0 -42.286
v 16.784 0 -58.324
v 13.12 0 -42.11
v 17.599 0 -58.193
v 14.119 0 -41.842
v 18.399 0 -57.987
v 15.224 0 -41.687
v 19.176 0 -57.708
v 16.37 0 -41.646
v 19.925 0 -57.359
v 17.493 0 -41.72
v 20.638 0 -56.943
v 21.309 0 -56.462
v 21.933 0 -55.922
v 32.31 0 -46.031
v 22.505 0 -55.326
v 32.792 0 -46.192
v 23.02 0 -54.68
v 23.473 0 -53.989
v 33.3 0 -46.25
v 23.86 0 -53.26
v 33.672 0 -46.236
v 24.181 0 -52.29
v 33.967 0 -46.185
v 24.373 0 -51.162
v 34.201 0 -46.086
v 41.917 0 -48.277
v 32.324 0 -53.866
v 32.738 0 -53.687
v 42.441 0 -46.812
v 33.25 0 -53.694
v 43.248 0 -45.394
v 33.92 0 -53.84
v 44.283 0 -44.101
v 45.492 0 -43.013
v 48.353 0 -58.111
v 46.82 0 -42.21
v 34.13 0 -53.929
v 47.772 0 -41.889
v 48.901 0 -41.697
v 50.125 0 -41.632
v 50.003 0 -58.321
v 51.359 0 -41.697
v 51.661 0 -58.198
v 52.518 0 -41.889
v 53.262 0 -57.746
v 54.741 0 -56.985
v 66.262 0 -45.97
v 56.038 0 -55.943
v 53.52 0 -42.21
v 57.102 0 -54.664
v 54.939 0 -42.999
v 66.527 0 -46.04
v 57.889 0 -53.199
v 56.159 0 -44.041
v 67.22 0 -53.66
v 66.838 0 -46.085
v 67.747 0 -53.669
v 68.124 0 -53.716
v 67.19 0 -46.1
v 67.69 0 -46.088
v 80.86 0 -57.61
v 68.056 0 -46.014
v 82.866 0 -58.192
v 77.424 0 -44.802
v 84.95 0 -58.214
v 79.85 0 -42.7
v 87 0 -57.719
v 81.098 0 -42.073
v 88.903 0 -56.746
v 82.371 0 -41.672
v 90.547 0 -55.336
v 83.673 0 -41.495
v 91.82 0 -53.53
v 85.002 0 -41.541
v 92.218 0 -52.479
v 92.451 0 -51.238
v 86.361 0 -41.81
v 87.75 0 -42.3
v 92.521 0 -49.901
v 88.569 0 -42.706
v 92.429 0 -48.562
v 89.325 0 -43.215
v 92.175 0 -47.314
v 90.021 0 -43.825
v 91.76 0 -46.25
v 90.658 0 -44.535
v 91.237 0 -45.344
v 58.368 10 -51.606
v 76.063 10 -47.452
v 75.746 10 -50.354
v 76.454 10 -53.211
v 41.806 10 -50.744
v 24.373 10 -48.748
v 41.73 10 -49.71
v 7.709 10 -51.085
v -0.107 10 -49.836
v 7.632 10 -49.926
v 1.735 10 -57.748
v 0.307 10 -53.91
v 7.202 10 -63.755
v 4.083 10 -61.101
v 14.905 10 -66.331
v 10.889 10 -65.536
v 22.886 10 -64.821
v 18.993 10 -66.087
v 29.116 10 -59.609
v 26.335 10 -62.614
v 31.541 10 -54.975
v 31.05 10 -56
v 34.835 10 -54.823
v 35.611 10 -56.68
v 34.97 10 -55.17
v 37.325 10 -59.472
v 36.399 10 -58.119
v 39.556 10 -61.872
v 38.381 10 -60.728
v 42.217 10 -63.785
v 40.839 10 -62.895
v 45.202 10 -65.136
v 43.676 10 -64.535
v 48.395 10 -65.873
v 46.78 10 -65.584
v 53.268 10 -65.67
v 50.03 10 -66
v 59.116 10 -63.201
v 56.324 10 -64.719
v 63.568 10 -58.696
v 61.559 10 -61.175
v 65.9 10 -53.66
v 65.06 10 -55.82
v 68.734 10 -54.341
v 69.834 10 -57.062
v 68.89 10 -54.8
v 72.688 10 -61.031
v 71.109 10 -59.155
v 76.601 10 -63.96
v 74.533 10 -62.645
v 81.213 10 -65.581
v 78.845 10 -64.947
v 86.099 10 -65.744
v 83.65 10 -65.849
v 90.808 10 -64.435
v 88.504 10 -65.269
v 93.961 10 -62.572
v 92.96 10 -63.26
v 95.779 10 -60.966
v 94.902 10 -61.806
v 97.315 10 -59.088
v 96.585 10 -60.058
v 98.529 10 -56.987
v 97.965 10 -58.062
v 99.39 10 -54.718
v 99.005 10 -55.87
v 99.873 10 -52.34
v 99.68 10 -53.539
v 99.928 10 -48.159
v 99.97 10 -51.13
v 98.518 10 -42.806
v 99.44 10 -45.375
v 95.42 10 -38.43
v 97.174 10 -40.482
v 91.886 10 -35.815
v 93.27 10 -36.68
v 89.147 10 -34.658
v 90.533 10 -35.146
v 86.029 10 -34.147
v 87.667 10 -34.33
v 82.9 10 -34.089
v 84.17 10 -34.09
v 81.022 10 -34.201
v 81.876 10 -34.123
v 79.512 10 -34.53
v 80.26 10 -34.334
v 77.659 10 -35.234
v 78.7 10 -34.8
v 75.678 10 -36.31
v 76.65 10 -35.738
v 73.862 10 -37.646
v 74.747 10 -36.947
v 72.245 10 -39.217
v 73.027 10 -38.404
v 70.857 10 -40.993
v 71.521 10 -40.081
v 69.724 10 -42.942
v 70.257 10 -41.948
v 68.889 10 -44.857
v 69.26 10 -43.97
v 64.769 10 -43.48
v 63.995 10 -41.938
v 64.48 10 -42.85
v 62.855 10 -40.218
v 63.452 10 -41.06
v 61.503 10 -38.657
v 62.204 10 -39.416
v 59.963 10 -37.282
v 60.755 10 -37.945
v 58.26 10 -36.117
v 59.13 10 -36.672
v 56.421 10 -35.179
v 57.355 10 -35.618
v 53.963 10 -34.375
v 55.46 10 -34.8
v 50.245 10 -34.035
v 52.18 10 -34.12
v 46.447 10 -34.375
v 48.29 10 -34.12
v 42.574 10 -35.773
v 44.85 10 -34.8
v 38.821 10 -38.565
v 40.576 10 -37.017
v 35.911 10 -42.717
v 37.277 10 -40.453
v 31.23 10 -44.77
v 30.684 10 -43.1
v 31.086 10 -44.04
v 29.289 10 -40.88
v 30.07 10 -42.022
v 27.41 10 -38.69
v 28.387 10 -39.745
v 25.51 10 -37.009
v 26.495 10 -37.81
v 23.36 10 -35.662
v 24.463 10 -36.291
v 21.017 10 -34.689
v 22.208 10 -35.127
v 18.546 10 -34.113
v 19.793 10 -34.35
v 16.014 10 -33.952
v 17.283 10 -33.98
v 13.49 10 -34.21
v 14.747 10 -34.029
v 10.53 10 -34.975
v 11.992 10 -34.522
v 7.768 10 -36.286
v 9.118 10 -35.564
v 5.305 10 -38.096
v 6.494 10 -37.132
v 3.228 10 -40.339
v 4.213 10 -39.168
v 1.614 10 -42.935
v 2.359 10 -41.599
v 0.52 10 -45.79
v 0.999 10 -44.337
v 24.181 10 -47.62
v 58.52 10 -49.95
v 78.165 10 -55.728
v 42.031 10 -51.818
v 7.949 10 -52.222
v 65.047 10 -44.08
v 34.69 10 -45.39
v 31.313 10 -45.137
v 7.72 10 -48.768
v 23.86 10 -46.65
v 58.359 10 -48.29
v 42.39 10 -52.888
v 8.348 10 -53.313
v 31.945 10 -54.28
v 34.682 10 -54.523
v 68.579 10 -54.024
v 68.601 10 -45.456
v 65.301 10 -44.623
v 7.971 10 -47.634
v 23.373 10 -45.809
v 57.895 10 -46.726
v 42.866 10 -53.909
v 8.897 10 -54.336
v 65.52 10 -45.08
v 34.547 10 -45.7
v 8.381 10 -46.547
v 22.724 10 -44.946
v 57.153 10 -45.296
v 43.441 10 -54.837
v 9.586 10 -55.272
v 34.513 10 -54.272
v 68.389 10 -53.825
v 68.341 10 -45.822
v 34.39 10 -45.929
v 31.54 10 -45.483
v 8.94 10 -45.529
v 21.958 10 -44.107
v 44.1 10 -55.63
v 10.4 10 -56.1
v 34.328 10 -54.074
v 65.69 10 -45.425
v 31.882 10 -45.787
v 9.638 10 -44.6
v 21.119 10 -43.341
v 45.341 10 -56.738
v 11.265 10 -56.822
v 65.8 10 -45.63
v 20.255 10 -42.693
v 46.778 10 -57.576
v 12.117 10 -57.396
v 65.893 10 -45.762
v 10.46 10 -43.78
v 19.41 10 -42.21
v 24.438 10 -49.955
v 66.049 10 -45.876
v 10.864 10 -43.45
v 18.527 10 -41.907
v 12.985 10 -57.829
v 11.319 10 -43.12
v 13.896 10 -58.131
v 11.797 10 -42.806
v 14.879 10 -58.312
v 12.275 10 -42.523
v 15.96 10 -58.38
v 12.724 10 -42.286
v 16.784 10 -58.324
v 13.12 10 -42.11
v 17.599 10 -58.193
v 14.119 10 -41.842
v 18.399 10 -57.987
v 15.224 10 -41.687
v 19.176 10 -57.708
v 16.37 10 -41.646
v 19.925 10 -57.359
v 17.493 10 -41.72
v 20.638 10 -56.943
v 21.309 10 -56.462
v 21.933 10 -55.922
v 32.31 10 -46.031
v 22.505 10 -55.326
v 32.792 10 -46.192
v 23.02 10 -54.68
v 23.473 10 -53.989
v 33.3 10 -46.25
v 23.86 10 -53.26
v 33.672 10 -46.236
v 24.181 10 -52.29
v 33.967 10 -46.185
v 24.373 10 -51.162
v 34.201 10 -46.086
v 41.917 10 -48.277
v 32.324 10 -53.866
v 32.738 10 -53.687
v 42.441 10 -46.812
v 33.25 10 -53.694
v 43.248 10 -45.394
v 33.92 10 -53.84
v 44.283 10 -44.101
v 45.492 10 -43.013
v 48.353 10 -58.111
v 46.82 10 -42.21
v 34.13 10 -53.929
v 47.772 10 -41.889
v 48.901 10 -41.697
v 50.125 10 -41.632
v 50.003 10 -58.321
v 51.359 10 -41.697
v 51.661 10 -58.198
v 52.518 10 -41.889
v 53.262 10 -57.746
v 54.741 10 -56.985
v 66.262 10 -45.97
v 56.038 10 -55.943
v 53.52 10 -42.21
v 57.102 10 -54.664
v 54.939 10 -42.999
v 66.527 10 -46.04
v 57.889 10 -53.199
v 56.159 10 -44.041
v 67.22 10 -53.66
v 66.838 10 -46.085
v 67.747 10 -53.669
v 68.124 10 -53.716
v 67.19 10 -46.1
v 67.69 10 -46.088
v 80.86 10 -57.61
v 68.056 10 -46.014
v 82.866 10 -58.192
v 77.424 10 -44.802
v 84.95 10 -58.214
v 79.85 10 -42.7
v 87 10 -57.719
v 81.098 10 -42.073
v 88.903 10 -56.746
v 82.371 10 -41.672
v 90.547 10 -55.336
v 83.673 10 -41.495
v 91.82 10 -53.53
v 85.002 10 -41.541
v 92.218 10 -52.479
v 92.451 10 -51.238
v 86.361 10 -41.81
v 87.75 10 -42.3
v 92.521 10 -49.901
v 88.569 10 -42.706
v 92.429 10 -48.562
v 89.325 10 -43.215
v 92.175 10 -47.314
v 90.021 10 -43.825
v 91.76 10 -46.25
v 90.658 10 -44.535
v 91.237 10 -45.344
f 1 2 3
f 2 4 3
f 5 6 7
f 8 9 10
f 11 8 12
f 13 11 14
f 15 13 16
f 17 15 18
f 19 17 20
f 21 19 22
f 23 24 25
f 26 23 27
f 28 26 29
f 30 28 31
f 32 30 33
f 34 32 35
f 36 34 37
f 38 36 39
f 40 38 41
f 42 40 43
f 44 45 46
f 47 44 48
f 49 47 50
f 51 49 52
f 53 51 54
f 55 53 56
f 57 55 58
f 59 57 60
f 61 59 62
f 63 61 64
f 65 63 66
f 67 65 68
f 69 67 70
f 71 69 72
f 73 71 74
f 75 73 76
f 77 75 78
f 79 77 80
f 81 79 82
f 83 81 84
f 85 83 86
f 87 85 88
f 89 87 90
f 91 89 92
f 93 91 94
f 95 93 96
f 97 95 98
f 99 97 100
f 101 102 103
f 104 101 105
f 106 104 107
f 108 106 109
f 110 108 111
f 112 110 113
f 114 112 115
f 116 114 117
f 118 116 119
f 120 118 121
f 122 120 123
f 124 122 125
f 126 127 128
f 129 126 130
f 131 129 132
f 133 131 134
f 135 133 136
f 137 135 138
f 139 137 140
f 141 139 142
f 143 141 144
f 145 143 146
f 147 145 148
f 149 147 150
f 151 149 152
f 153 151 154
f 155 153 156
f 10 155 8
f 7 157 5
f 1 158 2
f 2 159 4
f 5 160 6
f 8 161 9
f 13 8 11
f 17 13 15
f 21 17 19
f 26 24 23
f 30 26 28
f 34 30 32
f 38 34 36
f 42 38 40
f 47 45 44
f 51 47 49
f 55 51 53
f 59 55 57
f 63 59 61
f 67 63 65
f 71 67 69
f 75 71 73
f 79 75 77
f 83 79 81
f 87 83 85
f 91 87 89
f 95 91 93
f 99 95 97
f 101 162 102
f 106 101 104
f 110 106 108
f 114 110 112
f 118 114 116
f 122 118 120
f 163 122 124
f 126 164 127
f 131 126 129
f 135 131 133
f 139 135 137
f 143 139 141
f 147 143 145
f 151 147 149
f 155 151 153
f 165 155 10
f 7 166 157
f 1 167 158
f 5 168 160
f 8 169 161
f 17 8 13
f 170 17 21
f 26 171 24
f 34 26 30
f 42 34 38
f 47 172 45
f 55 47 51
f 63 55 59
f 71 63 67
f 79 71 75
f 87 79 83
f 95 87 91
f 173 95 99
f 101 174 162
f 110 101 106
f 118 110 114
f 163 118 122
f 131 164 126
f 139 131 135
f 147 139 143
f 155 147 151
f 175 155 165
f 7 176 166
f 1 177 167
f 5 178 168
f 8 179 169
f 34 171 26
f 55 172 47
f 71 55 63
f 87 71 79
f 173 87 95
f 101 180 174
f 118 101 110
f 181 118 163
f 139 164 131
f 155 139 147
f 182 155 175
f 7 183 176
f 1 184 177
f 5 185 178
f 8 186 179
f 34 187 171
f 55 188 172
f 189 87 173
f 118 180 101
f 190 118 181
f 139 191 164
f 192 155 182
f 7 193 183
f 5 194 185
f 8 195 186
f 34 196 187
f 118 197 180
f 139 198 191
f 199 155 192
f 7 200 193
f 5 201 194
f 8 202 195
f 118 203 197
f 199 139 155
f 7 204 200
f 5 205 201
f 8 206 202
f 118 207 203
f 208 139 199
f 7 209 204
f 210 205 5
f 17 206 8
f 118 211 207
f 212 139 208
f 7 213 209
f 17 214 206
f 215 139 212
f 17 216 214
f 217 139 215
f 17 218 216
f 219 139 217
f 17 220 218
f 221 139 219
f 17 222 220
f 223 139 221
f 17 224 222
f 225 139 223
f 17 226 224
f 227 139 225
f 17 228 226
f 229 139 227
f 17 230 228
f 231 139 229
f 17 232 230
f 213 139 231
f 17 233 232
f 213 198 139
f 17 234 233
f 213 235 198
f 17 236 234
f 213 237 235
f 17 238 236
f 7 237 213
f 17 239 238
f 7 240 237
f 17 241 239
f 7 242 240
f 17 243 241
f 7 244 242
f 17 245 243
f 7 246 244
f 170 245 17
f 7 190 246
f 170 210 245
f 247 190 7
f 248 210 170
f 247 118 190
f 249 210 248
f 250 118 247
f 251 210 249
f 252 118 250
f 253 210 251
f 254 118 252
f 253 205 210
f 255 118 254
f 253 256 205
f 257 118 255
f 258 256 253
f 259 118 257
f 196 256 258
f 260 118 259
f 34 256 196
f 261 118 260
f 34 262 256
f 263 118 261
f 34 264 262
f 265 118 263
f 34 266 264
f 265 211 118
f 34 267 266
f 265 268 211
f 34 269 267
f 270 268 265
f 34 271 269
f 272 268 270
f 42 271 34
f 272 273 268
f 42 274 271
f 275 273 272
f 42 2 274
f 184 273 275
f 276 2 42
f 184 277 273
f 278 2 276
f 1 277 184
f 279 2 278
f 1 280 277
f 279 159 2
f 1 281 280
f 279 282 159
f 1 283 281
f 188 282 279
f 1 189 283
f 55 282 188
f 1 87 189
f 55 284 282
f 285 87 1
f 55 286 284
f 287 87 285
f 55 288 286
f 289 87 287
f 55 290 288
f 291 87 289
f 55 292 290
f 293 87 291
f 55 294 292
f 295 87 293
f 55 296 294
f 295 71 87
f 55 297 296
f 298 71 295
f 71 297 55
f 299 71 298
f 71 300 297
f 301 71 299
f 71 302 300
f 303 71 301
f 71 304 302
f 305 71 303
f 71 306 304
f 307 71 305
f 71 308 306
f 308 71 307
f 309 310 311
f 312 309 311
f 313 314 315
f 316 317 318
f 317 319 320
f 319 321 322
f 321 323 324
f 323 325 326
f 325 327 328
f 327 329 330
f 331 332 333
f 332 334 335
f 334 336 337
f 336 338 339
f 338 340 341
f 340 342 343
f 342 344 345
f 344 346 347
f 346 348 349
f 348 350 351
f 352 353 354
f 353 355 356
f 355 357 358
f 357 359 360
f 359 361 362
f 361 363 364
f 363 365 366
f 365 367 368
f 367 369 370
f 369 371 372
f 371 373 374
f 373 375 376
f 375 377 378
f 377 379 380
f 379 381 382
f 381 383 384
f 383 385 386
f 385 387 388
f 387 389 390
f 389 391 392
f 391 393 394
f 393 395 396
f 395 397 398
f 397 399 400
f 399 401 402
f 401 403 404
f 403 405 406
f 405 407 408
f 409 410 411
f 410 412 413
f 412 414 415
f 414 416 417
f 416 418 419
f 418 420 421
f 420 422 423
f 422 424 425
f 424 426 427
f 426 428 429
f 428 430 431
f 430 432 433
f 434 435 436
f 435 437 438
f 437 439 440
f 439 441 442
f 441 443 444
f 443 445 446
f 445 447 448
f 447 449 450
f 449 451 452
f 451 453 454
f 453 455 456
f 455 457 458
f 457 459 460
f 459 461 462
f 461 463 464
f 463 318 317
f 465 315 314
f 466 310 309
f 467 309 312
f 468 314 313
f 469 317 316
f 317 321 319
f 321 325 323
f 325 329 327
f 331 334 332
f 334 338 336
f 338 342 340
f 342 346 344
f 346 350 348
f 352 355 353
f 355 359 357
f 359 363 361
f 363 367 365
f 367 371 369
f 371 375 373
f 375 379 377
f 379 383 381
f 383 387 385
f 387 391 389
f 391 395 393
f 395 399 397
f 399 403 401
f 403 407 405
f 470 410 409
f 410 414 412
f 414 418 416
f 418 422 420
f 422 426 424
f 426 430 428
f 430 471 432
f 472 435 434
f 435 439 437
f 439 443 441
f 443 447 445
f 447 451 449
f 451 455 453
f 455 459 457
f 459 463 461
f 463 473 318
f 474 315 465
f 475 310 466
f 476 314 468
f 477 317 469
f 317 325 321
f 325 478 329
f 479 334 331
f 334 342 338
f 342 350 346
f 480 355 352
f 355 363 359
f 363 371 367
f 371 379 375
f 379 387 383
f 387 395 391
f 395 403 399
f 403 481 407
f 482 410 470
f 410 418 414
f 418 426 422
f 426 471 430
f 472 439 435
f 439 447 443
f 447 455 451
f 455 463 459
f 463 483 473
f 484 315 474
f 485 310 475
f 486 314 476
f 487 317 477
f 479 342 334
f 480 363 355
f 363 379 371
f 379 395 387
f 395 481 403
f 488 410 482
f 410 426 418
f 426 489 471
f 472 447 439
f 447 463 455
f 463 490 483
f 491 315 484
f 492 310 485
f 493 314 486
f 494 317 487
f 495 342 479
f 496 363 480
f 395 497 481
f 488 426 410
f 426 498 489
f 499 447 472
f 463 500 490
f 501 315 491
f 502 314 493
f 503 317 494
f 504 342 495
f 505 426 488
f 506 447 499
f 463 507 500
f 508 315 501
f 509 314 502
f 510 317 503
f 511 426 505
f 447 507 463
f 512 315 508
f 513 314 509
f 514 317 510
f 515 426 511
f 447 516 507
f 517 315 512
f 513 518 314
f 514 325 317
f 519 426 515
f 447 520 516
f 521 315 517
f 522 325 514
f 447 523 520
f 524 325 522
f 447 525 523
f 526 325 524
f 447 527 525
f 528 325 526
f 447 529 527
f 530 325 528
f 447 531 529
f 532 325 530
f 447 533 531
f 534 325 532
f 447 535 533
f 536 325 534
f 447 537 535
f 538 325 536
f 447 539 537
f 540 325 538
f 447 521 539
f 541 325 540
f 506 521 447
f 542 325 541
f 543 521 506
f 544 325 542
f 545 521 543
f 546 325 544
f 545 315 521
f 547 325 546
f 548 315 545
f 549 325 547
f 550 315 548
f 551 325 549
f 552 315 550
f 553 325 551
f 554 315 552
f 553 478 325
f 498 315 554
f 518 478 553
f 498 555 315
f 518 556 478
f 426 555 498
f 518 557 556
f 426 558 555
f 518 559 557
f 426 560 558
f 518 561 559
f 426 562 560
f 513 561 518
f 426 563 562
f 564 561 513
f 426 565 563
f 564 566 561
f 426 567 565
f 564 504 566
f 426 568 567
f 564 342 504
f 426 569 568
f 570 342 564
f 426 571 569
f 572 342 570
f 426 573 571
f 574 342 572
f 519 573 426
f 575 342 574
f 576 573 519
f 577 342 575
f 576 578 573
f 579 342 577
f 576 580 578
f 579 350 342
f 581 580 576
f 582 350 579
f 581 583 580
f 309 350 582
f 581 492 583
f 309 584 350
f 585 492 581
f 309 586 584
f 585 310 492
f 309 587 586
f 588 310 585
f 467 587 309
f 589 310 588
f 590 587 467
f 591 310 589
f 590 496 587
f 497 310 591
f 590 363 496
f 395 310 497
f 592 363 590
f 395 593 310
f 594 363 592
f 395 595 593
f 596 363 594
f 395 597 595
f 598 363 596
f 395 599 597
f 600 363 598
f 395 601 599
f 602 363 600
f 395 603 601
f 604 363 602
f 379 603 395
f 605 363 604
f 379 606 603
f 605 379 363
f 379 607 606
f 608 379 605
f 379 609 607
f 610 379 608
f 379 611 609
f 612 379 610
f 379 613 611
f 614 379 612
f 379 615 613
f 616 379 614
f 379 616 615
f 143 451 146
f 146 451 454
f 146 454 145
f 145 454 453
f 145 453 148
f 148 453 456
f 148 456 147
f 147 456 455
f 147 455 150
f 150 455 458
f 150 458 149
f 149 458 457
f 149 457 152
f 152 457 460
f 152 460 151
f 151 460 459
f 151 459 154
f 154 459 462
f 154 462 153
f 153 462 461
f 153 461 156
f 156 461 464
f 156 464 155
f 155 464 463
f 155 463 8
f 8 463 317
f 8 317 12
f 12 317 320
f 12 320 11
f 11 320 319
f 11 319 14
f 14 319 322
f 14 322 13
f 13 322 321
f 13 321 16
f 16 321 324
f 16 324 15
f 15 324 323
f 15 323 18
f 18 323 326
f 18 326 17
f 17 326 325
f 17 325 20
f 20 325 328
f 20 328 19
f 19 328 327
f 19 327 22
f 22 327 330
f 22 330 21
f 21 330 329
f 21 329 170
f 170 329 478
f 170 478 248
f 248 478 556
f 248 556 249
f 249 556 557
f 249 557 251
f 251 557 559
f 251 559 253
f 253 559 561
f 253 561 258
f 258 561 566
f 258 566 196
f 196 566 504
f 196 504 187
f 187 504 495
f 187 495 171
f 171 495 479
f 171 479 24
f 24 479 331
f 24 331 25
f 25 331 333
f 25 333 23
f 23 333 332
f 23 332 27
f 27 332 335
f 27 335 26
f 26 335 334
f 26 334 29
f 29 334 337
f 29 337 28
f 28 337 336
f 28 336 31
f 31 336 339
f 31 339 30
f 30 339 338
f 30 338 33
f 33 338 341
f 33 341 32
f 32 341 340
f 32 340 35
f 35 340 343
f 35 343 34
f 34 343 342
f 34 342 37
f 37 342 345
f 37 345 36
f 36 345 344
f 36 344 39
f 39 344 347
f 39 347 38
f 38 347 346
f 38 346 41
f 41 346 349
f 41 349 40
f 40 349 348
f 40 348 43
f 43 348 351
f 43 351 42
f 42 351 350
f 42 350 276
f 276 350 584
f 276 584 278
f 278 584 586
f 278 586 279
f 279 586 587
f 279 587 188
f 188 587 496
f 188 496 172
f 172 496 480
f 172 480 45
f 45 480 352
f 45 352 46
f 46 352 354
f 46 354 44
f 44 354 353
f 44 353 48
f 48 353 356
f 48 356 47
f 47 356 355
f 47 355 50
f 50 355 358
f 50 358 49
f 49 358 357
f 49 357 52
f 52 357 360
f 52 360 51
f 51 360 359
f 51 359 54
f 54 359 362
f 54 362 53
f 53 362 361
f 53 361 56
f 56 361 364
f 56 364 55
f 55 364 363
f 55 363 58
f 58 363 366
f 58 366 57
f 57 366 365
f 57 365 60
f 60 365 368
f 60 368 59
f 59 368 367
f 59 367 62
f 62 367 370
f 62 370 61
f 61 370 369
f 61 369 64
f 64 369 372
f 64 372 63
f 63 372 371
f 63 371 66
f 66 371 374
f 66 374 65
f 65 374 373
f 65 373 68
f 68 373 376
f 68 376 67
f 67 376 375
f 67 375 70
f 70 375 378
f 70 378 69
f 69 378 377
f 69 377 72
f 72 377 380
f 72 380 71
f 71 380 379
f 71 379 74
f 74 379 382
f 74 382 73
f 73 382 381
f 73 381 76
f 76 381 384
f 76 384 75
f 75 384 383
f 75 383 78
f 78 383 386
f 78 386 77
f 77 386 385
f 77 385 80
f 80 385 388
f 80 388 79
f 79 388 387
f 79 387 82
f 82 387 390
f 82 390 81
f 81 390 389
f 81 389 84
f 84 389 392
f 84 392 83
f 83 392 391
f 83 391 86
f 86 391 394
f 86 394 85
f 85 394 393
f 85 393 88
f 88 393 396
f 88 396 87
f 87 396 395
f 87 395 90
f 90 395 398
f 90 398 89
f 89 398 397
f 89 397 92
f 92 397 400
f 92 400 91
f 91 400 399
f 91 399 94
f 94 399 402
f 94 402 93
f 93 402 401
f 93 401 96
f 96 401 404
f 96 404 95
f 95 404 403
f 95 403 98
f 98 403 406
f 98 406 97
f 97 406 405
f 97 405 100
f 100 405 408
f 100 408 99
f 99 408 407
f 99 407 173
f 173 407 481
f 173 481 189
f 189 481 497
f 189 497 283
f 283 497 591
f 283 591 281
f 281 591 589
f 281 589 280
f 280 589 588
f 280 588 277
f 277 588 585
f 277 585 273
f 273 585 581
f 273 581 268
f 268 581 576
f 268 576 211
f 211 576 519
f 211 519 207
f 207 519 515
f 207 515 203
f 203 515 511
f 203 511 197
f 197 511 505
f 197 505 180
f 180 505 488
f 180 488 174
f 174 488 482
f 174 482 162
f 162 482 470
f 162 470 102
f 102 470 409
f 102 409 103
f 103 409 411
f 103 411 101
f 101 411 410
f 101 410 105
f 105 410 413
f 105 413 104
f 104 413 412
f 104 412 107
f 107 412 415
f 107 415 106
f 106 415 414
f 106 414 109
f 109 414 417
f 109 417 108
f 108 417 416
f 108 416 111
f 111 416 419
f 111 419 110
f 110 419 418
f 110 418 113
f 113 418 421
f 113 421 112
f 112 421 420
f 112 420 115
f 115 420 423
f 115 423 114
f 114 423 422
f 114 422 117
f 117 422 425
f 117 425 116
f 116 425 424
f 116 424 119
f 119 424 427
f 119 427 118
f 118 427 426
f 118 426 121
f 121 426 429
f 121 429 120
f 120 429 428
f 120 428 123
f 123 428 431
f 123 431 122
f 122 431 430
f 122 430 125
f 125 430 433
f 125 433 124
f 124 433 432
f 124 432 163
f 163 432 471
f 163 471 181
f 181 471 489
f 181 489 190
f 190 489 498
f 190 498 246
f 246 498 554
f 246 554 244
f 244 554 552
f 244 552 242
f 242 552 550
f 242 550 240
f 240 550 548
f 240 548 237
f 237 548 545
f 237 545 235
f 235 545 543
f 235 543 198
f 198 543 506
f 198 506 191
f 191 506 499
f 191 499 164
f 164 499 472
f 164 472 127
f 127 472 434
f 127 434 128
f 128 434 436
f 128 436 126
f 126 436 435
f 126 435 130
f 130 435 438
f 130 438 129
f 129 438 437
f 129 437 132
f 132 437 440
f 132 440 131
f 131 440 439
f 131 439 134
f 134 439 442
f 134 442 133
f 133 442 441
f 133 441 136
f 136 441 444
f 136 444 135
f 135 444 443
f 135 443 138
f 138 443 446
f 138 446 137
f 137 446 445
f 137 445 140
f 140 445 448
f 140 448 139
f 139 448 447
f 139 447 142
f 142 447 450
f 142 450 141
f 141 450 449
f 141 449 144
f 144 449 452
f 144 452 143
f 143 452 451
f 299 607 301
f 301 607 609
f 301 609 303
f 303 609 611
f 303 611 305
f 305 611 613
f 305 613 307
f 307 613 615
f 307 615 308
f 308 615 616
f 308 616 306
f 306 616 614
f 306 614 304
f 304 614 612
f 304 612 302
f 302 612 610
f 302 610 300
f 300 610 608
f 300 608 297
f 297 608 605
f 297 605 296
f 296 605 604
f 296 604 294
f 294 604 602
f 294 602 292
f 292 602 600
f 292 600 290
f 290 600 598
f 290 598 288
f 288 598 596
f 288 596 286
f 286 596 594
f 286 594 284
f 284 594 592
f 284 592 282
f 282 592 590
f 282 590 159
f 159 590 467
f 159 467 4
f 4 467 312
f 4 312 3
f 3 312 311
f 3 311 1
f 1 311 310
f 1 310 285
f 285 310 593
f 285 593 287
f 287 593 595
f 287 595 289
f 289 595 597
f 289 597 291
f 291 597 599
f 291 599 293
f 293 599 601
f 293 601 295
f 295 601 603
f 295 603 298
f 298 603 606
f 298 606 299
f 299 606 607
f 209 517 204
f 204 517 512
f 204 512 200
f 200 512 508
f 200 508 193
f 193 508 501
f 193 501 183
f 183 501 491
f 183 491 176
f 176 491 484
f 176 484 166
f 166 484 474
f 166 474 157
f 157 474 465
f 157 465 5
f 5 465 314
f 5 314 210
f 210 314 518
f 210 518 245
f 245 518 553
f 245 553 243
f 243 553 551
f 243 551 241
f 241 551 549
f 241 549 239
f 239 549 547
f 239 547 238
f 238 547 546
f 238 546 236
f 236 546 544
f 236 544 234
f 234 544 542
f 234 542 233
f 233 542 541
f 233 541 232
f 232 541 540
f 232 540 230
f 230 540 538
f 230 538 228
f 228 538 536
f 228 536 226
f 226 536 534
f 226 534 224
f 224 534 532
f 224 532 222
f 222 532 530
f 222 530 220
f 220 530 528
f 220 528 218
f 218 528 526
f 218 526 216
f 216 526 524
f 216 524 214
f 214 524 522
f 214 522 206
f 206 522 514
f 206 514 202
f 202 514 510
f 202 510 195
f 195 510 503
f 195 503 186
f 186 503 494
f 186 494 179
f 179 494 487
f 179 487 169
f 169 487 477
f 169 477 161
f 161 477 469
f 161 469 9
f 9 469 316
f 9 316 10
f 10 316 318
f 10 318 165
f 165 318 473
f 165 473 175
f 175 473 483
f 175 483 182
f 182 483 490
f 182 490 192
f 192 490 500
f 192 500 199
f 199 500 507
f 199 507 208
f 208 507 516
f 208 516 212
f 212 516 520
f 212 520 215
f 215 520 523
f 215 523 217
f 217 523 525
f 217 525 219
f 219 525 527
f 219 527 221
f 221 527 529
f 221 529 223
f 223 529 531
f 223 531 225
f 225 531 533
f 225 533 227
f 227 533 535
f 227 535 229
f 229 535 537
f 229 537 231
f 231 537 539
f 231 539 213
f 213 539 521
f 213 521 209
f 209 521 517
f 270 578 272
f 272 578 580
f 272 580 275
f 275 580 583
f 275 583 184
f 184 583 492
f 184 492 177
f 177 492 485
f 177 485 167
f 167 485 475
f 167 475 158
f 158 475 466
f 158 466 2
f 2 466 309
f 2 309 274
f 274 309 582
f 274 582 271
f 271 582 579
f 271 579 269
f 269 579 577
f 269 577 267
f 267 577 575
f 267 575 266
f 266 575 574
f 266 574 264
f 264 574 572
f 264 572 262
f 262 572 570
f 262 570 256
f 256 570 564
f 256 564 205
f 205 564 513
f 205 513 201
f 201 513 509
f 201 509 194
f 194 509 502
f 194 502 185
f 185 502 493
f 185 493 178
f 178 493 486
f 178 486 168
f 168 486 476
f 168 476 160
f 160 476 468
f 160 468 6
f 6 468 313
f 6 313 7
f 7 313 315
f 7 315 247
f 247 315 555
f 247 555 250
f 250 555 558
f 250 558 252
f 252 558 560
f 252 560 254
f 254 560 562
f 254 562 255
f 255 562 563
f 255 563 257
f 257 563 565
f 257 565 259
f 259 565 567
f 259 567 260
f 260 567 568
f 260 568 261
f 261 568 569
f 261 569 263
f 263 569 571
f 263 571 265
f 265 571 573
f 265 573 270
f 270 573 578
