o 
v 37.95 0 -0.09
v 39.034 0 -0.053
v 38.472 0 -0.018
v 31.659 0 -3.389
v 36.007 0 -1.056
v 20.134 0 -9.737
v 26.003 0 -6.485
v 12.15 0 -14.29
v 15.151 0 -12.541
v 11.811 0 -14.564
v 11.969 0 -14.422
v 11.586 0 -14.846
v 11.681 0 -14.707
v 11.52 0 -15.08
v 11.53 0 -14.973
v 12.629 0 -16.382
v 11.825 0 -15.474
v 15.434 0 -19.418
v 13.858 0 -17.724
v 19.33 0 -23.54
v 17.283 0 -21.383
v 32.051 0 -37.06
v 30.86 0 -35.8
v 33.865 0 -38.855
v 33.053 0 -38.079
v 34.919 0 -39.677
v 34.487 0 -39.388
v 35.357 0 -39.531
v 35.16 0 -39.72
v 36.184 0 -38.514
v 35.708 0 -39.117
v 37.394 0 -36.88
v 36.756 0 -37.756
v 39.547 0 -33.771
v 38.07 0 -35.92
v 38.914 0 -34.723
v 40.253 0 -32.492
v 39.987 0 -33.037
v 40.33 0 -31.85
v 40.361 0 -32.106
v 39.651 0 -31.213
v 40.113 0 -31.615
v 38.152 0 -30.031
v 38.984 0 -30.674
v 36.16 0 -28.56
v 37.197 0 -29.316
v 31.049 0 -16.518
v 29.794 0 -14.151
v 30.36 0 -15.24
v 32.16 0 -18.394
v 31.648 0 -17.568
v 32.938 0 -19.399
v 32.589 0 -19.002
v 34.711 0 -20.003
v 33.21 0 -19.59
v 41.702 0 -21.776
v 37.806 0 -20.798
v 48.727 0 -23.487
v 45.607 0 -22.739
v 50.463 0 -23.835
v 50.27 0 -23.82
v 50.769 0 -23.781
v 50.631 0 -23.822
v 50.937 0 -23.624
v 50.872 0 -23.715
v 50.817 0 -23.266
v 50.96 0 -23.51
v 49.79 0 -22.096
v 50.414 0 -22.781
v 48.029 0 -20.29
v 48.982 0 -21.252
v 42.96 0 -15.36
v 46.97 0 -19.25
v 55.967 0 -14.828
v 52.191 0 -14.913
v 53.31 0 -14.89
v 61.039 0 -14.559
v 58.608 0 -14.713
v 64.494 0 -14.193
v 63.066 0 -14.38
v 65.251 0 -13.807
v 65.13 0 -14.01
v 64.66 0 -13.205
v 65.131 0 -13.561
v 62.229 0 -11.883
v 63.729 0 -12.669
v 58.774 0 -10.139
v 60.05 0 -10.78
v 53 0 -7.094
v 54.283 0 -7.796
v 53.62 0 -7.43
v 51.285 0 -6.174
v 52.205 0 -6.666
v 49.276 0 -5.117
v 50.292 0 -5.648
v 41.364 0 -0.937
v 43.237 0 -1.95
v 42.49 0 -1.54
v 39.676 0 -0.207
v 40.44 0 -0.497
v 30.68 0 -24.562
v 48.29 0 -4.61
v 29.272 0 -13.17
v 50.96 0 -14.948
v 44.149 0 -2.44
v 28.814 0 -12.338
v 49.682 0 -14.993
v 55.191 0 -8.283
v 45.169 0 -2.981
v 47.297 0 -4.096
v 46.237 0 -3.543
v 28.441 0 -11.693
v 48.427 0 -15.042
v 26.74 0 -21.666
v 28.176 0 -11.277
v 47.26 0 -15.092
v 24.1 0 -19.684
v 28.04 0 -11.13
v 46.25 0 -15.14
v 22.52 0 -18.431
v 21.76 0 -17.722
v 21.58 0 -17.37
v 57.499 0 -9.487
v 22.053 0 -16.745
v 56.284 0 -8.857
v 23.197 0 -15.543
v 24.69 0 -14.074
v 26.21 0 -12.643
v 27.434 0 -11.56
v 39.034 10 -0.053
v 37.95 10 -0.09
v 38.472 10 -0.018
v 31.659 10 -3.389
v 36.007 10 -1.056
v 20.134 10 -9.737
v 26.003 10 -6.485
v 12.15 10 -14.29
v 15.151 10 -12.541
v 11.811 10 -14.564
v 11.969 10 -14.422
v 11.586 10 -14.846
v 11.681 10 -14.707
v 11.52 10 -15.08
v 11.53 10 -14.973
v 12.629 10 -16.382
v 11.825 10 -15.474
v 15.434 10 -19.418
v 13.858 10 -17.724
v 19.33 10 -23.54
v 17.283 10 -21.383
v 32.051 10 -37.06
v 30.86 10 -35.8
v 33.865 10 -38.855
v 33.053 10 -38.079
v 34.919 10 -39.677
v 34.487 10 -39.388
v 35.357 10 -39.531
v 35.16 10 -39.72
v 36.184 10 -38.514
v 35.708 10 -39.117
v 37.394 10 -36.88
v 36.756 10 -37.756
v 38.07 10 -35.92
v 39.547 10 -33.771
v 38.914 10 -34.723
v 40.253 10 -32.492
v 39.987 10 -33.037
v 40.33 10 -31.85
v 40.361 10 -32.106
v 39.651 10 -31.213
v 40.113 10 -31.615
v 38.152 10 -30.031
v 38.984 10 -30.674
v 36.16 10 -28.56
v 37.197 10 -29.316
v 29.794 10 -14.151
v 31.049 10 -16.518
v 30.36 10 -15.24
v 32.16 10 -18.394
v 31.648 10 -17.568
v 32.938 10 -19.399
v 32.589 10 -19.002
v 34.711 10 -20.003
v 33.21 10 -19.59
v 41.702 10 -21.776
v 37.806 10 -20.798
v 48.727 10 -23.487
v 45.607 10 -22.739
v 50.463 10 -23.835
v 50.27 10 -23.82
v 50.769 10 -23.781
v 50.631 10 -23.822
v 50.937 10 -23.624
v 50.872 10 -23.715
v 50.817 10 -23.266
v 50.96 10 -23.51
v 49.79 10 -22.096
v 50.414 10 -22.781
v 48.029 10 -20.29
v 48.982 10 -21.252
v 42.96 10 -15.36
v 46.97 10 -19.25
v 52.191 10 -14.913
v 55.967 10 -14.828
v 53.31 10 -14.89
v 61.039 10 -14.559
v 58.608 10 -14.713
v 64.494 10 -14.193
v 63.066 10 -14.38
v 65.251 10 -13.807
v 65.13 10 -14.01
v 64.66 10 -13.205
v 65.131 10 -13.561
v 62.229 10 -11.883
v 63.729 10 -12.669
v 58.774 10 -10.139
v 60.05 10 -10.78
v 54.283 10 -7.796
v 53 10 -7.094
v 53.62 10 -7.43
v 51.285 10 -6.174
v 52.205 10 -6.666
v 49.276 10 -5.117
v 50.292 10 -5.648
v 43.237 10 -1.95
v 41.364 10 -0.937
v 42.49 10 -1.54
v 39.676 10 -0.207
v 40.44 10 -0.497
v 30.68 10 -24.562
v 48.29 10 -4.61
v 29.272 10 -13.17
v 50.96 10 -14.948
v 44.149 10 -2.44
v 28.814 10 -12.338
v 49.682 10 -14.993
v 55.191 10 -8.283
v 45.169 10 -2.981
v 47.297 10 -4.096
v 46.237 10 -3.543
v 28.441 10 -11.693
v 48.427 10 -15.042
v 26.74 10 -21.666
v 28.176 10 -11.277
v 47.26 10 -15.092
v 24.1 10 -19.684
v 28.04 10 -11.13
v 46.25 10 -15.14
v 22.52 10 -18.431
v 21.76 10 -17.722
v 21.58 10 -17.37
v 57.499 10 -9.487
v 22.053 10 -16.745
v 56.284 10 -8.857
v 23.197 10 -15.543
v 24.69 10 -14.074
v 26.21 10 -12.643
v 27.434 10 -11.56
f 1 2 3
f 4 1 5
f 6 4 7
f 8 6 9
f 10 8 11
f 12 10 13
f 14 12 15
f 16 14 17
f 18 16 19
f 20 18 21
f 22 20 23
f 24 22 25
f 26 24 27
f 28 26 29
f 30 28 31
f 32 30 33
f 34 35 36
f 37 34 38
f 39 37 40
f 41 39 42
f 43 41 44
f 45 43 46
f 47 48 49
f 50 47 51
f 52 50 53
f 54 52 55
f 56 54 57
f 58 56 59
f 60 58 61
f 62 60 63
f 64 62 65
f 66 64 67
f 68 66 69
f 70 68 71
f 72 70 73
f 74 75 76
f 77 74 78
f 79 77 80
f 81 79 82
f 83 81 84
f 85 83 86
f 87 85 88
f 89 90 91
f 92 89 93
f 94 92 95
f 96 97 98
f 99 96 100
f 1 99 2
f 6 1 4
f 10 6 8
f 14 10 12
f 18 14 16
f 24 20 22
f 28 24 26
f 32 28 30
f 34 32 35
f 39 34 37
f 43 39 41
f 101 43 45
f 50 48 47
f 54 50 52
f 58 54 56
f 62 58 60
f 66 62 64
f 70 66 68
f 77 75 74
f 81 77 79
f 85 81 83
f 92 90 89
f 102 92 94
f 99 97 96
f 6 99 1
f 14 6 10
f 20 14 18
f 28 20 24
f 34 28 32
f 43 34 39
f 50 103 48
f 58 50 54
f 66 58 62
f 72 66 70
f 77 104 75
f 85 77 81
f 102 90 92
f 99 105 97
f 14 99 6
f 28 14 20
f 43 28 34
f 50 106 103
f 66 50 58
f 77 107 104
f 87 77 85
f 102 108 90
f 99 109 105
f 43 14 28
f 66 106 50
f 87 107 77
f 110 108 102
f 99 111 109
f 101 14 43
f 66 112 106
f 87 113 107
f 111 108 110
f 14 111 99
f 114 14 101
f 66 115 112
f 87 116 113
f 117 14 114
f 66 118 115
f 87 119 116
f 120 14 117
f 72 118 66
f 87 72 119
f 121 14 120
f 87 118 72
f 122 14 121
f 123 118 87
f 124 14 122
f 125 118 123
f 126 14 124
f 108 118 125
f 127 14 126
f 111 118 108
f 128 14 127
f 14 118 111
f 129 14 128
f 14 129 118
f 130 131 132
f 131 133 134
f 133 135 136
f 135 137 138
f 137 139 140
f 139 141 142
f 141 143 144
f 143 145 146
f 145 147 148
f 147 149 150
f 149 151 152
f 151 153 154
f 153 155 156
f 155 157 158
f 157 159 160
f 159 161 162
f 163 164 165
f 164 166 167
f 166 168 169
f 168 170 171
f 170 172 173
f 172 174 175
f 176 177 178
f 177 179 180
f 179 181 182
f 181 183 184
f 183 185 186
f 185 187 188
f 187 189 190
f 189 191 192
f 191 193 194
f 193 195 196
f 195 197 198
f 197 199 200
f 199 201 202
f 203 204 205
f 204 206 207
f 206 208 209
f 208 210 211
f 210 212 213
f 212 214 215
f 214 216 217
f 218 219 220
f 219 221 222
f 221 223 224
f 225 226 227
f 226 228 229
f 228 131 130
f 131 135 133
f 135 139 137
f 139 143 141
f 143 147 145
f 149 153 151
f 153 157 155
f 157 161 159
f 161 164 163
f 164 168 166
f 168 172 170
f 172 230 174
f 176 179 177
f 179 183 181
f 183 187 185
f 187 191 189
f 191 195 193
f 195 199 197
f 203 206 204
f 206 210 208
f 210 214 212
f 218 221 219
f 221 231 223
f 225 228 226
f 228 135 131
f 135 143 139
f 143 149 147
f 149 157 153
f 157 164 161
f 164 172 168
f 232 179 176
f 179 187 183
f 187 195 191
f 195 201 199
f 233 206 203
f 206 214 210
f 218 231 221
f 234 228 225
f 228 143 135
f 143 157 149
f 157 172 164
f 235 179 232
f 179 195 187
f 236 206 233
f 206 216 214
f 237 231 218
f 238 228 234
f 143 172 157
f 235 195 179
f 236 216 206
f 237 239 231
f 240 228 238
f 143 230 172
f 241 195 235
f 242 216 236
f 237 240 239
f 240 143 228
f 143 243 230
f 244 195 241
f 245 216 242
f 143 246 243
f 247 195 244
f 248 216 245
f 143 249 246
f 247 201 195
f 201 216 248
f 143 250 249
f 247 216 201
f 143 251 250
f 247 252 216
f 143 253 251
f 247 254 252
f 143 255 253
f 247 237 254
f 143 256 255
f 247 240 237
f 143 257 256
f 247 143 240
f 143 258 257
f 258 143 247
f 1 131 5
f 5 131 134
f 5 134 4
f 4 134 133
f 4 133 7
f 7 133 136
f 7 136 6
f 6 136 135
f 6 135 9
f 9 135 138
f 9 138 8
f 8 138 137
f 8 137 11
f 11 137 140
f 11 140 10
f 10 140 139
f 10 139 13
f 13 139 142
f 13 142 12
f 12 142 141
f 12 141 15
f 15 141 144
f 15 144 14
f 14 144 143
f 14 143 17
f 17 143 146
f 17 146 16
f 16 146 145
f 16 145 19
f 19 145 148
f 19 148 18
f 18 148 147
f 18 147 21
f 21 147 150
f 21 150 20
f 20 150 149
f 20 149 23
f 23 149 152
f 23 152 22
f 22 152 151
f 22 151 25
f 25 151 154
f 25 154 24
f 24 154 153
f 24 153 27
f 27 153 156
f 27 156 26
f 26 156 155
f 26 155 29
f 29 155 158
f 29 158 28
f 28 158 157
f 28 157 31
f 31 157 160
f 31 160 30
f 30 160 159
f 30 159 33
f 33 159 162
f 33 162 32
f 32 162 161
f 32 161 35
f 35 161 163
f 35 163 36
f 36 163 165
f 36 165 34
f 34 165 164
f 34 164 38
f 38 164 167
f 38 167 37
f 37 167 166
f 37 166 40
f 40 166 169
f 40 169 39
f 39 169 168
f 39 168 42
f 42 168 171
f 42 171 41
f 41 171 170
f 41 170 44
f 44 170 173
f 44 173 43
f 43 173 172
f 43 172 46
f 46 172 175
f 46 175 45
f 45 175 174
f 45 174 101
f 101 174 230
f 101 230 114
f 114 230 243
f 114 243 117
f 117 243 246
f 117 246 120
f 120 246 249
f 120 249 121
f 121 249 250
f 121 250 122
f 122 250 251
f 122 251 124
f 124 251 253
f 124 253 126
f 126 253 255
f 126 255 127
f 127 255 256
f 127 256 128
f 128 256 257
f 128 257 129
f 129 257 258
f 129 258 118
f 118 258 247
f 118 247 115
f 115 247 244
f 115 244 112
f 112 244 241
f 112 241 106
f 106 241 235
f 106 235 103
f 103 235 232
f 103 232 48
f 48 232 176
f 48 176 49
f 49 176 178
f 49 178 47
f 47 178 177
f 47 177 51
f 51 177 180
f 51 180 50
f 50 180 179
f 50 179 53
f 53 179 182
f 53 182 52
f 52 182 181
f 52 181 55
f 55 181 184
f 55 184 54
f 54 184 183
f 54 183 57
f 57 183 186
f 57 186 56
f 56 186 185
f 56 185 59
f 59 185 188
f 59 188 58
f 58 188 187
f 58 187 61
f 61 187 190
f 61 190 60
f 60 190 189
f 60 189 63
f 63 189 192
f 63 192 62
f 62 192 191
f 62 191 65
f 65 191 194
f 65 194 64
f 64 194 193
f 64 193 67
f 67 193 196
f 67 196 66
f 66 196 195
f 66 195 69
f 69 195 198
f 69 198 68
f 68 198 197
f 68 197 71
f 71 197 200
f 71 200 70
f 70 200 199
f 70 199 73
f 73 199 202
f 73 202 72
f 72 202 201
f 72 201 119
f 119 201 248
f 119 248 116
f 116 248 245
f 116 245 113
f 113 245 242
f 113 242 107
f 107 242 236
f 107 236 104
f 104 236 233
f 104 233 75
f 75 233 203
f 75 203 76
f 76 203 205
f 76 205 74
f 74 205 204
f 74 204 78
f 78 204 207
f 78 207 77
f 77 207 206
f 77 206 80
f 80 206 209
f 80 209 79
f 79 209 208
f 79 208 82
f 82 208 211
f 82 211 81
f 81 211 210
f 81 210 84
f 84 210 213
f 84 213 83
f 83 213 212
f 83 212 86
f 86 212 215
f 86 215 85
f 85 215 214
f 85 214 88
f 88 214 217
f 88 217 87
f 87 217 216
f 87 216 123
f 123 216 252
f 123 252 125
f 125 252 254
f 125 254 108
f 108 254 237
f 108 237 90
f 90 237 218
f 90 218 91
f 91 218 220
f 91 220 89
f 89 220 219
f 89 219 93
f 93 219 222
f 93 222 92
f 92 222 221
f 92 221 95
f 95 221 224
f 95 224 94
f 94 224 223
f 94 223 102
f 102 223 231
f 102 231 110
f 110 231 239
f 110 239 111
f 111 239 240
f 111 240 109
f 109 240 238
f 109 238 105
f 105 238 234
f 105 234 97
f 97 234 225
f 97 225 98
f 98 225 227
f 98 227 96
f 96 227 226
f 96 226 100
f 100 226 229
f 100 229 99
f 99 229 228
f 99 228 2
f 2 228 130
f 2 130 3
f 3 130 132
f 3 132 1
f 1 132 131
o 
v 75.88 0 -26.14
v 76.229 0 -25.927
v 76.039 0 -25.988
v 75.754 0 -26.924
v 75.825 0 -26.391
v 75.583 0 -28.649
v 75.671 0 -27.692
v 75.41 0 -30.94
v 75.494 0 -29.747
v 74.187 0 -45.06
v 74.429 0 -42.813
v 74.31 0 -43.89
v 67.937 0 -40.85
v 70.17 0 -43.61
v 68.913 0 -42.024
v 66.68 0 -39.577
v 67.205 0 -40.048
v 66.1 0 -39.47
v 66.324 0 -39.397
v 66.17 0 -40.321
v 66.097 0 -39.708
v 66.51 0 -42.442
v 66.311 0 -41.252
v 67.04 0 -45.36
v 66.756 0 -43.831
v 68.822 0 -55.084
v 68.494 0 -53.195
v 68.67 0 -54.23
v 69.166 0 -56.644
v 68.99 0 -55.902
v 69.501 0 -57.746
v 69.34 0 -57.271
v 69.857 0 -58.271
v 69.64 0 -58.03
v 70.829 0 -58.99
v 70.264 0 -58.598
v 72.291 0 -59.883
v 71.516 0 -59.426
v 73.957 0 -60.789
v 73.12 0 -60.34
v 59.603 0 -52.887
v 61.3 0 -55.49
v 60.43 0 -54.14
v 58.23 0 -50.89
v 58.857 0 -51.785
v 57.48 0 -49.94
v 57.759 0 -50.257
v 56.807 0 -49.574
v 57.148 0 -49.673
v 55.519 0 -50.136
v 56.313 0 -49.708
v 52.46 0 -52.13
v 54.283 0 -50.922
v 50.593 0 -53.409
v 51.396 0 -52.838
v 49.65 0 -54.248
v 50.021 0 -53.87
v 49.39 0 -54.86
v 49.45 0 -54.569
v 50.139 0 -56.164
v 49.524 0 -55.308
v 54.085 0 -60.506
v 51.553 0 -57.78
v 63.78 0 -70.69
v 58.054 0 -64.692
v 71.134 0 -78.587
v 70.397 0 -77.734
v 70.86 0 -78.28
v 71.698 0 -79.119
v 71.417 0 -78.871
v 72.201 0 -79.46
v 71.963 0 -79.319
v 72.771 0 -79.425
v 72.4 0 -79.53
v 74.026 0 -77.914
v 73.283 0 -78.931
v 76.565 0 -73.772
v 75.09 0 -76.239
v 79.285 0 -69.092
v 78.54 0 -70.38
v 83.061 0 -62.964
v 82.133 0 -64.378
v 82.62 0 -63.64
v 84.052 0 -61.354
v 83.548 0 -62.187
v 85.01 0 -59.7
v 84.549 0 -60.51
v 88.433 0 -53.217
v 87.51 0 -55.27
v 88.122 0 -54.204
v 88.014 0 -50.653
v 88.409 0 -52.103
v 85.97 0 -45.92
v 87.213 0 -48.661
v 81.251 0 -35.601
v 83.18 0 -39.81
v 78.58 0 -29.805
v 79.729 0 -32.291
v 77.256 0 -26.996
v 77.767 0 -28.066
v 76.838 0 -26.256
v 77.01 0 -26.52
v 76.434 0 -25.955
v 76.641 0 -26.066
v 75.346 0 -32.021
v 64.193 0 -59.975
v 65.447 0 -72.436
v 85.41 0 -58.97
v 71.011 0 -44.634
v 68.256 0 -51.868
v 69.556 0 -76.806
v 71.781 0 -45.558
v 67.35 0 -46.995
v 67.975 0 -50.335
v 66.507 0 -63.524
v 81.518 0 -65.359
v 75.276 0 -33.102
v 72.45 0 -46.345
v 67.667 0 -48.682
v 74.753 0 -61.239
v 68.276 0 -66.193
v 68.404 0 -75.565
v 80.813 0 -66.515
v 67.011 0 -74.084
v 72.986 0 -46.955
v 75.473 0 -61.669
v 69.536 0 -68.032
v 80.056 0 -67.781
v 73.356 0 -47.35
v 76.081 0 -62.054
v 70.322 0 -69.097
v 73.53 0 -47.49
v 76.542 0 -62.372
v 70.67 0 -69.44
v 75.202 0 -34.183
v 75.123 0 -35.263
v 73.678 0 -47.407
v 70.864 0 -69.324
v 75.039 0 -36.343
v 73.814 0 -47.139
v 71.264 0 -69.005
v 74.949 0 -37.423
v 73.942 0 -46.669
v 71.834 0 -68.515
v 74.855 0 -38.502
v 74.066 0 -45.981
v 72.54 0 -67.885
v 74.756 0 -39.58
v 73.347 0 -67.146
v 74.652 0 -40.659
v 74.22 0 -66.33
v 74.543 0 -41.736
v 75.578 0 -65.021
v 76.82 0 -62.6
v 76.47 0 -64.125
v 77.07 0 -62.88
v 76.967 0 -63.539
v 77.144 0 -63.158
v 76.229 10 -25.927
v 75.88 10 -26.14
v 76.039 10 -25.988
v 75.754 10 -26.924
v 75.825 10 -26.391
v 75.583 10 -28.649
v 75.671 10 -27.692
v 75.41 10 -30.94
v 75.494 10 -29.747
v 74.429 10 -42.813
v 74.187 10 -45.06
v 74.31 10 -43.89
v 70.17 10 -43.61
v 67.937 10 -40.85
v 68.913 10 -42.024
v 66.68 10 -39.577
v 67.205 10 -40.048
v 66.1 10 -39.47
v 66.324 10 -39.397
v 66.17 10 -40.321
v 66.097 10 -39.708
v 66.51 10 -42.442
v 66.311 10 -41.252
v 67.04 10 -45.36
v 66.756 10 -43.831
v 68.494 10 -53.195
v 68.822 10 -55.084
v 68.67 10 -54.23
v 69.166 10 -56.644
v 68.99 10 -55.902
v 69.501 10 -57.746
v 69.34 10 -57.271
v 69.857 10 -58.271
v 69.64 10 -58.03
v 70.829 10 -58.99
v 70.264 10 -58.598
v 72.291 10 -59.883
v 71.516 10 -59.426
v 73.957 10 -60.789
v 73.12 10 -60.34
v 61.3 10 -55.49
v 59.603 10 -52.887
v 60.43 10 -54.14
v 58.23 10 -50.89
v 58.857 10 -51.785
v 57.48 10 -49.94
v 57.759 10 -50.257
v 56.807 10 -49.574
v 57.148 10 -49.673
v 55.519 10 -50.136
v 56.313 10 -49.708
v 52.46 10 -52.13
v 54.283 10 -50.922
v 50.593 10 -53.409
v 51.396 10 -52.838
v 49.65 10 -54.248
v 50.021 10 -53.87
v 49.39 10 -54.86
v 49.45 10 -54.569
v 50.139 10 -56.164
v 49.524 10 -55.308
v 54.085 10 -60.506
v 51.553 10 -57.78
v 63.78 10 -70.69
v 58.054 10 -64.692
v 70.397 10 -77.734
v 71.134 10 -78.587
v 70.86 10 -78.28
v 71.698 10 -79.119
v 71.417 10 -78.871
v 72.201 10 -79.46
v 71.963 10 -79.319
v 72.771 10 -79.425
v 72.4 10 -79.53
v 74.026 10 -77.914
v 73.283 10 -78.931
v 76.565 10 -73.772
v 75.09 10 -76.239
v 79.285 10 -69.092
v 78.54 10 -70.38
v 82.133 10 -64.378
v 83.061 10 -62.964
v 82.62 10 -63.64
v 84.052 10 -61.354
v 83.548 10 -62.187
v 85.01 10 -59.7
v 84.549 10 -60.51
v 87.51 10 -55.27
v 88.433 10 -53.217
v 88.122 10 -54.204
v 88.014 10 -50.653
v 88.409 10 -52.103
v 85.97 10 -45.92
v 87.213 10 -48.661
v 81.251 10 -35.601
v 83.18 10 -39.81
v 78.58 10 -29.805
v 79.729 10 -32.291
v 77.256 10 -26.996
v 77.767 10 -28.066
v 76.838 10 -26.256
v 77.01 10 -26.52
v 76.434 10 -25.955
v 76.641 10 -26.066
v 75.346 10 -32.021
v 64.193 10 -59.975
v 65.447 10 -72.436
v 85.41 10 -58.97
v 71.011 10 -44.634
v 68.256 10 -51.868
v 69.556 10 -76.806
v 71.781 10 -45.558
v 67.35 10 -46.995
v 67.975 10 -50.335
v 66.507 10 -63.524
v 81.518 10 -65.359
v 75.276 10 -33.102
v 72.45 10 -46.345
v 67.667 10 -48.682
v 74.753 10 -61.239
v 68.276 10 -66.193
v 68.404 10 -75.565
v 80.813 10 -66.515
v 67.011 10 -74.084
v 72.986 10 -46.955
v 75.473 10 -61.669
v 69.536 10 -68.032
v 80.056 10 -67.781
v 73.356 10 -47.35
v 76.081 10 -62.054
v 70.322 10 -69.097
v 73.53 10 -47.49
v 76.542 10 -62.372
v 70.67 10 -69.44
v 75.202 10 -34.183
v 75.123 10 -35.263
v 73.678 10 -47.407
v 70.864 10 -69.324
v 75.039 10 -36.343
v 73.814 10 -47.139
v 71.264 10 -69.005
v 74.949 10 -37.423
v 73.942 10 -46.669
v 71.834 10 -68.515
v 74.855 10 -38.502
v 74.066 10 -45.981
v 72.54 10 -67.885
v 74.756 10 -39.58
v 73.347 10 -67.146
v 74.652 10 -40.659
v 74.22 10 -66.33
v 74.543 10 -41.736
v 75.578 10 -65.021
v 76.82 10 -62.6
v 76.47 10 -64.125
v 77.07 10 -62.88
v 76.967 10 -63.539
v 77.144 10 -63.158
f 259 260 261
f 262 259 263
f 264 262 265
f 266 264 267
f 268 269 270
f 271 272 273
f 274 271 275
f 276 274 277
f 278 276 279
f 280 278 281
f 282 280 283
f 284 285 286
f 287 284 288
f 289 287 290
f 291 289 292
f 293 291 294
f 295 293 296
f 297 295 298
f 299 300 301
f 302 299 303
f 304 302 305
f 306 304 307
f 308 306 309
f 310 308 311
f 312 310 313
f 314 312 315
f 316 314 317
f 318 316 319
f 320 318 321
f 322 320 323
f 324 325 326
f 327 324 328
f 329 327 330
f 331 329 332
f 333 331 334
f 335 333 336
f 337 335 338
f 339 340 341
f 342 339 343
f 344 342 345
f 346 347 348
f 349 346 350
f 351 349 352
f 353 351 354
f 355 353 356
f 357 355 358
f 359 357 360
f 361 359 362
f 259 361 260
f 264 259 262
f 363 264 266
f 274 272 271
f 278 274 276
f 282 278 280
f 287 285 284
f 291 287 289
f 295 291 293
f 299 364 300
f 304 299 302
f 308 304 306
f 312 308 310
f 316 312 314
f 320 316 318
f 365 320 322
f 327 325 324
f 331 327 329
f 335 331 333
f 342 340 339
f 366 342 344
f 346 366 347
f 351 346 349
f 355 351 353
f 359 355 357
f 259 359 361
f 363 259 264
f 274 367 272
f 282 274 278
f 287 368 285
f 295 287 291
f 304 364 299
f 312 304 308
f 320 312 316
f 327 369 325
f 335 327 331
f 366 340 342
f 351 366 346
f 359 351 355
f 363 359 259
f 274 370 367
f 371 274 282
f 287 372 368
f 297 287 295
f 304 373 364
f 320 304 312
f 335 369 327
f 366 374 340
f 359 366 351
f 375 359 363
f 274 376 370
f 377 274 371
f 287 377 372
f 378 287 297
f 304 379 373
f 365 304 320
f 335 380 369
f 366 381 374
f 375 366 359
f 377 376 274
f 378 377 287
f 365 379 304
f 335 382 380
f 375 381 366
f 377 383 376
f 384 377 378
f 365 385 379
f 335 365 382
f 375 386 381
f 377 387 383
f 388 377 384
f 365 389 385
f 337 365 335
f 375 337 386
f 377 390 387
f 391 377 388
f 365 392 389
f 393 337 375
f 391 390 377
f 337 392 365
f 394 337 393
f 391 395 390
f 337 396 392
f 397 337 394
f 391 398 395
f 337 399 396
f 400 337 397
f 391 401 398
f 337 402 399
f 403 337 400
f 391 404 401
f 337 405 402
f 406 337 403
f 391 268 404
f 337 407 405
f 408 337 406
f 391 269 268
f 337 409 407
f 410 337 408
f 391 410 269
f 337 411 409
f 412 410 391
f 337 413 411
f 414 410 412
f 337 415 413
f 414 337 410
f 337 416 415
f 416 337 414
f 417 418 419
f 418 420 421
f 420 422 423
f 422 424 425
f 426 427 428
f 429 430 431
f 430 432 433
f 432 434 435
f 434 436 437
f 436 438 439
f 438 440 441
f 442 443 444
f 443 445 446
f 445 447 448
f 447 449 450
f 449 451 452
f 451 453 454
f 453 455 456
f 457 458 459
f 458 460 461
f 460 462 463
f 462 464 465
f 464 466 467
f 466 468 469
f 468 470 471
f 470 472 473
f 472 474 475
f 474 476 477
f 476 478 479
f 478 480 481
f 482 483 484
f 483 485 486
f 485 487 488
f 487 489 490
f 489 491 492
f 491 493 494
f 493 495 496
f 497 498 499
f 498 500 501
f 500 502 503
f 504 505 506
f 505 507 508
f 507 509 510
f 509 511 512
f 511 513 514
f 513 515 516
f 515 517 518
f 517 519 520
f 519 418 417
f 418 422 420
f 422 521 424
f 429 432 430
f 432 436 434
f 436 440 438
f 442 445 443
f 445 449 447
f 449 453 451
f 522 458 457
f 458 462 460
f 462 466 464
f 466 470 468
f 470 474 472
f 474 478 476
f 478 523 480
f 482 485 483
f 485 489 487
f 489 493 491
f 497 500 498
f 500 524 502
f 524 505 504
f 505 509 507
f 509 513 511
f 513 517 515
f 517 418 519
f 418 521 422
f 525 432 429
f 432 440 436
f 526 445 442
f 445 453 449
f 522 462 458
f 462 470 466
f 470 478 474
f 527 485 482
f 485 493 489
f 497 524 500
f 524 509 505
f 509 517 513
f 517 521 418
f 528 432 525
f 432 529 440
f 530 445 526
f 445 455 453
f 531 462 522
f 462 478 470
f 527 493 485
f 532 524 497
f 524 517 509
f 517 533 521
f 534 432 528
f 432 535 529
f 535 445 530
f 445 536 455
f 537 462 531
f 462 523 478
f 538 493 527
f 539 524 532
f 524 533 517
f 534 535 432
f 535 536 445
f 537 523 462
f 540 493 538
f 539 533 524
f 541 535 534
f 535 542 536
f 543 523 537
f 523 493 540
f 544 533 539
f 545 535 541
f 535 546 542
f 547 523 543
f 523 495 493
f 495 533 544
f 548 535 545
f 535 549 546
f 550 523 547
f 495 551 533
f 548 549 535
f 550 495 523
f 495 552 551
f 553 549 548
f 554 495 550
f 495 555 552
f 556 549 553
f 557 495 554
f 495 558 555
f 559 549 556
f 560 495 557
f 495 561 558
f 562 549 559
f 563 495 560
f 495 564 561
f 427 549 562
f 565 495 563
f 495 566 564
f 426 549 427
f 567 495 565
f 495 568 566
f 568 549 426
f 569 495 567
f 568 570 549
f 571 495 569
f 568 572 570
f 573 495 571
f 495 572 568
f 574 495 573
f 495 574 572
f 259 418 263
f 263 418 421
f 263 421 262
f 262 421 420
f 262 420 265
f 265 420 423
f 265 423 264
f 264 423 422
f 264 422 267
f 267 422 425
f 267 425 266
f 266 425 424
f 266 424 363
f 363 424 521
f 363 521 375
f 375 521 533
f 375 533 393
f 393 533 551
f 393 551 394
f 394 551 552
f 394 552 397
f 397 552 555
f 397 555 400
f 400 555 558
f 400 558 403
f 403 558 561
f 403 561 406
f 406 561 564
f 406 564 408
f 408 564 566
f 408 566 410
f 410 566 568
f 410 568 269
f 269 568 426
f 269 426 270
f 270 426 428
f 270 428 268
f 268 428 427
f 268 427 404
f 404 427 562
f 404 562 401
f 401 562 559
f 401 559 398
f 398 559 556
f 398 556 395
f 395 556 553
f 395 553 390
f 390 553 548
f 390 548 387
f 387 548 545
f 387 545 383
f 383 545 541
f 383 541 376
f 376 541 534
f 376 534 370
f 370 534 528
f 370 528 367
f 367 528 525
f 367 525 272
f 272 525 429
f 272 429 273
f 273 429 431
f 273 431 271
f 271 431 430
f 271 430 275
f 275 430 433
f 275 433 274
f 274 433 432
f 274 432 277
f 277 432 435
f 277 435 276
f 276 435 434
f 276 434 279
f 279 434 437
f 279 437 278
f 278 437 436
f 278 436 281
f 281 436 439
f 281 439 280
f 280 439 438
f 280 438 283
f 283 438 441
f 283 441 282
f 282 441 440
f 282 440 371
f 371 440 529
f 371 529 377
f 377 529 535
f 377 535 372
f 372 535 530
f 372 530 368
f 368 530 526
f 368 526 285
f 285 526 442
f 285 442 286
f 286 442 444
f 286 444 284
f 284 444 443
f 284 443 288
f 288 443 446
f 288 446 287
f 287 446 445
f 287 445 290
f 290 445 448
f 290 448 289
f 289 448 447
f 289 447 292
f 292 447 450
f 292 450 291
f 291 450 449
f 291 449 294
f 294 449 452
f 294 452 293
f 293 452 451
f 293 451 296
f 296 451 454
f 296 454 295
f 295 454 453
f 295 453 298
f 298 453 456
f 298 456 297
f 297 456 455
f 297 455 378
f 378 455 536
f 378 536 384
f 384 536 542
f 384 542 388
f 388 542 546
f 388 546 391
f 391 546 549
f 391 549 412
f 412 549 570
f 412 570 414
f 414 570 572
f 414 572 416
f 416 572 574
f 416 574 415
f 415 574 573
f 415 573 413
f 413 573 571
f 413 571 411
f 411 571 569
f 411 569 409
f 409 569 567
f 409 567 407
f 407 567 565
f 407 565 405
f 405 565 563
f 405 563 402
f 402 563 560
f 402 560 399
f 399 560 557
f 399 557 396
f 396 557 554
f 396 554 392
f 392 554 550
f 392 550 389
f 389 550 547
f 389 547 385
f 385 547 543
f 385 543 379
f 379 543 537
f 379 537 373
f 373 537 531
f 373 531 364
f 364 531 522
f 364 522 300
f 300 522 457
f 300 457 301
f 301 457 459
f 301 459 299
f 299 459 458
f 299 458 303
f 303 458 461
f 303 461 302
f 302 461 460
f 302 460 305
f 305 460 463
f 305 463 304
f 304 463 462
f 304 462 307
f 307 462 465
f 307 465 306
f 306 465 464
f 306 464 309
f 309 464 467
f 309 467 308
f 308 467 466
f 308 466 311
f 311 466 469
f 311 469 310
f 310 469 468
f 310 468 313
f 313 468 471
f 313 471 312
f 312 471 470
f 312 470 315
f 315 470 473
f 315 473 314
f 314 473 472
f 314 472 317
f 317 472 475
f 317 475 316
f 316 475 474
f 316 474 319
f 319 474 477
f 319 477 318
f 318 477 476
f 318 476 321
f 321 476 479
f 321 479 320
f 320 479 478
f 320 478 323
f 323 478 481
f 323 481 322
f 322 481 480
f 322 480 365
f 365 480 523
f 365 523 382
f 382 523 540
f 382 540 380
f 380 540 538
f 380 538 369
f 369 538 527
f 369 527 325
f 325 527 482
f 325 482 326
f 326 482 484
f 326 484 324
f 324 484 483
f 324 483 328
f 328 483 486
f 328 486 327
f 327 486 485
f 327 485 330
f 330 485 488
f 330 488 329
f 329 488 487
f 329 487 332
f 332 487 490
f 332 490 331
f 331 490 489
f 331 489 334
f 334 489 492
f 334 492 333
f 333 492 491
f 333 491 336
f 336 491 494
f 336 494 335
f 335 494 493
f 335 493 338
f 338 493 496
f 338 496 337
f 337 496 495
f 337 495 386
f 386 495 544
f 386 544 381
f 381 544 539
f 381 539 374
f 374 539 532
f 374 532 340
f 340 532 497
f 340 497 341
f 341 497 499
f 341 499 339
f 339 499 498
f 339 498 343
f 343 498 501
f 343 501 342
f 342 501 500
f 342 500 345
f 345 500 503
f 345 503 344
f 344 503 502
f 344 502 366
f 366 502 524
f 366 524 347
f 347 524 504
f 347 504 348
f 348 504 506
f 348 506 346
f 346 506 505
f 346 505 350
f 350 505 508
f 350 508 349
f 349 508 507
f 349 507 352
f 352 507 510
f 352 510 351
f 351 510 509
f 351 509 354
f 354 509 512
f 354 512 353
f 353 512 511
f 353 511 356
f 356 511 514
f 356 514 355
f 355 514 513
f 355 513 358
f 358 513 516
f 358 516 357
f 357 516 515
f 357 515 360
f 360 515 518
f 360 518 359
f 359 518 517
f 359 517 362
f 362 517 520
f 362 520 361
f 361 520 519
f 361 519 260
f 260 519 417
f 260 417 261
f 261 417 419
f 261 419 259
f 259 419 418
o 
v 23.78 0 -38.46
v 24.009 0 -37.805
v 23.886 0 -38.116
v 23.626 0 -39.159
v 23.694 0 -38.817
v 23.557 0 -39.734
v 23.58 0 -39.47
v 23.59 0 -40.06
v 23.56 0 -39.936
v 24.183 0 -40.433
v 23.76 0 -40.189
v 25.627 0 -41.187
v 24.819 0 -40.772
v 27.6 0 -42.16
v 26.568 0 -41.656
v 25.56 0 -44.45
v 30.3 0 -46.55
v 28.48 0 -45.74
v 21.179 0 -42.154
v 21.65 0 -42.48
v 21.427 0 -42.235
v 20.674 0 -42.449
v 20.923 0 -42.229
v 20.27 0 -43.29
v 20.451 0 -42.806
v 20.134 0 -44.676
v 20.126 0 -44.028
v 20.612 0 -45.72
v 20.296 0 -45.239
v 21.71 0 -46.46
v 21.083 0 -46.126
v 17.543 0 -47.557
v 18.2 0 -47.93
v 17.821 0 -47.676
v 17.173 0 -47.793
v 17.337 0 -47.59
v 16.85 0 -48.78
v 17.021 0 -48.184
v 16.801 0 -50.443
v 16.684 0 -49.702
v 18.402 0 -51.82
v 17.331 0 -51.112
v 22.68 0 -53.79
v 20.142 0 -52.676
v 14.392 0 -53.103
v 15.281 0 -53.705
v 14.97 0 -53.48
v 13.655 0 -53.069
v 13.963 0 -52.958
v 13.304 0 -54.151
v 13.444 0 -53.459
v 13.227 0 -55.721
v 13.21 0 -55.17
v 13.725 0 -56.649
v 13.388 0 -56.204
v 15.05 0 -57.547
v 14.269 0 -57.086
v 17.532 0 -58.742
v 16.1 0 -58.06
v 20.839 0 -62.672
v 20.212 0 -60.815
v 20.39 0 -61.38
v 22.716 0 -65.26
v 21.639 0 -63.99
v 25.41 0 -67.368
v 23.997 0 -66.41
v 27.676 0 -68.353
v 26.88 0 -68.06
v 31.486 0 -75.321
v 29.98 0 -71.72
v 30.818 0 -73.858
v 32.687 0 -76.649
v 32.077 0 -76.216
v 34.34 0 -76.55
v 33.41 0 -76.725
v 35.522 0 -76.124
v 35.057 0 -76.337
v 35.738 0 -75.609
v 35.746 0 -75.889
v 35.06 0 -74.83
v 35.506 0 -75.264
v 36.722 0 -70.897
v 35.456 0 -68.102
v 35.91 0 -69.12
v 37.987 0 -72.926
v 37.39 0 -72.14
v 39.272 0 -73.439
v 38.59 0 -73.333
v 40.855 0 -73.13
v 40.11 0 -73.32
v 41.561 0 -72.68
v 41.336 0 -72.924
v 41.284 0 -71.99
v 41.541 0 -72.376
v 38.226 0 -66.449
v 38.76 0 -67.87
v 38.492 0 -67.142
v 37.761 0 -65.297
v 37.978 0 -65.824
v 37.48 0 -64.67
v 37.59 0 -64.902
v 42.284 0 -68.454
v 40.926 0 -65.01
v 41.77 0 -67.21
v 43.264 0 -69.887
v 42.764 0 -69.332
v 44.547 0 -70.195
v 43.84 0 -70.161
v 45.839 0 -69.928
v 45.44 0 -70.03
v 46.529 0 -69.704
v 46.207 0 -69.818
v 46.975 0 -69.489
v 46.79 0 -69.592
v 47.08 0 -69.296
v 47.07 0 -69.4
v 46.916 0 -68.971
v 47.027 0 -69.15
v 46.555 0 -68.557
v 46.757 0 -68.77
v 44.333 0 -64.738
v 44.84 0 -66.08
v 44.578 0 -65.381
v 43.781 0 -63.359
v 44.076 0 -64.086
v 42.96 0 -61.41
v 43.418 0 -62.489
v 47.498 0 -64.278
v 46.336 0 -61.379
v 46.76 0 -62.45
v 48.653 0 -66.365
v 48.104 0 -65.556
v 49.88 0 -66.906
v 49.219 0 -66.788
v 51.509 0 -66.616
v 50.71 0 -66.8
v 52.301 0 -66.19
v 52.035 0 -66.423
v 52.11 0 -65.484
v 52.322 0 -65.887
v 48.607 0 -56.749
v 49.572 0 -59.964
v 48.86 0 -57.55
v 47.888 0 -55.344
v 48.304 0 -56.045
v 46.455 0 -53.575
v 47.293 0 -54.551
v 40.837 0 -47.455
v 45.31 0 -52.32
v 35.909 0 -42.21
v 37.818 0 -44.2
v 34.044 0 -40.645
v 34.766 0 -41.14
v 28.45 0 -38.53
v 33.4 0 -40.38
v 26.599 0 -37.839
v 27.489 0 -38.167
v 25.184 0 -37.341
v 25.819 0 -37.559
v 24.5 0 -37.15
v 24.732 0 -37.2
v 24.271 0 -37.332
v 24.394 0 -37.198
v 24.14 0 -37.539
v 28.62 0 -42.662
v 24.345 0 -43.921
v 21.815 0 -42.643
v 23.476 0 -47.215
v 29.5 0 -70.507
v 34.7 0 -74.475
v 46.32 0 -68.34
v 19.052 0 -48.398
v 15.638 0 -53.941
v 35.017 0 -67.175
v 39.099 0 -68.754
v 40.304 0 -63.471
v 45.924 0 -60.392
v 50.113 0 -61.72
v 22.144 0 -42.857
v 25.017 0 -47.924
v 20.569 0 -49.127
v 23.361 0 -54.127
v 16.02 0 -54.176
v 19.891 0 -60.31
v 29.103 0 -69.649
v 34.36 0 -74.021
v 34.612 0 -66.376
v 40.8 0 -71.5
v 46.059 0 -68.087
v 45.545 0 -59.531
v 51.68 0 -64.95
v 50.54 0 -62.956
v 22.66 0 -43.135
v 26.289 0 -48.563
v 22.403 0 -49.964
v 23.84 0 -54.46
v 16.406 0 -54.399
v 18.606 0 -59.316
v 28.264 0 -68.658
v 28.715 0 -69.061
v 34.025 0 -73.442
v 39.841 0 -62.478
v 45.785 0 -67.754
v 29.554 0 -43.151
v 23.386 0 -43.486
v 27.25 0 -49.106
v 24.208 0 -50.753
v 16.773 0 -54.598
v 19.374 0 -59.825
v 34.263 0 -65.745
v 39.476 0 -61.912
v 45.513 0 -67.364
v 45.216 0 -58.838
v 50.907 0 -63.814
v 30.364 0 -43.605
v 27.858 0 -49.53
v 17.1 0 -54.76
v 33.989 0 -65.32
v 44.954 0 -58.354
v 51.268 0 -64.432
v 31.009 0 -43.999
v 25.639 0 -51.34
v 33.68 0 -72.712
v 33.81 0 -65.14
v 45.255 0 -66.939
v 44.78 0 -58.12
v 31.451 0 -44.308
v 26.35 0 -51.57
v 19.385 0 -55.795
v 33.31 0 -71.804
v 40.436 0 -71.124
v 45.026 0 -66.504
v 31.65 0 -44.51
v 31.05 0 -45.8
v 26.661 0 -51.476
v 21.029 0 -56.47
v 32.9 0 -70.69
v 40.091 0 -70.677
v 31.264 0 -45.563
v 27.031 0 -51.231
v 22.165 0 -56.811
v 32.595 0 -69.794
v 39.757 0 -70.143
v 28.07 0 -49.81
v 27.409 0 -50.889
v 22.928 0 -56.847
v 32.318 0 -68.95
v 39.429 0 -69.507
v 39.146 0 -61.659
v 44.613 0 -57.996
v 27.979 0 -50.124
v 24.122 0 -54.807
v 23.452 0 -56.604
v 32.08 0 -68.194
v 38.79 0 -61.6
v 44.444 0 -57.936
v 27.742 0 -50.502
v 42.694 0 -60.686
v 44.26 0 -57.941
v 31.434 0 -45.326
v 24.217 0 -55.186
v 23.87 0 -56.11
v 33.434 0 -65.128
v 38.199 0 -61.738
v 44.05 0 -58.014
v 24.13 0 -55.615
v 37.238 0 -63.995
v 42.562 0 -60.091
v 43.8 0 -58.156
v 31.892 0 -67.56
v 37.215 0 -63.301
v 42.57 0 -59.594
v 43.5 0 -58.37
v 31.765 0 -67.083
v 32.979 0 -65.306
v 42.724 0 -59.163
v 43.032 0 -58.765
v 31.71 0 -66.8
v 37.385 0 -62.651
v 31.669 0 -44.681
v 37.721 0 -62.109
v 31.56 0 -45.095
v 32.513 0 -65.618
v 31.639 0 -44.878
v 32.101 0 -66.007
v 31.811 0 -66.42
v 24.009 10 -37.805
v 23.78 10 -38.46
v 23.886 10 -38.116
v 23.626 10 -39.159
v 23.694 10 -38.817
v 23.557 10 -39.734
v 23.58 10 -39.47
v 23.59 10 -40.06
v 23.56 10 -39.936
v 24.183 10 -40.433
v 23.76 10 -40.189
v 25.627 10 -41.187
v 24.819 10 -40.772
v 27.6 10 -42.16
v 26.568 10 -41.656
v 30.3 10 -46.55
v 25.56 10 -44.45
v 28.48 10 -45.74
v 21.65 10 -42.48
v 21.179 10 -42.154
v 21.427 10 -42.235
v 20.674 10 -42.449
v 20.923 10 -42.229
v 20.27 10 -43.29
v 20.451 10 -42.806
v 20.134 10 -44.676
v 20.126 10 -44.028
v 20.612 10 -45.72
v 20.296 10 -45.239
v 21.71 10 -46.46
v 21.083 10 -46.126
v 18.2 10 -47.93
v 17.543 10 -47.557
v 17.821 10 -47.676
v 17.173 10 -47.793
v 17.337 10 -47.59
v 16.85 10 -48.78
v 17.021 10 -48.184
v 16.801 10 -50.443
v 16.684 10 -49.702
v 18.402 10 -51.82
v 17.331 10 -51.112
v 22.68 10 -53.79
v 20.142 10 -52.676
v 15.281 10 -53.705
v 14.392 10 -53.103
v 14.97 10 -53.48
v 13.655 10 -53.069
v 13.963 10 -52.958
v 13.304 10 -54.151
v 13.444 10 -53.459
v 13.227 10 -55.721
v 13.21 10 -55.17
v 13.725 10 -56.649
v 13.388 10 -56.204
v 15.05 10 -57.547
v 14.269 10 -57.086
v 17.532 10 -58.742
v 16.1 10 -58.06
v 20.212 10 -60.815
v 20.839 10 -62.672
v 20.39 10 -61.38
v 22.716 10 -65.26
v 21.639 10 -63.99
v 25.41 10 -67.368
v 23.997 10 -66.41
v 27.676 10 -68.353
v 26.88 10 -68.06
v 29.98 10 -71.72
v 31.486 10 -75.321
v 30.818 10 -73.858
v 32.687 10 -76.649
v 32.077 10 -76.216
v 34.34 10 -76.55
v 33.41 10 -76.725
v 35.522 10 -76.124
v 35.057 10 -76.337
v 35.738 10 -75.609
v 35.746 10 -75.889
v 35.06 10 -74.83
v 35.506 10 -75.264
v 35.456 10 -68.102
v 36.722 10 -70.897
v 35.91 10 -69.12
v 37.987 10 -72.926
v 37.39 10 -72.14
v 39.272 10 -73.439
v 38.59 10 -73.333
v 40.855 10 -73.13
v 40.11 10 -73.32
v 41.561 10 -72.68
v 41.336 10 -72.924
v 41.284 10 -71.99
v 41.541 10 -72.376
v 38.76 10 -67.87
v 38.226 10 -66.449
v 38.492 10 -67.142
v 37.761 10 -65.297
v 37.978 10 -65.824
v 37.48 10 -64.67
v 37.59 10 -64.902
v 40.926 10 -65.01
v 42.284 10 -68.454
v 41.77 10 -67.21
v 43.264 10 -69.887
v 42.764 10 -69.332
v 44.547 10 -70.195
v 43.84 10 -70.161
v 45.839 10 -69.928
v 45.44 10 -70.03
v 46.529 10 -69.704
v 46.207 10 -69.818
v 46.975 10 -69.489
v 46.79 10 -69.592
v 47.08 10 -69.296
v 47.07 10 -69.4
v 46.916 10 -68.971
v 47.027 10 -69.15
v 46.555 10 -68.557
v 46.757 10 -68.77
v 44.84 10 -66.08
v 44.333 10 -64.738
v 44.578 10 -65.381
v 43.781 10 -63.359
v 44.076 10 -64.086
v 42.96 10 -61.41
v 43.418 10 -62.489
v 46.336 10 -61.379
v 47.498 10 -64.278
v 46.76 10 -62.45
v 48.653 10 -66.365
v 48.104 10 -65.556
v 49.88 10 -66.906
v 49.219 10 -66.788
v 51.509 10 -66.616
v 50.71 10 -66.8
v 52.301 10 -66.19
v 52.035 10 -66.423
v 52.11 10 -65.484
v 52.322 10 -65.887
v 49.572 10 -59.964
v 48.607 10 -56.749
v 48.86 10 -57.55
v 47.888 10 -55.344
v 48.304 10 -56.045
v 46.455 10 -53.575
v 47.293 10 -54.551
v 40.837 10 -47.455
v 45.31 10 -52.32
v 35.909 10 -42.21
v 37.818 10 -44.2
v 34.044 10 -40.645
v 34.766 10 -41.14
v 28.45 10 -38.53
v 33.4 10 -40.38
v 26.599 10 -37.839
v 27.489 10 -38.167
v 25.184 10 -37.341
v 25.819 10 -37.559
v 24.5 10 -37.15
v 24.732 10 -37.2
v 24.271 10 -37.332
v 24.394 10 -37.198
v 24.14 10 -37.539
v 28.62 10 -42.662
v 24.345 10 -43.921
v 21.815 10 -42.643
v 23.476 10 -47.215
v 29.5 10 -70.507
v 34.7 10 -74.475
v 46.32 10 -68.34
v 19.052 10 -48.398
v 15.638 10 -53.941
v 35.017 10 -67.175
v 39.099 10 -68.754
v 40.304 10 -63.471
v 45.924 10 -60.392
v 50.113 10 -61.72
v 22.144 10 -42.857
v 25.017 10 -47.924
v 20.569 10 -49.127
v 23.361 10 -54.127
v 16.02 10 -54.176
v 19.891 10 -60.31
v 29.103 10 -69.649
v 34.36 10 -74.021
v 34.612 10 -66.376
v 40.8 10 -71.5
v 46.059 10 -68.087
v 45.545 10 -59.531
v 51.68 10 -64.95
v 50.54 10 -62.956
v 22.66 10 -43.135
v 26.289 10 -48.563
v 22.403 10 -49.964
v 23.84 10 -54.46
v 16.406 10 -54.399
v 18.606 10 -59.316
v 28.264 10 -68.658
v 28.715 10 -69.061
v 34.025 10 -73.442
v 39.841 10 -62.478
v 45.785 10 -67.754
v 29.554 10 -43.151
v 23.386 10 -43.486
v 27.25 10 -49.106
v 24.208 10 -50.753
v 16.773 10 -54.598
v 19.374 10 -59.825
v 34.263 10 -65.745
v 39.476 10 -61.912
v 45.513 10 -67.364
v 45.216 10 -58.838
v 50.907 10 -63.814
v 30.364 10 -43.605
v 27.858 10 -49.53
v 17.1 10 -54.76
v 33.989 10 -65.32
v 44.954 10 -58.354
v 51.268 10 -64.432
v 31.009 10 -43.999
v 25.639 10 -51.34
v 33.68 10 -72.712
v 33.81 10 -65.14
v 45.255 10 -66.939
v 44.78 10 -58.12
v 31.451 10 -44.308
v 26.35 10 -51.57
v 19.385 10 -55.795
v 33.31 10 -71.804
v 40.436 10 -71.124
v 45.026 10 -66.504
v 31.65 10 -44.51
v 31.05 10 -45.8
v 26.661 10 -51.476
v 21.029 10 -56.47
v 32.9 10 -70.69
v 40.091 10 -70.677
v 31.264 10 -45.563
v 27.031 10 -51.231
v 22.165 10 -56.811
v 32.595 10 -69.794
v 39.757 10 -70.143
v 28.07 10 -49.81
v 27.409 10 -50.889
v 22.928 10 -56.847
v 32.318 10 -68.95
v 39.429 10 -69.507
v 39.146 10 -61.659
v 44.613 10 -57.996
v 27.979 10 -50.124
v 24.122 10 -54.807
v 23.452 10 -56.604
v 32.08 10 -68.194
v 38.79 10 -61.6
v 44.444 10 -57.936
v 27.742 10 -50.502
v 42.694 10 -60.686
v 44.26 10 -57.941
v 31.434 10 -45.326
v 24.217 10 -55.186
v 23.87 10 -56.11
v 33.434 10 -65.128
v 38.199 10 -61.738
v 44.05 10 -58.014
v 24.13 10 -55.615
v 37.238 10 -63.995
v 42.562 10 -60.091
v 43.8 10 -58.156
v 31.892 10 -67.56
v 37.215 10 -63.301
v 42.57 10 -59.594
v 43.5 10 -58.37
v 31.765 10 -67.083
v 32.979 10 -65.306
v 42.724 10 -59.163
v 43.032 10 -58.765
v 31.71 10 -66.8
v 37.385 10 -62.651
v 31.669 10 -44.681
v 37.721 10 -62.109
v 31.56 10 -45.095
v 32.513 10 -65.618
v 31.639 10 -44.878
v 32.101 10 -66.007
v 31.811 10 -66.42
f 575 576 577
f 578 575 579
f 580 578 581
f 582 580 583
f 584 582 585
f 586 584 587
f 588 586 589
f 590 591 592
f 593 594 595
f 596 593 597
f 598 596 599
f 600 598 601
f 602 600 603
f 604 602 605
f 606 607 608
f 609 606 610
f 611 609 612
f 613 611 614
f 615 613 616
f 617 615 618
f 619 620 621
f 622 619 623
f 624 622 625
f 626 624 627
f 628 626 629
f 630 628 631
f 632 630 633
f 634 635 636
f 637 634 638
f 639 637 640
f 641 639 642
f 643 644 645
f 646 643 647
f 648 646 649
f 650 648 651
f 652 650 653
f 654 652 655
f 656 657 658
f 659 656 660
f 661 659 662
f 663 661 664
f 665 663 666
f 667 665 668
f 669 670 671
f 672 669 673
f 674 672 675
f 676 677 678
f 679 676 680
f 681 679 682
f 683 681 684
f 685 683 686
f 687 685 688
f 689 687 690
f 691 689 692
f 693 691 694
f 695 696 697
f 698 695 699
f 700 698 701
f 702 703 704
f 705 702 706
f 707 705 708
f 709 707 710
f 711 709 712
f 713 711 714
f 715 716 717
f 718 715 719
f 720 718 721
f 722 720 723
f 724 722 725
f 726 724 727
f 728 726 729
f 730 728 731
f 732 730 733
f 734 732 735
f 736 734 737
f 576 736 738
f 578 576 575
f 582 578 580
f 586 582 584
f 739 586 588
f 740 591 590
f 593 741 594
f 598 593 596
f 602 598 600
f 742 602 604
f 609 607 606
f 613 609 611
f 617 613 615
f 622 620 619
f 626 622 624
f 630 626 628
f 637 635 634
f 641 637 639
f 643 743 644
f 648 643 646
f 652 648 650
f 744 652 654
f 659 657 656
f 663 659 661
f 667 663 665
f 672 670 669
f 679 677 676
f 683 679 681
f 687 683 685
f 691 687 689
f 745 691 693
f 698 696 695
f 705 703 702
f 709 705 707
f 713 709 711
f 718 716 715
f 722 718 720
f 726 722 724
f 730 726 728
f 734 730 732
f 576 734 736
f 582 576 578
f 739 582 586
f 598 741 593
f 742 598 602
f 609 746 607
f 617 609 613
f 622 747 620
f 630 622 626
f 641 635 637
f 648 743 643
f 744 648 652
f 659 748 657
f 667 659 663
f 672 749 670
f 679 750 677
f 687 679 683
f 745 687 691
f 700 696 698
f 705 751 703
f 713 705 709
f 718 752 716
f 726 718 722
f 734 726 730
f 582 734 576
f 598 753 741
f 754 598 742
f 609 755 746
f 756 609 617
f 622 757 747
f 632 622 630
f 641 758 635
f 648 759 743
f 760 648 744
f 659 761 748
f 762 659 667
f 674 749 672
f 687 750 679
f 763 687 745
f 705 764 751
f 765 705 713
f 718 766 752
f 734 718 726
f 739 734 582
f 598 767 753
f 768 598 754
f 609 769 755
f 770 609 756
f 622 771 757
f 772 622 632
f 773 758 641
f 648 774 759
f 775 648 760
f 762 761 659
f 687 776 750
f 777 687 763
f 765 764 705
f 734 766 718
f 778 734 739
f 598 779 767
f 780 598 768
f 609 781 769
f 622 782 771
f 783 622 772
f 774 758 773
f 775 774 648
f 762 784 761
f 687 785 776
f 786 687 777
f 765 787 764
f 734 788 766
f 789 734 778
f 598 740 779
f 790 598 780
f 770 781 609
f 622 791 782
f 758 622 783
f 775 758 774
f 762 792 784
f 786 785 687
f 765 793 787
f 734 794 788
f 795 734 789
f 598 591 740
f 770 796 781
f 758 791 622
f 797 758 775
f 762 798 792
f 799 785 786
f 765 800 793
f 734 765 794
f 801 734 795
f 790 591 598
f 770 802 796
f 758 803 791
f 804 758 797
f 805 798 762
f 806 785 799
f 807 734 801
f 790 808 591
f 770 809 802
f 758 810 803
f 811 758 804
f 812 798 805
f 696 785 806
f 807 765 734
f 790 813 808
f 770 814 809
f 758 815 810
f 816 758 811
f 817 798 812
f 700 785 696
f 807 800 765
f 818 813 790
f 770 819 814
f 758 820 815
f 821 758 816
f 822 798 817
f 700 823 785
f 807 824 800
f 825 813 818
f 826 819 770
f 758 827 820
f 828 758 821
f 749 798 822
f 700 829 823
f 807 830 824
f 831 813 825
f 826 831 819
f 828 827 758
f 674 798 749
f 832 829 700
f 807 833 830
f 831 834 813
f 835 831 826
f 828 836 827
f 674 837 798
f 832 838 829
f 807 839 833
f 840 831 835
f 828 840 836
f 841 837 674
f 842 838 832
f 807 843 839
f 840 834 831
f 844 840 828
f 845 837 841
f 846 838 842
f 807 847 843
f 848 840 844
f 845 849 837
f 850 838 846
f 807 851 847
f 852 840 848
f 853 849 845
f 851 838 850
f 854 851 807
f 852 834 840
f 855 849 853
f 854 838 851
f 852 856 834
f 855 857 849
f 854 855 838
f 852 858 856
f 854 857 855
f 852 854 858
f 854 859 857
f 860 854 852
f 854 860 859
f 861 862 863
f 862 864 865
f 864 866 867
f 866 868 869
f 868 870 871
f 870 872 873
f 872 874 875
f 876 877 878
f 879 880 881
f 880 882 883
f 882 884 885
f 884 886 887
f 886 888 889
f 888 890 891
f 892 893 894
f 893 895 896
f 895 897 898
f 897 899 900
f 899 901 902
f 901 903 904
f 905 906 907
f 906 908 909
f 908 910 911
f 910 912 913
f 912 914 915
f 914 916 917
f 916 918 919
f 920 921 922
f 921 923 924
f 923 925 926
f 925 927 928
f 929 930 931
f 930 932 933
f 932 934 935
f 934 936 937
f 936 938 939
f 938 940 941
f 942 943 944
f 943 945 946
f 945 947 948
f 947 949 950
f 949 951 952
f 951 953 954
f 955 956 957
f 956 958 959
f 958 960 961
f 962 963 964
f 963 965 966
f 965 967 968
f 967 969 970
f 969 971 972
f 971 973 974
f 973 975 976
f 975 977 978
f 977 979 980
f 981 982 983
f 982 984 985
f 984 986 987
f 988 989 990
f 989 991 992
f 991 993 994
f 993 995 996
f 995 997 998
f 997 999 1000
f 1001 1002 1003
f 1002 1004 1005
f 1004 1006 1007
f 1006 1008 1009
f 1008 1010 1011
f 1010 1012 1013
f 1012 1014 1015
f 1014 1016 1017
f 1016 1018 1019
f 1018 1020 1021
f 1020 1022 1023
f 1022 861 1024
f 861 864 862
f 864 868 866
f 868 872 870
f 872 1025 874
f 876 1026 877
f 1027 880 879
f 880 884 882
f 884 888 886
f 888 1028 890
f 892 895 893
f 895 899 897
f 899 903 901
f 905 908 906
f 908 912 910
f 912 916 914
f 920 923 921
f 923 927 925
f 1029 930 929
f 930 934 932
f 934 938 936
f 938 1030 940
f 942 945 943
f 945 949 947
f 949 953 951
f 955 958 956
f 962 965 963
f 965 969 967
f 969 973 971
f 973 977 975
f 977 1031 979
f 981 984 982
f 988 991 989
f 991 995 993
f 995 999 997
f 1001 1004 1002
f 1004 1008 1006
f 1008 1012 1010
f 1012 1016 1014
f 1016 1020 1018
f 1020 861 1022
f 861 868 864
f 868 1025 872
f 1027 884 880
f 884 1028 888
f 1032 895 892
f 895 903 899
f 1033 908 905
f 908 916 912
f 920 927 923
f 1029 934 930
f 934 1030 938
f 1034 945 942
f 945 953 949
f 1035 958 955
f 1036 965 962
f 965 973 969
f 973 1031 977
f 981 986 984
f 1037 991 988
f 991 999 995
f 1038 1004 1001
f 1004 1012 1008
f 1012 1020 1016
f 1020 868 861
f 1039 884 1027
f 884 1040 1028
f 1041 895 1032
f 895 1042 903
f 1043 908 1033
f 908 918 916
f 1044 927 920
f 1045 934 1029
f 934 1046 1030
f 1047 945 1034
f 945 1048 953
f 1035 960 958
f 1036 973 965
f 973 1049 1031
f 1050 991 1037
f 991 1051 999
f 1052 1004 1038
f 1004 1020 1012
f 1020 1025 868
f 1053 884 1039
f 884 1054 1040
f 1055 895 1041
f 895 1056 1042
f 1057 908 1043
f 908 1058 918
f 1044 1059 927
f 1060 934 1045
f 934 1061 1046
f 1047 1048 945
f 1062 973 1036
f 973 1063 1049
f 1050 1051 991
f 1052 1020 1004
f 1020 1064 1025
f 1065 884 1053
f 884 1066 1054
f 1067 895 1055
f 1068 908 1057
f 908 1069 1058
f 1044 1060 1059
f 1060 1061 934
f 1070 1048 1047
f 1071 973 1062
f 973 1072 1063
f 1073 1051 1050
f 1074 1020 1052
f 1020 1075 1064
f 1026 884 1065
f 884 1076 1066
f 1067 1056 895
f 1077 908 1068
f 908 1044 1069
f 1044 1061 1060
f 1078 1048 1070
f 1071 1072 973
f 1079 1051 1073
f 1080 1020 1074
f 1020 1081 1075
f 876 884 1026
f 1082 1056 1067
f 1077 1044 908
f 1044 1083 1061
f 1084 1048 1078
f 1071 1085 1072
f 1086 1051 1079
f 1051 1020 1080
f 1020 1087 1081
f 876 1076 884
f 1088 1056 1082
f 1089 1044 1077
f 1044 1090 1083
f 1084 1091 1048
f 1071 1092 1085
f 1020 1093 1087
f 1094 1076 876
f 1095 1056 1088
f 1096 1044 1089
f 1044 1097 1090
f 1084 1098 1091
f 1071 981 1092
f 1051 1093 1020
f 1099 1076 1094
f 1100 1056 1095
f 1101 1044 1096
f 1044 1102 1097
f 1084 1103 1098
f 1071 986 981
f 1086 1093 1051
f 1099 1104 1076
f 1105 1056 1100
f 1106 1044 1101
f 1044 1107 1102
f 1084 1108 1103
f 1109 986 1071
f 1110 1093 1086
f 1099 1111 1104
f 1105 1112 1056
f 1113 1044 1106
f 1044 1114 1107
f 1084 1035 1108
f 1115 986 1109
f 1116 1093 1110
f 1099 1117 1111
f 1117 1112 1105
f 1113 1114 1044
f 1084 960 1035
f 1115 1118 986
f 1119 1093 1116
f 1120 1117 1099
f 1117 1121 1112
f 1122 1114 1113
f 1123 960 1084
f 1124 1118 1115
f 1125 1093 1119
f 1117 1126 1121
f 1126 1114 1122
f 1123 1127 960
f 1124 1128 1118
f 1129 1093 1125
f 1120 1126 1117
f 1126 1130 1114
f 1123 1131 1127
f 1124 1132 1128
f 1133 1093 1129
f 1126 1134 1130
f 1135 1131 1123
f 1124 1136 1132
f 1137 1093 1133
f 1126 1138 1134
f 1135 1139 1131
f 1124 1137 1136
f 1137 1140 1093
f 1120 1138 1126
f 1135 1141 1139
f 1124 1140 1137
f 1142 1138 1120
f 1143 1141 1135
f 1141 1140 1124
f 1144 1138 1142
f 1143 1140 1141
f 1140 1138 1144
f 1145 1140 1143
f 1140 1146 1138
f 1146 1140 1145
f 575 862 579
f 579 862 865
f 579 865 578
f 578 865 864
f 578 864 581
f 581 864 867
f 581 867 580
f 580 867 866
f 580 866 583
f 583 866 869
f 583 869 582
f 582 869 868
f 582 868 585
f 585 868 871
f 585 871 584
f 584 871 870
f 584 870 587
f 587 870 873
f 587 873 586
f 586 873 872
f 586 872 589
f 589 872 875
f 589 875 588
f 588 875 874
f 588 874 739
f 739 874 1025
f 739 1025 778
f 778 1025 1064
f 778 1064 789
f 789 1064 1075
f 789 1075 795
f 795 1075 1081
f 795 1081 801
f 801 1081 1087
f 801 1087 807
f 807 1087 1093
f 807 1093 854
f 854 1093 1140
f 854 1140 858
f 858 1140 1144
f 858 1144 856
f 856 1144 1142
f 856 1142 834
f 834 1142 1120
f 834 1120 813
f 813 1120 1099
f 813 1099 808
f 808 1099 1094
f 808 1094 591
f 591 1094 876
f 591 876 592
f 592 876 878
f 592 878 590
f 590 878 877
f 590 877 740
f 740 877 1026
f 740 1026 779
f 779 1026 1065
f 779 1065 767
f 767 1065 1053
f 767 1053 753
f 753 1053 1039
f 753 1039 741
f 741 1039 1027
f 741 1027 594
f 594 1027 879
f 594 879 595
f 595 879 881
f 595 881 593
f 593 881 880
f 593 880 597
f 597 880 883
f 597 883 596
f 596 883 882
f 596 882 599
f 599 882 885
f 599 885 598
f 598 885 884
f 598 884 601
f 601 884 887
f 601 887 600
f 600 887 886
f 600 886 603
f 603 886 889
f 603 889 602
f 602 889 888
f 602 888 605
f 605 888 891
f 605 891 604
f 604 891 890
f 604 890 742
f 742 890 1028
f 742 1028 754
f 754 1028 1040
f 754 1040 768
f 768 1040 1054
f 768 1054 780
f 780 1054 1066
f 780 1066 790
f 790 1066 1076
f 790 1076 818
f 818 1076 1104
f 818 1104 825
f 825 1104 1111
f 825 1111 831
f 831 1111 1117
f 831 1117 819
f 819 1117 1105
f 819 1105 814
f 814 1105 1100
f 814 1100 809
f 809 1100 1095
f 809 1095 802
f 802 1095 1088
f 802 1088 796
f 796 1088 1082
f 796 1082 781
f 781 1082 1067
f 781 1067 769
f 769 1067 1055
f 769 1055 755
f 755 1055 1041
f 755 1041 746
f 746 1041 1032
f 746 1032 607
f 607 1032 892
f 607 892 608
f 608 892 894
f 608 894 606
f 606 894 893
f 606 893 610
f 610 893 896
f 610 896 609
f 609 896 895
f 609 895 612
f 612 895 898
f 612 898 611
f 611 898 897
f 611 897 614
f 614 897 900
f 614 900 613
f 613 900 899
f 613 899 616
f 616 899 902
f 616 902 615
f 615 902 901
f 615 901 618
f 618 901 904
f 618 904 617
f 617 904 903
f 617 903 756
f 756 903 1042
f 756 1042 770
f 770 1042 1056
f 770 1056 826
f 826 1056 1112
f 826 1112 835
f 835 1112 1121
f 835 1121 840
f 840 1121 1126
f 840 1126 836
f 836 1126 1122
f 836 1122 827
f 827 1122 1113
f 827 1113 820
f 820 1113 1106
f 820 1106 815
f 815 1106 1101
f 815 1101 810
f 810 1101 1096
f 810 1096 803
f 803 1096 1089
f 803 1089 791
f 791 1089 1077
f 791 1077 782
f 782 1077 1068
f 782 1068 771
f 771 1068 1057
f 771 1057 757
f 757 1057 1043
f 757 1043 747
f 747 1043 1033
f 747 1033 620
f 620 1033 905
f 620 905 621
f 621 905 907
f 621 907 619
f 619 907 906
f 619 906 623
f 623 906 909
f 623 909 622
f 622 909 908
f 622 908 625
f 625 908 911
f 625 911 624
f 624 911 910
f 624 910 627
f 627 910 913
f 627 913 626
f 626 913 912
f 626 912 629
f 629 912 915
f 629 915 628
f 628 915 914
f 628 914 631
f 631 914 917
f 631 917 630
f 630 917 916
f 630 916 633
f 633 916 919
f 633 919 632
f 632 919 918
f 632 918 772
f 772 918 1058
f 772 1058 783
f 783 1058 1069
f 783 1069 758
f 758 1069 1044
f 758 1044 635
f 635 1044 920
f 635 920 636
f 636 920 922
f 636 922 634
f 634 922 921
f 634 921 638
f 638 921 924
f 638 924 637
f 637 924 923
f 637 923 640
f 640 923 926
f 640 926 639
f 639 926 925
f 639 925 642
f 642 925 928
f 642 928 641
f 641 928 927
f 641 927 773
f 773 927 1059
f 773 1059 774
f 774 1059 1060
f 774 1060 759
f 759 1060 1045
f 759 1045 743
f 743 1045 1029
f 743 1029 644
f 644 1029 929
f 644 929 645
f 645 929 931
f 645 931 643
f 643 931 930
f 643 930 647
f 647 930 933
f 647 933 646
f 646 933 932
f 646 932 649
f 649 932 935
f 649 935 648
f 648 935 934
f 648 934 651
f 651 934 937
f 651 937 650
f 650 937 936
f 650 936 653
f 653 936 939
f 653 939 652
f 652 939 938
f 652 938 655
f 655 938 941
f 655 941 654
f 654 941 940
f 654 940 744
f 744 940 1030
f 744 1030 760
f 760 1030 1046
f 760 1046 775
f 775 1046 1061
f 775 1061 797
f 797 1061 1083
f 797 1083 804
f 804 1083 1090
f 804 1090 811
f 811 1090 1097
f 811 1097 816
f 816 1097 1102
f 816 1102 821
f 821 1102 1107
f 821 1107 828
f 828 1107 1114
f 828 1114 844
f 844 1114 1130
f 844 1130 848
f 848 1130 1134
f 848 1134 852
f 852 1134 1138
f 852 1138 860
f 860 1138 1146
f 860 1146 859
f 859 1146 1145
f 859 1145 857
f 857 1145 1143
f 857 1143 849
f 849 1143 1135
f 849 1135 837
f 837 1135 1123
f 837 1123 798
f 798 1123 1084
f 798 1084 792
f 792 1084 1078
f 792 1078 784
f 784 1078 1070
f 784 1070 761
f 761 1070 1047
f 761 1047 748
f 748 1047 1034
f 748 1034 657
f 657 1034 942
f 657 942 658
f 658 942 944
f 658 944 656
f 656 944 943
f 656 943 660
f 660 943 946
f 660 946 659
f 659 946 945
f 659 945 662
f 662 945 948
f 662 948 661
f 661 948 947
f 661 947 664
f 664 947 950
f 664 950 663
f 663 950 949
f 663 949 666
f 666 949 952
f 666 952 665
f 665 952 951
f 665 951 668
f 668 951 954
f 668 954 667
f 667 954 953
f 667 953 762
f 762 953 1048
f 762 1048 805
f 805 1048 1091
f 805 1091 812
f 812 1091 1098
f 812 1098 817
f 817 1098 1103
f 817 1103 822
f 822 1103 1108
f 822 1108 749
f 749 1108 1035
f 749 1035 670
f 670 1035 955
f 670 955 671
f 671 955 957
f 671 957 669
f 669 957 956
f 669 956 673
f 673 956 959
f 673 959 672
f 672 959 958
f 672 958 675
f 675 958 961
f 675 961 674
f 674 961 960
f 674 960 841
f 841 960 1127
f 841 1127 845
f 845 1127 1131
f 845 1131 853
f 853 1131 1139
f 853 1139 855
f 855 1139 1141
f 855 1141 838
f 838 1141 1124
f 838 1124 829
f 829 1124 1115
f 829 1115 823
f 823 1115 1109
f 823 1109 785
f 785 1109 1071
f 785 1071 776
f 776 1071 1062
f 776 1062 750
f 750 1062 1036
f 750 1036 677
f 677 1036 962
f 677 962 678
f 678 962 964
f 678 964 676
f 676 964 963
f 676 963 680
f 680 963 966
f 680 966 679
f 679 966 965
f 679 965 682
f 682 965 968
f 682 968 681
f 681 968 967
f 681 967 684
f 684 967 970
f 684 970 683
f 683 970 969
f 683 969 686
f 686 969 972
f 686 972 685
f 685 972 971
f 685 971 688
f 688 971 974
f 688 974 687
f 687 974 973
f 687 973 690
f 690 973 976
f 690 976 689
f 689 976 975
f 689 975 692
f 692 975 978
f 692 978 691
f 691 978 977
f 691 977 694
f 694 977 980
f 694 980 693
f 693 980 979
f 693 979 745
f 745 979 1031
f 745 1031 763
f 763 1031 1049
f 763 1049 777
f 777 1049 1063
f 777 1063 786
f 786 1063 1072
f 786 1072 799
f 799 1072 1085
f 799 1085 806
f 806 1085 1092
f 806 1092 696
f 696 1092 981
f 696 981 697
f 697 981 983
f 697 983 695
f 695 983 982
f 695 982 699
f 699 982 985
f 699 985 698
f 698 985 984
f 698 984 701
f 701 984 987
f 701 987 700
f 700 987 986
f 700 986 832
f 832 986 1118
f 832 1118 842
f 842 1118 1128
f 842 1128 846
f 846 1128 1132
f 846 1132 850
f 850 1132 1136
f 850 1136 851
f 851 1136 1137
f 851 1137 847
f 847 1137 1133
f 847 1133 843
f 843 1133 1129
f 843 1129 839
f 839 1129 1125
f 839 1125 833
f 833 1125 1119
f 833 1119 830
f 830 1119 1116
f 830 1116 824
f 824 1116 1110
f 824 1110 800
f 800 1110 1086
f 800 1086 793
f 793 1086 1079
f 793 1079 787
f 787 1079 1073
f 787 1073 764
f 764 1073 1050
f 764 1050 751
f 751 1050 1037
f 751 1037 703
f 703 1037 988
f 703 988 704
f 704 988 990
f 704 990 702
f 702 990 989
f 702 989 706
f 706 989 992
f 706 992 705
f 705 992 991
f 705 991 708
f 708 991 994
f 708 994 707
f 707 994 993
f 707 993 710
f 710 993 996
f 710 996 709
f 709 996 995
f 709 995 712
f 712 995 998
f 712 998 711
f 711 998 997
f 711 997 714
f 714 997 1000
f 714 1000 713
f 713 1000 999
f 713 999 765
f 765 999 1051
f 765 1051 794
f 794 1051 1080
f 794 1080 788
f 788 1080 1074
f 788 1074 766
f 766 1074 1052
f 766 1052 752
f 752 1052 1038
f 752 1038 716
f 716 1038 1001
f 716 1001 717
f 717 1001 1003
f 717 1003 715
f 715 1003 1002
f 715 1002 719
f 719 1002 1005
f 719 1005 718
f 718 1005 1004
f 718 1004 721
f 721 1004 1007
f 721 1007 720
f 720 1007 1006
f 720 1006 723
f 723 1006 1009
f 723 1009 722
f 722 1009 1008
f 722 1008 725
f 725 1008 1011
f 725 1011 724
f 724 1011 1010
f 724 1010 727
f 727 1010 1013
f 727 1013 726
f 726 1013 1012
f 726 1012 729
f 729 1012 1015
f 729 1015 728
f 728 1015 1014
f 728 1014 731
f 731 1014 1017
f 731 1017 730
f 730 1017 1016
f 730 1016 733
f 733 1016 1019
f 733 1019 732
f 732 1019 1018
f 732 1018 735
f 735 1018 1021
f 735 1021 734
f 734 1021 1020
f 734 1020 737
f 737 1020 1023
f 737 1023 736
f 736 1023 1022
f 736 1022 738
f 738 1022 1024
f 738 1024 576
f 576 1024 861
f 576 861 577
f 577 861 863
f 577 863 575
f 575 863 862
o 
v 42.49 0 -36.96
v 43.721 0 -36.416
v 43.125 0 -36.672
v 38.762 0 -38.691
v 40.383 0 -37.913
v 36.794 0 -39.839
v 37.581 0 -39.324
v 36.22 0 -40.63
v 36.356 0 -40.264
v 36.697 0 -41.484
v 36.342 0 -40.949
v 38.039 0 -43.123
v 37.269 0 -42.215
v 40.11 0 -45.39
v 38.992 0 -44.187
v 46.476 0 -52.394
v 45.285 0 -51.048
v 45.94 0 -51.79
v 47.403 0 -53.404
v 46.97 0 -52.939
v 48.002 0 -53.997
v 47.753 0 -53.764
v 48.306 0 -54.029
v 48.13 0 -54.08
v 48.751 0 -53.556
v 48.507 0 -53.863
v 49.439 0 -52.433
v 49.056 0 -53.087
v 50.992 0 -49.586
v 49.92 0 -51.57
v 52.575 0 -46.471
v 51.881 0 -47.879
v 53.331 0 -44.64
v 53.062 0 -45.384
v 53.272 0 -44.146
v 53.37 0 -44.26
v 52.81 0 -43.835
v 53.08 0 -44.001
v 52.108 0 -43.484
v 52.48 0 -43.659
v 50.032 0 -42.663
v 51.71 0 -43.32
v 46.188 0 -36.977
v 46.66 0 -38.5
v 46.418 0 -37.644
v 45.722 0 -36.147
v 45.959 0 -36.482
v 45.19 0 -35.89
v 45.469 0 -35.954
v 44.692 0 -36.034
v 45.014 0 -35.928
v 44.252 0 -36.2
v 41.207 0 -46.574
v 47.047 0 -39.807
v 44.426 0 -50.093
v 42.33 0 -47.794
v 47.463 0 -40.77
v 43.423 0 -48.987
v 48.841 0 -42.09
v 48.022 0 -41.495
v 43.721 10 -36.416
v 42.49 10 -36.96
v 43.125 10 -36.672
v 38.762 10 -38.691
v 40.383 10 -37.913
v 36.794 10 -39.839
v 37.581 10 -39.324
v 36.22 10 -40.63
v 36.356 10 -40.264
v 36.697 10 -41.484
v 36.342 10 -40.949
v 38.039 10 -43.123
v 37.269 10 -42.215
v 40.11 10 -45.39
v 38.992 10 -44.187
v 45.285 10 -51.048
v 46.476 10 -52.394
v 45.94 10 -51.79
v 47.403 10 -53.404
v 46.97 10 -52.939
v 48.002 10 -53.997
v 47.753 10 -53.764
v 48.306 10 -54.029
v 48.13 10 -54.08
v 48.751 10 -53.556
v 48.507 10 -53.863
v 49.439 10 -52.433
v 49.056 10 -53.087
v 50.992 10 -49.586
v 49.92 10 -51.57
v 52.575 10 -46.471
v 51.881 10 -47.879
v 53.331 10 -44.64
v 53.062 10 -45.384
v 53.272 10 -44.146
v 53.37 10 -44.26
v 52.81 10 -43.835
v 53.08 10 -44.001
v 52.108 10 -43.484
v 52.48 10 -43.659
v 50.032 10 -42.663
v 51.71 10 -43.32
v 46.66 10 -38.5
v 46.188 10 -36.977
v 46.418 10 -37.644
v 45.722 10 -36.147
v 45.959 10 -36.482
v 45.19 10 -35.89
v 45.469 10 -35.954
v 44.692 10 -36.034
v 45.014 10 -35.928
v 44.252 10 -36.2
v 41.207 10 -46.574
v 47.047 10 -39.807
v 44.426 10 -50.093
v 42.33 10 -47.794
v 47.463 10 -40.77
v 43.423 10 -48.987
v 48.841 10 -42.09
v 48.022 10 -41.495
f 1147 1148 1149
f 1150 1147 1151
f 1152 1150 1153
f 1154 1152 1155
f 1156 1154 1157
f 1158 1156 1159
f 1160 1158 1161
f 1162 1163 1164
f 1165 1162 1166
f 1167 1165 1168
f 1169 1167 1170
f 1171 1169 1172
f 1173 1171 1174
f 1175 1173 1176
f 1177 1175 1178
f 1179 1177 1180
f 1181 1179 1182
f 1183 1181 1184
f 1185 1183 1186
f 1187 1185 1188
f 1189 1190 1191
f 1192 1189 1193
f 1194 1192 1195
f 1196 1194 1197
f 1148 1196 1198
f 1150 1148 1147
f 1154 1150 1152
f 1158 1154 1156
f 1199 1158 1160
f 1165 1163 1162
f 1169 1165 1167
f 1173 1169 1171
f 1177 1173 1175
f 1181 1177 1179
f 1185 1181 1183
f 1189 1200 1190
f 1194 1189 1192
f 1148 1194 1196
f 1154 1148 1150
f 1199 1154 1158
f 1165 1201 1163
f 1173 1165 1169
f 1181 1173 1177
f 1187 1181 1185
f 1194 1200 1189
f 1154 1194 1148
f 1202 1154 1199
f 1173 1201 1165
f 1187 1173 1181
f 1194 1203 1200
f 1202 1194 1154
f 1173 1204 1201
f 1205 1173 1187
f 1202 1203 1194
f 1173 1202 1204
f 1206 1173 1205
f 1202 1206 1203
f 1206 1202 1173
f 1207 1208 1209
f 1208 1210 1211
f 1210 1212 1213
f 1212 1214 1215
f 1214 1216 1217
f 1216 1218 1219
f 1218 1220 1221
f 1222 1223 1224
f 1223 1225 1226
f 1225 1227 1228
f 1227 1229 1230
f 1229 1231 1232
f 1231 1233 1234
f 1233 1235 1236
f 1235 1237 1238
f 1237 1239 1240
f 1239 1241 1242
f 1241 1243 1244
f 1243 1245 1246
f 1245 1247 1248
f 1249 1250 1251
f 1250 1252 1253
f 1252 1254 1255
f 1254 1256 1257
f 1256 1207 1258
f 1207 1210 1208
f 1210 1214 1212
f 1214 1218 1216
f 1218 1259 1220
f 1222 1225 1223
f 1225 1229 1227
f 1229 1233 1231
f 1233 1237 1235
f 1237 1241 1239
f 1241 1245 1243
f 1260 1250 1249
f 1250 1254 1252
f 1254 1207 1256
f 1207 1214 1210
f 1214 1259 1218
f 1261 1225 1222
f 1225 1233 1229
f 1233 1241 1237
f 1241 1247 1245
f 1260 1254 1250
f 1254 1214 1207
f 1214 1262 1259
f 1261 1233 1225
f 1233 1247 1241
f 1263 1254 1260
f 1254 1262 1214
f 1264 1233 1261
f 1233 1265 1247
f 1263 1262 1254
f 1262 1233 1264
f 1233 1266 1265
f 1266 1262 1263
f 1262 1266 1233
f 1147 1208 1151
f 1151 1208 1211
f 1151 1211 1150
f 1150 1211 1210
f 1150 1210 1153
f 1153 1210 1213
f 1153 1213 1152
f 1152 1213 1212
f 1152 1212 1155
f 1155 1212 1215
f 1155 1215 1154
f 1154 1215 1214
f 1154 1214 1157
f 1157 1214 1217
f 1157 1217 1156
f 1156 1217 1216
f 1156 1216 1159
f 1159 1216 1219
f 1159 1219 1158
f 1158 1219 1218
f 1158 1218 1161
f 1161 1218 1221
f 1161 1221 1160
f 1160 1221 1220
f 1160 1220 1199
f 1199 1220 1259
f 1199 1259 1202
f 1202 1259 1262
f 1202 1262 1204
f 1204 1262 1264
f 1204 1264 1201
f 1201 1264 1261
f 1201 1261 1163
f 1163 1261 1222
f 1163 1222 1164
f 1164 1222 1224
f 1164 1224 1162
f 1162 1224 1223
f 1162 1223 1166
f 1166 1223 1226
f 1166 1226 1165
f 1165 1226 1225
f 1165 1225 1168
f 1168 1225 1228
f 1168 1228 1167
f 1167 1228 1227
f 1167 1227 1170
f 1170 1227 1230
f 1170 1230 1169
f 1169 1230 1229
f 1169 1229 1172
f 1172 1229 1232
f 1172 1232 1171
f 1171 1232 1231
f 1171 1231 1174
f 1174 1231 1234
f 1174 1234 1173
f 1173 1234 1233
f 1173 1233 1176
f 1176 1233 1236
f 1176 1236 1175
f 1175 1236 1235
f 1175 1235 1178
f 1178 1235 1238
f 1178 1238 1177
f 1177 1238 1237
f 1177 1237 1180
f 1180 1237 1240
f 1180 1240 1179
f 1179 1240 1239
f 1179 1239 1182
f 1182 1239 1242
f 1182 1242 1181
f 1181 1242 1241
f 1181 1241 1184
f 1184 1241 1244
f 1184 1244 1183
f 1183 1244 1243
f 1183 1243 1186
f 1186 1243 1246
f 1186 1246 1185
f 1185 1246 1245
f 1185 1245 1188
f 1188 1245 1248
f 1188 1248 1187
f 1187 1248 1247
f 1187 1247 1205
f 1205 1247 1265
f 1205 1265 1206
f 1206 1265 1266
f 1206 1266 1203
f 1203 1266 1263
f 1203 1263 1200
f 1200 1263 1260
f 1200 1260 1190
f 1190 1260 1249
f 1190 1249 1191
f 1191 1249 1251
f 1191 1251 1189
f 1189 1251 1250
f 1189 1250 1193
f 1193 1250 1253
f 1193 1253 1192
f 1192 1253 1252
f 1192 1252 1195
f 1195 1252 1255
f 1195 1255 1194
f 1194 1255 1254
f 1194 1254 1197
f 1197 1254 1257
f 1197 1257 1196
f 1196 1257 1256
f 1196 1256 1198
f 1198 1256 1258
f 1198 1258 1148
f 1148 1258 1207
f 1148 1207 1149
f 1149 1207 1209
f 1149 1209 1147
f 1147 1209 1208
o 
v 19.17 0 -63.42
v 19.502 0 -63.187
v 19.323 0 -63.252
v 18.421 0 -65.28
v 18.921 0 -64.002
v 17.026 0 -68.987
v 17.76 0 -67.02
v 15.69 0 -72.66
v 16.306 0 -70.945
v 15.283 0 -73.938
v 15.47 0 -73.314
v 15.043 0 -74.979
v 15.139 0 -74.503
v 15.03 0 -75.55
v 15.005 0 -75.337
v 15.425 0 -75.936
v 15.155 0 -75.712
v 16.305 0 -76.511
v 15.816 0 -76.208
v 17.48 0 -77.15
v 16.867 0 -76.83
v 19.057 0 -77.87
v 18.335 0 -77.562
v 20.32 0 -78.227
v 19.7 0 -78.086
v 21.71 0 -78.34
v 20.972 0 -78.307
v 22.75 0 -78.313
v 22.248 0 -78.34
v 23.566 0 -78.197
v 23.196 0 -78.264
v 24 0 -78.03
v 23.841 0 -78.118
v 25.098 0 -75.53
v 24.468 0 -77.166
v 26.349 0 -71.533
v 25.766 0 -73.52
v 26.76 0 -69.22
v 26.722 0 -69.967
v 26.34 0 -68.871
v 26.611 0 -69.076
v 25.517 0 -68.333
v 25.968 0 -68.619
v 24.47 0 -67.71
v 25.01 0 -68.025
v 20.18 0 -63.623
v 21.112 0 -64.883
v 20.45 0 -63.98
v 19.705 0 -63.228
v 19.931 0 -63.373
v 23.628 0 -67.216
v 21.712 0 -65.611
v 22.299 0 -66.213
v 22.921 0 -66.732
v 19.502 10 -63.187
v 19.17 10 -63.42
v 19.323 10 -63.252
v 18.421 10 -65.28
v 18.921 10 -64.002
v 17.026 10 -68.987
v 17.76 10 -67.02
v 15.69 10 -72.66
v 16.306 10 -70.945
v 15.283 10 -73.938
v 15.47 10 -73.314
v 15.043 10 -74.979
v 15.139 10 -74.503
v 15.03 10 -75.55
v 15.005 10 -75.337
v 15.425 10 -75.936
v 15.155 10 -75.712
v 16.305 10 -76.511
v 15.816 10 -76.208
v 17.48 10 -77.15
v 16.867 10 -76.83
v 19.057 10 -77.87
v 18.335 10 -77.562
v 20.32 10 -78.227
v 19.7 10 -78.086
v 21.71 10 -78.34
v 20.972 10 -78.307
v 22.75 10 -78.313
v 22.248 10 -78.34
v 23.566 10 -78.197
v 23.196 10 -78.264
v 24 10 -78.03
v 23.841 10 -78.118
v 25.098 10 -75.53
v 24.468 10 -77.166
v 26.349 10 -71.533
v 25.766 10 -73.52
v 26.76 10 -69.22
v 26.722 10 -69.967
v 26.34 10 -68.871
v 26.611 10 -69.076
v 25.517 10 -68.333
v 25.968 10 -68.619
v 24.47 10 -67.71
v 25.01 10 -68.025
v 21.112 10 -64.883
v 20.18 10 -63.623
v 20.45 10 -63.98
v 19.705 10 -63.228
v 19.931 10 -63.373
v 23.628 10 -67.216
v 21.712 10 -65.611
v 22.299 10 -66.213
v 22.921 10 -66.732
f 1267 1268 1269
f 1270 1267 1271
f 1272 1270 1273
f 1274 1272 1275
f 1276 1274 1277
f 1278 1276 1279
f 1280 1278 1281
f 1282 1280 1283
f 1284 1282 1285
f 1286 1284 1287
f 1288 1286 1289
f 1290 1288 1291
f 1292 1290 1293
f 1294 1292 1295
f 1296 1294 1297
f 1298 1296 1299
f 1300 1298 1301
f 1302 1300 1303
f 1304 1302 1305
f 1306 1304 1307
f 1308 1306 1309
f 1310 1308 1311
f 1312 1313 1314
f 1315 1312 1316
f 1267 1315 1268
f 1272 1267 1270
f 1276 1272 1274
f 1280 1276 1278
f 1284 1280 1282
f 1288 1284 1286
f 1292 1288 1290
f 1296 1292 1294
f 1300 1296 1298
f 1304 1300 1302
f 1308 1304 1306
f 1317 1308 1310
f 1315 1313 1312
f 1272 1315 1267
f 1280 1272 1276
f 1288 1280 1284
f 1296 1288 1292
f 1304 1296 1300
f 1317 1304 1308
f 1315 1318 1313
f 1280 1315 1272
f 1296 1280 1288
f 1317 1296 1304
f 1280 1318 1315
f 1317 1280 1296
f 1280 1319 1318
f 1320 1280 1317
f 1280 1320 1319
f 1321 1322 1323
f 1322 1324 1325
f 1324 1326 1327
f 1326 1328 1329
f 1328 1330 1331
f 1330 1332 1333
f 1332 1334 1335
f 1334 1336 1337
f 1336 1338 1339
f 1338 1340 1341
f 1340 1342 1343
f 1342 1344 1345
f 1344 1346 1347
f 1346 1348 1349
f 1348 1350 1351
f 1350 1352 1353
f 1352 1354 1355
f 1354 1356 1357
f 1356 1358 1359
f 1358 1360 1361
f 1360 1362 1363
f 1362 1364 1365
f 1366 1367 1368
f 1367 1369 1370
f 1369 1322 1321
f 1322 1326 1324
f 1326 1330 1328
f 1330 1334 1332
f 1334 1338 1336
f 1338 1342 1340
f 1342 1346 1344
f 1346 1350 1348
f 1350 1354 1352
f 1354 1358 1356
f 1358 1362 1360
f 1362 1371 1364
f 1366 1369 1367
f 1369 1326 1322
f 1326 1334 1330
f 1334 1342 1338
f 1342 1350 1346
f 1350 1358 1354
f 1358 1371 1362
f 1372 1369 1366
f 1369 1334 1326
f 1334 1350 1342
f 1350 1371 1358
f 1372 1334 1369
f 1334 1371 1350
f 1373 1334 1372
f 1334 1374 1371
f 1374 1334 1373
f 1267 1322 1271
f 1271 1322 1325
f 1271 1325 1270
f 1270 1325 1324
f 1270 1324 1273
f 1273 1324 1327
f 1273 1327 1272
f 1272 1327 1326
f 1272 1326 1275
f 1275 1326 1329
f 1275 1329 1274
f 1274 1329 1328
f 1274 1328 1277
f 1277 1328 1331
f 1277 1331 1276
f 1276 1331 1330
f 1276 1330 1279
f 1279 1330 1333
f 1279 1333 1278
f 1278 1333 1332
f 1278 1332 1281
f 1281 1332 1335
f 1281 1335 1280
f 1280 1335 1334
f 1280 1334 1283
f 1283 1334 1337
f 1283 1337 1282
f 1282 1337 1336
f 1282 1336 1285
f 1285 1336 1339
f 1285 1339 1284
f 1284 1339 1338
f 1284 1338 1287
f 1287 1338 1341
f 1287 1341 1286
f 1286 1341 1340
f 1286 1340 1289
f 1289 1340 1343
f 1289 1343 1288
f 1288 1343 1342
f 1288 1342 1291
f 1291 1342 1345
f 1291 1345 1290
f 1290 1345 1344
f 1290 1344 1293
f 1293 1344 1347
f 1293 1347 1292
f 1292 1347 1346
f 1292 1346 1295
f 1295 1346 1349
f 1295 1349 1294
f 1294 1349 1348
f 1294 1348 1297
f 1297 1348 1351
f 1297 1351 1296
f 1296 1351 1350
f 1296 1350 1299
f 1299 1350 1353
f 1299 1353 1298
f 1298 1353 1352
f 1298 1352 1301
f 1301 1352 1355
f 1301 1355 1300
f 1300 1355 1354
f 1300 1354 1303
f 1303 1354 1357
f 1303 1357 1302
f 1302 1357 1356
f 1302 1356 1305
f 1305 1356 1359
f 1305 1359 1304
f 1304 1359 1358
f 1304 1358 1307
f 1307 1358 1361
f 1307 1361 1306
f 1306 1361 1360
f 1306 1360 1309
f 1309 1360 1363
f 1309 1363 1308
f 1308 1363 1362
f 1308 1362 1311
f 1311 1362 1365
f 1311 1365 1310
f 1310 1365 1364
f 1310 1364 1317
f 1317 1364 1371
f 1317 1371 1320
f 1320 1371 1374
f 1320 1374 1319
f 1319 1374 1373
f 1319 1373 1318
f 1318 1373 1372
f 1318 1372 1313
f 1313 1372 1366
f 1313 1366 1314
f 1314 1366 1368
f 1314 1368 1312
f 1312 1368 1367
f 1312 1367 1316
f 1316 1367 1370
f 1316 1370 1315
f 1315 1370 1369
f 1315 1369 1268
f 1268 1369 1321
f 1268 1321 1269
f 1269 1321 1323
f 1269 1323 1267
f 1267 1323 1322
o 
v 54.31 0 -79.22
v 55.663 0 -77.067
v 55.064 0 -77.914
v 51.773 0 -84.111
v 53.081 0 -81.553
v 49.46 0 -88.816
v 50.521 0 -86.622
v 48.45 0 -91.16
v 48.725 0 -90.419
v 50.069 0 -93.001
v 48.911 0 -91.791
v 53.124 0 -95.879
v 51.586 0 -94.47
v 54.91 0 -97.24
v 54.345 0 -96.909
v 55.028 0 -96.626
v 54.963 0 -97.057
v 55.182 0 -95.174
v 55.103 0 -95.985
v 55.34 0 -93.2
v 55.262 0 -94.233
v 56.13 0 -82.76
v 55.78 0 -87.46
v 56.512 0 -77.286
v 56.47 0 -78.28
v 56.106 0 -76.68
v 56.39 0 -76.753
v 55.663 10 -77.067
v 54.31 10 -79.22
v 55.064 10 -77.914
v 51.773 10 -84.111
v 53.081 10 -81.553
v 49.46 10 -88.816
v 50.521 10 -86.622
v 48.45 10 -91.16
v 48.725 10 -90.419
v 50.069 10 -93.001
v 48.911 10 -91.791
v 53.124 10 -95.879
v 51.586 10 -94.47
v 54.91 10 -97.24
v 54.345 10 -96.909
v 55.028 10 -96.626
v 54.963 10 -97.057
v 55.182 10 -95.174
v 55.103 10 -95.985
v 55.34 10 -93.2
v 55.262 10 -94.233
v 56.13 10 -82.76
v 55.78 10 -87.46
v 56.512 10 -77.286
v 56.47 10 -78.28
v 56.106 10 -76.68
v 56.39 10 -76.753
f 1375 1376 1377
f 1378 1375 1379
f 1380 1378 1381
f 1382 1380 1383
f 1384 1382 1385
f 1386 1384 1387
f 1388 1386 1389
f 1390 1388 1391
f 1392 1390 1393
f 1394 1392 1395
f 1396 1394 1397
f 1398 1396 1399
f 1400 1398 1401
f 1375 1400 1376
f 1380 1375 1378
f 1384 1380 1382
f 1388 1384 1386
f 1392 1388 1390
f 1396 1392 1394
f 1400 1396 1398
f 1380 1400 1375
f 1388 1380 1384
f 1396 1388 1392
f 1380 1396 1400
f 1396 1380 1388
f 1402 1403 1404
f 1403 1405 1406
f 1405 1407 1408
f 1407 1409 1410
f 1409 1411 1412
f 1411 1413 1414
f 1413 1415 1416
f 1415 1417 1418
f 1417 1419 1420
f 1419 1421 1422
f 1421 1423 1424
f 1423 1425 1426
f 1425 1427 1428
f 1427 1403 1402
f 1403 1407 1405
f 1407 1411 1409
f 1411 1415 1413
f 1415 1419 1417
f 1419 1423 1421
f 1423 1427 1425
f 1427 1407 1403
f 1407 1415 1411
f 1415 1423 1419
f 1423 1407 1427
f 1407 1423 1415
f 1375 1403 1379
f 1379 1403 1406
f 1379 1406 1378
f 1378 1406 1405
f 1378 1405 1381
f 1381 1405 1408
f 1381 1408 1380
f 1380 1408 1407
f 1380 1407 1383
f 1383 1407 1410
f 1383 1410 1382
f 1382 1410 1409
f 1382 1409 1385
f 1385 1409 1412
f 1385 1412 1384
f 1384 1412 1411
f 1384 1411 1387
f 1387 1411 1414
f 1387 1414 1386
f 1386 1414 1413
f 1386 1413 1389
f 1389 1413 1416
f 1389 1416 1388
f 1388 1416 1415
f 1388 1415 1391
f 1391 1415 1418
f 1391 1418 1390
f 1390 1418 1417
f 1390 1417 1393
f 1393 1417 1420
f 1393 1420 1392
f 1392 1420 1419
f 1392 1419 1395
f 1395 1419 1422
f 1395 1422 1394
f 1394 1422 1421
f 1394 1421 1397
f 1397 1421 1424
f 1397 1424 1396
f 1396 1424 1423
f 1396 1423 1399
f 1399 1423 1426
f 1399 1426 1398
f 1398 1426 1425
f 1398 1425 1401
f 1401 1425 1428
f 1401 1428 1400
f 1400 1428 1427
f 1400 1427 1376
f 1376 1427 1402
f 1376 1402 1377
f 1377 1402 1404
f 1377 1404 1375
f 1375 1404 1403
o 
v 14.91 0 -77.52
v 15.14 0 -77.022
v 14.958 0 -77.192
v 15.161 0 -78.425
v 14.976 0 -77.832
v 15.823 0 -80.259
v 15.449 0 -79.25
v 16.76 0 -82.63
v 16.265 0 -81.401
v 19.277 0 -89.241
v 18.908 0 -88.191
v 19.11 0 -88.78
v 19.655 0 -90.139
v 19.461 0 -89.701
v 20.033 0 -90.859
v 19.849 0 -90.532
v 20.74 0 -91.79
v 20.2 0 -91.1
v 23.635 0 -90.674
v 22.59 0 -91.1
v 25.251 0 -89.79
v 24.519 0 -90.241
v 26.311 0 -88.799
v 25.845 0 -89.313
v 26.929 0 -87.653
v 26.66 0 -88.24
v 27.034 0 -86.44
v 27.061 0 -87.096
v 26.415 0 -84.321
v 26.826 0 -85.558
v 25.164 0 -80.939
v 25.78 0 -82.6
v 24.291 0 -79.304
v 24.721 0 -79.882
v 22.835 0 -79.078
v 23.716 0 -79.078
v 16.08 0 -77.198
v 18.07 0 -78.12
v 16.922 0 -77.561
v 15.5 0 -77.021
v 21.49 0 -79.18
v 18.816 0 -78.474
v 17.262 0 -83.886
v 18.599 0 -87.346
v 17.751 0 -85.131
v 18.205 0 -86.305
v 21.085 0 -79.176
v 19.488 0 -78.755
v 20.619 0 -79.105
v 20.087 0 -78.965
v 15.14 10 -77.022
v 14.91 10 -77.52
v 14.958 10 -77.192
v 15.161 10 -78.425
v 14.976 10 -77.832
v 15.823 10 -80.259
v 15.449 10 -79.25
v 16.76 10 -82.63
v 16.265 10 -81.401
v 18.908 10 -88.191
v 19.277 10 -89.241
v 19.11 10 -88.78
v 19.655 10 -90.139
v 19.461 10 -89.701
v 20.033 10 -90.859
v 19.849 10 -90.532
v 20.74 10 -91.79
v 20.2 10 -91.1
v 23.635 10 -90.674
v 22.59 10 -91.1
v 25.251 10 -89.79
v 24.519 10 -90.241
v 26.311 10 -88.799
v 25.845 10 -89.313
v 26.929 10 -87.653
v 26.66 10 -88.24
v 27.034 10 -86.44
v 27.061 10 -87.096
v 26.415 10 -84.321
v 26.826 10 -85.558
v 25.164 10 -80.939
v 25.78 10 -82.6
v 24.291 10 -79.304
v 24.721 10 -79.882
v 22.835 10 -79.078
v 23.716 10 -79.078
v 18.07 10 -78.12
v 16.08 10 -77.198
v 16.922 10 -77.561
v 15.5 10 -77.021
v 21.49 10 -79.18
v 18.816 10 -78.474
v 17.262 10 -83.886
v 18.599 10 -87.346
v 17.751 10 -85.131
v 18.205 10 -86.305
v 21.085 10 -79.176
v 19.488 10 -78.755
v 20.619 10 -79.105
v 20.087 10 -78.965
f 1429 1430 1431
f 1432 1429 1433
f 1434 1432 1435
f 1436 1434 1437
f 1438 1439 1440
f 1441 1438 1442
f 1443 1441 1444
f 1445 1443 1446
f 1447 1445 1448
f 1449 1447 1450
f 1451 1449 1452
f 1453 1451 1454
f 1455 1453 1456
f 1457 1455 1458
f 1459 1457 1460
f 1461 1459 1462
f 1463 1461 1464
f 1465 1466 1467
f 1430 1465 1468
f 1432 1430 1429
f 1436 1432 1434
f 1441 1439 1438
f 1445 1441 1443
f 1449 1445 1447
f 1453 1449 1451
f 1457 1453 1455
f 1461 1457 1459
f 1469 1461 1463
f 1465 1470 1466
f 1432 1465 1430
f 1471 1432 1436
f 1441 1472 1439
f 1449 1441 1445
f 1457 1449 1453
f 1469 1457 1461
f 1432 1470 1465
f 1473 1432 1471
f 1441 1474 1472
f 1457 1441 1449
f 1475 1457 1469
f 1432 1476 1470
f 1474 1432 1473
f 1457 1474 1441
f 1477 1457 1475
f 1432 1478 1476
f 1457 1432 1474
f 1478 1457 1477
f 1457 1478 1432
f 1479 1480 1481
f 1480 1482 1483
f 1482 1484 1485
f 1484 1486 1487
f 1488 1489 1490
f 1489 1491 1492
f 1491 1493 1494
f 1493 1495 1496
f 1495 1497 1498
f 1497 1499 1500
f 1499 1501 1502
f 1501 1503 1504
f 1503 1505 1506
f 1505 1507 1508
f 1507 1509 1510
f 1509 1511 1512
f 1511 1513 1514
f 1515 1516 1517
f 1516 1479 1518
f 1479 1482 1480
f 1482 1486 1484
f 1488 1491 1489
f 1491 1495 1493
f 1495 1499 1497
f 1499 1503 1501
f 1503 1507 1505
f 1507 1511 1509
f 1511 1519 1513
f 1520 1516 1515
f 1516 1482 1479
f 1482 1521 1486
f 1522 1491 1488
f 1491 1499 1495
f 1499 1507 1503
f 1507 1519 1511
f 1520 1482 1516
f 1482 1523 1521
f 1524 1491 1522
f 1491 1507 1499
f 1507 1525 1519
f 1526 1482 1520
f 1482 1524 1523
f 1524 1507 1491
f 1507 1527 1525
f 1528 1482 1526
f 1482 1507 1524
f 1507 1528 1527
f 1528 1507 1482
f 1429 1480 1433
f 1433 1480 1483
f 1433 1483 1432
f 1432 1483 1482
f 1432 1482 1435
f 1435 1482 1485
f 1435 1485 1434
f 1434 1485 1484
f 1434 1484 1437
f 1437 1484 1487
f 1437 1487 1436
f 1436 1487 1486
f 1436 1486 1471
f 1471 1486 1521
f 1471 1521 1473
f 1473 1521 1523
f 1473 1523 1474
f 1474 1523 1524
f 1474 1524 1472
f 1472 1524 1522
f 1472 1522 1439
f 1439 1522 1488
f 1439 1488 1440
f 1440 1488 1490
f 1440 1490 1438
f 1438 1490 1489
f 1438 1489 1442
f 1442 1489 1492
f 1442 1492 1441
f 1441 1492 1491
f 1441 1491 1444
f 1444 1491 1494
f 1444 1494 1443
f 1443 1494 1493
f 1443 1493 1446
f 1446 1493 1496
f 1446 1496 1445
f 1445 1496 1495
f 1445 1495 1448
f 1448 1495 1498
f 1448 1498 1447
f 1447 1498 1497
f 1447 1497 1450
f 1450 1497 1500
f 1450 1500 1449
f 1449 1500 1499
f 1449 1499 1452
f 1452 1499 1502
f 1452 1502 1451
f 1451 1502 1501
f 1451 1501 1454
f 1454 1501 1504
f 1454 1504 1453
f 1453 1504 1503
f 1453 1503 1456
f 1456 1503 1506
f 1456 1506 1455
f 1455 1506 1505
f 1455 1505 1458
f 1458 1505 1508
f 1458 1508 1457
f 1457 1508 1507
f 1457 1507 1460
f 1460 1507 1510
f 1460 1510 1459
f 1459 1510 1509
f 1459 1509 1462
f 1462 1509 1512
f 1462 1512 1461
f 1461 1512 1511
f 1461 1511 1464
f 1464 1511 1514
f 1464 1514 1463
f 1463 1514 1513
f 1463 1513 1469
f 1469 1513 1519
f 1469 1519 1475
f 1475 1519 1525
f 1475 1525 1477
f 1477 1525 1527
f 1477 1527 1478
f 1478 1527 1528
f 1478 1528 1476
f 1476 1528 1526
f 1476 1526 1470
f 1470 1526 1520
f 1470 1520 1466
f 1466 1520 1515
f 1466 1515 1467
f 1467 1515 1517
f 1467 1517 1465
f 1465 1517 1516
f 1465 1516 1468
f 1468 1516 1518
f 1468 1518 1430
f 1430 1518 1479
f 1430 1479 1431
f 1431 1479 1481
f 1431 1481 1429
f 1429 1481 1480
o 
v 27.01 0 -89.22
v 27.351 0 -88.88
v 27.167 0 -89.039
v 22.597 0 -91.963
v 23.31 0 -91.66
v 22.906 0 -91.812
v 22.226 0 -92.304
v 22.374 0 -92.124
v 22.12 0 -92.76
v 22.145 0 -92.513
v 22.196 0 -93.195
v 22.14 0 -92.973
v 22.397 0 -93.621
v 22.284 0 -93.415
v 22.68 0 -93.95
v 22.531 0 -93.804
v 25.133 0 -95.599
v 23.557 0 -94.571
v 28.954 0 -97.985
v 27.05 0 -96.81
v 31.3 0 -99.34
v 30.489 0 -98.902
v 32.736 0 -98.621
v 31.968 0 -99.228
v 34.11 0 -96.592
v 33.489 0 -97.688
v 34.5 0 -94.58
v 34.486 0 -95.501
v 32.937 0 -92.537
v 33.997 0 -93.754
v 30.153 0 -89.89
v 31.571 0 -91.169
v 28.17 0 -88.56
v 28.935 0 -88.94
v 27.763 0 -88.647
v 27.972 0 -88.583
v 27.552 0 -88.747
v 26.626 0 -89.674
v 24.032 0 -91.377
v 24.763 0 -91.014
v 25.464 0 -90.594
v 26.097 0 -90.139
v 27.351 10 -88.88
v 27.01 10 -89.22
v 27.167 10 -89.039
v 23.31 10 -91.66
v 22.597 10 -91.963
v 22.906 10 -91.812
v 22.226 10 -92.304
v 22.374 10 -92.124
v 22.12 10 -92.76
v 22.145 10 -92.513
v 22.196 10 -93.195
v 22.14 10 -92.973
v 22.397 10 -93.621
v 22.284 10 -93.415
v 22.68 10 -93.95
v 22.531 10 -93.804
v 25.133 10 -95.599
v 23.557 10 -94.571
v 28.954 10 -97.985
v 27.05 10 -96.81
v 31.3 10 -99.34
v 30.489 10 -98.902
v 32.736 10 -98.621
v 31.968 10 -99.228
v 34.11 10 -96.592
v 33.489 10 -97.688
v 34.5 10 -94.58
v 34.486 10 -95.501
v 32.937 10 -92.537
v 33.997 10 -93.754
v 30.153 10 -89.89
v 31.571 10 -91.169
v 28.17 10 -88.56
v 28.935 10 -88.94
v 27.763 10 -88.647
v 27.972 10 -88.583
v 27.552 10 -88.747
v 26.626 10 -89.674
v 24.032 10 -91.377
v 24.763 10 -91.014
v 25.464 10 -90.594
v 26.097 10 -90.139
f 1529 1530 1531
f 1532 1533 1534
f 1535 1532 1536
f 1537 1535 1538
f 1539 1537 1540
f 1541 1539 1542
f 1543 1541 1544
f 1545 1543 1546
f 1547 1545 1548
f 1549 1547 1550
f 1551 1549 1552
f 1553 1551 1554
f 1555 1553 1556
f 1557 1555 1558
f 1559 1557 1560
f 1561 1559 1562
f 1563 1561 1564
f 1530 1563 1565
f 1566 1530 1529
f 1532 1567 1533
f 1537 1532 1535
f 1541 1537 1539
f 1545 1541 1543
f 1549 1545 1547
f 1553 1549 1551
f 1557 1553 1555
f 1561 1557 1559
f 1530 1561 1563
f 1537 1567 1532
f 1545 1537 1541
f 1553 1545 1549
f 1561 1553 1557
f 1566 1561 1530
f 1537 1568 1567
f 1553 1537 1545
f 1566 1553 1561
f 1537 1569 1568
f 1570 1553 1566
f 1553 1569 1537
f 1569 1553 1570
f 1571 1572 1573
f 1574 1575 1576
f 1575 1577 1578
f 1577 1579 1580
f 1579 1581 1582
f 1581 1583 1584
f 1583 1585 1586
f 1585 1587 1588
f 1587 1589 1590
f 1589 1591 1592
f 1591 1593 1594
f 1593 1595 1596
f 1595 1597 1598
f 1597 1599 1600
f 1599 1601 1602
f 1601 1603 1604
f 1603 1605 1606
f 1605 1571 1607
f 1571 1608 1572
f 1609 1575 1574
f 1575 1579 1577
f 1579 1583 1581
f 1583 1587 1585
f 1587 1591 1589
f 1591 1595 1593
f 1595 1599 1597
f 1599 1603 1601
f 1603 1571 1605
f 1609 1579 1575
f 1579 1587 1583
f 1587 1595 1591
f 1595 1603 1599
f 1603 1608 1571
f 1610 1579 1609
f 1579 1595 1587
f 1595 1608 1603
f 1611 1579 1610
f 1595 1612 1608
f 1611 1595 1579
f 1595 1611 1612
f 1529 1572 1566
f 1566 1572 1608
f 1566 1608 1570
f 1570 1608 1612
f 1570 1612 1569
f 1569 1612 1611
f 1569 1611 1568
f 1568 1611 1610
f 1568 1610 1567
f 1567 1610 1609
f 1567 1609 1533
f 1533 1609 1574
f 1533 1574 1534
f 1534 1574 1576
f 1534 1576 1532
f 1532 1576 1575
f 1532 1575 1536
f 1536 1575 1578
f 1536 1578 1535
f 1535 1578 1577
f 1535 1577 1538
f 1538 1577 1580
f 1538 1580 1537
f 1537 1580 1579
f 1537 1579 1540
f 1540 1579 1582
f 1540 1582 1539
f 1539 1582 1581
f 1539 1581 1542
f 1542 1581 1584
f 1542 1584 1541
f 1541 1584 1583
f 1541 1583 1544
f 1544 1583 1586
f 1544 1586 1543
f 1543 1586 1585
f 1543 1585 1546
f 1546 1585 1588
f 1546 1588 1545
f 1545 1588 1587
f 1545 1587 1548
f 1548 1587 1590
f 1548 1590 1547
f 1547 1590 1589
f 1547 1589 1550
f 1550 1589 1592
f 1550 1592 1549
f 1549 1592 1591
f 1549 1591 1552
f 1552 1591 1594
f 1552 1594 1551
f 1551 1594 1593
f 1551 1593 1554
f 1554 1593 1596
f 1554 1596 1553
f 1553 1596 1595
f 1553 1595 1556
f 1556 1595 1598
f 1556 1598 1555
f 1555 1598 1597
f 1555 1597 1558
f 1558 1597 1600
f 1558 1600 1557
f 1557 1600 1599
f 1557 1599 1560
f 1560 1599 1602
f 1560 1602 1559
f 1559 1602 1601
f 1559 1601 1562
f 1562 1601 1604
f 1562 1604 1561
f 1561 1604 1603
f 1561 1603 1564
f 1564 1603 1606
f 1564 1606 1563
f 1563 1606 1605
f 1563 1605 1565
f 1565 1605 1607
f 1565 1607 1530
f 1530 1607 1571
f 1530 1571 1531
f 1531 1571 1573
f 1531 1573 1529
f 1529 1573 1572
o 
v 40.92 0 -93.13
v 45.405 0 -92.231
v 43.585 0 -92.571
v 35.811 0 -94.223
v 35.88 0 -94.17
v 35.66 0 -94.525
v 35.737 0 -94.344
v 35.509 0 -95.027
v 35.583 0 -94.756
v 35.36 0 -95.695
v 35.44 0 -95.33
v 33.811 0 -99.056
v 34.28 0 -98.18
v 34.029 0 -98.637
v 33.506 0 -99.71
v 33.634 0 -99.42
v 33.43 0 -100
v 33.435 0 -99.91
v 33.853 0 -99.927
v 33.555 0 -99.996
v 34.857 0 -99.633
v 34.296 0 -99.804
v 36.22 0 -99.18
v 35.507 0 -99.422
v 46.064 0 -95.79
v 41.55 0 -97.34
v 44.111 0 -96.48
v 48.406 0 -94.816
v 47.475 0 -95.245
v 49.08 0 -94.2
v 48.919 0 -94.477
v 48.965 0 -93.944
v 49.05 0 -94.101
v 48.668 0 -93.503
v 48.835 0 -93.74
v 48.26 0 -92.98
v 48.474 0 -93.245
v 47.315 0 -92.192
v 47.807 0 -92.485
v 46.581 0 -92.106
v 34.544 0 -97.686
v 34.796 0 -97.163
v 35.025 0 -96.639
v 35.217 0 -96.14
v 45.405 10 -92.231
v 40.92 10 -93.13
v 43.585 10 -92.571
v 35.811 10 -94.223
v 35.88 10 -94.17
v 35.66 10 -94.525
v 35.737 10 -94.344
v 35.509 10 -95.027
v 35.583 10 -94.756
v 35.36 10 -95.695
v 35.44 10 -95.33
v 34.28 10 -98.18
v 33.811 10 -99.056
v 34.029 10 -98.637
v 33.506 10 -99.71
v 33.634 10 -99.42
v 33.43 10 -100
v 33.435 10 -99.91
v 33.853 10 -99.927
v 33.555 10 -99.996
v 34.857 10 -99.633
v 34.296 10 -99.804
v 36.22 10 -99.18
v 35.507 10 -99.422
v 41.55 10 -97.34
v 46.064 10 -95.79
v 44.111 10 -96.48
v 48.406 10 -94.816
v 47.475 10 -95.245
v 49.08 10 -94.2
v 48.919 10 -94.477
v 48.965 10 -93.944
v 49.05 10 -94.101
v 48.668 10 -93.503
v 48.835 10 -93.74
v 48.26 10 -92.98
v 48.474 10 -93.245
v 47.315 10 -92.192
v 47.807 10 -92.485
v 46.581 10 -92.106
v 34.544 10 -97.686
v 34.796 10 -97.163
v 35.025 10 -96.639
v 35.217 10 -96.14
f 1613 1614 1615
f 1616 1613 1617
f 1618 1616 1619
f 1620 1618 1621
f 1622 1620 1623
f 1624 1625 1626
f 1627 1624 1628
f 1629 1627 1630
f 1631 1629 1632
f 1633 1631 1634
f 1635 1633 1636
f 1637 1638 1639
f 1640 1637 1641
f 1642 1640 1643
f 1644 1642 1645
f 1646 1644 1647
f 1648 1646 1649
f 1650 1648 1651
f 1614 1650 1652
f 1616 1614 1613
f 1620 1616 1618
f 1627 1625 1624
f 1631 1627 1629
f 1635 1631 1633
f 1640 1638 1637
f 1644 1640 1642
f 1648 1644 1646
f 1614 1648 1650
f 1620 1614 1616
f 1627 1653 1625
f 1635 1627 1631
f 1640 1635 1638
f 1648 1640 1644
f 1620 1648 1614
f 1635 1653 1627
f 1648 1635 1640
f 1622 1648 1620
f 1635 1654 1653
f 1622 1635 1648
f 1635 1655 1654
f 1656 1635 1622
f 1635 1656 1655
f 1657 1658 1659
f 1658 1660 1661
f 1660 1662 1663
f 1662 1664 1665
f 1664 1666 1667
f 1668 1669 1670
f 1669 1671 1672
f 1671 1673 1674
f 1673 1675 1676
f 1675 1677 1678
f 1677 1679 1680
f 1681 1682 1683
f 1682 1684 1685
f 1684 1686 1687
f 1686 1688 1689
f 1688 1690 1691
f 1690 1692 1693
f 1692 1694 1695
f 1694 1657 1696
f 1657 1660 1658
f 1660 1664 1662
f 1668 1671 1669
f 1671 1675 1673
f 1675 1679 1677
f 1681 1684 1682
f 1684 1688 1686
f 1688 1692 1690
f 1692 1657 1694
f 1657 1664 1660
f 1697 1671 1668
f 1671 1679 1675
f 1679 1684 1681
f 1684 1692 1688
f 1692 1664 1657
f 1697 1679 1671
f 1679 1692 1684
f 1692 1666 1664
f 1698 1679 1697
f 1679 1666 1692
f 1699 1679 1698
f 1679 1700 1666
f 1700 1679 1699
f 1613 1658 1617
f 1617 1658 1661
f 1617 1661 1616
f 1616 1661 1660
f 1616 1660 1619
f 1619 1660 1663
f 1619 1663 1618
f 1618 1663 1662
f 1618 1662 1621
f 1621 1662 1665
f 1621 1665 1620
f 1620 1665 1664
f 1620 1664 1623
f 1623 1664 1667
f 1623 1667 1622
f 1622 1667 1666
f 1622 1666 1656
f 1656 1666 1700
f 1656 1700 1655
f 1655 1700 1699
f 1655 1699 1654
f 1654 1699 1698
f 1654 1698 1653
f 1653 1698 1697
f 1653 1697 1625
f 1625 1697 1668
f 1625 1668 1626
f 1626 1668 1670
f 1626 1670 1624
f 1624 1670 1669
f 1624 1669 1628
f 1628 1669 1672
f 1628 1672 1627
f 1627 1672 1671
f 1627 1671 1630
f 1630 1671 1674
f 1630 1674 1629
f 1629 1674 1673
f 1629 1673 1632
f 1632 1673 1676
f 1632 1676 1631
f 1631 1676 1675
f 1631 1675 1634
f 1634 1675 1678
f 1634 1678 1633
f 1633 1678 1677
f 1633 1677 1636
f 1636 1677 1680
f 1636 1680 1635
f 1635 1680 1679
f 1635 1679 1638
f 1638 1679 1681
f 1638 1681 1639
f 1639 1681 1683
f 1639 1683 1637
f 1637 1683 1682
f 1637 1682 1641
f 1641 1682 1685
f 1641 1685 1640
f 1640 1685 1684
f 1640 1684 1643
f 1643 1684 1687
f 1643 1687 1642
f 1642 1687 1686
f 1642 1686 1645
f 1645 1686 1689
f 1645 1689 1644
f 1644 1689 1688
f 1644 1688 1647
f 1647 1688 1691
f 1647 1691 1646
f 1646 1691 1690
f 1646 1690 1649
f 1649 1690 1693
f 1649 1693 1648
f 1648 1693 1692
f 1648 1692 1651
f 1651 1692 1695
f 1651 1695 1650
f 1650 1695 1694
f 1650 1694 1652
f 1652 1694 1696
f 1652 1696 1614
f 1614 1696 1657
f 1614 1657 1615
f 1615 1657 1659
f 1615 1659 1613
f 1613 1659 1658
