o 
v 61.9 0 -8.2
v 64.323 0 -8.301
v 62.872 0 -8.154
v 61.44 0 -8.409
v 61.606 0 -8.288
v 61.536 0 -9.041
v 61.414 0 -8.636
v 62.27 0 -10.67
v 61.818 0 -9.695
v 55.005 0 -23.093
v 57.66 0 -21.29
v 56.146 0 -22.3
v 53.668 0 -24.18
v 54.194 0 -23.707
v 53.3 0 -24.85
v 53.385 0 -24.549
v 53.622 0 -25.447
v 53.371 0 -25.133
v 54.891 0 -26.323
v 54.11 0 -25.831
v 57.56 0 -27.78
v 56.022 0 -26.959
v 65.29 0 -32.146
v 64.776 0 -31.762
v 65.11 0 -32.02
v 65.841 0 -32.39
v 65.54 0 -32.272
v 66.529 0 -32.58
v 66.177 0 -32.495
v 67.376 0 -32.69
v 66.88 0 -32.64
v 68.165 0 -32.584
v 67.789 0 -32.677
v 69.007 0 -32.088
v 68.555 0 -32.393
v 70.875 0 -30.528
v 69.57 0 -31.65
v 73.162 0 -28.239
v 72.081 0 -29.38
v 74.844 0 -26.093
v 74.092 0 -27.133
v 75.891 0 -23.95
v 75.39 0 -25.15
v 76.677 0 -21.226
v 76.328 0 -22.611
v 77.017 0 -18.693
v 76.915 0 -19.889
v 76.77 0 -16.904
v 76.96 0 -17.73
v 76.198 0 -15.311
v 76.516 0 -16.096
v 75.379 0 -13.828
v 75.818 0 -14.553
v 74.336 0 -12.494
v 74.884 0 -13.14
v 73.094 0 -11.343
v 73.738 0 -11.894
v 71.686 0 -10.403
v 72.409 0 -10.845
v 69.558 0 -9.499
v 70.93 0 -10.02
v 66.055 0 -8.6
v 67.867 0 -9.013
v 58.927 0 -20.432
v 60.228 0 -29.209
v 64.266 0 -31.434
v 60.05 0 -19.639
v 62.137 0 -30.239
v 61.005 0 -18.927
v 63.435 0 -30.954
v 62.756 0 -11.901
v 61.767 0 -18.314
v 63.071 0 -13.154
v 62.31 0 -17.816
v 63.216 0 -14.382
v 62.61 0 -17.45
v 62.987 0 -16.577
v 63.189 0 -15.539
v 64.323 10 -8.301
v 61.9 10 -8.2
v 62.872 10 -8.154
v 61.44 10 -8.409
v 61.606 10 -8.288
v 61.536 10 -9.041
v 61.414 10 -8.636
v 62.27 10 -10.67
v 61.818 10 -9.695
v 57.66 10 -21.29
v 55.005 10 -23.093
v 56.146 10 -22.3
v 53.668 10 -24.18
v 54.194 10 -23.707
v 53.3 10 -24.85
v 53.385 10 -24.549
v 53.622 10 -25.447
v 53.371 10 -25.133
v 54.891 10 -26.323
v 54.11 10 -25.831
v 57.56 10 -27.78
v 56.022 10 -26.959
v 64.776 10 -31.762
v 65.29 10 -32.146
v 65.11 10 -32.02
v 65.841 10 -32.39
v 65.54 10 -32.272
v 66.529 10 -32.58
v 66.177 10 -32.495
v 67.376 10 -32.69
v 66.88 10 -32.64
v 68.165 10 -32.584
v 67.789 10 -32.677
v 69.007 10 -32.088
v 68.555 10 -32.393
v 70.875 10 -30.528
v 69.57 10 -31.65
v 73.162 10 -28.239
v 72.081 10 -29.38
v 74.844 10 -26.093
v 74.092 10 -27.133
v 75.891 10 -23.95
v 75.39 10 -25.15
v 76.677 10 -21.226
v 76.328 10 -22.611
v 77.017 10 -18.693
v 76.915 10 -19.889
v 76.77 10 -16.904
v 76.96 10 -17.73
v 76.198 10 -15.311
v 76.516 10 -16.096
v 75.379 10 -13.828
v 75.818 10 -14.553
v 74.336 10 -12.494
v 74.884 10 -13.14
v 73.094 10 -11.343
v 73.738 10 -11.894
v 71.686 10 -10.403
v 72.409 10 -10.845
v 69.558 10 -9.499
v 70.93 10 -10.02
v 66.055 10 -8.6
v 67.867 10 -9.013
v 58.927 10 -20.432
v 60.228 10 -29.209
v 64.266 10 -31.434
v 60.05 10 -19.639
v 62.137 10 -30.239
v 61.005 10 -18.927
v 63.435 10 -30.954
v 62.756 10 -11.901
v 61.767 10 -18.314
v 63.071 10 -13.154
v 62.31 10 -17.816
v 63.216 10 -14.382
v 62.61 10 -17.45
v 62.987 10 -16.577
v 63.189 10 -15.539
f 1 2 3
f 4 1 5
f 6 4 7
f 8 6 9
f 10 11 12
f 13 10 14
f 15 13 16
f 17 15 18
f 19 17 20
f 21 19 22
f 23 24 25
f 26 23 27
f 28 26 29
f 30 28 31
f 32 30 33
f 34 32 35
f 36 34 37
f 38 36 39
f 40 38 41
f 42 40 43
f 44 42 45
f 46 44 47
f 48 46 49
f 50 48 51
f 52 50 53
f 54 52 55
f 56 54 57
f 58 56 59
f 60 58 61
f 62 60 63
f 1 62 2
f 6 1 4
f 10 64 11
f 15 10 13
f 19 15 17
f 65 19 21
f 26 24 23
f 30 26 28
f 34 30 32
f 38 34 36
f 42 38 40
f 46 42 44
f 50 46 48
f 54 50 52
f 58 54 56
f 62 58 60
f 6 62 1
f 15 64 10
f 65 15 19
f 26 66 24
f 34 26 30
f 42 34 38
f 50 42 46
f 58 50 54
f 6 58 62
f 15 67 64
f 68 15 65
f 34 66 26
f 50 34 42
f 6 50 58
f 15 69 67
f 70 15 68
f 34 70 66
f 8 50 6
f 70 69 15
f 50 70 34
f 71 50 8
f 70 72 69
f 73 50 71
f 70 74 72
f 75 50 73
f 70 76 74
f 75 70 50
f 70 77 76
f 78 70 75
f 70 78 77
f 79 80 81
f 80 82 83
f 82 84 85
f 84 86 87
f 88 89 90
f 89 91 92
f 91 93 94
f 93 95 96
f 95 97 98
f 97 99 100
f 101 102 103
f 102 104 105
f 104 106 107
f 106 108 109
f 108 110 111
f 110 112 113
f 112 114 115
f 114 116 117
f 116 118 119
f 118 120 121
f 120 122 123
f 122 124 125
f 124 126 127
f 126 128 129
f 128 130 131
f 130 132 133
f 132 134 135
f 134 136 137
f 136 138 139
f 138 140 141
f 140 80 79
f 80 84 82
f 142 89 88
f 89 93 91
f 93 97 95
f 97 143 99
f 101 104 102
f 104 108 106
f 108 112 110
f 112 116 114
f 116 120 118
f 120 124 122
f 124 128 126
f 128 132 130
f 132 136 134
f 136 140 138
f 140 84 80
f 142 93 89
f 93 143 97
f 144 104 101
f 104 112 108
f 112 120 116
f 120 128 124
f 128 136 132
f 136 84 140
f 145 93 142
f 93 146 143
f 144 112 104
f 112 128 120
f 128 84 136
f 147 93 145
f 93 148 146
f 148 112 144
f 128 86 84
f 147 148 93
f 148 128 112
f 128 149 86
f 150 148 147
f 128 151 149
f 152 148 150
f 128 153 151
f 154 148 152
f 148 153 128
f 155 148 154
f 148 156 153
f 156 148 155
f 1 80 5
f 5 80 83
f 5 83 4
f 4 83 82
f 4 82 7
f 7 82 85
f 7 85 6
f 6 85 84
f 6 84 9
f 9 84 87
f 9 87 8
f 8 87 86
f 8 86 71
f 71 86 149
f 71 149 73
f 73 149 151
f 73 151 75
f 75 151 153
f 75 153 78
f 78 153 156
f 78 156 77
f 77 156 155
f 77 155 76
f 76 155 154
f 76 154 74
f 74 154 152
f 74 152 72
f 72 152 150
f 72 150 69
f 69 150 147
f 69 147 67
f 67 147 145
f 67 145 64
f 64 145 142
f 64 142 11
f 11 142 88
f 11 88 12
f 12 88 90
f 12 90 10
f 10 90 89
f 10 89 14
f 14 89 92
f 14 92 13
f 13 92 91
f 13 91 16
f 16 91 94
f 16 94 15
f 15 94 93
f 15 93 18
f 18 93 96
f 18 96 17
f 17 96 95
f 17 95 20
f 20 95 98
f 20 98 19
f 19 98 97
f 19 97 22
f 22 97 100
f 22 100 21
f 21 100 99
f 21 99 65
f 65 99 143
f 65 143 68
f 68 143 146
f 68 146 70
f 70 146 148
f 70 148 66
f 66 148 144
f 66 144 24
f 24 144 101
f 24 101 25
f 25 101 103
f 25 103 23
f 23 103 102
f 23 102 27
f 27 102 105
f 27 105 26
f 26 105 104
f 26 104 29
f 29 104 107
f 29 107 28
f 28 107 106
f 28 106 31
f 31 106 109
f 31 109 30
f 30 109 108
f 30 108 33
f 33 108 111
f 33 111 32
f 32 111 110
f 32 110 35
f 35 110 113
f 35 113 34
f 34 113 112
f 34 112 37
f 37 112 115
f 37 115 36
f 36 115 114
f 36 114 39
f 39 114 117
f 39 117 38
f 38 117 116
f 38 116 41
f 41 116 119
f 41 119 40
f 40 119 118
f 40 118 43
f 43 118 121
f 43 121 42
f 42 121 120
f 42 120 45
f 45 120 123
f 45 123 44
f 44 123 122
f 44 122 47
f 47 122 125
f 47 125 46
f 46 125 124
f 46 124 49
f 49 124 127
f 49 127 48
f 48 127 126
f 48 126 51
f 51 126 129
f 51 129 50
f 50 129 128
f 50 128 53
f 53 128 131
f 53 131 52
f 52 131 130
f 52 130 55
f 55 130 133
f 55 133 54
f 54 133 132
f 54 132 57
f 57 132 135
f 57 135 56
f 56 135 134
f 56 134 59
f 59 134 137
f 59 137 58
f 58 137 136
f 58 136 61
f 61 136 139
f 61 139 60
f 60 139 138
f 60 138 63
f 63 138 141
f 63 141 62
f 62 141 140
f 62 140 2
f 2 140 79
f 2 79 3
f 3 79 81
f 3 81 1
f 1 81 80
o 
v 48.78 0 -0.25
v 49.991 0 -0.01
v 49.443 0 -0.095
v 46.829 0 -1.061
v 47.774 0 -0.583
v 45.204 0 -2.411
v 45.966 0 -1.675
v 44.049 0 -4.18
v 44.56 0 -3.253
v 43.466 0 -6.211
v 43.681 0 -5.174
v 43.508 0 -8.324
v 43.408 0 -7.269
v 44.17 0 -10.33
v 43.764 0 -9.352
v 48.959 0 -13.976
v 46.26 0 -12.824
v 54.428 0 -12.668
v 51.827 0 -13.889
v 57.07 0 -7.24
v 56.321 0 -10.417
v 56.479 0 -4.328
v 56.925 0 -5.74
v 54.801 0 -1.942
v 55.761 0 -3.048
v 52.27 0 -0.43
v 53.628 0 -1.055
v 50.992 0 -0.063
v 51.566 0 -0.206
v 50.487 0 0.001
v 49.991 10 -0.01
v 48.78 10 -0.25
v 49.443 10 -0.095
v 46.829 10 -1.061
v 47.774 10 -0.583
v 45.204 10 -2.411
v 45.966 10 -1.675
v 44.049 10 -4.18
v 44.56 10 -3.253
v 43.466 10 -6.211
v 43.681 10 -5.174
v 43.508 10 -8.324
v 43.408 10 -7.269
v 44.17 10 -10.33
v 43.764 10 -9.352
v 48.959 10 -13.976
v 46.26 10 -12.824
v 54.428 10 -12.668
v 51.827 10 -13.889
v 57.07 10 -7.24
v 56.321 10 -10.417
v 56.479 10 -4.328
v 56.925 10 -5.74
v 54.801 10 -1.942
v 55.761 10 -3.048
v 52.27 10 -0.43
v 53.628 10 -1.055
v 50.992 10 -0.063
v 51.566 10 -0.206
v 50.487 10 0.001
f 157 158 159
f 160 157 161
f 162 160 163
f 164 162 165
f 166 164 167
f 168 166 169
f 170 168 171
f 172 170 173
f 174 172 175
f 176 174 177
f 178 176 179
f 180 178 181
f 182 180 183
f 184 182 185
f 158 184 186
f 160 158 157
f 164 160 162
f 168 164 166
f 172 168 170
f 176 172 174
f 180 176 178
f 184 180 182
f 160 184 158
f 168 160 164
f 176 168 172
f 184 176 180
f 168 184 160
f 184 168 176
f 187 188 189
f 188 190 191
f 190 192 193
f 192 194 195
f 194 196 197
f 196 198 199
f 198 200 201
f 200 202 203
f 202 204 205
f 204 206 207
f 206 208 209
f 208 210 211
f 210 212 213
f 212 214 215
f 214 187 216
f 187 190 188
f 190 194 192
f 194 198 196
f 198 202 200
f 202 206 204
f 206 210 208
f 210 214 212
f 214 190 187
f 190 198 194
f 198 206 202
f 206 214 210
f 214 198 190
f 198 214 206
f 157 188 161
f 161 188 191
f 161 191 160
f 160 191 190
f 160 190 163
f 163 190 193
f 163 193 162
f 162 193 192
f 162 192 165
f 165 192 195
f 165 195 164
f 164 195 194
f 164 194 167
f 167 194 197
f 167 197 166
f 166 197 196
f 166 196 169
f 169 196 199
f 169 199 168
f 168 199 198
f 168 198 171
f 171 198 201
f 171 201 170
f 170 201 200
f 170 200 173
f 173 200 203
f 173 203 172
f 172 203 202
f 172 202 175
f 175 202 205
f 175 205 174
f 174 205 204
f 174 204 177
f 177 204 207
f 177 207 176
f 176 207 206
f 176 206 179
f 179 206 209
f 179 209 178
f 178 209 208
f 178 208 181
f 181 208 211
f 181 211 180
f 180 211 210
f 180 210 183
f 183 210 213
f 183 213 182
f 182 213 212
f 182 212 185
f 185 212 215
f 185 215 184
f 184 215 214
f 184 214 186
f 186 214 216
f 186 216 158
f 158 216 187
f 158 187 159
f 159 187 189
f 159 189 157
f 157 189 188
o 
v 33.8 0 -8.63
v 36.041 0 -8.341
v 34.95 0 -8.443
v 29.83 0 -9.551
v 30.86 0 -9.22
v 27.571 0 -10.845
v 28.709 0 -10.11
v 25.543 0 -12.632
v 26.491 0 -11.703
v 23.732 0 -15.904
v 24.8 0 -13.58
v 23.566 0 -21.286
v 23.329 0 -18.518
v 25.858 0 -26.752
v 24.418 0 -24.076
v 28.94 0 -30.111
v 27.86 0 -29.18
v 32.581 0 -32.849
v 30.627 0 -31.415
v 35.945 0 -35.143
v 34.467 0 -34.172
v 47.285 0 -41.157
v 39.71 0 -37.1
v 45.25 0 -40.07
v 54.248 0 -54.918
v 55.93 0 -53.93
v 54.993 0 -54.454
v 53.292 0 -55.695
v 53.684 0 -55.33
v 52.99 0 -56.31
v 53.064 0 -56.02
v 53.533 0 -56.857
v 53.126 0 -56.524
v 55.147 0 -57.88
v 54.208 0 -57.309
v 57.81 0 -59.38
v 56.349 0 -58.57
v 61.718 0 -61.611
v 61.011 0 -61.179
v 61.4 0 -61.42
v 62.271 0 -61.925
v 62.013 0 -61.782
v 62.628 0 -62.105
v 62.481 0 -62.035
v 65.658 0 -63.767
v 64.168 0 -62.929
v 64.65 0 -63.21
v 67.21 0 -64.23
v 66.492 0 -64.107
v 68.535 0 -63.827
v 67.871 0 -64.137
v 71.698 0 -61.115
v 69.26 0 -63.3
v 75.064 0 -56.833
v 73.622 0 -58.979
v 76.626 0 -52.263
v 76.055 0 -54.614
v 76.68 0 -47.784
v 76.81 0 -49.72
v 75.637 0 -44.165
v 76.29 0 -45.933
v 73.535 0 -40.866
v 74.72 0 -42.477
v 70.569 0 -37.964
v 72.08 0 -39.33
v 67.145 0 -35.425
v 68.982 0 -36.701
v 62.027 0 -32.379
v 64.884 0 -34.023
v 57.724 0 -30.016
v 58.4 0 -30.38
v 51.503 0 -26.466
v 53.3 0 -27.51
v 52.44 0 -27.004
v 49.61 0 -25.408
v 50.542 0 -25.924
v 48.04 0 -24.57
v 48.759 0 -24.947
v 38.382 0 -10.009
v 38.01 0 -10.95
v 38.211 0 -10.471
v 38.605 0 -9.221
v 38.515 0 -9.585
v 38.63 0 -8.76
v 38.645 0 -8.939
v 37.809 0 -8.389
v 38.367 0 -8.534
v 37.014 0 -8.324
v 57.315 0 -53.131
v 58.495 0 -59.75
v 62.7 0 -62.13
v 63.724 0 -62.672
v 63.338 0 -62.452
v 54.151 0 -27.999
v 37.486 0 -12.435
v 58.541 0 -52.363
v 59.194 0 -60.136
v 60.489 0 -60.871
v 55.071 0 -28.525
v 36.68 0 -35.52
v 59.568 0 -51.655
v 59.871 0 -60.516
v 63.026 0 -62.281
v 56.909 0 -29.565
v 37.27 0 -13.895
v 62.807 0 -62.17
v 56.007 0 -29.058
v 37.359 0 -15.305
v 60.352 0 -51.037
v 37.746 0 -16.642
v 48.96 0 -42.085
v 60.854 0 -50.539
v 46.441 0 -23.695
v 38.428 0 -17.881
v 50.542 0 -43.011
v 61.03 0 -50.19
v 44.751 0 -22.699
v 39.4 0 -19
v 52.3 0 -44.095
v 43.086 0 -21.658
v 60.899 0 -49.985
v 41.562 0 -20.644
v 40.295 0 -19.733
v 60.531 0 -49.637
v 54.5 0 -45.495
v 59.963 0 -49.174
v 59.229 0 -48.623
v 57.41 0 -47.37
v 58.366 0 -48.013
v 36.041 10 -8.341
v 33.8 10 -8.63
v 34.95 10 -8.443
v 29.83 10 -9.551
v 30.86 10 -9.22
v 27.571 10 -10.845
v 28.709 10 -10.11
v 25.543 10 -12.632
v 26.491 10 -11.703
v 23.732 10 -15.904
v 24.8 10 -13.58
v 23.566 10 -21.286
v 23.329 10 -18.518
v 25.858 10 -26.752
v 24.418 10 -24.076
v 28.94 10 -30.111
v 27.86 10 -29.18
v 32.581 10 -32.849
v 30.627 10 -31.415
v 35.945 10 -35.143
v 34.467 10 -34.172
v 39.71 10 -37.1
v 47.285 10 -41.157
v 45.25 10 -40.07
v 55.93 10 -53.93
v 54.248 10 -54.918
v 54.993 10 -54.454
v 53.292 10 -55.695
v 53.684 10 -55.33
v 52.99 10 -56.31
v 53.064 10 -56.02
v 53.533 10 -56.857
v 53.126 10 -56.524
v 55.147 10 -57.88
v 54.208 10 -57.309
v 57.81 10 -59.38
v 56.349 10 -58.57
v 61.011 10 -61.179
v 61.718 10 -61.611
v 61.4 10 -61.42
v 62.271 10 -61.925
v 62.013 10 -61.782
v 62.628 10 -62.105
v 62.481 10 -62.035
v 64.168 10 -62.929
v 65.658 10 -63.767
v 64.65 10 -63.21
v 67.21 10 -64.23
v 66.492 10 -64.107
v 68.535 10 -63.827
v 67.871 10 -64.137
v 71.698 10 -61.115
v 69.26 10 -63.3
v 75.064 10 -56.833
v 73.622 10 -58.979
v 76.626 10 -52.263
v 76.055 10 -54.614
v 76.68 10 -47.784
v 76.81 10 -49.72
v 75.637 10 -44.165
v 76.29 10 -45.933
v 73.535 10 -40.866
v 74.72 10 -42.477
v 70.569 10 -37.964
v 72.08 10 -39.33
v 67.145 10 -35.425
v 68.982 10 -36.701
v 62.027 10 -32.379
v 64.884 10 -34.023
v 57.724 10 -30.016
v 58.4 10 -30.38
v 53.3 10 -27.51
v 51.503 10 -26.466
v 52.44 10 -27.004
v 49.61 10 -25.408
v 50.542 10 -25.924
v 48.04 10 -24.57
v 48.759 10 -24.947
v 38.01 10 -10.95
v 38.382 10 -10.009
v 38.211 10 -10.471
v 38.605 10 -9.221
v 38.515 10 -9.585
v 38.63 10 -8.76
v 38.645 10 -8.939
v 37.809 10 -8.389
v 38.367 10 -8.534
v 37.014 10 -8.324
v 57.315 10 -53.131
v 58.495 10 -59.75
v 62.7 10 -62.13
v 63.724 10 -62.672
v 63.338 10 -62.452
v 54.151 10 -27.999
v 37.486 10 -12.435
v 58.541 10 -52.363
v 59.194 10 -60.136
v 60.489 10 -60.871
v 55.071 10 -28.525
v 36.68 10 -35.52
v 59.568 10 -51.655
v 59.871 10 -60.516
v 63.026 10 -62.281
v 56.909 10 -29.565
v 37.27 10 -13.895
v 62.807 10 -62.17
v 56.007 10 -29.058
v 37.359 10 -15.305
v 60.352 10 -51.037
v 37.746 10 -16.642
v 48.96 10 -42.085
v 60.854 10 -50.539
v 46.441 10 -23.695
v 38.428 10 -17.881
v 50.542 10 -43.011
v 61.03 10 -50.19
v 44.751 10 -22.699
v 39.4 10 -19
v 52.3 10 -44.095
v 43.086 10 -21.658
v 60.899 10 -49.985
v 41.562 10 -20.644
v 40.295 10 -19.733
v 60.531 10 -49.637
v 54.5 10 -45.495
v 59.963 10 -49.174
v 59.229 10 -48.623
v 57.41 10 -47.37
v 58.366 10 -48.013
f 217 218 219
f 220 217 221
f 222 220 223
f 224 222 225
f 226 224 227
f 228 226 229
f 230 228 231
f 232 230 233
f 234 232 235
f 236 234 237
f 238 239 240
f 241 242 243
f 244 241 245
f 246 244 247
f 248 246 249
f 250 248 251
f 252 250 253
f 254 255 256
f 257 254 258
f 259 257 260
f 261 262 263
f 264 261 265
f 266 264 267
f 268 266 269
f 270 268 271
f 272 270 273
f 274 272 275
f 276 274 277
f 278 276 279
f 280 278 281
f 282 280 283
f 284 282 285
f 286 284 287
f 288 289 290
f 291 288 292
f 293 291 294
f 295 296 297
f 298 295 299
f 300 298 301
f 302 300 303
f 218 302 304
f 220 218 217
f 224 220 222
f 228 224 226
f 232 228 230
f 236 232 234
f 241 305 242
f 246 241 244
f 250 246 248
f 306 250 252
f 257 255 254
f 307 257 259
f 261 308 262
f 266 261 264
f 270 266 268
f 274 270 272
f 278 274 276
f 282 278 280
f 286 282 284
f 291 289 288
f 298 296 295
f 302 298 300
f 220 302 218
f 228 220 224
f 236 228 232
f 246 305 241
f 306 246 250
f 307 255 257
f 261 309 308
f 270 261 266
f 278 270 274
f 286 278 282
f 291 310 289
f 298 311 296
f 220 298 302
f 236 220 228
f 246 312 305
f 313 246 306
f 307 314 255
f 270 309 261
f 286 270 278
f 291 315 310
f 220 311 298
f 316 220 236
f 246 317 312
f 318 246 313
f 307 318 314
f 270 319 309
f 320 270 286
f 293 315 291
f 220 321 311
f 239 220 316
f 318 317 246
f 322 318 307
f 270 322 319
f 323 270 320
f 293 323 315
f 220 324 321
f 238 220 239
f 318 325 317
f 270 318 322
f 293 270 323
f 220 326 324
f 327 220 238
f 318 328 325
f 329 270 293
f 220 330 326
f 331 220 327
f 318 332 328
f 333 270 329
f 220 334 330
f 335 220 331
f 270 332 318
f 336 270 333
f 335 334 220
f 270 337 332
f 338 270 336
f 335 339 334
f 270 340 337
f 339 270 338
f 341 339 335
f 270 342 340
f 341 270 339
f 270 343 342
f 344 270 341
f 270 345 343
f 345 270 344
f 346 347 348
f 347 349 350
f 349 351 352
f 351 353 354
f 353 355 356
f 355 357 358
f 357 359 360
f 359 361 362
f 361 363 364
f 363 365 366
f 367 368 369
f 370 371 372
f 371 373 374
f 373 375 376
f 375 377 378
f 377 379 380
f 379 381 382
f 383 384 385
f 384 386 387
f 386 388 389
f 390 391 392
f 391 393 394
f 393 395 396
f 395 397 398
f 397 399 400
f 399 401 402
f 401 403 404
f 403 405 406
f 405 407 408
f 407 409 410
f 409 411 412
f 411 413 414
f 413 415 416
f 417 418 419
f 418 420 421
f 420 422 423
f 424 425 426
f 425 427 428
f 427 429 430
f 429 431 432
f 431 346 433
f 346 349 347
f 349 353 351
f 353 357 355
f 357 361 359
f 361 365 363
f 434 371 370
f 371 375 373
f 375 379 377
f 379 435 381
f 383 386 384
f 386 436 388
f 437 391 390
f 391 395 393
f 395 399 397
f 399 403 401
f 403 407 405
f 407 411 409
f 411 415 413
f 417 420 418
f 424 427 425
f 427 431 429
f 431 349 346
f 349 357 353
f 357 365 361
f 434 375 371
f 375 435 379
f 383 436 386
f 438 391 437
f 391 399 395
f 399 407 403
f 407 415 411
f 439 420 417
f 440 427 424
f 427 349 431
f 349 365 357
f 441 375 434
f 375 442 435
f 443 436 383
f 438 399 391
f 399 415 407
f 444 420 439
f 440 349 427
f 349 445 365
f 446 375 441
f 375 447 442
f 447 436 443
f 448 399 438
f 399 449 415
f 444 422 420
f 450 349 440
f 349 367 445
f 446 447 375
f 447 451 436
f 451 399 448
f 399 452 449
f 452 422 444
f 453 349 450
f 349 368 367
f 454 447 446
f 447 399 451
f 399 422 452
f 455 349 453
f 349 456 368
f 457 447 454
f 399 458 422
f 459 349 455
f 349 460 456
f 461 447 457
f 399 462 458
f 463 349 459
f 349 464 460
f 461 399 447
f 399 465 462
f 463 464 349
f 466 399 461
f 399 467 465
f 468 464 463
f 469 399 466
f 399 468 467
f 468 470 464
f 471 399 469
f 399 470 468
f 472 399 471
f 399 473 470
f 474 399 472
f 399 474 473
f 217 347 221
f 221 347 350
f 221 350 220
f 220 350 349
f 220 349 223
f 223 349 352
f 223 352 222
f 222 352 351
f 222 351 225
f 225 351 354
f 225 354 224
f 224 354 353
f 224 353 227
f 227 353 356
f 227 356 226
f 226 356 355
f 226 355 229
f 229 355 358
f 229 358 228
f 228 358 357
f 228 357 231
f 231 357 360
f 231 360 230
f 230 360 359
f 230 359 233
f 233 359 362
f 233 362 232
f 232 362 361
f 232 361 235
f 235 361 364
f 235 364 234
f 234 364 363
f 234 363 237
f 237 363 366
f 237 366 236
f 236 366 365
f 236 365 316
f 316 365 445
f 316 445 239
f 239 445 367
f 239 367 240
f 240 367 369
f 240 369 238
f 238 369 368
f 238 368 327
f 327 368 456
f 327 456 331
f 331 456 460
f 331 460 335
f 335 460 464
f 335 464 341
f 341 464 470
f 341 470 344
f 344 470 473
f 344 473 345
f 345 473 474
f 345 474 343
f 343 474 472
f 343 472 342
f 342 472 471
f 342 471 340
f 340 471 469
f 340 469 337
f 337 469 466
f 337 466 332
f 332 466 461
f 332 461 328
f 328 461 457
f 328 457 325
f 325 457 454
f 325 454 317
f 317 454 446
f 317 446 312
f 312 446 441
f 312 441 305
f 305 441 434
f 305 434 242
f 242 434 370
f 242 370 243
f 243 370 372
f 243 372 241
f 241 372 371
f 241 371 245
f 245 371 374
f 245 374 244
f 244 374 373
f 244 373 247
f 247 373 376
f 247 376 246
f 246 376 375
f 246 375 249
f 249 375 378
f 249 378 248
f 248 378 377
f 248 377 251
f 251 377 380
f 251 380 250
f 250 380 379
f 250 379 253
f 253 379 382
f 253 382 252
f 252 382 381
f 252 381 306
f 306 381 435
f 306 435 313
f 313 435 442
f 313 442 318
f 318 442 447
f 318 447 314
f 314 447 443
f 314 443 255
f 255 443 383
f 255 383 256
f 256 383 385
f 256 385 254
f 254 385 384
f 254 384 258
f 258 384 387
f 258 387 257
f 257 387 386
f 257 386 260
f 260 386 389
f 260 389 259
f 259 389 388
f 259 388 307
f 307 388 436
f 307 436 322
f 322 436 451
f 322 451 319
f 319 451 448
f 319 448 309
f 309 448 438
f 309 438 308
f 308 438 437
f 308 437 262
f 262 437 390
f 262 390 263
f 263 390 392
f 263 392 261
f 261 392 391
f 261 391 265
f 265 391 394
f 265 394 264
f 264 394 393
f 264 393 267
f 267 393 396
f 267 396 266
f 266 396 395
f 266 395 269
f 269 395 398
f 269 398 268
f 268 398 397
f 268 397 271
f 271 397 400
f 271 400 270
f 270 400 399
f 270 399 273
f 273 399 402
f 273 402 272
f 272 402 401
f 272 401 275
f 275 401 404
f 275 404 274
f 274 404 403
f 274 403 277
f 277 403 406
f 277 406 276
f 276 406 405
f 276 405 279
f 279 405 408
f 279 408 278
f 278 408 407
f 278 407 281
f 281 407 410
f 281 410 280
f 280 410 409
f 280 409 283
f 283 409 412
f 283 412 282
f 282 412 411
f 282 411 285
f 285 411 414
f 285 414 284
f 284 414 413
f 284 413 287
f 287 413 416
f 287 416 286
f 286 416 415
f 286 415 320
f 320 415 449
f 320 449 323
f 323 449 452
f 323 452 315
f 315 452 444
f 315 444 310
f 310 444 439
f 310 439 289
f 289 439 417
f 289 417 290
f 290 417 419
f 290 419 288
f 288 419 418
f 288 418 292
f 292 418 421
f 292 421 291
f 291 421 420
f 291 420 294
f 294 420 423
f 294 423 293
f 293 423 422
f 293 422 329
f 329 422 458
f 329 458 333
f 333 458 462
f 333 462 336
f 336 462 465
f 336 465 338
f 338 465 467
f 338 467 339
f 339 467 468
f 339 468 334
f 334 468 463
f 334 463 330
f 330 463 459
f 330 459 326
f 326 459 455
f 326 455 324
f 324 455 453
f 324 453 321
f 321 453 450
f 321 450 311
f 311 450 440
f 311 440 296
f 296 440 424
f 296 424 297
f 297 424 426
f 297 426 295
f 295 426 425
f 295 425 299
f 299 425 428
f 299 428 298
f 298 428 427
f 298 427 301
f 301 427 430
f 301 430 300
f 300 430 429
f 300 429 303
f 303 429 432
f 303 432 302
f 302 432 431
f 302 431 304
f 304 431 433
f 304 433 218
f 218 433 346
f 218 346 219
f 219 346 348
f 219 348 217
f 217 348 347
o 
v 29.07 0 -38.3
v 30.932 0 -36.592
v 30.146 0 -37.287
v 25.588 0 -42.371
v 27.113 0 -40.347
v 23.749 0 -46.559
v 24.474 0 -44.425
v 23.38 0 -51.27
v 23.391 0 -48.823
v 25.049 0 -56.999
v 23.884 0 -54.22
v 29.508 0 -62.208
v 26.911 0 -59.647
v 37.05 0 -67.23
v 32.876 0 -64.721
v 41.314 0 -69.654
v 40.39 0 -69.12
v 40.872 0 -69.403
v 42.006 0 -70.029
v 41.699 0 -69.866
v 42.31 0 -70.17
v 42.216 0 -70.133
v 48.34 0 -73.51
v 43.856 0 -70.992
v 44.38 0 -71.29
v 61.735 0 -89.611
v 62.369 0 -88.455
v 61.99 0 -89.14
v 61.311 0 -90.525
v 61.506 0 -90.08
v 61.064 0 -91.252
v 61.161 0 -90.923
v 61.051 0 -91.753
v 61.03 0 -91.49
v 61.373 0 -92.048
v 61.148 0 -91.934
v 62.407 0 -92.135
v 61.775 0 -92.109
v 65.168 0 -92.011
v 63.32 0 -92.14
v 69.011 0 -91.069
v 67.094 0 -91.644
v 72.471 0 -89.417
v 70.833 0 -90.316
v 74.888 0 -87.228
v 73.84 0 -88.4
v 76.332 0 -84.126
v 75.727 0 -85.776
v 76.743 0 -80.561
v 76.679 0 -82.361
v 76.183 0 -77.745
v 76.5 0 -78.81
v 75.361 0 -75.681
v 75.803 0 -76.701
v 74.3 0 -73.73
v 74.86 0 -74.69
v 73.016 0 -71.917
v 73.685 0 -72.804
v 71.525 0 -70.27
v 72.295 0 -71.072
v 69.85 0 -68.812
v 70.709 0 -69.516
v 67.843 0 -67.419
v 68.95 0 -68.16
v 64.567 0 -65.345
v 66.289 0 -66.423
v 61.738 0 -63.644
v 62.957 0 -64.361
v 52.21 0 -58.42
v 61.19 0 -63.37
v 55.46 0 -60.21
v 43.185 0 -46.863
v 41.374 0 -47.987
v 42.28 0 -47.43
v 44.815 0 -45.819
v 44.043 0 -46.318
v 45.938 0 -45.051
v 45.46 0 -45.389
v 46.594 0 -44.331
v 46.21 0 -44.83
v 46.155 0 -43.235
v 46.595 0 -43.819
v 43.716 0 -41.632
v 45.215 0 -42.525
v 40.826 0 -40.101
v 41.6 0 -40.5
v 35.777 0 -37.196
v 37.256 0 -38.086
v 36.49 0 -37.62
v 34.373 0 -36.466
v 35.059 0 -36.806
v 33.228 0 -36.006
v 33.751 0 -36.194
v 32.38 0 -35.879
v 32.84 0 -35.92
v 31.51 0 -36.161
v 31.965 0 -35.941
v 42.409 0 -70.21
v 51.079 0 -75.038
v 45.22 0 -54.58
v 40.54 0 -48.505
v 38.121 0 -38.596
v 42.633 0 -70.323
v 62.627 0 -87.894
v 39.814 0 -48.961
v 39.955 0 -39.631
v 39.037 0 -39.12
v 42.963 0 -70.497
v 62.784 0 -87.378
v 43.538 0 -53.59
v 39.23 0 -49.335
v 43.377 0 -70.724
v 62.856 0 -86.822
v 41.938 0 -52.563
v 38.823 0 -49.605
v 62.862 0 -86.147
v 40.534 0 -51.584
v 38.63 0 -49.75
v 62.82 0 -85.27
v 39.439 0 -50.733
v 62.7 0 -83.08
v 60.97 0 -81.47
v 59.868 0 -80.571
v 38.766 0 -50.095
v 58.218 0 -79.411
v 56.129 0 -78.056
v 53.712 0 -76.576
v 30.932 10 -36.592
v 29.07 10 -38.3
v 30.146 10 -37.287
v 25.588 10 -42.371
v 27.113 10 -40.347
v 23.749 10 -46.559
v 24.474 10 -44.425
v 23.38 10 -51.27
v 23.391 10 -48.823
v 25.049 10 -56.999
v 23.884 10 -54.22
v 29.508 10 -62.208
v 26.911 10 -59.647
v 37.05 10 -67.23
v 32.876 10 -64.721
v 40.39 10 -69.12
v 41.314 10 -69.654
v 40.872 10 -69.403
v 42.006 10 -70.029
v 41.699 10 -69.866
v 42.31 10 -70.17
v 42.216 10 -70.133
v 43.856 10 -70.992
v 48.34 10 -73.51
v 44.38 10 -71.29
v 62.369 10 -88.455
v 61.735 10 -89.611
v 61.99 10 -89.14
v 61.311 10 -90.525
v 61.506 10 -90.08
v 61.064 10 -91.252
v 61.161 10 -90.923
v 61.051 10 -91.753
v 61.03 10 -91.49
v 61.373 10 -92.048
v 61.148 10 -91.934
v 62.407 10 -92.135
v 61.775 10 -92.109
v 65.168 10 -92.011
v 63.32 10 -92.14
v 69.011 10 -91.069
v 67.094 10 -91.644
v 72.471 10 -89.417
v 70.833 10 -90.316
v 74.888 10 -87.228
v 73.84 10 -88.4
v 76.332 10 -84.126
v 75.727 10 -85.776
v 76.743 10 -80.561
v 76.679 10 -82.361
v 76.183 10 -77.745
v 76.5 10 -78.81
v 75.361 10 -75.681
v 75.803 10 -76.701
v 74.3 10 -73.73
v 74.86 10 -74.69
v 73.016 10 -71.917
v 73.685 10 -72.804
v 71.525 10 -70.27
v 72.295 10 -71.072
v 69.85 10 -68.812
v 70.709 10 -69.516
v 67.843 10 -67.419
v 68.95 10 -68.16
v 64.567 10 -65.345
v 66.289 10 -66.423
v 61.738 10 -63.644
v 62.957 10 -64.361
v 61.19 10 -63.37
v 52.21 10 -58.42
v 55.46 10 -60.21
v 41.374 10 -47.987
v 43.185 10 -46.863
v 42.28 10 -47.43
v 44.815 10 -45.819
v 44.043 10 -46.318
v 45.938 10 -45.051
v 45.46 10 -45.389
v 46.594 10 -44.331
v 46.21 10 -44.83
v 46.155 10 -43.235
v 46.595 10 -43.819
v 43.716 10 -41.632
v 45.215 10 -42.525
v 40.826 10 -40.101
v 41.6 10 -40.5
v 37.256 10 -38.086
v 35.777 10 -37.196
v 36.49 10 -37.62
v 34.373 10 -36.466
v 35.059 10 -36.806
v 33.228 10 -36.006
v 33.751 10 -36.194
v 32.38 10 -35.879
v 32.84 10 -35.92
v 31.51 10 -36.161
v 31.965 10 -35.941
v 42.409 10 -70.21
v 51.079 10 -75.038
v 45.22 10 -54.58
v 40.54 10 -48.505
v 38.121 10 -38.596
v 42.633 10 -70.323
v 62.627 10 -87.894
v 39.814 10 -48.961
v 39.955 10 -39.631
v 39.037 10 -39.12
v 42.963 10 -70.497
v 62.784 10 -87.378
v 43.538 10 -53.59
v 39.23 10 -49.335
v 43.377 10 -70.724
v 62.856 10 -86.822
v 41.938 10 -52.563
v 38.823 10 -49.605
v 62.862 10 -86.147
v 40.534 10 -51.584
v 38.63 10 -49.75
v 62.82 10 -85.27
v 39.439 10 -50.733
v 62.7 10 -83.08
v 60.97 10 -81.47
v 59.868 10 -80.571
v 38.766 10 -50.095
v 58.218 10 -79.411
v 56.129 10 -78.056
v 53.712 10 -76.576
f 475 476 477
f 478 475 479
f 480 478 481
f 482 480 483
f 484 482 485
f 486 484 487
f 488 486 489
f 490 491 492
f 493 490 494
f 495 493 496
f 497 498 499
f 500 501 502
f 503 500 504
f 505 503 506
f 507 505 508
f 509 507 510
f 511 509 512
f 513 511 514
f 515 513 516
f 517 515 518
f 519 517 520
f 521 519 522
f 523 521 524
f 525 523 526
f 527 525 528
f 529 527 530
f 531 529 532
f 533 531 534
f 535 533 536
f 537 535 538
f 539 537 540
f 541 539 542
f 543 544 545
f 546 547 548
f 549 546 550
f 551 549 552
f 553 551 554
f 555 553 556
f 557 555 558
f 559 557 560
f 561 562 563
f 564 561 565
f 566 564 567
f 568 566 569
f 570 568 571
f 475 570 476
f 480 475 478
f 484 480 482
f 488 484 486
f 493 491 490
f 572 493 495
f 573 498 497
f 503 501 500
f 507 503 505
f 511 507 509
f 515 511 513
f 519 515 517
f 523 519 521
f 527 523 525
f 531 527 529
f 535 531 533
f 539 535 537
f 544 539 541
f 574 544 543
f 546 575 547
f 551 546 549
f 555 551 553
f 559 555 557
f 564 562 561
f 568 564 566
f 475 568 570
f 484 475 480
f 491 484 488
f 572 491 493
f 507 501 503
f 515 507 511
f 523 515 519
f 531 523 527
f 539 531 535
f 574 539 544
f 551 575 546
f 559 551 555
f 564 576 562
f 475 564 568
f 491 475 484
f 577 491 572
f 507 578 501
f 523 507 515
f 539 523 531
f 551 579 575
f 580 551 559
f 564 581 576
f 491 564 475
f 582 491 577
f 523 578 507
f 574 523 539
f 580 579 551
f 582 564 491
f 523 583 578
f 584 523 574
f 580 585 579
f 586 564 582
f 523 587 583
f 588 523 584
f 580 589 585
f 498 564 586
f 523 590 587
f 591 523 588
f 580 592 589
f 523 593 590
f 594 523 591
f 581 592 580
f 523 595 593
f 564 592 581
f 523 596 595
f 498 592 564
f 523 597 596
f 498 598 592
f 523 599 597
f 498 594 598
f 523 600 599
f 498 523 594
f 523 601 600
f 573 523 498
f 523 573 601
f 602 603 604
f 603 605 606
f 605 607 608
f 607 609 610
f 609 611 612
f 611 613 614
f 613 615 616
f 617 618 619
f 618 620 621
f 620 622 623
f 624 625 626
f 627 628 629
f 628 630 631
f 630 632 633
f 632 634 635
f 634 636 637
f 636 638 639
f 638 640 641
f 640 642 643
f 642 644 645
f 644 646 647
f 646 648 649
f 648 650 651
f 650 652 653
f 652 654 655
f 654 656 657
f 656 658 659
f 658 660 661
f 660 662 663
f 662 664 665
f 664 666 667
f 666 668 669
f 670 671 672
f 673 674 675
f 674 676 677
f 676 678 679
f 678 680 681
f 680 682 683
f 682 684 685
f 684 686 687
f 688 689 690
f 689 691 692
f 691 693 694
f 693 695 696
f 695 697 698
f 697 603 602
f 603 607 605
f 607 611 609
f 611 615 613
f 617 620 618
f 620 699 622
f 624 700 625
f 627 630 628
f 630 634 632
f 634 638 636
f 638 642 640
f 642 646 644
f 646 650 648
f 650 654 652
f 654 658 656
f 658 662 660
f 662 666 664
f 666 670 668
f 670 701 671
f 702 674 673
f 674 678 676
f 678 682 680
f 682 686 684
f 688 691 689
f 691 695 693
f 695 603 697
f 603 611 607
f 611 617 615
f 617 699 620
f 627 634 630
f 634 642 638
f 642 650 646
f 650 658 654
f 658 666 662
f 666 701 670
f 702 678 674
f 678 686 682
f 703 691 688
f 691 603 695
f 603 617 611
f 617 704 699
f 705 634 627
f 634 650 642
f 650 666 658
f 706 678 702
f 678 707 686
f 708 691 703
f 691 617 603
f 617 709 704
f 705 650 634
f 650 701 666
f 706 707 678
f 691 709 617
f 710 650 705
f 650 711 701
f 712 707 706
f 691 713 709
f 714 650 710
f 650 715 711
f 716 707 712
f 691 624 713
f 717 650 714
f 650 718 715
f 719 707 716
f 720 650 717
f 650 721 718
f 719 708 707
f 722 650 720
f 719 691 708
f 723 650 722
f 719 624 691
f 724 650 723
f 725 624 719
f 726 650 724
f 721 624 725
f 727 650 726
f 650 624 721
f 728 650 727
f 650 700 624
f 700 650 728
f 475 603 479
f 479 603 606
f 479 606 478
f 478 606 605
f 478 605 481
f 481 605 608
f 481 608 480
f 480 608 607
f 480 607 483
f 483 607 610
f 483 610 482
f 482 610 609
f 482 609 485
f 485 609 612
f 485 612 484
f 484 612 611
f 484 611 487
f 487 611 614
f 487 614 486
f 486 614 613
f 486 613 489
f 489 613 616
f 489 616 488
f 488 616 615
f 488 615 491
f 491 615 617
f 491 617 492
f 492 617 619
f 492 619 490
f 490 619 618
f 490 618 494
f 494 618 621
f 494 621 493
f 493 621 620
f 493 620 496
f 496 620 623
f 496 623 495
f 495 623 622
f 495 622 572
f 572 622 699
f 572 699 577
f 577 699 704
f 577 704 582
f 582 704 709
f 582 709 586
f 586 709 713
f 586 713 498
f 498 713 624
f 498 624 499
f 499 624 626
f 499 626 497
f 497 626 625
f 497 625 573
f 573 625 700
f 573 700 601
f 601 700 728
f 601 728 600
f 600 728 727
f 600 727 599
f 599 727 726
f 599 726 597
f 597 726 724
f 597 724 596
f 596 724 723
f 596 723 595
f 595 723 722
f 595 722 593
f 593 722 720
f 593 720 590
f 590 720 717
f 590 717 587
f 587 717 714
f 587 714 583
f 583 714 710
f 583 710 578
f 578 710 705
f 578 705 501
f 501 705 627
f 501 627 502
f 502 627 629
f 502 629 500
f 500 629 628
f 500 628 504
f 504 628 631
f 504 631 503
f 503 631 630
f 503 630 506
f 506 630 633
f 506 633 505
f 505 633 632
f 505 632 508
f 508 632 635
f 508 635 507
f 507 635 634
f 507 634 510
f 510 634 637
f 510 637 509
f 509 637 636
f 509 636 512
f 512 636 639
f 512 639 511
f 511 639 638
f 511 638 514
f 514 638 641
f 514 641 513
f 513 641 640
f 513 640 516
f 516 640 643
f 516 643 515
f 515 643 642
f 515 642 518
f 518 642 645
f 518 645 517
f 517 645 644
f 517 644 520
f 520 644 647
f 520 647 519
f 519 647 646
f 519 646 522
f 522 646 649
f 522 649 521
f 521 649 648
f 521 648 524
f 524 648 651
f 524 651 523
f 523 651 650
f 523 650 526
f 526 650 653
f 526 653 525
f 525 653 652
f 525 652 528
f 528 652 655
f 528 655 527
f 527 655 654
f 527 654 530
f 530 654 657
f 530 657 529
f 529 657 656
f 529 656 532
f 532 656 659
f 532 659 531
f 531 659 658
f 531 658 534
f 534 658 661
f 534 661 533
f 533 661 660
f 533 660 536
f 536 660 663
f 536 663 535
f 535 663 662
f 535 662 538
f 538 662 665
f 538 665 537
f 537 665 664
f 537 664 540
f 540 664 667
f 540 667 539
f 539 667 666
f 539 666 542
f 542 666 669
f 542 669 541
f 541 669 668
f 541 668 544
f 544 668 670
f 544 670 545
f 545 670 672
f 545 672 543
f 543 672 671
f 543 671 574
f 574 671 701
f 574 701 584
f 584 701 711
f 584 711 588
f 588 711 715
f 588 715 591
f 591 715 718
f 591 718 594
f 594 718 721
f 594 721 598
f 598 721 725
f 598 725 592
f 592 725 719
f 592 719 589
f 589 719 716
f 589 716 585
f 585 716 712
f 585 712 579
f 579 712 706
f 579 706 575
f 575 706 702
f 575 702 547
f 547 702 673
f 547 673 548
f 548 673 675
f 548 675 546
f 546 675 674
f 546 674 550
f 550 674 677
f 550 677 549
f 549 677 676
f 549 676 552
f 552 676 679
f 552 679 551
f 551 679 678
f 551 678 554
f 554 678 681
f 554 681 553
f 553 681 680
f 553 680 556
f 556 680 683
f 556 683 555
f 555 683 682
f 555 682 558
f 558 682 685
f 558 685 557
f 557 685 684
f 557 684 560
f 560 684 687
f 560 687 559
f 559 687 686
f 559 686 580
f 580 686 707
f 580 707 581
f 581 707 708
f 581 708 576
f 576 708 703
f 576 703 562
f 562 703 688
f 562 688 563
f 563 688 690
f 563 690 561
f 561 690 689
f 561 689 565
f 565 689 692
f 565 692 564
f 564 692 691
f 564 691 567
f 567 691 694
f 567 694 566
f 566 694 693
f 566 693 569
f 569 693 696
f 569 696 568
f 568 696 695
f 568 695 571
f 571 695 698
f 571 698 570
f 570 698 697
f 570 697 476
f 476 697 602
f 476 602 477
f 477 602 604
f 477 604 475
f 475 604 603
o 
v 29.78 0 -69.21
v 31.071 0 -68.218
v 30.458 0 -68.669
v 28.309 0 -70.401
v 29.028 0 -69.785
v 26.981 0 -71.748
v 27.626 0 -71.056
v 25.81 0 -73.235
v 26.374 0 -72.475
v 24.811 0 -74.843
v 25.288 0 -74.025
v 23.998 0 -76.551
v 24.381 0 -75.686
v 23.38 0 -78.34
v 23.664 0 -77.437
v 22.982 0 -80.566
v 23.117 0 -79.442
v 23.098 0 -82.825
v 22.976 0 -81.699
v 23.723 0 -84.999
v 23.348 0 -83.93
v 24.823 0 -86.975
v 24.216 0 -86.019
v 26.341 0 -88.651
v 25.534 0 -87.857
v 28.2 0 -89.94
v 27.234 0 -89.349
v 30.812 0 -90.853
v 29.272 0 -90.37
v 34.378 0 -91.741
v 32.591 0 -91.329
v 37.05 0 -92.14
v 35.941 0 -92.031
v 38.492 0 -91.923
v 37.912 0 -92.088
v 38.834 0 -91.19
v 38.798 0 -91.629
v 38.13 0 -89.82
v 38.61 0 -90.593
v 41.29 0 -79.514
v 40.33 0 -80.04
v 40.739 0 -79.827
v 42.67 0 -78.679
v 41.946 0 -79.124
v 44.17 0 -77.72
v 43.424 0 -78.204
v 46.269 0 -76.18
v 45.434 0 -76.869
v 46.731 0 -75.124
v 46.695 0 -75.611
v 45.71 0 -74.23
v 46.396 0 -74.677
v 34.829 0 -68.157
v 36.175 0 -68.941
v 35.32 0 -68.44
v 33.855 0 -67.694
v 34.333 0 -67.906
v 33.054 0 -67.427
v 33.421 0 -67.531
v 32.472 0 -67.444
v 32.78 0 -67.39
v 31.614 0 -67.861
v 32.082 0 -67.602
v 37.259 0 -88.059
v 44.834 0 -73.767
v 37.032 0 -69.44
v 37.891 0 -69.934
v 38.814 0 -81.147
v 38.752 0 -70.425
v 36.918 0 -86.193
v 43.959 0 -73.3
v 39.615 0 -70.913
v 37.722 0 -82.62
v 40.48 0 -71.397
v 37.081 0 -84.341
v 43.087 0 -72.829
v 42.216 0 -72.356
v 41.347 0 -71.878
v 31.071 10 -68.218
v 29.78 10 -69.21
v 30.458 10 -68.669
v 28.309 10 -70.401
v 29.028 10 -69.785
v 26.981 10 -71.748
v 27.626 10 -71.056
v 25.81 10 -73.235
v 26.374 10 -72.475
v 24.811 10 -74.843
v 25.288 10 -74.025
v 23.998 10 -76.551
v 24.381 10 -75.686
v 23.38 10 -78.34
v 23.664 10 -77.437
v 22.982 10 -80.566
v 23.117 10 -79.442
v 23.098 10 -82.825
v 22.976 10 -81.699
v 23.723 10 -84.999
v 23.348 10 -83.93
v 24.823 10 -86.975
v 24.216 10 -86.019
v 26.341 10 -88.651
v 25.534 10 -87.857
v 28.2 10 -89.94
v 27.234 10 -89.349
v 30.812 10 -90.853
v 29.272 10 -90.37
v 34.378 10 -91.741
v 32.591 10 -91.329
v 37.05 10 -92.14
v 35.941 10 -92.031
v 38.492 10 -91.923
v 37.912 10 -92.088
v 38.834 10 -91.19
v 38.798 10 -91.629
v 38.13 10 -89.82
v 38.61 10 -90.593
v 40.33 10 -80.04
v 41.29 10 -79.514
v 40.739 10 -79.827
v 42.67 10 -78.679
v 41.946 10 -79.124
v 44.17 10 -77.72
v 43.424 10 -78.204
v 46.269 10 -76.18
v 45.434 10 -76.869
v 46.731 10 -75.124
v 46.695 10 -75.611
v 45.71 10 -74.23
v 46.396 10 -74.677
v 36.175 10 -68.941
v 34.829 10 -68.157
v 35.32 10 -68.44
v 33.855 10 -67.694
v 34.333 10 -67.906
v 33.054 10 -67.427
v 33.421 10 -67.531
v 32.472 10 -67.444
v 32.78 10 -67.39
v 31.614 10 -67.861
v 32.082 10 -67.602
v 37.259 10 -88.059
v 44.834 10 -73.767
v 37.032 10 -69.44
v 37.891 10 -69.934
v 38.814 10 -81.147
v 38.752 10 -70.425
v 36.918 10 -86.193
v 43.959 10 -73.3
v 39.615 10 -70.913
v 37.722 10 -82.62
v 40.48 10 -71.397
v 37.081 10 -84.341
v 43.087 10 -72.829
v 42.216 10 -72.356
v 41.347 10 -71.878
f 729 730 731
f 732 729 733
f 734 732 735
f 736 734 737
f 738 736 739
f 740 738 741
f 742 740 743
f 744 742 745
f 746 744 747
f 748 746 749
f 750 748 751
f 752 750 753
f 754 752 755
f 756 754 757
f 758 756 759
f 760 758 761
f 762 760 763
f 764 762 765
f 766 764 767
f 768 769 770
f 771 768 772
f 773 771 774
f 775 773 776
f 777 775 778
f 779 777 780
f 781 782 783
f 784 781 785
f 786 784 787
f 788 786 789
f 790 788 791
f 729 790 730
f 734 729 732
f 738 734 736
f 742 738 740
f 746 742 744
f 750 746 748
f 754 750 752
f 758 754 756
f 762 758 760
f 766 762 764
f 771 769 768
f 775 771 773
f 779 775 777
f 784 782 781
f 788 784 786
f 729 788 790
f 738 729 734
f 746 738 742
f 754 746 750
f 762 754 758
f 792 762 766
f 775 769 771
f 793 775 779
f 784 794 782
f 729 784 788
f 746 729 738
f 762 746 754
f 793 769 775
f 784 795 794
f 746 784 729
f 792 746 762
f 793 796 769
f 784 797 795
f 798 746 792
f 799 796 793
f 784 800 797
f 798 784 746
f 799 801 796
f 784 802 800
f 803 784 798
f 804 801 799
f 803 802 784
f 805 801 804
f 803 806 802
f 806 801 805
f 801 806 803
f 807 808 809
f 808 810 811
f 810 812 813
f 812 814 815
f 814 816 817
f 816 818 819
f 818 820 821
f 820 822 823
f 822 824 825
f 824 826 827
f 826 828 829
f 828 830 831
f 830 832 833
f 832 834 835
f 834 836 837
f 836 838 839
f 838 840 841
f 840 842 843
f 842 844 845
f 846 847 848
f 847 849 850
f 849 851 852
f 851 853 854
f 853 855 856
f 855 857 858
f 859 860 861
f 860 862 863
f 862 864 865
f 864 866 867
f 866 868 869
f 868 808 807
f 808 812 810
f 812 816 814
f 816 820 818
f 820 824 822
f 824 828 826
f 828 832 830
f 832 836 834
f 836 840 838
f 840 844 842
f 846 849 847
f 849 853 851
f 853 857 855
f 859 862 860
f 862 866 864
f 866 808 868
f 808 816 812
f 816 824 820
f 824 832 828
f 832 840 836
f 840 870 844
f 846 853 849
f 853 871 857
f 872 862 859
f 862 808 866
f 808 824 816
f 824 840 832
f 846 871 853
f 873 862 872
f 862 824 808
f 824 870 840
f 874 871 846
f 875 862 873
f 824 876 870
f 874 877 871
f 878 862 875
f 862 876 824
f 879 877 874
f 880 862 878
f 862 881 876
f 879 882 877
f 880 881 862
f 879 883 882
f 884 881 880
f 879 884 883
f 884 879 881
f 729 808 733
f 733 808 811
f 733 811 732
f 732 811 810
f 732 810 735
f 735 810 813
f 735 813 734
f 734 813 812
f 734 812 737
f 737 812 815
f 737 815 736
f 736 815 814
f 736 814 739
f 739 814 817
f 739 817 738
f 738 817 816
f 738 816 741
f 741 816 819
f 741 819 740
f 740 819 818
f 740 818 743
f 743 818 821
f 743 821 742
f 742 821 820
f 742 820 745
f 745 820 823
f 745 823 744
f 744 823 822
f 744 822 747
f 747 822 825
f 747 825 746
f 746 825 824
f 746 824 749
f 749 824 827
f 749 827 748
f 748 827 826
f 748 826 751
f 751 826 829
f 751 829 750
f 750 829 828
f 750 828 753
f 753 828 831
f 753 831 752
f 752 831 830
f 752 830 755
f 755 830 833
f 755 833 754
f 754 833 832
f 754 832 757
f 757 832 835
f 757 835 756
f 756 835 834
f 756 834 759
f 759 834 837
f 759 837 758
f 758 837 836
f 758 836 761
f 761 836 839
f 761 839 760
f 760 839 838
f 760 838 763
f 763 838 841
f 763 841 762
f 762 841 840
f 762 840 765
f 765 840 843
f 765 843 764
f 764 843 842
f 764 842 767
f 767 842 845
f 767 845 766
f 766 845 844
f 766 844 792
f 792 844 870
f 792 870 798
f 798 870 876
f 798 876 803
f 803 876 881
f 803 881 801
f 801 881 879
f 801 879 796
f 796 879 874
f 796 874 769
f 769 874 846
f 769 846 770
f 770 846 848
f 770 848 768
f 768 848 847
f 768 847 772
f 772 847 850
f 772 850 771
f 771 850 849
f 771 849 774
f 774 849 852
f 774 852 773
f 773 852 851
f 773 851 776
f 776 851 854
f 776 854 775
f 775 854 853
f 775 853 778
f 778 853 856
f 778 856 777
f 777 856 855
f 777 855 780
f 780 855 858
f 780 858 779
f 779 858 857
f 779 857 793
f 793 857 871
f 793 871 799
f 799 871 877
f 799 877 804
f 804 877 882
f 804 882 805
f 805 882 883
f 805 883 806
f 806 883 884
f 806 884 802
f 802 884 880
f 802 880 800
f 800 880 878
f 800 878 797
f 797 878 875
f 797 875 795
f 795 875 873
f 795 873 794
f 794 873 872
f 794 872 782
f 782 872 859
f 782 859 783
f 783 859 861
f 783 861 781
f 781 861 860
f 781 860 785
f 785 860 863
f 785 863 784
f 784 863 862
f 784 862 787
f 787 862 865
f 787 865 786
f 786 865 864
f 786 864 789
f 789 864 867
f 789 867 788
f 788 867 866
f 788 866 791
f 791 866 869
f 791 869 790
f 790 869 868
f 790 868 730
f 730 868 807
f 730 807 731
f 731 807 809
f 731 809 729
f 729 809 808
o 
v 47.6 0 -86.32
v 49.35 0 -86.044
v 48.442 0 -86.151
v 46.069 0 -87.137
v 46.854 0 -86.632
v 44.578 0 -88.547
v 45.294 0 -87.79
v 43.52 0 -90.19
v 43.97 0 -89.362
v 43.119 0 -92.294
v 43.236 0 -91.161
v 43.348 0 -94.739
v 43.159 0 -93.512
v 44.14 0 -96.91
v 43.678 0 -95.897
v 45.606 0 -98.653
v 44.817 0 -97.871
v 47.524 0 -99.683
v 46.509 0 -99.257
v 49.89 0 -100
v 48.651 0 -99.931
v 53.634 0 -99.033
v 51.9 0 -99.729
v 56.113 0 -96.524
v 55.051 0 -97.951
v 57.01 0 -92.79
v 56.779 0 -94.79
v 56.34 0 -90.213
v 56.832 0 -91.528
v 54.666 0 -87.791
v 55.597 0 -88.936
v 52.49 0 -86.26
v 53.61 0 -86.868
v 51.133 0 -86.022
v 51.894 0 -86.108
v 50.266 0 -86.001
v 49.35 10 -86.044
v 47.6 10 -86.32
v 48.442 10 -86.151
v 46.069 10 -87.137
v 46.854 10 -86.632
v 44.578 10 -88.547
v 45.294 10 -87.79
v 43.52 10 -90.19
v 43.97 10 -89.362
v 43.119 10 -92.294
v 43.236 10 -91.161
v 43.348 10 -94.739
v 43.159 10 -93.512
v 44.14 10 -96.91
v 43.678 10 -95.897
v 45.606 10 -98.653
v 44.817 10 -97.871
v 47.524 10 -99.683
v 46.509 10 -99.257
v 49.89 10 -100
v 48.651 10 -99.931
v 53.634 10 -99.033
v 51.9 10 -99.729
v 56.113 10 -96.524
v 55.051 10 -97.951
v 57.01 10 -92.79
v 56.779 10 -94.79
v 56.34 10 -90.213
v 56.832 10 -91.528
v 54.666 10 -87.791
v 55.597 10 -88.936
v 52.49 10 -86.26
v 53.61 10 -86.868
v 51.133 10 -86.022
v 51.894 10 -86.108
v 50.266 10 -86.001
f 885 886 887
f 888 885 889
f 890 888 891
f 892 890 893
f 894 892 895
f 896 894 897
f 898 896 899
f 900 898 901
f 902 900 903
f 904 902 905
f 906 904 907
f 908 906 909
f 910 908 911
f 912 910 913
f 914 912 915
f 916 914 917
f 918 916 919
f 886 918 920
f 888 886 885
f 892 888 890
f 896 892 894
f 900 896 898
f 904 900 902
f 908 904 906
f 912 908 910
f 916 912 914
f 886 916 918
f 892 886 888
f 900 892 896
f 908 900 904
f 916 908 912
f 892 916 886
f 908 892 900
f 892 908 916
f 921 922 923
f 922 924 925
f 924 926 927
f 926 928 929
f 928 930 931
f 930 932 933
f 932 934 935
f 934 936 937
f 936 938 939
f 938 940 941
f 940 942 943
f 942 944 945
f 944 946 947
f 946 948 949
f 948 950 951
f 950 952 953
f 952 954 955
f 954 921 956
f 921 924 922
f 924 928 926
f 928 932 930
f 932 936 934
f 936 940 938
f 940 944 942
f 944 948 946
f 948 952 950
f 952 921 954
f 921 928 924
f 928 936 932
f 936 944 940
f 944 952 948
f 952 928 921
f 928 944 936
f 944 928 952
f 885 922 889
f 889 922 925
f 889 925 888
f 888 925 924
f 888 924 891
f 891 924 927
f 891 927 890
f 890 927 926
f 890 926 893
f 893 926 929
f 893 929 892
f 892 929 928
f 892 928 895
f 895 928 931
f 895 931 894
f 894 931 930
f 894 930 897
f 897 930 933
f 897 933 896
f 896 933 932
f 896 932 899
f 899 932 935
f 899 935 898
f 898 935 934
f 898 934 901
f 901 934 937
f 901 937 900
f 900 937 936
f 900 936 903
f 903 936 939
f 903 939 902
f 902 939 938
f 902 938 905
f 905 938 941
f 905 941 904
f 904 941 940
f 904 940 907
f 907 940 943
f 907 943 906
f 906 943 942
f 906 942 909
f 909 942 945
f 909 945 908
f 908 945 944
f 908 944 911
f 911 944 947
f 911 947 910
f 910 947 946
f 910 946 913
f 913 946 949
f 913 949 912
f 912 949 948
f 912 948 915
f 915 948 951
f 915 951 914
f 914 951 950
f 914 950 917
f 917 950 953
f 917 953 916
f 916 953 952
f 916 952 919
f 919 952 955
f 919 955 918
f 918 955 954
f 918 954 920
f 920 954 956
f 920 956 886
f 886 956 921
f 886 921 887
f 887 921 923
f 887 923 885
f 885 923 922
