o 
v 26.18 0 -74.04
v 17.94 0 -71.34
v 25.25 0 -73.98
v 29.37 0 -73.43
v 28.73 0 -73.09
v 28.91 0 -73.36
v 29.95 0 -73.76
v 29.62 0 -73.7
v 30.88 0 -74.32
v 30.51 0 -74.32
v 33 0 -76.65
v 32.5 0 -75.94
v 32.6 0 -76.31
v 28.17 0 -76.37
v 30.35 0 -76.77
v 30.41 0 -76.5
v 25.28 0 -74.16
v 28.05 0 -81.97
v 20.52 0 -74.47
v 34.84 0 -92.01
v 35.58 0 -89.43
v 35.21 0 -90.72
v 32.41 0 -100
v 33.61 0 -96.01
v 38.46 0 -95.91
v 32.72 0 -100
v 33.06 0 -100
v 56.59 0 -88.69
v 46.57 0 -90.66
v 51.58 0 -89.68
v 67.43 0 -84.49
v 60.31 0 -87.43
v 64.06 0 -86.21
v 72.81 0 -81.47
v 70.88 0 -82.8
v 76.93 0 -78.37
v 74.75 0 -80.15
v 81.17 0 -74.44
v 79.14 0 -76.59
v 84.64 0 -70.41
v 83.23 0 -72.29
v 87.65 0 -66.08
v 86.08 0 -68.54
v 90.97 0 -60.15
v 89.28 0 -63.66
v 93.64 0 -53.79
v 92.69 0 -56.65
v 95.24 0 -47.8
v 94.59 0 -50.97
v 95.88 0 -35.51
v 95.88 0 -44.64
v 93.86 0 -26.88
v 95.27 0 -32.44
v 94.69 0 -29.37
v 91.95 0 -22.15
v 93.03 0 -24.39
v 88.94 0 -17.02
v 90.84 0 -19.88
v 86.94 0 -14.29
v 87.04 0 -14.16
v 88.54 0 -19.39
v 86.85 0 -14.38
v 91.92 0 -32.53
v 90.23 0 -24.39
v 91.06 0 -28.45
v 89.68 0 -46.61
v 89.09 0 -51.24
v 89.31 0 -49.74
v 89.83 0 -40.03
v 90.02 0 -43.5
v 88.85 0 -33.86
v 89.65 0 -36.59
v 86.97 0 -28.97
v 88.05 0 -31.09
v 84.3 0 -24.82
v 85.9 0 -26.82
v 80.92 0 -21.32
v 82.7 0 -22.83
v 77.33 0 -18.56
v 79.17 0 -19.82
v 73.06 0 -16.19
v 75.48 0 -17.3
v 69.12 0 -14.5
v 70.66 0 -15.08
v 65.19 0 -13.3
v 67.53 0 -13.92
v 62.24 0 -12.66
v 62.86 0 -12.66
v 66.33 0 -15.05
v 64.27 0 -13.86
v 70.05 0 -17.76
v 68.17 0 -16.41
v 80.49 0 -32.93
v 78.16 0 -27.53
v 79.32 0 -30.23
v 82.21 0 -42.4
v 81.78 0 -37.91
v 81.97 0 -40.15
v 80.71 0 -37.82
v 81.47 0 -42.4
v 81.47 0 -40.58
v 78.19 0 -31.58
v 79.91 0 -35.02
v 74.5 0 -25.81
v 76.47 0 -28.14
v 70.48 0 -21.75
v 72.53 0 -23.47
v 65.9 0 -18.49
v 68.42 0 -20
v 54.22 0 -16.56
v 63.41 0 -17.02
v 33 0 -10.14
v 36.87 0 -13.06
v 34.93 0 -11.58
v 30.54 0 -7.19
v 31.77 0 -8.63
v 30.05 0 -5.93
v 30.29 0 -6.54
v 29.65 0 0.03
v 29.86 0 -2.95
v 28.54 0 -3.41
v 29.09 0 -1.69
v 27.96 0 -11.89
v 28.26 0 -5.47
v 27.96 0 -7.5
v 28.91 0 -15.64
v 28.42 0 -13.76
v 32.93 0 -20.28
v 30.02 0 -17.24
v 31.09 0 -18.83
v 37.08 0 -22.95
v 34.78 0 -21.72
v 41.57 0 -25.04
v 39.39 0 -24.21
v 49.06 0 -27.19
v 43.75 0 -25.87
v 59.42 0 -30.48
v 54.41 0 -28.54
v 56.9 0 -29.52
v 64.42 0 -33.39
v 61.9 0 -31.95
v 69.74 0 -38.8
v 67.07 0 -36.1
v 71.77 0 -42.95
v 70.75 0 -40.89
v 68.33 0 -63.2
v 68.91 0 -62.58
v 68.6 0 -62.89
v 69.31 0 -60.09
v 68.33 0 -62.4
v 68.82 0 -61.26
v 70.2 0 -55.82
v 69.77 0 -57.94
v 69.59 0 -47.9
v 70.2 0 -50.32
v 67.96 0 -43.38
v 68.97 0 -45.47
v 65.53 0 -39.57
v 66.91 0 -41.32
v 62.86 0 -36.71
v 64.09 0 -37.82
v 59.35 0 -34.13
v 61.6 0 -35.58
v 54.01 0 -31.27
v 57.11 0 -32.69
v 46.73 0 -28.45
v 50.97 0 -29.83
v 38.83 0 -25.99
v 42.49 0 -27.1
v 29.55 0 -22.03
v 35.18 0 -24.85
v 32.38 0 -23.44
v 25.68 0 -19.14
v 27.62 0 -20.58
v 23.2 0 -15.98
v 24.45 0 -17.54
v 20.77 0 -5.93
v 21.01 0 -8.57
v 20.98 0 -6.85
v 19.82 0 -7.96
v 20.55 0 -4.98
v 19.05 0 -14.22
v 19.08 0 -10.94
v 19.45 0 -19.23
v 19.05 0 -17.51
v 21.01 0 -23.32
v 19.88 0 -20.95
v 24.64 0 -28.17
v 22.15 0 -25.65
v 29.89 0 -32.35
v 27.16 0 -30.69
v 35.24 0 -35.05
v 32.69 0 -34.01
v 40.46 0 -36.93
v 37.82 0 -36.07
v 52.84 0 -44.12
v 49.65 0 -40.95
v 51.24 0 -42.55
v 55.36 0 -53.89
v 56.19 0 -55.85
v 55.79 0 -54.87
v 52.44 0 -49.43
v 53.92 0 -51.64
v 49.86 0 -47.5
v 51.15 0 -48.2
v 49.86 0 -46.94
v 52.01 0 -63.04
v 52.75 0 -60.77
v 52.38 0 -61.9
v 50.94 0 -58.53
v 51.43 0 -63.04
v 51.43 0 -60.37
v 49.62 0 -55.12
v 50.45 0 -56.68
v 47.4 0 -52.04
v 48.76 0 -53.55
v 43.47 0 -49.25
v 46.05 0 -50.54
v 38.34 0 -47.8
v 40.89 0 -47.99
v 32.96 0 -48.17
v 35.82 0 -47.62
v 15.73 0 -37.76
v 17.11 0 -39.48
v 16.53 0 -37.67
v 10.57 0 -38.8
v 14.96 0 -37.91
v 5.68 0 -40.12
v 6.18 0 -39.69
v 4.64 0 -42.55
v 5.16 0 -40.55
v 4.15 0 -52.32
v 4.15 0 -44.55
v 12.78 0 -64.76
v 7.19 0 -56.84
v 10.2 0 -61.32
v 15.36 0 -68.23
v 27 0 -73.09
v 28.17 0 -76.74
v 27.86 0 -76.77
v 43.87 0 -91.83
v 21.08 0 -10.29
v 17.73 0 -41.29
v 88.91 0 -52.72
v 45.01 0 -16.13
v 43.13 0 -37.76
v 30.14 0 -48.73
v 18.43 0 -42.95
v 32.66 0 -76.8
v 21.47 0 -11.86
v 51.15 0 -51.43
v 19.17 0 -44.58
v 45.22 0 -91.24
v 72.44 0 -20.15
v 43.13 0 -15.64
v 21.9 0 -13.43
v 46.39 0 -39.35
v 52.41 0 -55.39
v 27.68 0 -48.6
v 91.92 0 -43.5
v 74.81 0 -22.55
v 41.26 0 -15.12
v 22.55 0 -14.72
v 52.6 0 -58.06
v 25.22 0 -48.45
v 20.18 0 -45.56
v 76.5 0 -25.04
v 39.08 0 -14.1
v 56.74 0 -55.85
v 23.23 0 -47.5
v 21.23 0 -46.54
v 91.4 0 -45.84
v 90.88 0 -48.17
v 90.2 0 -50.45
v 89.52 0 -52.72
v 81.14 0 -35.42
v 72.26 0 -45.1
v 54.19 0 -46.7
v 55.51 0 -49.28
v 72.75 0 -47.25
v 56.13 0 -51.67
v 72.63 0 -50.08
v 56.74 0 -54.07
v 72.47 0 -52.87
v 71.8 0 -55.55
v 71.09 0 -58.19
v 70.02 0 -60.4
v 17.94 10 -71.34
v 26.18 10 -74.04
v 25.25 10 -73.98
v 28.73 10 -73.09
v 29.37 10 -73.43
v 28.91 10 -73.36
v 29.95 10 -73.76
v 29.62 10 -73.7
v 30.88 10 -74.32
v 30.51 10 -74.32
v 32.5 10 -75.94
v 33 10 -76.65
v 32.6 10 -76.31
v 30.35 10 -76.77
v 28.17 10 -76.37
v 30.41 10 -76.5
v 25.28 10 -74.16
v 28.05 10 -81.97
v 20.52 10 -74.47
v 35.58 10 -89.43
v 34.84 10 -92.01
v 35.21 10 -90.72
v 32.41 10 -100
v 33.61 10 -96.01
v 32.72 10 -100
v 38.46 10 -95.91
v 33.06 10 -100
v 46.57 10 -90.66
v 56.59 10 -88.69
v 51.58 10 -89.68
v 60.31 10 -87.43
v 67.43 10 -84.49
v 64.06 10 -86.21
v 72.81 10 -81.47
v 70.88 10 -82.8
v 76.93 10 -78.37
v 74.75 10 -80.15
v 81.17 10 -74.44
v 79.14 10 -76.59
v 84.64 10 -70.41
v 83.23 10 -72.29
v 87.65 10 -66.08
v 86.08 10 -68.54
v 90.97 10 -60.15
v 89.28 10 -63.66
v 93.64 10 -53.79
v 92.69 10 -56.65
v 95.24 10 -47.8
v 94.59 10 -50.97
v 95.88 10 -35.51
v 95.88 10 -44.64
v 95.27 10 -32.44
v 93.86 10 -26.88
v 94.69 10 -29.37
v 91.95 10 -22.15
v 93.03 10 -24.39
v 88.94 10 -17.02
v 90.84 10 -19.88
v 86.94 10 -14.29
v 87.04 10 -14.16
v 88.54 10 -19.39
v 86.85 10 -14.38
v 90.23 10 -24.39
v 91.92 10 -32.53
v 91.06 10 -28.45
v 89.09 10 -51.24
v 89.68 10 -46.61
v 89.31 10 -49.74
v 89.83 10 -40.03
v 90.02 10 -43.5
v 88.85 10 -33.86
v 89.65 10 -36.59
v 86.97 10 -28.97
v 88.05 10 -31.09
v 84.3 10 -24.82
v 85.9 10 -26.82
v 80.92 10 -21.32
v 82.7 10 -22.83
v 77.33 10 -18.56
v 79.17 10 -19.82
v 73.06 10 -16.19
v 75.48 10 -17.3
v 69.12 10 -14.5
v 70.66 10 -15.08
v 65.19 10 -13.3
v 67.53 10 -13.92
v 62.24 10 -12.66
v 62.86 10 -12.66
v 66.33 10 -15.05
v 64.27 10 -13.86
v 70.05 10 -17.76
v 68.17 10 -16.41
v 78.16 10 -27.53
v 80.49 10 -32.93
v 79.32 10 -30.23
v 81.78 10 -37.91
v 82.21 10 -42.4
v 81.97 10 -40.15
v 81.47 10 -42.4
v 80.71 10 -37.82
v 81.47 10 -40.58
v 78.19 10 -31.58
v 79.91 10 -35.02
v 74.5 10 -25.81
v 76.47 10 -28.14
v 70.48 10 -21.75
v 72.53 10 -23.47
v 65.9 10 -18.49
v 68.42 10 -20
v 54.22 10 -16.56
v 63.41 10 -17.02
v 36.87 10 -13.06
v 33 10 -10.14
v 34.93 10 -11.58
v 30.54 10 -7.19
v 31.77 10 -8.63
v 30.05 10 -5.93
v 30.29 10 -6.54
v 29.65 10 0.03
v 29.86 10 -2.95
v 28.54 10 -3.41
v 29.09 10 -1.69
v 28.26 10 -5.47
v 27.96 10 -11.89
v 27.96 10 -7.5
v 28.91 10 -15.64
v 28.42 10 -13.76
v 30.02 10 -17.24
v 32.93 10 -20.28
v 31.09 10 -18.83
v 37.08 10 -22.95
v 34.78 10 -21.72
v 41.57 10 -25.04
v 39.39 10 -24.21
v 49.06 10 -27.19
v 43.75 10 -25.87
v 54.41 10 -28.54
v 59.42 10 -30.48
v 56.9 10 -29.52
v 64.42 10 -33.39
v 61.9 10 -31.95
v 69.74 10 -38.8
v 67.07 10 -36.1
v 71.77 10 -42.95
v 70.75 10 -40.89
v 68.91 10 -62.58
v 68.33 10 -63.2
v 68.6 10 -62.89
v 68.33 10 -62.4
v 69.31 10 -60.09
v 68.82 10 -61.26
v 70.2 10 -55.82
v 69.77 10 -57.94
v 69.59 10 -47.9
v 70.2 10 -50.32
v 67.96 10 -43.38
v 68.97 10 -45.47
v 65.53 10 -39.57
v 66.91 10 -41.32
v 62.86 10 -36.71
v 64.09 10 -37.82
v 59.35 10 -34.13
v 61.6 10 -35.58
v 54.01 10 -31.27
v 57.11 10 -32.69
v 46.73 10 -28.45
v 50.97 10 -29.83
v 38.83 10 -25.99
v 42.49 10 -27.1
v 35.18 10 -24.85
v 29.55 10 -22.03
v 32.38 10 -23.44
v 25.68 10 -19.14
v 27.62 10 -20.58
v 23.2 10 -15.98
v 24.45 10 -17.54
v 21.01 10 -8.57
v 20.77 10 -5.93
v 20.98 10 -6.85
v 19.82 10 -7.96
v 20.55 10 -4.98
v 19.05 10 -14.22
v 19.08 10 -10.94
v 19.45 10 -19.23
v 19.05 10 -17.51
v 21.01 10 -23.32
v 19.88 10 -20.95
v 24.64 10 -28.17
v 22.15 10 -25.65
v 29.89 10 -32.35
v 27.16 10 -30.69
v 35.24 10 -35.05
v 32.69 10 -34.01
v 40.46 10 -36.93
v 37.82 10 -36.07
v 49.65 10 -40.95
v 52.84 10 -44.12
v 51.24 10 -42.55
v 56.19 10 -55.85
v 55.36 10 -53.89
v 55.79 10 -54.87
v 52.44 10 -49.43
v 53.92 10 -51.64
v 51.15 10 -48.2
v 49.86 10 -47.5
v 49.86 10 -46.94
v 52.75 10 -60.77
v 52.01 10 -63.04
v 52.38 10 -61.9
v 51.43 10 -63.04
v 50.94 10 -58.53
v 51.43 10 -60.37
v 49.62 10 -55.12
v 50.45 10 -56.68
v 47.4 10 -52.04
v 48.76 10 -53.55
v 43.47 10 -49.25
v 46.05 10 -50.54
v 38.34 10 -47.8
v 40.89 10 -47.99
v 32.96 10 -48.17
v 35.82 10 -47.62
v 17.11 10 -39.48
v 15.73 10 -37.76
v 16.53 10 -37.67
v 10.57 10 -38.8
v 14.96 10 -37.91
v 5.68 10 -40.12
v 6.18 10 -39.69
v 4.64 10 -42.55
v 5.16 10 -40.55
v 4.15 10 -52.32
v 4.15 10 -44.55
v 7.19 10 -56.84
v 12.78 10 -64.76
v 10.2 10 -61.32
v 15.36 10 -68.23
v 27 10 -73.09
v 28.17 10 -76.74
v 27.86 10 -76.77
v 43.87 10 -91.83
v 21.08 10 -10.29
v 17.73 10 -41.29
v 88.91 10 -52.72
v 45.01 10 -16.13
v 43.13 10 -37.76
v 30.14 10 -48.73
v 18.43 10 -42.95
v 32.66 10 -76.8
v 21.47 10 -11.86
v 51.15 10 -51.43
v 19.17 10 -44.58
v 45.22 10 -91.24
v 72.44 10 -20.15
v 43.13 10 -15.64
v 21.9 10 -13.43
v 46.39 10 -39.35
v 52.41 10 -55.39
v 27.68 10 -48.6
v 91.92 10 -43.5
v 74.81 10 -22.55
v 41.26 10 -15.12
v 22.55 10 -14.72
v 52.6 10 -58.06
v 25.22 10 -48.45
v 20.18 10 -45.56
v 76.5 10 -25.04
v 39.08 10 -14.1
v 56.74 10 -55.85
v 23.23 10 -47.5
v 21.23 10 -46.54
v 91.4 10 -45.84
v 90.88 10 -48.17
v 90.2 10 -50.45
v 89.52 10 -52.72
v 81.14 10 -35.42
v 72.26 10 -45.1
v 54.19 10 -46.7
v 55.51 10 -49.28
v 72.75 10 -47.25
v 56.13 10 -51.67
v 72.63 10 -50.08
v 56.74 10 -54.07
v 72.47 10 -52.87
v 71.8 10 -55.55
v 71.09 10 -58.19
v 70.02 10 -60.4
f 1 2 3
f 4 5 6
f 7 4 8
f 9 7 10
f 11 12 13
f 14 15 16
f 2 17 3
f 18 2 19
f 20 21 22
f 23 20 24
f 25 26 27
f 28 29 30
f 31 32 33
f 34 31 35
f 36 34 37
f 38 36 39
f 40 38 41
f 42 40 43
f 44 42 45
f 46 44 47
f 48 46 49
f 50 48 51
f 52 53 54
f 55 52 56
f 57 55 58
f 59 57 60
f 61 59 62
f 63 64 65
f 66 67 68
f 69 66 70
f 71 69 72
f 73 71 74
f 75 73 76
f 77 75 78
f 79 77 80
f 81 79 82
f 83 81 84
f 85 83 86
f 87 85 88
f 89 87 90
f 91 89 92
f 93 94 95
f 96 97 98
f 99 100 101
f 102 99 103
f 104 102 105
f 106 104 107
f 108 106 109
f 110 108 111
f 112 113 114
f 115 112 116
f 117 115 118
f 119 117 120
f 121 119 122
f 123 124 125
f 126 123 127
f 128 129 130
f 131 128 132
f 133 131 134
f 135 133 136
f 137 138 139
f 140 137 141
f 142 140 143
f 144 142 145
f 146 147 148
f 149 150 151
f 152 149 153
f 154 152 155
f 156 154 157
f 158 156 159
f 160 158 161
f 162 160 163
f 164 162 165
f 166 164 167
f 168 166 169
f 170 171 172
f 173 170 174
f 175 173 176
f 177 178 179
f 180 177 181
f 182 180 183
f 184 182 185
f 186 184 187
f 188 186 189
f 190 188 191
f 192 190 193
f 194 192 195
f 196 197 198
f 199 200 201
f 202 199 203
f 204 205 206
f 207 208 209
f 210 211 212
f 213 210 214
f 215 213 216
f 217 215 218
f 219 217 220
f 221 219 222
f 223 224 225
f 226 223 227
f 228 226 229
f 230 228 231
f 232 230 233
f 234 235 236
f 2 234 237
f 238 2 1
f 239 15 14
f 2 240 17
f 21 2 18
f 26 20 23
f 241 26 25
f 32 29 28
f 34 32 31
f 38 34 36
f 42 38 40
f 46 42 44
f 50 46 48
f 52 50 53
f 57 52 55
f 61 57 59
f 69 67 66
f 73 69 71
f 77 73 75
f 81 77 79
f 85 81 83
f 89 85 87
f 102 100 99
f 106 102 104
f 110 106 108
f 121 117 119
f 123 121 124
f 129 123 126
f 131 129 128
f 135 131 133
f 152 150 149
f 156 152 154
f 160 156 158
f 164 160 162
f 168 164 166
f 177 242 178
f 182 177 180
f 186 182 184
f 190 186 188
f 194 190 192
f 202 200 199
f 204 202 205
f 213 211 210
f 217 213 215
f 221 217 219
f 223 243 224
f 228 223 226
f 232 228 230
f 234 232 235
f 238 234 2
f 240 15 239
f 21 240 2
f 26 21 20
f 34 29 32
f 42 34 38
f 50 42 46
f 57 50 52
f 64 57 61
f 69 244 67
f 77 69 73
f 85 77 81
f 91 85 89
f 106 100 102
f 245 106 110
f 121 115 117
f 129 121 123
f 135 129 131
f 156 150 152
f 164 156 160
f 171 164 168
f 182 242 177
f 190 182 186
f 246 190 194
f 204 200 202
f 217 211 213
f 247 217 221
f 223 248 243
f 232 223 228
f 238 232 234
f 240 249 15
f 241 21 26
f 42 29 34
f 64 50 57
f 77 244 69
f 91 77 85
f 245 100 106
f 129 115 121
f 138 129 135
f 156 146 150
f 171 156 164
f 182 250 242
f 246 182 190
f 251 200 204
f 247 211 217
f 223 252 248
f 238 223 232
f 21 249 240
f 253 21 241
f 42 253 29
f 63 50 64
f 254 77 91
f 255 100 245
f 129 112 115
f 137 129 138
f 170 156 171
f 182 256 250
f 257 182 246
f 258 200 251
f 259 211 247
f 238 252 223
f 21 11 249
f 42 21 253
f 260 50 63
f 261 77 254
f 262 100 255
f 129 113 112
f 182 263 256
f 197 182 257
f 264 200 258
f 265 211 259
f 238 266 252
f 42 11 21
f 260 42 50
f 267 77 261
f 268 100 262
f 129 268 113
f 182 175 263
f 264 269 200
f 270 211 265
f 238 271 266
f 42 12 11
f 272 42 260
f 94 77 267
f 137 268 129
f 182 173 175
f 208 269 264
f 271 211 270
f 5 271 238
f 42 9 12
f 273 42 272
f 93 77 94
f 137 100 268
f 182 170 173
f 207 269 208
f 5 211 271
f 42 7 9
f 274 42 273
f 93 244 77
f 140 100 137
f 197 170 182
f 5 207 211
f 42 4 7
f 275 42 274
f 276 244 93
f 142 100 140
f 197 156 170
f 4 207 5
f 244 42 275
f 97 244 276
f 144 100 142
f 196 156 197
f 42 207 4
f 97 42 244
f 144 96 100
f 196 146 156
f 96 42 97
f 277 96 144
f 278 146 196
f 277 42 96
f 279 146 278
f 280 42 277
f 281 146 279
f 282 42 280
f 283 146 281
f 284 42 282
f 269 146 283
f 285 42 284
f 207 146 269
f 286 42 285
f 42 146 207
f 287 42 286
f 42 147 146
f 147 42 287
f 288 289 290
f 291 292 293
f 292 294 295
f 294 296 297
f 298 299 300
f 301 302 303
f 304 288 290
f 288 305 306
f 307 308 309
f 308 310 311
f 312 313 314
f 315 316 317
f 318 319 320
f 319 321 322
f 321 323 324
f 323 325 326
f 325 327 328
f 327 329 330
f 329 331 332
f 331 333 334
f 333 335 336
f 335 337 338
f 339 340 341
f 340 342 343
f 342 344 345
f 344 346 347
f 346 348 349
f 350 351 352
f 353 354 355
f 354 356 357
f 356 358 359
f 358 360 361
f 360 362 363
f 362 364 365
f 364 366 367
f 366 368 369
f 368 370 371
f 370 372 373
f 372 374 375
f 374 376 377
f 376 378 379
f 380 381 382
f 383 384 385
f 386 387 388
f 387 389 390
f 389 391 392
f 391 393 394
f 393 395 396
f 395 397 398
f 399 400 401
f 400 402 403
f 402 404 405
f 404 406 407
f 406 408 409
f 410 411 412
f 411 413 414
f 415 416 417
f 416 418 419
f 418 420 421
f 420 422 423
f 424 425 426
f 425 427 428
f 427 429 430
f 429 431 432
f 433 434 435
f 436 437 438
f 437 439 440
f 439 441 442
f 441 443 444
f 443 445 446
f 445 447 448
f 447 449 450
f 449 451 452
f 451 453 454
f 453 455 456
f 457 458 459
f 458 460 461
f 460 462 463
f 464 465 466
f 465 467 468
f 467 469 470
f 469 471 472
f 471 473 474
f 473 475 476
f 475 477 478
f 477 479 480
f 479 481 482
f 483 484 485
f 486 487 488
f 487 489 490
f 491 492 493
f 494 495 496
f 497 498 499
f 498 500 501
f 500 502 503
f 502 504 505
f 504 506 507
f 506 508 509
f 510 511 512
f 511 513 514
f 513 515 516
f 515 517 518
f 517 519 520
f 521 522 523
f 522 288 524
f 288 525 289
f 301 526 302
f 527 288 304
f 288 307 305
f 308 312 310
f 312 528 313
f 315 318 316
f 318 321 319
f 321 325 323
f 325 329 327
f 329 333 331
f 333 337 335
f 337 340 339
f 340 344 342
f 344 348 346
f 353 356 354
f 356 360 358
f 360 364 362
f 364 368 366
f 368 372 370
f 372 376 374
f 386 389 387
f 389 393 391
f 393 397 395
f 404 408 406
f 408 411 410
f 411 415 413
f 415 418 416
f 418 422 420
f 436 439 437
f 439 443 441
f 443 447 445
f 447 451 449
f 451 455 453
f 529 465 464
f 465 469 467
f 469 473 471
f 473 477 475
f 477 481 479
f 486 489 487
f 489 492 491
f 497 500 498
f 500 504 502
f 504 508 506
f 530 511 510
f 511 515 513
f 515 519 517
f 519 522 521
f 522 525 288
f 301 527 526
f 527 307 288
f 307 312 308
f 315 321 318
f 321 329 325
f 329 337 333
f 337 344 340
f 344 350 348
f 531 356 353
f 356 364 360
f 364 372 368
f 372 378 376
f 386 393 389
f 393 532 397
f 402 408 404
f 408 415 411
f 415 422 418
f 436 443 439
f 443 451 447
f 451 457 455
f 529 469 465
f 469 477 473
f 477 533 481
f 486 492 489
f 497 504 500
f 504 534 508
f 535 511 530
f 511 519 515
f 519 525 522
f 536 527 301
f 307 528 312
f 315 329 321
f 337 350 344
f 531 364 356
f 364 378 372
f 386 532 393
f 402 415 408
f 415 424 422
f 434 443 436
f 443 457 451
f 537 469 529
f 469 533 477
f 486 538 492
f 497 534 504
f 539 511 535
f 511 525 519
f 536 307 527
f 307 540 528
f 540 329 315
f 337 351 350
f 364 541 378
f 386 542 532
f 400 415 402
f 415 425 424
f 443 458 457
f 543 469 537
f 469 544 533
f 486 545 538
f 497 546 534
f 539 525 511
f 299 307 536
f 307 329 540
f 337 547 351
f 364 548 541
f 386 549 542
f 399 415 400
f 550 469 543
f 469 483 544
f 486 551 545
f 497 552 546
f 553 525 539
f 299 329 307
f 329 547 337
f 364 554 548
f 386 555 549
f 555 415 399
f 462 469 550
f 556 551 486
f 497 557 552
f 558 525 553
f 298 329 299
f 329 559 547
f 364 380 554
f 555 425 415
f 460 469 462
f 556 494 551
f 497 558 557
f 558 291 525
f 296 329 298
f 329 560 559
f 364 381 380
f 386 425 555
f 458 469 460
f 556 495 494
f 497 291 558
f 294 329 296
f 329 561 560
f 531 381 364
f 386 427 425
f 458 483 469
f 495 291 497
f 292 329 294
f 329 562 561
f 531 563 381
f 386 429 427
f 443 483 458
f 495 292 291
f 329 531 562
f 531 383 563
f 386 431 429
f 443 484 483
f 495 329 292
f 329 383 531
f 384 431 386
f 434 484 443
f 329 384 383
f 384 564 431
f 434 565 484
f 329 564 384
f 434 566 565
f 329 567 564
f 434 568 566
f 329 569 567
f 434 570 568
f 329 571 569
f 434 556 570
f 329 572 571
f 434 495 556
f 329 573 572
f 434 329 495
f 329 574 573
f 433 329 434
f 329 433 574
f 26 312 27
f 27 312 314
f 27 314 25
f 25 314 313
f 25 313 241
f 241 313 528
f 241 528 253
f 253 528 540
f 253 540 29
f 29 540 315
f 29 315 30
f 30 315 317
f 30 317 28
f 28 317 316
f 28 316 32
f 32 316 318
f 32 318 33
f 33 318 320
f 33 320 31
f 31 320 319
f 31 319 35
f 35 319 322
f 35 322 34
f 34 322 321
f 34 321 37
f 37 321 324
f 37 324 36
f 36 324 323
f 36 323 39
f 39 323 326
f 39 326 38
f 38 326 325
f 38 325 41
f 41 325 328
f 41 328 40
f 40 328 327
f 40 327 43
f 43 327 330
f 43 330 42
f 42 330 329
f 42 329 45
f 45 329 332
f 45 332 44
f 44 332 331
f 44 331 47
f 47 331 334
f 47 334 46
f 46 334 333
f 46 333 49
f 49 333 336
f 49 336 48
f 48 336 335
f 48 335 51
f 51 335 338
f 51 338 50
f 50 338 337
f 50 337 53
f 53 337 339
f 53 339 54
f 54 339 341
f 54 341 52
f 52 341 340
f 52 340 56
f 56 340 343
f 56 343 55
f 55 343 342
f 55 342 58
f 58 342 345
f 58 345 57
f 57 345 344
f 57 344 60
f 60 344 347
f 60 347 59
f 59 347 346
f 59 346 62
f 62 346 349
f 62 349 61
f 61 349 348
f 61 348 64
f 64 348 350
f 64 350 65
f 65 350 352
f 65 352 63
f 63 352 351
f 63 351 260
f 260 351 547
f 260 547 272
f 272 547 559
f 272 559 273
f 273 559 560
f 273 560 274
f 274 560 561
f 274 561 275
f 275 561 562
f 275 562 244
f 244 562 531
f 244 531 67
f 67 531 353
f 67 353 68
f 68 353 355
f 68 355 66
f 66 355 354
f 66 354 70
f 70 354 357
f 70 357 69
f 69 357 356
f 69 356 72
f 72 356 359
f 72 359 71
f 71 359 358
f 71 358 74
f 74 358 361
f 74 361 73
f 73 361 360
f 73 360 76
f 76 360 363
f 76 363 75
f 75 363 362
f 75 362 78
f 78 362 365
f 78 365 77
f 77 365 364
f 77 364 80
f 80 364 367
f 80 367 79
f 79 367 366
f 79 366 82
f 82 366 369
f 82 369 81
f 81 369 368
f 81 368 84
f 84 368 371
f 84 371 83
f 83 371 370
f 83 370 86
f 86 370 373
f 86 373 85
f 85 373 372
f 85 372 88
f 88 372 375
f 88 375 87
f 87 375 374
f 87 374 90
f 90 374 377
f 90 377 89
f 89 377 376
f 89 376 92
f 92 376 379
f 92 379 91
f 91 379 378
f 91 378 254
f 254 378 541
f 254 541 261
f 261 541 548
f 261 548 267
f 267 548 554
f 267 554 94
f 94 554 380
f 94 380 95
f 95 380 382
f 95 382 93
f 93 382 381
f 93 381 276
f 276 381 563
f 276 563 97
f 97 563 383
f 97 383 98
f 98 383 385
f 98 385 96
f 96 385 384
f 96 384 100
f 100 384 386
f 100 386 101
f 101 386 388
f 101 388 99
f 99 388 387
f 99 387 103
f 103 387 390
f 103 390 102
f 102 390 389
f 102 389 105
f 105 389 392
f 105 392 104
f 104 392 391
f 104 391 107
f 107 391 394
f 107 394 106
f 106 394 393
f 106 393 109
f 109 393 396
f 109 396 108
f 108 396 395
f 108 395 111
f 111 395 398
f 111 398 110
f 110 398 397
f 110 397 245
f 245 397 532
f 245 532 255
f 255 532 542
f 255 542 262
f 262 542 549
f 262 549 268
f 268 549 555
f 268 555 113
f 113 555 399
f 113 399 114
f 114 399 401
f 114 401 112
f 112 401 400
f 112 400 116
f 116 400 403
f 116 403 115
f 115 403 402
f 115 402 118
f 118 402 405
f 118 405 117
f 117 405 404
f 117 404 120
f 120 404 407
f 120 407 119
f 119 407 406
f 119 406 122
f 122 406 409
f 122 409 121
f 121 409 408
f 121 408 124
f 124 408 410
f 124 410 125
f 125 410 412
f 125 412 123
f 123 412 411
f 123 411 127
f 127 411 414
f 127 414 126
f 126 414 413
f 126 413 129
f 129 413 415
f 129 415 130
f 130 415 417
f 130 417 128
f 128 417 416
f 128 416 132
f 132 416 419
f 132 419 131
f 131 419 418
f 131 418 134
f 134 418 421
f 134 421 133
f 133 421 420
f 133 420 136
f 136 420 423
f 136 423 135
f 135 423 422
f 135 422 138
f 138 422 424
f 138 424 139
f 139 424 426
f 139 426 137
f 137 426 425
f 137 425 141
f 141 425 428
f 141 428 140
f 140 428 427
f 140 427 143
f 143 427 430
f 143 430 142
f 142 430 429
f 142 429 145
f 145 429 432
f 145 432 144
f 144 432 431
f 144 431 277
f 277 431 564
f 277 564 280
f 280 564 567
f 280 567 282
f 282 567 569
f 282 569 284
f 284 569 571
f 284 571 285
f 285 571 572
f 285 572 286
f 286 572 573
f 286 573 287
f 287 573 574
f 287 574 147
f 147 574 433
f 147 433 148
f 148 433 435
f 148 435 146
f 146 435 434
f 146 434 150
f 150 434 436
f 150 436 151
f 151 436 438
f 151 438 149
f 149 438 437
f 149 437 153
f 153 437 440
f 153 440 152
f 152 440 439
f 152 439 155
f 155 439 442
f 155 442 154
f 154 442 441
f 154 441 157
f 157 441 444
f 157 444 156
f 156 444 443
f 156 443 159
f 159 443 446
f 159 446 158
f 158 446 445
f 158 445 161
f 161 445 448
f 161 448 160
f 160 448 447
f 160 447 163
f 163 447 450
f 163 450 162
f 162 450 449
f 162 449 165
f 165 449 452
f 165 452 164
f 164 452 451
f 164 451 167
f 167 451 454
f 167 454 166
f 166 454 453
f 166 453 169
f 169 453 456
f 169 456 168
f 168 456 455
f 168 455 171
f 171 455 457
f 171 457 172
f 172 457 459
f 172 459 170
f 170 459 458
f 170 458 174
f 174 458 461
f 174 461 173
f 173 461 460
f 173 460 176
f 176 460 463
f 176 463 175
f 175 463 462
f 175 462 263
f 263 462 550
f 263 550 256
f 256 550 543
f 256 543 250
f 250 543 537
f 250 537 242
f 242 537 529
f 242 529 178
f 178 529 464
f 178 464 179
f 179 464 466
f 179 466 177
f 177 466 465
f 177 465 181
f 181 465 468
f 181 468 180
f 180 468 467
f 180 467 183
f 183 467 470
f 183 470 182
f 182 470 469
f 182 469 185
f 185 469 472
f 185 472 184
f 184 472 471
f 184 471 187
f 187 471 474
f 187 474 186
f 186 474 473
f 186 473 189
f 189 473 476
f 189 476 188
f 188 476 475
f 188 475 191
f 191 475 478
f 191 478 190
f 190 478 477
f 190 477 193
f 193 477 480
f 193 480 192
f 192 480 479
f 192 479 195
f 195 479 482
f 195 482 194
f 194 482 481
f 194 481 246
f 246 481 533
f 246 533 257
f 257 533 544
f 257 544 197
f 197 544 483
f 197 483 198
f 198 483 485
f 198 485 196
f 196 485 484
f 196 484 278
f 278 484 565
f 278 565 279
f 279 565 566
f 279 566 281
f 281 566 568
f 281 568 283
f 283 568 570
f 283 570 269
f 269 570 556
f 269 556 200
f 200 556 486
f 200 486 201
f 201 486 488
f 201 488 199
f 199 488 487
f 199 487 203
f 203 487 490
f 203 490 202
f 202 490 489
f 202 489 205
f 205 489 491
f 205 491 206
f 206 491 493
f 206 493 204
f 204 493 492
f 204 492 251
f 251 492 538
f 251 538 258
f 258 538 545
f 258 545 264
f 264 545 551
f 264 551 208
f 208 551 494
f 208 494 209
f 209 494 496
f 209 496 207
f 207 496 495
f 207 495 211
f 211 495 497
f 211 497 212
f 212 497 499
f 212 499 210
f 210 499 498
f 210 498 214
f 214 498 501
f 214 501 213
f 213 501 500
f 213 500 216
f 216 500 503
f 216 503 215
f 215 503 502
f 215 502 218
f 218 502 505
f 218 505 217
f 217 505 504
f 217 504 220
f 220 504 507
f 220 507 219
f 219 507 506
f 219 506 222
f 222 506 509
f 222 509 221
f 221 509 508
f 221 508 247
f 247 508 534
f 247 534 259
f 259 534 546
f 259 546 265
f 265 546 552
f 265 552 270
f 270 552 557
f 270 557 271
f 271 557 558
f 271 558 266
f 266 558 553
f 266 553 252
f 252 553 539
f 252 539 248
f 248 539 535
f 248 535 243
f 243 535 530
f 243 530 224
f 224 530 510
f 224 510 225
f 225 510 512
f 225 512 223
f 223 512 511
f 223 511 227
f 227 511 514
f 227 514 226
f 226 514 513
f 226 513 229
f 229 513 516
f 229 516 228
f 228 516 515
f 228 515 231
f 231 515 518
f 231 518 230
f 230 518 517
f 230 517 233
f 233 517 520
f 233 520 232
f 232 520 519
f 232 519 235
f 235 519 521
f 235 521 236
f 236 521 523
f 236 523 234
f 234 523 522
f 234 522 237
f 237 522 524
f 237 524 2
f 2 524 288
f 2 288 19
f 19 288 306
f 19 306 18
f 18 306 305
f 18 305 21
f 21 305 307
f 21 307 22
f 22 307 309
f 22 309 20
f 20 309 308
f 20 308 24
f 24 308 311
f 24 311 23
f 23 311 310
f 23 310 26
f 26 310 312
f 15 301 16
f 16 301 303
f 16 303 14
f 14 303 302
f 14 302 239
f 239 302 526
f 239 526 240
f 240 526 527
f 240 527 17
f 17 527 304
f 17 304 3
f 3 304 290
f 3 290 1
f 1 290 289
f 1 289 238
f 238 289 525
f 238 525 5
f 5 525 291
f 5 291 6
f 6 291 293
f 6 293 4
f 4 293 292
f 4 292 8
f 8 292 295
f 8 295 7
f 7 295 294
f 7 294 10
f 10 294 297
f 10 297 9
f 9 297 296
f 9 296 12
f 12 296 298
f 12 298 13
f 13 298 300
f 13 300 11
f 11 300 299
f 11 299 249
f 249 299 536
f 249 536 15
f 15 536 301
