o 
v 79.94 0 -60.39
v 80.54 0 -60.272
v 80.208 0 -60.299
v 79.551 0 -60.496
v 79.584 0 -60.516
v 79.57 0 -60.5
v 79.414 0 -60.545
v 79.497 0 -60.511
v 79.18 0 -60.661
v 79.306 0 -60.596
v 78.054 0 -61.288
v 78.47 0 -61.057
v 78.258 0 -61.175
v 77.531 0 -61.572
v 77.87 0 -61.39
v 77.699 0 -61.479
v 77.239 0 -61.748
v 77.375 0 -61.664
v 77.06 0 -61.87
v 77.131 0 -61.818
v 76.826 0 -61.9
v 76.86 0 -61.93
v 76.851 0 -61.905
v 76.737 0 -61.94
v 76.787 0 -61.912
v 76.61 0 -62.03
v 76.677 0 -61.98
v 75.896 0 -62.396
v 76.105 0 -62.324
v 76 0 -62.36
v 75.679 0 -62.496
v 75.787 0 -62.443
v 75.485 0 -62.613
v 75.576 0 -62.554
v 74.423 0 -62.427
v 74.7 0 -62.59
v 74.562 0 -62.506
v 74.17 0 -62.293
v 74.29 0 -62.355
v 74 0 -62.21
v 74.071 0 -62.244
v 71.905 0 -61.201
v 72.733 0 -61.605
v 72.34 0 -61.41
v 71.046 0 -60.836
v 71.47 0 -61.008
v 70.284 0 -60.582
v 70.647 0 -60.692
v 69.602 0 -60.444
v 69.97 0 -60.51
v 69.091 0 -60.401
v 69.319 0 -60.407
v 68.691 0 -60.495
v 68.891 0 -60.43
v 67.881 0 -60.971
v 68.46 0 -60.6
v 67.084 0 -62.07
v 67.419 0 -61.468
v 66.83 0 -63.503
v 66.884 0 -62.756
v 66.952 0 -64.401
v 66.93 0 -64.29
v 67.091 0 -65.194
v 67.052 0 -64.943
v 67.07 0 -65.07
v 67.14 0 -65.476
v 67.115 0 -65.333
v 67.189 0 -65.748
v 67.165 0 -65.617
v 67.296 0 -66.259
v 67.21 0 -65.86
v 65.035 0 -71.016
v 66.374 0 -69.622
v 65.84 0 -70.17
v 64.014 0 -72.266
v 64.437 0 -71.698
v 63.563 0 -73.267
v 63.733 0 -72.772
v 63.449 0 -74.209
v 63.47 0 -73.8
v 63.603 0 -74.912
v 63.491 0 -74.575
v 64.056 0 -75.556
v 63.789 0 -75.235
v 64.648 0 -76.078
v 64.41 0 -75.89
v 65.144 0 -76.333
v 64.88 0 -76.221
v 65.929 0 -76.514
v 65.48 0 -76.426
v 66.951 0 -76.673
v 66.53 0 -76.61
v 67.739 0 -76.78
v 67.36 0 -76.73
v 68.323 0 -76.847
v 68.066 0 -76.82
v 68.634 0 -76.869
v 68.49 0 -76.86
v 70.75 0 -77.601
v 70.71 0 -77.43
v 70.72 0 -77.506
v 70.854 0 -77.819
v 70.795 0 -77.708
v 71 0 -78.03
v 70.923 0 -77.929
v 71.192 0 -78.486
v 71.209 0 -78.432
v 71.2 0 -78.46
v 71.22 0 -78.566
v 71.199 0 -78.523
v 71.301 0 -78.663
v 71.254 0 -78.614
v 71.581 0 -79.121
v 71.562 0 -79.01
v 71.57 0 -79.06
v 71.662 0 -79.321
v 71.613 0 -79.211
v 71.804 0 -79.578
v 71.727 0 -79.446
v 71.976 0 -79.84
v 71.89 0 -79.71
v 72.275 0 -80.456
v 72.21 0 -80.29
v 72.227 0 -80.343
v 72.449 0 -80.82
v 72.35 0 -80.619
v 72.7 0 -81.3
v 72.566 0 -81.051
v 73.269 0 -82.153
v 72.971 0 -81.776
v 74.015 0 -82.67
v 73.61 0 -82.446
v 75.09 0 -82.97
v 74.502 0 -82.84
v 75.595 0 -83.029
v 75.366 0 -83.01
v 75.978 0 -82.991
v 75.794 0 -83.024
v 76.37 0 -82.83
v 76.165 0 -82.927
v 77.049 0 -82.389
v 76.717 0 -82.634
v 77.601 0 -81.814
v 77.349 0 -82.11
v 77.9 0 -81.24
v 77.79 0 -81.519
v 78.182 0 -80.847
v 78.102 0 -80.87
v 78.14 0 -80.86
v 78.245 0 -80.756
v 78.217 0 -80.811
v 78.282 0 -80.602
v 78.267 0 -80.685
v 78.295 0 -80.411
v 78.29 0 -80.51
v 78.485 0 -80.008
v 78.392 0 -80.103
v 78.43 0 -80.07
v 78.688 0 -79.669
v 78.573 0 -79.87
v 78.964 0 -79.126
v 78.82 0 -79.417
v 81.401 0 -76.887
v 80.96 0 -76.94
v 81.165 0 -76.916
v 82.761 0 -76.722
v 82.36 0 -76.77
v 82.562 0 -76.748
v 83.119 0 -76.665
v 82.95 0 -76.694
v 83.36 0 -76.61
v 83.258 0 -76.636
v 84.031 0 -76.495
v 83.622 0 -76.565
v 83.814 0 -76.533
v 84.5 0 -76.41
v 84.263 0 -76.454
v 84.965 0 -76.303
v 84.736 0 -76.36
v 85.361 0 -76.174
v 85.177 0 -76.24
v 85.6 0 -76.04
v 85.506 0 -76.106
v 85.875 0 -75.956
v 85.85 0 -75.914
v 85.86 0 -75.94
v 85.982 0 -75.89
v 85.917 0 -75.939
v 86.163 0 -75.717
v 86.066 0 -75.815
v 86.409 0 -75.43
v 86.27 0 -75.6
v 86.626 0 -75.039
v 86.527 0 -75.245
v 86.78 0 -74.538
v 86.71 0 -74.805
v 86.948 0 -73.518
v 86.84 0 -74.23
v 86.872 0 -72.501
v 86.967 0 -72.964
v 86.243 0 -71.568
v 86.639 0 -72.059
v 84.826 0 -69.929
v 84.86 0 -70.01
v 84.851 0 -69.969
v 84.731 0 -69.851
v 84.785 0 -69.889
v 84.59 0 -69.79
v 84.666 0 -69.818
v 83.249 0 -64.48
v 83.025 0 -65.835
v 83.14 0 -65.16
v 83.423 0 -63.287
v 83.345 0 -63.846
v 83.509 0 -62.502
v 83.479 0 -62.83
v 83.417 0 -62.039
v 83.51 0 -62.33
v 83.046 0 -61.438
v 83.258 0 -61.736
v 82.519 0 -60.923
v 82.795 0 -61.161
v 81.783 0 -60.544
v 82.23 0 -60.74
v 80.924 0 -60.306
v 81.343 0 -60.398
v 79.04 0 -60.74
v 77.007 0 -61.909
v 76.867 0 -61.949
v 75.41 0 -62.67
v 73.894 0 -62.161
v 70.692 0 -77.335
v 71.36 0 -78.71
v 72.195 0 -80.248
v 77.934 0 -81.138
v 79.11 0 -78.81
v 81.652 0 -76.855
v 82.147 0 -76.794
v 83.467 0 -76.591
v 85.66 0 -70.96
v 79.843 0 -60.436
v 79.621 0 -60.516
v 78.873 0 -60.834
v 78.679 0 -60.942
v 73.101 0 -61.784
v 66.809 0 -69.156
v 77.973 0 -81.046
v 81.906 0 -76.823
v 85.668 0 -75.983
v 85.824 0 -75.906
v 84.889 0 -70.076
v 82.922 0 -66.463
v 76.887 0 -61.957
v 76.216 0 -62.277
v 74.88 0 -62.691
v 73.429 0 -61.941
v 67.029 0 -64.806
v 71.066 0 -78.129
v 71.197 0 -78.38
v 71.54 0 -78.951
v 72.163 0 -80.175
v 78.06 0 -80.907
v 78.358 0 -80.157
v 85.73 0 -75.941
v 85.448 0 -70.735
v 79.755 0 -60.474
v 79.68 0 -60.501
v 76.919 0 -61.952
v 75.313 0 -62.74
v 73.699 0 -62.069
v 66.977 0 -64.528
v 67.004 0 -64.665
v 67.144 0 -68.771
v 68.826 0 -76.886
v 71.123 0 -78.224
v 71.168 0 -78.309
v 72.051 0 -79.965
v 78.016 0 -80.967
v 79.432 0 -78.158
v 85.783 0 -75.915
v 85.257 0 -70.527
v 84.97 0 -70.19
v 82.835 0 -67.014
v 76.53 0 -62.095
v 76.327 0 -62.221
v 67.379 0 -66.699
v 67.381 0 -68.468
v 69.052 0 -76.909
v 71.414 0 -78.764
v 72.114 0 -80.079
v 85.095 0 -70.342
v 82.768 0 -67.461
v 76.434 0 -62.16
v 67.523 0 -68.244
v 69.301 0 -76.938
v 78.309 0 -80.316
v 80.567 0 -77.013
v 84.313 0 -69.626
v 82.725 0 -67.776
v 76.959 0 -61.937
v 75.02 0 -62.755
v 71.463 0 -78.825
v 71.506 0 -78.889
v 83.927 0 -69.31
v 82.71 0 -67.93
v 75.13 0 -62.784
v 67.57 0 -68.1
v 80.247 0 -77.14
v 75.224 0 -62.778
v 67.555 0 -67.881
v 79.971 0 -77.354
v 82.825 0 -68.152
v 67.514 0 -67.548
v 70.632 0 -77.257
v 79.71 0 -77.683
v 83.113 0 -68.503
v 67.454 0 -67.141
v 70.522 0 -77.19
v 83.504 0 -68.912
v 69.558 0 -76.972
v 78.33 0 -80.23
v 69.81 0 -77.01
v 70.354 0 -77.13
v 70.12 0 -77.072
v 80.54 10 -60.272
v 79.94 10 -60.39
v 80.208 10 -60.299
v 79.584 10 -60.516
v 79.551 10 -60.496
v 79.57 10 -60.5
v 79.414 10 -60.545
v 79.497 10 -60.511
v 79.18 10 -60.661
v 79.306 10 -60.596
v 78.47 10 -61.057
v 78.054 10 -61.288
v 78.258 10 -61.175
v 77.87 10 -61.39
v 77.531 10 -61.572
v 77.699 10 -61.479
v 77.239 10 -61.748
v 77.375 10 -61.664
v 77.06 10 -61.87
v 77.131 10 -61.818
v 76.86 10 -61.93
v 76.826 10 -61.9
v 76.851 10 -61.905
v 76.737 10 -61.94
v 76.787 10 -61.912
v 76.61 10 -62.03
v 76.677 10 -61.98
v 76.105 10 -62.324
v 75.896 10 -62.396
v 76 10 -62.36
v 75.679 10 -62.496
v 75.787 10 -62.443
v 75.485 10 -62.613
v 75.576 10 -62.554
v 74.7 10 -62.59
v 74.423 10 -62.427
v 74.562 10 -62.506
v 74.17 10 -62.293
v 74.29 10 -62.355
v 74 10 -62.21
v 74.071 10 -62.244
v 72.733 10 -61.605
v 71.905 10 -61.201
v 72.34 10 -61.41
v 71.046 10 -60.836
v 71.47 10 -61.008
v 70.284 10 -60.582
v 70.647 10 -60.692
v 69.602 10 -60.444
v 69.97 10 -60.51
v 69.091 10 -60.401
v 69.319 10 -60.407
v 68.691 10 -60.495
v 68.891 10 -60.43
v 67.881 10 -60.971
v 68.46 10 -60.6
v 67.084 10 -62.07
v 67.419 10 -61.468
v 66.83 10 -63.503
v 66.884 10 -62.756
v 66.952 10 -64.401
v 66.93 10 -64.29
v 67.052 10 -64.943
v 67.091 10 -65.194
v 67.07 10 -65.07
v 67.14 10 -65.476
v 67.115 10 -65.333
v 67.189 10 -65.748
v 67.165 10 -65.617
v 67.296 10 -66.259
v 67.21 10 -65.86
v 66.374 10 -69.622
v 65.035 10 -71.016
v 65.84 10 -70.17
v 64.014 10 -72.266
v 64.437 10 -71.698
v 63.563 10 -73.267
v 63.733 10 -72.772
v 63.449 10 -74.209
v 63.47 10 -73.8
v 63.603 10 -74.912
v 63.491 10 -74.575
v 64.056 10 -75.556
v 63.789 10 -75.235
v 64.648 10 -76.078
v 64.41 10 -75.89
v 65.144 10 -76.333
v 64.88 10 -76.221
v 65.929 10 -76.514
v 65.48 10 -76.426
v 66.951 10 -76.673
v 66.53 10 -76.61
v 67.739 10 -76.78
v 67.36 10 -76.73
v 68.323 10 -76.847
v 68.066 10 -76.82
v 68.634 10 -76.869
v 68.49 10 -76.86
v 70.71 10 -77.43
v 70.75 10 -77.601
v 70.72 10 -77.506
v 70.854 10 -77.819
v 70.795 10 -77.708
v 71 10 -78.03
v 70.923 10 -77.929
v 71.209 10 -78.432
v 71.192 10 -78.486
v 71.2 10 -78.46
v 71.22 10 -78.566
v 71.199 10 -78.523
v 71.301 10 -78.663
v 71.254 10 -78.614
v 71.562 10 -79.01
v 71.581 10 -79.121
v 71.57 10 -79.06
v 71.662 10 -79.321
v 71.613 10 -79.211
v 71.804 10 -79.578
v 71.727 10 -79.446
v 71.976 10 -79.84
v 71.89 10 -79.71
v 72.21 10 -80.29
v 72.275 10 -80.456
v 72.227 10 -80.343
v 72.449 10 -80.82
v 72.35 10 -80.619
v 72.7 10 -81.3
v 72.566 10 -81.051
v 73.269 10 -82.153
v 72.971 10 -81.776
v 74.015 10 -82.67
v 73.61 10 -82.446
v 75.09 10 -82.97
v 74.502 10 -82.84
v 75.595 10 -83.029
v 75.366 10 -83.01
v 75.978 10 -82.991
v 75.794 10 -83.024
v 76.37 10 -82.83
v 76.165 10 -82.927
v 77.049 10 -82.389
v 76.717 10 -82.634
v 77.601 10 -81.814
v 77.349 10 -82.11
v 77.9 10 -81.24
v 77.79 10 -81.519
v 78.102 10 -80.87
v 78.182 10 -80.847
v 78.14 10 -80.86
v 78.245 10 -80.756
v 78.217 10 -80.811
v 78.282 10 -80.602
v 78.267 10 -80.685
v 78.295 10 -80.411
v 78.29 10 -80.51
v 78.392 10 -80.103
v 78.485 10 -80.008
v 78.43 10 -80.07
v 78.688 10 -79.669
v 78.573 10 -79.87
v 78.964 10 -79.126
v 78.82 10 -79.417
v 80.96 10 -76.94
v 81.401 10 -76.887
v 81.165 10 -76.916
v 82.36 10 -76.77
v 82.761 10 -76.722
v 82.562 10 -76.748
v 83.119 10 -76.665
v 82.95 10 -76.694
v 83.36 10 -76.61
v 83.258 10 -76.636
v 83.622 10 -76.565
v 84.031 10 -76.495
v 83.814 10 -76.533
v 84.5 10 -76.41
v 84.263 10 -76.454
v 84.965 10 -76.303
v 84.736 10 -76.36
v 85.361 10 -76.174
v 85.177 10 -76.24
v 85.6 10 -76.04
v 85.506 10 -76.106
v 85.85 10 -75.914
v 85.875 10 -75.956
v 85.86 10 -75.94
v 85.982 10 -75.89
v 85.917 10 -75.939
v 86.163 10 -75.717
v 86.066 10 -75.815
v 86.409 10 -75.43
v 86.27 10 -75.6
v 86.626 10 -75.039
v 86.527 10 -75.245
v 86.78 10 -74.538
v 86.71 10 -74.805
v 86.948 10 -73.518
v 86.84 10 -74.23
v 86.872 10 -72.501
v 86.967 10 -72.964
v 86.243 10 -71.568
v 86.639 10 -72.059
v 84.86 10 -70.01
v 84.826 10 -69.929
v 84.851 10 -69.969
v 84.731 10 -69.851
v 84.785 10 -69.889
v 84.59 10 -69.79
v 84.666 10 -69.818
v 83.025 10 -65.835
v 83.249 10 -64.48
v 83.14 10 -65.16
v 83.423 10 -63.287
v 83.345 10 -63.846
v 83.509 10 -62.502
v 83.479 10 -62.83
v 83.417 10 -62.039
v 83.51 10 -62.33
v 83.046 10 -61.438
v 83.258 10 -61.736
v 82.519 10 -60.923
v 82.795 10 -61.161
v 81.783 10 -60.544
v 82.23 10 -60.74
v 80.924 10 -60.306
v 81.343 10 -60.398
v 79.04 10 -60.74
v 77.007 10 -61.909
v 76.867 10 -61.949
v 75.41 10 -62.67
v 73.894 10 -62.161
v 70.692 10 -77.335
v 71.36 10 -78.71
v 72.195 10 -80.248
v 77.934 10 -81.138
v 79.11 10 -78.81
v 81.652 10 -76.855
v 82.147 10 -76.794
v 83.467 10 -76.591
v 85.66 10 -70.96
v 79.843 10 -60.436
v 79.621 10 -60.516
v 78.873 10 -60.834
v 78.679 10 -60.942
v 73.101 10 -61.784
v 66.809 10 -69.156
v 77.973 10 -81.046
v 81.906 10 -76.823
v 85.668 10 -75.983
v 85.824 10 -75.906
v 84.889 10 -70.076
v 82.922 10 -66.463
v 76.887 10 -61.957
v 76.216 10 -62.277
v 74.88 10 -62.691
v 73.429 10 -61.941
v 67.029 10 -64.806
v 71.066 10 -78.129
v 71.197 10 -78.38
v 71.54 10 -78.951
v 72.163 10 -80.175
v 78.06 10 -80.907
v 78.358 10 -80.157
v 85.73 10 -75.941
v 85.448 10 -70.735
v 79.755 10 -60.474
v 79.68 10 -60.501
v 76.919 10 -61.952
v 75.313 10 -62.74
v 73.699 10 -62.069
v 66.977 10 -64.528
v 67.004 10 -64.665
v 67.144 10 -68.771
v 68.826 10 -76.886
v 71.123 10 -78.224
v 71.168 10 -78.309
v 72.051 10 -79.965
v 78.016 10 -80.967
v 79.432 10 -78.158
v 85.783 10 -75.915
v 85.257 10 -70.527
v 84.97 10 -70.19
v 82.835 10 -67.014
v 76.53 10 -62.095
v 76.327 10 -62.221
v 67.379 10 -66.699
v 67.381 10 -68.468
v 69.052 10 -76.909
v 71.414 10 -78.764
v 72.114 10 -80.079
v 85.095 10 -70.342
v 82.768 10 -67.461
v 76.434 10 -62.16
v 67.523 10 -68.244
v 69.301 10 -76.938
v 78.309 10 -80.316
v 80.567 10 -77.013
v 84.313 10 -69.626
v 82.725 10 -67.776
v 76.959 10 -61.937
v 75.02 10 -62.755
v 71.463 10 -78.825
v 71.506 10 -78.889
v 83.927 10 -69.31
v 82.71 10 -67.93
v 75.13 10 -62.784
v 67.57 10 -68.1
v 80.247 10 -77.14
v 75.224 10 -62.778
v 67.555 10 -67.881
v 79.971 10 -77.354
v 82.825 10 -68.152
v 67.514 10 -67.548
v 70.632 10 -77.257
v 79.71 10 -77.683
v 83.113 10 -68.503
v 67.454 10 -67.141
v 70.522 10 -77.19
v 83.504 10 -68.912
v 69.558 10 -76.972
v 78.33 10 -80.23
v 69.81 10 -77.01
v 70.354 10 -77.13
v 70.12 10 -77.072
f 1 2 3
f 4 5 6
f 7 4 8
f 9 7 10
f 11 12 13
f 14 15 16
f 17 14 18
f 19 17 20
f 21 22 23
f 24 21 25
f 26 24 27
f 28 29 30
f 31 28 32
f 33 31 34
f 35 36 37
f 38 35 39
f 40 38 41
f 42 43 44
f 45 42 46
f 47 45 48
f 49 47 50
f 51 49 52
f 53 51 54
f 55 53 56
f 57 55 58
f 59 57 60
f 61 59 62
f 63 64 65
f 66 63 67
f 68 66 69
f 70 68 71
f 72 73 74
f 75 72 76
f 77 75 78
f 79 77 80
f 81 79 82
f 83 81 84
f 85 83 86
f 87 85 88
f 89 87 90
f 91 89 92
f 93 91 94
f 95 93 96
f 97 95 98
f 99 100 101
f 102 99 103
f 104 102 105
f 106 107 108
f 109 106 110
f 111 109 112
f 113 114 115
f 116 113 117
f 118 116 119
f 120 118 121
f 122 123 124
f 125 122 126
f 127 125 128
f 129 127 130
f 131 129 132
f 133 131 134
f 135 133 136
f 137 135 138
f 139 137 140
f 141 139 142
f 143 141 144
f 145 143 146
f 147 148 149
f 150 147 151
f 152 150 153
f 154 152 155
f 156 157 158
f 159 156 160
f 161 159 162
f 163 164 165
f 166 167 168
f 169 166 170
f 171 169 172
f 173 174 175
f 176 173 177
f 178 176 179
f 180 178 181
f 182 180 183
f 184 185 186
f 187 184 188
f 189 187 190
f 191 189 192
f 193 191 194
f 195 193 196
f 197 195 198
f 199 197 200
f 201 199 202
f 203 204 205
f 206 203 207
f 208 206 209
f 210 211 212
f 213 210 214
f 215 213 216
f 217 215 218
f 219 217 220
f 221 219 222
f 223 221 224
f 225 223 226
f 1 225 2
f 7 5 4
f 227 7 9
f 15 12 11
f 17 15 14
f 228 17 19
f 21 229 22
f 26 21 24
f 31 29 28
f 230 31 33
f 38 36 35
f 231 38 40
f 45 43 42
f 49 45 47
f 53 49 51
f 57 53 55
f 61 57 59
f 66 64 63
f 70 66 68
f 75 73 72
f 79 75 77
f 83 79 81
f 87 83 85
f 91 87 89
f 95 91 93
f 99 232 100
f 104 99 102
f 109 107 106
f 233 109 111
f 116 114 113
f 120 116 118
f 122 234 123
f 127 122 125
f 131 127 129
f 135 131 133
f 139 135 137
f 143 139 141
f 235 143 145
f 150 148 147
f 154 150 152
f 159 157 156
f 236 159 161
f 237 164 163
f 166 238 167
f 171 166 169
f 173 239 174
f 178 173 176
f 182 178 180
f 187 185 184
f 191 187 189
f 195 191 193
f 199 195 197
f 240 199 201
f 206 204 203
f 213 211 210
f 217 213 215
f 221 217 219
f 225 221 223
f 241 225 1
f 7 242 5
f 243 7 227
f 15 244 12
f 228 15 17
f 26 229 21
f 230 29 31
f 231 36 38
f 45 245 43
f 53 45 49
f 61 53 57
f 70 64 66
f 75 246 73
f 83 75 79
f 91 83 87
f 97 91 95
f 104 232 99
f 233 107 109
f 120 114 116
f 127 234 122
f 135 127 131
f 143 135 139
f 247 143 235
f 154 148 150
f 236 157 159
f 248 164 237
f 171 238 166
f 178 239 173
f 249 178 182
f 187 250 185
f 195 187 191
f 240 195 199
f 206 251 204
f 213 252 211
f 221 213 217
f 241 221 225
f 243 242 7
f 228 244 15
f 26 253 229
f 230 254 29
f 231 255 36
f 45 256 245
f 61 45 53
f 70 257 64
f 83 246 75
f 97 83 91
f 258 232 104
f 233 259 107
f 120 260 114
f 127 261 234
f 143 127 135
f 154 262 148
f 236 263 157
f 171 248 238
f 178 171 239
f 264 178 249
f 195 250 187
f 265 195 240
f 208 251 206
f 221 252 213
f 266 221 241
f 243 267 242
f 228 243 244
f 26 268 253
f 269 254 230
f 270 255 231
f 45 270 256
f 271 45 61
f 70 272 257
f 83 273 246
f 274 83 97
f 275 232 258
f 233 276 259
f 277 260 120
f 143 261 127
f 154 278 262
f 279 263 236
f 171 164 248
f 264 171 178
f 195 280 250
f 281 195 265
f 208 282 251
f 221 283 252
f 267 221 266
f 228 267 243
f 284 268 26
f 269 285 254
f 45 255 270
f 272 45 271
f 286 272 70
f 83 287 273
f 288 83 274
f 276 232 275
f 289 276 233
f 290 260 277
f 143 290 261
f 154 247 278
f 264 164 171
f 195 264 280
f 291 195 281
f 208 291 282
f 221 292 283
f 228 221 267
f 293 268 284
f 272 255 45
f 83 294 287
f 295 83 288
f 289 232 276
f 143 260 290
f 296 247 154
f 264 297 164
f 291 264 195
f 298 291 208
f 221 299 292
f 300 221 228
f 293 300 268
f 272 301 255
f 295 294 83
f 302 232 289
f 143 303 260
f 296 143 247
f 291 297 264
f 304 291 298
f 221 305 299
f 293 221 300
f 272 306 301
f 295 307 294
f 303 232 302
f 296 303 143
f 291 308 297
f 293 305 221
f 272 309 306
f 295 310 307
f 296 232 303
f 291 311 308
f 293 312 305
f 286 309 272
f 295 313 310
f 296 314 232
f 291 315 311
f 293 316 312
f 286 269 309
f 295 317 313
f 296 318 314
f 304 315 291
f 293 319 316
f 317 269 286
f 320 317 295
f 321 318 296
f 304 279 315
f 285 319 293
f 317 285 269
f 322 317 320
f 263 318 321
f 304 263 279
f 285 304 319
f 322 285 317
f 304 318 263
f 322 304 285
f 304 323 318
f 324 304 322
f 304 324 323
f 325 326 327
f 328 329 330
f 329 331 332
f 331 333 334
f 335 336 337
f 338 339 340
f 339 341 342
f 341 343 344
f 345 346 347
f 346 348 349
f 348 350 351
f 352 353 354
f 353 355 356
f 355 357 358
f 359 360 361
f 360 362 363
f 362 364 365
f 366 367 368
f 367 369 370
f 369 371 372
f 371 373 374
f 373 375 376
f 375 377 378
f 377 379 380
f 379 381 382
f 381 383 384
f 383 385 386
f 387 388 389
f 388 390 391
f 390 392 393
f 392 394 395
f 396 397 398
f 397 399 400
f 399 401 402
f 401 403 404
f 403 405 406
f 405 407 408
f 407 409 410
f 409 411 412
f 411 413 414
f 413 415 416
f 415 417 418
f 417 419 420
f 419 421 422
f 423 424 425
f 424 426 427
f 426 428 429
f 430 431 432
f 431 433 434
f 433 435 436
f 437 438 439
f 438 440 441
f 440 442 443
f 442 444 445
f 446 447 448
f 447 449 450
f 449 451 452
f 451 453 454
f 453 455 456
f 455 457 458
f 457 459 460
f 459 461 462
f 461 463 464
f 463 465 466
f 465 467 468
f 467 469 470
f 471 472 473
f 472 474 475
f 474 476 477
f 476 478 479
f 480 481 482
f 481 483 484
f 483 485 486
f 487 488 489
f 490 491 492
f 491 493 494
f 493 495 496
f 497 498 499
f 498 500 501
f 500 502 503
f 502 504 505
f 504 506 507
f 508 509 510
f 509 511 512
f 511 513 514
f 513 515 516
f 515 517 518
f 517 519 520
f 519 521 522
f 521 523 524
f 523 525 526
f 527 528 529
f 528 530 531
f 530 532 533
f 534 535 536
f 535 537 538
f 537 539 540
f 539 541 542
f 541 543 544
f 543 545 546
f 545 547 548
f 547 549 550
f 549 326 325
f 328 331 329
f 331 551 333
f 335 338 336
f 338 341 339
f 341 552 343
f 553 346 345
f 346 350 348
f 352 355 353
f 355 554 357
f 359 362 360
f 362 555 364
f 366 369 367
f 369 373 371
f 373 377 375
f 377 381 379
f 381 385 383
f 387 390 388
f 390 394 392
f 396 399 397
f 399 403 401
f 403 407 405
f 407 411 409
f 411 415 413
f 415 419 417
f 556 424 423
f 424 428 426
f 430 433 431
f 433 557 435
f 437 440 438
f 440 444 442
f 558 447 446
f 447 451 449
f 451 455 453
f 455 459 457
f 459 463 461
f 463 467 465
f 467 559 469
f 471 474 472
f 474 478 476
f 480 483 481
f 483 560 485
f 487 561 488
f 562 491 490
f 491 495 493
f 563 498 497
f 498 502 500
f 502 506 504
f 508 511 509
f 511 515 513
f 515 519 517
f 519 523 521
f 523 564 525
f 527 530 528
f 534 537 535
f 537 541 539
f 541 545 543
f 545 549 547
f 549 565 326
f 566 331 328
f 331 567 551
f 568 338 335
f 338 552 341
f 553 350 346
f 352 554 355
f 359 555 362
f 569 369 366
f 369 377 373
f 377 385 381
f 387 394 390
f 570 399 396
f 399 407 403
f 407 415 411
f 415 421 419
f 556 428 424
f 430 557 433
f 437 444 440
f 558 451 447
f 451 459 455
f 459 467 463
f 467 571 559
f 471 478 474
f 480 560 483
f 487 572 561
f 562 495 491
f 563 502 498
f 502 573 506
f 574 511 508
f 511 519 515
f 519 564 523
f 575 530 527
f 576 537 534
f 537 545 541
f 545 565 549
f 566 567 331
f 568 552 338
f 577 350 553
f 578 554 352
f 579 555 359
f 580 369 569
f 369 385 377
f 581 394 387
f 570 407 399
f 407 421 415
f 556 582 428
f 583 557 430
f 584 444 437
f 585 451 558
f 451 467 459
f 586 478 471
f 587 560 480
f 572 495 562
f 495 502 563
f 502 588 573
f 574 519 511
f 519 589 564
f 575 532 530
f 576 545 537
f 545 590 565
f 591 567 566
f 567 552 568
f 592 350 577
f 578 593 554
f 579 594 555
f 594 369 580
f 369 595 385
f 596 394 581
f 597 407 570
f 407 598 421
f 556 599 582
f 600 557 583
f 584 601 444
f 585 467 451
f 602 478 586
f 587 603 560
f 487 495 572
f 495 588 502
f 604 519 574
f 519 605 589
f 606 532 575
f 607 545 576
f 545 591 590
f 591 552 567
f 592 608 350
f 609 593 578
f 579 369 594
f 369 596 595
f 596 610 394
f 611 407 597
f 407 612 598
f 556 600 599
f 600 613 557
f 584 614 601
f 614 467 585
f 571 478 602
f 487 588 495
f 588 519 604
f 519 615 605
f 615 532 606
f 616 545 607
f 545 552 591
f 592 617 608
f 579 596 369
f 618 407 611
f 407 619 612
f 556 613 600
f 584 467 614
f 571 620 478
f 621 588 487
f 588 615 519
f 615 622 532
f 623 545 616
f 545 624 552
f 624 617 592
f 625 596 579
f 618 619 407
f 556 626 613
f 627 467 584
f 467 620 571
f 621 615 588
f 615 628 622
f 629 545 623
f 545 617 624
f 630 596 625
f 631 619 618
f 556 627 626
f 627 620 467
f 632 615 621
f 629 617 545
f 633 596 630
f 634 619 631
f 556 620 627
f 635 615 632
f 636 617 629
f 633 610 596
f 637 619 634
f 638 620 556
f 639 615 635
f 640 617 636
f 593 610 633
f 641 619 637
f 642 620 638
f 639 628 615
f 643 617 640
f 593 641 610
f 641 644 619
f 642 645 620
f 603 628 639
f 643 609 617
f 609 641 593
f 641 646 644
f 642 587 645
f 587 628 603
f 628 609 643
f 609 646 641
f 642 628 587
f 628 646 609
f 647 628 642
f 628 648 646
f 648 628 647
f 1 326 241
f 241 326 565
f 241 565 266
f 266 565 590
f 266 590 267
f 267 590 591
f 267 591 242
f 242 591 566
f 242 566 5
f 5 566 328
f 5 328 6
f 6 328 330
f 6 330 4
f 4 330 329
f 4 329 8
f 8 329 332
f 8 332 7
f 7 332 331
f 7 331 10
f 10 331 334
f 10 334 9
f 9 334 333
f 9 333 227
f 227 333 551
f 227 551 243
f 243 551 567
f 243 567 244
f 244 567 568
f 244 568 12
f 12 568 335
f 12 335 13
f 13 335 337
f 13 337 11
f 11 337 336
f 11 336 15
f 15 336 338
f 15 338 16
f 16 338 340
f 16 340 14
f 14 340 339
f 14 339 18
f 18 339 342
f 18 342 17
f 17 342 341
f 17 341 20
f 20 341 344
f 20 344 19
f 19 344 343
f 19 343 228
f 228 343 552
f 228 552 300
f 300 552 624
f 300 624 268
f 268 624 592
f 268 592 253
f 253 592 577
f 253 577 229
f 229 577 553
f 229 553 22
f 22 553 345
f 22 345 23
f 23 345 347
f 23 347 21
f 21 347 346
f 21 346 25
f 25 346 349
f 25 349 24
f 24 349 348
f 24 348 27
f 27 348 351
f 27 351 26
f 26 351 350
f 26 350 284
f 284 350 608
f 284 608 293
f 293 608 617
f 293 617 285
f 285 617 609
f 285 609 254
f 254 609 578
f 254 578 29
f 29 578 352
f 29 352 30
f 30 352 354
f 30 354 28
f 28 354 353
f 28 353 32
f 32 353 356
f 32 356 31
f 31 356 355
f 31 355 34
f 34 355 358
f 34 358 33
f 33 358 357
f 33 357 230
f 230 357 554
f 230 554 269
f 269 554 593
f 269 593 309
f 309 593 633
f 309 633 306
f 306 633 630
f 306 630 301
f 301 630 625
f 301 625 255
f 255 625 579
f 255 579 36
f 36 579 359
f 36 359 37
f 37 359 361
f 37 361 35
f 35 361 360
f 35 360 39
f 39 360 363
f 39 363 38
f 38 363 362
f 38 362 41
f 41 362 365
f 41 365 40
f 40 365 364
f 40 364 231
f 231 364 555
f 231 555 270
f 270 555 594
f 270 594 256
f 256 594 580
f 256 580 245
f 245 580 569
f 245 569 43
f 43 569 366
f 43 366 44
f 44 366 368
f 44 368 42
f 42 368 367
f 42 367 46
f 46 367 370
f 46 370 45
f 45 370 369
f 45 369 48
f 48 369 372
f 48 372 47
f 47 372 371
f 47 371 50
f 50 371 374
f 50 374 49
f 49 374 373
f 49 373 52
f 52 373 376
f 52 376 51
f 51 376 375
f 51 375 54
f 54 375 378
f 54 378 53
f 53 378 377
f 53 377 56
f 56 377 380
f 56 380 55
f 55 380 379
f 55 379 58
f 58 379 382
f 58 382 57
f 57 382 381
f 57 381 60
f 60 381 384
f 60 384 59
f 59 384 383
f 59 383 62
f 62 383 386
f 62 386 61
f 61 386 385
f 61 385 271
f 271 385 595
f 271 595 272
f 272 595 596
f 272 596 257
f 257 596 581
f 257 581 64
f 64 581 387
f 64 387 65
f 65 387 389
f 65 389 63
f 63 389 388
f 63 388 67
f 67 388 391
f 67 391 66
f 66 391 390
f 66 390 69
f 69 390 393
f 69 393 68
f 68 393 392
f 68 392 71
f 71 392 395
f 71 395 70
f 70 395 394
f 70 394 286
f 286 394 610
f 286 610 317
f 317 610 641
f 317 641 313
f 313 641 637
f 313 637 310
f 310 637 634
f 310 634 307
f 307 634 631
f 307 631 294
f 294 631 618
f 294 618 287
f 287 618 611
f 287 611 273
f 273 611 597
f 273 597 246
f 246 597 570
f 246 570 73
f 73 570 396
f 73 396 74
f 74 396 398
f 74 398 72
f 72 398 397
f 72 397 76
f 76 397 400
f 76 400 75
f 75 400 399
f 75 399 78
f 78 399 402
f 78 402 77
f 77 402 401
f 77 401 80
f 80 401 404
f 80 404 79
f 79 404 403
f 79 403 82
f 82 403 406
f 82 406 81
f 81 406 405
f 81 405 84
f 84 405 408
f 84 408 83
f 83 408 407
f 83 407 86
f 86 407 410
f 86 410 85
f 85 410 409
f 85 409 88
f 88 409 412
f 88 412 87
f 87 412 411
f 87 411 90
f 90 411 414
f 90 414 89
f 89 414 413
f 89 413 92
f 92 413 416
f 92 416 91
f 91 416 415
f 91 415 94
f 94 415 418
f 94 418 93
f 93 418 417
f 93 417 96
f 96 417 420
f 96 420 95
f 95 420 419
f 95 419 98
f 98 419 422
f 98 422 97
f 97 422 421
f 97 421 274
f 274 421 598
f 274 598 288
f 288 598 612
f 288 612 295
f 295 612 619
f 295 619 320
f 320 619 644
f 320 644 322
f 322 644 646
f 322 646 324
f 324 646 648
f 324 648 323
f 323 648 647
f 323 647 318
f 318 647 642
f 318 642 314
f 314 642 638
f 314 638 232
f 232 638 556
f 232 556 100
f 100 556 423
f 100 423 101
f 101 423 425
f 101 425 99
f 99 425 424
f 99 424 103
f 103 424 427
f 103 427 102
f 102 427 426
f 102 426 105
f 105 426 429
f 105 429 104
f 104 429 428
f 104 428 258
f 258 428 582
f 258 582 275
f 275 582 599
f 275 599 276
f 276 599 600
f 276 600 259
f 259 600 583
f 259 583 107
f 107 583 430
f 107 430 108
f 108 430 432
f 108 432 106
f 106 432 431
f 106 431 110
f 110 431 434
f 110 434 109
f 109 434 433
f 109 433 112
f 112 433 436
f 112 436 111
f 111 436 435
f 111 435 233
f 233 435 557
f 233 557 289
f 289 557 613
f 289 613 302
f 302 613 626
f 302 626 303
f 303 626 627
f 303 627 260
f 260 627 584
f 260 584 114
f 114 584 437
f 114 437 115
f 115 437 439
f 115 439 113
f 113 439 438
f 113 438 117
f 117 438 441
f 117 441 116
f 116 441 440
f 116 440 119
f 119 440 443
f 119 443 118
f 118 443 442
f 118 442 121
f 121 442 445
f 121 445 120
f 120 445 444
f 120 444 277
f 277 444 601
f 277 601 290
f 290 601 614
f 290 614 261
f 261 614 585
f 261 585 234
f 234 585 558
f 234 558 123
f 123 558 446
f 123 446 124
f 124 446 448
f 124 448 122
f 122 448 447
f 122 447 126
f 126 447 450
f 126 450 125
f 125 450 449
f 125 449 128
f 128 449 452
f 128 452 127
f 127 452 451
f 127 451 130
f 130 451 454
f 130 454 129
f 129 454 453
f 129 453 132
f 132 453 456
f 132 456 131
f 131 456 455
f 131 455 134
f 134 455 458
f 134 458 133
f 133 458 457
f 133 457 136
f 136 457 460
f 136 460 135
f 135 460 459
f 135 459 138
f 138 459 462
f 138 462 137
f 137 462 461
f 137 461 140
f 140 461 464
f 140 464 139
f 139 464 463
f 139 463 142
f 142 463 466
f 142 466 141
f 141 466 465
f 141 465 144
f 144 465 468
f 144 468 143
f 143 468 467
f 143 467 146
f 146 467 470
f 146 470 145
f 145 470 469
f 145 469 235
f 235 469 559
f 235 559 247
f 247 559 571
f 247 571 278
f 278 571 602
f 278 602 262
f 262 602 586
f 262 586 148
f 148 586 471
f 148 471 149
f 149 471 473
f 149 473 147
f 147 473 472
f 147 472 151
f 151 472 475
f 151 475 150
f 150 475 474
f 150 474 153
f 153 474 477
f 153 477 152
f 152 477 476
f 152 476 155
f 155 476 479
f 155 479 154
f 154 479 478
f 154 478 296
f 296 478 620
f 296 620 321
f 321 620 645
f 321 645 263
f 263 645 587
f 263 587 157
f 157 587 480
f 157 480 158
f 158 480 482
f 158 482 156
f 156 482 481
f 156 481 160
f 160 481 484
f 160 484 159
f 159 484 483
f 159 483 162
f 162 483 486
f 162 486 161
f 161 486 485
f 161 485 236
f 236 485 560
f 236 560 279
f 279 560 603
f 279 603 315
f 315 603 639
f 315 639 311
f 311 639 635
f 311 635 308
f 308 635 632
f 308 632 297
f 297 632 621
f 297 621 164
f 164 621 487
f 164 487 165
f 165 487 489
f 165 489 163
f 163 489 488
f 163 488 237
f 237 488 561
f 237 561 248
f 248 561 572
f 248 572 238
f 238 572 562
f 238 562 167
f 167 562 490
f 167 490 168
f 168 490 492
f 168 492 166
f 166 492 491
f 166 491 170
f 170 491 494
f 170 494 169
f 169 494 493
f 169 493 172
f 172 493 496
f 172 496 171
f 171 496 495
f 171 495 239
f 239 495 563
f 239 563 174
f 174 563 497
f 174 497 175
f 175 497 499
f 175 499 173
f 173 499 498
f 173 498 177
f 177 498 501
f 177 501 176
f 176 501 500
f 176 500 179
f 179 500 503
f 179 503 178
f 178 503 502
f 178 502 181
f 181 502 505
f 181 505 180
f 180 505 504
f 180 504 183
f 183 504 507
f 183 507 182
f 182 507 506
f 182 506 249
f 249 506 573
f 249 573 264
f 264 573 588
f 264 588 280
f 280 588 604
f 280 604 250
f 250 604 574
f 250 574 185
f 185 574 508
f 185 508 186
f 186 508 510
f 186 510 184
f 184 510 509
f 184 509 188
f 188 509 512
f 188 512 187
f 187 512 511
f 187 511 190
f 190 511 514
f 190 514 189
f 189 514 513
f 189 513 192
f 192 513 516
f 192 516 191
f 191 516 515
f 191 515 194
f 194 515 518
f 194 518 193
f 193 518 517
f 193 517 196
f 196 517 520
f 196 520 195
f 195 520 519
f 195 519 198
f 198 519 522
f 198 522 197
f 197 522 521
f 197 521 200
f 200 521 524
f 200 524 199
f 199 524 523
f 199 523 202
f 202 523 526
f 202 526 201
f 201 526 525
f 201 525 240
f 240 525 564
f 240 564 265
f 265 564 589
f 265 589 281
f 281 589 605
f 281 605 291
f 291 605 615
f 291 615 282
f 282 615 606
f 282 606 251
f 251 606 575
f 251 575 204
f 204 575 527
f 204 527 205
f 205 527 529
f 205 529 203
f 203 529 528
f 203 528 207
f 207 528 531
f 207 531 206
f 206 531 530
f 206 530 209
f 209 530 533
f 209 533 208
f 208 533 532
f 208 532 298
f 298 532 622
f 298 622 304
f 304 622 628
f 304 628 319
f 319 628 643
f 319 643 316
f 316 643 640
f 316 640 312
f 312 640 636
f 312 636 305
f 305 636 629
f 305 629 299
f 299 629 623
f 299 623 292
f 292 623 616
f 292 616 283
f 283 616 607
f 283 607 252
f 252 607 576
f 252 576 211
f 211 576 534
f 211 534 212
f 212 534 536
f 212 536 210
f 210 536 535
f 210 535 214
f 214 535 538
f 214 538 213
f 213 538 537
f 213 537 216
f 216 537 540
f 216 540 215
f 215 540 539
f 215 539 218
f 218 539 542
f 218 542 217
f 217 542 541
f 217 541 220
f 220 541 544
f 220 544 219
f 219 544 543
f 219 543 222
f 222 543 546
f 222 546 221
f 221 546 545
f 221 545 224
f 224 545 548
f 224 548 223
f 223 548 547
f 223 547 226
f 226 547 550
f 226 550 225
f 225 550 549
f 225 549 2
f 2 549 325
f 2 325 3
f 3 325 327
f 3 327 1
f 1 327 326
o 
v 65.649 0 -73.597
v 64.817 0 -73.744
v 65.57 0 -73.73
v 76.56 0 -64.57
v 72.49 0 -63.91
v 75.21 0 -65.3
v 80.664 0 -67.524
v 80.772 0 -66.851
v 80.71 0 -67.21
v 80.507 0 -68.534
v 80.574 0 -68.104
v 80.536 0 -68.344
v 80.494 0 -68.792
v 80.49 0 -68.66
v 80.749 0 -69.208
v 80.576 0 -68.969
v 81.427 0 -69.936
v 81.028 0 -69.524
v 82.387 0 -70.878
v 81.96 0 -70.46
v 83.223 0 -71.679
v 82.815 0 -71.291
v 83.891 0 -72.302
v 83.588 0 -72.022
v 78.03 0 -76.14
v 81.56 0 -74.7
v 78.5 0 -75.21
v 77.187 0 -77.862
v 77.68 0 -76.861
v 77.444 0 -77.34
v 76.67 0 -78.93
v 76.924 0 -78.401
v 72.681 0 -76.509
v 73.29 0 -77.71
v 72.976 0 -77.081
v 72.206 0 -75.631
v 72.42 0 -76.018
v 71.97 0 -75.27
v 72.051 0 -75.374
v 71.645 0 -75.186
v 71.863 0 -75.234
v 70.949 0 -75.067
v 71.334 0 -75.13
v 70.03 0 -74.93
v 70.508 0 -75
v 65.602 0 -73.981
v 64.745 0 -74.144
v 64.753 0 -73.975
v 64.926 0 -74.46
v 64.8 0 -74.291
v 65.357 0 -74.893
v 65.13 0 -74.69
v 66.036 0 -75.176
v 65.643 0 -75.051
v 67.345 0 -75.383
v 66.587 0 -75.283
v 68.764 0 -75.54
v 68.36 0 -75.49
v 68.524 0 -75.51
v 69.403 0 -75.62
v 69.063 0 -75.577
v 70.14 0 -75.71
v 69.768 0 -75.665
v 73.733 0 -80.289
v 72.34 0 -77.56
v 73.167 0 -79.199
v 74.397 0 -81.307
v 74.116 0 -80.951
v 74.97 0 -81.59
v 74.655 0 -81.48
v 75.324 0 -81.678
v 75.163 0 -81.647
v 75.606 0 -81.652
v 75.466 0 -81.68
v 75.94 0 -81.5
v 75.759 0 -81.593
v 76.406 0 -81.091
v 76.168 0 -81.335
v 76.821 0 -80.499
v 76.631 0 -80.801
v 77 0 -79.99
v 76.951 0 -80.218
v 77.456 0 -79.133
v 77.264 0 -79.445
v 77.36 0 -79.29
v 77.614 0 -78.829
v 77.542 0 -78.977
v 77.701 0 -78.588
v 77.668 0 -78.697
v 77.96 0 -78.097
v 77.851 0 -78.207
v 77.9 0 -78.16
v 78.099 0 -77.881
v 78.028 0 -78.002
v 78.234 0 -77.589
v 78.169 0 -77.741
v 78.342 0 -77.277
v 78.29 0 -77.43
v 78.597 0 -76.842
v 78.539 0 -76.88
v 78.57 0 -76.86
v 78.683 0 -76.711
v 78.636 0 -76.79
v 78.788 0 -76.491
v 78.734 0 -76.61
v 79.763 0 -75.813
v 79.4 0 -75.83
v 79.602 0 -75.824
v 80.064 0 -75.767
v 79.909 0 -75.795
v 80.5 0 -75.67
v 80.253 0 -75.726
v 82.88 0 -75.302
v 82.57 0 -75.34
v 82.717 0 -75.323
v 83.217 0 -75.255
v 83.05 0 -75.279
v 83.5 0 -75.21
v 83.37 0 -75.231
v 83.757 0 -75.166
v 83.626 0 -75.189
v 84.474 0 -75.042
v 84.122 0 -75.109
v 84.21 0 -75.1
v 85.011 0 -74.825
v 84.749 0 -74.946
v 85.406 0 -74.555
v 85.238 0 -74.69
v 85.512 0 -74.354
v 85.49 0 -74.43
v 85.561 0 -74.103
v 85.536 0 -74.242
v 85.614 0 -73.778
v 85.588 0 -73.945
v 85.672 0 -73.363
v 85.64 0 -73.61
v 85.586 0 -72.969
v 85.662 0 -73.163
v 85.144 0 -72.425
v 85.421 0 -72.737
v 83.684 0 -70.77
v 83.71 0 -70.83
v 83.703 0 -70.798
v 83.62 0 -70.73
v 83.655 0 -70.747
v 83.54 0 -70.71
v 83.58 0 -70.717
v 81.96 0 -62.26
v 81.74 0 -65.66
v 82.24 0 -62.64
v 81.591 0 -61.921
v 81.798 0 -62.084
v 81.106 0 -61.669
v 81.355 0 -61.78
v 80.63 0 -61.57
v 80.859 0 -61.596
v 80.407 0 -61.64
v 80.548 0 -61.588
v 79.993 0 -61.826
v 80.219 0 -61.721
v 79.47 0 -62.09
v 79.74 0 -61.951
v 77.533 0 -63.119
v 78.384 0 -62.669
v 77.955 0 -62.895
v 76.77 0 -63.529
v 77.14 0 -63.33
v 75.44 0 -64.23
v 75.801 0 -64.041
v 75.581 0 -64.156
v 73.471 0 -63.519
v 74.651 0 -64.153
v 74.37 0 -64
v 71.585 0 -62.577
v 72.516 0 -63.032
v 70.113 0 -61.923
v 70.757 0 -62.195
v 69.44 0 -61.785
v 69.73 0 -61.8
v 68.875 0 -61.947
v 69.15 0 -61.837
v 68.43 0 -62.316
v 68.63 0 -62.11
v 68.234 0 -62.755
v 68.29 0 -62.56
v 68.202 0 -63.292
v 68.205 0 -63
v 68.271 0 -64.01
v 68.225 0 -63.63
v 68.362 0 -64.544
v 68.34 0 -64.43
v 68.464 0 -65.146
v 68.411 0 -64.834
v 68.438 0 -64.991
v 68.516 0 -65.434
v 68.49 0 -65.29
v 68.594 0 -65.895
v 68.542 0 -65.588
v 68.569 0 -65.745
v 68.64 0 -66.14
v 68.618 0 -66.03
v 67.558 0 -70.404
v 68.19 0 -69.77
v 67.894 0 -70.067
v 65.865 0 -72.103
v 66.499 0 -71.465
v 66.19 0 -71.77
v 65.357 0 -72.695
v 65.588 0 -72.411
v 65.03 0 -73.194
v 65.172 0 -72.956
v 64.93 0 -73.41
v 65.871 0 -73.322
v 80.844 0 -66.421
v 80.617 0 -67.826
v 82.704 0 -74.505
v 73.916 0 -78.959
v 68.173 0 -74.67
v 65.757 0 -74.168
v 71.5 0 -75.91
v 77.71 0 -78.51
v 78.84 0 -76.36
v 82.221 0 -75.381
v 84.013 0 -75.124
v 81.26 0 -68.67
v 78.795 0 -62.451
v 68.386 0 -64.682
v 67.201 0 -70.762
v 66.842 0 -71.123
v 80.924 0 -65.946
v 83.539 0 -74.352
v 77.88 0 -76.452
v 77.013 0 -79.935
v 77.178 0 -79.594
v 77.717 0 -78.455
v 77.806 0 -78.264
v 78.396 0 -77.14
v 83.889 0 -75.144
v 83.75 0 -70.896
v 79.165 0 -62.255
v 81.006 0 -65.452
v 84.11 0 -72.5
v 84.118 0 -74.228
v 74.373 0 -79.83
v 66.923 0 -74.479
v 66.158 0 -74.323
v 78.497 0 -76.937
v 80.791 0 -75.612
v 84.73 0 -71.99
v 74.865 0 -64.255
v 84.461 0 -72.83
v 84.491 0 -74.118
v 77.049 0 -79.846
v 77.105 0 -79.73
v 77.768 0 -78.327
v 78.909 0 -76.187
v 81.123 0 -75.551
v 81.853 0 -75.432
v 84.461 0 -71.703
v 83.854 0 -71.026
v 68.667 0 -66.273
v 81.086 0 -64.965
v 77.737 0 -78.393
v 78.449 0 -77.025
v 81.482 0 -75.49
v 84.219 0 -71.44
v 84.014 0 -71.211
v 68.706 0 -66.473
v 69.14 0 -68.77
v 81.16 0 -64.51
v 78.981 0 -76.056
v 83.454 0 -70.673
v 68.755 0 -66.725
v 66.216 0 -72.931
v 81.234 0 -64.02
v 68.81 0 -67.013
v 66.662 0 -72.448
v 81.286 0 -63.609
v 74.705 0 -80.387
v 79.264 0 -75.853
v 83.303 0 -70.57
v 68.87 0 -67.323
v 67.187 0 -71.896
v 83.1 0 -70.41
v 68.93 0 -67.64
v 67.77 0 -71.3
v 74.957 0 -80.697
v 82.857 0 -70.203
v 69.99 0 -69.07
v 75.174 0 -80.823
v 82.586 0 -69.96
v 75.4 0 -80.83
v 82.3 0 -69.69
v 69.49 0 -66.36
v 75.547 0 -80.786
v 69.239 0 -64.916
v 75.691 0 -80.675
v 69.084 0 -63.915
v 69.024 0 -63.272
v 75.855 0 -80.465
v 69.056 0 -62.901
v 76.059 0 -80.125
v 76.323 0 -79.624
v 69.179 0 -62.716
v 69.39 0 -62.63
v 69.575 0 -62.616
v 69.845 0 -62.675
v 75.033 0 -64.31
v 79.06 0 -75.96
v 70.235 0 -62.82
v 79.153 0 -75.894
v 70.782 0 -63.065
v 71.521 0 -63.424
v 84.711 0 -74.01
v 75.171 0 -64.321
v 84.83 0 -73.89
v 75.301 0 -64.294
v 84.916 0 -73.706
v 84.93 0 -73.523
v 84.864 0 -73.326
v 76.084 0 -63.893
v 84.71 0 -73.1
v 76.413 0 -63.719
v 78.303 0 -63.61
v 79.53 0 -62.963
v 81.316 0 -63.274
v 80.34 0 -62.588
v 81.324 0 -63.011
v 80.833 0 -62.444
v 81.308 0 -62.817
v 81.11 0 -62.492
v 81.27 0 -62.69
v 64.817 10 -73.744
v 65.649 10 -73.597
v 65.57 10 -73.73
v 72.49 10 -63.91
v 76.56 10 -64.57
v 75.21 10 -65.3
v 80.772 10 -66.851
v 80.664 10 -67.524
v 80.71 10 -67.21
v 80.574 10 -68.104
v 80.507 10 -68.534
v 80.536 10 -68.344
v 80.494 10 -68.792
v 80.49 10 -68.66
v 80.749 10 -69.208
v 80.576 10 -68.969
v 81.427 10 -69.936
v 81.028 10 -69.524
v 82.387 10 -70.878
v 81.96 10 -70.46
v 83.223 10 -71.679
v 82.815 10 -71.291
v 83.891 10 -72.302
v 83.588 10 -72.022
v 81.56 10 -74.7
v 78.03 10 -76.14
v 78.5 10 -75.21
v 77.68 10 -76.861
v 77.187 10 -77.862
v 77.444 10 -77.34
v 76.67 10 -78.93
v 76.924 10 -78.401
v 73.29 10 -77.71
v 72.681 10 -76.509
v 72.976 10 -77.081
v 72.206 10 -75.631
v 72.42 10 -76.018
v 71.97 10 -75.27
v 72.051 10 -75.374
v 71.645 10 -75.186
v 71.863 10 -75.234
v 70.949 10 -75.067
v 71.334 10 -75.13
v 70.03 10 -74.93
v 70.508 10 -75
v 65.602 10 -73.981
v 64.745 10 -74.144
v 64.753 10 -73.975
v 64.926 10 -74.46
v 64.8 10 -74.291
v 65.357 10 -74.893
v 65.13 10 -74.69
v 66.036 10 -75.176
v 65.643 10 -75.051
v 67.345 10 -75.383
v 66.587 10 -75.283
v 68.36 10 -75.49
v 68.764 10 -75.54
v 68.524 10 -75.51
v 69.403 10 -75.62
v 69.063 10 -75.577
v 70.14 10 -75.71
v 69.768 10 -75.665
v 72.34 10 -77.56
v 73.733 10 -80.289
v 73.167 10 -79.199
v 74.397 10 -81.307
v 74.116 10 -80.951
v 74.97 10 -81.59
v 74.655 10 -81.48
v 75.324 10 -81.678
v 75.163 10 -81.647
v 75.606 10 -81.652
v 75.466 10 -81.68
v 75.94 10 -81.5
v 75.759 10 -81.593
v 76.406 10 -81.091
v 76.168 10 -81.335
v 76.821 10 -80.499
v 76.631 10 -80.801
v 77 10 -79.99
v 76.951 10 -80.218
v 77.264 10 -79.445
v 77.456 10 -79.133
v 77.36 10 -79.29
v 77.614 10 -78.829
v 77.542 10 -78.977
v 77.701 10 -78.588
v 77.668 10 -78.697
v 77.851 10 -78.207
v 77.96 10 -78.097
v 77.9 10 -78.16
v 78.099 10 -77.881
v 78.028 10 -78.002
v 78.234 10 -77.589
v 78.169 10 -77.741
v 78.342 10 -77.277
v 78.29 10 -77.43
v 78.539 10 -76.88
v 78.597 10 -76.842
v 78.57 10 -76.86
v 78.683 10 -76.711
v 78.636 10 -76.79
v 78.788 10 -76.491
v 78.734 10 -76.61
v 79.4 10 -75.83
v 79.763 10 -75.813
v 79.602 10 -75.824
v 80.064 10 -75.767
v 79.909 10 -75.795
v 80.5 10 -75.67
v 80.253 10 -75.726
v 82.57 10 -75.34
v 82.88 10 -75.302
v 82.717 10 -75.323
v 83.217 10 -75.255
v 83.05 10 -75.279
v 83.5 10 -75.21
v 83.37 10 -75.231
v 83.757 10 -75.166
v 83.626 10 -75.189
v 84.122 10 -75.109
v 84.474 10 -75.042
v 84.21 10 -75.1
v 85.011 10 -74.825
v 84.749 10 -74.946
v 85.406 10 -74.555
v 85.238 10 -74.69
v 85.512 10 -74.354
v 85.49 10 -74.43
v 85.561 10 -74.103
v 85.536 10 -74.242
v 85.614 10 -73.778
v 85.588 10 -73.945
v 85.672 10 -73.363
v 85.64 10 -73.61
v 85.586 10 -72.969
v 85.662 10 -73.163
v 85.144 10 -72.425
v 85.421 10 -72.737
v 83.71 10 -70.83
v 83.684 10 -70.77
v 83.703 10 -70.798
v 83.62 10 -70.73
v 83.655 10 -70.747
v 83.54 10 -70.71
v 83.58 10 -70.717
v 81.74 10 -65.66
v 81.96 10 -62.26
v 82.24 10 -62.64
v 81.591 10 -61.921
v 81.798 10 -62.084
v 81.106 10 -61.669
v 81.355 10 -61.78
v 80.63 10 -61.57
v 80.859 10 -61.596
v 80.407 10 -61.64
v 80.548 10 -61.588
v 79.993 10 -61.826
v 80.219 10 -61.721
v 79.47 10 -62.09
v 79.74 10 -61.951
v 78.384 10 -62.669
v 77.533 10 -63.119
v 77.955 10 -62.895
v 76.77 10 -63.529
v 77.14 10 -63.33
v 75.801 10 -64.041
v 75.44 10 -64.23
v 75.581 10 -64.156
v 74.651 10 -64.153
v 73.471 10 -63.519
v 74.37 10 -64
v 71.585 10 -62.577
v 72.516 10 -63.032
v 70.113 10 -61.923
v 70.757 10 -62.195
v 69.44 10 -61.785
v 69.73 10 -61.8
v 68.875 10 -61.947
v 69.15 10 -61.837
v 68.43 10 -62.316
v 68.63 10 -62.11
v 68.234 10 -62.755
v 68.29 10 -62.56
v 68.202 10 -63.292
v 68.205 10 -63
v 68.271 10 -64.01
v 68.225 10 -63.63
v 68.362 10 -64.544
v 68.34 10 -64.43
v 68.411 10 -64.834
v 68.464 10 -65.146
v 68.438 10 -64.991
v 68.516 10 -65.434
v 68.49 10 -65.29
v 68.542 10 -65.588
v 68.594 10 -65.895
v 68.569 10 -65.745
v 68.64 10 -66.14
v 68.618 10 -66.03
v 68.19 10 -69.77
v 67.558 10 -70.404
v 67.894 10 -70.067
v 66.499 10 -71.465
v 65.865 10 -72.103
v 66.19 10 -71.77
v 65.357 10 -72.695
v 65.588 10 -72.411
v 65.03 10 -73.194
v 65.172 10 -72.956
v 64.93 10 -73.41
v 65.871 10 -73.322
v 80.844 10 -66.421
v 80.617 10 -67.826
v 82.704 10 -74.505
v 73.916 10 -78.959
v 68.173 10 -74.67
v 65.757 10 -74.168
v 71.5 10 -75.91
v 77.71 10 -78.51
v 78.84 10 -76.36
v 82.221 10 -75.381
v 84.013 10 -75.124
v 81.26 10 -68.67
v 78.795 10 -62.451
v 68.386 10 -64.682
v 67.201 10 -70.762
v 66.842 10 -71.123
v 80.924 10 -65.946
v 83.539 10 -74.352
v 77.88 10 -76.452
v 77.013 10 -79.935
v 77.178 10 -79.594
v 77.717 10 -78.455
v 77.806 10 -78.264
v 78.396 10 -77.14
v 83.889 10 -75.144
v 83.75 10 -70.896
v 79.165 10 -62.255
v 81.006 10 -65.452
v 84.11 10 -72.5
v 84.118 10 -74.228
v 74.373 10 -79.83
v 66.923 10 -74.479
v 66.158 10 -74.323
v 78.497 10 -76.937
v 80.791 10 -75.612
v 84.73 10 -71.99
v 74.865 10 -64.255
v 84.461 10 -72.83
v 84.491 10 -74.118
v 77.049 10 -79.846
v 77.105 10 -79.73
v 77.768 10 -78.327
v 78.909 10 -76.187
v 81.123 10 -75.551
v 81.853 10 -75.432
v 84.461 10 -71.703
v 83.854 10 -71.026
v 68.667 10 -66.273
v 81.086 10 -64.965
v 77.737 10 -78.393
v 78.449 10 -77.025
v 81.482 10 -75.49
v 84.219 10 -71.44
v 84.014 10 -71.211
v 68.706 10 -66.473
v 69.14 10 -68.77
v 81.16 10 -64.51
v 78.981 10 -76.056
v 83.454 10 -70.673
v 68.755 10 -66.725
v 66.216 10 -72.931
v 81.234 10 -64.02
v 68.81 10 -67.013
v 66.662 10 -72.448
v 81.286 10 -63.609
v 74.705 10 -80.387
v 79.264 10 -75.853
v 83.303 10 -70.57
v 68.87 10 -67.323
v 67.187 10 -71.896
v 83.1 10 -70.41
v 68.93 10 -67.64
v 67.77 10 -71.3
v 74.957 10 -80.697
v 82.857 10 -70.203
v 69.99 10 -69.07
v 75.174 10 -80.823
v 82.586 10 -69.96
v 75.4 10 -80.83
v 82.3 10 -69.69
v 69.49 10 -66.36
v 75.547 10 -80.786
v 69.239 10 -64.916
v 75.691 10 -80.675
v 69.084 10 -63.915
v 69.024 10 -63.272
v 75.855 10 -80.465
v 69.056 10 -62.901
v 76.059 10 -80.125
v 76.323 10 -79.624
v 69.179 10 -62.716
v 69.39 10 -62.63
v 69.575 10 -62.616
v 69.845 10 -62.675
v 75.033 10 -64.31
v 79.06 10 -75.96
v 70.235 10 -62.82
v 79.153 10 -75.894
v 70.782 10 -63.065
v 71.521 10 -63.424
v 84.711 10 -74.01
v 75.171 10 -64.321
v 84.83 10 -73.89
v 75.301 10 -64.294
v 84.916 10 -73.706
v 84.93 10 -73.523
v 84.864 10 -73.326
v 76.084 10 -63.893
v 84.71 10 -73.1
v 76.413 10 -63.719
v 78.303 10 -63.61
v 79.53 10 -62.963
v 81.316 10 -63.274
v 80.34 10 -62.588
v 81.324 10 -63.011
v 80.833 10 -62.444
v 81.308 10 -62.817
v 81.11 10 -62.492
v 81.27 10 -62.69
f 649 650 651
f 652 653 654
f 655 656 657
f 658 659 660
f 661 658 662
f 663 661 664
f 665 663 666
f 667 665 668
f 669 667 670
f 671 669 672
f 673 674 675
f 676 677 678
f 679 676 680
f 681 682 683
f 684 681 685
f 686 684 687
f 688 686 689
f 690 688 691
f 692 690 693
f 650 694 651
f 695 650 696
f 697 695 698
f 699 697 700
f 701 699 702
f 703 701 704
f 705 706 707
f 708 705 709
f 710 708 711
f 712 713 714
f 715 712 716
f 717 715 718
f 719 717 720
f 721 719 722
f 723 721 724
f 725 723 726
f 727 725 728
f 729 727 730
f 731 732 733
f 734 731 735
f 736 734 737
f 738 739 740
f 741 738 742
f 743 741 744
f 745 743 746
f 747 748 749
f 750 747 751
f 752 750 753
f 754 755 756
f 757 754 758
f 759 757 760
f 761 762 763
f 764 761 765
f 766 764 767
f 768 766 769
f 770 771 772
f 773 770 774
f 775 773 776
f 777 775 778
f 779 777 780
f 781 779 782
f 783 781 784
f 785 783 786
f 787 785 788
f 789 790 791
f 792 789 793
f 794 792 795
f 796 797 798
f 799 796 800
f 801 799 802
f 803 801 804
f 805 803 806
f 807 805 808
f 809 807 810
f 811 812 813
f 814 811 815
f 816 817 818
f 819 820 821
f 822 819 823
f 824 822 825
f 826 824 827
f 828 826 829
f 830 828 831
f 832 830 833
f 834 832 835
f 836 834 837
f 838 836 839
f 840 841 842
f 843 840 844
f 845 846 847
f 848 845 849
f 850 851 852
f 853 854 855
f 856 853 857
f 858 856 859
f 650 858 860
f 861 650 649
f 655 862 656
f 658 863 659
f 663 658 661
f 667 663 665
f 671 667 669
f 673 864 674
f 679 677 676
f 681 865 682
f 686 681 684
f 690 686 688
f 866 690 692
f 650 867 694
f 697 650 695
f 701 697 699
f 706 701 703
f 708 706 705
f 712 868 713
f 717 712 715
f 721 717 719
f 725 721 723
f 729 725 727
f 734 732 731
f 869 734 736
f 741 739 738
f 745 741 743
f 750 748 747
f 870 750 752
f 757 755 754
f 761 871 762
f 766 761 764
f 770 872 771
f 775 770 773
f 779 775 777
f 783 779 781
f 787 783 785
f 792 790 789
f 796 873 797
f 801 796 799
f 805 801 803
f 809 805 807
f 811 874 812
f 822 820 819
f 826 822 824
f 830 826 828
f 834 830 832
f 838 834 836
f 840 875 841
f 848 846 845
f 876 851 850
f 853 877 854
f 858 853 856
f 861 858 650
f 655 878 862
f 663 863 658
f 671 663 667
f 673 879 864
f 679 880 677
f 686 865 681
f 866 686 690
f 697 867 650
f 706 697 701
f 710 706 708
f 717 868 712
f 725 717 721
f 881 725 729
f 734 882 732
f 883 734 869
f 741 884 739
f 885 741 745
f 870 748 750
f 759 755 757
f 766 871 761
f 770 886 872
f 779 770 775
f 787 779 783
f 792 887 790
f 805 796 801
f 888 805 809
f 814 874 811
f 826 820 822
f 834 826 830
f 875 834 838
f 843 875 840
f 848 843 846
f 853 876 877
f 861 853 858
f 655 889 878
f 663 655 863
f 890 663 671
f 673 891 879
f 686 892 865
f 893 686 866
f 697 894 867
f 710 697 706
f 881 717 725
f 883 882 734
f 885 884 741
f 870 895 748
f 896 755 759
f 768 871 766
f 770 768 886
f 897 779 787
f 794 887 792
f 888 796 805
f 814 888 874
f 826 898 820
f 875 826 834
f 848 875 843
f 861 876 853
f 663 889 655
f 899 663 890
f 673 900 891
f 697 893 894
f 868 697 710
f 901 717 881
f 883 902 882
f 885 903 884
f 904 895 870
f 905 755 896
f 768 906 871
f 779 768 770
f 907 779 897
f 794 908 887
f 909 875 848
f 861 851 876
f 663 910 889
f 697 686 893
f 902 717 901
f 911 902 883
f 912 903 885
f 904 912 895
f 913 755 905
f 779 906 768
f 914 779 907
f 794 915 908
f 916 875 909
f 861 917 851
f 663 918 910
f 868 686 697
f 911 717 902
f 919 912 904
f 779 913 906
f 915 779 914
f 920 915 794
f 921 875 916
f 922 917 861
f 663 923 918
f 868 892 686
f 903 717 911
f 779 755 913
f 920 779 915
f 924 875 921
f 925 917 922
f 663 926 923
f 868 927 892
f 779 928 755
f 929 779 920
f 930 875 924
f 931 917 925
f 717 927 868
f 932 779 929
f 933 875 930
f 934 917 931
f 717 935 927
f 936 779 932
f 917 875 933
f 937 917 934
f 717 938 935
f 939 779 936
f 937 875 917
f 717 940 938
f 941 779 939
f 942 875 937
f 717 943 940
f 873 779 941
f 944 875 942
f 717 945 943
f 946 875 944
f 903 945 717
f 947 875 946
f 903 948 945
f 949 875 947
f 903 950 948
f 949 826 875
f 903 951 950
f 952 826 949
f 903 679 951
f 953 826 952
f 903 880 679
f 954 826 953
f 903 673 880
f 955 826 954
f 912 673 903
f 955 898 826
f 919 673 912
f 955 956 898
f 957 673 919
f 958 956 955
f 959 673 957
f 960 956 958
f 928 673 959
f 961 956 960
f 928 900 673
f 653 956 961
f 779 900 928
f 652 956 653
f 779 962 900
f 652 963 956
f 779 964 962
f 652 965 963
f 779 966 964
f 652 816 965
f 779 967 966
f 652 817 816
f 779 968 967
f 652 969 817
f 779 970 968
f 652 971 969
f 873 970 779
f 652 814 971
f 873 899 970
f 652 888 814
f 873 663 899
f 972 888 652
f 873 926 663
f 973 888 972
f 873 974 926
f 975 888 973
f 873 976 974
f 977 888 975
f 796 976 873
f 977 796 888
f 796 978 976
f 979 796 977
f 796 980 978
f 980 796 979
f 981 982 983
f 984 985 986
f 987 988 989
f 990 991 992
f 991 993 994
f 993 995 996
f 995 997 998
f 997 999 1000
f 999 1001 1002
f 1001 1003 1004
f 1005 1006 1007
f 1008 1009 1010
f 1009 1011 1012
f 1013 1014 1015
f 1014 1016 1017
f 1016 1018 1019
f 1018 1020 1021
f 1020 1022 1023
f 1022 1024 1025
f 1026 981 983
f 981 1027 1028
f 1027 1029 1030
f 1029 1031 1032
f 1031 1033 1034
f 1033 1035 1036
f 1037 1038 1039
f 1038 1040 1041
f 1040 1042 1043
f 1044 1045 1046
f 1045 1047 1048
f 1047 1049 1050
f 1049 1051 1052
f 1051 1053 1054
f 1053 1055 1056
f 1055 1057 1058
f 1057 1059 1060
f 1059 1061 1062
f 1063 1064 1065
f 1064 1066 1067
f 1066 1068 1069
f 1070 1071 1072
f 1071 1073 1074
f 1073 1075 1076
f 1075 1077 1078
f 1079 1080 1081
f 1080 1082 1083
f 1082 1084 1085
f 1086 1087 1088
f 1087 1089 1090
f 1089 1091 1092
f 1093 1094 1095
f 1094 1096 1097
f 1096 1098 1099
f 1098 1100 1101
f 1102 1103 1104
f 1103 1105 1106
f 1105 1107 1108
f 1107 1109 1110
f 1109 1111 1112
f 1111 1113 1114
f 1113 1115 1116
f 1115 1117 1118
f 1117 1119 1120
f 1121 1122 1123
f 1122 1124 1125
f 1124 1126 1127
f 1128 1129 1130
f 1129 1131 1132
f 1131 1133 1134
f 1133 1135 1136
f 1135 1137 1138
f 1137 1139 1140
f 1139 1141 1142
f 1143 1144 1145
f 1144 1146 1147
f 1148 1149 1150
f 1151 1152 1153
f 1152 1154 1155
f 1154 1156 1157
f 1156 1158 1159
f 1158 1160 1161
f 1160 1162 1163
f 1162 1164 1165
f 1164 1166 1167
f 1166 1168 1169
f 1168 1170 1171
f 1172 1173 1174
f 1173 1175 1176
f 1177 1178 1179
f 1178 1180 1181
f 1182 1183 1184
f 1185 1186 1187
f 1186 1188 1189
f 1188 1190 1191
f 1190 981 1192
f 981 1193 982
f 1194 988 987
f 1195 991 990
f 991 995 993
f 995 999 997
f 999 1003 1001
f 1196 1006 1005
f 1008 1011 1009
f 1197 1014 1013
f 1014 1018 1016
f 1018 1022 1020
f 1022 1198 1024
f 1199 981 1026
f 981 1029 1027
f 1029 1033 1031
f 1033 1037 1035
f 1037 1040 1038
f 1200 1045 1044
f 1045 1049 1047
f 1049 1053 1051
f 1053 1057 1055
f 1057 1061 1059
f 1063 1066 1064
f 1066 1201 1068
f 1070 1073 1071
f 1073 1077 1075
f 1079 1082 1080
f 1082 1202 1084
f 1086 1089 1087
f 1203 1094 1093
f 1094 1098 1096
f 1204 1103 1102
f 1103 1107 1105
f 1107 1111 1109
f 1111 1115 1113
f 1115 1119 1117
f 1121 1124 1122
f 1205 1129 1128
f 1129 1133 1131
f 1133 1137 1135
f 1137 1141 1139
f 1206 1144 1143
f 1151 1154 1152
f 1154 1158 1156
f 1158 1162 1160
f 1162 1166 1164
f 1166 1170 1168
f 1207 1173 1172
f 1177 1180 1178
f 1182 1208 1183
f 1209 1186 1185
f 1186 1190 1188
f 1190 1193 981
f 1210 988 1194
f 1195 995 991
f 995 1003 999
f 1211 1006 1196
f 1212 1011 1008
f 1197 1018 1014
f 1018 1198 1022
f 1199 1029 981
f 1029 1037 1033
f 1037 1042 1040
f 1200 1049 1045
f 1049 1057 1053
f 1057 1213 1061
f 1214 1066 1063
f 1066 1215 1201
f 1216 1073 1070
f 1073 1217 1077
f 1079 1202 1082
f 1086 1091 1089
f 1203 1098 1094
f 1218 1103 1204
f 1103 1111 1107
f 1111 1119 1115
f 1219 1124 1121
f 1129 1137 1133
f 1137 1220 1141
f 1206 1146 1144
f 1151 1158 1154
f 1158 1166 1162
f 1166 1207 1170
f 1207 1175 1173
f 1175 1180 1177
f 1208 1186 1209
f 1186 1193 1190
f 1221 988 1210
f 988 995 1195
f 995 1222 1003
f 1223 1006 1211
f 1224 1018 1197
f 1018 1225 1198
f 1226 1029 1199
f 1029 1042 1037
f 1049 1213 1057
f 1214 1215 1066
f 1216 1217 1073
f 1227 1202 1079
f 1086 1228 1091
f 1203 1100 1098
f 1100 1103 1218
f 1111 1229 1119
f 1219 1126 1124
f 1129 1220 1137
f 1220 1146 1206
f 1230 1158 1151
f 1158 1207 1166
f 1207 1180 1175
f 1208 1193 1186
f 1221 995 988
f 995 1231 1222
f 1232 1006 1223
f 1225 1029 1226
f 1029 1200 1042
f 1049 1233 1213
f 1234 1215 1214
f 1235 1217 1216
f 1227 1236 1202
f 1086 1237 1228
f 1238 1100 1203
f 1100 1111 1103
f 1111 1239 1229
f 1240 1126 1219
f 1207 1241 1180
f 1182 1193 1208
f 1242 995 1221
f 1018 1029 1225
f 1049 1234 1233
f 1234 1243 1215
f 1235 1244 1217
f 1244 1236 1227
f 1086 1245 1237
f 1238 1111 1100
f 1111 1246 1239
f 1247 1126 1240
f 1207 1248 1241
f 1249 1193 1182
f 1250 995 1242
f 1018 1200 1029
f 1049 1243 1234
f 1244 1251 1236
f 1245 1111 1238
f 1111 1247 1246
f 1247 1252 1126
f 1207 1253 1248
f 1249 1254 1193
f 1255 995 1250
f 1224 1200 1018
f 1049 1235 1243
f 1086 1111 1245
f 1111 1252 1247
f 1207 1256 1253
f 1249 1257 1254
f 1258 995 1255
f 1259 1200 1224
f 1260 1111 1086
f 1111 1261 1252
f 1207 1262 1256
f 1249 1263 1257
f 1259 1049 1200
f 1111 1264 1261
f 1207 1265 1262
f 1249 1266 1263
f 1267 1049 1259
f 1111 1268 1264
f 1207 1249 1265
f 1249 1269 1266
f 1270 1049 1267
f 1111 1271 1268
f 1207 1269 1249
f 1272 1049 1270
f 1111 1273 1271
f 1207 1274 1269
f 1275 1049 1272
f 1111 1205 1273
f 1207 1276 1274
f 1277 1049 1275
f 1207 1278 1276
f 1277 1235 1049
f 1207 1279 1278
f 1280 1235 1277
f 1207 1281 1279
f 1282 1235 1280
f 1158 1281 1207
f 1283 1235 1282
f 1158 1284 1281
f 1011 1235 1283
f 1158 1285 1284
f 1212 1235 1011
f 1158 1286 1285
f 1006 1235 1212
f 1158 1287 1286
f 1006 1244 1235
f 1230 1287 1158
f 1006 1251 1244
f 1288 1287 1230
f 1006 1289 1251
f 1288 1290 1287
f 1006 1291 1289
f 1288 1292 1290
f 1006 1260 1291
f 1288 1293 1292
f 1232 1260 1006
f 1288 984 1293
f 1232 1111 1260
f 1288 985 984
f 1294 1111 1232
f 1295 985 1288
f 1296 1111 1294
f 1297 985 1295
f 1298 1111 1296
f 1149 985 1297
f 1299 1111 1298
f 1148 985 1149
f 1300 1111 1299
f 1301 985 1148
f 1302 1111 1300
f 1303 985 1301
f 1302 1205 1111
f 1146 985 1303
f 1231 1205 1302
f 1220 985 1146
f 995 1205 1231
f 1220 1304 985
f 1258 1205 995
f 1220 1305 1304
f 1306 1205 1258
f 1220 1307 1305
f 1308 1205 1306
f 1220 1309 1307
f 1308 1129 1205
f 1129 1309 1220
f 1310 1129 1308
f 1129 1311 1309
f 1312 1129 1310
f 1129 1312 1311
f 809 1141 888
f 888 1141 1220
f 888 1220 874
f 874 1220 1206
f 874 1206 812
f 812 1206 1143
f 812 1143 813
f 813 1143 1145
f 813 1145 811
f 811 1145 1144
f 811 1144 815
f 815 1144 1147
f 815 1147 814
f 814 1147 1146
f 814 1146 971
f 971 1146 1303
f 971 1303 969
f 969 1303 1301
f 969 1301 817
f 817 1301 1148
f 817 1148 818
f 818 1148 1150
f 818 1150 816
f 816 1150 1149
f 816 1149 965
f 965 1149 1297
f 965 1297 963
f 963 1297 1295
f 963 1295 956
f 956 1295 1288
f 956 1288 898
f 898 1288 1230
f 898 1230 820
f 820 1230 1151
f 820 1151 821
f 821 1151 1153
f 821 1153 819
f 819 1153 1152
f 819 1152 823
f 823 1152 1155
f 823 1155 822
f 822 1155 1154
f 822 1154 825
f 825 1154 1157
f 825 1157 824
f 824 1157 1156
f 824 1156 827
f 827 1156 1159
f 827 1159 826
f 826 1159 1158
f 826 1158 829
f 829 1158 1161
f 829 1161 828
f 828 1161 1160
f 828 1160 831
f 831 1160 1163
f 831 1163 830
f 830 1163 1162
f 830 1162 833
f 833 1162 1165
f 833 1165 832
f 832 1165 1164
f 832 1164 835
f 835 1164 1167
f 835 1167 834
f 834 1167 1166
f 834 1166 837
f 837 1166 1169
f 837 1169 836
f 836 1169 1168
f 836 1168 839
f 839 1168 1171
f 839 1171 838
f 838 1171 1170
f 838 1170 875
f 875 1170 1207
f 875 1207 841
f 841 1207 1172
f 841 1172 842
f 842 1172 1174
f 842 1174 840
f 840 1174 1173
f 840 1173 844
f 844 1173 1176
f 844 1176 843
f 843 1176 1175
f 843 1175 846
f 846 1175 1177
f 846 1177 847
f 847 1177 1179
f 847 1179 845
f 845 1179 1178
f 845 1178 849
f 849 1178 1181
f 849 1181 848
f 848 1181 1180
f 848 1180 909
f 909 1180 1241
f 909 1241 916
f 916 1241 1248
f 916 1248 921
f 921 1248 1253
f 921 1253 924
f 924 1253 1256
f 924 1256 930
f 930 1256 1262
f 930 1262 933
f 933 1262 1265
f 933 1265 917
f 917 1265 1249
f 917 1249 851
f 851 1249 1182
f 851 1182 852
f 852 1182 1184
f 852 1184 850
f 850 1184 1183
f 850 1183 876
f 876 1183 1208
f 876 1208 877
f 877 1208 1209
f 877 1209 854
f 854 1209 1185
f 854 1185 855
f 855 1185 1187
f 855 1187 853
f 853 1187 1186
f 853 1186 857
f 857 1186 1189
f 857 1189 856
f 856 1189 1188
f 856 1188 859
f 859 1188 1191
f 859 1191 858
f 858 1191 1190
f 858 1190 860
f 860 1190 1192
f 860 1192 650
f 650 1192 981
f 650 981 696
f 696 981 1028
f 696 1028 695
f 695 1028 1027
f 695 1027 698
f 698 1027 1030
f 698 1030 697
f 697 1030 1029
f 697 1029 700
f 700 1029 1032
f 700 1032 699
f 699 1032 1031
f 699 1031 702
f 702 1031 1034
f 702 1034 701
f 701 1034 1033
f 701 1033 704
f 704 1033 1036
f 704 1036 703
f 703 1036 1035
f 703 1035 706
f 706 1035 1037
f 706 1037 707
f 707 1037 1039
f 707 1039 705
f 705 1039 1038
f 705 1038 709
f 709 1038 1041
f 709 1041 708
f 708 1041 1040
f 708 1040 711
f 711 1040 1043
f 711 1043 710
f 710 1043 1042
f 710 1042 868
f 868 1042 1200
f 868 1200 713
f 713 1200 1044
f 713 1044 714
f 714 1044 1046
f 714 1046 712
f 712 1046 1045
f 712 1045 716
f 716 1045 1048
f 716 1048 715
f 715 1048 1047
f 715 1047 718
f 718 1047 1050
f 718 1050 717
f 717 1050 1049
f 717 1049 720
f 720 1049 1052
f 720 1052 719
f 719 1052 1051
f 719 1051 722
f 722 1051 1054
f 722 1054 721
f 721 1054 1053
f 721 1053 724
f 724 1053 1056
f 724 1056 723
f 723 1056 1055
f 723 1055 726
f 726 1055 1058
f 726 1058 725
f 725 1058 1057
f 725 1057 728
f 728 1057 1060
f 728 1060 727
f 727 1060 1059
f 727 1059 730
f 730 1059 1062
f 730 1062 729
f 729 1062 1061
f 729 1061 881
f 881 1061 1213
f 881 1213 901
f 901 1213 1233
f 901 1233 902
f 902 1233 1234
f 902 1234 882
f 882 1234 1214
f 882 1214 732
f 732 1214 1063
f 732 1063 733
f 733 1063 1065
f 733 1065 731
f 731 1065 1064
f 731 1064 735
f 735 1064 1067
f 735 1067 734
f 734 1067 1066
f 734 1066 737
f 737 1066 1069
f 737 1069 736
f 736 1069 1068
f 736 1068 869
f 869 1068 1201
f 869 1201 883
f 883 1201 1215
f 883 1215 911
f 911 1215 1243
f 911 1243 903
f 903 1243 1235
f 903 1235 884
f 884 1235 1216
f 884 1216 739
f 739 1216 1070
f 739 1070 740
f 740 1070 1072
f 740 1072 738
f 738 1072 1071
f 738 1071 742
f 742 1071 1074
f 742 1074 741
f 741 1074 1073
f 741 1073 744
f 744 1073 1076
f 744 1076 743
f 743 1076 1075
f 743 1075 746
f 746 1075 1078
f 746 1078 745
f 745 1078 1077
f 745 1077 885
f 885 1077 1217
f 885 1217 912
f 912 1217 1244
f 912 1244 895
f 895 1244 1227
f 895 1227 748
f 748 1227 1079
f 748 1079 749
f 749 1079 1081
f 749 1081 747
f 747 1081 1080
f 747 1080 751
f 751 1080 1083
f 751 1083 750
f 750 1083 1082
f 750 1082 753
f 753 1082 1085
f 753 1085 752
f 752 1085 1084
f 752 1084 870
f 870 1084 1202
f 870 1202 904
f 904 1202 1236
f 904 1236 919
f 919 1236 1251
f 919 1251 957
f 957 1251 1289
f 957 1289 959
f 959 1289 1291
f 959 1291 928
f 928 1291 1260
f 928 1260 755
f 755 1260 1086
f 755 1086 756
f 756 1086 1088
f 756 1088 754
f 754 1088 1087
f 754 1087 758
f 758 1087 1090
f 758 1090 757
f 757 1090 1089
f 757 1089 760
f 760 1089 1092
f 760 1092 759
f 759 1092 1091
f 759 1091 896
f 896 1091 1228
f 896 1228 905
f 905 1228 1237
f 905 1237 913
f 913 1237 1245
f 913 1245 906
f 906 1245 1238
f 906 1238 871
f 871 1238 1203
f 871 1203 762
f 762 1203 1093
f 762 1093 763
f 763 1093 1095
f 763 1095 761
f 761 1095 1094
f 761 1094 765
f 765 1094 1097
f 765 1097 764
f 764 1097 1096
f 764 1096 767
f 767 1096 1099
f 767 1099 766
f 766 1099 1098
f 766 1098 769
f 769 1098 1101
f 769 1101 768
f 768 1101 1100
f 768 1100 886
f 886 1100 1218
f 886 1218 872
f 872 1218 1204
f 872 1204 771
f 771 1204 1102
f 771 1102 772
f 772 1102 1104
f 772 1104 770
f 770 1104 1103
f 770 1103 774
f 774 1103 1106
f 774 1106 773
f 773 1106 1105
f 773 1105 776
f 776 1105 1108
f 776 1108 775
f 775 1108 1107
f 775 1107 778
f 778 1107 1110
f 778 1110 777
f 777 1110 1109
f 777 1109 780
f 780 1109 1112
f 780 1112 779
f 779 1112 1111
f 779 1111 782
f 782 1111 1114
f 782 1114 781
f 781 1114 1113
f 781 1113 784
f 784 1113 1116
f 784 1116 783
f 783 1116 1115
f 783 1115 786
f 786 1115 1118
f 786 1118 785
f 785 1118 1117
f 785 1117 788
f 788 1117 1120
f 788 1120 787
f 787 1120 1119
f 787 1119 897
f 897 1119 1229
f 897 1229 907
f 907 1229 1239
f 907 1239 914
f 914 1239 1246
f 914 1246 915
f 915 1246 1247
f 915 1247 908
f 908 1247 1240
f 908 1240 887
f 887 1240 1219
f 887 1219 790
f 790 1219 1121
f 790 1121 791
f 791 1121 1123
f 791 1123 789
f 789 1123 1122
f 789 1122 793
f 793 1122 1125
f 793 1125 792
f 792 1125 1124
f 792 1124 795
f 795 1124 1127
f 795 1127 794
f 794 1127 1126
f 794 1126 920
f 920 1126 1252
f 920 1252 929
f 929 1252 1261
f 929 1261 932
f 932 1261 1264
f 932 1264 936
f 936 1264 1268
f 936 1268 939
f 939 1268 1271
f 939 1271 941
f 941 1271 1273
f 941 1273 873
f 873 1273 1205
f 873 1205 797
f 797 1205 1128
f 797 1128 798
f 798 1128 1130
f 798 1130 796
f 796 1130 1129
f 796 1129 800
f 800 1129 1132
f 800 1132 799
f 799 1132 1131
f 799 1131 802
f 802 1131 1134
f 802 1134 801
f 801 1134 1133
f 801 1133 804
f 804 1133 1136
f 804 1136 803
f 803 1136 1135
f 803 1135 806
f 806 1135 1138
f 806 1138 805
f 805 1138 1137
f 805 1137 808
f 808 1137 1140
f 808 1140 807
f 807 1140 1139
f 807 1139 810
f 810 1139 1142
f 810 1142 809
f 809 1142 1141
f 980 1312 978
f 978 1312 1310
f 978 1310 976
f 976 1310 1308
f 976 1308 974
f 974 1308 1306
f 974 1306 926
f 926 1306 1258
f 926 1258 923
f 923 1258 1255
f 923 1255 918
f 918 1255 1250
f 918 1250 910
f 910 1250 1242
f 910 1242 889
f 889 1242 1221
f 889 1221 878
f 878 1221 1210
f 878 1210 862
f 862 1210 1194
f 862 1194 656
f 656 1194 987
f 656 987 657
f 657 987 989
f 657 989 655
f 655 989 988
f 655 988 863
f 863 988 1195
f 863 1195 659
f 659 1195 990
f 659 990 660
f 660 990 992
f 660 992 658
f 658 992 991
f 658 991 662
f 662 991 994
f 662 994 661
f 661 994 993
f 661 993 664
f 664 993 996
f 664 996 663
f 663 996 995
f 663 995 666
f 666 995 998
f 666 998 665
f 665 998 997
f 665 997 668
f 668 997 1000
f 668 1000 667
f 667 1000 999
f 667 999 670
f 670 999 1002
f 670 1002 669
f 669 1002 1001
f 669 1001 672
f 672 1001 1004
f 672 1004 671
f 671 1004 1003
f 671 1003 890
f 890 1003 1222
f 890 1222 899
f 899 1222 1231
f 899 1231 970
f 970 1231 1302
f 970 1302 968
f 968 1302 1300
f 968 1300 967
f 967 1300 1299
f 967 1299 966
f 966 1299 1298
f 966 1298 964
f 964 1298 1296
f 964 1296 962
f 962 1296 1294
f 962 1294 900
f 900 1294 1232
f 900 1232 891
f 891 1232 1223
f 891 1223 879
f 879 1223 1211
f 879 1211 864
f 864 1211 1196
f 864 1196 674
f 674 1196 1005
f 674 1005 675
f 675 1005 1007
f 675 1007 673
f 673 1007 1006
f 673 1006 880
f 880 1006 1212
f 880 1212 677
f 677 1212 1008
f 677 1008 678
f 678 1008 1010
f 678 1010 676
f 676 1010 1009
f 676 1009 680
f 680 1009 1012
f 680 1012 679
f 679 1012 1011
f 679 1011 951
f 951 1011 1283
f 951 1283 950
f 950 1283 1282
f 950 1282 948
f 948 1282 1280
f 948 1280 945
f 945 1280 1277
f 945 1277 943
f 943 1277 1275
f 943 1275 940
f 940 1275 1272
f 940 1272 938
f 938 1272 1270
f 938 1270 935
f 935 1270 1267
f 935 1267 927
f 927 1267 1259
f 927 1259 892
f 892 1259 1224
f 892 1224 865
f 865 1224 1197
f 865 1197 682
f 682 1197 1013
f 682 1013 683
f 683 1013 1015
f 683 1015 681
f 681 1015 1014
f 681 1014 685
f 685 1014 1017
f 685 1017 684
f 684 1017 1016
f 684 1016 687
f 687 1016 1019
f 687 1019 686
f 686 1019 1018
f 686 1018 689
f 689 1018 1021
f 689 1021 688
f 688 1021 1020
f 688 1020 691
f 691 1020 1023
f 691 1023 690
f 690 1023 1022
f 690 1022 693
f 693 1022 1025
f 693 1025 692
f 692 1025 1024
f 692 1024 866
f 866 1024 1198
f 866 1198 893
f 893 1198 1225
f 893 1225 894
f 894 1225 1226
f 894 1226 867
f 867 1226 1199
f 867 1199 694
f 694 1199 1026
f 694 1026 651
f 651 1026 983
f 651 983 649
f 649 983 982
f 649 982 861
f 861 982 1193
f 861 1193 922
f 922 1193 1254
f 922 1254 925
f 925 1254 1257
f 925 1257 931
f 931 1257 1263
f 931 1263 934
f 934 1263 1266
f 934 1266 937
f 937 1266 1269
f 937 1269 942
f 942 1269 1274
f 942 1274 944
f 944 1274 1276
f 944 1276 946
f 946 1276 1278
f 946 1278 947
f 947 1278 1279
f 947 1279 949
f 949 1279 1281
f 949 1281 952
f 952 1281 1284
f 952 1284 953
f 953 1284 1285
f 953 1285 954
f 954 1285 1286
f 954 1286 955
f 955 1286 1287
f 955 1287 958
f 958 1287 1290
f 958 1290 960
f 960 1290 1292
f 960 1292 961
f 961 1292 1293
f 961 1293 653
f 653 1293 984
f 653 984 654
f 654 984 986
f 654 986 652
f 652 986 985
f 652 985 972
f 972 985 1304
f 972 1304 973
f 973 1304 1305
f 973 1305 975
f 975 1305 1307
f 975 1307 977
f 977 1307 1309
f 977 1309 979
f 979 1309 1311
f 979 1311 980
f 980 1311 1312
