o 
v 33.76 0 -62.17
v 34.266 0 -61.886
v 34.029 0 -62.007
v 33.163 0 -62.578
v 33.505 0 -62.34
v 32.313 0 -63.195
v 32.759 0 -62.869
v 31.39 0 -63.89
v 31.85 0 -63.541
v 27.764 0 -64.493
v 29.74 0 -65.14
v 29.11 0 -64.93
v 25.925 0 -63.949
v 26.723 0 -64.171
v 24.806 0 -63.734
v 25.307 0 -63.809
v 23.899 0 -63.727
v 24.36 0 -63.71
v 23.166 0 -63.875
v 23.505 0 -63.78
v 22.597 0 -64.21
v 22.868 0 -64.017
v 21.913 0 -65.024
v 22.34 0 -64.46
v 21.587 0 -66.351
v 21.663 0 -65.638
v 21.962 0 -68.269
v 21.687 0 -67.212
v 22.603 0 -70.089
v 22.41 0 -69.57
v 20.637 0 -75.616
v 21.715 0 -74.04
v 20.96 0 -75.13
v 20.214 0 -76.48
v 20.391 0 -76.058
v 20.027 0 -77.358
v 20.096 0 -76.906
v 20.033 0 -78.259
v 20 0 -77.86
v 20.301 0 -78.97
v 20.133 0 -78.628
v 20.853 0 -79.588
v 20.541 0 -79.289
v 21.93 0 -80.31
v 21.24 0 -79.87
v 25.94 0 -80.195
v 24.8 0 -80.23
v 28.069 0 -80.798
v 27.8 0 -80.4
v 27.887 0 -80.538
v 28.648 0 -81.599
v 28.327 0 -81.159
v 29.41 0 -82.63
v 29.014 0 -82.096
v 30.374 0 -83.862
v 29.945 0 -83.326
v 31.006 0 -84.545
v 30.72 0 -84.26
v 31.49 0 -84.87
v 31.255 0 -84.74
v 32.368 0 -85.099
v 31.894 0 -85.01
v 33.359 0 -85.124
v 32.87 0 -85.137
v 34.13 0 -84.94
v 33.793 0 -85.058
v 34.755 0 -84.46
v 34.452 0 -84.733
v 35.275 0 -83.756
v 35.031 0 -84.131
v 35.64 0 -82.91
v 35.48 0 -83.346
v 36.129 0 -81.313
v 36.012 0 -81.679
v 36.07 0 -81.5
v 36.286 0 -80.794
v 36.202 0 -81.072
v 36.659 0 -79.618
v 36.474 0 -80.191
v 36.57 0 -79.9
v 39.266 0 -77.839
v 38.54 0 -78.07
v 38.897 0 -77.959
v 39.964 0 -77.601
v 39.627 0 -77.717
v 40.49 0 -77.41
v 40.258 0 -77.496
v 41.587 0 -77.071
v 41.288 0 -77.15
v 41.36 0 -77.14
v 42.264 0 -76.64
v 41.906 0 -76.892
v 42.897 0 -76.075
v 42.611 0 -76.355
v 43.191 0 -75.47
v 43.07 0 -75.84
v 43.287 0 -74.354
v 43.263 0 -74.95
v 43.191 0 -73.234
v 43.263 0 -73.757
v 42.825 0 -72.555
v 43.07 0 -72.86
v 41.748 0 -71.603
v 42.357 0 -72.114
v 40.436 0 -70.63
v 41.08 0 -71.086
v 39.735 0 -70.205
v 39.9 0 -70.3
v 38.21 0 -69.2
v 38.959 0 -69.72
v 38.79 0 -69.6
v 38.116 0 -65.429
v 38.14 0 -66.29
v 38.046 0 -64.061
v 38.084 0 -64.682
v 37.953 0 -63.244
v 38.002 0 -63.578
v 37.62 0 -62.681
v 37.9 0 -63.07
v 36.829 0 -62.079
v 37.259 0 -62.349
v 35.807 0 -61.753
v 36.341 0 -61.878
v 34.959 0 -61.718
v 35.24 0 -61.71
v 34.489 0 -61.801
v 34.714 0 -61.747
v 35.943 0 -81.899
v 38.205 0 -78.176
v 41.177 0 -77.177
v 39.548 0 -70.094
v 22.777 0 -70.572
v 22.285 0 -73.206
v 26.736 0 -80.181
v 22.925 0 -70.999
v 22.691 0 -72.594
v 35.71 0 -82.664
v 35.866 0 -82.145
v 40.683 0 -77.338
v 41.034 0 -77.219
v 27.718 0 -80.298
v 35.787 0 -82.404
v 36.378 0 -80.495
v 40.867 0 -77.273
v 39.349 0 -69.973
v 23.04 0 -71.348
v 22.955 0 -72.167
v 39.149 0 -69.846
v 23.114 0 -71.598
v 23.097 0 -71.891
v 27.558 0 -80.229
v 37.889 0 -78.287
v 23.14 0 -71.73
v 37.605 0 -78.399
v 37.368 0 -78.503
v 27.253 0 -80.191
v 37.192 0 -78.592
v 37.09 0 -78.66
v 37.022 0 -78.75
v 36.754 0 -79.35
v 36.94 0 -78.904
v 36.849 0 -79.107
v 34.266 10 -61.886
v 33.76 10 -62.17
v 34.029 10 -62.007
v 33.163 10 -62.578
v 33.505 10 -62.34
v 32.313 10 -63.195
v 32.759 10 -62.869
v 31.39 10 -63.89
v 31.85 10 -63.541
v 29.74 10 -65.14
v 27.764 10 -64.493
v 29.11 10 -64.93
v 25.925 10 -63.949
v 26.723 10 -64.171
v 24.806 10 -63.734
v 25.307 10 -63.809
v 23.899 10 -63.727
v 24.36 10 -63.71
v 23.166 10 -63.875
v 23.505 10 -63.78
v 22.597 10 -64.21
v 22.868 10 -64.017
v 21.913 10 -65.024
v 22.34 10 -64.46
v 21.587 10 -66.351
v 21.663 10 -65.638
v 21.962 10 -68.269
v 21.687 10 -67.212
v 22.603 10 -70.089
v 22.41 10 -69.57
v 21.715 10 -74.04
v 20.637 10 -75.616
v 20.96 10 -75.13
v 20.214 10 -76.48
v 20.391 10 -76.058
v 20.027 10 -77.358
v 20.096 10 -76.906
v 20.033 10 -78.259
v 20 10 -77.86
v 20.301 10 -78.97
v 20.133 10 -78.628
v 20.853 10 -79.588
v 20.541 10 -79.289
v 21.93 10 -80.31
v 21.24 10 -79.87
v 25.94 10 -80.195
v 24.8 10 -80.23
v 27.8 10 -80.4
v 28.069 10 -80.798
v 27.887 10 -80.538
v 28.648 10 -81.599
v 28.327 10 -81.159
v 29.41 10 -82.63
v 29.014 10 -82.096
v 30.374 10 -83.862
v 29.945 10 -83.326
v 31.006 10 -84.545
v 30.72 10 -84.26
v 31.49 10 -84.87
v 31.255 10 -84.74
v 32.368 10 -85.099
v 31.894 10 -85.01
v 33.359 10 -85.124
v 32.87 10 -85.137
v 34.13 10 -84.94
v 33.793 10 -85.058
v 34.755 10 -84.46
v 34.452 10 -84.733
v 35.275 10 -83.756
v 35.031 10 -84.131
v 35.64 10 -82.91
v 35.48 10 -83.346
v 36.012 10 -81.679
v 36.129 10 -81.313
v 36.07 10 -81.5
v 36.286 10 -80.794
v 36.202 10 -81.072
v 36.474 10 -80.191
v 36.659 10 -79.618
v 36.57 10 -79.9
v 38.54 10 -78.07
v 39.266 10 -77.839
v 38.897 10 -77.959
v 39.964 10 -77.601
v 39.627 10 -77.717
v 40.49 10 -77.41
v 40.258 10 -77.496
v 41.288 10 -77.15
v 41.587 10 -77.071
v 41.36 10 -77.14
v 42.264 10 -76.64
v 41.906 10 -76.892
v 42.897 10 -76.075
v 42.611 10 -76.355
v 43.191 10 -75.47
v 43.07 10 -75.84
v 43.287 10 -74.354
v 43.263 10 -74.95
v 43.191 10 -73.234
v 43.263 10 -73.757
v 42.825 10 -72.555
v 43.07 10 -72.86
v 41.748 10 -71.603
v 42.357 10 -72.114
v 40.436 10 -70.63
v 41.08 10 -71.086
v 39.735 10 -70.205
v 39.9 10 -70.3
v 38.959 10 -69.72
v 38.21 10 -69.2
v 38.79 10 -69.6
v 38.116 10 -65.429
v 38.14 10 -66.29
v 38.046 10 -64.061
v 38.084 10 -64.682
v 37.953 10 -63.244
v 38.002 10 -63.578
v 37.62 10 -62.681
v 37.9 10 -63.07
v 36.829 10 -62.079
v 37.259 10 -62.349
v 35.807 10 -61.753
v 36.341 10 -61.878
v 34.959 10 -61.718
v 35.24 10 -61.71
v 34.489 10 -61.801
v 34.714 10 -61.747
v 35.943 10 -81.899
v 38.205 10 -78.176
v 41.177 10 -77.177
v 39.548 10 -70.094
v 22.777 10 -70.572
v 22.285 10 -73.206
v 26.736 10 -80.181
v 22.925 10 -70.999
v 22.691 10 -72.594
v 35.71 10 -82.664
v 35.866 10 -82.145
v 40.683 10 -77.338
v 41.034 10 -77.219
v 27.718 10 -80.298
v 35.787 10 -82.404
v 36.378 10 -80.495
v 40.867 10 -77.273
v 39.349 10 -69.973
v 23.04 10 -71.348
v 22.955 10 -72.167
v 39.149 10 -69.846
v 23.114 10 -71.598
v 23.097 10 -71.891
v 27.558 10 -80.229
v 37.889 10 -78.287
v 23.14 10 -71.73
v 37.605 10 -78.399
v 37.368 10 -78.503
v 27.253 10 -80.191
v 37.192 10 -78.592
v 37.09 10 -78.66
v 37.022 10 -78.75
v 36.754 10 -79.35
v 36.94 10 -78.904
v 36.849 10 -79.107
f 1 2 3
f 4 1 5
f 6 4 7
f 8 6 9
f 10 11 12
f 13 10 14
f 15 13 16
f 17 15 18
f 19 17 20
f 21 19 22
f 23 21 24
f 25 23 26
f 27 25 28
f 29 27 30
f 31 32 33
f 34 31 35
f 36 34 37
f 38 36 39
f 40 38 41
f 42 40 43
f 44 42 45
f 46 44 47
f 48 49 50
f 51 48 52
f 53 51 54
f 55 53 56
f 57 55 58
f 59 57 60
f 61 59 62
f 63 61 64
f 65 63 66
f 67 65 68
f 69 67 70
f 71 69 72
f 73 74 75
f 76 73 77
f 78 79 80
f 81 82 83
f 84 81 85
f 86 84 87
f 88 89 90
f 91 88 92
f 93 91 94
f 95 93 96
f 97 95 98
f 99 97 100
f 101 99 102
f 103 101 104
f 105 103 106
f 107 105 108
f 109 110 111
f 112 109 113
f 114 112 115
f 116 114 117
f 118 116 119
f 120 118 121
f 122 120 123
f 124 122 125
f 126 124 127
f 1 126 2
f 6 1 4
f 11 6 8
f 13 11 10
f 17 13 15
f 21 17 19
f 25 21 23
f 29 25 27
f 34 32 31
f 38 34 36
f 42 38 40
f 46 42 44
f 51 49 48
f 55 51 53
f 59 55 57
f 63 59 61
f 67 63 65
f 71 67 69
f 73 128 74
f 81 129 82
f 86 81 84
f 88 130 89
f 93 88 91
f 97 93 95
f 101 97 99
f 105 101 103
f 131 105 107
f 114 109 112
f 118 114 116
f 122 118 120
f 126 122 124
f 6 126 1
f 17 11 13
f 25 17 21
f 132 25 29
f 34 133 32
f 42 34 38
f 134 42 46
f 55 49 51
f 63 55 59
f 71 63 67
f 76 128 73
f 86 129 81
f 93 130 88
f 101 93 97
f 131 101 105
f 118 109 114
f 126 118 122
f 11 126 6
f 25 11 17
f 135 25 132
f 34 136 133
f 134 34 42
f 63 49 55
f 137 63 71
f 76 138 128
f 139 129 86
f 93 140 130
f 131 93 101
f 126 109 118
f 135 11 25
f 134 136 34
f 63 141 49
f 142 63 137
f 143 138 76
f 144 129 139
f 93 144 140
f 145 93 131
f 11 109 126
f 146 11 135
f 134 147 136
f 142 141 63
f 93 129 144
f 148 93 145
f 11 110 109
f 149 11 146
f 134 150 147
f 142 151 141
f 93 152 129
f 110 93 148
f 149 110 11
f 134 153 150
f 138 151 142
f 93 154 152
f 149 93 110
f 134 149 153
f 143 151 138
f 93 155 154
f 134 93 149
f 143 156 151
f 134 155 93
f 79 156 143
f 134 157 155
f 79 134 156
f 134 158 157
f 78 134 79
f 134 159 158
f 160 134 78
f 134 161 159
f 162 134 160
f 134 162 161
f 163 164 165
f 164 166 167
f 166 168 169
f 168 170 171
f 172 173 174
f 173 175 176
f 175 177 178
f 177 179 180
f 179 181 182
f 181 183 184
f 183 185 186
f 185 187 188
f 187 189 190
f 189 191 192
f 193 194 195
f 194 196 197
f 196 198 199
f 198 200 201
f 200 202 203
f 202 204 205
f 204 206 207
f 206 208 209
f 210 211 212
f 211 213 214
f 213 215 216
f 215 217 218
f 217 219 220
f 219 221 222
f 221 223 224
f 223 225 226
f 225 227 228
f 227 229 230
f 229 231 232
f 231 233 234
f 235 236 237
f 236 238 239
f 240 241 242
f 243 244 245
f 244 246 247
f 246 248 249
f 250 251 252
f 251 253 254
f 253 255 256
f 255 257 258
f 257 259 260
f 259 261 262
f 261 263 264
f 263 265 266
f 265 267 268
f 267 269 270
f 271 272 273
f 272 274 275
f 274 276 277
f 276 278 279
f 278 280 281
f 280 282 283
f 282 284 285
f 284 286 287
f 286 288 289
f 288 164 163
f 164 168 166
f 168 172 170
f 172 175 173
f 175 179 177
f 179 183 181
f 183 187 185
f 187 191 189
f 193 196 194
f 196 200 198
f 200 204 202
f 204 208 206
f 210 213 211
f 213 217 215
f 217 221 219
f 221 225 223
f 225 229 227
f 229 233 231
f 290 236 235
f 291 244 243
f 244 248 246
f 292 251 250
f 251 255 253
f 255 259 257
f 259 263 261
f 263 267 265
f 267 293 269
f 272 276 274
f 276 280 278
f 280 284 282
f 284 288 286
f 288 168 164
f 172 179 175
f 179 187 183
f 187 294 191
f 295 196 193
f 196 204 200
f 204 296 208
f 210 217 213
f 217 225 221
f 225 233 229
f 290 238 236
f 291 248 244
f 292 255 251
f 255 263 259
f 263 293 267
f 272 280 276
f 280 288 284
f 288 172 168
f 172 187 179
f 187 297 294
f 298 196 295
f 196 296 204
f 210 225 217
f 225 299 233
f 300 238 290
f 291 301 248
f 302 255 292
f 255 293 263
f 272 288 280
f 172 297 187
f 298 296 196
f 303 225 210
f 225 304 299
f 300 305 238
f 291 306 301
f 306 255 302
f 255 307 293
f 272 172 288
f 172 308 297
f 309 296 298
f 303 304 225
f 291 255 306
f 255 310 307
f 271 172 272
f 172 311 308
f 312 296 309
f 313 304 303
f 314 255 291
f 255 271 310
f 271 311 172
f 315 296 312
f 313 300 304
f 316 255 314
f 255 311 271
f 311 296 315
f 313 305 300
f 317 255 316
f 255 296 311
f 318 305 313
f 317 296 255
f 318 240 305
f 319 296 317
f 296 240 318
f 320 296 319
f 296 241 240
f 321 296 320
f 296 322 241
f 323 296 321
f 296 324 322
f 324 296 323
f 1 164 5
f 5 164 167
f 5 167 4
f 4 167 166
f 4 166 7
f 7 166 169
f 7 169 6
f 6 169 168
f 6 168 9
f 9 168 171
f 9 171 8
f 8 171 170
f 8 170 11
f 11 170 172
f 11 172 12
f 12 172 174
f 12 174 10
f 10 174 173
f 10 173 14
f 14 173 176
f 14 176 13
f 13 176 175
f 13 175 16
f 16 175 178
f 16 178 15
f 15 178 177
f 15 177 18
f 18 177 180
f 18 180 17
f 17 180 179
f 17 179 20
f 20 179 182
f 20 182 19
f 19 182 181
f 19 181 22
f 22 181 184
f 22 184 21
f 21 184 183
f 21 183 24
f 24 183 186
f 24 186 23
f 23 186 185
f 23 185 26
f 26 185 188
f 26 188 25
f 25 188 187
f 25 187 28
f 28 187 190
f 28 190 27
f 27 190 189
f 27 189 30
f 30 189 192
f 30 192 29
f 29 192 191
f 29 191 132
f 132 191 294
f 132 294 135
f 135 294 297
f 135 297 146
f 146 297 308
f 146 308 149
f 149 308 311
f 149 311 153
f 153 311 315
f 153 315 150
f 150 315 312
f 150 312 147
f 147 312 309
f 147 309 136
f 136 309 298
f 136 298 133
f 133 298 295
f 133 295 32
f 32 295 193
f 32 193 33
f 33 193 195
f 33 195 31
f 31 195 194
f 31 194 35
f 35 194 197
f 35 197 34
f 34 197 196
f 34 196 37
f 37 196 199
f 37 199 36
f 36 199 198
f 36 198 39
f 39 198 201
f 39 201 38
f 38 201 200
f 38 200 41
f 41 200 203
f 41 203 40
f 40 203 202
f 40 202 43
f 43 202 205
f 43 205 42
f 42 205 204
f 42 204 45
f 45 204 207
f 45 207 44
f 44 207 206
f 44 206 47
f 47 206 209
f 47 209 46
f 46 209 208
f 46 208 134
f 134 208 296
f 134 296 156
f 156 296 318
f 156 318 151
f 151 318 313
f 151 313 141
f 141 313 303
f 141 303 49
f 49 303 210
f 49 210 50
f 50 210 212
f 50 212 48
f 48 212 211
f 48 211 52
f 52 211 214
f 52 214 51
f 51 214 213
f 51 213 54
f 54 213 216
f 54 216 53
f 53 216 215
f 53 215 56
f 56 215 218
f 56 218 55
f 55 218 217
f 55 217 58
f 58 217 220
f 58 220 57
f 57 220 219
f 57 219 60
f 60 219 222
f 60 222 59
f 59 222 221
f 59 221 62
f 62 221 224
f 62 224 61
f 61 224 223
f 61 223 64
f 64 223 226
f 64 226 63
f 63 226 225
f 63 225 66
f 66 225 228
f 66 228 65
f 65 228 227
f 65 227 68
f 68 227 230
f 68 230 67
f 67 230 229
f 67 229 70
f 70 229 232
f 70 232 69
f 69 232 231
f 69 231 72
f 72 231 234
f 72 234 71
f 71 234 233
f 71 233 137
f 137 233 299
f 137 299 142
f 142 299 304
f 142 304 138
f 138 304 300
f 138 300 128
f 128 300 290
f 128 290 74
f 74 290 235
f 74 235 75
f 75 235 237
f 75 237 73
f 73 237 236
f 73 236 77
f 77 236 239
f 77 239 76
f 76 239 238
f 76 238 143
f 143 238 305
f 143 305 79
f 79 305 240
f 79 240 80
f 80 240 242
f 80 242 78
f 78 242 241
f 78 241 160
f 160 241 322
f 160 322 162
f 162 322 324
f 162 324 161
f 161 324 323
f 161 323 159
f 159 323 321
f 159 321 158
f 158 321 320
f 158 320 157
f 157 320 319
f 157 319 155
f 155 319 317
f 155 317 154
f 154 317 316
f 154 316 152
f 152 316 314
f 152 314 129
f 129 314 291
f 129 291 82
f 82 291 243
f 82 243 83
f 83 243 245
f 83 245 81
f 81 245 244
f 81 244 85
f 85 244 247
f 85 247 84
f 84 247 246
f 84 246 87
f 87 246 249
f 87 249 86
f 86 249 248
f 86 248 139
f 139 248 301
f 139 301 144
f 144 301 306
f 144 306 140
f 140 306 302
f 140 302 130
f 130 302 292
f 130 292 89
f 89 292 250
f 89 250 90
f 90 250 252
f 90 252 88
f 88 252 251
f 88 251 92
f 92 251 254
f 92 254 91
f 91 254 253
f 91 253 94
f 94 253 256
f 94 256 93
f 93 256 255
f 93 255 96
f 96 255 258
f 96 258 95
f 95 258 257
f 95 257 98
f 98 257 260
f 98 260 97
f 97 260 259
f 97 259 100
f 100 259 262
f 100 262 99
f 99 262 261
f 99 261 102
f 102 261 264
f 102 264 101
f 101 264 263
f 101 263 104
f 104 263 266
f 104 266 103
f 103 266 265
f 103 265 106
f 106 265 268
f 106 268 105
f 105 268 267
f 105 267 108
f 108 267 270
f 108 270 107
f 107 270 269
f 107 269 131
f 131 269 293
f 131 293 145
f 145 293 307
f 145 307 148
f 148 307 310
f 148 310 110
f 110 310 271
f 110 271 111
f 111 271 273
f 111 273 109
f 109 273 272
f 109 272 113
f 113 272 275
f 113 275 112
f 112 275 274
f 112 274 115
f 115 274 277
f 115 277 114
f 114 277 276
f 114 276 117
f 117 276 279
f 117 279 116
f 116 279 278
f 116 278 119
f 119 278 281
f 119 281 118
f 118 281 280
f 118 280 121
f 121 280 283
f 121 283 120
f 120 283 282
f 120 282 123
f 123 282 285
f 123 285 122
f 122 285 284
f 122 284 125
f 125 284 287
f 125 287 124
f 124 287 286
f 124 286 127
f 127 286 289
f 127 289 126
f 126 289 288
f 126 288 2
f 2 288 163
f 2 163 3
f 3 163 165
f 3 165 1
f 1 165 164
o 
v 22.195 0 -77.356
v 21.456 0 -77.785
v 22.169 0 -77.566
v 23.539 0 -75.357
v 22.84 0 -76.3
v 23.194 0 -75.825
v 24.261 0 -74.35
v 23.889 0 -74.872
v 25.14 0 -73.1
v 24.673 0 -73.766
v 25.14 0 -70.6
v 25.73 0 -72.26
v 27.982 0 -66.923
v 25.27 0 -66.04
v 26.748 0 -66.533
v 29.714 0 -67.39
v 28.971 0 -67.209
v 30.46 0 -67.44
v 30.211 0 -67.468
v 30.858 0 -67.146
v 30.598 0 -67.341
v 31.659 0 -66.531
v 31.219 0 -66.87
v 32.69 0 -65.73
v 32.156 0 -66.146
v 36 0 -70.39
v 36.005 0 -66.111
v 36 0 -67.3
v 37.374 0 -71.354
v 37.245 0 -71.252
v 37.29 0 -71.29
v 37.846 0 -71.681
v 37.565 0 -71.488
v 38.615 0 -72.199
v 38.202 0 -71.922
v 37.361 0 -76.102
v 38.819 0 -75.621
v 38.09 0 -75.86
v 36.116 0 -76.534
v 36.694 0 -76.33
v 35.341 0 -76.829
v 35.656 0 -76.704
v 35.143 0 -76.997
v 35.2 0 -76.9
v 34.969 0 -77.425
v 35.064 0 -77.177
v 34.752 0 -78.067
v 34.863 0 -77.727
v 34.521 0 -78.838
v 34.64 0 -78.43
v 34.25 0 -79.796
v 34.389 0 -79.303
v 30.267 0 -79.973
v 30.86 0 -80.79
v 30.567 0 -80.385
v 29.707 0 -79.21
v 29.975 0 -79.575
v 29.3 0 -78.66
v 29.477 0 -78.898
v 25.69 0 -78.04
v 28.79 0 -77.97
v 22.226 0 -77.743
v 21.474 0 -78.183
v 21.447 0 -78.016
v 21.662 0 -78.427
v 21.543 0 -78.31
v 22.04 0 -78.69
v 21.84 0 -78.56
v 22.622 0 -78.821
v 22.271 0 -78.775
v 24.052 0 -78.822
v 23.186 0 -78.835
v 28.36 0 -78.7
v 25.31 0 -78.79
v 29.32 0 -80.03
v 29.11 0 -79.74
v 29.736 0 -80.599
v 29.532 0 -80.321
v 30.076 0 -81.057
v 29.921 0 -80.849
v 30.443 0 -81.549
v 30.19 0 -81.21
v 30.297 0 -81.354
v 31.538 0 -83.01
v 31.005 0 -82.305
v 31.2 0 -82.57
v 32.044 0 -83.514
v 31.807 0 -83.316
v 32.573 0 -83.681
v 32.287 0 -83.627
v 33.264 0 -83.675
v 32.94 0 -83.7
v 33.77 0 -83.421
v 33.538 0 -83.584
v 34.13 0 -82.851
v 33.965 0 -83.179
v 34.325 0 -82.237
v 34.27 0 -82.43
v 34.697 0 -81.026
v 34.585 0 -81.386
v 34.64 0 -81.21
v 34.84 0 -80.552
v 34.765 0 -80.802
v 35.137 0 -79.553
v 34.996 0 -80.033
v 35.07 0 -79.79
v 35.507 0 -78.433
v 35.43 0 -78.64
v 35.467 0 -78.547
v 35.583 0 -78.167
v 35.546 0 -78.304
v 35.64 0 -77.9
v 35.615 0 -78.031
v 37.486 0 -76.882
v 36.553 0 -77.193
v 37.11 0 -77.01
v 38.161 0 -76.649
v 37.841 0 -76.76
v 38.627 0 -76.479
v 38.429 0 -76.554
v 38.82 0 -76.388
v 38.74 0 -76.43
v 39.439 0 -76.285
v 39.239 0 -76.294
v 39.34 0 -76.29
v 39.615 0 -76.253
v 39.531 0 -76.272
v 39.738 0 -76.2
v 39.685 0 -76.228
v 41.026 0 -75.708
v 40.365 0 -75.917
v 40.56 0 -75.86
v 41.615 0 -75.309
v 41.374 0 -75.53
v 41.83 0 -74.666
v 41.763 0 -75.027
v 41.79 0 -73.39
v 41.83 0 -74.21
v 40.081 0 -72.195
v 40.79 0 -72.69
v 40.473 0 -72.466
v 39.169 0 -71.578
v 39.638 0 -71.894
v 38.26 0 -70.97
v 38.702 0 -71.265
v 36.704 0 -65.36
v 36.71 0 -69.94
v 36.71 0 -66.86
v 36.555 0 -63.731
v 36.664 0 -64.351
v 35.992 0 -63.253
v 36.343 0 -63.399
v 35.217 0 -63.17
v 35.47 0 -63.19
v 34.83 0 -63.201
v 35.008 0 -63.173
v 34.51 0 -63.342
v 34.669 0 -63.257
v 34.167 0 -63.589
v 34.34 0 -63.46
v 33.611 0 -64.01
v 33.919 0 -63.776
v 32.886 0 -64.565
v 33.261 0 -64.277
v 31.391 0 -65.721
v 32.5 0 -64.86
v 26.947 0 -65.759
v 28.5 0 -66.29
v 27.765 0 -66.021
v 25.353 0 -65.325
v 26.119 0 -65.52
v 24.3 0 -65.14
v 24.723 0 -65.192
v 23.827 0 -65.167
v 24.034 0 -65.146
v 23.533 0 -65.276
v 23.665 0 -65.209
v 23.3 0 -65.51
v 23.416 0 -65.375
v 23.147 0 -65.766
v 23.219 0 -65.628
v 23.04 0 -66.074
v 23.086 0 -65.917
v 23 0 -66.37
v 23.01 0 -66.227
v 23.079 0 -66.931
v 23.015 0 -66.611
v 23.461 0 -68.142
v 23.219 0 -67.414
v 24.36 0 -70.67
v 23.832 0 -69.199
v 23.195 0 -74.417
v 24.87 0 -72.14
v 24.19 0 -73.06
v 22.011 0 -76.134
v 22.486 0 -75.414
v 21.564 0 -77.074
v 21.721 0 -76.659
v 21.49 0 -77.46
v 22.311 0 -77.091
v 24.465 0 -68.7
v 36.61 0 -70.8
v 39.07 0 -72.5
v 24.533 0 -78.066
v 22.36 0 -77.91
v 30.616 0 -81.781
v 30.807 0 -82.037
v 34.522 0 -81.589
v 34.919 0 -80.291
v 35.388 0 -78.748
v 39.77 0 -76.17
v 28.599 0 -66.325
v 22.524 0 -76.746
v 24.03 0 -67.423
v 33.785 0 -64.876
v 35.998 0 -65.264
v 37.165 0 -71.192
v 39.485 0 -75.399
v 34.111 0 -80.291
v 23.687 0 -78.075
v 22.488 0 -77.984
v 34.388 0 -82.025
v 35.206 0 -79.319
v 40.186 0 -75.976
v 23.81 0 -66.636
v 25.024 0 -65.968
v 35.974 0 -64.695
v 37.055 0 -71.113
v 33.979 0 -80.758
v 23.099 0 -78.065
v 22.717 0 -78.035
v 34.455 0 -81.805
v 35.334 0 -78.905
v 38.916 0 -76.354
v 39.131 0 -76.306
v 40.03 0 -76.034
v 28.729 0 -66.37
v 24.798 0 -65.914
v 36.771 0 -70.913
v 40.061 0 -75.204
v 35.272 0 -79.099
v 39.021 0 -76.326
v 39.904 0 -76.087
v 28.882 0 -66.421
v 35.929 0 -64.343
v 36.922 0 -71.018
v 40.518 0 -75.044
v 35.689 0 -77.721
v 39.815 0 -76.134
v 29.051 0 -66.477
v 29.226 0 -66.534
v 39.533 0 -72.81
v 29.4 0 -66.59
v 23.776 0 -66.207
v 31.766 0 -81.994
v 29.684 0 -66.675
v 32.418 0 -82.731
v 23.902 0 -66.002
v 36.167 0 -77.336
v 24.16 0 -65.89
v 32.885 0 -83.009
v 24.273 0 -65.866
v 24.419 0 -65.862
v 33.236 0 -82.836
v 24.595 0 -65.879
v 33.538 0 -82.22
v 33.86 0 -81.17
v 29.917 0 -66.69
v 30.208 0 -66.576
v 35.77 0 -77.58
v 30.663 0 -66.273
v 35.917 0 -77.459
v 40.827 0 -74.93
v 40.96 0 -74.87
v 34.535 0 -64.314
v 35.024 0 -63.996
v 35.335 0 -63.876
v 41.085 0 -74.753
v 41.167 0 -74.601
v 35.553 0 -63.906
v 41.206 0 -74.427
v 35.76 0 -64.04
v 41.199 0 -74.246
v 35.859 0 -64.145
v 41.144 0 -74.069
v 41.04 0 -73.91
v 40.911 0 -73.8
v 40.676 0 -73.62
v 40.355 0 -73.385
v 39.967 0 -73.11
v 21.456 10 -77.785
v 22.195 10 -77.356
v 22.169 10 -77.566
v 22.84 10 -76.3
v 23.539 10 -75.357
v 23.194 10 -75.825
v 24.261 10 -74.35
v 23.889 10 -74.872
v 25.14 10 -73.1
v 24.673 10 -73.766
v 25.14 10 -70.6
v 25.73 10 -72.26
v 25.27 10 -66.04
v 27.982 10 -66.923
v 26.748 10 -66.533
v 29.714 10 -67.39
v 28.971 10 -67.209
v 30.46 10 -67.44
v 30.211 10 -67.468
v 30.858 10 -67.146
v 30.598 10 -67.341
v 31.659 10 -66.531
v 31.219 10 -66.87
v 32.69 10 -65.73
v 32.156 10 -66.146
v 36.005 10 -66.111
v 36 10 -70.39
v 36 10 -67.3
v 37.245 10 -71.252
v 37.374 10 -71.354
v 37.29 10 -71.29
v 37.846 10 -71.681
v 37.565 10 -71.488
v 38.615 10 -72.199
v 38.202 10 -71.922
v 38.819 10 -75.621
v 37.361 10 -76.102
v 38.09 10 -75.86
v 36.116 10 -76.534
v 36.694 10 -76.33
v 35.341 10 -76.829
v 35.656 10 -76.704
v 35.143 10 -76.997
v 35.2 10 -76.9
v 34.969 10 -77.425
v 35.064 10 -77.177
v 34.752 10 -78.067
v 34.863 10 -77.727
v 34.521 10 -78.838
v 34.64 10 -78.43
v 34.25 10 -79.796
v 34.389 10 -79.303
v 30.86 10 -80.79
v 30.267 10 -79.973
v 30.567 10 -80.385
v 29.707 10 -79.21
v 29.975 10 -79.575
v 29.3 10 -78.66
v 29.477 10 -78.898
v 25.69 10 -78.04
v 28.79 10 -77.97
v 22.226 10 -77.743
v 21.474 10 -78.183
v 21.447 10 -78.016
v 21.662 10 -78.427
v 21.543 10 -78.31
v 22.04 10 -78.69
v 21.84 10 -78.56
v 22.622 10 -78.821
v 22.271 10 -78.775
v 24.052 10 -78.822
v 23.186 10 -78.835
v 28.36 10 -78.7
v 25.31 10 -78.79
v 29.32 10 -80.03
v 29.11 10 -79.74
v 29.736 10 -80.599
v 29.532 10 -80.321
v 30.076 10 -81.057
v 29.921 10 -80.849
v 30.19 10 -81.21
v 30.443 10 -81.549
v 30.297 10 -81.354
v 31.005 10 -82.305
v 31.538 10 -83.01
v 31.2 10 -82.57
v 32.044 10 -83.514
v 31.807 10 -83.316
v 32.573 10 -83.681
v 32.287 10 -83.627
v 33.264 10 -83.675
v 32.94 10 -83.7
v 33.77 10 -83.421
v 33.538 10 -83.584
v 34.13 10 -82.851
v 33.965 10 -83.179
v 34.325 10 -82.237
v 34.27 10 -82.43
v 34.585 10 -81.386
v 34.697 10 -81.026
v 34.64 10 -81.21
v 34.84 10 -80.552
v 34.765 10 -80.802
v 34.996 10 -80.033
v 35.137 10 -79.553
v 35.07 10 -79.79
v 35.43 10 -78.64
v 35.507 10 -78.433
v 35.467 10 -78.547
v 35.583 10 -78.167
v 35.546 10 -78.304
v 35.64 10 -77.9
v 35.615 10 -78.031
v 36.553 10 -77.193
v 37.486 10 -76.882
v 37.11 10 -77.01
v 38.161 10 -76.649
v 37.841 10 -76.76
v 38.627 10 -76.479
v 38.429 10 -76.554
v 38.82 10 -76.388
v 38.74 10 -76.43
v 39.239 10 -76.294
v 39.439 10 -76.285
v 39.34 10 -76.29
v 39.615 10 -76.253
v 39.531 10 -76.272
v 39.738 10 -76.2
v 39.685 10 -76.228
v 40.365 10 -75.917
v 41.026 10 -75.708
v 40.56 10 -75.86
v 41.615 10 -75.309
v 41.374 10 -75.53
v 41.83 10 -74.666
v 41.763 10 -75.027
v 41.79 10 -73.39
v 41.83 10 -74.21
v 40.79 10 -72.69
v 40.081 10 -72.195
v 40.473 10 -72.466
v 39.169 10 -71.578
v 39.638 10 -71.894
v 38.26 10 -70.97
v 38.702 10 -71.265
v 36.71 10 -69.94
v 36.704 10 -65.36
v 36.71 10 -66.86
v 36.555 10 -63.731
v 36.664 10 -64.351
v 35.992 10 -63.253
v 36.343 10 -63.399
v 35.217 10 -63.17
v 35.47 10 -63.19
v 34.83 10 -63.201
v 35.008 10 -63.173
v 34.51 10 -63.342
v 34.669 10 -63.257
v 34.167 10 -63.589
v 34.34 10 -63.46
v 33.611 10 -64.01
v 33.919 10 -63.776
v 32.886 10 -64.565
v 33.261 10 -64.277
v 31.391 10 -65.721
v 32.5 10 -64.86
v 28.5 10 -66.29
v 26.947 10 -65.759
v 27.765 10 -66.021
v 25.353 10 -65.325
v 26.119 10 -65.52
v 24.3 10 -65.14
v 24.723 10 -65.192
v 23.827 10 -65.167
v 24.034 10 -65.146
v 23.533 10 -65.276
v 23.665 10 -65.209
v 23.3 10 -65.51
v 23.416 10 -65.375
v 23.147 10 -65.766
v 23.219 10 -65.628
v 23.04 10 -66.074
v 23.086 10 -65.917
v 23 10 -66.37
v 23.01 10 -66.227
v 23.079 10 -66.931
v 23.015 10 -66.611
v 23.461 10 -68.142
v 23.219 10 -67.414
v 24.36 10 -70.67
v 23.832 10 -69.199
v 24.87 10 -72.14
v 23.195 10 -74.417
v 24.19 10 -73.06
v 22.011 10 -76.134
v 22.486 10 -75.414
v 21.564 10 -77.074
v 21.721 10 -76.659
v 21.49 10 -77.46
v 22.311 10 -77.091
v 24.465 10 -68.7
v 36.61 10 -70.8
v 39.07 10 -72.5
v 24.533 10 -78.066
v 22.36 10 -77.91
v 30.616 10 -81.781
v 30.807 10 -82.037
v 34.522 10 -81.589
v 34.919 10 -80.291
v 35.388 10 -78.748
v 39.77 10 -76.17
v 28.599 10 -66.325
v 22.524 10 -76.746
v 24.03 10 -67.423
v 33.785 10 -64.876
v 35.998 10 -65.264
v 37.165 10 -71.192
v 39.485 10 -75.399
v 34.111 10 -80.291
v 23.687 10 -78.075
v 22.488 10 -77.984
v 34.388 10 -82.025
v 35.206 10 -79.319
v 40.186 10 -75.976
v 23.81 10 -66.636
v 25.024 10 -65.968
v 35.974 10 -64.695
v 37.055 10 -71.113
v 33.979 10 -80.758
v 23.099 10 -78.065
v 22.717 10 -78.035
v 34.455 10 -81.805
v 35.334 10 -78.905
v 38.916 10 -76.354
v 39.131 10 -76.306
v 40.03 10 -76.034
v 28.729 10 -66.37
v 24.798 10 -65.914
v 36.771 10 -70.913
v 40.061 10 -75.204
v 35.272 10 -79.099
v 39.021 10 -76.326
v 39.904 10 -76.087
v 28.882 10 -66.421
v 35.929 10 -64.343
v 36.922 10 -71.018
v 40.518 10 -75.044
v 35.689 10 -77.721
v 39.815 10 -76.134
v 29.051 10 -66.477
v 29.226 10 -66.534
v 39.533 10 -72.81
v 29.4 10 -66.59
v 23.776 10 -66.207
v 31.766 10 -81.994
v 29.684 10 -66.675
v 32.418 10 -82.731
v 23.902 10 -66.002
v 36.167 10 -77.336
v 24.16 10 -65.89
v 32.885 10 -83.009
v 24.273 10 -65.866
v 24.419 10 -65.862
v 33.236 10 -82.836
v 24.595 10 -65.879
v 33.538 10 -82.22
v 33.86 10 -81.17
v 29.917 10 -66.69
v 30.208 10 -66.576
v 35.77 10 -77.58
v 30.663 10 -66.273
v 35.917 10 -77.459
v 40.827 10 -74.93
v 40.96 10 -74.87
v 34.535 10 -64.314
v 35.024 10 -63.996
v 35.335 10 -63.876
v 41.085 10 -74.753
v 41.167 10 -74.601
v 35.553 10 -63.906
v 41.206 10 -74.427
v 35.76 10 -64.04
v 41.199 10 -74.246
v 35.859 10 -64.145
v 41.144 10 -74.069
v 41.04 10 -73.91
v 40.911 10 -73.8
v 40.676 10 -73.62
v 40.355 10 -73.385
v 39.967 10 -73.11
f 325 326 327
f 328 329 330
f 331 328 332
f 333 331 334
f 335 333 336
f 337 338 339
f 340 337 341
f 342 340 343
f 344 342 345
f 346 344 347
f 348 346 349
f 350 351 352
f 353 354 355
f 356 353 357
f 358 356 359
f 360 361 362
f 363 360 364
f 365 363 366
f 367 365 368
f 369 367 370
f 371 369 372
f 373 371 374
f 375 373 376
f 377 378 379
f 380 377 381
f 382 380 383
f 384 382 385
f 326 386 327
f 387 326 388
f 389 387 390
f 391 389 392
f 393 391 394
f 395 393 396
f 397 395 398
f 399 397 400
f 401 399 402
f 403 401 404
f 405 406 407
f 408 409 410
f 411 408 412
f 413 411 414
f 415 413 416
f 417 415 418
f 419 417 420
f 421 419 422
f 423 424 425
f 426 423 427
f 428 429 430
f 431 432 433
f 434 431 435
f 436 434 437
f 438 439 440
f 441 438 442
f 443 441 444
f 445 443 446
f 447 448 449
f 450 447 451
f 452 450 453
f 454 455 456
f 457 454 458
f 459 457 460
f 461 459 462
f 463 464 465
f 466 463 467
f 468 466 469
f 470 471 472
f 473 470 474
f 475 473 476
f 477 475 478
f 479 477 480
f 481 479 482
f 483 481 484
f 485 483 486
f 487 485 488
f 489 487 490
f 491 492 493
f 494 491 495
f 496 494 497
f 498 496 499
f 500 498 501
f 502 500 503
f 504 502 505
f 506 504 507
f 508 506 509
f 510 508 511
f 512 510 513
f 514 512 515
f 516 517 518
f 519 516 520
f 521 519 522
f 326 521 523
f 524 326 325
f 331 329 328
f 525 333 335
f 340 338 337
f 344 340 342
f 348 344 346
f 526 351 350
f 356 354 353
f 527 356 358
f 363 361 360
f 367 363 365
f 371 367 369
f 375 371 373
f 380 378 377
f 528 382 384
f 326 529 386
f 389 326 387
f 393 389 391
f 397 393 395
f 401 397 399
f 406 401 403
f 530 406 405
f 408 531 409
f 413 408 411
f 417 413 415
f 421 417 419
f 423 532 424
f 533 423 426
f 428 533 429
f 431 534 432
f 436 431 434
f 441 439 438
f 445 441 443
f 450 448 447
f 535 450 452
f 457 455 454
f 461 457 459
f 463 461 464
f 468 463 466
f 473 471 470
f 477 473 475
f 481 477 479
f 485 481 483
f 489 485 487
f 491 536 492
f 496 491 494
f 500 496 498
f 504 500 502
f 508 504 506
f 512 508 510
f 519 517 516
f 326 519 521
f 537 326 524
f 333 329 331
f 538 333 525
f 344 338 340
f 539 344 348
f 526 540 351
f 356 541 354
f 363 542 361
f 371 363 367
f 543 371 375
f 382 378 380
f 544 382 528
f 326 545 529
f 393 326 389
f 406 397 401
f 408 530 531
f 417 408 413
f 546 417 421
f 533 532 423
f 547 533 428
f 436 534 431
f 445 439 441
f 535 448 450
f 457 548 455
f 468 461 463
f 481 473 477
f 489 481 485
f 496 536 491
f 504 496 500
f 512 504 508
f 326 517 519
f 329 326 537
f 549 333 538
f 344 550 338
f 526 551 540
f 356 552 541
f 371 542 363
f 553 371 543
f 554 382 544
f 326 555 545
f 530 397 406
f 556 417 546
f 533 556 532
f 436 557 534
f 558 439 445
f 535 559 448
f 457 560 548
f 471 461 468
f 496 561 536
f 514 504 512
f 329 517 326
f 344 562 550
f 563 551 526
f 527 552 356
f 371 564 542
f 555 382 554
f 393 555 326
f 408 397 530
f 533 417 556
f 436 565 557
f 535 566 559
f 457 567 560
f 496 568 561
f 517 504 514
f 333 517 329
f 563 569 551
f 527 570 552
f 371 571 564
f 393 382 555
f 547 417 533
f 572 565 436
f 573 566 535
f 496 574 568
f 333 504 517
f 527 563 570
f 397 382 393
f 565 417 547
f 567 566 573
f 496 575 574
f 549 504 333
f 576 563 527
f 397 378 382
f 572 417 565
f 567 558 566
f 496 577 575
f 578 504 549
f 397 579 378
f 457 558 567
f 496 580 577
f 578 496 504
f 397 581 579
f 457 439 558
f 582 496 578
f 408 581 397
f 457 583 439
f 584 496 582
f 408 585 581
f 586 496 584
f 417 585 408
f 587 496 586
f 417 588 585
f 589 496 587
f 417 590 588
f 589 580 496
f 417 591 590
f 562 580 589
f 417 553 591
f 344 580 562
f 417 371 553
f 344 592 580
f 572 371 417
f 344 593 592
f 594 371 572
f 344 595 593
f 596 371 594
f 344 489 595
f 596 571 371
f 344 481 489
f 596 597 571
f 539 481 344
f 596 598 597
f 599 481 539
f 583 598 596
f 600 481 599
f 457 598 583
f 601 481 600
f 457 602 598
f 601 473 481
f 457 603 602
f 604 473 601
f 457 605 603
f 606 473 604
f 457 607 605
f 608 473 606
f 457 609 607
f 569 473 608
f 461 609 457
f 569 471 473
f 461 610 609
f 563 471 569
f 461 611 610
f 563 461 471
f 461 612 611
f 576 461 563
f 461 613 612
f 614 461 576
f 461 614 613
f 615 616 617
f 618 619 620
f 619 621 622
f 621 623 624
f 623 625 626
f 627 628 629
f 628 630 631
f 630 632 633
f 632 634 635
f 634 636 637
f 636 638 639
f 640 641 642
f 643 644 645
f 644 646 647
f 646 648 649
f 650 651 652
f 651 653 654
f 653 655 656
f 655 657 658
f 657 659 660
f 659 661 662
f 661 663 664
f 663 665 666
f 667 668 669
f 668 670 671
f 670 672 673
f 672 674 675
f 676 615 617
f 615 677 678
f 677 679 680
f 679 681 682
f 681 683 684
f 683 685 686
f 685 687 688
f 687 689 690
f 689 691 692
f 691 693 694
f 695 696 697
f 698 699 700
f 699 701 702
f 701 703 704
f 703 705 706
f 705 707 708
f 707 709 710
f 709 711 712
f 713 714 715
f 714 716 717
f 718 719 720
f 721 722 723
f 722 724 725
f 724 726 727
f 728 729 730
f 729 731 732
f 731 733 734
f 733 735 736
f 737 738 739
f 738 740 741
f 740 742 743
f 744 745 746
f 745 747 748
f 747 749 750
f 749 751 752
f 753 754 755
f 754 756 757
f 756 758 759
f 760 761 762
f 761 763 764
f 763 765 766
f 765 767 768
f 767 769 770
f 769 771 772
f 771 773 774
f 773 775 776
f 775 777 778
f 777 779 780
f 781 782 783
f 782 784 785
f 784 786 787
f 786 788 789
f 788 790 791
f 790 792 793
f 792 794 795
f 794 796 797
f 796 798 799
f 798 800 801
f 800 802 803
f 802 804 805
f 806 807 808
f 807 809 810
f 809 811 812
f 811 615 813
f 615 814 616
f 618 621 619
f 623 815 625
f 627 630 628
f 630 634 632
f 634 638 636
f 640 816 641
f 643 646 644
f 646 817 648
f 650 653 651
f 653 657 655
f 657 661 659
f 661 665 663
f 667 670 668
f 672 818 674
f 819 615 676
f 615 679 677
f 679 683 681
f 683 687 685
f 687 691 689
f 691 695 693
f 695 820 696
f 821 699 698
f 699 703 701
f 703 707 705
f 707 711 709
f 822 714 713
f 714 823 716
f 823 719 718
f 824 722 721
f 722 726 724
f 728 731 729
f 731 735 733
f 737 740 738
f 740 825 742
f 744 747 745
f 747 751 749
f 751 754 753
f 754 758 756
f 760 763 761
f 763 767 765
f 767 771 769
f 771 775 773
f 775 779 777
f 826 782 781
f 782 786 784
f 786 790 788
f 790 794 792
f 794 798 796
f 798 802 800
f 806 809 807
f 809 615 811
f 615 827 814
f 618 623 621
f 623 828 815
f 627 634 630
f 634 829 638
f 830 816 640
f 831 646 643
f 832 653 650
f 653 661 657
f 661 833 665
f 667 672 670
f 672 834 818
f 835 615 819
f 615 683 679
f 687 695 691
f 820 699 821
f 699 707 703
f 707 836 711
f 822 823 714
f 823 837 719
f 824 726 722
f 728 735 731
f 737 825 740
f 838 747 744
f 751 758 754
f 763 771 767
f 771 779 775
f 826 786 782
f 786 794 790
f 794 802 798
f 806 615 809
f 615 618 827
f 623 839 828
f 840 634 627
f 841 816 830
f 842 646 831
f 832 661 653
f 661 843 833
f 672 844 834
f 845 615 835
f 687 820 695
f 707 846 836
f 846 823 822
f 847 726 824
f 728 848 735
f 849 825 737
f 850 747 838
f 751 760 758
f 851 786 826
f 794 804 802
f 806 618 615
f 852 634 840
f 841 853 816
f 842 817 646
f 854 661 832
f 672 845 844
f 845 683 615
f 687 699 820
f 707 823 846
f 855 726 847
f 856 825 849
f 857 747 850
f 858 786 851
f 794 806 804
f 806 623 618
f 859 853 841
f 860 817 842
f 861 661 854
f 672 683 845
f 707 837 823
f 855 862 726
f 856 863 825
f 864 786 858
f 794 623 806
f 853 817 860
f 672 687 683
f 707 855 837
f 856 857 863
f 865 786 864
f 794 839 623
f 853 866 817
f 667 687 672
f 707 862 855
f 848 857 856
f 867 786 865
f 794 868 839
f 869 687 667
f 848 747 857
f 870 786 867
f 786 868 794
f 871 687 869
f 728 747 848
f 786 872 868
f 871 699 687
f 873 747 728
f 786 874 872
f 875 699 871
f 786 876 874
f 875 707 699
f 786 877 876
f 878 707 875
f 786 879 877
f 880 707 878
f 870 879 786
f 881 707 880
f 870 852 879
f 843 707 881
f 870 634 852
f 661 707 843
f 882 634 870
f 661 862 707
f 883 634 882
f 661 884 862
f 885 634 883
f 661 886 884
f 779 634 885
f 861 886 661
f 771 634 779
f 887 886 861
f 771 829 634
f 888 886 887
f 771 889 829
f 888 873 886
f 771 890 889
f 888 747 873
f 771 891 890
f 892 747 888
f 763 891 771
f 893 747 892
f 763 894 891
f 895 747 893
f 763 896 894
f 897 747 895
f 763 898 896
f 899 747 897
f 763 859 898
f 899 751 747
f 760 859 763
f 900 751 899
f 760 853 859
f 901 751 900
f 751 853 760
f 902 751 901
f 751 866 853
f 903 751 902
f 751 904 866
f 904 751 903
f 484 774 483
f 483 774 773
f 483 773 486
f 486 773 776
f 486 776 485
f 485 776 775
f 485 775 488
f 488 775 778
f 488 778 487
f 487 778 777
f 487 777 490
f 490 777 780
f 490 780 489
f 489 780 779
f 489 779 595
f 595 779 885
f 595 885 593
f 593 885 883
f 593 883 592
f 592 883 882
f 592 882 580
f 580 882 870
f 580 870 577
f 577 870 867
f 577 867 575
f 575 867 865
f 575 865 574
f 574 865 864
f 574 864 568
f 568 864 858
f 568 858 561
f 561 858 851
f 561 851 536
f 536 851 826
f 536 826 492
f 492 826 781
f 492 781 493
f 493 781 783
f 493 783 491
f 491 783 782
f 491 782 495
f 495 782 785
f 495 785 494
f 494 785 784
f 494 784 497
f 497 784 787
f 497 787 496
f 496 787 786
f 496 786 499
f 499 786 789
f 499 789 498
f 498 789 788
f 498 788 501
f 501 788 791
f 501 791 500
f 500 791 790
f 500 790 503
f 503 790 793
f 503 793 502
f 502 793 792
f 502 792 505
f 505 792 795
f 505 795 504
f 504 795 794
f 504 794 507
f 507 794 797
f 507 797 506
f 506 797 796
f 506 796 509
f 509 796 799
f 509 799 508
f 508 799 798
f 508 798 511
f 511 798 801
f 511 801 510
f 510 801 800
f 510 800 513
f 513 800 803
f 513 803 512
f 512 803 802
f 512 802 515
f 515 802 805
f 515 805 514
f 514 805 804
f 514 804 517
f 517 804 806
f 517 806 518
f 518 806 808
f 518 808 516
f 516 808 807
f 516 807 520
f 520 807 810
f 520 810 519
f 519 810 809
f 519 809 522
f 522 809 812
f 522 812 521
f 521 812 811
f 521 811 523
f 523 811 813
f 523 813 326
f 326 813 615
f 326 615 388
f 388 615 678
f 388 678 387
f 387 678 677
f 387 677 390
f 390 677 680
f 390 680 389
f 389 680 679
f 389 679 392
f 392 679 682
f 392 682 391
f 391 682 681
f 391 681 394
f 394 681 684
f 394 684 393
f 393 684 683
f 393 683 396
f 396 683 686
f 396 686 395
f 395 686 685
f 395 685 398
f 398 685 688
f 398 688 397
f 397 688 687
f 397 687 400
f 400 687 690
f 400 690 399
f 399 690 689
f 399 689 402
f 402 689 692
f 402 692 401
f 401 692 691
f 401 691 404
f 404 691 694
f 404 694 403
f 403 694 693
f 403 693 406
f 406 693 695
f 406 695 407
f 407 695 697
f 407 697 405
f 405 697 696
f 405 696 530
f 530 696 820
f 530 820 531
f 531 820 821
f 531 821 409
f 409 821 698
f 409 698 410
f 410 698 700
f 410 700 408
f 408 700 699
f 408 699 412
f 412 699 702
f 412 702 411
f 411 702 701
f 411 701 414
f 414 701 704
f 414 704 413
f 413 704 703
f 413 703 416
f 416 703 706
f 416 706 415
f 415 706 705
f 415 705 418
f 418 705 708
f 418 708 417
f 417 708 707
f 417 707 420
f 420 707 710
f 420 710 419
f 419 710 709
f 419 709 422
f 422 709 712
f 422 712 421
f 421 712 711
f 421 711 546
f 546 711 836
f 546 836 556
f 556 836 846
f 556 846 532
f 532 846 822
f 532 822 424
f 424 822 713
f 424 713 425
f 425 713 715
f 425 715 423
f 423 715 714
f 423 714 427
f 427 714 717
f 427 717 426
f 426 717 716
f 426 716 533
f 533 716 823
f 533 823 429
f 429 823 718
f 429 718 430
f 430 718 720
f 430 720 428
f 428 720 719
f 428 719 547
f 547 719 837
f 547 837 565
f 565 837 855
f 565 855 557
f 557 855 847
f 557 847 534
f 534 847 824
f 534 824 432
f 432 824 721
f 432 721 433
f 433 721 723
f 433 723 431
f 431 723 722
f 431 722 435
f 435 722 725
f 435 725 434
f 434 725 724
f 434 724 437
f 437 724 727
f 437 727 436
f 436 727 726
f 436 726 572
f 572 726 862
f 572 862 594
f 594 862 884
f 594 884 596
f 596 884 886
f 596 886 583
f 583 886 873
f 583 873 439
f 439 873 728
f 439 728 440
f 440 728 730
f 440 730 438
f 438 730 729
f 438 729 442
f 442 729 732
f 442 732 441
f 441 732 731
f 441 731 444
f 444 731 734
f 444 734 443
f 443 734 733
f 443 733 446
f 446 733 736
f 446 736 445
f 445 736 735
f 445 735 558
f 558 735 848
f 558 848 566
f 566 848 856
f 566 856 559
f 559 856 849
f 559 849 448
f 448 849 737
f 448 737 449
f 449 737 739
f 449 739 447
f 447 739 738
f 447 738 451
f 451 738 741
f 451 741 450
f 450 741 740
f 450 740 453
f 453 740 743
f 453 743 452
f 452 743 742
f 452 742 535
f 535 742 825
f 535 825 573
f 573 825 863
f 573 863 567
f 567 863 857
f 567 857 560
f 560 857 850
f 560 850 548
f 548 850 838
f 548 838 455
f 455 838 744
f 455 744 456
f 456 744 746
f 456 746 454
f 454 746 745
f 454 745 458
f 458 745 748
f 458 748 457
f 457 748 747
f 457 747 460
f 460 747 750
f 460 750 459
f 459 750 749
f 459 749 462
f 462 749 752
f 462 752 461
f 461 752 751
f 461 751 464
f 464 751 753
f 464 753 465
f 465 753 755
f 465 755 463
f 463 755 754
f 463 754 467
f 467 754 757
f 467 757 466
f 466 757 756
f 466 756 469
f 469 756 759
f 469 759 468
f 468 759 758
f 468 758 471
f 471 758 760
f 471 760 472
f 472 760 762
f 472 762 470
f 470 762 761
f 470 761 474
f 474 761 764
f 474 764 473
f 473 764 763
f 473 763 476
f 476 763 766
f 476 766 475
f 475 766 765
f 475 765 478
f 478 765 768
f 478 768 477
f 477 768 767
f 477 767 480
f 480 767 770
f 480 770 479
f 479 770 769
f 479 769 482
f 482 769 772
f 482 772 481
f 481 772 771
f 481 771 484
f 484 771 774
f 606 896 608
f 608 896 898
f 608 898 569
f 569 898 859
f 569 859 551
f 551 859 841
f 551 841 540
f 540 841 830
f 540 830 351
f 351 830 640
f 351 640 352
f 352 640 642
f 352 642 350
f 350 642 641
f 350 641 526
f 526 641 816
f 526 816 563
f 563 816 853
f 563 853 570
f 570 853 860
f 570 860 552
f 552 860 842
f 552 842 541
f 541 842 831
f 541 831 354
f 354 831 643
f 354 643 355
f 355 643 645
f 355 645 353
f 353 645 644
f 353 644 357
f 357 644 647
f 357 647 356
f 356 647 646
f 356 646 359
f 359 646 649
f 359 649 358
f 358 649 648
f 358 648 527
f 527 648 817
f 527 817 576
f 576 817 866
f 576 866 614
f 614 866 904
f 614 904 613
f 613 904 903
f 613 903 612
f 612 903 902
f 612 902 611
f 611 902 901
f 611 901 610
f 610 901 900
f 610 900 609
f 609 900 899
f 609 899 607
f 607 899 897
f 607 897 605
f 605 897 895
f 605 895 603
f 603 895 893
f 603 893 602
f 602 893 892
f 602 892 598
f 598 892 888
f 598 888 597
f 597 888 887
f 597 887 571
f 571 887 861
f 571 861 564
f 564 861 854
f 564 854 542
f 542 854 832
f 542 832 361
f 361 832 650
f 361 650 362
f 362 650 652
f 362 652 360
f 360 652 651
f 360 651 364
f 364 651 654
f 364 654 363
f 363 654 653
f 363 653 366
f 366 653 656
f 366 656 365
f 365 656 655
f 365 655 368
f 368 655 658
f 368 658 367
f 367 658 657
f 367 657 370
f 370 657 660
f 370 660 369
f 369 660 659
f 369 659 372
f 372 659 662
f 372 662 371
f 371 662 661
f 371 661 374
f 374 661 664
f 374 664 373
f 373 664 663
f 373 663 376
f 376 663 666
f 376 666 375
f 375 666 665
f 375 665 543
f 543 665 833
f 543 833 553
f 553 833 843
f 553 843 591
f 591 843 881
f 591 881 590
f 590 881 880
f 590 880 588
f 588 880 878
f 588 878 585
f 585 878 875
f 585 875 581
f 581 875 871
f 581 871 579
f 579 871 869
f 579 869 378
f 378 869 667
f 378 667 379
f 379 667 669
f 379 669 377
f 377 669 668
f 377 668 381
f 381 668 671
f 381 671 380
f 380 671 670
f 380 670 383
f 383 670 673
f 383 673 382
f 382 673 672
f 382 672 385
f 385 672 675
f 385 675 384
f 384 675 674
f 384 674 528
f 528 674 818
f 528 818 544
f 544 818 834
f 544 834 554
f 554 834 844
f 554 844 555
f 555 844 845
f 555 845 545
f 545 845 835
f 545 835 529
f 529 835 819
f 529 819 386
f 386 819 676
f 386 676 327
f 327 676 617
f 327 617 325
f 325 617 616
f 325 616 524
f 524 616 814
f 524 814 537
f 537 814 827
f 537 827 329
f 329 827 618
f 329 618 330
f 330 618 620
f 330 620 328
f 328 620 619
f 328 619 332
f 332 619 622
f 332 622 331
f 331 622 621
f 331 621 334
f 334 621 624
f 334 624 333
f 333 624 623
f 333 623 336
f 336 623 626
f 336 626 335
f 335 626 625
f 335 625 525
f 525 625 815
f 525 815 538
f 538 815 828
f 538 828 549
f 549 828 839
f 549 839 578
f 578 839 868
f 578 868 582
f 582 868 872
f 582 872 584
f 584 872 874
f 584 874 586
f 586 874 876
f 586 876 587
f 587 876 877
f 587 877 589
f 589 877 879
f 589 879 562
f 562 879 852
f 562 852 550
f 550 852 840
f 550 840 338
f 338 840 627
f 338 627 339
f 339 627 629
f 339 629 337
f 337 629 628
f 337 628 341
f 341 628 631
f 341 631 340
f 340 631 630
f 340 630 343
f 343 630 633
f 343 633 342
f 342 633 632
f 342 632 345
f 345 632 635
f 345 635 344
f 344 635 634
f 344 634 347
f 347 634 637
f 347 637 346
f 346 637 636
f 346 636 349
f 349 636 639
f 349 639 348
f 348 639 638
f 348 638 539
f 539 638 829
f 539 829 599
f 599 829 889
f 599 889 600
f 600 889 890
f 600 890 601
f 601 890 891
f 601 891 604
f 604 891 894
f 604 894 606
f 606 894 896
